<?xml version="1.0" encoding="utf-8"?>
<!-- generated at drububu.com  -->
<!DOCTYPE svg PUBLIC "-//W3C//DTD SVG 1.1//EN" "http://www.w3.org/Graphics/SVG/1.1/DTD/svg11.dtd">
<svg version="1.1" preserveAspectRatio="xMinYMin meet" xmlns="http://www.w3.org/2000/svg" xmlns:xlink="http://www.w3.org/1999/xlink" x="0px" y="0px" width="22px" height="24px" viewBox="0 0 22 24">
<path d="M0 0h14v2h-2v2h-2v2h-4v2h-2v2h-2v8h-2v-18z" fill="rgb(255,255,255)"/>
<path d="M14 0h2v2h-2v-2z" fill="rgb(204,212,212)"/>
<path d="M16 0h2v2h-2v-2z" fill="rgb(178,197,197)"/>
<path d="M18 0h2v2h-2v-2z" fill="rgb(204,212,212)"/>
<path d="M20 0h2v2h-2v-2z" fill="rgb(255,255,255)"/>
<path d="M12 2h2v2h-2v-2z" fill="rgb(204,212,212)"/>
<path d="M14 2h2v2h-2v-2z" fill="rgb(178,197,197)"/>
<path d="M16 2h2v2h-2v-2z" fill="rgb(73,181,181)"/>
<path d="M18 2h2v2h-2v-2z" fill="rgb(178,197,197)"/>
<path d="M20 2h2v2h-2v-2z" fill="rgb(204,212,212)"/>
<path d="M10 4h4v2h-4v-2z" fill="rgb(0,28,28)"/>
<path d="M14 4h2v2h-2v-2z" fill="rgb(73,181,181)"/>
<path d="M16 4h2v2h-2v-2z" fill="rgb(0,255,255)"/>
<path d="M18 4h2v2h-2v-2z" fill="rgb(73,181,181)"/>
<path d="M20 4h2v2h-2v-2z" fill="rgb(178,197,197)"/>
<path d="M6 6h2v2h-2v-2z" fill="rgb(71,60,49)"/>
<path d="M8 6h2v2h-2v-2z" fill="rgb(0,28,28)"/>
<path d="M10 6h2v2h-2v-2z" fill="rgb(57,89,94)"/>
<path d="M12 6h2v2h-2v-2z" fill="rgb(25,56,57)"/>
<path d="M14 6h2v2h-2v-2z" fill="rgb(0,28,28)"/>
<path d="M16 6h2v2h-2v-2z" fill="rgb(2,120,120)"/>
<path d="M18 6h2v4h-2v-4z" fill="rgb(0,28,28)"/>
<path d="M20 6h2v18h-10v-2h2v-2h2v-2h2v-8h2v-4z" fill="rgb(255,255,255)"/>
<path d="M4 8h2v2h-2v-2z" fill="rgb(71,60,49)"/>
<path d="M6 8h4v2h-4v-2z" fill="rgb(218,206,189)"/>
<path d="M10 8h2v2h-2v-2z" fill="rgb(0,28,28)"/>
<path d="M12 8h2v2h-2v-2z" fill="rgb(57,89,94)"/>
<path d="M14 8h2v2h-2v-2z" fill="rgb(25,56,57)"/>
<path d="M16 8h2v2h-2v-2z" fill="rgb(96,145,151)"/>
<path d="M2 10h2v2h-2v-2z" fill="rgb(27,27,27)"/>
<path d="M4 10h2v2h-2v-2z" fill="rgb(46,46,46)"/>
<path d="M6 10h4v8h2v2h-8v-2h4v-6h-2v-2z" fill="rgb(0,28,28)"/>
<path d="M10 10h2v2h-2v-2z" fill="rgb(57,89,94)"/>
<path d="M12 10h2v2h-2v-2z" fill="rgb(96,145,151)"/>
<path d="M14 10h2v2h-2v-2z" fill="rgb(57,89,94)"/>
<path d="M16 10h2v8h-4v-2h2v-6z" fill="rgb(0,28,28)"/>
<path d="M2 12h2v2h-2v-2z" fill="rgb(0,28,28)"/>
<path d="M4 12h2v2h-2v-2z" fill="rgb(96,145,151)"/>
<path d="M6 12h2v2h-2v-2z" fill="rgb(25,56,57)"/>
<path d="M10 12h2v2h-2v-2z" fill="rgb(96,145,151)"/>
<path d="M12 12h4v2h-4v-2z" fill="rgb(25,56,57)"/>
<path d="M2 14h2v2h-2v-2z" fill="rgb(57,89,94)"/>
<path d="M4 14h2v2h-2v-2z" fill="rgb(0,255,255)"/>
<path d="M6 14h2v2h-2v-2z" fill="rgb(2,113,113)"/>
<path d="M10 14h2v2h-2v-2z" fill="rgb(25,56,57)"/>
<path d="M12 14h2v2h-2v-2z" fill="rgb(96,145,151)"/>
<path d="M14 14h2v2h-2v-2z" fill="rgb(57,89,94)"/>
<path d="M2 16h2v2h-2v-2z" fill="rgb(0,28,28)"/>
<path d="M4 16h2v2h-2v-2z" fill="rgb(57,89,94)"/>
<path d="M6 16h2v2h-2v-2z" fill="rgb(25,56,57)"/>
<path d="M10 16h2v2h-2v-2z" fill="rgb(96,145,151)"/>
<path d="M12 16h2v2h-2v-2z" fill="rgb(25,56,57)"/>
<path d="M0 18h2v2h-2v-2z" fill="rgb(71,60,49)"/>
<path d="M2 18h2v2h-2v-2z" fill="rgb(218,206,189)"/>
<path d="M12 18h2v2h-2v-2z" fill="rgb(153,133,112)"/>
<path d="M14 18h2v2h-2v-2z" fill="rgb(71,60,49)"/>
<path d="M0 20h2v2h2v2h-4v-4z" fill="rgb(255,255,255)"/>
<path d="M2 20h2v2h-2v-2z" fill="rgb(71,60,49)"/>
<path d="M4 20h6v2h-6v-2z" fill="rgb(190,171,150)"/>
<path d="M10 20h2v2h-2v-2z" fill="rgb(153,133,112)"/>
<path d="M12 20h2v2h-2v-2z" fill="rgb(71,60,49)"/>
<path d="M4 22h8v2h-8v-2z" fill="rgb(71,60,49)"/>
</svg>