<?xml version="1.0" encoding="utf-8"?>
<!-- generated at drububu.com  -->
<!DOCTYPE svg PUBLIC "-//W3C//DTD SVG 1.1//EN" "http://www.w3.org/Graphics/SVG/1.1/DTD/svg11.dtd">
<svg version="1.1" preserveAspectRatio="xMinYMin meet" xmlns="http://www.w3.org/2000/svg" xmlns:xlink="http://www.w3.org/1999/xlink" x="0px" y="0px" width="20px" height="20px" viewBox="0 0 20 20">
<path d="M0 0h6v2h-4v2h-2v-4z" fill="rgb(255,255,255)"/>
<path d="M6 0h10v2h-10v-2z" fill="rgb(50,51,54)"/>
<path d="M16 0h4v4h-2v-2h-2v-2z" fill="rgb(255,255,255)"/>
<path d="M2 2h4v2h-4v-2z" fill="rgb(50,51,54)"/>
<path d="M6 2h10v2h2v2h-10v-2h-2v-2z" fill="rgb(170,171,171)"/>
<path d="M16 2h2v2h-2v-2z" fill="rgb(50,51,54)"/>
<path d="M0 4h2v2h16v-2h2v4h-20v-4z" fill="rgb(50,51,54)"/>
<path d="M2 4h6v2h-6v-2z" fill="rgb(255,255,255)"/>
<path d="M0 8h4v6h-2v2h2v2h2v2h-6v-12z" fill="rgb(255,255,255)"/>
<path d="M4 8h2v6h-2v-6z" fill="rgb(32,11,3)"/>
<path d="M6 8h2v2h-2v-2z" fill="rgb(65,37,26)"/>
<path d="M8 8h4v2h-4v-2z" fill="rgb(123,77,64)"/>
<path d="M12 8h2v2h-2v-2z" fill="rgb(65,37,26)"/>
<path d="M14 8h2v2h-2v-2z" fill="rgb(34,22,16)"/>
<path d="M16 8h2v2h-2v-2z" fill="rgb(64,46,39)"/>
<path d="M18 8h2v6h-2v-6z" fill="rgb(17,8,5)"/>
<path d="M6 10h2v6h4v2h-6v-8z" fill="rgb(123,77,64)"/>
<path d="M8 10h2v4h-2v-4z" fill="rgb(53,30,17)"/>
<path d="M10 10h2v4h-2v-4z" fill="rgb(247,247,247)"/>
<path d="M12 10h4v4h-2v2h-2v-6z" fill="rgb(123,77,64)"/>
<path d="M16 10h2v2h-2v-2z" fill="rgb(65,37,26)"/>
<path d="M16 12h2v2h-2v-2z" fill="rgb(94,52,36)"/>
<path d="M2 14h2v2h-2v-2z" fill="rgb(32,11,3)"/>
<path d="M4 14h2v2h-2v-2z" fill="rgb(143,97,85)"/>
<path d="M8 14h4v2h-4v-2z" fill="rgb(164,118,106)"/>
<path d="M14 14h2v2h-2v-2z" fill="rgb(94,52,36)"/>
<path d="M16 14h2v2h-2v-2z" fill="rgb(17,8,5)"/>
<path d="M18 14h2v6h-6v-2h2v-2h2v-2z" fill="rgb(255,255,255)"/>
<path d="M4 16h2v2h-2v-2z" fill="rgb(32,11,3)"/>
<path d="M12 16h2v2h-2v-2z" fill="rgb(94,52,36)"/>
<path d="M14 16h2v2h-2v-2z" fill="rgb(32,11,3)"/>
<path d="M6 18h8v2h-8v-2z" fill="rgb(32,11,3)"/>
</svg>