<?xml version="1.0" encoding="utf-8"?>
<!-- generated at drububu.com  -->
<!DOCTYPE svg PUBLIC "-//W3C//DTD SVG 1.1//EN" "http://www.w3.org/Graphics/SVG/1.1/DTD/svg11.dtd">
<svg version="1.1" preserveAspectRatio="xMinYMin meet" xmlns="http://www.w3.org/2000/svg" xmlns:xlink="http://www.w3.org/1999/xlink" x="0px" y="0px" width="28px" height="28px" viewBox="0 0 28 28">
<path d="M0 0h4v2h-2v6h-2v-8z" fill="rgb(255,255,255)"/>
<path d="M4 0h2v2h-2v-2z" fill="rgb(69,2,0)"/>
<path d="M6 0h6v2h-2v2h-2v-2h-2v-2z" fill="rgb(255,255,255)"/>
<path d="M12 0h2v2h-2v-2z" fill="rgb(69,2,0)"/>
<path d="M14 0h14v24h-2v-2h-2v-4h-2v-2h2v-4h-2v-4h-2v-2h-2v-2h-2v-2h-2v-2z" fill="rgb(255,255,255)"/>
<path d="M2 2h2v4h-2v-4z" fill="rgb(69,2,0)"/>
<path d="M4 2h2v2h-2v-2z" fill="rgb(247,141,95)"/>
<path d="M6 2h2v2h-2v-2z" fill="rgb(69,2,0)"/>
<path d="M10 2h2v8h-2v-8z" fill="rgb(69,2,0)"/>
<path d="M12 2h2v2h-2v-2z" fill="rgb(239,211,208)"/>
<path d="M14 2h2v2h-2v-2z" fill="rgb(69,2,0)"/>
<path d="M4 4h6v2h-6v-2z" fill="rgb(36,0,0)"/>
<path d="M12 4h2v6h-2v-6z" fill="rgb(132,17,3)"/>
<path d="M14 4h2v2h-2v-2z" fill="rgb(239,211,208)"/>
<path d="M16 4h2v2h-2v-2z" fill="rgb(69,2,0)"/>
<path d="M2 6h2v2h-2v-2z" fill="rgb(36,0,0)"/>
<path d="M4 6h2v2h-2v-2z" fill="rgb(124,0,0)"/>
<path d="M6 6h4v2h-4v-2z" fill="rgb(82,0,0)"/>
<path d="M14 6h2v2h2v2h-2v2h-2v-6z" fill="rgb(225,103,58)"/>
<path d="M16 6h2v2h-2v-2z" fill="rgb(247,141,95)"/>
<path d="M18 6h2v2h-2v-2z" fill="rgb(69,2,0)"/>
<path d="M0 8h2v6h-2v-6z" fill="rgb(36,0,0)"/>
<path d="M2 8h2v2h-2v-2z" fill="rgb(82,0,0)"/>
<path d="M4 8h2v2h-2v-2z" fill="rgb(207,60,0)"/>
<path d="M6 8h4v2h-4v-2z" fill="rgb(163,0,0)"/>
<path d="M18 8h2v4h-2v-4z" fill="rgb(163,0,0)"/>
<path d="M20 8h2v4h-2v-4z" fill="rgb(36,0,0)"/>
<path d="M2 10h2v2h-2v-2z" fill="rgb(141,0,0)"/>
<path d="M4 10h2v2h-2v-2z" fill="rgb(56,3,14)"/>
<path d="M6 10h2v2h-2v-2z" fill="rgb(247,141,95)"/>
<path d="M8 10h2v2h-2v-2z" fill="rgb(141,0,0)"/>
<path d="M10 10h2v2h-2v-2z" fill="rgb(163,0,0)"/>
<path d="M12 10h2v2h-2v-2z" fill="rgb(101,8,0)"/>
<path d="M16 10h2v2h-2v-2z" fill="rgb(141,0,0)"/>
<path d="M2 12h2v2h-2v-2z" fill="rgb(52,0,0)"/>
<path d="M4 12h2v2h-2v-2z" fill="rgb(82,0,0)"/>
<path d="M6 12h2v2h-2v-2z" fill="rgb(56,3,14)"/>
<path d="M8 12h2v2h-2v-2z" fill="rgb(240,96,28)"/>
<path d="M10 12h2v2h-2v-2z" fill="rgb(207,60,0)"/>
<path d="M12 12h2v2h-2v-2z" fill="rgb(124,0,0)"/>
<path d="M14 12h2v2h-2v-2z" fill="rgb(141,0,0)"/>
<path d="M16 12h2v2h-2v-2z" fill="rgb(124,0,0)"/>
<path d="M18 12h2v2h-2v-2z" fill="rgb(82,0,0)"/>
<path d="M20 12h2v2h-2v-2z" fill="rgb(163,0,0)"/>
<path d="M22 12h2v4h-2v-4z" fill="rgb(36,0,0)"/>
<path d="M0 14h2v4h-2v-4z" fill="rgb(255,255,255)"/>
<path d="M2 14h2v2h-2v-2z" fill="rgb(36,0,0)"/>
<path d="M4 14h2v2h-2v-2z" fill="rgb(85,35,30)"/>
<path d="M6 14h2v2h-2v-2z" fill="rgb(22,6,4)"/>
<path d="M8 14h4v2h-4v-2z" fill="rgb(56,3,14)"/>
<path d="M12 14h2v2h-2v-2z" fill="rgb(207,60,0)"/>
<path d="M14 14h2v2h-2v-2z" fill="rgb(124,0,0)"/>
<path d="M16 14h4v2h-4v-2z" fill="rgb(141,0,0)"/>
<path d="M20 14h2v2h-2v-2z" fill="rgb(124,0,0)"/>
<path d="M2 16h2v2h-2v-2z" fill="rgb(50,2,8)"/>
<path d="M4 16h2v2h-2v-2z" fill="rgb(108,59,51)"/>
<path d="M6 16h2v2h-2v-2z" fill="rgb(27,8,6)"/>
<path d="M8 16h2v2h-2v-2z" fill="rgb(247,247,247)"/>
<path d="M10 16h2v2h-2v-2z" fill="rgb(82,0,0)"/>
<path d="M12 16h2v2h-2v-2z" fill="rgb(163,0,0)"/>
<path d="M14 16h2v2h-2v-2z" fill="rgb(141,0,0)"/>
<path d="M16 16h2v2h-2v-2z" fill="rgb(124,0,0)"/>
<path d="M18 16h2v2h-2v-2z" fill="rgb(52,0,0)"/>
<path d="M20 16h2v2h-2v-2z" fill="rgb(36,0,0)"/>
<path d="M0 18h2v2h-2v-2z" fill="rgb(50,2,8)"/>
<path d="M2 18h2v2h-2v-2z" fill="rgb(156,109,98)"/>
<path d="M4 18h4v2h2v2h-6v-4z" fill="rgb(123,77,64)"/>
<path d="M8 18h2v2h-2v-2z" fill="rgb(143,97,85)"/>
<path d="M10 18h2v2h-2v-2z" fill="rgb(123,77,64)"/>
<path d="M12 18h4v2h-4v-2z" fill="rgb(82,0,0)"/>
<path d="M16 18h2v2h-2v-2z" fill="rgb(163,0,0)"/>
<path d="M18 18h2v2h-2v-2z" fill="rgb(141,0,0)"/>
<path d="M20 18h2v2h-2v-2z" fill="rgb(124,0,0)"/>
<path d="M22 18h2v4h-2v-4z" fill="rgb(36,0,0)"/>
<path d="M0 20h2v2h2v2h8v-2h4v2h2v2h4v2h-22v-8z" fill="rgb(255,255,255)"/>
<path d="M2 20h2v2h-2v-2z" fill="rgb(50,2,8)"/>
<path d="M10 20h2v2h-2v-2z" fill="rgb(85,35,30)"/>
<path d="M12 20h2v2h-2v-2z" fill="rgb(50,2,8)"/>
<path d="M14 20h2v2h-2v-2z" fill="rgb(52,0,0)"/>
<path d="M16 20h2v2h-2v-2z" fill="rgb(124,0,0)"/>
<path d="M18 20h4v2h-4v-2z" fill="rgb(163,0,0)"/>
<path d="M4 22h8v2h-8v-2z" fill="rgb(50,2,8)"/>
<path d="M16 22h2v2h-2v-2z" fill="rgb(52,0,0)"/>
<path d="M18 22h4v2h-4v-2z" fill="rgb(124,0,0)"/>
<path d="M22 22h2v2h-2v-2z" fill="rgb(163,0,0)"/>
<path d="M24 22h2v2h-2v-2z" fill="rgb(36,0,0)"/>
<path d="M18 24h4v2h-4v-2z" fill="rgb(52,0,0)"/>
<path d="M22 24h2v2h-2v-2z" fill="rgb(82,0,0)"/>
<path d="M24 24h2v2h-2v-2z" fill="rgb(163,0,0)"/>
<path d="M26 24h2v2h-2v-2z" fill="rgb(36,0,0)"/>
<path d="M22 26h2v2h-2v-2z" fill="rgb(52,0,0)"/>
<path d="M24 26h2v2h-2v-2z" fill="rgb(36,0,0)"/>
<path d="M26 26h2v2h-2v-2z" fill="rgb(255,255,255)"/>
</svg>