<?xml version="1.0" encoding="utf-8"?>
<!-- generated at drububu.com  -->
<!DOCTYPE svg PUBLIC "-//W3C//DTD SVG 1.1//EN" "http://www.w3.org/Graphics/SVG/1.1/DTD/svg11.dtd">
<svg version="1.1" preserveAspectRatio="xMinYMin meet" xmlns="http://www.w3.org/2000/svg" xmlns:xlink="http://www.w3.org/1999/xlink" x="0px" y="0px" width="30px" height="32px" viewBox="0 0 30 32">
<path d="M0 0h20v2h-2v2h-2v2h-14v4h2v2h-2v2h-2v-14z" fill="rgb(255,255,255)"/>
<path d="M20 0h8v2h-8v-2z" fill="rgb(54,42,61)"/>
<path d="M28 0h2v2h-2v-2z" fill="rgb(255,255,255)"/>
<path d="M18 2h2v2h-2v-2z" fill="rgb(54,42,61)"/>
<path d="M20 2h2v2h-2v-2z" fill="rgb(188,165,201)"/>
<path d="M22 2h2v2h-2v-2z" fill="rgb(228,225,230)"/>
<path d="M24 2h2v2h-2v-2z" fill="rgb(223,207,233)"/>
<path d="M26 2h2v2h-2v-2z" fill="rgb(228,225,230)"/>
<path d="M28 2h2v2h-2v-2z" fill="rgb(54,42,61)"/>
<path d="M16 4h2v2h-2v-2z" fill="rgb(54,42,61)"/>
<path d="M18 4h2v2h-2v-2z" fill="rgb(188,165,201)"/>
<path d="M20 4h2v2h-2v-2z" fill="rgb(223,207,233)"/>
<path d="M22 4h2v2h-2v-2z" fill="rgb(188,165,201)"/>
<path d="M24 4h4v2h-4v-2z" fill="rgb(54,42,61)"/>
<path d="M28 4h2v28h-12v-2h2v-2h2v-2h2v-2h2v-2h-4v-4h2v-4h-2v-2h-2v-2h2v-2h2v-2
	h4v-2z" fill="rgb(255,255,255)"/>
<path d="M2 6h14v2h-12v2h-2v-4z" fill="rgb(0,25,44)"/>
<path d="M16 6h2v2h-2v-2z" fill="rgb(142,122,152)"/>
<path d="M18 6h2v2h-2v-2z" fill="rgb(223,207,233)"/>
<path d="M20 6h2v2h-2v-2z" fill="rgb(142,122,152)"/>
<path d="M22 6h2v2h-2v-2z" fill="rgb(54,42,61)"/>
<path d="M4 8h2v2h-2v-2z" fill="rgb(124,141,194)"/>
<path d="M6 8h2v2h-2v-2z" fill="rgb(73,93,155)"/>
<path d="M8 8h2v2h-2v-2z" fill="rgb(124,141,194)"/>
<path d="M10 8h2v2h-2v-2z" fill="rgb(73,93,155)"/>
<path d="M12 8h2v2h-2v-2z" fill="rgb(41,63,128)"/>
<path d="M14 8h2v2h-2v-2z" fill="rgb(31,50,107)"/>
<path d="M16 8h2v2h-2v-2z" fill="rgb(107,89,117)"/>
<path d="M18 8h2v2h-2v-2z" fill="rgb(142,122,152)"/>
<path d="M20 8h2v2h-2v-2z" fill="rgb(54,42,61)"/>
<path d="M4 10h2v2h-2v-2z" fill="rgb(0,25,44)"/>
<path d="M6 10h2v2h-2v-2z" fill="rgb(124,141,194)"/>
<path d="M8 10h2v2h-2v-2z" fill="rgb(73,93,155)"/>
<path d="M10 10h2v2h-2v-2z" fill="rgb(41,63,128)"/>
<path d="M12 10h2v2h-2v-2z" fill="rgb(31,50,107)"/>
<path d="M14 10h4v2h-4v-2z" fill="rgb(41,63,128)"/>
<path d="M18 10h2v2h-2v-2z" fill="rgb(54,42,61)"/>
<path d="M2 12h2v2h-2v-2z" fill="rgb(0,25,44)"/>
<path d="M4 12h2v2h-2v-2z" fill="rgb(255,255,255)"/>
<path d="M6 12h2v4h-2v-4z" fill="rgb(46,4,16)"/>
<path d="M8 12h2v2h-2v-2z" fill="rgb(128,33,56)"/>
<path d="M10 12h2v2h-2v-2z" fill="rgb(159,61,84)"/>
<path d="M12 12h2v2h-2v-2z" fill="rgb(128,33,56)"/>
<path d="M14 12h2v4h-4v-2h2v-2z" fill="rgb(83,23,41)"/>
<path d="M16 12h2v4h-2v-4z" fill="rgb(46,4,16)"/>
<path d="M18 12h2v2h-2v-2z" fill="rgb(255,255,255)"/>
<path d="M20 12h2v2h-2v-2z" fill="rgb(0,25,44)"/>
<path d="M0 14h2v4h-2v-4z" fill="rgb(0,25,44)"/>
<path d="M2 14h2v4h-2v-4z" fill="rgb(73,93,155)"/>
<path d="M4 14h2v2h-2v-2z" fill="rgb(0,25,44)"/>
<path d="M8 14h2v2h-2v-2z" fill="rgb(159,61,84)"/>
<path d="M10 14h2v2h-2v-2z" fill="rgb(128,33,56)"/>
<path d="M18 14h2v2h-2v-2z" fill="rgb(0,25,44)"/>
<path d="M20 14h2v4h-4v-2h2v-2z" fill="rgb(41,63,128)"/>
<path d="M22 14h2v4h-2v-4z" fill="rgb(0,25,44)"/>
<path d="M4 16h2v2h-2v-2z" fill="rgb(124,141,194)"/>
<path d="M6 16h2v2h-2v-2z" fill="rgb(73,93,155)"/>
<path d="M8 16h2v2h-2v-2z" fill="rgb(41,63,128)"/>
<path d="M10 16h2v2h-2v-2z" fill="rgb(31,50,107)"/>
<path d="M12 16h2v2h-2v-2z" fill="rgb(41,63,128)"/>
<path d="M14 16h4v2h-4v-2z" fill="rgb(31,50,107)"/>
<path d="M0 18h2v4h2v4h-2v2h2v2h2v2h-6v-14z" fill="rgb(255,255,255)"/>
<path d="M2 18h20v2h-20v-2z" fill="rgb(0,25,44)"/>
<path d="M2 20h2v2h-2v-2z" fill="rgb(33,26,46)"/>
<path d="M4 20h2v2h-2v-2z" fill="rgb(60,51,79)"/>
<path d="M6 20h6v2h-6v-2z" fill="rgb(33,26,46)"/>
<path d="M12 20h2v2h-2v-2z" fill="rgb(60,51,79)"/>
<path d="M14 20h2v2h-2v-2z" fill="rgb(140,128,168)"/>
<path d="M16 20h2v2h-2v-2z" fill="rgb(93,83,113)"/>
<path d="M18 20h2v2h-2v-2z" fill="rgb(60,51,79)"/>
<path d="M20 20h2v2h-2v-2z" fill="rgb(33,26,46)"/>
<path d="M4 22h2v4h-2v-4z" fill="rgb(76,32,17)"/>
<path d="M6 22h2v4h4v-2h2v4h-2v2h-6v-8z" fill="rgb(223,159,124)"/>
<path d="M8 22h2v2h-2v-2z" fill="rgb(51,51,131)"/>
<path d="M10 22h2v4h-2v-4z" fill="rgb(247,247,247)"/>
<path d="M12 22h2v2h-2v-2z" fill="rgb(33,26,46)"/>
<path d="M14 22h2v2h-2v-2z" fill="rgb(60,51,79)"/>
<path d="M16 22h2v2h-2v-2z" fill="rgb(182,179,191)"/>
<path d="M18 22h2v2h-2v-2z" fill="rgb(140,128,168)"/>
<path d="M20 22h4v2h-2v2h-2v-4z" fill="rgb(60,51,79)"/>
<path d="M24 22h2v2h-2v-2z" fill="rgb(33,26,46)"/>
<path d="M8 24h2v2h-2v-2z" fill="rgb(45,45,99)"/>
<path d="M14 24h2v2h-2v-2z" fill="rgb(33,26,46)"/>
<path d="M16 24h2v2h-2v-2z" fill="rgb(60,51,79)"/>
<path d="M18 24h2v2h-2v-2z" fill="rgb(93,83,113)"/>
<path d="M22 24h2v2h-2v-2z" fill="rgb(33,26,46)"/>
<path d="M2 26h2v2h-2v-2z" fill="rgb(76,32,17)"/>
<path d="M4 26h2v2h-2v-2z" fill="rgb(241,208,187)"/>
<path d="M14 26h2v2h-2v-2z" fill="rgb(202,107,73)"/>
<path d="M16 26h6v2h-2v2h-2v-2h-2v-2z" fill="rgb(33,26,46)"/>
<path d="M4 28h2v2h-2v-2z" fill="rgb(76,32,17)"/>
<path d="M12 28h2v2h-2v-2z" fill="rgb(202,107,73)"/>
<path d="M14 28h2v2h-2v-2z" fill="rgb(76,32,17)"/>
<path d="M16 28h2v2h-2v-2z" fill="rgb(60,51,79)"/>
<path d="M6 30h8v2h-8v-2z" fill="rgb(76,32,17)"/>
<path d="M14 30h2v2h-2v-2z" fill="rgb(255,255,255)"/>
<path d="M16 30h2v2h-2v-2z" fill="rgb(33,26,46)"/>
</svg>