<?xml version="1.0" encoding="utf-8"?>
<!-- generated at drububu.com  -->
<!DOCTYPE svg PUBLIC "-//W3C//DTD SVG 1.1//EN" "http://www.w3.org/Graphics/SVG/1.1/DTD/svg11.dtd">
<svg version="1.1" preserveAspectRatio="xMinYMin meet" xmlns="http://www.w3.org/2000/svg" xmlns:xlink="http://www.w3.org/1999/xlink" x="0px" y="0px" width="22px" height="20px" viewBox="0 0 22 20">
<path d="M0 0h4v2h-2v2h-2v-4z" fill="rgb(255,255,255)"/>
<path d="M4 0h10v2h-10v-2z" fill="rgb(97,0,22)"/>
<path d="M14 0h8v6h-2v-2h-2v-2h-4v-2z" fill="rgb(255,255,255)"/>
<path d="M2 2h2v2h-2v-2z" fill="rgb(97,0,22)"/>
<path d="M4 2h2v2h-2v-2z" fill="rgb(250,87,8)"/>
<path d="M6 2h2v2h-2v-2z" fill="rgb(255,147,3)"/>
<path d="M8 2h2v2h-2v-2z" fill="rgb(198,44,0)"/>
<path d="M10 2h2v2h-2v-2z" fill="rgb(255,153,3)"/>
<path d="M12 2h2v2h-2v-2z" fill="rgb(148,17,8)"/>
<path d="M14 2h2v2h-2v-2z" fill="rgb(97,0,22)"/>
<path d="M16 2h2v2h-2v-2z" fill="rgb(242,65,65)"/>
<path d="M0 4h2v8h-2v-8z" fill="rgb(97,0,22)"/>
<path d="M2 4h2v2h-2v-2z" fill="rgb(255,147,3)"/>
<path d="M4 4h2v2h-2v-2z" fill="rgb(247,84,8)"/>
<path d="M6 4h2v2h-2v-2z" fill="rgb(192,39,14)"/>
<path d="M8 4h2v2h-2v-2z" fill="rgb(255,149,3)"/>
<path d="M10 4h2v2h-2v-2z" fill="rgb(208,61,0)"/>
<path d="M12 4h2v2h-2v-2z" fill="rgb(255,153,3)"/>
<path d="M14 4h2v2h-2v-2z" fill="rgb(228,95,3)"/>
<path d="M16 4h4v2h-2v2h-2v-4z" fill="rgb(97,0,22)"/>
<path d="M2 6h2v2h-2v-2z" fill="rgb(247,84,8)"/>
<path d="M4 6h2v2h-2v-2z" fill="rgb(210,81,58)"/>
<path d="M6 6h2v2h-2v-2z" fill="rgb(198,43,0)"/>
<path d="M8 6h2v2h-2v-2z" fill="rgb(210,81,60)"/>
<path d="M10 6h2v2h-2v-2z" fill="rgb(198,44,0)"/>
<path d="M12 6h2v2h-2v-2z" fill="rgb(228,95,3)"/>
<path d="M14 6h2v2h-2v-2z" fill="rgb(255,151,3)"/>
<path d="M18 6h2v4h-2v-4z" fill="rgb(255,153,3)"/>
<path d="M20 6h2v6h-2v-6z" fill="rgb(97,0,22)"/>
<path d="M2 8h2v2h-2v-2z" fill="rgb(192,37,13)"/>
<path d="M4 8h2v6h2v2h2v2h-6v-10z" fill="rgb(239,133,90)"/>
<path d="M6 8h4v2h-4v-2z" fill="rgb(97,0,22)"/>
<path d="M10 8h2v2h-2v-2z" fill="rgb(210,81,60)"/>
<path d="M12 8h2v2h-2v-2z" fill="rgb(198,43,0)"/>
<path d="M14 8h2v2h-2v-2z" fill="rgb(255,106,1)"/>
<path d="M16 8h2v2h-2v-2z" fill="rgb(198,44,0)"/>
<path d="M2 10h2v2h-2v-2z" fill="rgb(198,43,0)"/>
<path d="M6 10h2v2h-2v-2z" fill="rgb(74,2,133)"/>
<path d="M8 10h2v4h-2v-4z" fill="rgb(247,247,247)"/>
<path d="M10 10h2v2h-2v-2z" fill="rgb(192,37,13)"/>
<path d="M12 10h2v2h-2v-2z" fill="rgb(228,95,3)"/>
<path d="M14 10h2v2h-2v-2z" fill="rgb(198,44,0)"/>
<path d="M16 10h2v4h-2v-4z" fill="rgb(148,17,8)"/>
<path d="M18 10h2v2h-2v-2z" fill="rgb(228,95,3)"/>
<path d="M0 12h2v2h-2v-2z" fill="rgb(255,255,255)"/>
<path d="M2 12h2v2h-2v-2z" fill="rgb(70,24,8)"/>
<path d="M6 12h2v2h-2v-2z" fill="rgb(0,140,219)"/>
<path d="M10 12h2v2h-2v-2z" fill="rgb(183,14,0)"/>
<path d="M12 12h2v2h-2v-2z" fill="rgb(255,175,141)"/>
<path d="M14 12h2v2h-2v-2z" fill="rgb(97,0,22)"/>
<path d="M18 12h2v2h-2v-2z" fill="rgb(97,0,22)"/>
<path d="M20 12h2v8h-10v-2h2v-2h4v-2h2v-2z" fill="rgb(255,255,255)"/>
<path d="M0 14h2v2h-2v-2z" fill="rgb(70,24,8)"/>
<path d="M2 14h2v2h-2v-2z" fill="rgb(255,175,141)"/>
<path d="M8 14h2v2h-2v-2z" fill="rgb(247,154,116)"/>
<path d="M10 14h2v2h-2v-2z" fill="rgb(239,133,90)"/>
<path d="M12 14h2v2h-2v-2z" fill="rgb(237,114,63)"/>
<path d="M14 14h2v2h-2v-2z" fill="rgb(70,24,8)"/>
<path d="M16 14h2v2h-2v-2z" fill="rgb(97,0,22)"/>
<path d="M0 16h2v2h2v2h-4v-4z" fill="rgb(255,255,255)"/>
<path d="M2 16h2v2h-2v-2z" fill="rgb(70,24,8)"/>
<path d="M10 16h2v2h-2v-2z" fill="rgb(237,114,63)"/>
<path d="M12 16h2v2h-2v-2z" fill="rgb(70,24,8)"/>
<path d="M4 18h8v2h-8v-2z" fill="rgb(70,24,8)"/>
</svg>