<?xml version="1.0" encoding="utf-8"?>
<!-- generated at drububu.com  -->
<!DOCTYPE svg PUBLIC "-//W3C//DTD SVG 1.1//EN" "http://www.w3.org/Graphics/SVG/1.1/DTD/svg11.dtd">
<svg version="1.1" preserveAspectRatio="xMinYMin meet" xmlns="http://www.w3.org/2000/svg" xmlns:xlink="http://www.w3.org/1999/xlink" x="0px" y="0px" width="32px" height="24px" viewBox="0 0 32 24">
<path d="M0 0h2v2h-2v-2z" fill="rgb(255,255,255)"/>
<path d="M2 0h2v2h-2v-2z" fill="rgb(48,48,36)"/>
<path d="M4 0h12v2h-4v2h-4v2h-2v-4h-2v-2z" fill="rgb(255,255,255)"/>
<path d="M16 0h6v2h-6v-2z" fill="rgb(25,54,40)"/>
<path d="M22 0h2v2h-2v-2z" fill="rgb(255,255,255)"/>
<path d="M24 0h2v2h-2v-2z" fill="rgb(48,48,36)"/>
<path d="M26 0h6v8h-2v-2h-2v-4h-2v-2z" fill="rgb(255,255,255)"/>
<path d="M0 2h2v6h-2v-6z" fill="rgb(48,48,36)"/>
<path d="M2 2h2v2h-2v-2z" fill="rgb(199,197,171)"/>
<path d="M4 2h2v4h-2v-4z" fill="rgb(48,48,36)"/>
<path d="M12 2h4v2h-4v-2z" fill="rgb(48,48,36)"/>
<path d="M16 2h4v2h-4v-2z" fill="rgb(165,210,78)"/>
<path d="M20 2h2v2h-2v-2z" fill="rgb(69,109,3)"/>
<path d="M22 2h2v2h-2v-2z" fill="rgb(25,54,40)"/>
<path d="M24 2h2v2h-2v-2z" fill="rgb(169,168,126)"/>
<path d="M26 2h2v4h-2v-4z" fill="rgb(48,48,36)"/>
<path d="M2 4h2v2h-2v-2z" fill="rgb(173,170,130)"/>
<path d="M8 4h4v2h-4v-2z" fill="rgb(48,48,36)"/>
<path d="M12 4h2v2h-2v-2z" fill="rgb(140,140,107)"/>
<path d="M14 4h2v2h-2v-2z" fill="rgb(104,104,83)"/>
<path d="M16 4h2v2h-2v-2z" fill="rgb(69,109,3)"/>
<path d="M18 4h2v2h-2v-2z" fill="rgb(25,54,40)"/>
<path d="M20 4h2v2h-2v-2z" fill="rgb(106,165,60)"/>
<path d="M22 4h2v2h-2v-2z" fill="rgb(199,197,171)"/>
<path d="M24 4h2v2h-2v-2z" fill="rgb(140,140,107)"/>
<path d="M2 6h2v2h-2v-2z" fill="rgb(104,104,83)"/>
<path d="M4 6h2v2h-2v-2z" fill="rgb(173,170,130)"/>
<path d="M6 6h2v2h-2v-2z" fill="rgb(48,48,36)"/>
<path d="M8 6h2v2h-2v-2z" fill="rgb(173,170,130)"/>
<path d="M10 6h4v2h-2v2h-6v-2h4v-2z" fill="rgb(199,197,171)"/>
<path d="M14 6h2v4h-2v-4z" fill="rgb(173,170,130)"/>
<path d="M16 6h2v2h-2v-2z" fill="rgb(199,197,171)"/>
<path d="M18 6h2v2h-2v-2z" fill="rgb(173,170,130)"/>
<path d="M20 6h2v2h-2v-2z" fill="rgb(199,197,171)"/>
<path d="M22 6h2v2h-2v-2z" fill="rgb(140,140,107)"/>
<path d="M24 6h6v2h-6v-2z" fill="rgb(41,2,77)"/>
<path d="M0 8h2v2h2v10h2v2h2v-2h2v2h2v2h-12v-16z" fill="rgb(255,255,255)"/>
<path d="M2 8h2v2h-2v-2z" fill="rgb(48,48,36)"/>
<path d="M4 8h2v2h-2v-2z" fill="rgb(104,104,83)"/>
<path d="M12 8h2v2h-2v-2z" fill="rgb(140,140,107)"/>
<path d="M16 8h4v2h-4v-2z" fill="rgb(104,104,83)"/>
<path d="M20 8h2v2h-2v-2z" fill="rgb(140,140,107)"/>
<path d="M22 8h2v2h-2v-2z" fill="rgb(41,2,77)"/>
<path d="M24 8h2v4h-4v-2h2v-2z" fill="rgb(122,31,200)"/>
<path d="M26 8h2v2h-2v-2z" fill="rgb(157,82,223)"/>
<path d="M28 8h2v2h-2v-2z" fill="rgb(122,31,200)"/>
<path d="M30 8h2v2h-2v-2z" fill="rgb(41,2,77)"/>
<path d="M4 10h2v8h-2v-8z" fill="rgb(48,48,36)"/>
<path d="M6 10h2v2h-2v-2z" fill="rgb(225,224,210)"/>
<path d="M8 10h2v2h-2v-2z" fill="rgb(173,170,130)"/>
<path d="M10 10h2v2h-2v-2z" fill="rgb(140,140,107)"/>
<path d="M12 10h2v2h-2v-2z" fill="rgb(199,197,171)"/>
<path d="M14 10h4v4h-2v-2h-2v-2z" fill="rgb(140,140,107)"/>
<path d="M18 10h4v2h-4v-2z" fill="rgb(41,2,77)"/>
<path d="M26 10h4v2h-4v-2z" fill="rgb(41,2,77)"/>
<path d="M30 10h2v2h-2v-2z" fill="rgb(255,255,255)"/>
<path d="M6 12h2v4h-2v-4z" fill="rgb(106,77,74)"/>
<path d="M8 12h2v4h-2v-4z" fill="rgb(199,197,171)"/>
<path d="M10 12h4v4h-4v-4z" fill="rgb(48,48,36)"/>
<path d="M14 12h2v2h-2v-2z" fill="rgb(199,197,171)"/>
<path d="M18 12h2v4h-2v-4z" fill="rgb(83,3,3)"/>
<path d="M20 12h2v4h-2v-4z" fill="rgb(154,16,16)"/>
<path d="M22 12h4v2h-2v2h-2v-4z" fill="rgb(198,57,34)"/>
<path d="M26 12h4v2h-4v-2z" fill="rgb(154,16,16)"/>
<path d="M30 12h2v2h-2v-2z" fill="rgb(83,3,3)"/>
<path d="M14 14h2v2h-2v-2z" fill="rgb(173,170,130)"/>
<path d="M16 14h2v2h-2v-2z" fill="rgb(104,104,83)"/>
<path d="M24 14h2v2h-2v-2z" fill="rgb(154,16,16)"/>
<path d="M26 14h4v2h-4v-2z" fill="rgb(83,3,3)"/>
<path d="M30 14h2v10h-12v-2h4v-2h2v-4h4v-2z" fill="rgb(255,255,255)"/>
<path d="M6 16h2v4h-2v-4z" fill="rgb(225,224,210)"/>
<path d="M8 16h4v2h-4v-2z" fill="rgb(173,170,130)"/>
<path d="M12 16h2v4h-2v-4z" fill="rgb(199,197,171)"/>
<path d="M14 16h2v2h-2v-2z" fill="rgb(104,104,83)"/>
<path d="M16 16h2v2h-2v-2z" fill="rgb(1,54,80)"/>
<path d="M18 16h2v2h-2v-2z" fill="rgb(4,123,176)"/>
<path d="M20 16h6v2h-6v-2z" fill="rgb(83,3,3)"/>
<path d="M4 18h2v2h-2v-2z" fill="rgb(104,104,83)"/>
<path d="M8 18h2v2h-2v-2z" fill="rgb(48,48,36)"/>
<path d="M10 18h2v2h-2v-2z" fill="rgb(104,104,83)"/>
<path d="M14 18h2v2h-2v-2z" fill="rgb(1,54,80)"/>
<path d="M16 18h2v2h-2v-2z" fill="rgb(4,123,176)"/>
<path d="M18 18h4v2h-4v-2z" fill="rgb(8,167,239)"/>
<path d="M22 18h2v2h-2v-2z" fill="rgb(4,123,176)"/>
<path d="M24 18h2v2h-2v-2z" fill="rgb(1,54,80)"/>
<path d="M6 20h2v2h-2v-2z" fill="rgb(104,104,83)"/>
<path d="M10 20h2v2h-2v-2z" fill="rgb(48,48,36)"/>
<path d="M12 20h2v2h-2v-2z" fill="rgb(104,104,83)"/>
<path d="M14 20h2v2h-2v-2z" fill="rgb(48,48,36)"/>
<path d="M16 20h2v2h-2v-2z" fill="rgb(1,54,80)"/>
<path d="M18 20h2v2h-2v-2z" fill="rgb(4,123,176)"/>
<path d="M20 20h4v2h-4v-2z" fill="rgb(1,54,80)"/>
<path d="M12 22h2v2h-2v-2z" fill="rgb(48,48,36)"/>
<path d="M14 22h4v2h-4v-2z" fill="rgb(255,255,255)"/>
<path d="M18 22h2v2h-2v-2z" fill="rgb(1,54,80)"/>
</svg>