<?xml version="1.0" encoding="utf-8"?>
<!-- generated at drububu.com  -->
<!DOCTYPE svg PUBLIC "-//W3C//DTD SVG 1.1//EN" "http://www.w3.org/Graphics/SVG/1.1/DTD/svg11.dtd">
<svg version="1.1" preserveAspectRatio="xMinYMin meet" xmlns="http://www.w3.org/2000/svg" xmlns:xlink="http://www.w3.org/1999/xlink" x="0px" y="0px" width="30px" height="28px" viewBox="0 0 30 28">
<path d="M0 0h6v2h-4v2h-2v-4z" fill="rgb(255,255,255)"/>
<path d="M6 0h12v2h-12v-2z" fill="rgb(68,34,2)"/>
<path d="M18 0h12v4h-2v-2h-4v2h-4v-2h-2v-2z" fill="rgb(255,255,255)"/>
<path d="M2 2h4v2h-4v-2z" fill="rgb(68,34,2)"/>
<path d="M6 2h2v2h-2v-2z" fill="rgb(176,101,6)"/>
<path d="M8 2h2v2h-2v-2z" fill="rgb(218,140,43)"/>
<path d="M10 2h2v2h-2v-2z" fill="rgb(176,101,6)"/>
<path d="M12 2h2v2h-2v-2z" fill="rgb(218,140,43)"/>
<path d="M14 2h4v2h2v4h-2v-2h-6v-2h2v-2z" fill="rgb(176,101,6)"/>
<path d="M18 2h2v2h-2v-2z" fill="rgb(68,34,2)"/>
<path d="M24 2h2v2h-2v-2z" fill="rgb(247,247,247)"/>
<path d="M26 2h2v2h-2v-2z" fill="rgb(220,215,215)"/>
<path d="M0 4h2v2h16v2h-18v-4z" fill="rgb(68,34,2)"/>
<path d="M2 4h2v2h-2v-2z" fill="rgb(110,60,6)"/>
<path d="M4 4h2v2h-2v-2z" fill="rgb(176,101,6)"/>
<path d="M6 4h2v2h-2v-2z" fill="rgb(218,140,43)"/>
<path d="M8 4h2v2h-2v-2z" fill="rgb(176,101,6)"/>
<path d="M10 4h2v2h-2v-2z" fill="rgb(218,140,43)"/>
<path d="M20 4h2v2h-2v-2z" fill="rgb(68,34,2)"/>
<path d="M22 4h2v2h-2v-2z" fill="rgb(247,247,247)"/>
<path d="M24 4h2v2h-2v-2z" fill="rgb(153,150,150)"/>
<path d="M26 4h2v2h-2v-2z" fill="rgb(247,247,247)"/>
<path d="M28 4h2v2h-2v-2z" fill="rgb(153,150,150)"/>
<path d="M20 6h2v4h-2v-4z" fill="rgb(110,60,6)"/>
<path d="M22 6h2v4h-2v-4z" fill="rgb(68,34,2)"/>
<path d="M24 6h2v2h4v20h-20v-2h2v-2h2v-6h2v-2h2v-2h2v-2h2v-2h2v-4z" fill="rgb(255,255,255)"/>
<path d="M26 6h2v2h-2v-2z" fill="rgb(153,150,150)"/>
<path d="M28 6h2v2h-2v-2z" fill="rgb(84,83,83)"/>
<path d="M0 8h2v2h2v4h-2v2h2v8h2v2h2v2h-8v-20z" fill="rgb(255,255,255)"/>
<path d="M2 8h2v2h-2v-2z" fill="rgb(84,83,83)"/>
<path d="M4 8h2v2h-2v-2z" fill="rgb(247,247,247)"/>
<path d="M6 8h10v4h-2v-2h-8v-2z" fill="rgb(227,112,67)"/>
<path d="M16 8h2v2h-2v-2z" fill="rgb(247,247,247)"/>
<path d="M18 8h2v6h-2v-6z" fill="rgb(84,83,83)"/>
<path d="M4 10h2v4h-2v-4z" fill="rgb(70,24,8)"/>
<path d="M6 10h2v2h-2v-2z" fill="rgb(239,133,90)"/>
<path d="M8 10h2v4h-2v-4z" fill="rgb(81,62,44)"/>
<path d="M10 10h2v4h-2v-4z" fill="rgb(247,247,247)"/>
<path d="M12 10h2v2h-2v-2z" fill="rgb(70,24,8)"/>
<path d="M16 10h2v2h-2v-2z" fill="rgb(220,215,215)"/>
<path d="M20 10h2v2h-2v-2z" fill="rgb(68,34,2)"/>
<path d="M6 12h2v2h-2v-2z" fill="rgb(255,175,141)"/>
<path d="M12 12h2v2h-2v-2z" fill="rgb(227,112,67)"/>
<path d="M14 12h2v2h-2v-2z" fill="rgb(239,133,90)"/>
<path d="M16 12h2v2h-2v-2z" fill="rgb(153,150,150)"/>
<path d="M2 14h2v2h-2v-2z" fill="rgb(70,24,8)"/>
<path d="M4 14h2v2h-2v-2z" fill="rgb(255,175,141)"/>
<path d="M6 14h4v2h-4v-2z" fill="rgb(239,133,90)"/>
<path d="M10 14h2v2h-2v-2z" fill="rgb(255,175,141)"/>
<path d="M12 14h2v2h-2v-2z" fill="rgb(239,133,90)"/>
<path d="M14 14h2v2h-2v-2z" fill="rgb(153,150,150)"/>
<path d="M16 14h2v2h-2v-2z" fill="rgb(84,83,83)"/>
<path d="M4 16h2v8h-2v-8z" fill="rgb(84,83,83)"/>
<path d="M6 16h2v2h-2v-2z" fill="rgb(220,215,215)"/>
<path d="M8 16h2v2h-2v-2z" fill="rgb(186,182,182)"/>
<path d="M10 16h2v2h-2v-2z" fill="rgb(247,247,247)"/>
<path d="M12 16h2v2h-2v-2z" fill="rgb(220,215,215)"/>
<path d="M14 16h2v2h-2v-2z" fill="rgb(84,83,83)"/>
<path d="M6 18h4v6h-2v-2h-2v-4z" fill="rgb(247,247,247)"/>
<path d="M10 18h2v2h-2v-2z" fill="rgb(186,182,182)"/>
<path d="M12 18h2v6h-2v-6z" fill="rgb(84,83,83)"/>
<path d="M10 20h2v2h-2v-2z" fill="rgb(220,215,215)"/>
<path d="M6 22h2v2h-2v-2z" fill="rgb(234,231,231)"/>
<path d="M10 22h2v2h-2v-2z" fill="rgb(153,150,150)"/>
<path d="M6 24h2v2h-2v-2z" fill="rgb(84,83,83)"/>
<path d="M8 24h2v2h-2v-2z" fill="rgb(153,150,150)"/>
<path d="M10 24h2v2h-2v-2z" fill="rgb(84,83,83)"/>
<path d="M8 26h2v2h-2v-2z" fill="rgb(84,83,83)"/>
</svg>