<?xml version="1.0" encoding="utf-8"?>
<!-- generated at drububu.com  -->
<!DOCTYPE svg PUBLIC "-//W3C//DTD SVG 1.1//EN" "http://www.w3.org/Graphics/SVG/1.1/DTD/svg11.dtd">
<svg version="1.1" preserveAspectRatio="xMinYMin meet" xmlns="http://www.w3.org/2000/svg" xmlns:xlink="http://www.w3.org/1999/xlink" x="0px" y="0px" width="26px" height="22px" viewBox="0 0 26 22">
<path d="M0 0h14v2h-10v2h-2v2h-2v-6z" fill="rgb(255,255,255)"/>
<path d="M14 0h4v2h-4v-2z" fill="rgb(90,11,11)"/>
<path d="M18 0h8v8h-2v-2h-2v-2h-2v-2h-2v-2z" fill="rgb(255,255,255)"/>
<path d="M4 2h8v2h-8v-2z" fill="rgb(37,71,0)"/>
<path d="M12 2h2v2h-2v-2z" fill="rgb(90,11,11)"/>
<path d="M14 2h2v2h-2v-2z" fill="rgb(242,65,65)"/>
<path d="M16 2h2v2h-2v-2z" fill="rgb(246,132,132)"/>
<path d="M18 2h2v2h-2v-2z" fill="rgb(90,11,11)"/>
<path d="M2 4h2v2h-2v-2z" fill="rgb(37,71,0)"/>
<path d="M4 4h2v2h-2v-2z" fill="rgb(126,167,8)"/>
<path d="M6 4h2v2h-2v-2z" fill="rgb(204,224,3)"/>
<path d="M8 4h2v2h-2v-2z" fill="rgb(70,126,0)"/>
<path d="M10 4h2v2h-2v-2z" fill="rgb(217,230,3)"/>
<path d="M12 4h2v2h-2v-2z" fill="rgb(37,71,0)"/>
<path d="M14 4h2v2h-2v-2z" fill="rgb(168,39,39)"/>
<path d="M16 4h2v2h-2v-2z" fill="rgb(242,65,65)"/>
<path d="M18 4h4v2h-4v-2z" fill="rgb(37,71,0)"/>
<path d="M0 6h2v6h-2v-6z" fill="rgb(37,71,0)"/>
<path d="M2 6h2v2h-2v-2z" fill="rgb(204,224,3)"/>
<path d="M4 6h2v4h-2v-4z" fill="rgb(83,160,58)"/>
<path d="M6 6h2v2h-2v-2z" fill="rgb(64,121,14)"/>
<path d="M8 6h2v2h-2v-2z" fill="rgb(211,226,3)"/>
<path d="M10 6h2v2h-2v-2z" fill="rgb(81,141,0)"/>
<path d="M12 6h2v2h-2v-2z" fill="rgb(217,230,3)"/>
<path d="M14 6h2v2h-2v-2z" fill="rgb(102,174,2)"/>
<path d="M16 6h2v8h-2v-8z" fill="rgb(37,71,0)"/>
<path d="M18 6h2v2h-2v-2z" fill="rgb(54,99,0)"/>
<path d="M20 6h2v4h-2v2h-2v-4h2v-2z" fill="rgb(217,230,3)"/>
<path d="M22 6h2v2h-2v-2z" fill="rgb(37,71,0)"/>
<path d="M2 8h2v2h-2v-2z" fill="rgb(123,164,8)"/>
<path d="M6 8h2v2h-2v-2z" fill="rgb(70,125,0)"/>
<path d="M8 8h2v2h-2v-2z" fill="rgb(83,160,60)"/>
<path d="M10 8h2v2h-2v-2z" fill="rgb(70,126,0)"/>
<path d="M12 8h2v2h-2v-2z" fill="rgb(102,174,2)"/>
<path d="M14 8h2v2h-2v-2z" fill="rgb(215,228,3)"/>
<path d="M22 8h2v2h-2v-2z" fill="rgb(102,174,2)"/>
<path d="M24 8h2v2h-2v-2z" fill="rgb(37,71,0)"/>
<path d="M2 10h2v2h-2v-2z" fill="rgb(64,120,13)"/>
<path d="M4 10h2v2h-2v-2z" fill="rgb(215,90,45)"/>
<path d="M6 10h4v2h-4v-2z" fill="rgb(70,24,8)"/>
<path d="M10 10h2v2h-2v-2z" fill="rgb(83,160,60)"/>
<path d="M12 10h2v2h-2v-2z" fill="rgb(70,125,0)"/>
<path d="M14 10h2v2h-2v-2z" fill="rgb(161,184,1)"/>
<path d="M20 10h2v2h-2v-2z" fill="rgb(102,174,2)"/>
<path d="M22 10h2v2h2v6h-2v-4h-4v-2h2v-2z" fill="rgb(37,71,0)"/>
<path d="M24 10h2v2h-2v-2z" fill="rgb(255,255,255)"/>
<path d="M0 12h2v2h-2v-2z" fill="rgb(54,99,0)"/>
<path d="M2 12h2v2h-2v-2z" fill="rgb(70,125,0)"/>
<path d="M4 12h2v4h2v2h2v2h-6v-8z" fill="rgb(239,133,90)"/>
<path d="M6 12h2v4h-2v-4z" fill="rgb(74,2,133)"/>
<path d="M8 12h2v4h-2v-4z" fill="rgb(247,247,247)"/>
<path d="M10 12h2v2h-2v-2z" fill="rgb(64,120,13)"/>
<path d="M12 12h2v2h-2v-2z" fill="rgb(102,174,2)"/>
<path d="M14 12h2v2h-2v-2z" fill="rgb(70,126,0)"/>
<path d="M18 12h2v2h-2v-2z" fill="rgb(102,174,2)"/>
<path d="M0 14h2v2h-2v-2z" fill="rgb(255,255,255)"/>
<path d="M2 14h2v2h-2v-2z" fill="rgb(70,24,8)"/>
<path d="M10 14h2v2h-2v-2z" fill="rgb(54,99,0)"/>
<path d="M12 14h2v2h-2v-2z" fill="rgb(255,175,141)"/>
<path d="M14 14h2v2h-2v-2z" fill="rgb(37,71,0)"/>
<path d="M16 14h2v2h-2v-2z" fill="rgb(54,99,0)"/>
<path d="M18 14h2v2h-2v-2z" fill="rgb(37,71,0)"/>
<path d="M20 14h2v2h-2v-2z" fill="rgb(102,174,2)"/>
<path d="M22 14h2v2h-2v-2z" fill="rgb(217,230,3)"/>
<path d="M0 16h2v2h-2v-2z" fill="rgb(70,24,8)"/>
<path d="M2 16h2v2h-2v-2z" fill="rgb(255,175,141)"/>
<path d="M8 16h2v2h-2v-2z" fill="rgb(247,154,116)"/>
<path d="M10 16h2v2h-2v-2z" fill="rgb(239,133,90)"/>
<path d="M12 16h2v2h-2v-2z" fill="rgb(215,90,45)"/>
<path d="M14 16h2v2h-2v-2z" fill="rgb(70,24,8)"/>
<path d="M16 16h2v4h-2v-4z" fill="rgb(37,71,0)"/>
<path d="M18 16h2v4h-2v-4z" fill="rgb(54,99,0)"/>
<path d="M20 16h2v2h-2v-2z" fill="rgb(217,230,3)"/>
<path d="M22 16h2v2h-2v-2z" fill="rgb(102,174,2)"/>
<path d="M0 18h2v2h2v2h-4v-4z" fill="rgb(255,255,255)"/>
<path d="M2 18h2v2h-2v-2z" fill="rgb(70,24,8)"/>
<path d="M10 18h2v2h-2v-2z" fill="rgb(215,90,45)"/>
<path d="M12 18h2v2h-2v-2z" fill="rgb(70,24,8)"/>
<path d="M14 18h2v2h2v2h-6v-2h2v-2z" fill="rgb(255,255,255)"/>
<path d="M20 18h2v2h-2v-2z" fill="rgb(102,174,2)"/>
<path d="M22 18h2v2h-2v-2z" fill="rgb(37,71,0)"/>
<path d="M24 18h2v4h-4v-2h2v-2z" fill="rgb(255,255,255)"/>
<path d="M4 20h8v2h-8v-2z" fill="rgb(70,24,8)"/>
<path d="M18 20h4v2h-4v-2z" fill="rgb(37,71,0)"/>
</svg>