<?xml version="1.0" encoding="utf-8"?>
<!-- generated at drububu.com  -->
<!DOCTYPE svg PUBLIC "-//W3C//DTD SVG 1.1//EN" "http://www.w3.org/Graphics/SVG/1.1/DTD/svg11.dtd">
<svg version="1.1" preserveAspectRatio="xMinYMin meet" xmlns="http://www.w3.org/2000/svg" xmlns:xlink="http://www.w3.org/1999/xlink" x="0px" y="0px" width="28px" height="26px" viewBox="0 0 28 26">
<path d="M0 0h8v2h-2v6h-4v2h-2v-10z" fill="rgb(255,255,255)"/>
<path d="M8 0h12v2h-12v-2z" fill="rgb(59,0,0)"/>
<path d="M20 0h8v10h-2v-2h-4v-6h-2v-2z" fill="rgb(255,255,255)"/>
<path d="M6 2h2v6h12v-6h2v6h4v2h-24v-2h4v-6z" fill="rgb(59,0,0)"/>
<path d="M8 2h6v2h-4v2h-2v-4z" fill="rgb(192,8,0)"/>
<path d="M14 2h4v4h-2v2h-8v-2h2v-2h4v-2z" fill="rgb(135,0,0)"/>
<path d="M18 2h2v6h-4v-2h2v-4z" fill="rgb(87,0,0)"/>
<path d="M0 10h2v2h-2v-2z" fill="rgb(59,0,0)"/>
<path d="M2 10h10v2h-10v-2z" fill="rgb(192,8,0)"/>
<path d="M12 10h2v2h-2v-2z" fill="rgb(135,0,0)"/>
<path d="M14 10h2v2h-2v-2z" fill="rgb(192,8,0)"/>
<path d="M16 10h8v2h-8v-2z" fill="rgb(135,0,0)"/>
<path d="M24 10h2v2h-2v-2z" fill="rgb(87,0,0)"/>
<path d="M26 10h2v2h-2v-2z" fill="rgb(59,0,0)"/>
<path d="M0 12h2v2h4v4h-2v2h2v2h2v2h4v2h-12v-14z" fill="rgb(255,255,255)"/>
<path d="M2 12h24v2h-24v-2z" fill="rgb(59,0,0)"/>
<path d="M26 12h2v6h-2v-2h-2v-2h2v-2z" fill="rgb(255,255,255)"/>
<path d="M6 14h2v4h-2v-4z" fill="rgb(94,64,52)"/>
<path d="M8 14h2v2h-2v-2z" fill="rgb(242,211,198)"/>
<path d="M10 14h2v2h-2v-2z" fill="rgb(23,59,180)"/>
<path d="M12 14h2v4h-2v-4z" fill="rgb(247,247,247)"/>
<path d="M14 14h2v2h-2v-2z" fill="rgb(160,160,181)"/>
<path d="M16 14h2v2h-2v-2z" fill="rgb(98,98,106)"/>
<path d="M18 14h2v2h-2v-2z" fill="rgb(193,193,221)"/>
<path d="M20 14h2v2h-2v-2z" fill="rgb(136,136,153)"/>
<path d="M22 14h2v2h-2v-2z" fill="rgb(46,46,52)"/>
<path d="M8 16h2v2h2v2h-4v-4z" fill="rgb(225,174,152)"/>
<path d="M10 16h2v2h-2v-2z" fill="rgb(37,77,213)"/>
<path d="M14 16h2v2h-2v-2z" fill="rgb(225,174,152)"/>
<path d="M16 16h2v2h-2v-2z" fill="rgb(160,160,181)"/>
<path d="M18 16h2v2h-2v-2z" fill="rgb(98,98,106)"/>
<path d="M20 16h2v2h-2v-2z" fill="rgb(193,193,221)"/>
<path d="M22 16h2v2h-2v-2z" fill="rgb(136,136,153)"/>
<path d="M24 16h2v2h-2v-2z" fill="rgb(46,46,52)"/>
<path d="M4 18h2v2h-2v-2z" fill="rgb(94,64,52)"/>
<path d="M6 18h2v2h-2v-2z" fill="rgb(242,211,198)"/>
<path d="M12 18h2v2h-2v-2z" fill="rgb(240,202,186)"/>
<path d="M14 18h2v2h-2v-2z" fill="rgb(238,192,174)"/>
<path d="M16 18h2v2h-2v-2z" fill="rgb(98,98,106)"/>
<path d="M18 18h2v2h-2v-2z" fill="rgb(94,64,52)"/>
<path d="M20 18h2v2h-2v-2z" fill="rgb(98,98,106)"/>
<path d="M22 18h2v2h-2v-2z" fill="rgb(193,193,221)"/>
<path d="M24 18h2v2h-2v-2z" fill="rgb(136,136,153)"/>
<path d="M26 18h2v2h-2v-2z" fill="rgb(46,46,52)"/>
<path d="M6 20h2v2h-2v-2z" fill="rgb(46,46,52)"/>
<path d="M8 20h2v2h-2v-2z" fill="rgb(178,178,203)"/>
<path d="M10 20h2v2h-2v-2z" fill="rgb(136,136,153)"/>
<path d="M12 20h2v2h-2v-2z" fill="rgb(98,98,106)"/>
<path d="M14 20h2v2h-2v-2z" fill="rgb(225,174,152)"/>
<path d="M16 20h2v2h-2v-2z" fill="rgb(94,64,52)"/>
<path d="M18 20h2v2h-2v-2z" fill="rgb(98,98,106)"/>
<path d="M20 20h2v2h-2v-2z" fill="rgb(160,160,181)"/>
<path d="M22 20h4v2h-4v-2z" fill="rgb(46,46,52)"/>
<path d="M26 20h2v6h-14v-2h2v-2h2v2h4v-2h4v-2z" fill="rgb(255,255,255)"/>
<path d="M8 22h2v2h-2v-2z" fill="rgb(94,64,52)"/>
<path d="M10 22h2v2h-2v-2z" fill="rgb(51,49,52)"/>
<path d="M12 22h2v2h-2v-2z" fill="rgb(128,128,143)"/>
<path d="M14 22h2v2h-2v-2z" fill="rgb(51,49,52)"/>
<path d="M18 22h4v2h-4v-2z" fill="rgb(46,46,52)"/>
<path d="M12 24h2v2h-2v-2z" fill="rgb(52,49,54)"/>
</svg>