<?xml version="1.0" encoding="utf-8"?>
<!-- generated at drububu.com  -->
<!DOCTYPE svg PUBLIC "-//W3C//DTD SVG 1.1//EN" "http://www.w3.org/Graphics/SVG/1.1/DTD/svg11.dtd">
<svg version="1.1" preserveAspectRatio="xMinYMin meet" xmlns="http://www.w3.org/2000/svg" xmlns:xlink="http://www.w3.org/1999/xlink" x="0px" y="0px" width="22px" height="18px" viewBox="0 0 22 18">
<path d="M0 0h8v2h-2v2h-2v6h-2v2h-2v-12z" fill="rgb(255,255,255)"/>
<path d="M8 0h10v2h-10v-2z" fill="rgb(27,45,54)"/>
<path d="M18 0h4v4h-2v-2h-2v-2z" fill="rgb(255,255,255)"/>
<path d="M6 2h2v2h-2v-2z" fill="rgb(27,45,54)"/>
<path d="M8 2h2v2h-2v-2z" fill="rgb(90,155,166)"/>
<path d="M10 2h4v2h-4v-2z" fill="rgb(141,180,190)"/>
<path d="M14 2h2v2h-2v-2z" fill="rgb(116,168,178)"/>
<path d="M16 2h2v2h-2v-2z" fill="rgb(90,155,166)"/>
<path d="M18 2h2v2h-2v-2z" fill="rgb(27,45,54)"/>
<path d="M4 4h2v6h-2v-6z" fill="rgb(27,45,54)"/>
<path d="M6 4h2v2h-2v-2z" fill="rgb(90,155,166)"/>
<path d="M8 4h2v2h-2v-2z" fill="rgb(141,180,190)"/>
<path d="M10 4h2v2h-2v-2z" fill="rgb(116,168,178)"/>
<path d="M12 4h4v4h-2v-2h-2v-2z" fill="rgb(90,155,166)"/>
<path d="M16 4h2v2h-2v-2z" fill="rgb(27,45,54)"/>
<path d="M18 4h2v2h-2v-2z" fill="rgb(116,168,178)"/>
<path d="M20 4h2v4h-2v-4z" fill="rgb(27,45,54)"/>
<path d="M6 6h8v6h-2v-4h-4v4h-2v-6z" fill="rgb(48,62,71)"/>
<path d="M16 6h2v2h-2v-2z" fill="rgb(73,122,133)"/>
<path d="M18 6h2v2h-2v-2z" fill="rgb(90,155,166)"/>
<path d="M8 8h2v2h-2v-2z" fill="rgb(81,63,45)"/>
<path d="M10 8h2v2h-2v-2z" fill="rgb(239,228,124)"/>
<path d="M14 8h2v2h-2v-2z" fill="rgb(66,70,82)"/>
<path d="M16 8h2v2h-2v-2z" fill="rgb(77,79,92)"/>
<path d="M18 8h2v2h-2v-2z" fill="rgb(66,70,82)"/>
<path d="M20 8h2v2h-2v-2z" fill="rgb(46,53,62)"/>
<path d="M2 10h2v2h-2v-2z" fill="rgb(27,45,54)"/>
<path d="M4 10h2v2h-2v-2z" fill="rgb(141,180,190)"/>
<path d="M8 10h4v2h-4v-2z" fill="rgb(73,122,133)"/>
<path d="M14 10h2v2h-2v-2z" fill="rgb(81,139,150)"/>
<path d="M16 10h2v2h-2v-2z" fill="rgb(73,122,133)"/>
<path d="M18 10h2v2h-2v-2z" fill="rgb(27,45,54)"/>
<path d="M20 10h2v8h-8v-2h2v-2h2v-2h2v-2z" fill="rgb(255,255,255)"/>
<path d="M0 12h2v2h-2v-2z" fill="rgb(27,45,54)"/>
<path d="M2 12h2v2h-2v-2z" fill="rgb(141,180,190)"/>
<path d="M4 12h2v2h-2v-2z" fill="rgb(90,155,166)"/>
<path d="M6 12h2v2h-2v-2z" fill="rgb(81,139,150)"/>
<path d="M8 12h4v2h-4v-2z" fill="rgb(48,62,71)"/>
<path d="M12 12h2v2h-2v-2z" fill="rgb(81,139,150)"/>
<path d="M14 12h2v2h-2v-2z" fill="rgb(73,122,133)"/>
<path d="M16 12h2v2h-2v-2z" fill="rgb(27,45,54)"/>
<path d="M0 14h2v2h4v2h-6v-4z" fill="rgb(255,255,255)"/>
<path d="M2 14h4v2h-4v-2z" fill="rgb(27,45,54)"/>
<path d="M6 14h2v2h-2v-2z" fill="rgb(73,122,133)"/>
<path d="M8 14h4v2h-4v-2z" fill="rgb(81,139,150)"/>
<path d="M12 14h2v2h-2v-2z" fill="rgb(73,122,133)"/>
<path d="M14 14h2v2h-2v-2z" fill="rgb(27,45,54)"/>
<path d="M6 16h8v2h-8v-2z" fill="rgb(27,45,54)"/>
</svg>