<?xml version="1.0" encoding="utf-8"?>
<!-- generated at drububu.com  -->
<!DOCTYPE svg PUBLIC "-//W3C//DTD SVG 1.1//EN" "http://www.w3.org/Graphics/SVG/1.1/DTD/svg11.dtd">
<svg version="1.1" preserveAspectRatio="xMinYMin meet" xmlns="http://www.w3.org/2000/svg" xmlns:xlink="http://www.w3.org/1999/xlink" x="0px" y="0px" width="28px" height="32px" viewBox="0 0 28 32">
<path d="M0 0h6v4h-4v2h-2v-6z" fill="rgb(255,255,255)"/>
<path d="M6 0h4v2h-2v2h-2v-4z" fill="rgb(80,89,92)"/>
<path d="M10 0h2v2h-2v-2z" fill="rgb(255,255,255)"/>
<path d="M12 0h2v2h-2v-2z" fill="rgb(80,89,92)"/>
<path d="M14 0h2v2h-2v-2z" fill="rgb(255,255,255)"/>
<path d="M16 0h4v2h-4v-2z" fill="rgb(80,89,92)"/>
<path d="M20 0h8v16h-2v-6h-2v-4h-2v-2h-2v-4z" fill="rgb(255,255,255)"/>
<path d="M8 2h2v2h-2v-2z" fill="rgb(241,239,230)"/>
<path d="M10 2h2v2h-2v-2z" fill="rgb(80,89,92)"/>
<path d="M12 2h2v4h-2v-4z" fill="rgb(169,181,181)"/>
<path d="M14 2h2v2h-2v-2z" fill="rgb(80,89,92)"/>
<path d="M16 2h2v2h-2v-2z" fill="rgb(169,181,181)"/>
<path d="M18 2h2v4h-2v-4z" fill="rgb(40,52,54)"/>
<path d="M2 4h2v2h-2v-2z" fill="rgb(133,53,119)"/>
<path d="M4 4h2v2h-2v-2z" fill="rgb(179,78,109)"/>
<path d="M6 4h2v2h-2v-2z" fill="rgb(231,177,178)"/>
<path d="M8 4h2v2h-2v-2z" fill="rgb(169,181,181)"/>
<path d="M10 4h2v2h-2v-2z" fill="rgb(241,239,230)"/>
<path d="M14 4h2v2h-2v-2z" fill="rgb(119,144,146)"/>
<path d="M16 4h2v2h-2v-2z" fill="rgb(80,89,92)"/>
<path d="M20 4h2v2h-2v-2z" fill="rgb(92,16,78)"/>
<path d="M0 6h2v2h-2v-2z" fill="rgb(133,53,119)"/>
<path d="M2 6h4v2h-4v-2z" fill="rgb(231,177,178)"/>
<path d="M6 6h2v2h-2v-2z" fill="rgb(245,234,236)"/>
<path d="M8 6h2v2h-2v-2z" fill="rgb(231,177,178)"/>
<path d="M10 6h4v2h-4v-2z" fill="rgb(214,125,144)"/>
<path d="M14 6h2v2h-2v-2z" fill="rgb(231,177,178)"/>
<path d="M16 6h2v2h-2v-2z" fill="rgb(245,234,236)"/>
<path d="M18 6h2v2h2v4h-2v-2h-2v-4z" fill="rgb(231,177,178)"/>
<path d="M20 6h2v2h-2v-2z" fill="rgb(214,125,144)"/>
<path d="M22 6h2v2h-2v-2z" fill="rgb(92,16,78)"/>
<path d="M0 8h2v2h-2v-2z" fill="rgb(255,255,255)"/>
<path d="M2 8h2v2h-2v-2z" fill="rgb(92,16,78)"/>
<path d="M4 8h2v2h-2v-2z" fill="rgb(179,78,109)"/>
<path d="M6 8h2v2h-2v-2z" fill="rgb(231,177,178)"/>
<path d="M8 8h8v2h-8v-2z" fill="rgb(245,234,236)"/>
<path d="M16 8h2v2h-2v-2z" fill="rgb(214,125,144)"/>
<path d="M22 8h2v2h-2v-2z" fill="rgb(133,53,119)"/>
<path d="M0 10h2v4h-2v-4z" fill="rgb(92,16,78)"/>
<path d="M2 10h2v2h-2v-2z" fill="rgb(179,78,109)"/>
<path d="M4 10h2v2h-2v-2z" fill="rgb(231,177,178)"/>
<path d="M6 10h2v2h-2v-2z" fill="rgb(214,125,144)"/>
<path d="M8 10h2v2h-2v-2z" fill="rgb(133,53,119)"/>
<path d="M10 10h2v2h-2v-2z" fill="rgb(179,78,109)"/>
<path d="M12 10h2v2h-2v-2z" fill="rgb(214,125,144)"/>
<path d="M14 10h4v2h-4v-2z" fill="rgb(231,177,178)"/>
<path d="M18 10h2v2h2v4h-2v-2h-2v-4z" fill="rgb(214,125,144)"/>
<path d="M22 10h2v2h-2v-2z" fill="rgb(214,125,144)"/>
<path d="M24 10h2v4h-2v-4z" fill="rgb(92,16,78)"/>
<path d="M2 12h2v2h-2v-2z" fill="rgb(231,177,178)"/>
<path d="M4 12h2v2h-2v-2z" fill="rgb(214,125,144)"/>
<path d="M6 12h2v2h-2v-2z" fill="rgb(133,53,119)"/>
<path d="M8 12h2v2h-2v-2z" fill="rgb(252,178,134)"/>
<path d="M10 12h2v2h-2v-2z" fill="rgb(216,125,109)"/>
<path d="M12 12h4v2h-4v-2z" fill="rgb(133,53,119)"/>
<path d="M16 12h2v2h-2v-2z" fill="rgb(179,78,109)"/>
<path d="M22 12h2v4h-2v-4z" fill="rgb(231,177,178)"/>
<path d="M0 14h2v2h2v4h2v2h-2v4h2v2h2v-2h2v-2h2v2h2v2h2v-2h2v-2h2v4h2v2h2v2h-24
	v-18z" fill="rgb(255,255,255)"/>
<path d="M2 14h2v2h-2v-2z" fill="rgb(92,16,78)"/>
<path d="M4 14h2v2h-2v-2z" fill="rgb(179,78,109)"/>
<path d="M6 14h2v4h-2v-4z" fill="rgb(118,39,62)"/>
<path d="M8 14h2v4h-2v-4z" fill="rgb(255,216,173)"/>
<path d="M10 14h2v2h-2v-2z" fill="rgb(39,100,69)"/>
<path d="M12 14h2v4h-2v-4z" fill="rgb(240,240,240)"/>
<path d="M14 14h2v6h-2v-6z" fill="rgb(216,125,109)"/>
<path d="M16 14h2v2h-2v-2z" fill="rgb(133,53,119)"/>
<path d="M18 14h2v4h-2v-4z" fill="rgb(231,177,178)"/>
<path d="M24 14h2v2h-2v-2z" fill="rgb(133,53,119)"/>
<path d="M4 16h2v2h-2v-2z" fill="rgb(133,53,119)"/>
<path d="M10 16h2v2h-2v-2z" fill="rgb(65,208,196)"/>
<path d="M16 16h2v2h-2v-2z" fill="rgb(179,78,109)"/>
<path d="M20 16h2v2h-2v-2z" fill="rgb(179,78,109)"/>
<path d="M22 16h2v2h-2v-2z" fill="rgb(214,125,144)"/>
<path d="M24 16h2v2h-2v-2z" fill="rgb(179,78,109)"/>
<path d="M26 16h2v6h-2v-6z" fill="rgb(92,16,78)"/>
<path d="M4 18h2v2h-2v-2z" fill="rgb(118,39,62)"/>
<path d="M6 18h2v2h-2v-2z" fill="rgb(255,216,173)"/>
<path d="M8 18h6v2h-2v2h-4v-4z" fill="rgb(252,178,134)"/>
<path d="M16 18h2v4h-2v-4z" fill="rgb(231,177,178)"/>
<path d="M18 18h2v2h-2v-2z" fill="rgb(214,125,144)"/>
<path d="M20 18h2v6h-2v-6z" fill="rgb(133,53,119)"/>
<path d="M22 18h2v2h2v6h-2v-2h-2v-6z" fill="rgb(179,78,109)"/>
<path d="M24 18h2v2h-2v-2z" fill="rgb(214,125,144)"/>
<path d="M6 20h2v2h-2v-2z" fill="rgb(118,39,62)"/>
<path d="M12 20h2v2h-2v-2z" fill="rgb(216,125,109)"/>
<path d="M14 20h2v2h-2v-2z" fill="rgb(214,125,144)"/>
<path d="M18 20h2v4h-2v2h-2v-4h2v-2z" fill="rgb(92,16,78)"/>
<path d="M4 22h2v4h-2v-4z" fill="rgb(92,16,78)"/>
<path d="M6 22h2v2h-2v-2z" fill="rgb(231,177,178)"/>
<path d="M8 22h6v2h-6v-2z" fill="rgb(118,39,62)"/>
<path d="M14 22h2v2h-2v-2z" fill="rgb(231,177,178)"/>
<path d="M26 22h2v8h-2v-8z" fill="rgb(63,12,41)"/>
<path d="M6 24h2v2h-2v-2z" fill="rgb(214,125,144)"/>
<path d="M8 24h2v2h-2v-2z" fill="rgb(92,16,78)"/>
<path d="M12 24h2v2h-2v-2z" fill="rgb(92,16,78)"/>
<path d="M14 24h2v2h-2v-2z" fill="rgb(214,125,144)"/>
<path d="M20 24h2v2h-2v-2z" fill="rgb(92,16,78)"/>
<path d="M22 24h2v2h2v4h-2v-2h-2v-4z" fill="rgb(133,53,119)"/>
<path d="M6 26h2v2h-2v-2z" fill="rgb(92,16,78)"/>
<path d="M14 26h2v2h-2v-2z" fill="rgb(92,16,78)"/>
<path d="M20 26h2v2h-2v-2z" fill="rgb(63,12,41)"/>
<path d="M22 28h2v2h-2v-2z" fill="rgb(63,12,41)"/>
<path d="M24 30h2v2h-2v-2z" fill="rgb(63,12,41)"/>
<path d="M26 30h2v2h-2v-2z" fill="rgb(255,255,255)"/>
</svg>