<?xml version="1.0" encoding="utf-8"?>
<!-- generated at drububu.com  -->
<!DOCTYPE svg PUBLIC "-//W3C//DTD SVG 1.1//EN" "http://www.w3.org/Graphics/SVG/1.1/DTD/svg11.dtd">
<svg version="1.1" preserveAspectRatio="xMinYMin meet" xmlns="http://www.w3.org/2000/svg" xmlns:xlink="http://www.w3.org/1999/xlink" x="0px" y="0px" width="24px" height="22px" viewBox="0 0 24 22">
<path d="M0 0h6v2h-4v2h-2v-4z" fill="rgb(255,255,255)"/>
<path d="M6 0h4v2h-4v-2z" fill="rgb(66,33,2)"/>
<path d="M10 0h2v2h-2v-2z" fill="rgb(255,255,255)"/>
<path d="M12 0h4v2h-4v-2z" fill="rgb(66,33,2)"/>
<path d="M16 0h8v6h-2v-2h-2v-2h-4v-2z" fill="rgb(255,255,255)"/>
<path d="M2 2h4v2h-4v-2z" fill="rgb(66,33,2)"/>
<path d="M6 2h2v2h-2v-2z" fill="rgb(218,140,43)"/>
<path d="M8 2h2v2h-2v-2z" fill="rgb(197,121,25)"/>
<path d="M10 2h2v2h-2v-2z" fill="rgb(66,33,2)"/>
<path d="M12 2h2v2h-2v-2z" fill="rgb(218,140,43)"/>
<path d="M14 2h2v2h-2v-2z" fill="rgb(78,40,3)"/>
<path d="M16 2h4v2h-4v-2z" fill="rgb(66,33,2)"/>
<path d="M0 4h2v2h-2v-2z" fill="rgb(66,33,2)"/>
<path d="M2 4h2v2h-2v-2z" fill="rgb(176,101,6)"/>
<path d="M4 4h2v2h-2v-2z" fill="rgb(110,60,6)"/>
<path d="M6 4h2v2h-2v-2z" fill="rgb(197,121,25)"/>
<path d="M8 4h6v2h-6v-2z" fill="rgb(176,101,6)"/>
<path d="M14 4h2v2h-2v-2z" fill="rgb(110,60,6)"/>
<path d="M16 4h2v2h-2v-2z" fill="rgb(176,101,6)"/>
<path d="M18 4h2v4h-2v-4z" fill="rgb(143,80,6)"/>
<path d="M20 4h2v2h-2v-2z" fill="rgb(66,33,2)"/>
<path d="M0 6h2v2h-2v-2z" fill="rgb(255,255,255)"/>
<path d="M2 6h2v2h-2v-2z" fill="rgb(66,33,2)"/>
<path d="M4 6h2v2h-2v-2z" fill="rgb(176,101,6)"/>
<path d="M6 6h2v2h-2v-2z" fill="rgb(110,60,6)"/>
<path d="M8 6h2v2h-2v-2z" fill="rgb(197,121,25)"/>
<path d="M10 6h2v4h-2v-4z" fill="rgb(110,60,6)"/>
<path d="M12 6h2v2h-2v-2z" fill="rgb(218,140,43)"/>
<path d="M14 6h2v2h-2v-2z" fill="rgb(176,101,6)"/>
<path d="M16 6h2v2h-2v-2z" fill="rgb(110,60,6)"/>
<path d="M20 6h2v2h-2v-2z" fill="rgb(110,60,6)"/>
<path d="M22 6h2v6h-2v-6z" fill="rgb(66,33,2)"/>
<path d="M0 8h2v4h-2v-4z" fill="rgb(66,33,2)"/>
<path d="M2 8h2v2h-2v-2z" fill="rgb(218,140,43)"/>
<path d="M4 8h2v2h-2v-2z" fill="rgb(110,60,6)"/>
<path d="M6 8h2v2h-2v-2z" fill="rgb(66,33,2)"/>
<path d="M8 8h2v2h-2v-2z" fill="rgb(176,101,6)"/>
<path d="M12 8h2v4h-2v-4z" fill="rgb(176,101,6)"/>
<path d="M14 8h2v2h-2v-2z" fill="rgb(110,60,6)"/>
<path d="M16 8h2v2h-2v-2z" fill="rgb(143,80,6)"/>
<path d="M18 8h2v4h-2v-4z" fill="rgb(176,101,6)"/>
<path d="M20 8h2v2h-2v-2z" fill="rgb(143,80,6)"/>
<path d="M2 10h2v2h-2v-2z" fill="rgb(110,60,6)"/>
<path d="M4 10h2v2h-2v-2z" fill="rgb(66,33,2)"/>
<path d="M6 10h2v2h-2v-2z" fill="rgb(110,60,6)"/>
<path d="M8 10h4v2h-4v-2z" fill="rgb(66,33,2)"/>
<path d="M14 10h2v2h-2v-2z" fill="rgb(78,40,3)"/>
<path d="M16 10h2v2h-2v-2z" fill="rgb(110,60,6)"/>
<path d="M20 10h2v2h-2v-2z" fill="rgb(110,60,6)"/>
<path d="M0 12h2v2h2v-2h2v4h-2v2h2v2h2v2h-8v-10z" fill="rgb(255,255,255)"/>
<path d="M2 12h2v2h-2v-2z" fill="rgb(66,33,2)"/>
<path d="M6 12h2v2h-2v-2z" fill="rgb(66,33,2)"/>
<path d="M8 12h2v4h2v2h2v2h-6v-8z" fill="rgb(239,133,90)"/>
<path d="M10 12h2v4h-2v-4z" fill="rgb(81,62,44)"/>
<path d="M12 12h2v4h-2v-4z" fill="rgb(247,247,247)"/>
<path d="M14 12h2v2h-2v-2z" fill="rgb(66,33,2)"/>
<path d="M16 12h2v4h-2v2h-2v-4h2v-2z" fill="rgb(239,133,90)"/>
<path d="M18 12h2v2h-2v-2z" fill="rgb(143,80,6)"/>
<path d="M20 12h2v4h-2v-4z" fill="rgb(66,33,2)"/>
<path d="M22 12h2v10h-8v-2h2v-2h2v-2h2v-4z" fill="rgb(255,255,255)"/>
<path d="M6 14h2v2h-2v-2z" fill="rgb(70,24,8)"/>
<path d="M18 14h2v2h-2v-2z" fill="rgb(110,60,6)"/>
<path d="M4 16h2v2h-2v-2z" fill="rgb(70,24,8)"/>
<path d="M6 16h2v2h-2v-2z" fill="rgb(255,175,141)"/>
<path d="M12 16h2v2h-2v-2z" fill="rgb(247,154,116)"/>
<path d="M16 16h2v2h-2v-2z" fill="rgb(215,90,45)"/>
<path d="M18 16h2v2h-2v-2z" fill="rgb(66,33,2)"/>
<path d="M6 18h2v2h-2v-2z" fill="rgb(70,24,8)"/>
<path d="M14 18h2v2h-2v-2z" fill="rgb(215,90,45)"/>
<path d="M16 18h2v2h-2v-2z" fill="rgb(70,24,8)"/>
<path d="M8 20h8v2h-8v-2z" fill="rgb(70,24,8)"/>
</svg>