<?xml version="1.0" encoding="utf-8"?>
<!-- generated at drububu.com  -->
<!DOCTYPE svg PUBLIC "-//W3C//DTD SVG 1.1//EN" "http://www.w3.org/Graphics/SVG/1.1/DTD/svg11.dtd">
<svg version="1.1" preserveAspectRatio="xMinYMin meet" xmlns="http://www.w3.org/2000/svg" xmlns:xlink="http://www.w3.org/1999/xlink" x="0px" y="0px" width="20px" height="20px" viewBox="0 0 20 20">
<path d="M0 0h8v2h-2v2h-2v2h-4v-6z" fill="rgb(255,255,255)"/>
<path d="M8 0h8v2h-8v-2z" fill="rgb(109,48,27)"/>
<path d="M16 0h4v4h-2v-2h-2v-2z" fill="rgb(255,255,255)"/>
<path d="M6 2h2v2h-2v-2z" fill="rgb(109,48,27)"/>
<path d="M8 2h6v2h-6v-2z" fill="rgb(254,219,190)"/>
<path d="M14 2h2v2h-2v-2z" fill="rgb(214,122,67)"/>
<path d="M16 2h2v2h-2v-2z" fill="rgb(109,48,27)"/>
<path d="M4 4h2v2h-2v-2z" fill="rgb(109,48,27)"/>
<path d="M6 4h2v2h-2v-2z" fill="rgb(254,219,190)"/>
<path d="M8 4h8v8h-2v2h-2v2h-4v-2h-2v-4h2v2h4v-2h2v-4h-6v-2z" fill="rgb(244,193,152)"/>
<path d="M16 4h2v2h-2v-2z" fill="rgb(214,122,67)"/>
<path d="M18 4h2v10h-2v-10z" fill="rgb(70,24,8)"/>
<path d="M0 6h4v4h-2v-2h-2v-2z" fill="rgb(53,28,16)"/>
<path d="M4 6h2v2h-2v-2z" fill="rgb(254,219,190)"/>
<path d="M6 6h2v2h-2v-2z" fill="rgb(239,167,112)"/>
<path d="M8 6h2v2h-2v-2z" fill="rgb(53,28,16)"/>
<path d="M10 6h2v2h-2v-2z" fill="rgb(95,52,43)"/>
<path d="M12 6h2v2h-2v-2z" fill="rgb(53,28,16)"/>
<path d="M16 6h2v6h-2v-6z" fill="rgb(239,167,112)"/>
<path d="M0 8h2v4h-2v-4z" fill="rgb(255,255,255)"/>
<path d="M4 8h2v2h-2v-2z" fill="rgb(239,167,112)"/>
<path d="M6 8h2v2h-2v-2z" fill="rgb(53,28,16)"/>
<path d="M8 8h2v2h-2v-2z" fill="rgb(95,52,43)"/>
<path d="M10 8h2v2h-2v-2z" fill="rgb(53,28,16)"/>
<path d="M12 8h2v2h-2v-2z" fill="rgb(239,167,112)"/>
<path d="M2 10h2v2h-2v-2z" fill="rgb(109,48,27)"/>
<path d="M4 10h2v2h-2v-2z" fill="rgb(224,127,93)"/>
<path d="M8 10h4v2h-4v-2z" fill="rgb(254,219,190)"/>
<path d="M0 12h2v2h-2v-2z" fill="rgb(109,48,27)"/>
<path d="M2 12h2v2h-2v-2z" fill="rgb(224,127,93)"/>
<path d="M4 12h2v2h-2v-2z" fill="rgb(210,91,61)"/>
<path d="M14 12h2v2h-2v-2z" fill="rgb(239,167,112)"/>
<path d="M16 12h2v2h-2v-2z" fill="rgb(214,122,67)"/>
<path d="M0 14h2v4h2v2h-4v-6z" fill="rgb(255,255,255)"/>
<path d="M2 14h2v4h-2v-4z" fill="rgb(109,48,27)"/>
<path d="M4 14h4v2h2v2h-4v-2h-2v-2z" fill="rgb(180,155,126)"/>
<path d="M12 14h2v2h-2v-2z" fill="rgb(239,167,112)"/>
<path d="M14 14h2v2h-2v-2z" fill="rgb(214,122,67)"/>
<path d="M16 14h2v2h-2v-2z" fill="rgb(70,24,8)"/>
<path d="M18 14h2v6h-6v-2h2v-2h2v-2z" fill="rgb(255,255,255)"/>
<path d="M4 16h2v2h-2v-2z" fill="rgb(147,125,98)"/>
<path d="M10 16h2v2h-2v-2z" fill="rgb(239,167,112)"/>
<path d="M12 16h2v2h-2v-2z" fill="rgb(214,122,67)"/>
<path d="M14 16h2v2h-2v-2z" fill="rgb(70,24,8)"/>
<path d="M4 18h10v2h-10v-2z" fill="rgb(70,24,8)"/>
</svg>