<?xml version="1.0" encoding="utf-8"?>
<!-- generated at drububu.com  -->
<!DOCTYPE svg PUBLIC "-//W3C//DTD SVG 1.1//EN" "http://www.w3.org/Graphics/SVG/1.1/DTD/svg11.dtd">
<svg version="1.1" preserveAspectRatio="xMinYMin meet" xmlns="http://www.w3.org/2000/svg" xmlns:xlink="http://www.w3.org/1999/xlink" x="0px" y="0px" width="24px" height="34px" viewBox="0 0 24 34">
<path d="M0 0h12v2h-4v2h-2v4h-2v2h-2v2h-2v-12z" fill="rgb(255,255,255)"/>
<path d="M12 0h6v2h-6v-2z" fill="rgb(82,0,0)"/>
<path d="M18 0h6v10h-2v-6h-2v-2h-2v-2z" fill="rgb(255,255,255)"/>
<path d="M8 2h4v2h-4v-2z" fill="rgb(82,0,0)"/>
<path d="M12 2h4v2h-4v-2z" fill="rgb(230,56,56)"/>
<path d="M16 2h2v2h-2v-2z" fill="rgb(193,24,24)"/>
<path d="M18 2h2v2h-2v-2z" fill="rgb(82,0,0)"/>
<path d="M6 4h2v4h-2v-4z" fill="rgb(82,0,0)"/>
<path d="M8 4h2v2h2v-2h2v4h-2v2h-2v-2h-2v-4z" fill="rgb(193,24,24)"/>
<path d="M10 4h2v2h-2v-2z" fill="rgb(230,56,56)"/>
<path d="M14 4h2v2h-2v-2z" fill="rgb(82,0,0)"/>
<path d="M16 4h2v2h-2v-2z" fill="rgb(124,2,2)"/>
<path d="M18 4h2v2h-2v-2z" fill="rgb(166,10,10)"/>
<path d="M20 4h2v4h-2v-4z" fill="rgb(82,0,0)"/>
<path d="M14 6h2v2h-2v-2z" fill="rgb(166,10,10)"/>
<path d="M16 6h2v2h-2v-2z" fill="rgb(82,0,0)"/>
<path d="M18 6h2v2h-2v-2z" fill="rgb(193,24,24)"/>
<path d="M4 8h2v2h-2v-2z" fill="rgb(82,0,0)"/>
<path d="M6 8h2v2h-2v-2z" fill="rgb(193,24,24)"/>
<path d="M8 8h2v2h-2v-2z" fill="rgb(230,56,56)"/>
<path d="M12 8h2v2h-2v-2z" fill="rgb(166,10,10)"/>
<path d="M14 8h4v2h-4v-2z" fill="rgb(124,2,2)"/>
<path d="M18 8h4v2h-4v-2z" fill="rgb(56,55,55)"/>
<path d="M2 10h14v2h-14v-2z" fill="rgb(56,55,55)"/>
<path d="M16 10h2v2h-2v-2z" fill="rgb(84,83,83)"/>
<path d="M18 10h2v2h-2v-2z" fill="rgb(243,240,232)"/>
<path d="M20 10h2v2h-2v-2z" fill="rgb(211,211,210)"/>
<path d="M22 10h2v4h-2v-4z" fill="rgb(56,55,55)"/>
<path d="M0 12h2v4h-2v-4z" fill="rgb(56,55,55)"/>
<path d="M2 12h2v2h-2v-2z" fill="rgb(186,182,182)"/>
<path d="M4 12h2v2h-2v-2z" fill="rgb(211,211,210)"/>
<path d="M6 12h2v2h2v2h-6v-2h2v-2z" fill="rgb(243,240,232)"/>
<path d="M8 12h2v2h-2v-2z" fill="rgb(211,211,210)"/>
<path d="M10 12h2v2h-2v-2z" fill="rgb(243,240,232)"/>
<path d="M12 12h2v2h-2v-2z" fill="rgb(186,182,182)"/>
<path d="M14 12h2v2h-2v-2z" fill="rgb(211,211,210)"/>
<path d="M16 12h2v2h-2v-2z" fill="rgb(119,117,117)"/>
<path d="M18 12h2v2h-2v-2z" fill="rgb(211,211,210)"/>
<path d="M20 12h2v2h-2v-2z" fill="rgb(186,182,182)"/>
<path d="M2 14h2v2h-2v-2z" fill="rgb(211,211,210)"/>
<path d="M10 14h2v2h-2v-2z" fill="rgb(211,211,210)"/>
<path d="M12 14h2v2h-2v-2z" fill="rgb(243,240,232)"/>
<path d="M14 14h2v2h-2v-2z" fill="rgb(186,182,182)"/>
<path d="M16 14h2v2h-2v-2z" fill="rgb(211,211,210)"/>
<path d="M18 14h2v2h-2v-2z" fill="rgb(119,117,117)"/>
<path d="M20 14h2v2h-2v-2z" fill="rgb(56,55,55)"/>
<path d="M22 14h2v20h-16v-2h2v-2h2v-2h2v-4h4v-2h2v-6h2v-2z" fill="rgb(255,255,255)"/>
<path d="M0 16h2v6h-2v-6z" fill="rgb(255,255,255)"/>
<path d="M2 16h18v2h-18v-2z" fill="rgb(56,55,55)"/>
<path d="M2 18h2v4h-2v-4z" fill="rgb(94,64,52)"/>
<path d="M4 18h2v2h-2v-2z" fill="rgb(225,174,152)"/>
<path d="M6 18h2v4h-2v-4z" fill="rgb(0,87,207)"/>
<path d="M8 18h2v4h-2v-4z" fill="rgb(247,247,247)"/>
<path d="M10 18h2v2h-2v-2z" fill="rgb(94,64,52)"/>
<path d="M12 18h2v2h-2v-2z" fill="rgb(225,174,152)"/>
<path d="M14 18h2v2h-2v-2z" fill="rgb(220,215,215)"/>
<path d="M16 18h2v2h-2v-2z" fill="rgb(186,182,182)"/>
<path d="M18 18h2v4h-2v-4z" fill="rgb(84,83,83)"/>
<path d="M4 20h2v2h2v2h-4v-4z" fill="rgb(238,192,174)"/>
<path d="M10 20h2v2h-2v-2z" fill="rgb(225,174,152)"/>
<path d="M12 20h2v2h-2v-2z" fill="rgb(238,192,174)"/>
<path d="M14 20h2v2h-2v-2z" fill="rgb(186,182,182)"/>
<path d="M16 20h2v2h-2v-2z" fill="rgb(255,252,252)"/>
<path d="M0 22h2v2h-2v-2z" fill="rgb(94,64,52)"/>
<path d="M2 22h2v2h-2v-2z" fill="rgb(242,211,198)"/>
<path d="M8 22h2v2h-2v-2z" fill="rgb(239,134,127)"/>
<path d="M10 22h2v2h-2v-2z" fill="rgb(238,192,174)"/>
<path d="M12 22h2v2h-2v-2z" fill="rgb(153,150,150)"/>
<path d="M14 22h4v2h-4v-2z" fill="rgb(84,83,83)"/>
<path d="M0 24h2v2h-2v-2z" fill="rgb(255,255,255)"/>
<path d="M2 24h2v2h-2v-2z" fill="rgb(84,83,83)"/>
<path d="M4 24h2v2h-2v-2z" fill="rgb(220,215,215)"/>
<path d="M6 24h2v2h-2v-2z" fill="rgb(186,182,182)"/>
<path d="M8 24h2v2h-2v-2z" fill="rgb(255,252,252)"/>
<path d="M10 24h2v4h-2v-4z" fill="rgb(220,215,215)"/>
<path d="M12 24h2v4h-2v-4z" fill="rgb(84,83,83)"/>
<path d="M0 26h2v4h-2v-4z" fill="rgb(84,83,83)"/>
<path d="M2 26h6v2h-2v2h-2v-2h-2v-2z" fill="rgb(255,252,252)"/>
<path d="M8 26h2v4h-2v-4z" fill="rgb(186,182,182)"/>
<path d="M2 28h2v2h-2v-2z" fill="rgb(186,182,182)"/>
<path d="M6 28h2v4h-2v-4z" fill="rgb(220,215,215)"/>
<path d="M10 28h2v2h-2v-2z" fill="rgb(84,83,83)"/>
<path d="M0 30h2v2h2v2h-4v-4z" fill="rgb(255,255,255)"/>
<path d="M2 30h2v2h-2v-2z" fill="rgb(84,83,83)"/>
<path d="M4 30h2v2h-2v-2z" fill="rgb(186,182,182)"/>
<path d="M8 30h2v2h-2v-2z" fill="rgb(84,83,83)"/>
<path d="M4 32h4v2h-4v-2z" fill="rgb(84,83,83)"/>
</svg>