<?xml version="1.0" encoding="utf-8"?>
<!-- generated at drububu.com  -->
<!DOCTYPE svg PUBLIC "-//W3C//DTD SVG 1.1//EN" "http://www.w3.org/Graphics/SVG/1.1/DTD/svg11.dtd">
<svg version="1.1" preserveAspectRatio="xMinYMin meet" xmlns="http://www.w3.org/2000/svg" xmlns:xlink="http://www.w3.org/1999/xlink" x="0px" y="0px" width="24px" height="24px" viewBox="0 0 24 24">
<path d="M0 0h10v2h-2v2h-2v2h-4v2h-2v-8z" fill="rgb(255,255,255)"/>
<path d="M10 0h8v2h-8v-2z" fill="rgb(49,41,37)"/>
<path d="M18 0h6v10h-2v-2h-2v-6h-2v-2z" fill="rgb(255,255,255)"/>
<path d="M8 2h2v2h-2v-2z" fill="rgb(49,41,37)"/>
<path d="M10 2h2v2h-2v-2z" fill="rgb(194,178,170)"/>
<path d="M12 2h2v2h-2v-2z" fill="rgb(173,157,150)"/>
<path d="M14 2h2v2h-2v-2z" fill="rgb(194,178,170)"/>
<path d="M16 2h2v2h-2v-2z" fill="rgb(139,122,114)"/>
<path d="M18 2h2v6h2v2h-4v-8z" fill="rgb(49,41,37)"/>
<path d="M6 4h2v4h-6v-2h4v-2z" fill="rgb(49,41,37)"/>
<path d="M8 4h2v2h-2v-2z" fill="rgb(173,157,150)"/>
<path d="M10 4h2v2h-2v-2z" fill="rgb(139,122,114)"/>
<path d="M12 4h2v2h-2v-2z" fill="rgb(95,82,76)"/>
<path d="M14 4h2v2h-2v-2z" fill="rgb(139,122,114)"/>
<path d="M16 4h2v2h-2v-2z" fill="rgb(173,157,150)"/>
<path d="M8 6h2v2h-2v-2z" fill="rgb(95,82,76)"/>
<path d="M10 6h6v2h-6v-2z" fill="rgb(173,157,150)"/>
<path d="M16 6h2v2h-2v-2z" fill="rgb(139,122,114)"/>
<path d="M0 8h2v2h10v2h-12v-4z" fill="rgb(49,41,37)"/>
<path d="M2 8h2v2h-2v-2z" fill="rgb(95,82,76)"/>
<path d="M4 8h2v2h-2v-2z" fill="rgb(139,122,114)"/>
<path d="M6 8h2v2h-2v-2z" fill="rgb(194,178,170)"/>
<path d="M8 8h2v2h-2v-2z" fill="rgb(173,157,150)"/>
<path d="M10 8h2v2h-2v-2z" fill="rgb(194,178,170)"/>
<path d="M12 8h2v2h-2v-2z" fill="rgb(139,122,114)"/>
<path d="M14 8h4v2h-4v-2z" fill="rgb(95,82,76)"/>
<path d="M12 10h6v2h-6v-2z" fill="rgb(194,178,170)"/>
<path d="M18 10h2v2h-2v-2z" fill="rgb(139,122,114)"/>
<path d="M20 10h2v2h-2v-2z" fill="rgb(95,82,76)"/>
<path d="M22 10h2v4h-12v-2h10v-2z" fill="rgb(49,41,37)"/>
<path d="M0 12h2v2h-2v-2z" fill="rgb(62,25,17)"/>
<path d="M2 12h2v2h-2v-2z" fill="rgb(103,50,37)"/>
<path d="M4 12h2v2h-2v-2z" fill="rgb(201,134,106)"/>
<path d="M6 12h2v2h-2v-2z" fill="rgb(153,93,73)"/>
<path d="M8 12h2v2h-2v-2z" fill="rgb(237,163,131)"/>
<path d="M10 12h2v2h-2v-2z" fill="rgb(95,82,76)"/>
<path d="M0 14h2v2h2v2h-2v2h2v2h2v2h-6v-10z" fill="rgb(255,255,255)"/>
<path d="M2 14h2v2h-2v-2z" fill="rgb(62,25,17)"/>
<path d="M4 14h2v2h-2v-2z" fill="rgb(103,50,37)"/>
<path d="M6 14h2v4h4v-2h2v4h-2v2h-6v-8z" fill="rgb(237,163,131)"/>
<path d="M8 14h4v2h-4v-2z" fill="rgb(12,12,12)"/>
<path d="M12 14h2v2h-2v-2z" fill="rgb(153,93,73)"/>
<path d="M14 14h2v2h-2v-2z" fill="rgb(201,134,106)"/>
<path d="M16 14h2v2h-2v-2z" fill="rgb(153,93,73)"/>
<path d="M18 14h2v2h-2v-2z" fill="rgb(103,50,37)"/>
<path d="M20 14h2v2h-2v-2z" fill="rgb(62,25,17)"/>
<path d="M22 14h2v10h-10v-2h2v-2h2v-2h2v-2h2v-2z" fill="rgb(255,255,255)"/>
<path d="M4 16h2v2h-2v-2z" fill="rgb(62,25,17)"/>
<path d="M8 16h2v2h-2v-2z" fill="rgb(69,40,36)"/>
<path d="M10 16h2v2h-2v-2z" fill="rgb(247,247,247)"/>
<path d="M14 16h2v2h-2v-2z" fill="rgb(153,93,73)"/>
<path d="M16 16h2v2h-2v-2z" fill="rgb(201,134,106)"/>
<path d="M18 16h2v2h-2v-2z" fill="rgb(62,25,17)"/>
<path d="M2 18h2v2h-2v-2z" fill="rgb(62,25,17)"/>
<path d="M4 18h2v2h-2v-2z" fill="rgb(247,202,178)"/>
<path d="M14 18h2v2h-2v-2z" fill="rgb(234,143,104)"/>
<path d="M16 18h2v2h-2v-2z" fill="rgb(62,25,17)"/>
<path d="M4 20h2v2h-2v-2z" fill="rgb(62,25,17)"/>
<path d="M12 20h2v2h-2v-2z" fill="rgb(234,143,104)"/>
<path d="M14 20h2v2h-2v-2z" fill="rgb(62,25,17)"/>
<path d="M6 22h8v2h-8v-2z" fill="rgb(62,25,17)"/>
</svg>