<?xml version="1.0" encoding="utf-8"?>
<!-- generated at drububu.com  -->
<!DOCTYPE svg PUBLIC "-//W3C//DTD SVG 1.1//EN" "http://www.w3.org/Graphics/SVG/1.1/DTD/svg11.dtd">
<svg version="1.1" preserveAspectRatio="xMinYMin meet" xmlns="http://www.w3.org/2000/svg" xmlns:xlink="http://www.w3.org/1999/xlink" x="0px" y="0px" width="20px" height="20px" viewBox="0 0 20 20">
<path d="M0 0h8v2h-2v2h-4v2h-2v-6z" fill="rgb(255,255,255)"/>
<path d="M8 0h8v2h-8v-2z" fill="rgb(67,1,1)"/>
<path d="M16 0h4v4h-2v-2h-2v-2z" fill="rgb(255,255,255)"/>
<path d="M6 2h2v2h-2v-2z" fill="rgb(67,1,1)"/>
<path d="M8 2h2v2h-2v-2z" fill="rgb(238,66,66)"/>
<path d="M10 2h4v2h-4v-2z" fill="rgb(255,80,80)"/>
<path d="M14 2h2v2h-2v-2z" fill="rgb(238,66,66)"/>
<path d="M16 2h2v2h-2v-2z" fill="rgb(67,1,1)"/>
<path d="M2 4h4v2h-4v-2z" fill="rgb(67,1,1)"/>
<path d="M6 4h2v2h-2v-2z" fill="rgb(167,22,22)"/>
<path d="M8 4h2v2h-2v-2z" fill="rgb(210,36,36)"/>
<path d="M10 4h4v2h-4v-2z" fill="rgb(238,66,66)"/>
<path d="M14 4h2v2h-2v-2z" fill="rgb(210,36,36)"/>
<path d="M16 4h2v4h-4v-2h2v-2z" fill="rgb(167,22,22)"/>
<path d="M18 4h2v6h-20v-4h2v2h16v-4z" fill="rgb(67,1,1)"/>
<path d="M2 6h4v2h-4v-2z" fill="rgb(238,66,66)"/>
<path d="M6 6h2v2h-2v-2z" fill="rgb(210,36,36)"/>
<path d="M8 6h2v2h-2v-2z" fill="rgb(167,22,22)"/>
<path d="M10 6h4v2h-4v-2z" fill="rgb(210,36,36)"/>
<path d="M0 10h4v4h-2v2h2v2h2v2h-6v-10z" fill="rgb(255,255,255)"/>
<path d="M4 10h2v4h-2v-4z" fill="rgb(70,24,8)"/>
<path d="M6 10h2v2h-2v-2z" fill="rgb(235,132,96)"/>
<path d="M8 10h2v4h-2v-4z" fill="rgb(81,62,44)"/>
<path d="M10 10h2v4h-2v-4z" fill="rgb(247,247,247)"/>
<path d="M12 10h4v2h-4v-2z" fill="rgb(235,132,96)"/>
<path d="M16 10h2v4h-2v-4z" fill="rgb(233,108,65)"/>
<path d="M18 10h2v4h-2v-4z" fill="rgb(70,24,8)"/>
<path d="M6 12h2v4h4v2h-6v-6z" fill="rgb(238,156,126)"/>
<path d="M12 12h4v2h-2v2h-2v-4z" fill="rgb(238,156,126)"/>
<path d="M2 14h2v2h-2v-2z" fill="rgb(70,24,8)"/>
<path d="M4 14h2v2h-2v-2z" fill="rgb(255,174,139)"/>
<path d="M8 14h4v2h-4v-2z" fill="rgb(246,166,133)"/>
<path d="M14 14h2v2h-2v-2z" fill="rgb(233,108,65)"/>
<path d="M16 14h2v2h-2v-2z" fill="rgb(70,24,8)"/>
<path d="M18 14h2v6h-6v-2h2v-2h2v-2z" fill="rgb(255,255,255)"/>
<path d="M4 16h2v2h-2v-2z" fill="rgb(70,24,8)"/>
<path d="M12 16h2v2h-2v-2z" fill="rgb(233,108,65)"/>
<path d="M14 16h2v2h-2v-2z" fill="rgb(70,24,8)"/>
<path d="M6 18h8v2h-8v-2z" fill="rgb(70,24,8)"/>
</svg>