<?xml version="1.0" encoding="utf-8"?>
<!-- generated at drububu.com  -->
<!DOCTYPE svg PUBLIC "-//W3C//DTD SVG 1.1//EN" "http://www.w3.org/Graphics/SVG/1.1/DTD/svg11.dtd">
<svg version="1.1" preserveAspectRatio="xMinYMin meet" xmlns="http://www.w3.org/2000/svg" xmlns:xlink="http://www.w3.org/1999/xlink" x="0px" y="0px" width="22px" height="22px" viewBox="0 0 22 22">
<path d="M0 0h6v2h-2v2h-2v2h-2v-6z" fill="rgb(255,255,255)"/>
<path d="M6 0h8v2h-8v-2z" fill="rgb(35,39,43)"/>
<path d="M14 0h8v6h-2v-2h-2v-2h-4v-2z" fill="rgb(255,255,255)"/>
<path d="M4 2h2v2h-2v-2z" fill="rgb(35,39,43)"/>
<path d="M6 2h2v2h-2v-2z" fill="rgb(96,97,102)"/>
<path d="M8 2h2v2h-2v-2z" fill="rgb(68,70,76)"/>
<path d="M10 2h2v2h-2v-2z" fill="rgb(125,130,137)"/>
<path d="M12 2h2v2h-2v-2z" fill="rgb(99,97,99)"/>
<path d="M14 2h4v2h-4v-2z" fill="rgb(35,39,43)"/>
<path d="M2 4h2v2h-2v-2z" fill="rgb(35,39,43)"/>
<path d="M4 4h2v2h-2v-2z" fill="rgb(110,114,120)"/>
<path d="M6 4h2v2h-2v-2z" fill="rgb(68,70,76)"/>
<path d="M8 4h2v2h-2v-2z" fill="rgb(96,97,102)"/>
<path d="M10 4h2v2h-2v-2z" fill="rgb(58,62,66)"/>
<path d="M12 4h2v2h-2v-2z" fill="rgb(68,70,76)"/>
<path d="M14 4h2v2h-2v-2z" fill="rgb(125,130,137)"/>
<path d="M16 4h2v2h-2v-2z" fill="rgb(99,97,99)"/>
<path d="M18 4h2v2h-2v-2z" fill="rgb(35,39,43)"/>
<path d="M0 6h2v4h-2v-4z" fill="rgb(35,39,43)"/>
<path d="M2 6h2v2h-2v-2z" fill="rgb(110,114,120)"/>
<path d="M4 6h2v2h-2v-2z" fill="rgb(58,62,66)"/>
<path d="M6 6h2v2h-2v-2z" fill="rgb(110,114,120)"/>
<path d="M8 6h2v4h-2v-4z" fill="rgb(58,62,66)"/>
<path d="M10 6h2v2h-2v-2z" fill="rgb(125,130,137)"/>
<path d="M12 6h2v2h-2v-2z" fill="rgb(96,97,102)"/>
<path d="M14 6h2v2h-2v-2z" fill="rgb(58,62,66)"/>
<path d="M16 6h2v2h-2v-2z" fill="rgb(125,130,137)"/>
<path d="M18 6h2v2h-2v-2z" fill="rgb(58,62,66)"/>
<path d="M20 6h2v6h-2v-6z" fill="rgb(35,39,43)"/>
<path d="M2 8h2v2h-2v-2z" fill="rgb(77,79,84)"/>
<path d="M4 8h4v2h-4v-2z" fill="rgb(96,97,102)"/>
<path d="M10 8h2v2h-2v-2z" fill="rgb(96,97,102)"/>
<path d="M12 8h2v2h-2v-2z" fill="rgb(58,62,66)"/>
<path d="M14 8h2v2h-2v-2z" fill="rgb(110,114,120)"/>
<path d="M16 8h2v4h-2v-4z" fill="rgb(96,97,102)"/>
<path d="M18 8h2v2h-2v-2z" fill="rgb(77,79,84)"/>
<path d="M0 10h2v2h2v4h-2v2h2v2h2v2h-6v-12z" fill="rgb(255,255,255)"/>
<path d="M2 10h2v2h-2v-2z" fill="rgb(35,39,43)"/>
<path d="M4 10h2v2h-2v-2z" fill="rgb(77,79,84)"/>
<path d="M6 10h4v2h-4v-2z" fill="rgb(35,39,43)"/>
<path d="M10 10h2v2h-2v-2z" fill="rgb(77,79,84)"/>
<path d="M12 10h2v4h-2v-4z" fill="rgb(35,39,43)"/>
<path d="M14 10h2v2h-2v-2z" fill="rgb(58,62,66)"/>
<path d="M18 10h2v2h-2v-2z" fill="rgb(58,62,66)"/>
<path d="M4 12h2v2h-2v-2z" fill="rgb(35,39,43)"/>
<path d="M6 12h2v2h-2v-2z" fill="rgb(109,77,69)"/>
<path d="M8 12h2v4h-2v-4z" fill="rgb(35,64,52)"/>
<path d="M10 12h2v4h-2v-4z" fill="rgb(247,247,247)"/>
<path d="M14 12h2v2h-2v-2z" fill="rgb(161,130,108)"/>
<path d="M16 12h2v2h-2v-2z" fill="rgb(77,79,84)"/>
<path d="M18 12h2v4h-2v-4z" fill="rgb(35,39,43)"/>
<path d="M20 12h2v10h-8v-2h2v-2h2v-2h2v-4z" fill="rgb(255,255,255)"/>
<path d="M4 14h2v2h-2v-2z" fill="rgb(48,31,27)"/>
<path d="M6 14h2v2h2v2h2v2h-4v-2h-2v-4z" fill="rgb(142,107,89)"/>
<path d="M12 14h2v4h-2v-4z" fill="rgb(142,107,89)"/>
<path d="M14 14h2v2h-2v-2z" fill="rgb(167,138,115)"/>
<path d="M16 14h2v2h-2v-2z" fill="rgb(58,62,66)"/>
<path d="M2 16h2v2h-2v-2z" fill="rgb(48,31,27)"/>
<path d="M4 16h2v2h-2v-2z" fill="rgb(183,144,120)"/>
<path d="M10 16h2v2h-2v-2z" fill="rgb(161,130,108)"/>
<path d="M14 16h2v2h-2v-2z" fill="rgb(129,79,65)"/>
<path d="M16 16h2v2h-2v-2z" fill="rgb(35,39,43)"/>
<path d="M4 18h2v2h-2v-2z" fill="rgb(48,31,27)"/>
<path d="M6 18h2v2h-2v-2z" fill="rgb(135,93,77)"/>
<path d="M12 18h2v2h-2v-2z" fill="rgb(129,79,65)"/>
<path d="M14 18h2v2h-2v-2z" fill="rgb(48,31,27)"/>
<path d="M6 20h8v2h-8v-2z" fill="rgb(48,31,27)"/>
</svg>