<?xml version="1.0" encoding="utf-8"?>
<!-- generated at drububu.com  -->
<!DOCTYPE svg PUBLIC "-//W3C//DTD SVG 1.1//EN" "http://www.w3.org/Graphics/SVG/1.1/DTD/svg11.dtd">
<svg version="1.1" preserveAspectRatio="xMinYMin meet" xmlns="http://www.w3.org/2000/svg" xmlns:xlink="http://www.w3.org/1999/xlink" x="0px" y="0px" width="18px" height="26px" viewBox="0 0 18 26">
<path d="M0 0h4v2h-2v4h-2v-6z" fill="rgb(255,255,255)"/>
<path d="M4 0h4v2h-4v-2z" fill="rgb(56,55,55)"/>
<path d="M8 0h6v2h-6v-2z" fill="rgb(76,39,2)"/>
<path d="M14 0h4v4h-2v-2h-2v-2z" fill="rgb(255,255,255)"/>
<path d="M2 2h2v4h-2v-4z" fill="rgb(56,55,55)"/>
<path d="M4 2h2v2h-2v-2z" fill="rgb(255,252,197)"/>
<path d="M6 2h2v2h-2v-2z" fill="rgb(154,153,132)"/>
<path d="M8 2h2v2h-2v-2z" fill="rgb(179,137,1)"/>
<path d="M10 2h2v2h-2v-2z" fill="rgb(233,201,6)"/>
<path d="M12 2h2v2h-2v-2z" fill="rgb(179,137,1)"/>
<path d="M14 2h2v2h-2v-2z" fill="rgb(76,39,2)"/>
<path d="M4 4h2v2h-2v-2z" fill="rgb(154,153,132)"/>
<path d="M6 4h2v2h-2v-2z" fill="rgb(179,137,1)"/>
<path d="M8 4h4v2h-4v-2z" fill="rgb(255,233,99)"/>
<path d="M12 4h2v2h-2v-2z" fill="rgb(227,175,4)"/>
<path d="M14 4h2v2h-2v-2z" fill="rgb(179,137,1)"/>
<path d="M16 4h2v6h-2v-6z" fill="rgb(76,39,2)"/>
<path d="M0 6h2v4h-2v-4z" fill="rgb(76,39,2)"/>
<path d="M2 6h2v2h-2v-2z" fill="rgb(179,137,1)"/>
<path d="M4 6h2v2h-2v-2z" fill="rgb(227,175,4)"/>
<path d="M6 6h2v2h-2v-2z" fill="rgb(233,201,6)"/>
<path d="M8 6h4v2h-4v-2z" fill="rgb(227,175,4)"/>
<path d="M12 6h2v2h-2v-2z" fill="rgb(233,201,6)"/>
<path d="M14 6h2v2h-2v-2z" fill="rgb(227,175,4)"/>
<path d="M2 8h14v2h-14v-2z" fill="rgb(110,60,6)"/>
<path d="M0 10h2v4h-2v-4z" fill="rgb(255,255,255)"/>
<path d="M2 10h2v4h-2v-4z" fill="rgb(70,24,8)"/>
<path d="M4 10h2v4h2v2h-4v-6z" fill="rgb(239,133,90)"/>
<path d="M6 10h2v4h-2v-4z" fill="rgb(2,63,128)"/>
<path d="M8 10h2v4h-2v-4z" fill="rgb(247,247,247)"/>
<path d="M10 10h2v2h-2v-2z" fill="rgb(70,24,8)"/>
<path d="M12 10h2v2h-2v-2z" fill="rgb(237,101,44)"/>
<path d="M14 10h2v4h-2v-4z" fill="rgb(193,76,17)"/>
<path d="M16 10h2v4h-2v-4z" fill="rgb(94,28,3)"/>
<path d="M10 12h2v2h-2v-2z" fill="rgb(239,133,90)"/>
<path d="M12 12h2v2h-2v-2z" fill="rgb(215,90,45)"/>
<path d="M0 14h2v2h-2v-2z" fill="rgb(70,24,8)"/>
<path d="M2 14h2v2h-2v-2z" fill="rgb(255,175,141)"/>
<path d="M8 14h2v2h-2v-2z" fill="rgb(247,154,116)"/>
<path d="M10 14h2v2h-2v-2z" fill="rgb(228,93,19)"/>
<path d="M12 14h2v2h-2v-2z" fill="rgb(193,76,17)"/>
<path d="M14 14h2v4h-2v-4z" fill="rgb(94,28,3)"/>
<path d="M16 14h2v12h-10v-2h2v-2h2v-2h2v-2h2v-4z" fill="rgb(255,255,255)"/>
<path d="M0 16h2v6h2v2h2v2h-6v-10z" fill="rgb(255,255,255)"/>
<path d="M2 16h2v6h-2v-6z" fill="rgb(94,28,3)"/>
<path d="M4 16h2v2h-2v-2z" fill="rgb(187,74,30)"/>
<path d="M6 16h2v2h-2v-2z" fill="rgb(237,101,44)"/>
<path d="M8 16h2v2h-2v-2z" fill="rgb(208,86,42)"/>
<path d="M10 16h2v2h-2v-2z" fill="rgb(215,90,45)"/>
<path d="M12 16h2v2h-2v-2z" fill="rgb(160,59,14)"/>
<path d="M4 18h2v2h-2v-2z" fill="rgb(215,90,45)"/>
<path d="M6 18h2v2h-2v-2z" fill="rgb(193,76,17)"/>
<path d="M8 18h2v2h-2v-2z" fill="rgb(215,90,45)"/>
<path d="M10 18h2v2h-2v-2z" fill="rgb(160,59,14)"/>
<path d="M12 18h2v2h-2v-2z" fill="rgb(94,28,3)"/>
<path d="M4 20h2v2h-2v-2z" fill="rgb(188,75,31)"/>
<path d="M6 20h2v2h-2v-2z" fill="rgb(215,90,45)"/>
<path d="M8 20h2v2h-2v-2z" fill="rgb(160,59,14)"/>
<path d="M10 20h2v2h-2v-2z" fill="rgb(94,28,3)"/>
<path d="M4 22h2v2h-2v-2z" fill="rgb(94,28,3)"/>
<path d="M6 22h2v2h-2v-2z" fill="rgb(160,59,14)"/>
<path d="M8 22h2v2h-2v-2z" fill="rgb(94,28,3)"/>
<path d="M6 24h2v2h-2v-2z" fill="rgb(94,28,3)"/>
</svg>