<?xml version="1.0" encoding="utf-8"?>
<!-- generated at drububu.com  -->
<!DOCTYPE svg PUBLIC "-//W3C//DTD SVG 1.1//EN" "http://www.w3.org/Graphics/SVG/1.1/DTD/svg11.dtd">
<svg version="1.1" preserveAspectRatio="xMinYMin meet" xmlns="http://www.w3.org/2000/svg" xmlns:xlink="http://www.w3.org/1999/xlink" x="0px" y="0px" width="34px" height="36px" viewBox="0 0 34 36">
<path d="M0 0h10v2h-2v2h-2v-2h-4v4h2v6h-2v2h2v4h-2v4h-2v-22z" fill="rgb(255,255,255)"/>
<path d="M10 0h6v2h-6v-2z" fill="rgb(3,54,34)"/>
<path d="M16 0h2v2h-2v-2z" fill="rgb(255,255,255)"/>
<path d="M18 0h6v2h-6v-2z" fill="rgb(3,54,34)"/>
<path d="M24 0h10v22h-2v-4h-2v-4h2v-2h-2v-6h2v-4h-4v2h-2v-2h-2v-2z" fill="rgb(255,255,255)"/>
<path d="M2 2h4v2h-2v2h-2v-4z" fill="rgb(3,54,34)"/>
<path d="M8 2h2v2h-2v-2z" fill="rgb(3,54,34)"/>
<path d="M10 2h2v2h-2v-2z" fill="rgb(28,222,152)"/>
<path d="M12 2h2v2h-2v-2z" fill="rgb(209,253,236)"/>
<path d="M14 2h2v2h-2v-2z" fill="rgb(27,162,142)"/>
<path d="M16 2h2v2h-2v-2z" fill="rgb(3,54,34)"/>
<path d="M18 2h2v2h-2v-2z" fill="rgb(27,162,142)"/>
<path d="M20 2h2v2h-2v-2z" fill="rgb(209,253,236)"/>
<path d="M22 2h2v2h-2v-2z" fill="rgb(28,222,152)"/>
<path d="M24 2h2v2h-2v-2z" fill="rgb(3,54,34)"/>
<path d="M28 2h4v4h-2v-2h-2v-2z" fill="rgb(3,54,34)"/>
<path d="M4 4h2v2h-2v-2z" fill="rgb(28,222,152)"/>
<path d="M6 4h2v2h-2v-2z" fill="rgb(3,54,34)"/>
<path d="M8 4h2v2h-2v-2z" fill="rgb(17,93,64)"/>
<path d="M10 4h2v2h-2v-2z" fill="rgb(27,162,142)"/>
<path d="M12 4h2v2h-2v-2z" fill="rgb(28,222,152)"/>
<path d="M14 4h2v2h-2v-2z" fill="rgb(168,245,228)"/>
<path d="M16 4h2v2h-2v-2z" fill="rgb(27,162,142)"/>
<path d="M18 4h2v2h-2v-2z" fill="rgb(168,245,228)"/>
<path d="M20 4h2v2h-2v-2z" fill="rgb(28,222,152)"/>
<path d="M22 4h2v2h-2v-2z" fill="rgb(27,162,142)"/>
<path d="M24 4h2v2h-2v-2z" fill="rgb(17,93,64)"/>
<path d="M26 4h2v2h-2v-2z" fill="rgb(3,54,34)"/>
<path d="M28 4h2v2h-2v-2z" fill="rgb(28,222,152)"/>
<path d="M4 6h2v2h-2v-2z" fill="rgb(3,54,34)"/>
<path d="M6 6h2v2h-2v-2z" fill="rgb(163,137,89)"/>
<path d="M8 6h2v2h-2v-2z" fill="rgb(186,167,128)"/>
<path d="M10 6h4v2h-4v-2z" fill="rgb(17,93,64)"/>
<path d="M14 6h2v2h-2v-2z" fill="rgb(148,104,86)"/>
<path d="M16 6h2v2h-2v-2z" fill="rgb(17,93,64)"/>
<path d="M18 6h2v2h-2v-2z" fill="rgb(148,104,86)"/>
<path d="M20 6h4v2h-4v-2z" fill="rgb(17,93,64)"/>
<path d="M24 6h2v2h-2v-2z" fill="rgb(186,167,128)"/>
<path d="M26 6h2v2h-2v-2z" fill="rgb(163,137,89)"/>
<path d="M28 6h2v2h-2v-2z" fill="rgb(3,54,34)"/>
<path d="M4 8h2v2h-2v-2z" fill="rgb(0,0,0)"/>
<path d="M6 8h2v2h4v2h-6v-4z" fill="rgb(148,104,86)"/>
<path d="M8 8h2v2h-2v-2z" fill="rgb(209,253,236)"/>
<path d="M10 8h2v2h-2v-2z" fill="rgb(186,167,128)"/>
<path d="M12 8h2v2h-2v-2z" fill="rgb(148,104,86)"/>
<path d="M14 8h2v2h-2v-2z" fill="rgb(186,167,128)"/>
<path d="M16 8h2v2h-2v-2z" fill="rgb(209,253,236)"/>
<path d="M18 8h2v2h-2v-2z" fill="rgb(186,167,128)"/>
<path d="M20 8h2v2h-2v-2z" fill="rgb(148,104,86)"/>
<path d="M22 8h2v2h-2v-2z" fill="rgb(186,167,128)"/>
<path d="M24 8h2v2h-2v-2z" fill="rgb(209,253,236)"/>
<path d="M26 8h2v4h-6v-2h4v-2z" fill="rgb(148,104,86)"/>
<path d="M28 8h2v2h-2v-2z" fill="rgb(0,0,0)"/>
<path d="M4 10h2v2h-2v-2z" fill="rgb(3,54,34)"/>
<path d="M12 10h2v2h-2v-2z" fill="rgb(186,167,128)"/>
<path d="M14 10h2v2h-2v-2z" fill="rgb(77,53,50)"/>
<path d="M16 10h2v2h-2v-2z" fill="rgb(28,222,152)"/>
<path d="M18 10h2v2h-2v-2z" fill="rgb(77,53,50)"/>
<path d="M20 10h2v2h-2v-2z" fill="rgb(186,167,128)"/>
<path d="M28 10h2v2h-2v-2z" fill="rgb(3,54,34)"/>
<path d="M2 12h2v2h-2v-2z" fill="rgb(3,54,34)"/>
<path d="M4 12h2v2h-2v-2z" fill="rgb(28,222,152)"/>
<path d="M6 12h2v4h-2v-4z" fill="rgb(163,137,89)"/>
<path d="M8 12h2v2h-2v-2z" fill="rgb(28,222,152)"/>
<path d="M10 12h2v2h-2v-2z" fill="rgb(209,253,236)"/>
<path d="M12 12h2v2h-2v-2z" fill="rgb(148,104,86)"/>
<path d="M14 12h2v2h-2v-2z" fill="rgb(186,167,128)"/>
<path d="M16 12h2v2h-2v-2z" fill="rgb(77,53,50)"/>
<path d="M18 12h2v2h-2v-2z" fill="rgb(186,167,128)"/>
<path d="M20 12h2v2h-2v-2z" fill="rgb(148,104,86)"/>
<path d="M22 12h2v2h-2v-2z" fill="rgb(209,253,236)"/>
<path d="M24 12h2v2h-2v-2z" fill="rgb(28,222,152)"/>
<path d="M26 12h2v4h-2v-4z" fill="rgb(163,137,89)"/>
<path d="M28 12h2v2h-2v-2z" fill="rgb(28,222,152)"/>
<path d="M30 12h2v2h-2v-2z" fill="rgb(3,54,34)"/>
<path d="M4 14h2v2h-2v-2z" fill="rgb(3,54,34)"/>
<path d="M8 14h2v2h-2v-2z" fill="rgb(77,53,50)"/>
<path d="M10 14h2v2h-2v-2z" fill="rgb(168,245,228)"/>
<path d="M12 14h2v2h-2v-2z" fill="rgb(209,253,236)"/>
<path d="M14 14h2v2h-2v-2z" fill="rgb(148,104,86)"/>
<path d="M16 14h2v2h-2v-2z" fill="rgb(186,167,128)"/>
<path d="M18 14h2v2h-2v-2z" fill="rgb(148,104,86)"/>
<path d="M20 14h2v2h-2v-2z" fill="rgb(209,253,236)"/>
<path d="M22 14h2v2h-2v-2z" fill="rgb(168,245,228)"/>
<path d="M24 14h2v2h-2v-2z" fill="rgb(77,53,50)"/>
<path d="M28 14h2v4h-2v-4z" fill="rgb(0,0,0)"/>
<path d="M4 16h2v2h-2v-2z" fill="rgb(0,0,0)"/>
<path d="M6 16h2v2h-2v-2z" fill="rgb(148,104,86)"/>
<path d="M8 16h2v2h-2v-2z" fill="rgb(163,137,89)"/>
<path d="M10 16h4v2h-4v-2z" fill="rgb(77,53,50)"/>
<path d="M14 16h2v2h-2v-2z" fill="rgb(104,85,83)"/>
<path d="M16 16h2v4h-2v-4z" fill="rgb(222,212,194)"/>
<path d="M18 16h2v2h-2v-2z" fill="rgb(104,85,83)"/>
<path d="M20 16h4v2h-4v-2z" fill="rgb(77,53,50)"/>
<path d="M24 16h2v2h-2v-2z" fill="rgb(163,137,89)"/>
<path d="M26 16h2v2h-2v-2z" fill="rgb(148,104,86)"/>
<path d="M2 18h2v2h-2v-2z" fill="rgb(3,54,34)"/>
<path d="M4 18h2v2h-2v-2z" fill="rgb(148,104,86)"/>
<path d="M6 18h2v2h-2v-2z" fill="rgb(0,0,0)"/>
<path d="M8 18h2v4h-2v-4z" fill="rgb(148,104,86)"/>
<path d="M10 18h2v2h-2v-2z" fill="rgb(163,137,89)"/>
<path d="M12 18h2v2h-2v-2z" fill="rgb(148,104,86)"/>
<path d="M14 18h2v2h-2v-2z" fill="rgb(186,167,128)"/>
<path d="M18 18h2v2h-2v-2z" fill="rgb(186,167,128)"/>
<path d="M20 18h2v2h-2v-2z" fill="rgb(148,104,86)"/>
<path d="M22 18h2v2h-2v-2z" fill="rgb(163,137,89)"/>
<path d="M24 18h2v4h-2v-4z" fill="rgb(148,104,86)"/>
<path d="M26 18h2v2h-2v-2z" fill="rgb(0,0,0)"/>
<path d="M28 18h2v2h-2v-2z" fill="rgb(148,104,86)"/>
<path d="M30 18h2v2h-2v-2z" fill="rgb(3,54,34)"/>
<path d="M2 20h2v2h-2v-2z" fill="rgb(17,93,64)"/>
<path d="M4 20h2v2h-2v-2z" fill="rgb(163,137,89)"/>
<path d="M6 20h2v2h-2v-2z" fill="rgb(77,53,50)"/>
<path d="M10 20h2v4h-2v-4z" fill="rgb(77,53,50)"/>
<path d="M12 20h2v4h-2v-4z" fill="rgb(163,137,89)"/>
<path d="M14 20h2v2h-2v-2z" fill="rgb(148,104,86)"/>
<path d="M16 20h2v4h2v2h-2v2h-2v-2h-2v-2h2v-4z" fill="rgb(0,0,0)"/>
<path d="M18 20h2v2h-2v-2z" fill="rgb(148,104,86)"/>
<path d="M20 20h2v4h-2v-4z" fill="rgb(163,137,89)"/>
<path d="M22 20h2v4h-2v-4z" fill="rgb(77,53,50)"/>
<path d="M26 20h2v2h-2v-2z" fill="rgb(77,53,50)"/>
<path d="M28 20h2v2h-2v-2z" fill="rgb(163,137,89)"/>
<path d="M30 20h2v2h-2v-2z" fill="rgb(17,93,64)"/>
<path d="M0 22h2v2h-2v-2z" fill="rgb(3,54,34)"/>
<path d="M2 22h2v2h-2v-2z" fill="rgb(28,222,152)"/>
<path d="M4 22h2v4h-2v-4z" fill="rgb(0,0,0)"/>
<path d="M6 22h2v2h-2v-2z" fill="rgb(148,104,86)"/>
<path d="M8 22h2v2h-2v-2z" fill="rgb(104,85,83)"/>
<path d="M14 22h2v2h-2v-2z" fill="rgb(222,212,194)"/>
<path d="M18 22h2v2h-2v-2z" fill="rgb(222,212,194)"/>
<path d="M24 22h2v2h-2v-2z" fill="rgb(104,85,83)"/>
<path d="M26 22h2v2h-2v-2z" fill="rgb(148,104,86)"/>
<path d="M28 22h2v4h-2v-4z" fill="rgb(0,0,0)"/>
<path d="M30 22h2v2h-2v-2z" fill="rgb(28,222,152)"/>
<path d="M32 22h2v2h-2v-2z" fill="rgb(3,54,34)"/>
<path d="M0 24h2v2h2v4h2v2h2v2h2v2h-10v-12z" fill="rgb(255,255,255)"/>
<path d="M2 24h2v2h-2v-2z" fill="rgb(17,93,64)"/>
<path d="M6 24h2v2h-2v-2z" fill="rgb(28,222,152)"/>
<path d="M8 24h2v2h-2v-2z" fill="rgb(77,53,50)"/>
<path d="M10 24h2v2h-2v-2z" fill="rgb(148,104,86)"/>
<path d="M12 24h2v2h-2v-2z" fill="rgb(77,53,50)"/>
<path d="M20 24h2v2h-2v-2z" fill="rgb(77,53,50)"/>
<path d="M22 24h2v2h-2v-2z" fill="rgb(148,104,86)"/>
<path d="M24 24h2v2h-2v-2z" fill="rgb(77,53,50)"/>
<path d="M26 24h2v2h-2v-2z" fill="rgb(28,222,152)"/>
<path d="M30 24h2v2h-2v-2z" fill="rgb(17,93,64)"/>
<path d="M32 24h2v12h-10v-2h2v-2h2v-2h2v-4h2v-2z" fill="rgb(255,255,255)"/>
<path d="M4 26h2v4h-2v-4z" fill="rgb(3,54,34)"/>
<path d="M6 26h2v4h-2v-4z" fill="rgb(209,253,236)"/>
<path d="M8 26h2v6h-2v-6z" fill="rgb(17,93,64)"/>
<path d="M10 26h2v2h-2v-2z" fill="rgb(163,137,89)"/>
<path d="M12 26h2v2h-2v-2z" fill="rgb(0,0,0)"/>
<path d="M14 26h2v2h-2v-2z" fill="rgb(222,212,194)"/>
<path d="M18 26h2v2h-2v-2z" fill="rgb(222,212,194)"/>
<path d="M20 26h2v2h-2v-2z" fill="rgb(0,0,0)"/>
<path d="M22 26h2v2h-2v-2z" fill="rgb(163,137,89)"/>
<path d="M24 26h2v6h-2v-6z" fill="rgb(17,93,64)"/>
<path d="M26 26h2v4h-2v-4z" fill="rgb(209,253,236)"/>
<path d="M28 26h2v4h-2v-4z" fill="rgb(3,54,34)"/>
<path d="M10 28h2v2h-2v-2z" fill="rgb(28,222,152)"/>
<path d="M12 28h2v2h-2v-2z" fill="rgb(77,53,50)"/>
<path d="M14 28h2v2h-2v-2z" fill="rgb(0,0,0)"/>
<path d="M16 28h2v2h-2v-2z" fill="rgb(163,137,89)"/>
<path d="M18 28h2v2h-2v-2z" fill="rgb(0,0,0)"/>
<path d="M20 28h2v2h-2v-2z" fill="rgb(77,53,50)"/>
<path d="M22 28h2v2h-2v-2z" fill="rgb(28,222,152)"/>
<path d="M6 30h2v2h-2v-2z" fill="rgb(3,54,34)"/>
<path d="M10 30h2v4h-2v-4z" fill="rgb(209,253,236)"/>
<path d="M12 30h2v2h-2v-2z" fill="rgb(17,93,64)"/>
<path d="M14 30h2v2h-2v-2z" fill="rgb(28,222,152)"/>
<path d="M16 30h2v2h-2v-2z" fill="rgb(0,0,0)"/>
<path d="M18 30h2v2h-2v-2z" fill="rgb(28,222,152)"/>
<path d="M20 30h2v2h-2v-2z" fill="rgb(17,93,64)"/>
<path d="M22 30h2v4h-2v-4z" fill="rgb(209,253,236)"/>
<path d="M26 30h2v2h-2v-2z" fill="rgb(3,54,34)"/>
<path d="M8 32h2v2h-2v-2z" fill="rgb(3,54,34)"/>
<path d="M12 32h2v2h-2v-2z" fill="rgb(3,54,34)"/>
<path d="M14 32h2v2h-2v-2z" fill="rgb(209,253,236)"/>
<path d="M16 32h2v2h-2v-2z" fill="rgb(3,54,34)"/>
<path d="M18 32h2v2h-2v-2z" fill="rgb(209,253,236)"/>
<path d="M20 32h2v2h-2v-2z" fill="rgb(3,54,34)"/>
<path d="M24 32h2v2h-2v-2z" fill="rgb(3,54,34)"/>
<path d="M10 34h2v2h-2v-2z" fill="rgb(3,54,34)"/>
<path d="M12 34h2v2h-2v-2z" fill="rgb(255,255,255)"/>
<path d="M14 34h2v2h-2v-2z" fill="rgb(3,54,34)"/>
<path d="M16 34h2v2h-2v-2z" fill="rgb(255,255,255)"/>
<path d="M18 34h2v2h-2v-2z" fill="rgb(3,54,34)"/>
<path d="M20 34h2v2h-2v-2z" fill="rgb(255,255,255)"/>
<path d="M22 34h2v2h-2v-2z" fill="rgb(3,54,34)"/>
</svg>