<?xml version="1.0" encoding="utf-8"?>
<!-- generated at drububu.com  -->
<!DOCTYPE svg PUBLIC "-//W3C//DTD SVG 1.1//EN" "http://www.w3.org/Graphics/SVG/1.1/DTD/svg11.dtd">
<svg version="1.1" preserveAspectRatio="xMinYMin meet" xmlns="http://www.w3.org/2000/svg" xmlns:xlink="http://www.w3.org/1999/xlink" x="0px" y="0px" width="42px" height="36px" viewBox="0 0 42 36">
<path d="M0 0h14v2h-2v2h-4v-2h-4v6h2v4h-2v-2h-4v-10z" fill="rgb(255,255,255)"/>
<path d="M14 0h4v2h-4v-2z" fill="rgb(80,6,26)"/>
<path d="M18 0h2v2h-2v-2z" fill="rgb(255,255,255)"/>
<path d="M20 0h2v2h-2v-2z" fill="rgb(80,6,26)"/>
<path d="M22 0h2v2h-2v-2z" fill="rgb(255,255,255)"/>
<path d="M24 0h4v2h-4v-2z" fill="rgb(80,6,26)"/>
<path d="M28 0h14v10h-4v2h-2v-4h2v-6h-4v2h-4v-2h-2v-2z" fill="rgb(255,255,255)"/>
<path d="M4 2h4v2h-2v2h-2v-4z" fill="rgb(46,1,26)"/>
<path d="M12 2h2v2h-2v-2z" fill="rgb(80,6,26)"/>
<path d="M14 2h2v2h-2v-2z" fill="rgb(90,42,36)"/>
<path d="M16 2h2v2h-2v-2z" fill="rgb(145,77,77)"/>
<path d="M18 2h2v2h-2v-2z" fill="rgb(80,6,26)"/>
<path d="M20 2h2v8h-2v-4h-2v-2h2v-2z" fill="rgb(145,77,77)"/>
<path d="M22 2h2v2h-2v-2z" fill="rgb(80,6,26)"/>
<path d="M24 2h2v2h-2v-2z" fill="rgb(90,42,36)"/>
<path d="M26 2h2v2h-2v-2z" fill="rgb(145,77,77)"/>
<path d="M28 2h2v2h-2v-2z" fill="rgb(80,6,26)"/>
<path d="M34 2h4v4h-2v-2h-2v-2z" fill="rgb(46,1,26)"/>
<path d="M6 4h2v2h-2v-2z" fill="rgb(126,45,142)"/>
<path d="M8 4h2v2h-2v-2z" fill="rgb(46,1,26)"/>
<path d="M10 4h2v2h-2v-2z" fill="rgb(80,6,26)"/>
<path d="M12 4h2v2h-2v-2z" fill="rgb(90,42,36)"/>
<path d="M14 4h2v2h-2v-2z" fill="rgb(80,6,26)"/>
<path d="M16 4h2v2h-2v-2z" fill="rgb(90,42,36)"/>
<path d="M22 4h2v4h-2v-4z" fill="rgb(90,42,36)"/>
<path d="M24 4h2v2h-2v-2z" fill="rgb(145,77,77)"/>
<path d="M26 4h2v2h-2v-2z" fill="rgb(80,6,26)"/>
<path d="M28 4h2v2h-2v-2z" fill="rgb(90,42,36)"/>
<path d="M30 4h2v2h-2v-2z" fill="rgb(80,6,26)"/>
<path d="M32 4h2v2h-2v-2z" fill="rgb(46,1,26)"/>
<path d="M34 4h2v2h-2v-2z" fill="rgb(126,45,142)"/>
<path d="M4 6h2v2h-2v-2z" fill="rgb(3,89,50)"/>
<path d="M6 6h2v2h-2v-2z" fill="rgb(2,153,85)"/>
<path d="M8 6h2v4h-2v-4z" fill="rgb(126,45,142)"/>
<path d="M10 6h2v4h-2v-4z" fill="rgb(46,1,26)"/>
<path d="M12 6h2v4h-2v-4z" fill="rgb(80,6,26)"/>
<path d="M14 6h2v2h-2v-2z" fill="rgb(156,34,66)"/>
<path d="M16 6h2v2h-2v-2z" fill="rgb(80,6,26)"/>
<path d="M18 6h2v2h-2v-2z" fill="rgb(90,42,36)"/>
<path d="M24 6h2v2h-2v-2z" fill="rgb(80,6,26)"/>
<path d="M26 6h2v2h-2v-2z" fill="rgb(156,34,66)"/>
<path d="M28 6h2v2h-2v-2z" fill="rgb(80,6,26)"/>
<path d="M30 6h2v4h-2v-4z" fill="rgb(46,1,26)"/>
<path d="M32 6h2v4h-2v-4z" fill="rgb(126,45,142)"/>
<path d="M34 6h2v2h-2v-2z" fill="rgb(2,153,85)"/>
<path d="M36 6h2v2h-2v-2z" fill="rgb(3,89,50)"/>
<path d="M6 8h2v2h-2v-2z" fill="rgb(3,89,50)"/>
<path d="M14 8h2v2h-2v-2z" fill="rgb(189,60,66)"/>
<path d="M16 8h2v2h-2v-2z" fill="rgb(156,34,66)"/>
<path d="M18 8h2v2h-2v-2z" fill="rgb(118,16,43)"/>
<path d="M22 8h2v2h-2v-2z" fill="rgb(118,16,43)"/>
<path d="M24 8h2v2h-2v-2z" fill="rgb(156,34,66)"/>
<path d="M26 8h2v2h-2v-2z" fill="rgb(189,60,66)"/>
<path d="M28 8h2v2h-2v-2z" fill="rgb(156,34,66)"/>
<path d="M34 8h2v2h-2v-2z" fill="rgb(3,89,50)"/>
<path d="M0 10h4v2h-2v4h-2v-6z" fill="rgb(46,1,26)"/>
<path d="M6 10h4v2h-4v-2z" fill="rgb(46,1,26)"/>
<path d="M10 10h2v6h-2v-6z" fill="rgb(80,6,26)"/>
<path d="M12 10h2v2h-2v-2z" fill="rgb(118,16,43)"/>
<path d="M14 10h4v2h-4v-2z" fill="rgb(222,102,81)"/>
<path d="M18 10h2v2h-2v-2z" fill="rgb(189,60,66)"/>
<path d="M20 10h2v2h-2v-2z" fill="rgb(80,6,26)"/>
<path d="M22 10h2v2h-2v-2z" fill="rgb(189,60,66)"/>
<path d="M24 10h4v2h-4v-2z" fill="rgb(222,102,81)"/>
<path d="M28 10h2v2h-2v-2z" fill="rgb(118,16,43)"/>
<path d="M30 10h2v6h-2v-6z" fill="rgb(80,6,26)"/>
<path d="M32 10h4v2h-4v-2z" fill="rgb(46,1,26)"/>
<path d="M38 10h4v6h-2v-4h-2v-2z" fill="rgb(46,1,26)"/>
<path d="M2 12h2v2h-2v-2z" fill="rgb(138,84,176)"/>
<path d="M4 12h2v2h-2v-2z" fill="rgb(46,1,26)"/>
<path d="M6 12h2v2h-2v-2z" fill="rgb(126,45,142)"/>
<path d="M8 12h2v2h-2v-2z" fill="rgb(138,84,176)"/>
<path d="M12 12h2v2h-2v-2z" fill="rgb(255,204,103)"/>
<path d="M14 12h2v2h-2v-2z" fill="rgb(118,16,43)"/>
<path d="M16 12h2v2h-2v-2z" fill="rgb(156,34,66)"/>
<path d="M18 12h2v2h-2v-2z" fill="rgb(222,102,81)"/>
<path d="M20 12h2v4h-2v-4z" fill="rgb(189,60,66)"/>
<path d="M22 12h2v2h-2v-2z" fill="rgb(222,102,81)"/>
<path d="M24 12h2v2h-2v-2z" fill="rgb(156,34,66)"/>
<path d="M26 12h2v2h-2v-2z" fill="rgb(118,16,43)"/>
<path d="M28 12h2v2h-2v-2z" fill="rgb(255,204,103)"/>
<path d="M32 12h2v2h-2v-2z" fill="rgb(138,84,176)"/>
<path d="M34 12h2v2h-2v-2z" fill="rgb(126,45,142)"/>
<path d="M36 12h2v2h-2v-2z" fill="rgb(46,1,26)"/>
<path d="M38 12h2v2h-2v-2z" fill="rgb(138,84,176)"/>
<path d="M2 14h4v2h-4v-2z" fill="rgb(126,45,142)"/>
<path d="M6 14h2v2h-2v-2z" fill="rgb(149,118,183)"/>
<path d="M8 14h2v2h-2v-2z" fill="rgb(126,45,142)"/>
<path d="M12 14h2v2h-2v-2z" fill="rgb(255,146,53)"/>
<path d="M14 14h2v2h-2v-2z" fill="rgb(255,254,183)"/>
<path d="M16 14h2v2h-2v-2z" fill="rgb(255,204,103)"/>
<path d="M18 14h2v2h-2v-2z" fill="rgb(118,16,43)"/>
<path d="M22 14h2v2h-2v-2z" fill="rgb(118,16,43)"/>
<path d="M24 14h2v2h-2v-2z" fill="rgb(255,204,103)"/>
<path d="M26 14h2v2h-2v-2z" fill="rgb(255,254,183)"/>
<path d="M28 14h2v2h-2v-2z" fill="rgb(255,146,53)"/>
<path d="M32 14h2v2h-2v-2z" fill="rgb(126,45,142)"/>
<path d="M34 14h2v2h-2v-2z" fill="rgb(149,118,183)"/>
<path d="M36 14h4v2h-4v-2z" fill="rgb(126,45,142)"/>
<path d="M0 16h2v10h2v2h2v-2h2v-2h2v4h2v2h2v2h2v2h4v2h-20v-20z" fill="rgb(255,255,255)"/>
<path d="M2 16h2v10h-2v-10z" fill="rgb(46,1,26)"/>
<path d="M4 16h2v8h-2v-8z" fill="rgb(149,118,183)"/>
<path d="M6 16h2v4h-2v-4z" fill="rgb(126,45,142)"/>
<path d="M8 16h2v2h-2v-2z" fill="rgb(83,12,82)"/>
<path d="M10 16h2v4h-2v-4z" fill="rgb(156,34,66)"/>
<path d="M12 16h2v2h-2v-2z" fill="rgb(80,6,26)"/>
<path d="M14 16h2v2h-2v-2z" fill="rgb(255,146,53)"/>
<path d="M16 16h2v2h-2v-2z" fill="rgb(255,254,183)"/>
<path d="M18 16h2v2h-2v-2z" fill="rgb(80,6,26)"/>
<path d="M20 16h2v2h4v2h-8v-2h2v-2z" fill="rgb(118,16,43)"/>
<path d="M22 16h2v2h-2v-2z" fill="rgb(80,6,26)"/>
<path d="M24 16h2v2h-2v-2z" fill="rgb(255,254,183)"/>
<path d="M26 16h2v2h-2v-2z" fill="rgb(255,146,53)"/>
<path d="M28 16h2v2h-2v-2z" fill="rgb(80,6,26)"/>
<path d="M30 16h2v4h-2v-4z" fill="rgb(156,34,66)"/>
<path d="M32 16h2v2h-2v-2z" fill="rgb(83,12,82)"/>
<path d="M34 16h2v4h-2v-4z" fill="rgb(126,45,142)"/>
<path d="M36 16h2v8h-2v-8z" fill="rgb(149,118,183)"/>
<path d="M38 16h2v10h-2v-10z" fill="rgb(46,1,26)"/>
<path d="M40 16h2v20h-20v-2h4v-2h2v-2h2v-2h2v-4h2v2h2v2h2v-2h2v-10z" fill="rgb(255,255,255)"/>
<path d="M8 18h2v6h-2v2h-2v-4h2v-4z" fill="rgb(46,1,26)"/>
<path d="M12 18h6v2h-6v-2z" fill="rgb(189,60,66)"/>
<path d="M26 18h4v2h-4v-2z" fill="rgb(189,60,66)"/>
<path d="M32 18h2v4h2v4h-2v-2h-2v-6z" fill="rgb(46,1,26)"/>
<path d="M6 20h2v2h-2v-2z" fill="rgb(83,12,82)"/>
<path d="M10 20h2v4h-2v-4z" fill="rgb(80,6,26)"/>
<path d="M12 20h2v2h-2v-2z" fill="rgb(156,34,66)"/>
<path d="M14 20h2v2h-2v-2z" fill="rgb(118,16,43)"/>
<path d="M16 20h2v2h2v2h-4v-4z" fill="rgb(46,1,26)"/>
<path d="M18 20h6v2h-6v-2z" fill="rgb(222,102,81)"/>
<path d="M24 20h2v4h-4v-2h2v-2z" fill="rgb(46,1,26)"/>
<path d="M26 20h2v2h-2v-2z" fill="rgb(118,16,43)"/>
<path d="M28 20h2v2h-2v-2z" fill="rgb(156,34,66)"/>
<path d="M30 20h2v4h-2v-4z" fill="rgb(80,6,26)"/>
<path d="M34 20h2v2h-2v-2z" fill="rgb(83,12,82)"/>
<path d="M12 22h2v4h-2v2h-2v-4h2v-2z" fill="rgb(46,1,26)"/>
<path d="M14 22h2v4h-2v-4z" fill="rgb(189,60,66)"/>
<path d="M20 22h2v4h-2v-4z" fill="rgb(189,60,66)"/>
<path d="M26 22h2v4h-2v-4z" fill="rgb(189,60,66)"/>
<path d="M28 22h2v2h2v4h-2v-2h-2v-4z" fill="rgb(46,1,26)"/>
<path d="M4 24h2v2h-2v-2z" fill="rgb(126,45,142)"/>
<path d="M16 24h4v2h-2v2h-2v-4z" fill="rgb(222,102,81)"/>
<path d="M22 24h4v4h-2v-2h-2v-2z" fill="rgb(222,102,81)"/>
<path d="M36 24h2v2h-2v-2z" fill="rgb(126,45,142)"/>
<path d="M4 26h2v2h-2v-2z" fill="rgb(46,1,26)"/>
<path d="M12 26h2v2h-2v-2z" fill="rgb(156,34,66)"/>
<path d="M14 26h2v2h-2v-2z" fill="rgb(46,1,26)"/>
<path d="M18 26h6v2h-6v-2z" fill="rgb(46,1,26)"/>
<path d="M26 26h2v2h-2v-2z" fill="rgb(46,1,26)"/>
<path d="M28 26h2v2h-2v-2z" fill="rgb(156,34,66)"/>
<path d="M36 26h2v2h-2v-2z" fill="rgb(46,1,26)"/>
<path d="M12 28h2v2h-2v-2z" fill="rgb(46,1,26)"/>
<path d="M14 28h2v2h-2v-2z" fill="rgb(118,16,43)"/>
<path d="M16 28h2v2h-2v-2z" fill="rgb(46,1,26)"/>
<path d="M18 28h2v2h-2v-2z" fill="rgb(156,34,66)"/>
<path d="M20 28h2v2h-2v-2z" fill="rgb(189,60,66)"/>
<path d="M22 28h2v2h-2v-2z" fill="rgb(156,34,66)"/>
<path d="M24 28h2v2h-2v-2z" fill="rgb(46,1,26)"/>
<path d="M26 28h2v2h-2v-2z" fill="rgb(118,16,43)"/>
<path d="M28 28h2v2h-2v-2z" fill="rgb(46,1,26)"/>
<path d="M14 30h2v2h-2v-2z" fill="rgb(46,1,26)"/>
<path d="M16 30h2v2h-2v-2z" fill="rgb(118,16,43)"/>
<path d="M18 30h2v2h-2v-2z" fill="rgb(83,12,82)"/>
<path d="M20 30h2v2h-2v-2z" fill="rgb(126,45,142)"/>
<path d="M22 30h2v2h-2v-2z" fill="rgb(83,12,82)"/>
<path d="M24 30h2v2h-2v-2z" fill="rgb(118,16,43)"/>
<path d="M26 30h2v2h-2v-2z" fill="rgb(46,1,26)"/>
<path d="M16 32h4v2h-4v-2z" fill="rgb(46,1,26)"/>
<path d="M20 32h2v2h-2v-2z" fill="rgb(138,84,176)"/>
<path d="M22 32h4v2h-4v-2z" fill="rgb(46,1,26)"/>
<path d="M20 34h2v2h-2v-2z" fill="rgb(46,1,26)"/>
</svg>