<?xml version="1.0" encoding="utf-8"?>
<!-- generated at drububu.com  -->
<!DOCTYPE svg PUBLIC "-//W3C//DTD SVG 1.1//EN" "http://www.w3.org/Graphics/SVG/1.1/DTD/svg11.dtd">
<svg version="1.1" preserveAspectRatio="xMinYMin meet" xmlns="http://www.w3.org/2000/svg" xmlns:xlink="http://www.w3.org/1999/xlink" x="0px" y="0px" width="28px" height="30px" viewBox="0 0 28 30">
<path d="M0 0h2v2h-2v-2z" fill="rgb(255,255,255)"/>
<path d="M2 0h4v2h-4v-2z" fill="rgb(61,34,105)"/>
<path d="M6 0h4v2h-4v-2z" fill="rgb(255,255,255)"/>
<path d="M10 0h8v2h-8v-2z" fill="rgb(58,42,34)"/>
<path d="M18 0h4v2h-4v-2z" fill="rgb(255,255,255)"/>
<path d="M22 0h4v2h-4v-2z" fill="rgb(61,34,105)"/>
<path d="M26 0h2v2h-2v-2z" fill="rgb(255,255,255)"/>
<path d="M0 2h2v2h-2v-2z" fill="rgb(61,34,105)"/>
<path d="M2 2h2v2h-2v-2z" fill="rgb(33,18,64)"/>
<path d="M4 2h2v2h-2v-2z" fill="rgb(0,0,0)"/>
<path d="M6 2h2v2h-2v-2z" fill="rgb(33,18,64)"/>
<path d="M8 2h2v2h-2v-2z" fill="rgb(58,42,34)"/>
<path d="M10 2h2v2h-2v-2z" fill="rgb(187,133,14)"/>
<path d="M12 2h4v2h-4v-2z" fill="rgb(187,172,14)"/>
<path d="M16 2h2v2h-2v-2z" fill="rgb(187,133,14)"/>
<path d="M18 2h2v2h-2v-2z" fill="rgb(58,42,34)"/>
<path d="M20 2h2v2h-2v-2z" fill="rgb(33,18,64)"/>
<path d="M22 2h2v2h-2v-2z" fill="rgb(0,0,0)"/>
<path d="M24 2h2v2h-2v-2z" fill="rgb(33,18,64)"/>
<path d="M26 2h2v2h-2v-2z" fill="rgb(61,34,105)"/>
<path d="M0 4h2v2h-2v-2z" fill="rgb(33,18,64)"/>
<path d="M2 4h2v2h-2v-2z" fill="rgb(255,255,255)"/>
<path d="M4 4h2v2h-2v-2z" fill="rgb(33,18,64)"/>
<path d="M6 4h2v6h-2v-2h-2v-2h2v-2z" fill="rgb(0,0,0)"/>
<path d="M8 4h2v2h-2v-2z" fill="rgb(187,172,14)"/>
<path d="M10 4h6v2h2v4h-2v-2h-2v-2h-2v2h-4v-2h2v-2z" fill="rgb(233,230,73)"/>
<path d="M16 4h4v4h-2v-2h-2v-2z" fill="rgb(187,172,14)"/>
<path d="M20 4h2v2h2v2h-2v2h-2v-6z" fill="rgb(0,0,0)"/>
<path d="M22 4h2v2h-2v-2z" fill="rgb(33,18,64)"/>
<path d="M24 4h2v2h-2v-2z" fill="rgb(255,255,255)"/>
<path d="M26 4h2v2h-2v-2z" fill="rgb(33,18,64)"/>
<path d="M0 6h2v2h-2v-2z" fill="rgb(255,255,255)"/>
<path d="M2 6h2v2h-2v-2z" fill="rgb(58,42,34)"/>
<path d="M12 6h2v2h2v2h-2v2h-2v-2h-2v-2h2v-2z" fill="rgb(242,241,146)"/>
<path d="M24 6h2v2h-2v-2z" fill="rgb(58,42,34)"/>
<path d="M26 6h2v2h-2v-2z" fill="rgb(255,255,255)"/>
<path d="M0 8h2v8h-2v-8z" fill="rgb(58,42,34)"/>
<path d="M2 8h2v2h-2v-2z" fill="rgb(187,133,14)"/>
<path d="M4 8h2v2h-2v-2z" fill="rgb(187,172,14)"/>
<path d="M8 8h2v2h-2v-2z" fill="rgb(33,18,64)"/>
<path d="M18 8h2v2h-2v-2z" fill="rgb(33,18,64)"/>
<path d="M22 8h2v2h-2v-2z" fill="rgb(187,172,14)"/>
<path d="M24 8h2v2h-2v-2z" fill="rgb(187,133,14)"/>
<path d="M26 8h2v8h-2v-8z" fill="rgb(58,42,34)"/>
<path d="M2 10h2v4h-2v-4z" fill="rgb(187,172,14)"/>
<path d="M4 10h2v2h-2v-2z" fill="rgb(0,0,0)"/>
<path d="M6 10h2v2h-2v-2z" fill="rgb(98,66,150)"/>
<path d="M8 10h2v2h-2v-2z" fill="rgb(0,0,0)"/>
<path d="M10 10h2v2h-2v-2z" fill="rgb(98,66,150)"/>
<path d="M14 10h2v8h2v2h-2v2h-4v-2h-2v-2h2v-6h2v-2z" fill="rgb(233,230,73)"/>
<path d="M16 10h2v2h-2v-2z" fill="rgb(98,66,150)"/>
<path d="M18 10h2v2h-2v-2z" fill="rgb(0,0,0)"/>
<path d="M20 10h2v2h-2v-2z" fill="rgb(98,66,150)"/>
<path d="M22 10h2v2h-2v-2z" fill="rgb(0,0,0)"/>
<path d="M24 10h2v4h-2v-4z" fill="rgb(187,172,14)"/>
<path d="M4 12h2v2h-2v-2z" fill="rgb(33,18,64)"/>
<path d="M6 12h2v2h-2v-2z" fill="rgb(0,0,0)"/>
<path d="M8 12h2v2h-2v-2z" fill="rgb(121,135,173)"/>
<path d="M10 12h2v2h-2v-2z" fill="rgb(0,0,0)"/>
<path d="M16 12h2v2h-2v-2z" fill="rgb(0,0,0)"/>
<path d="M18 12h2v2h-2v-2z" fill="rgb(121,135,173)"/>
<path d="M20 12h2v2h-2v-2z" fill="rgb(0,0,0)"/>
<path d="M22 12h2v2h-2v-2z" fill="rgb(33,18,64)"/>
<path d="M2 14h2v2h-2v-2z" fill="rgb(187,133,14)"/>
<path d="M4 14h2v2h-2v-2z" fill="rgb(61,34,105)"/>
<path d="M6 14h2v2h-2v-2z" fill="rgb(33,18,64)"/>
<path d="M8 14h2v2h-2v-2z" fill="rgb(0,0,0)"/>
<path d="M10 14h2v2h-2v-2z" fill="rgb(61,34,105)"/>
<path d="M16 14h2v2h-2v-2z" fill="rgb(61,34,105)"/>
<path d="M18 14h2v2h-2v-2z" fill="rgb(0,0,0)"/>
<path d="M20 14h2v2h-2v-2z" fill="rgb(33,18,64)"/>
<path d="M22 14h2v2h-2v-2z" fill="rgb(61,34,105)"/>
<path d="M24 14h2v2h-2v-2z" fill="rgb(187,133,14)"/>
<path d="M0 16h2v8h2v4h2v2h-6v-14z" fill="rgb(255,255,255)"/>
<path d="M2 16h2v8h-2v-8z" fill="rgb(58,42,34)"/>
<path d="M4 16h2v2h-2v-2z" fill="rgb(187,133,14)"/>
<path d="M6 16h2v2h-2v-2z" fill="rgb(61,34,105)"/>
<path d="M8 16h4v2h-4v-2z" fill="rgb(33,18,64)"/>
<path d="M16 16h4v2h-4v-2z" fill="rgb(33,18,64)"/>
<path d="M20 16h2v2h-2v-2z" fill="rgb(61,34,105)"/>
<path d="M22 16h2v2h-2v-2z" fill="rgb(187,133,14)"/>
<path d="M24 16h2v8h-2v-8z" fill="rgb(58,42,34)"/>
<path d="M26 16h2v14h-6v-2h2v-4h2v-8z" fill="rgb(255,255,255)"/>
<path d="M4 18h2v2h-2v-2z" fill="rgb(187,172,14)"/>
<path d="M6 18h4v2h-4v-2z" fill="rgb(187,133,14)"/>
<path d="M18 18h4v2h-4v-2z" fill="rgb(187,133,14)"/>
<path d="M22 18h2v2h-2v-2z" fill="rgb(187,172,14)"/>
<path d="M4 20h2v2h-2v-2z" fill="rgb(187,133,14)"/>
<path d="M6 20h2v2h-2v-2z" fill="rgb(233,230,73)"/>
<path d="M8 20h2v2h-2v-2z" fill="rgb(118,49,10)"/>
<path d="M10 20h2v2h-2v-2z" fill="rgb(187,172,14)"/>
<path d="M16 20h2v2h-2v-2z" fill="rgb(187,172,14)"/>
<path d="M18 20h2v2h-2v-2z" fill="rgb(118,49,10)"/>
<path d="M20 20h2v2h-2v-2z" fill="rgb(233,230,73)"/>
<path d="M22 20h2v2h-2v-2z" fill="rgb(187,133,14)"/>
<path d="M4 22h2v2h-2v-2z" fill="rgb(118,49,10)"/>
<path d="M6 22h2v2h-2v-2z" fill="rgb(242,241,146)"/>
<path d="M8 22h2v2h-2v-2z" fill="rgb(233,230,73)"/>
<path d="M10 22h2v2h-2v-2z" fill="rgb(58,42,34)"/>
<path d="M12 22h4v2h-4v-2z" fill="rgb(187,172,14)"/>
<path d="M16 22h2v2h-2v-2z" fill="rgb(58,42,34)"/>
<path d="M18 22h2v2h-2v-2z" fill="rgb(233,230,73)"/>
<path d="M20 22h2v2h-2v-2z" fill="rgb(242,241,146)"/>
<path d="M22 22h2v2h-2v-2z" fill="rgb(118,49,10)"/>
<path d="M4 24h2v4h-2v-4z" fill="rgb(58,42,34)"/>
<path d="M6 24h2v2h-2v-2z" fill="rgb(233,230,73)"/>
<path d="M8 24h2v2h-2v-2z" fill="rgb(187,133,14)"/>
<path d="M10 24h2v2h-2v-2z" fill="rgb(118,49,10)"/>
<path d="M12 24h4v2h-4v-2z" fill="rgb(58,42,34)"/>
<path d="M16 24h2v2h-2v-2z" fill="rgb(118,49,10)"/>
<path d="M18 24h2v2h-2v-2z" fill="rgb(187,133,14)"/>
<path d="M20 24h2v2h-2v-2z" fill="rgb(233,230,73)"/>
<path d="M22 24h2v4h-2v-4z" fill="rgb(58,42,34)"/>
<path d="M6 26h2v2h-2v-2z" fill="rgb(187,133,14)"/>
<path d="M8 26h2v2h-2v-2z" fill="rgb(233,230,73)"/>
<path d="M10 26h2v2h-2v-2z" fill="rgb(242,241,146)"/>
<path d="M12 26h4v2h-4v-2z" fill="rgb(118,49,10)"/>
<path d="M16 26h2v2h-2v-2z" fill="rgb(242,241,146)"/>
<path d="M18 26h2v2h-2v-2z" fill="rgb(233,230,73)"/>
<path d="M20 26h2v2h-2v-2z" fill="rgb(187,133,14)"/>
<path d="M6 28h6v2h-6v-2z" fill="rgb(58,42,34)"/>
<path d="M12 28h4v2h-4v-2z" fill="rgb(255,255,255)"/>
<path d="M16 28h6v2h-6v-2z" fill="rgb(58,42,34)"/>
</svg>