<?xml version="1.0" encoding="utf-8"?>
<!-- generated at drububu.com  -->
<!DOCTYPE svg PUBLIC "-//W3C//DTD SVG 1.1//EN" "http://www.w3.org/Graphics/SVG/1.1/DTD/svg11.dtd">
<svg version="1.1" preserveAspectRatio="xMinYMin meet" xmlns="http://www.w3.org/2000/svg" xmlns:xlink="http://www.w3.org/1999/xlink" x="0px" y="0px" width="24px" height="30px" viewBox="0 0 24 30">
<path d="M0 0h6v2h-2v2h-2v2h-2v-6z" fill="rgb(255,255,255)"/>
<path d="M6 0h2v2h-2v-2z" fill="rgb(30,2,6)"/>
<path d="M8 0h8v2h-8v-2z" fill="rgb(65,43,45)"/>
<path d="M16 0h2v2h-2v-2z" fill="rgb(30,2,6)"/>
<path d="M18 0h6v6h-2v-2h-2v-2h-2v-2z" fill="rgb(255,255,255)"/>
<path d="M4 2h2v2h-2v-2z" fill="rgb(30,2,6)"/>
<path d="M6 2h2v2h-2v-2z" fill="rgb(65,43,45)"/>
<path d="M8 2h2v2h-2v-2z" fill="rgb(94,75,77)"/>
<path d="M10 2h4v2h2v4h-2v-2h-2v-2h-2v-2z" fill="rgb(117,94,97)"/>
<path d="M14 2h2v2h-2v-2z" fill="rgb(94,75,77)"/>
<path d="M16 2h2v2h-2v-2z" fill="rgb(65,43,45)"/>
<path d="M18 2h2v2h-2v-2z" fill="rgb(30,2,6)"/>
<path d="M2 4h2v2h-2v-2z" fill="rgb(30,2,6)"/>
<path d="M4 4h2v2h-2v-2z" fill="rgb(53,59,18)"/>
<path d="M6 4h2v2h-2v-2z" fill="rgb(244,244,244)"/>
<path d="M8 4h2v2h-2v-2z" fill="rgb(117,94,97)"/>
<path d="M10 4h2v2h-2v-2z" fill="rgb(147,119,122)"/>
<path d="M16 4h2v2h-2v-2z" fill="rgb(244,244,244)"/>
<path d="M18 4h2v2h-2v-2z" fill="rgb(53,59,18)"/>
<path d="M20 4h2v2h-2v-2z" fill="rgb(30,2,6)"/>
<path d="M0 6h2v8h-2v-8z" fill="rgb(30,2,6)"/>
<path d="M2 6h2v2h-2v-2z" fill="rgb(65,43,45)"/>
<path d="M4 6h2v2h-2v-2z" fill="rgb(161,162,161)"/>
<path d="M6 6h2v2h-2v-2z" fill="rgb(94,75,77)"/>
<path d="M8 6h2v2h-2v-2z" fill="rgb(147,119,122)"/>
<path d="M10 6h2v2h-2v-2z" fill="rgb(244,244,244)"/>
<path d="M12 6h2v2h-2v-2z" fill="rgb(216,216,216)"/>
<path d="M16 6h2v2h-2v-2z" fill="rgb(94,75,77)"/>
<path d="M18 6h2v2h-2v-2z" fill="rgb(161,162,161)"/>
<path d="M20 6h2v2h-2v-2z" fill="rgb(65,43,45)"/>
<path d="M22 6h2v8h-2v-8z" fill="rgb(30,2,6)"/>
<path d="M2 8h2v2h-2v-2z" fill="rgb(117,94,97)"/>
<path d="M4 8h2v4h-2v-4z" fill="rgb(94,75,77)"/>
<path d="M6 8h2v2h-2v-2z" fill="rgb(117,94,97)"/>
<path d="M8 8h2v2h-2v-2z" fill="rgb(244,244,244)"/>
<path d="M10 8h4v2h-4v-2z" fill="rgb(116,128,27)"/>
<path d="M14 8h2v2h-2v-2z" fill="rgb(216,216,216)"/>
<path d="M16 8h2v2h-2v-2z" fill="rgb(117,94,97)"/>
<path d="M18 8h2v4h-2v-4z" fill="rgb(94,75,77)"/>
<path d="M20 8h2v2h-2v-2z" fill="rgb(117,94,97)"/>
<path d="M2 10h2v2h-2v-2z" fill="rgb(65,43,45)"/>
<path d="M6 10h2v4h-2v-4z" fill="rgb(244,244,244)"/>
<path d="M8 10h2v2h-2v-2z" fill="rgb(139,153,71)"/>
<path d="M10 10h2v2h-2v-2z" fill="rgb(161,162,161)"/>
<path d="M12 10h2v4h-4v-2h2v-2z" fill="rgb(12,12,12)"/>
<path d="M14 10h2v2h-2v-2z" fill="rgb(116,128,27)"/>
<path d="M16 10h2v4h-2v-4z" fill="rgb(161,162,161)"/>
<path d="M20 10h2v2h-2v-2z" fill="rgb(65,43,45)"/>
<path d="M2 12h2v2h-2v-2z" fill="rgb(94,75,77)"/>
<path d="M4 12h2v2h-2v-2z" fill="rgb(65,43,45)"/>
<path d="M8 12h2v2h-2v-2z" fill="rgb(116,128,27)"/>
<path d="M14 12h2v2h-2v-2z" fill="rgb(84,90,49)"/>
<path d="M18 12h2v2h-2v-2z" fill="rgb(65,43,45)"/>
<path d="M20 12h2v2h-2v-2z" fill="rgb(94,75,77)"/>
<path d="M0 14h2v2h-2v-2z" fill="rgb(255,255,255)"/>
<path d="M2 14h2v2h-2v-2z" fill="rgb(65,43,45)"/>
<path d="M4 14h2v4h-2v-4z" fill="rgb(117,94,97)"/>
<path d="M6 14h2v2h-2v-2z" fill="rgb(65,43,45)"/>
<path d="M8 14h2v2h-2v-2z" fill="rgb(216,216,216)"/>
<path d="M10 14h2v2h-2v-2z" fill="rgb(116,128,27)"/>
<path d="M12 14h2v2h-2v-2z" fill="rgb(84,90,49)"/>
<path d="M14 14h2v2h-2v-2z" fill="rgb(161,162,161)"/>
<path d="M16 14h2v2h-2v-2z" fill="rgb(65,43,45)"/>
<path d="M18 14h2v4h-2v-4z" fill="rgb(117,94,97)"/>
<path d="M20 14h2v2h-2v-2z" fill="rgb(65,43,45)"/>
<path d="M22 14h2v2h-2v-2z" fill="rgb(255,255,255)"/>
<path d="M0 16h2v10h-2v-10z" fill="rgb(53,37,8)"/>
<path d="M2 16h2v2h-2v-2z" fill="rgb(90,75,46)"/>
<path d="M6 16h2v2h-2v-2z" fill="rgb(94,75,77)"/>
<path d="M8 16h2v2h-2v-2z" fill="rgb(65,43,45)"/>
<path d="M10 16h2v2h-2v-2z" fill="rgb(216,216,216)"/>
<path d="M12 16h2v2h-2v-2z" fill="rgb(161,162,161)"/>
<path d="M14 16h2v2h-2v-2z" fill="rgb(65,43,45)"/>
<path d="M16 16h2v2h-2v-2z" fill="rgb(94,75,77)"/>
<path d="M20 16h2v2h-2v-2z" fill="rgb(90,75,46)"/>
<path d="M22 16h2v10h-2v-10z" fill="rgb(53,37,8)"/>
<path d="M2 18h2v4h-2v-4z" fill="rgb(135,115,73)"/>
<path d="M4 18h2v2h-2v-2z" fill="rgb(94,75,77)"/>
<path d="M6 18h2v6h-2v-6z" fill="rgb(30,2,6)"/>
<path d="M8 18h2v2h-2v-2z" fill="rgb(117,94,97)"/>
<path d="M10 18h4v2h-4v-2z" fill="rgb(147,119,122)"/>
<path d="M14 18h2v2h-2v-2z" fill="rgb(117,94,97)"/>
<path d="M16 18h2v6h-2v-6z" fill="rgb(30,2,6)"/>
<path d="M18 18h2v2h-2v-2z" fill="rgb(94,75,77)"/>
<path d="M20 18h2v4h-2v-4z" fill="rgb(135,115,73)"/>
<path d="M4 20h2v4h-2v-4z" fill="rgb(53,37,8)"/>
<path d="M8 20h2v2h-2v-2z" fill="rgb(135,115,73)"/>
<path d="M10 20h4v2h-4v-2z" fill="rgb(53,37,8)"/>
<path d="M14 20h2v2h-2v-2z" fill="rgb(135,115,73)"/>
<path d="M18 20h2v4h-2v-4z" fill="rgb(53,37,8)"/>
<path d="M2 22h2v4h-2v-4z" fill="rgb(186,167,128)"/>
<path d="M8 22h2v2h-2v-2z" fill="rgb(186,167,128)"/>
<path d="M10 22h4v2h-4v-2z" fill="rgb(30,2,6)"/>
<path d="M14 22h2v2h-2v-2z" fill="rgb(186,167,128)"/>
<path d="M20 22h2v4h-2v-4z" fill="rgb(186,167,128)"/>
<path d="M4 24h2v2h-2v-2z" fill="rgb(90,75,46)"/>
<path d="M6 24h2v2h-2v-2z" fill="rgb(255,255,255)"/>
<path d="M8 24h2v2h-2v-2z" fill="rgb(30,2,6)"/>
<path d="M10 24h4v2h2v4h-8v-4h2v-2z" fill="rgb(255,255,255)"/>
<path d="M14 24h2v2h-2v-2z" fill="rgb(30,2,6)"/>
<path d="M16 24h2v2h-2v-2z" fill="rgb(255,255,255)"/>
<path d="M18 24h2v2h-2v-2z" fill="rgb(90,75,46)"/>
<path d="M0 26h2v2h2v2h-4v-4z" fill="rgb(255,255,255)"/>
<path d="M2 26h2v2h-2v-2z" fill="rgb(53,37,8)"/>
<path d="M4 26h2v2h-2v-2z" fill="rgb(186,167,128)"/>
<path d="M6 26h2v4h-4v-2h2v-2z" fill="rgb(53,37,8)"/>
<path d="M16 26h2v2h2v2h-4v-4z" fill="rgb(53,37,8)"/>
<path d="M18 26h2v2h-2v-2z" fill="rgb(186,167,128)"/>
<path d="M20 26h2v2h-2v-2z" fill="rgb(53,37,8)"/>
<path d="M22 26h2v4h-4v-2h2v-2z" fill="rgb(255,255,255)"/>
</svg>