<?xml version="1.0" encoding="utf-8"?>
<!-- generated at drububu.com  -->
<!DOCTYPE svg PUBLIC "-//W3C//DTD SVG 1.1//EN" "http://www.w3.org/Graphics/SVG/1.1/DTD/svg11.dtd">
<svg version="1.1" preserveAspectRatio="xMinYMin meet" xmlns="http://www.w3.org/2000/svg" xmlns:xlink="http://www.w3.org/1999/xlink" x="0px" y="0px" width="30px" height="30px" viewBox="0 0 30 30">
<path d="M0 0h8v2h-2v2h-2v-2h-2v2h-2v-4z" fill="rgb(255,255,255)"/>
<path d="M8 0h4v2h-4v-2z" fill="rgb(2,0,10)"/>
<path d="M12 0h18v10h-2v-6h-2v-2h-2v2h-2v2h-4v-2h-2v2h-2v-4h-2v-2z" fill="rgb(255,255,255)"/>
<path d="M2 2h2v2h-2v-2z" fill="rgb(2,0,10)"/>
<path d="M6 2h2v2h-2v-2z" fill="rgb(2,0,10)"/>
<path d="M8 2h2v2h-2v-2z" fill="rgb(86,76,129)"/>
<path d="M10 2h2v2h-2v-2z" fill="rgb(40,32,73)"/>
<path d="M12 2h2v4h-2v-4z" fill="rgb(2,0,10)"/>
<path d="M24 2h2v2h-2v-2z" fill="rgb(2,0,10)"/>
<path d="M0 4h2v12h-2v-12z" fill="rgb(2,0,10)"/>
<path d="M2 4h2v2h-2v-2z" fill="rgb(40,32,73)"/>
<path d="M4 4h2v4h-2v-4z" fill="rgb(2,0,10)"/>
<path d="M6 4h2v4h-2v-4z" fill="rgb(255,255,255)"/>
<path d="M8 4h2v4h-2v-4z" fill="rgb(2,0,10)"/>
<path d="M10 4h2v2h-2v-2z" fill="rgb(86,76,129)"/>
<path d="M16 4h2v2h-2v-2z" fill="rgb(2,0,10)"/>
<path d="M22 4h2v4h-6v-2h4v-2z" fill="rgb(2,0,10)"/>
<path d="M24 4h2v4h-2v-4z" fill="rgb(86,76,129)"/>
<path d="M26 4h2v6h-2v-6z" fill="rgb(2,0,10)"/>
<path d="M2 6h2v2h-2v-2z" fill="rgb(86,76,129)"/>
<path d="M10 6h2v2h-2v-2z" fill="rgb(67,60,102)"/>
<path d="M12 6h2v4h-2v-4z" fill="rgb(40,32,73)"/>
<path d="M14 6h2v2h-2v-2z" fill="rgb(2,0,10)"/>
<path d="M16 6h2v2h-2v-2z" fill="rgb(86,76,129)"/>
<path d="M2 8h2v2h-2v-2z" fill="rgb(67,60,102)"/>
<path d="M4 8h2v2h-2v-2z" fill="rgb(40,32,73)"/>
<path d="M6 8h2v2h-2v-2z" fill="rgb(2,0,10)"/>
<path d="M8 8h4v2h-4v-2z" fill="rgb(24,19,48)"/>
<path d="M14 8h2v2h-2v-2z" fill="rgb(86,76,129)"/>
<path d="M16 8h2v2h-2v-2z" fill="rgb(67,60,102)"/>
<path d="M18 8h2v2h-2v-2z" fill="rgb(24,19,48)"/>
<path d="M20 8h2v2h-2v-2z" fill="rgb(40,32,73)"/>
<path d="M22 8h2v2h-2v-2z" fill="rgb(86,76,129)"/>
<path d="M24 8h2v2h-2v-2z" fill="rgb(67,60,102)"/>
<path d="M2 10h2v2h-2v-2z" fill="rgb(40,32,73)"/>
<path d="M4 10h2v2h-2v-2z" fill="rgb(86,76,129)"/>
<path d="M6 10h4v2h-4v-2z" fill="rgb(67,60,102)"/>
<path d="M10 10h2v2h-2v-2z" fill="rgb(40,32,73)"/>
<path d="M12 10h2v2h2v4h-2v-2h-2v-4z" fill="rgb(24,19,48)"/>
<path d="M14 10h2v2h-2v-2z" fill="rgb(67,60,102)"/>
<path d="M16 10h2v2h-2v-2z" fill="rgb(40,32,73)"/>
<path d="M18 10h6v2h-6v-2z" fill="rgb(67,60,102)"/>
<path d="M24 10h2v2h-2v-2z" fill="rgb(40,32,73)"/>
<path d="M26 10h2v2h-2v-2z" fill="rgb(67,60,102)"/>
<path d="M28 10h2v2h-2v-2z" fill="rgb(2,0,10)"/>
<path d="M2 12h2v2h2v4h-2v-2h-2v-4z" fill="rgb(24,19,48)"/>
<path d="M4 12h2v2h-2v-2z" fill="rgb(67,60,102)"/>
<path d="M6 12h2v2h-2v-2z" fill="rgb(247,137,0)"/>
<path d="M8 12h2v2h-2v-2z" fill="rgb(249,80,0)"/>
<path d="M10 12h2v2h-2v-2z" fill="rgb(67,60,102)"/>
<path d="M16 12h2v2h-2v-2z" fill="rgb(67,60,102)"/>
<path d="M18 12h2v2h-2v-2z" fill="rgb(249,80,0)"/>
<path d="M20 12h2v2h-2v-2z" fill="rgb(247,137,0)"/>
<path d="M22 12h2v2h-2v-2z" fill="rgb(40,32,73)"/>
<path d="M24 12h2v4h-2v2h-2v-4h2v-2z" fill="rgb(24,19,48)"/>
<path d="M26 12h2v4h-2v-4z" fill="rgb(2,0,10)"/>
<path d="M28 12h2v18h-10v-2h2v-4h2v-2h2v-6h2v-4z" fill="rgb(255,255,255)"/>
<path d="M6 14h2v2h-2v-2z" fill="rgb(82,32,83)"/>
<path d="M8 14h2v2h-2v-2z" fill="rgb(255,204,106)"/>
<path d="M10 14h2v2h-2v-2z" fill="rgb(247,137,0)"/>
<path d="M12 14h2v6h-2v-6z" fill="rgb(86,76,129)"/>
<path d="M16 14h2v2h-2v-2z" fill="rgb(247,137,0)"/>
<path d="M18 14h2v2h-2v-2z" fill="rgb(255,204,106)"/>
<path d="M20 14h2v2h-2v-2z" fill="rgb(82,32,83)"/>
<path d="M0 16h2v6h2v2h2v4h2v2h-8v-14z" fill="rgb(255,255,255)"/>
<path d="M2 16h2v6h-2v-6z" fill="rgb(2,0,10)"/>
<path d="M6 16h4v2h-4v-2z" fill="rgb(40,32,73)"/>
<path d="M10 16h2v2h-2v-2z" fill="rgb(24,19,48)"/>
<path d="M14 16h2v2h-2v-2z" fill="rgb(40,32,73)"/>
<path d="M16 16h2v2h-2v-2z" fill="rgb(24,19,48)"/>
<path d="M18 16h4v2h-4v-2z" fill="rgb(40,32,73)"/>
<path d="M24 16h2v6h-2v-6z" fill="rgb(2,0,10)"/>
<path d="M4 18h2v2h-2v-2z" fill="rgb(67,60,102)"/>
<path d="M6 18h2v2h-2v-2z" fill="rgb(249,80,0)"/>
<path d="M8 18h2v2h-2v-2z" fill="rgb(67,60,102)"/>
<path d="M10 18h2v2h-2v-2z" fill="rgb(2,0,10)"/>
<path d="M14 18h2v2h-2v-2z" fill="rgb(67,60,102)"/>
<path d="M16 18h2v2h-2v-2z" fill="rgb(2,0,10)"/>
<path d="M18 18h2v2h-2v-2z" fill="rgb(67,60,102)"/>
<path d="M20 18h2v2h-2v-2z" fill="rgb(249,80,0)"/>
<path d="M22 18h2v2h-2v-2z" fill="rgb(67,60,102)"/>
<path d="M4 20h2v2h-2v-2z" fill="rgb(40,32,73)"/>
<path d="M6 20h2v2h-2v-2z" fill="rgb(247,137,0)"/>
<path d="M8 20h2v2h-2v-2z" fill="rgb(86,76,129)"/>
<path d="M10 20h2v2h-2v-2z" fill="rgb(249,80,0)"/>
<path d="M12 20h4v2h-4v-2z" fill="rgb(2,0,10)"/>
<path d="M16 20h2v2h-2v-2z" fill="rgb(249,80,0)"/>
<path d="M18 20h2v2h-2v-2z" fill="rgb(86,76,129)"/>
<path d="M20 20h2v2h-2v-2z" fill="rgb(247,137,0)"/>
<path d="M22 20h2v2h-2v-2z" fill="rgb(40,32,73)"/>
<path d="M4 22h2v2h-2v-2z" fill="rgb(2,0,10)"/>
<path d="M6 22h2v2h-2v-2z" fill="rgb(40,32,73)"/>
<path d="M8 22h2v2h-2v-2z" fill="rgb(247,137,0)"/>
<path d="M10 22h8v2h-8v-2z" fill="rgb(255,204,106)"/>
<path d="M18 22h2v2h-2v-2z" fill="rgb(247,137,0)"/>
<path d="M20 22h2v2h-2v-2z" fill="rgb(40,32,73)"/>
<path d="M22 22h2v2h-2v-2z" fill="rgb(2,0,10)"/>
<path d="M6 24h2v4h-2v-4z" fill="rgb(2,0,10)"/>
<path d="M8 24h2v2h-2v-2z" fill="rgb(82,32,83)"/>
<path d="M10 24h2v2h-2v-2z" fill="rgb(249,80,0)"/>
<path d="M12 24h4v2h-4v-2z" fill="rgb(82,32,83)"/>
<path d="M16 24h2v2h-2v-2z" fill="rgb(249,80,0)"/>
<path d="M18 24h2v2h-2v-2z" fill="rgb(82,32,83)"/>
<path d="M20 24h2v4h-2v-4z" fill="rgb(2,0,10)"/>
<path d="M8 26h2v2h-2v-2z" fill="rgb(24,19,48)"/>
<path d="M10 26h2v2h-2v-2z" fill="rgb(40,32,73)"/>
<path d="M12 26h2v2h-2v-2z" fill="rgb(86,76,129)"/>
<path d="M14 26h2v2h-2v-2z" fill="rgb(67,60,102)"/>
<path d="M16 26h2v2h-2v-2z" fill="rgb(40,32,73)"/>
<path d="M18 26h2v2h-2v-2z" fill="rgb(24,19,48)"/>
<path d="M8 28h12v2h-12v-2z" fill="rgb(2,0,10)"/>
</svg>