<?xml version="1.0" encoding="utf-8"?>
<!-- generated at drububu.com  -->
<!DOCTYPE svg PUBLIC "-//W3C//DTD SVG 1.1//EN" "http://www.w3.org/Graphics/SVG/1.1/DTD/svg11.dtd">
<svg version="1.1" preserveAspectRatio="xMinYMin meet" xmlns="http://www.w3.org/2000/svg" xmlns:xlink="http://www.w3.org/1999/xlink" x="0px" y="0px" width="26px" height="30px" viewBox="0 0 26 30">
<path d="M0 0h6v2h-2v2h-2v4h-2v-8z" fill="rgb(255,255,255)"/>
<path d="M6 0h14v2h-14v-2z" fill="rgb(41,23,8)"/>
<path d="M20 0h6v8h-2v-4h-2v-2h-2v-2z" fill="rgb(255,255,255)"/>
<path d="M4 2h2v2h-2v-2z" fill="rgb(41,23,8)"/>
<path d="M6 2h2v2h2v2h-2v2h-2v4h-2v-8h2v-2z" fill="rgb(77,45,32)"/>
<path d="M8 2h2v2h-2v-2z" fill="rgb(121,84,57)"/>
<path d="M10 2h8v2h2v2h-8v-2h-2v-2z" fill="rgb(152,107,74)"/>
<path d="M18 2h2v2h-2v-2z" fill="rgb(121,84,57)"/>
<path d="M20 2h2v2h-2v-2z" fill="rgb(41,23,8)"/>
<path d="M2 4h2v4h-2v-4z" fill="rgb(41,23,8)"/>
<path d="M10 4h2v2h-2v-2z" fill="rgb(121,84,57)"/>
<path d="M20 4h2v6h-2v-2h-2v-2h2v-2z" fill="rgb(121,84,57)"/>
<path d="M22 4h2v4h-2v-4z" fill="rgb(41,23,8)"/>
<path d="M8 6h2v2h-2v-2z" fill="rgb(83,101,144)"/>
<path d="M10 6h2v2h-2v-2z" fill="rgb(87,145,165)"/>
<path d="M12 6h4v2h-4v-2z" fill="rgb(141,201,200)"/>
<path d="M16 6h2v2h-2v-2z" fill="rgb(87,145,165)"/>
<path d="M0 8h2v4h-2v-4z" fill="rgb(18,10,53)"/>
<path d="M2 8h2v2h-2v-2z" fill="rgb(141,201,200)"/>
<path d="M6 8h2v2h-2v-2z" fill="rgb(83,101,144)"/>
<path d="M8 8h2v2h-2v-2z" fill="rgb(58,55,96)"/>
<path d="M10 8h6v2h-6v-2z" fill="rgb(18,10,53)"/>
<path d="M16 8h2v2h-2v-2z" fill="rgb(58,55,96)"/>
<path d="M18 8h2v2h-2v-2z" fill="rgb(87,145,165)"/>
<path d="M22 8h2v2h-2v-2z" fill="rgb(141,201,200)"/>
<path d="M24 8h2v4h-2v-4z" fill="rgb(18,10,53)"/>
<path d="M2 10h2v2h-2v-2z" fill="rgb(87,145,165)"/>
<path d="M6 10h2v2h-2v-2z" fill="rgb(87,145,165)"/>
<path d="M8 10h2v2h-2v-2z" fill="rgb(18,10,53)"/>
<path d="M10 10h2v2h-2v-2z" fill="rgb(148,133,123)"/>
<path d="M12 10h2v2h-2v-2z" fill="rgb(212,195,183)"/>
<path d="M14 10h2v2h-2v-2z" fill="rgb(148,133,123)"/>
<path d="M16 10h2v2h-2v-2z" fill="rgb(18,10,53)"/>
<path d="M18 10h2v6h-2v2h-2v-4h2v-4z" fill="rgb(141,201,200)"/>
<path d="M20 10h2v2h-2v-2z" fill="rgb(77,45,32)"/>
<path d="M22 10h2v2h-2v-2z" fill="rgb(87,145,165)"/>
<path d="M0 12h2v10h2v4h2v2h4v2h-10v-18z" fill="rgb(255,255,255)"/>
<path d="M2 12h2v4h-2v-4z" fill="rgb(41,23,8)"/>
<path d="M4 12h2v2h-2v-2z" fill="rgb(58,55,96)"/>
<path d="M6 12h2v2h2v4h-2v-2h-2v-4z" fill="rgb(141,201,200)"/>
<path d="M8 12h2v2h-2v-2z" fill="rgb(77,45,32)"/>
<path d="M10 12h2v2h-2v-2z" fill="rgb(235,231,227)"/>
<path d="M12 12h2v2h-2v-2z" fill="rgb(18,10,53)"/>
<path d="M14 12h2v2h-2v-2z" fill="rgb(235,231,227)"/>
<path d="M16 12h2v2h-2v-2z" fill="rgb(77,45,32)"/>
<path d="M20 12h2v2h-2v-2z" fill="rgb(58,55,96)"/>
<path d="M22 12h2v4h-2v-4z" fill="rgb(41,23,8)"/>
<path d="M24 12h2v18h-10v-2h4v-2h2v-4h2v-10z" fill="rgb(255,255,255)"/>
<path d="M4 14h2v2h-2v-2z" fill="rgb(83,101,144)"/>
<path d="M10 14h2v2h-2v-2z" fill="rgb(58,55,96)"/>
<path d="M12 14h2v2h-2v-2z" fill="rgb(141,201,200)"/>
<path d="M14 14h2v2h-2v-2z" fill="rgb(58,55,96)"/>
<path d="M20 14h2v2h-2v-2z" fill="rgb(83,101,144)"/>
<path d="M2 16h2v4h-2v-4z" fill="rgb(58,55,96)"/>
<path d="M4 16h2v4h-2v-4z" fill="rgb(121,84,57)"/>
<path d="M6 16h2v2h-2v-2z" fill="rgb(192,144,112)"/>
<path d="M10 16h2v2h-2v-2z" fill="rgb(87,145,165)"/>
<path d="M12 16h2v2h-2v-2z" fill="rgb(58,55,96)"/>
<path d="M14 16h2v2h-2v-2z" fill="rgb(87,145,165)"/>
<path d="M18 16h2v2h-2v-2z" fill="rgb(192,144,112)"/>
<path d="M20 16h2v4h-2v-4z" fill="rgb(121,84,57)"/>
<path d="M22 16h2v6h-2v-6z" fill="rgb(58,55,96)"/>
<path d="M6 18h2v2h-2v-2z" fill="rgb(232,230,212)"/>
<path d="M8 18h2v2h-2v-2z" fill="rgb(192,144,112)"/>
<path d="M10 18h6v2h-6v-2z" fill="rgb(141,201,200)"/>
<path d="M16 18h2v2h-2v-2z" fill="rgb(192,144,112)"/>
<path d="M18 18h2v2h-2v-2z" fill="rgb(232,230,212)"/>
<path d="M2 20h2v2h-2v-2z" fill="rgb(18,10,53)"/>
<path d="M4 20h2v2h-2v-2z" fill="rgb(87,145,165)"/>
<path d="M6 20h2v2h-2v-2z" fill="rgb(77,45,32)"/>
<path d="M8 20h2v2h-2v-2z" fill="rgb(212,195,183)"/>
<path d="M10 20h2v4h-4v-2h2v-2z" fill="rgb(77,45,32)"/>
<path d="M12 20h2v2h-2v-2z" fill="rgb(58,55,96)"/>
<path d="M14 20h2v2h-2v-2z" fill="rgb(77,45,32)"/>
<path d="M16 20h2v2h-2v-2z" fill="rgb(212,195,183)"/>
<path d="M18 20h2v2h-2v-2z" fill="rgb(77,45,32)"/>
<path d="M20 20h2v2h-2v-2z" fill="rgb(141,201,200)"/>
<path d="M4 22h2v2h-2v-2z" fill="rgb(58,55,96)"/>
<path d="M6 22h2v4h-2v-4z" fill="rgb(83,101,144)"/>
<path d="M12 22h4v2h-4v-2z" fill="rgb(0,0,0)"/>
<path d="M16 22h2v2h-2v-2z" fill="rgb(77,45,32)"/>
<path d="M18 22h2v2h-2v-2z" fill="rgb(141,201,200)"/>
<path d="M20 22h2v2h-2v-2z" fill="rgb(83,101,144)"/>
<path d="M4 24h2v2h-2v-2z" fill="rgb(18,10,53)"/>
<path d="M8 24h2v2h-2v-2z" fill="rgb(87,145,165)"/>
<path d="M10 24h8v2h-8v-2z" fill="rgb(141,201,200)"/>
<path d="M18 24h2v2h-2v-2z" fill="rgb(87,145,165)"/>
<path d="M20 24h2v2h-2v-2z" fill="rgb(58,55,96)"/>
<path d="M6 26h2v2h-2v-2z" fill="rgb(18,10,53)"/>
<path d="M8 26h2v2h-2v-2z" fill="rgb(58,55,96)"/>
<path d="M10 26h6v2h-6v-2z" fill="rgb(83,101,144)"/>
<path d="M16 26h4v2h-4v-2z" fill="rgb(58,55,96)"/>
<path d="M10 28h6v2h-6v-2z" fill="rgb(18,10,53)"/>
</svg>