<?xml version="1.0" encoding="utf-8"?>
<!-- generated at drububu.com  -->
<!DOCTYPE svg PUBLIC "-//W3C//DTD SVG 1.1//EN" "http://www.w3.org/Graphics/SVG/1.1/DTD/svg11.dtd">
<svg version="1.1" preserveAspectRatio="xMinYMin meet" xmlns="http://www.w3.org/2000/svg" xmlns:xlink="http://www.w3.org/1999/xlink" x="0px" y="0px" width="26px" height="30px" viewBox="0 0 26 30">
<path d="M0 0h6v2h-2v2h-2v4h-2v-8z" fill="rgb(255,255,255)"/>
<path d="M6 0h14v2h-14v-2z" fill="rgb(27,27,27)"/>
<path d="M20 0h6v8h-2v-4h-2v-2h-2v-2z" fill="rgb(255,255,255)"/>
<path d="M4 2h2v2h-2v-2z" fill="rgb(27,27,27)"/>
<path d="M6 2h2v2h-2v-2z" fill="rgb(107,107,107)"/>
<path d="M8 2h2v4h-2v-4z" fill="rgb(182,182,182)"/>
<path d="M10 2h4v4h-4v-4z" fill="rgb(246,246,246)"/>
<path d="M14 2h2v4h-2v-4z" fill="rgb(224,224,224)"/>
<path d="M16 2h2v4h-2v-4z" fill="rgb(182,182,182)"/>
<path d="M18 2h2v2h-2v-2z" fill="rgb(107,107,107)"/>
<path d="M20 2h2v2h-2v-2z" fill="rgb(27,27,27)"/>
<path d="M2 4h2v4h-2v-4z" fill="rgb(27,27,27)"/>
<path d="M4 4h2v2h-2v-2z" fill="rgb(82,82,82)"/>
<path d="M6 4h2v2h-2v-2z" fill="rgb(224,224,224)"/>
<path d="M18 4h2v2h-2v-2z" fill="rgb(224,224,224)"/>
<path d="M20 4h2v2h-2v-2z" fill="rgb(82,82,82)"/>
<path d="M22 4h2v4h-2v-4z" fill="rgb(27,27,27)"/>
<path d="M4 6h2v2h-2v-2z" fill="rgb(182,182,182)"/>
<path d="M6 6h2v2h2v2h-4v-4z" fill="rgb(246,246,246)"/>
<path d="M8 6h2v2h-2v-2z" fill="rgb(224,224,224)"/>
<path d="M10 6h2v2h-2v-2z" fill="rgb(182,182,182)"/>
<path d="M12 6h2v2h-2v-2z" fill="rgb(224,224,224)"/>
<path d="M14 6h2v2h-2v-2z" fill="rgb(182,182,182)"/>
<path d="M16 6h2v2h-2v-2z" fill="rgb(224,224,224)"/>
<path d="M18 6h2v4h-4v-2h2v-2z" fill="rgb(246,246,246)"/>
<path d="M20 6h2v2h-2v-2z" fill="rgb(182,182,182)"/>
<path d="M0 8h2v8h-2v-8z" fill="rgb(27,27,27)"/>
<path d="M2 8h2v2h-2v-2z" fill="rgb(107,107,107)"/>
<path d="M4 8h2v2h-2v-2z" fill="rgb(82,82,82)"/>
<path d="M10 8h2v4h-2v-4z" fill="rgb(224,224,224)"/>
<path d="M12 8h2v4h-2v-4z" fill="rgb(182,182,182)"/>
<path d="M14 8h2v4h-2v-4z" fill="rgb(224,224,224)"/>
<path d="M20 8h2v2h-2v-2z" fill="rgb(82,82,82)"/>
<path d="M22 8h2v2h-2v-2z" fill="rgb(107,107,107)"/>
<path d="M24 8h2v8h-2v-8z" fill="rgb(27,27,27)"/>
<path d="M2 10h2v4h-2v-4z" fill="rgb(182,182,182)"/>
<path d="M4 10h2v2h-2v-2z" fill="rgb(27,27,27)"/>
<path d="M6 10h2v2h-2v-2z" fill="rgb(196,25,25)"/>
<path d="M8 10h2v2h-2v-2z" fill="rgb(82,82,82)"/>
<path d="M16 10h2v2h-2v-2z" fill="rgb(82,82,82)"/>
<path d="M18 10h2v2h-2v-2z" fill="rgb(196,25,25)"/>
<path d="M20 10h2v2h-2v-2z" fill="rgb(27,27,27)"/>
<path d="M22 10h2v4h-2v-4z" fill="rgb(182,182,182)"/>
<path d="M4 12h2v2h-2v-2z" fill="rgb(140,25,25)"/>
<path d="M6 12h2v2h-2v-2z" fill="rgb(228,104,104)"/>
<path d="M8 12h2v2h-2v-2z" fill="rgb(196,25,25)"/>
<path d="M10 12h2v2h-2v-2z" fill="rgb(107,107,107)"/>
<path d="M12 12h2v2h-2v-2z" fill="rgb(82,82,82)"/>
<path d="M14 12h2v2h-2v-2z" fill="rgb(107,107,107)"/>
<path d="M16 12h2v2h-2v-2z" fill="rgb(196,25,25)"/>
<path d="M18 12h2v2h-2v-2z" fill="rgb(228,104,104)"/>
<path d="M20 12h2v2h-2v-2z" fill="rgb(140,25,25)"/>
<path d="M2 14h2v2h-2v-2z" fill="rgb(82,82,82)"/>
<path d="M4 14h2v2h-2v-2z" fill="rgb(246,246,246)"/>
<path d="M6 14h2v2h-2v-2z" fill="rgb(140,25,25)"/>
<path d="M8 14h2v2h-2v-2z" fill="rgb(27,27,27)"/>
<path d="M10 14h2v4h-2v2h-2v-4h2v-2z" fill="rgb(182,182,182)"/>
<path d="M12 14h2v2h-2v-2z" fill="rgb(107,107,107)"/>
<path d="M14 14h2v2h2v4h-2v-2h-2v-4z" fill="rgb(182,182,182)"/>
<path d="M16 14h2v2h-2v-2z" fill="rgb(27,27,27)"/>
<path d="M18 14h2v2h-2v-2z" fill="rgb(140,25,25)"/>
<path d="M20 14h2v2h-2v-2z" fill="rgb(246,246,246)"/>
<path d="M22 14h2v2h-2v-2z" fill="rgb(82,82,82)"/>
<path d="M0 16h2v6h2v4h2v2h2v2h-8v-14z" fill="rgb(255,255,255)"/>
<path d="M2 16h2v2h2v2h-2v2h-2v-6z" fill="rgb(27,27,27)"/>
<path d="M4 16h2v2h-2v-2z" fill="rgb(224,224,224)"/>
<path d="M6 16h2v2h-2v-2z" fill="rgb(246,246,246)"/>
<path d="M12 16h2v2h2v2h-6v-2h2v-2z" fill="rgb(27,27,27)"/>
<path d="M18 16h2v2h-2v-2z" fill="rgb(246,246,246)"/>
<path d="M20 16h2v2h-2v-2z" fill="rgb(224,224,224)"/>
<path d="M22 16h2v6h-2v-2h-2v-2h2v-2z" fill="rgb(27,27,27)"/>
<path d="M24 16h2v14h-8v-2h2v-2h2v-4h2v-6z" fill="rgb(255,255,255)"/>
<path d="M6 18h2v2h-2v-2z" fill="rgb(82,82,82)"/>
<path d="M18 18h2v2h-2v-2z" fill="rgb(82,82,82)"/>
<path d="M4 20h2v2h-2v-2z" fill="rgb(107,107,107)"/>
<path d="M6 20h2v4h-2v2h-2v-4h2v-2z" fill="rgb(27,27,27)"/>
<path d="M8 20h2v2h-2v-2z" fill="rgb(107,107,107)"/>
<path d="M10 20h2v2h-2v-2z" fill="rgb(182,182,182)"/>
<path d="M12 20h2v2h-2v-2z" fill="rgb(224,224,224)"/>
<path d="M14 20h2v2h-2v-2z" fill="rgb(182,182,182)"/>
<path d="M16 20h2v2h-2v-2z" fill="rgb(107,107,107)"/>
<path d="M18 20h2v2h2v4h-2v-2h-2v-4z" fill="rgb(27,27,27)"/>
<path d="M20 20h2v2h-2v-2z" fill="rgb(107,107,107)"/>
<path d="M8 22h2v2h-2v-2z" fill="rgb(246,246,246)"/>
<path d="M10 22h2v2h-2v-2z" fill="rgb(27,27,27)"/>
<path d="M12 22h2v2h-2v-2z" fill="rgb(246,246,246)"/>
<path d="M14 22h2v2h-2v-2z" fill="rgb(27,27,27)"/>
<path d="M16 22h2v2h-2v-2z" fill="rgb(246,246,246)"/>
<path d="M6 24h2v2h-2v-2z" fill="rgb(107,107,107)"/>
<path d="M8 24h2v2h-2v-2z" fill="rgb(27,27,27)"/>
<path d="M10 24h2v2h-2v-2z" fill="rgb(246,246,246)"/>
<path d="M12 24h2v2h-2v-2z" fill="rgb(27,27,27)"/>
<path d="M14 24h2v2h-2v-2z" fill="rgb(246,246,246)"/>
<path d="M16 24h2v2h-2v-2z" fill="rgb(27,27,27)"/>
<path d="M18 24h2v2h-2v-2z" fill="rgb(107,107,107)"/>
<path d="M6 26h2v2h-2v-2z" fill="rgb(27,27,27)"/>
<path d="M8 26h2v2h-2v-2z" fill="rgb(107,107,107)"/>
<path d="M10 26h2v2h-2v-2z" fill="rgb(182,182,182)"/>
<path d="M12 26h2v2h-2v-2z" fill="rgb(224,224,224)"/>
<path d="M14 26h2v2h-2v-2z" fill="rgb(182,182,182)"/>
<path d="M16 26h2v2h-2v-2z" fill="rgb(107,107,107)"/>
<path d="M18 26h2v2h-2v-2z" fill="rgb(27,27,27)"/>
<path d="M8 28h10v2h-10v-2z" fill="rgb(27,27,27)"/>
</svg>