<?xml version="1.0" encoding="utf-8"?>
<!-- generated at drububu.com  -->
<!DOCTYPE svg PUBLIC "-//W3C//DTD SVG 1.1//EN" "http://www.w3.org/Graphics/SVG/1.1/DTD/svg11.dtd">
<svg version="1.1" preserveAspectRatio="xMinYMin meet" xmlns="http://www.w3.org/2000/svg" xmlns:xlink="http://www.w3.org/1999/xlink" x="0px" y="0px" width="30px" height="28px" viewBox="0 0 30 28">
<path d="M0 0h2v2h-2v-2z" fill="rgb(255,255,255)"/>
<path d="M2 0h2v2h-2v-2z" fill="rgb(57,30,14)"/>
<path d="M4 0h2v2h-2v-2z" fill="rgb(85,60,40)"/>
<path d="M6 0h2v2h-2v-2z" fill="rgb(57,30,14)"/>
<path d="M8 0h8v2h-8v-2z" fill="rgb(255,255,255)"/>
<path d="M16 0h4v2h-4v-2z" fill="rgb(57,30,14)"/>
<path d="M20 0h2v2h-2v-2z" fill="rgb(255,255,255)"/>
<path d="M22 0h2v2h-2v-2z" fill="rgb(57,30,14)"/>
<path d="M24 0h6v14h-6v-2h2v-2h2v-6h-2v-2h-2v-2z" fill="rgb(255,255,255)"/>
<path d="M0 2h2v2h-2v-2z" fill="rgb(57,30,14)"/>
<path d="M2 2h2v2h-2v-2z" fill="rgb(193,178,139)"/>
<path d="M4 2h2v2h-2v-2z" fill="rgb(121,84,57)"/>
<path d="M6 2h2v2h-2v-2z" fill="rgb(255,251,243)"/>
<path d="M8 2h6v2h-6v-2z" fill="rgb(57,30,14)"/>
<path d="M14 2h2v2h-2v-2z" fill="rgb(85,60,40)"/>
<path d="M16 2h4v2h-4v-2z" fill="rgb(193,178,139)"/>
<path d="M20 2h2v2h-2v-2z" fill="rgb(85,60,40)"/>
<path d="M22 2h2v2h-2v-2z" fill="rgb(193,178,139)"/>
<path d="M24 2h2v2h-2v-2z" fill="rgb(57,30,14)"/>
<path d="M0 4h2v2h2v4h-2v6h-2v-12z" fill="rgb(255,255,255)"/>
<path d="M2 4h2v2h-2v-2z" fill="rgb(57,30,14)"/>
<path d="M4 4h2v2h-2v-2z" fill="rgb(85,60,40)"/>
<path d="M6 4h2v4h-2v-4z" fill="rgb(57,30,14)"/>
<path d="M8 4h4v2h2v4h-2v-2h-2v-2h-2v-2z" fill="rgb(255,251,243)"/>
<path d="M12 4h2v2h-2v-2z" fill="rgb(193,178,139)"/>
<path d="M14 4h2v2h-2v-2z" fill="rgb(121,84,57)"/>
<path d="M16 4h4v4h-2v2h-2v-6z" fill="rgb(255,251,243)"/>
<path d="M20 4h2v2h-2v-2z" fill="rgb(121,84,57)"/>
<path d="M22 4h2v2h2v2h-2v2h-2v-6z" fill="rgb(255,251,243)"/>
<path d="M24 4h2v2h-2v-2z" fill="rgb(193,178,139)"/>
<path d="M26 4h2v6h-2v-6z" fill="rgb(57,30,14)"/>
<path d="M4 6h2v2h-2v-2z" fill="rgb(121,84,57)"/>
<path d="M8 6h2v2h-2v-2z" fill="rgb(193,178,139)"/>
<path d="M14 6h2v2h-2v-2z" fill="rgb(85,60,40)"/>
<path d="M20 6h2v2h-2v-2z" fill="rgb(85,60,40)"/>
<path d="M4 8h2v2h-2v-2z" fill="rgb(85,60,40)"/>
<path d="M6 8h2v2h-2v-2z" fill="rgb(255,255,255)"/>
<path d="M8 8h2v2h2v2h-8v2h-2v-4h6v-2z" fill="rgb(57,30,14)"/>
<path d="M10 8h2v2h-2v-2z" fill="rgb(193,178,139)"/>
<path d="M14 8h2v2h-2v-2z" fill="rgb(121,84,57)"/>
<path d="M18 8h2v2h-2v-2z" fill="rgb(193,178,139)"/>
<path d="M20 8h2v4h-2v-4z" fill="rgb(121,84,57)"/>
<path d="M24 8h2v2h-2v-2z" fill="rgb(193,178,139)"/>
<path d="M12 10h2v2h-2v-2z" fill="rgb(149,134,98)"/>
<path d="M14 10h2v6h-2v-6z" fill="rgb(85,60,40)"/>
<path d="M16 10h2v2h-2v-2z" fill="rgb(149,134,98)"/>
<path d="M18 10h2v2h-2v-2z" fill="rgb(57,30,14)"/>
<path d="M22 10h2v2h-2v-2z" fill="rgb(149,134,98)"/>
<path d="M24 10h2v2h-2v-2z" fill="rgb(57,30,14)"/>
<path d="M4 12h2v2h-2v-2z" fill="rgb(121,84,57)"/>
<path d="M6 12h2v2h-2v-2z" fill="rgb(152,107,74)"/>
<path d="M8 12h4v2h-4v-2z" fill="rgb(171,126,93)"/>
<path d="M12 12h2v4h8v2h-20v-2h10v-4z" fill="rgb(57,30,14)"/>
<path d="M16 12h2v2h-2v-2z" fill="rgb(57,30,14)"/>
<path d="M18 12h2v4h-4v-2h2v-2z" fill="rgb(255,255,255)"/>
<path d="M20 12h2v4h-2v-4z" fill="rgb(85,60,40)"/>
<path d="M22 12h2v2h-2v-2z" fill="rgb(57,30,14)"/>
<path d="M2 14h2v2h-2v-2z" fill="rgb(26,0,0)"/>
<path d="M4 14h4v2h-4v-2z" fill="rgb(85,60,40)"/>
<path d="M8 14h4v2h-4v-2z" fill="rgb(121,84,57)"/>
<path d="M22 14h2v2h-2v-2z" fill="rgb(255,255,255)"/>
<path d="M24 14h6v4h-2v-2h-4v-2z" fill="rgb(57,30,14)"/>
<path d="M0 16h2v8h-2v-8z" fill="rgb(26,0,0)"/>
<path d="M22 16h2v2h-2v-2z" fill="rgb(121,84,57)"/>
<path d="M24 16h4v2h-4v-2z" fill="rgb(171,126,93)"/>
<path d="M2 18h4v2h-4v-2z" fill="rgb(152,107,74)"/>
<path d="M6 18h4v2h-4v-2z" fill="rgb(171,126,93)"/>
<path d="M10 18h2v2h-2v-2z" fill="rgb(121,84,57)"/>
<path d="M12 18h4v2h-4v-2z" fill="rgb(152,107,74)"/>
<path d="M16 18h2v2h-2v-2z" fill="rgb(171,126,93)"/>
<path d="M18 18h2v2h-2v-2z" fill="rgb(121,84,57)"/>
<path d="M20 18h2v2h-2v-2z" fill="rgb(152,107,74)"/>
<path d="M22 18h2v2h-2v-2z" fill="rgb(171,126,93)"/>
<path d="M24 18h2v2h-2v-2z" fill="rgb(86,79,61)"/>
<path d="M26 18h2v6h-2v-6z" fill="rgb(57,30,14)"/>
<path d="M28 18h2v10h-6v-2h2v-2h2v-6z" fill="rgb(255,255,255)"/>
<path d="M2 20h2v4h-2v-4z" fill="rgb(85,60,40)"/>
<path d="M4 20h2v2h-2v-2z" fill="rgb(86,79,61)"/>
<path d="M6 20h2v4h-4v-2h2v-2z" fill="rgb(26,0,0)"/>
<path d="M8 20h2v2h-2v-2z" fill="rgb(85,60,40)"/>
<path d="M10 20h2v2h-2v-2z" fill="rgb(86,79,61)"/>
<path d="M12 20h2v4h-4v-2h2v-2z" fill="rgb(26,0,0)"/>
<path d="M14 20h2v2h-2v-2z" fill="rgb(85,60,40)"/>
<path d="M16 20h2v2h-2v-2z" fill="rgb(26,0,0)"/>
<path d="M18 20h2v2h-2v-2z" fill="rgb(85,60,40)"/>
<path d="M20 20h4v2h-4v-2z" fill="rgb(86,79,61)"/>
<path d="M24 20h2v2h-2v-2z" fill="rgb(193,178,139)"/>
<path d="M8 22h2v2h-2v-2z" fill="rgb(121,84,57)"/>
<path d="M14 22h2v2h-2v-2z" fill="rgb(121,84,57)"/>
<path d="M16 22h2v2h-2v-2z" fill="rgb(85,60,40)"/>
<path d="M18 22h2v2h-2v-2z" fill="rgb(86,79,61)"/>
<path d="M20 22h2v2h-2v-2z" fill="rgb(149,134,98)"/>
<path d="M22 22h2v2h-2v-2z" fill="rgb(193,178,139)"/>
<path d="M24 22h2v2h-2v-2z" fill="rgb(149,134,98)"/>
<path d="M0 24h2v2h2v2h-4v-4z" fill="rgb(255,255,255)"/>
<path d="M2 24h2v2h-2v-2z" fill="rgb(26,0,0)"/>
<path d="M4 24h12v2h-12v-2z" fill="rgb(85,60,40)"/>
<path d="M16 24h2v2h-2v-2z" fill="rgb(57,30,14)"/>
<path d="M18 24h2v2h-2v-2z" fill="rgb(149,134,98)"/>
<path d="M20 24h2v2h-2v-2z" fill="rgb(57,30,14)"/>
<path d="M22 24h2v2h-2v-2z" fill="rgb(149,134,98)"/>
<path d="M24 24h2v2h-2v-2z" fill="rgb(57,30,14)"/>
<path d="M4 26h12v2h-12v-2z" fill="rgb(26,0,0)"/>
<path d="M16 26h2v2h-2v-2z" fill="rgb(255,255,255)"/>
<path d="M18 26h2v2h-2v-2z" fill="rgb(57,30,14)"/>
<path d="M20 26h2v2h-2v-2z" fill="rgb(255,255,255)"/>
<path d="M22 26h2v2h-2v-2z" fill="rgb(57,30,14)"/>
</svg>