<?xml version="1.0" encoding="utf-8"?>
<!-- generated at drububu.com  -->
<!DOCTYPE svg PUBLIC "-//W3C//DTD SVG 1.1//EN" "http://www.w3.org/Graphics/SVG/1.1/DTD/svg11.dtd">
<svg version="1.1" preserveAspectRatio="xMinYMin meet" xmlns="http://www.w3.org/2000/svg" xmlns:xlink="http://www.w3.org/1999/xlink" x="0px" y="0px" width="26px" height="28px" viewBox="0 0 26 28">
<path d="M0 0h8v2h-4v2h-2v4h-2v-8z" fill="rgb(255,255,255)"/>
<path d="M8 0h4v2h-4v-2z" fill="rgb(46,46,46)"/>
<path d="M12 0h2v2h-2v-2z" fill="rgb(101,23,23)"/>
<path d="M14 0h2v2h-2v-2z" fill="rgb(46,46,46)"/>
<path d="M16 0h2v2h-2v-2z" fill="rgb(101,23,23)"/>
<path d="M18 0h8v8h-2v-4h-2v-2h-4v-2z" fill="rgb(255,255,255)"/>
<path d="M4 2h2v2h-2v-2z" fill="rgb(101,23,23)"/>
<path d="M6 2h2v2h-2v-2z" fill="rgb(46,46,46)"/>
<path d="M8 2h2v2h-2v-2z" fill="rgb(203,203,203)"/>
<path d="M10 2h2v2h-2v-2z" fill="rgb(229,229,229)"/>
<path d="M12 2h2v2h-2v-2z" fill="rgb(253,154,154)"/>
<path d="M14 2h2v2h-2v-2z" fill="rgb(203,203,203)"/>
<path d="M16 2h2v2h-2v-2z" fill="rgb(253,154,154)"/>
<path d="M18 2h2v2h-2v-2z" fill="rgb(101,23,23)"/>
<path d="M20 2h2v2h-2v-2z" fill="rgb(46,46,46)"/>
<path d="M2 4h2v2h-2v-2z" fill="rgb(101,23,23)"/>
<path d="M4 4h2v2h-2v-2z" fill="rgb(253,154,154)"/>
<path d="M6 4h6v2h-4v2h-2v4h-2v-6h2v-2z" fill="rgb(244,244,244)"/>
<path d="M12 4h4v2h-4v-2z" fill="rgb(229,229,229)"/>
<path d="M16 4h4v2h-4v-2z" fill="rgb(203,203,203)"/>
<path d="M20 4h2v2h-2v-2z" fill="rgb(119,119,119)"/>
<path d="M22 4h2v4h-2v-4z" fill="rgb(46,46,46)"/>
<path d="M2 6h2v2h-2v-2z" fill="rgb(46,46,46)"/>
<path d="M8 6h2v2h-2v-2z" fill="rgb(117,119,203)"/>
<path d="M10 6h4v2h-4v-2z" fill="rgb(65,68,204)"/>
<path d="M14 6h2v2h-2v-2z" fill="rgb(41,44,170)"/>
<path d="M16 6h2v2h-2v-2z" fill="rgb(117,119,203)"/>
<path d="M18 6h2v2h-2v-2z" fill="rgb(244,244,244)"/>
<path d="M20 6h2v2h-2v-2z" fill="rgb(203,203,203)"/>
<path d="M0 8h2v6h-2v-6z" fill="rgb(46,46,46)"/>
<path d="M2 8h2v2h-2v-2z" fill="rgb(119,119,119)"/>
<path d="M6 8h2v2h-2v-2z" fill="rgb(117,119,203)"/>
<path d="M8 8h2v2h-2v-2z" fill="rgb(65,68,204)"/>
<path d="M10 8h4v2h-4v-2z" fill="rgb(109,127,26)"/>
<path d="M14 8h2v2h-2v-2z" fill="rgb(90,104,19)"/>
<path d="M16 8h2v2h-2v-2z" fill="rgb(41,44,170)"/>
<path d="M18 8h2v2h-2v-2z" fill="rgb(117,119,203)"/>
<path d="M20 8h2v4h-2v-4z" fill="rgb(244,244,244)"/>
<path d="M22 8h2v2h-2v-2z" fill="rgb(119,119,119)"/>
<path d="M24 8h2v4h-2v-4z" fill="rgb(46,46,46)"/>
<path d="M2 10h2v4h-2v-4z" fill="rgb(161,162,161)"/>
<path d="M6 10h2v6h-2v-6z" fill="rgb(65,68,204)"/>
<path d="M8 10h2v2h-2v-2z" fill="rgb(139,153,71)"/>
<path d="M10 10h2v2h-2v-2z" fill="rgb(46,46,46)"/>
<path d="M12 10h2v2h2v2h-2v2h-2v-2h-2v-2h2v-2z" fill="rgb(12,12,12)"/>
<path d="M14 10h2v2h-2v-2z" fill="rgb(46,46,46)"/>
<path d="M16 10h2v2h-2v-2z" fill="rgb(90,104,19)"/>
<path d="M18 10h2v6h-2v-6z" fill="rgb(41,44,170)"/>
<path d="M22 10h2v4h-2v-4z" fill="rgb(161,162,161)"/>
<path d="M4 12h2v4h-2v-4z" fill="rgb(229,229,229)"/>
<path d="M8 12h2v2h-2v-2z" fill="rgb(109,127,26)"/>
<path d="M16 12h2v2h-2v-2z" fill="rgb(109,127,26)"/>
<path d="M20 12h2v6h-2v-6z" fill="rgb(203,203,203)"/>
<path d="M24 12h2v6h-2v-6z" fill="rgb(101,23,23)"/>
<path d="M0 14h2v4h-2v-4z" fill="rgb(101,23,23)"/>
<path d="M2 14h2v2h-2v-2z" fill="rgb(253,154,154)"/>
<path d="M8 14h2v2h-2v-2z" fill="rgb(90,104,19)"/>
<path d="M10 14h2v2h-2v-2z" fill="rgb(46,46,46)"/>
<path d="M14 14h2v2h-2v-2z" fill="rgb(46,46,46)"/>
<path d="M16 14h2v2h-2v-2z" fill="rgb(90,104,19)"/>
<path d="M22 14h2v2h-2v-2z" fill="rgb(236,95,95)"/>
<path d="M2 16h2v2h-2v-2z" fill="rgb(221,22,22)"/>
<path d="M4 16h2v2h-2v-2z" fill="rgb(203,203,203)"/>
<path d="M6 16h2v2h-2v-2z" fill="rgb(117,119,203)"/>
<path d="M8 16h2v2h-2v-2z" fill="rgb(65,68,204)"/>
<path d="M10 16h2v2h-2v-2z" fill="rgb(90,104,19)"/>
<path d="M12 16h2v2h-2v-2z" fill="rgb(109,127,26)"/>
<path d="M14 16h2v2h-2v-2z" fill="rgb(90,104,19)"/>
<path d="M16 16h2v2h-2v-2z" fill="rgb(41,44,170)"/>
<path d="M18 16h2v2h-2v-2z" fill="rgb(117,119,203)"/>
<path d="M22 16h2v2h-2v-2z" fill="rgb(221,22,22)"/>
<path d="M0 18h2v4h2v2h4v2h2v2h-10v-10z" fill="rgb(255,255,255)"/>
<path d="M2 18h2v4h-2v-4z" fill="rgb(101,23,23)"/>
<path d="M4 18h2v2h-2v-2z" fill="rgb(236,95,95)"/>
<path d="M6 18h2v2h-2v-2z" fill="rgb(203,203,203)"/>
<path d="M8 18h2v2h-2v-2z" fill="rgb(117,119,203)"/>
<path d="M10 18h4v2h-4v-2z" fill="rgb(65,68,204)"/>
<path d="M14 18h2v2h-2v-2z" fill="rgb(41,44,170)"/>
<path d="M16 18h2v2h-2v-2z" fill="rgb(117,119,203)"/>
<path d="M18 18h2v2h-2v-2z" fill="rgb(203,203,203)"/>
<path d="M20 18h2v2h-2v-2z" fill="rgb(236,95,95)"/>
<path d="M22 18h2v4h-2v-4z" fill="rgb(101,23,23)"/>
<path d="M24 18h2v10h-10v-2h2v-2h4v-2h2v-4z" fill="rgb(255,255,255)"/>
<path d="M4 20h2v2h-2v-2z" fill="rgb(221,22,22)"/>
<path d="M6 20h2v2h-2v-2z" fill="rgb(253,154,154)"/>
<path d="M8 20h2v2h-2v-2z" fill="rgb(203,203,203)"/>
<path d="M10 20h2v2h-2v-2z" fill="rgb(253,154,154)"/>
<path d="M12 20h2v2h-2v-2z" fill="rgb(203,203,203)"/>
<path d="M14 20h2v2h-2v-2z" fill="rgb(253,154,154)"/>
<path d="M16 20h2v2h-2v-2z" fill="rgb(203,203,203)"/>
<path d="M18 20h2v2h-2v-2z" fill="rgb(253,154,154)"/>
<path d="M20 20h2v2h-2v-2z" fill="rgb(221,22,22)"/>
<path d="M4 22h4v2h-4v-2z" fill="rgb(101,23,23)"/>
<path d="M8 22h4v2h-4v-2z" fill="rgb(236,95,95)"/>
<path d="M12 22h2v2h-2v-2z" fill="rgb(221,22,22)"/>
<path d="M14 22h2v2h-2v-2z" fill="rgb(236,95,95)"/>
<path d="M16 22h2v2h-2v-2z" fill="rgb(221,22,22)"/>
<path d="M18 22h4v2h-4v-2z" fill="rgb(101,23,23)"/>
<path d="M8 24h6v2h-2v2h-2v-2h-2v-2z" fill="rgb(101,23,23)"/>
<path d="M14 24h2v2h-2v-2z" fill="rgb(221,22,22)"/>
<path d="M16 24h2v2h-2v-2z" fill="rgb(101,23,23)"/>
<path d="M12 26h2v2h-2v-2z" fill="rgb(255,255,255)"/>
<path d="M14 26h2v2h-2v-2z" fill="rgb(101,23,23)"/>
</svg>