<?xml version="1.0" encoding="utf-8"?>
<!-- generated at drububu.com  -->
<!DOCTYPE svg PUBLIC "-//W3C//DTD SVG 1.1//EN" "http://www.w3.org/Graphics/SVG/1.1/DTD/svg11.dtd">
<svg version="1.1" preserveAspectRatio="xMinYMin meet" xmlns="http://www.w3.org/2000/svg" xmlns:xlink="http://www.w3.org/1999/xlink" x="0px" y="0px" width="30px" height="30px" viewBox="0 0 30 30">
<path d="M0 0h14v2h-2v2h-4v-2h-4v10h-2v4h-2v-16z" fill="rgb(255,255,255)"/>
<path d="M14 0h2v2h-2v-2z" fill="rgb(58,44,0)"/>
<path d="M16 0h14v16h-2v-4h-2v-10h-4v2h-4v-2h-2v-2z" fill="rgb(255,255,255)"/>
<path d="M4 2h4v2h-2v4h-2v-6z" fill="rgb(58,44,0)"/>
<path d="M12 2h2v2h-2v-2z" fill="rgb(58,44,0)"/>
<path d="M14 2h2v2h-2v-2z" fill="rgb(255,227,118)"/>
<path d="M16 2h2v2h-2v-2z" fill="rgb(58,44,0)"/>
<path d="M22 2h4v6h-2v-4h-2v-2z" fill="rgb(58,44,0)"/>
<path d="M6 4h2v2h-2v-2z" fill="rgb(229,197,73)"/>
<path d="M8 4h2v2h-2v-2z" fill="rgb(58,44,0)"/>
<path d="M10 4h2v2h-2v-2z" fill="rgb(107,84,0)"/>
<path d="M12 4h2v2h-2v-2z" fill="rgb(255,227,118)"/>
<path d="M14 4h2v2h-2v-2z" fill="rgb(119,22,52)"/>
<path d="M16 4h2v2h-2v-2z" fill="rgb(229,197,73)"/>
<path d="M18 4h2v2h-2v-2z" fill="rgb(107,84,0)"/>
<path d="M20 4h2v2h-2v-2z" fill="rgb(58,44,0)"/>
<path d="M22 4h2v2h-2v-2z" fill="rgb(229,197,73)"/>
<path d="M6 6h2v2h-2v-2z" fill="rgb(166,131,0)"/>
<path d="M8 6h2v2h-2v-2z" fill="rgb(39,94,167)"/>
<path d="M10 6h2v2h-2v-2z" fill="rgb(255,227,118)"/>
<path d="M12 6h2v2h-2v-2z" fill="rgb(119,22,52)"/>
<path d="M14 6h2v2h-2v-2z" fill="rgb(168,37,46)"/>
<path d="M16 6h2v2h-2v-2z" fill="rgb(119,22,52)"/>
<path d="M18 6h2v4h-2v-4z" fill="rgb(229,197,73)"/>
<path d="M20 6h2v2h-2v-2z" fill="rgb(39,94,167)"/>
<path d="M22 6h2v2h-2v-2z" fill="rgb(166,131,0)"/>
<path d="M4 8h2v4h-2v-4z" fill="rgb(26,40,66)"/>
<path d="M6 8h2v2h-2v-2z" fill="rgb(58,44,0)"/>
<path d="M8 8h2v2h-2v-2z" fill="rgb(166,131,0)"/>
<path d="M10 8h2v2h-2v-2z" fill="rgb(229,197,73)"/>
<path d="M12 8h2v2h-2v-2z" fill="rgb(166,131,0)"/>
<path d="M14 8h2v2h-2v-2z" fill="rgb(77,10,35)"/>
<path d="M16 8h2v2h-2v-2z" fill="rgb(166,131,0)"/>
<path d="M20 8h2v2h-2v-2z" fill="rgb(166,131,0)"/>
<path d="M22 8h2v2h-2v-2z" fill="rgb(58,44,0)"/>
<path d="M24 8h2v4h-2v-4z" fill="rgb(26,40,66)"/>
<path d="M6 10h2v2h-2v-2z" fill="rgb(39,94,167)"/>
<path d="M8 10h14v2h-14v-2z" fill="rgb(58,44,0)"/>
<path d="M22 10h2v2h-2v-2z" fill="rgb(61,107,203)"/>
<path d="M2 12h2v4h-2v-4z" fill="rgb(26,40,66)"/>
<path d="M4 12h2v4h-2v-4z" fill="rgb(39,94,167)"/>
<path d="M6 12h4v2h-2v2h-2v-4z" fill="rgb(61,107,203)"/>
<path d="M10 12h4v2h-2v2h-2v4h2v2h2v2h8v-2h2v-2h2v-4h2v6h-2v2h-2v2h-14v-2h-2v-2
	h-2v-6h2v-2h2v-2z" fill="rgb(77,137,255)"/>
<path d="M14 12h8v2h-4v2h-2v2h2v2h4v-2h2v-2h2v4h-2v2h-2v2h-8v-2h-2v-2h-2v-4h2
	v-2h2v-2z" fill="rgb(90,155,255)"/>
<path d="M22 12h2v2h-2v-2z" fill="rgb(77,137,255)"/>
<path d="M24 12h2v2h-2v-2z" fill="rgb(61,107,203)"/>
<path d="M26 12h2v4h-2v-4z" fill="rgb(26,40,66)"/>
<path d="M18 14h4v2h2v2h-2v2h-4v-2h-2v-2h2v-2z" fill="rgb(124,192,255)"/>
<path d="M22 14h2v2h-2v-2z" fill="rgb(90,155,255)"/>
<path d="M24 14h2v2h-2v-2z" fill="rgb(77,137,255)"/>
<path d="M0 16h2v10h-2v-10z" fill="rgb(26,40,66)"/>
<path d="M2 16h2v2h-2v-2z" fill="rgb(39,94,167)"/>
<path d="M4 16h2v6h2v2h2v2h14v2h-16v-2h-2v-2h-2v-2h-2v-4h2v-2z" fill="rgb(61,107,203)"/>
<path d="M28 16h2v10h-2v-10z" fill="rgb(26,40,66)"/>
<path d="M2 22h2v2h2v2h2v2h-4v-2h-2v-4z" fill="rgb(39,94,167)"/>
<path d="M26 22h2v2h-2v-2z" fill="rgb(61,107,203)"/>
<path d="M24 24h2v2h-2v-2z" fill="rgb(61,107,203)"/>
<path d="M26 24h2v2h-2v-2z" fill="rgb(39,94,167)"/>
<path d="M0 26h2v2h2v2h-4v-4z" fill="rgb(255,255,255)"/>
<path d="M2 26h2v2h-2v-2z" fill="rgb(26,40,66)"/>
<path d="M24 26h2v2h-2v-2z" fill="rgb(39,94,167)"/>
<path d="M26 26h2v2h-2v-2z" fill="rgb(26,40,66)"/>
<path d="M28 26h2v4h-4v-2h2v-2z" fill="rgb(255,255,255)"/>
<path d="M4 28h22v2h-22v-2z" fill="rgb(26,40,66)"/>
</svg>