<?xml version="1.0" encoding="utf-8"?>
<!-- generated at drububu.com  -->
<!DOCTYPE svg PUBLIC "-//W3C//DTD SVG 1.1//EN" "http://www.w3.org/Graphics/SVG/1.1/DTD/svg11.dtd">
<svg version="1.1" preserveAspectRatio="xMinYMin meet" xmlns="http://www.w3.org/2000/svg" xmlns:xlink="http://www.w3.org/1999/xlink" x="0px" y="0px" width="24px" height="30px" viewBox="0 0 24 30">
<path d="M0 0h6v2h-2v2h-2v2h-2v-6z" fill="rgb(255,255,255)"/>
<path d="M6 0h4v2h-4v-2z" fill="rgb(46,46,46)"/>
<path d="M10 0h4v2h-4v-2z" fill="rgb(27,27,27)"/>
<path d="M14 0h4v2h-4v-2z" fill="rgb(46,46,46)"/>
<path d="M18 0h6v6h-2v-2h-2v-2h-2v-2z" fill="rgb(255,255,255)"/>
<path d="M4 2h2v2h-2v-2z" fill="rgb(46,46,46)"/>
<path d="M6 2h4v2h-4v-2z" fill="rgb(164,165,164)"/>
<path d="M10 2h4v2h-4v-2z" fill="rgb(49,49,49)"/>
<path d="M14 2h4v2h-4v-2z" fill="rgb(164,165,164)"/>
<path d="M18 2h2v2h-2v-2z" fill="rgb(46,46,46)"/>
<path d="M2 4h2v2h-2v-2z" fill="rgb(46,46,46)"/>
<path d="M4 4h2v2h-2v-2z" fill="rgb(236,236,236)"/>
<path d="M6 4h2v2h-2v-2z" fill="rgb(124,124,124)"/>
<path d="M8 4h2v2h-2v-2z" fill="rgb(49,49,49)"/>
<path d="M10 4h2v2h-2v-2z" fill="rgb(236,236,236)"/>
<path d="M12 4h2v2h-2v-2z" fill="rgb(164,165,164)"/>
<path d="M14 4h2v2h-2v-2z" fill="rgb(49,49,49)"/>
<path d="M16 4h2v2h-2v-2z" fill="rgb(124,124,124)"/>
<path d="M18 4h2v2h-2v-2z" fill="rgb(236,236,236)"/>
<path d="M20 4h2v2h-2v-2z" fill="rgb(46,46,46)"/>
<path d="M0 6h2v2h2v2h-2v4h-2v-8z" fill="rgb(27,27,27)"/>
<path d="M2 6h2v2h-2v-2z" fill="rgb(91,91,91)"/>
<path d="M4 6h4v2h-4v-2z" fill="rgb(164,165,164)"/>
<path d="M8 6h2v2h-2v-2z" fill="rgb(27,27,27)"/>
<path d="M10 6h4v2h-4v-2z" fill="rgb(49,49,49)"/>
<path d="M14 6h2v2h-2v-2z" fill="rgb(27,27,27)"/>
<path d="M16 6h2v2h-2v-2z" fill="rgb(164,165,164)"/>
<path d="M18 6h2v2h-2v-2z" fill="rgb(124,124,124)"/>
<path d="M20 6h2v2h-2v-2z" fill="rgb(91,91,91)"/>
<path d="M22 6h2v8h-2v-8z" fill="rgb(27,27,27)"/>
<path d="M4 8h2v2h-2v-2z" fill="rgb(91,91,91)"/>
<path d="M6 8h2v6h-2v-6z" fill="rgb(27,27,27)"/>
<path d="M8 8h2v2h-2v-2z" fill="rgb(164,165,164)"/>
<path d="M10 8h2v4h-4v-2h2v-2z" fill="rgb(236,236,236)"/>
<path d="M12 8h2v4h-2v-4z" fill="rgb(164,165,164)"/>
<path d="M14 8h2v4h-2v-4z" fill="rgb(124,124,124)"/>
<path d="M16 8h2v6h-2v-6z" fill="rgb(27,27,27)"/>
<path d="M18 8h2v2h-2v-2z" fill="rgb(91,91,91)"/>
<path d="M20 8h2v2h-2v-2z" fill="rgb(49,49,49)"/>
<path d="M2 10h2v2h-2v-2z" fill="rgb(164,165,164)"/>
<path d="M4 10h2v2h-2v-2z" fill="rgb(49,49,49)"/>
<path d="M18 10h2v2h-2v-2z" fill="rgb(49,49,49)"/>
<path d="M20 10h2v2h-2v-2z" fill="rgb(124,124,124)"/>
<path d="M2 12h4v2h-4v-2z" fill="rgb(91,91,91)"/>
<path d="M8 12h2v2h-2v-2z" fill="rgb(91,91,91)"/>
<path d="M10 12h4v2h-4v-2z" fill="rgb(224,48,48)"/>
<path d="M14 12h2v2h-2v-2z" fill="rgb(91,91,91)"/>
<path d="M18 12h4v2h-4v-2z" fill="rgb(91,91,91)"/>
<path d="M0 14h2v2h-2v-2z" fill="rgb(255,255,255)"/>
<path d="M2 14h2v2h-2v-2z" fill="rgb(27,27,27)"/>
<path d="M4 14h2v2h-2v-2z" fill="rgb(124,124,124)"/>
<path d="M6 14h2v2h-2v-2z" fill="rgb(65,43,45)"/>
<path d="M8 14h2v2h-2v-2z" fill="rgb(224,48,48)"/>
<path d="M10 14h4v4h-2v-2h-2v-2z" fill="rgb(245,123,123)"/>
<path d="M14 14h2v2h-2v-2z" fill="rgb(224,48,48)"/>
<path d="M16 14h2v2h-2v-2z" fill="rgb(65,43,45)"/>
<path d="M18 14h2v2h-2v-2z" fill="rgb(124,124,124)"/>
<path d="M20 14h2v2h-2v-2z" fill="rgb(27,27,27)"/>
<path d="M22 14h2v2h-2v-2z" fill="rgb(255,255,255)"/>
<path d="M0 16h2v12h-2v-12z" fill="rgb(27,27,27)"/>
<path d="M2 16h2v2h-2v-2z" fill="rgb(164,165,164)"/>
<path d="M4 16h2v2h-2v-2z" fill="rgb(91,91,91)"/>
<path d="M6 16h2v2h-2v-2z" fill="rgb(164,165,164)"/>
<path d="M8 16h2v2h-2v-2z" fill="rgb(65,43,45)"/>
<path d="M10 16h2v2h-2v-2z" fill="rgb(239,240,239)"/>
<path d="M14 16h2v2h-2v-2z" fill="rgb(65,43,45)"/>
<path d="M16 16h2v2h-2v-2z" fill="rgb(164,165,164)"/>
<path d="M18 16h2v2h-2v-2z" fill="rgb(91,91,91)"/>
<path d="M20 16h2v2h-2v-2z" fill="rgb(164,165,164)"/>
<path d="M22 16h2v12h-2v-12z" fill="rgb(27,27,27)"/>
<path d="M2 18h2v2h-2v-2z" fill="rgb(91,91,91)"/>
<path d="M4 18h2v2h-2v-2z" fill="rgb(164,165,164)"/>
<path d="M6 18h2v6h-2v4h-2v-8h2v-2z" fill="rgb(27,27,27)"/>
<path d="M8 18h8v2h-8v-2z" fill="rgb(164,165,164)"/>
<path d="M16 18h2v2h2v8h-2v-4h-2v-6z" fill="rgb(27,27,27)"/>
<path d="M18 18h2v2h-2v-2z" fill="rgb(164,165,164)"/>
<path d="M20 18h2v2h-2v-2z" fill="rgb(91,91,91)"/>
<path d="M2 20h2v2h-2v-2z" fill="rgb(124,124,124)"/>
<path d="M8 20h2v4h-2v-4z" fill="rgb(236,236,236)"/>
<path d="M10 20h4v2h-4v-2z" fill="rgb(91,91,91)"/>
<path d="M14 20h2v4h-2v-4z" fill="rgb(236,236,236)"/>
<path d="M20 20h2v2h-2v-2z" fill="rgb(124,124,124)"/>
<path d="M2 22h2v2h-2v-2z" fill="rgb(164,165,164)"/>
<path d="M10 22h4v2h-4v-2z" fill="rgb(27,27,27)"/>
<path d="M20 22h2v2h-2v-2z" fill="rgb(164,165,164)"/>
<path d="M2 24h2v4h-2v-4z" fill="rgb(236,236,236)"/>
<path d="M6 24h2v2h2v-2h4v2h2v-2h2v4h2v2h-16v-2h2v-4z" fill="rgb(255,255,255)"/>
<path d="M8 24h2v2h-2v-2z" fill="rgb(27,27,27)"/>
<path d="M14 24h2v2h-2v-2z" fill="rgb(27,27,27)"/>
<path d="M20 24h2v4h-2v-4z" fill="rgb(236,236,236)"/>
<path d="M0 28h2v2h-2v-2z" fill="rgb(255,255,255)"/>
<path d="M2 28h2v2h-2v-2z" fill="rgb(27,27,27)"/>
<path d="M20 28h2v2h-2v-2z" fill="rgb(27,27,27)"/>
<path d="M22 28h2v2h-2v-2z" fill="rgb(255,255,255)"/>
</svg>