<?xml version="1.0" encoding="utf-8"?>
<!-- generated at drububu.com  -->
<!DOCTYPE svg PUBLIC "-//W3C//DTD SVG 1.1//EN" "http://www.w3.org/Graphics/SVG/1.1/DTD/svg11.dtd">
<svg version="1.1" preserveAspectRatio="xMinYMin meet" xmlns="http://www.w3.org/2000/svg" xmlns:xlink="http://www.w3.org/1999/xlink" x="0px" y="0px" width="32px" height="32px" viewBox="0 0 32 32">
<path d="M0 0h6v2h-2v2h-2v2h2v2h-2v4h-2v-12z" fill="rgb(255,255,255)"/>
<path d="M6 0h2v2h-2v-2z" fill="rgb(117,54,132)"/>
<path d="M8 0h4v2h-4v-2z" fill="rgb(255,255,255)"/>
<path d="M12 0h8v2h-8v-2z" fill="rgb(117,54,132)"/>
<path d="M20 0h4v2h-4v-2z" fill="rgb(255,255,255)"/>
<path d="M24 0h2v2h-2v-2z" fill="rgb(117,54,132)"/>
<path d="M26 0h6v12h-2v-4h-2v-2h2v-2h-2v-2h-2v-2z" fill="rgb(255,255,255)"/>
<path d="M4 2h2v2h-2v-2z" fill="rgb(117,54,132)"/>
<path d="M6 2h2v2h-2v-2z" fill="rgb(164,151,200)"/>
<path d="M8 2h4v2h-4v-2z" fill="rgb(117,54,132)"/>
<path d="M12 2h2v2h-2v-2z" fill="rgb(166,181,229)"/>
<path d="M14 2h4v2h-4v-2z" fill="rgb(175,229,248)"/>
<path d="M18 2h2v2h-2v-2z" fill="rgb(166,181,229)"/>
<path d="M20 2h4v2h-4v-2z" fill="rgb(117,54,132)"/>
<path d="M24 2h2v2h-2v-2z" fill="rgb(126,91,164)"/>
<path d="M26 2h2v2h-2v-2z" fill="rgb(92,52,139)"/>
<path d="M2 4h2v2h-2v-2z" fill="rgb(117,54,132)"/>
<path d="M4 4h2v2h-2v-2z" fill="rgb(149,118,183)"/>
<path d="M6 4h2v2h-2v-2z" fill="rgb(175,229,248)"/>
<path d="M8 4h2v2h-2v-2z" fill="rgb(164,151,200)"/>
<path d="M10 4h2v2h-2v-2z" fill="rgb(149,118,183)"/>
<path d="M12 4h2v2h-2v-2z" fill="rgb(164,151,200)"/>
<path d="M14 4h4v2h-4v-2z" fill="rgb(70,70,70)"/>
<path d="M18 4h2v2h-2v-2z" fill="rgb(164,151,200)"/>
<path d="M20 4h4v2h-4v-2z" fill="rgb(149,118,183)"/>
<path d="M24 4h2v2h-2v-2z" fill="rgb(164,151,200)"/>
<path d="M26 4h2v2h-2v-2z" fill="rgb(149,118,183)"/>
<path d="M28 4h2v2h-2v-2z" fill="rgb(64,18,75)"/>
<path d="M4 6h2v2h-2v-2z" fill="rgb(117,54,132)"/>
<path d="M6 6h2v2h-2v-2z" fill="rgb(126,91,164)"/>
<path d="M8 6h2v2h-2v-2z" fill="rgb(175,229,248)"/>
<path d="M10 6h2v2h-2v-2z" fill="rgb(166,181,229)"/>
<path d="M12 6h2v2h-2v-2z" fill="rgb(70,70,70)"/>
<path d="M14 6h2v2h-2v-2z" fill="rgb(184,184,184)"/>
<path d="M16 6h2v2h-2v-2z" fill="rgb(134,134,134)"/>
<path d="M18 6h2v4h-2v-4z" fill="rgb(37,27,54)"/>
<path d="M20 6h2v2h-2v-2z" fill="rgb(166,181,229)"/>
<path d="M22 6h2v2h-2v-2z" fill="rgb(175,229,248)"/>
<path d="M24 6h2v2h-2v-2z" fill="rgb(126,91,164)"/>
<path d="M26 6h2v2h-2v-2z" fill="rgb(64,18,75)"/>
<path d="M2 8h4v2h-2v2h-2v-4z" fill="rgb(70,70,70)"/>
<path d="M6 8h2v2h-2v-2z" fill="rgb(46,46,46)"/>
<path d="M8 8h2v2h-2v-2z" fill="rgb(92,52,139)"/>
<path d="M10 8h2v2h-2v-2z" fill="rgb(175,229,248)"/>
<path d="M12 8h2v2h-2v-2z" fill="rgb(134,134,134)"/>
<path d="M14 8h2v2h-2v-2z" fill="rgb(247,245,113)"/>
<path d="M16 8h2v2h-2v-2z" fill="rgb(247,190,89)"/>
<path d="M20 8h2v2h-2v-2z" fill="rgb(175,229,248)"/>
<path d="M22 8h2v2h-2v-2z" fill="rgb(92,52,139)"/>
<path d="M24 8h6v4h-2v-2h-4v-2z" fill="rgb(37,27,54)"/>
<path d="M4 10h2v2h-2v-2z" fill="rgb(184,184,184)"/>
<path d="M6 10h2v2h-2v-2z" fill="rgb(134,134,134)"/>
<path d="M8 10h2v2h-2v-2z" fill="rgb(70,70,70)"/>
<path d="M10 10h2v2h-2v-2z" fill="rgb(37,27,54)"/>
<path d="M12 10h2v6h-2v-6z" fill="rgb(247,245,113)"/>
<path d="M14 10h2v2h-2v-2z" fill="rgb(164,90,182)"/>
<path d="M16 10h2v2h-2v-2z" fill="rgb(104,35,102)"/>
<path d="M18 10h2v2h-2v-2z" fill="rgb(220,143,79)"/>
<path d="M20 10h4v2h-4v-2z" fill="rgb(37,27,54)"/>
<path d="M24 10h2v2h-2v-2z" fill="rgb(134,134,134)"/>
<path d="M26 10h2v2h-2v-2z" fill="rgb(184,184,184)"/>
<path d="M0 12h2v2h-2v-2z" fill="rgb(117,54,132)"/>
<path d="M2 12h2v2h-2v-2z" fill="rgb(149,118,183)"/>
<path d="M4 12h2v4h-2v-4z" fill="rgb(46,46,46)"/>
<path d="M6 12h2v2h-2v-2z" fill="rgb(184,184,184)"/>
<path d="M8 12h2v2h-2v-2z" fill="rgb(134,134,134)"/>
<path d="M10 12h2v2h-2v-2z" fill="rgb(70,70,70)"/>
<path d="M14 12h2v2h-2v-2z" fill="rgb(239,131,245)"/>
<path d="M16 12h2v2h-2v-2z" fill="rgb(164,90,182)"/>
<path d="M18 12h2v4h-2v-4z" fill="rgb(247,190,89)"/>
<path d="M20 12h2v2h-2v-2z" fill="rgb(70,70,70)"/>
<path d="M22 12h2v2h-2v-2z" fill="rgb(46,46,46)"/>
<path d="M24 12h2v2h-2v-2z" fill="rgb(184,184,184)"/>
<path d="M26 12h2v2h-2v-2z" fill="rgb(46,46,46)"/>
<path d="M28 12h2v2h-2v-2z" fill="rgb(117,54,132)"/>
<path d="M30 12h2v2h-2v-2z" fill="rgb(64,18,75)"/>
<path d="M0 14h2v6h-2v-6z" fill="rgb(255,255,255)"/>
<path d="M2 14h2v2h-2v-2z" fill="rgb(117,54,132)"/>
<path d="M6 14h2v2h-2v-2z" fill="rgb(134,134,134)"/>
<path d="M8 14h2v2h-2v-2z" fill="rgb(184,184,184)"/>
<path d="M10 14h2v2h-2v-2z" fill="rgb(247,190,89)"/>
<path d="M14 14h2v2h-2v-2z" fill="rgb(164,90,182)"/>
<path d="M16 14h2v2h-2v-2z" fill="rgb(104,35,102)"/>
<path d="M20 14h2v2h-2v-2z" fill="rgb(220,143,79)"/>
<path d="M22 14h4v2h-4v-2z" fill="rgb(134,134,134)"/>
<path d="M26 14h2v2h2v4h-2v-2h-2v-4z" fill="rgb(37,27,54)"/>
<path d="M28 14h2v2h-2v-2z" fill="rgb(64,18,75)"/>
<path d="M30 14h2v6h-2v-6z" fill="rgb(255,255,255)"/>
<path d="M2 16h6v2h-6v-2z" fill="rgb(70,70,70)"/>
<path d="M8 16h4v2h-2v2h-2v-4z" fill="rgb(104,35,102)"/>
<path d="M12 16h2v2h-2v-2z" fill="rgb(247,190,89)"/>
<path d="M14 16h4v2h-4v-2z" fill="rgb(247,245,113)"/>
<path d="M18 16h2v2h-2v-2z" fill="rgb(220,143,79)"/>
<path d="M20 16h4v4h-2v-2h-2v-2z" fill="rgb(104,35,102)"/>
<path d="M24 16h2v2h-2v-2z" fill="rgb(46,46,46)"/>
<path d="M2 18h2v2h-2v-2z" fill="rgb(46,46,46)"/>
<path d="M4 18h2v2h-2v-2z" fill="rgb(134,134,134)"/>
<path d="M6 18h2v2h-2v-2z" fill="rgb(184,184,184)"/>
<path d="M10 18h2v2h-2v-2z" fill="rgb(255,112,247)"/>
<path d="M12 18h2v4h-4v-2h2v-2z" fill="rgb(104,35,102)"/>
<path d="M14 18h2v4h-2v-4z" fill="rgb(184,184,184)"/>
<path d="M16 18h2v2h-2v-2z" fill="rgb(134,134,134)"/>
<path d="M18 18h2v2h2v2h-4v-4z" fill="rgb(104,35,102)"/>
<path d="M20 18h2v2h-2v-2z" fill="rgb(255,112,247)"/>
<path d="M24 18h2v2h-2v-2z" fill="rgb(134,134,134)"/>
<path d="M26 18h2v2h-2v-2z" fill="rgb(70,70,70)"/>
<path d="M0 20h2v2h-2v-2z" fill="rgb(117,54,132)"/>
<path d="M2 20h2v2h-2v-2z" fill="rgb(126,91,164)"/>
<path d="M4 20h2v2h-2v-2z" fill="rgb(46,46,46)"/>
<path d="M6 20h2v2h-2v-2z" fill="rgb(134,134,134)"/>
<path d="M8 20h2v2h-2v-2z" fill="rgb(184,184,184)"/>
<path d="M16 20h2v2h-2v-2z" fill="rgb(70,70,70)"/>
<path d="M22 20h2v2h-2v-2z" fill="rgb(134,134,134)"/>
<path d="M24 20h2v2h-2v-2z" fill="rgb(70,70,70)"/>
<path d="M26 20h2v2h-2v-2z" fill="rgb(37,27,54)"/>
<path d="M28 20h2v2h-2v-2z" fill="rgb(126,91,164)"/>
<path d="M30 20h2v2h-2v-2z" fill="rgb(64,18,75)"/>
<path d="M0 22h2v2h6v2h2v2h2v2h2v2h-14v-10z" fill="rgb(255,255,255)"/>
<path d="M2 22h4v2h-4v-2z" fill="rgb(117,54,132)"/>
<path d="M6 22h2v2h-2v-2z" fill="rgb(37,27,54)"/>
<path d="M8 22h2v2h-2v-2z" fill="rgb(134,134,134)"/>
<path d="M10 22h4v2h-4v-2z" fill="rgb(184,184,184)"/>
<path d="M14 22h4v2h-4v-2z" fill="rgb(134,134,134)"/>
<path d="M18 22h6v2h-2v2h-2v-2h-2v-2z" fill="rgb(70,70,70)"/>
<path d="M24 22h2v2h-2v-2z" fill="rgb(37,27,54)"/>
<path d="M26 22h4v2h-4v-2z" fill="rgb(64,18,75)"/>
<path d="M30 22h2v10h-14v-2h2v-2h2v-2h2v-2h6v-2z" fill="rgb(255,255,255)"/>
<path d="M8 24h2v2h-2v-2z" fill="rgb(37,27,54)"/>
<path d="M10 24h2v2h-2v-2z" fill="rgb(134,134,134)"/>
<path d="M12 24h2v2h-2v-2z" fill="rgb(46,46,46)"/>
<path d="M14 24h4v2h-4v-2z" fill="rgb(184,184,184)"/>
<path d="M18 24h2v2h-2v-2z" fill="rgb(46,46,46)"/>
<path d="M22 24h2v2h-2v-2z" fill="rgb(37,27,54)"/>
<path d="M10 26h2v2h-2v-2z" fill="rgb(37,27,54)"/>
<path d="M12 26h2v2h-2v-2z" fill="rgb(70,70,70)"/>
<path d="M14 26h2v2h-2v-2z" fill="rgb(247,186,113)"/>
<path d="M16 26h2v2h-2v-2z" fill="rgb(220,143,79)"/>
<path d="M18 26h2v2h-2v-2z" fill="rgb(70,70,70)"/>
<path d="M20 26h2v2h-2v-2z" fill="rgb(37,27,54)"/>
<path d="M12 28h2v2h-2v-2z" fill="rgb(121,41,32)"/>
<path d="M14 28h2v2h-2v-2z" fill="rgb(255,240,165)"/>
<path d="M16 28h2v2h-2v-2z" fill="rgb(247,186,113)"/>
<path d="M18 28h2v2h-2v-2z" fill="rgb(121,41,32)"/>
<path d="M14 30h4v2h-4v-2z" fill="rgb(121,41,32)"/>
</svg>