<?xml version="1.0" encoding="utf-8"?>
<!-- generated at drububu.com  -->
<!DOCTYPE svg PUBLIC "-//W3C//DTD SVG 1.1//EN" "http://www.w3.org/Graphics/SVG/1.1/DTD/svg11.dtd">
<svg version="1.1" preserveAspectRatio="xMinYMin meet" xmlns="http://www.w3.org/2000/svg" xmlns:xlink="http://www.w3.org/1999/xlink" x="0px" y="0px" width="30px" height="30px" viewBox="0 0 30 30">
<path d="M0 0h2v2h-2v-2z" fill="rgb(255,255,255)"/>
<path d="M2 0h4v2h-4v-2z" fill="rgb(8,6,3)"/>
<path d="M6 0h4v2h-4v-2z" fill="rgb(255,255,255)"/>
<path d="M10 0h10v2h-10v-2z" fill="rgb(8,6,3)"/>
<path d="M20 0h10v2h-4v2h-2v-2h-4v-2z" fill="rgb(255,255,255)"/>
<path d="M0 2h2v2h-2v-2z" fill="rgb(8,6,3)"/>
<path d="M2 2h2v2h-2v-2z" fill="rgb(195,54,54)"/>
<path d="M4 2h2v2h-2v-2z" fill="rgb(168,24,24)"/>
<path d="M6 2h4v2h-4v-2z" fill="rgb(8,6,3)"/>
<path d="M10 2h2v2h-2v-2z" fill="rgb(74,30,48)"/>
<path d="M12 2h2v4h-2v2h-2v-4h2v-2z" fill="rgb(159,44,82)"/>
<path d="M14 2h2v2h-2v-2z" fill="rgb(202,115,146)"/>
<path d="M16 2h2v4h-4v-2h2v-2z" fill="rgb(185,77,114)"/>
<path d="M18 2h2v4h-2v-4z" fill="rgb(159,44,82)"/>
<path d="M20 2h4v2h-4v-2z" fill="rgb(8,6,3)"/>
<path d="M26 2h4v4h-2v-2h-2v-2z" fill="rgb(8,6,3)"/>
<path d="M0 4h2v6h-2v-6z" fill="rgb(255,255,255)"/>
<path d="M2 4h4v2h-2v4h-2v-6z" fill="rgb(8,6,3)"/>
<path d="M6 4h4v2h-2v2h-2v-4z" fill="rgb(202,115,146)"/>
<path d="M20 4h2v2h-2v-2z" fill="rgb(74,30,48)"/>
<path d="M22 4h2v2h-2v-2z" fill="rgb(159,44,82)"/>
<path d="M24 4h2v2h-2v-2z" fill="rgb(8,6,3)"/>
<path d="M26 4h2v2h-2v-2z" fill="rgb(168,24,24)"/>
<path d="M4 6h2v2h-2v-2z" fill="rgb(159,44,82)"/>
<path d="M8 6h2v2h-2v-2z" fill="rgb(185,77,114)"/>
<path d="M12 6h2v2h-2v-2z" fill="rgb(74,30,48)"/>
<path d="M14 6h4v2h-4v-2z" fill="rgb(159,44,82)"/>
<path d="M18 6h2v2h-2v-2z" fill="rgb(74,30,48)"/>
<path d="M20 6h2v2h-2v-2z" fill="rgb(159,44,82)"/>
<path d="M22 6h2v2h-2v-2z" fill="rgb(185,77,114)"/>
<path d="M24 6h2v2h-2v-2z" fill="rgb(159,44,82)"/>
<path d="M26 6h2v4h-2v-4z" fill="rgb(8,6,3)"/>
<path d="M28 6h2v4h-2v-4z" fill="rgb(255,255,255)"/>
<path d="M4 8h2v2h-2v-2z" fill="rgb(74,30,48)"/>
<path d="M6 8h4v2h-4v-2z" fill="rgb(159,44,82)"/>
<path d="M10 8h2v2h-2v-2z" fill="rgb(119,34,36)"/>
<path d="M12 8h2v2h-2v-2z" fill="rgb(56,42,22)"/>
<path d="M14 8h2v2h-2v-2z" fill="rgb(119,34,36)"/>
<path d="M16 8h2v2h-2v-2z" fill="rgb(56,42,22)"/>
<path d="M18 8h2v2h-2v-2z" fill="rgb(119,34,36)"/>
<path d="M20 8h2v2h-2v-2z" fill="rgb(103,41,65)"/>
<path d="M22 8h2v2h-2v-2z" fill="rgb(159,44,82)"/>
<path d="M24 8h2v2h2v2h-6v-2h2v-2z" fill="rgb(74,30,48)"/>
<path d="M0 10h2v10h-2v-10z" fill="rgb(8,6,3)"/>
<path d="M2 10h4v2h-4v-2z" fill="rgb(159,44,82)"/>
<path d="M6 10h2v2h-2v-2z" fill="rgb(74,30,48)"/>
<path d="M8 10h2v2h-2v-2z" fill="rgb(56,42,22)"/>
<path d="M10 10h2v6h2v-6h2v6h2v-6h2v6h2v-2h2v6h-2v-2h-2v4h-2v-2h-2v4h-2v-4h-2v2
	h-2v-4h-2v2h-2v-6h2v2h2v-6z" fill="rgb(8,6,3)"/>
<path d="M12 10h2v2h-2v-2z" fill="rgb(121,98,65)"/>
<path d="M16 10h2v2h-2v-2z" fill="rgb(121,98,65)"/>
<path d="M20 10h2v2h-2v-2z" fill="rgb(56,42,22)"/>
<path d="M28 10h2v10h-2v-10z" fill="rgb(8,6,3)"/>
<path d="M2 12h4v4h-2v-2h-2v-2z" fill="rgb(202,115,146)"/>
<path d="M6 12h2v2h-2v-2z" fill="rgb(119,34,36)"/>
<path d="M8 12h2v2h-2v-2z" fill="rgb(121,98,65)"/>
<path d="M12 12h2v2h-2v-2z" fill="rgb(166,135,93)"/>
<path d="M16 12h2v2h-2v-2z" fill="rgb(166,135,93)"/>
<path d="M20 12h2v2h-2v-2z" fill="rgb(121,98,65)"/>
<path d="M22 12h2v2h-2v-2z" fill="rgb(119,34,36)"/>
<path d="M24 12h2v4h-2v-4z" fill="rgb(103,41,65)"/>
<path d="M26 12h2v2h-2v-2z" fill="rgb(159,44,82)"/>
<path d="M2 14h2v2h-2v-2z" fill="rgb(185,77,114)"/>
<path d="M8 14h2v2h-2v-2z" fill="rgb(166,135,93)"/>
<path d="M12 14h2v2h-2v-2z" fill="rgb(179,180,139)"/>
<path d="M16 14h2v2h-2v-2z" fill="rgb(179,180,139)"/>
<path d="M20 14h2v2h-2v-2z" fill="rgb(166,135,93)"/>
<path d="M26 14h2v2h-2v-2z" fill="rgb(185,77,114)"/>
<path d="M2 16h4v2h-4v-2z" fill="rgb(159,44,82)"/>
<path d="M24 16h4v2h-4v-2z" fill="rgb(74,30,48)"/>
<path d="M2 18h4v2h-4v-2z" fill="rgb(103,41,65)"/>
<path d="M8 18h2v2h-2v-2z" fill="rgb(56,42,22)"/>
<path d="M20 18h2v2h-2v-2z" fill="rgb(56,42,22)"/>
<path d="M24 18h2v4h-2v-4z" fill="rgb(103,41,65)"/>
<path d="M26 18h2v2h-2v-2z" fill="rgb(159,44,82)"/>
<path d="M0 20h2v4h2v2h-2v4h-2v-10z" fill="rgb(255,255,255)"/>
<path d="M2 20h2v4h-2v-4z" fill="rgb(8,6,3)"/>
<path d="M4 20h2v2h-2v-2z" fill="rgb(74,30,48)"/>
<path d="M6 20h2v2h-2v-2z" fill="rgb(119,34,36)"/>
<path d="M8 20h2v4h-2v-4z" fill="rgb(121,98,65)"/>
<path d="M12 20h2v2h-2v-2z" fill="rgb(179,180,139)"/>
<path d="M16 20h2v2h-2v-2z" fill="rgb(179,180,139)"/>
<path d="M20 20h2v4h-2v-4z" fill="rgb(121,98,65)"/>
<path d="M22 20h2v2h-2v-2z" fill="rgb(119,34,36)"/>
<path d="M26 20h2v4h-2v-4z" fill="rgb(8,6,3)"/>
<path d="M28 20h2v10h-2v-4h-2v-2h2v-4z" fill="rgb(255,255,255)"/>
<path d="M4 22h2v2h-2v-2z" fill="rgb(159,44,82)"/>
<path d="M6 22h2v2h-2v-2z" fill="rgb(103,41,65)"/>
<path d="M10 22h2v2h-2v-2z" fill="rgb(119,34,36)"/>
<path d="M12 22h2v2h-2v-2z" fill="rgb(166,135,93)"/>
<path d="M16 22h2v2h-2v-2z" fill="rgb(166,135,93)"/>
<path d="M18 22h2v2h-2v-2z" fill="rgb(119,34,36)"/>
<path d="M22 22h4v2h-4v-2z" fill="rgb(74,30,48)"/>
<path d="M4 24h2v2h-2v-2z" fill="rgb(8,6,3)"/>
<path d="M6 24h2v2h-2v-2z" fill="rgb(159,44,82)"/>
<path d="M8 24h2v2h-2v-2z" fill="rgb(74,30,48)"/>
<path d="M10 24h2v2h-2v-2z" fill="rgb(56,42,22)"/>
<path d="M12 24h2v2h-2v-2z" fill="rgb(121,98,65)"/>
<path d="M14 24h2v2h-2v-2z" fill="rgb(119,34,36)"/>
<path d="M16 24h2v2h-2v-2z" fill="rgb(121,98,65)"/>
<path d="M18 24h2v2h-2v-2z" fill="rgb(56,42,22)"/>
<path d="M20 24h2v2h-2v-2z" fill="rgb(74,30,48)"/>
<path d="M22 24h2v2h-2v-2z" fill="rgb(103,41,65)"/>
<path d="M24 24h2v2h-2v-2z" fill="rgb(8,6,3)"/>
<path d="M2 26h2v2h2v2h-4v-4z" fill="rgb(8,6,3)"/>
<path d="M4 26h2v2h-2v-2z" fill="rgb(168,24,24)"/>
<path d="M6 26h4v2h-4v-2z" fill="rgb(8,6,3)"/>
<path d="M10 26h2v2h-2v-2z" fill="rgb(103,41,65)"/>
<path d="M12 26h2v2h-2v-2z" fill="rgb(159,44,82)"/>
<path d="M14 26h2v2h-2v-2z" fill="rgb(103,41,65)"/>
<path d="M16 26h4v2h-4v-2z" fill="rgb(74,30,48)"/>
<path d="M20 26h4v2h-4v-2z" fill="rgb(8,6,3)"/>
<path d="M24 26h2v2h-2v-2z" fill="rgb(168,24,24)"/>
<path d="M26 26h2v4h-4v-2h2v-2z" fill="rgb(8,6,3)"/>
<path d="M6 28h4v2h-4v-2z" fill="rgb(255,255,255)"/>
<path d="M10 28h10v2h-10v-2z" fill="rgb(8,6,3)"/>
<path d="M20 28h4v2h-4v-2z" fill="rgb(255,255,255)"/>
</svg>