<?xml version="1.0" encoding="utf-8"?>
<!-- generated at drububu.com  -->
<!DOCTYPE svg PUBLIC "-//W3C//DTD SVG 1.1//EN" "http://www.w3.org/Graphics/SVG/1.1/DTD/svg11.dtd">
<svg version="1.1" preserveAspectRatio="xMinYMin meet" xmlns="http://www.w3.org/2000/svg" xmlns:xlink="http://www.w3.org/1999/xlink" x="0px" y="0px" width="30px" height="30px" viewBox="0 0 30 30">
<path d="M0 0h10v2h-2v2h2v4h-2v2h-6v2h4v2h-6v-14z" fill="rgb(255,255,255)"/>
<path d="M10 0h4v2h-4v-2z" fill="rgb(77,0,41)"/>
<path d="M14 0h2v2h-2v-2z" fill="rgb(255,255,255)"/>
<path d="M16 0h4v2h-4v-2z" fill="rgb(77,0,41)"/>
<path d="M20 0h10v14h-6v-2h4v-2h-6v-2h-2v-4h2v-2h-2v-2z" fill="rgb(255,255,255)"/>
<path d="M8 2h2v2h-2v-2z" fill="rgb(77,0,41)"/>
<path d="M10 2h2v2h-2v-2z" fill="rgb(204,83,153)"/>
<path d="M12 2h2v2h-2v-2z" fill="rgb(146,45,102)"/>
<path d="M14 2h2v4h-2v-4z" fill="rgb(77,0,41)"/>
<path d="M16 2h2v2h-2v-2z" fill="rgb(146,45,102)"/>
<path d="M18 2h2v2h-2v-2z" fill="rgb(204,83,153)"/>
<path d="M20 2h2v2h-2v-2z" fill="rgb(77,0,41)"/>
<path d="M10 4h2v4h-2v-4z" fill="rgb(77,0,41)"/>
<path d="M12 4h2v2h-2v-2z" fill="rgb(204,83,153)"/>
<path d="M16 4h2v2h-2v-2z" fill="rgb(204,83,153)"/>
<path d="M18 4h2v4h-2v-4z" fill="rgb(77,0,41)"/>
<path d="M12 6h2v2h-2v-2z" fill="rgb(226,129,207)"/>
<path d="M14 6h2v2h-2v-2z" fill="rgb(181,51,127)"/>
<path d="M16 6h2v2h-2v-2z" fill="rgb(226,129,207)"/>
<path d="M8 8h2v2h-2v-2z" fill="rgb(77,0,41)"/>
<path d="M10 8h2v2h-2v-2z" fill="rgb(226,129,207)"/>
<path d="M12 8h2v2h-2v-2z" fill="rgb(181,51,127)"/>
<path d="M14 8h2v2h-2v-2z" fill="rgb(226,129,207)"/>
<path d="M16 8h2v2h-2v-2z" fill="rgb(181,51,127)"/>
<path d="M18 8h2v4h-2v-4z" fill="rgb(226,129,207)"/>
<path d="M20 8h2v2h-2v-2z" fill="rgb(77,0,41)"/>
<path d="M2 10h2v2h-2v-2z" fill="rgb(233,230,73)"/>
<path d="M4 10h2v2h-2v-2z" fill="rgb(24,151,70)"/>
<path d="M6 10h2v4h-2v-4z" fill="rgb(77,0,41)"/>
<path d="M8 10h2v2h-2v-2z" fill="rgb(204,83,153)"/>
<path d="M10 10h2v2h-2v-2z" fill="rgb(235,170,222)"/>
<path d="M12 10h2v2h-2v-2z" fill="rgb(204,83,153)"/>
<path d="M14 10h2v4h-2v-4z" fill="rgb(235,170,222)"/>
<path d="M16 10h2v2h-2v-2z" fill="rgb(204,83,153)"/>
<path d="M20 10h2v2h-2v-2z" fill="rgb(181,51,127)"/>
<path d="M22 10h2v4h-2v-4z" fill="rgb(77,0,41)"/>
<path d="M24 10h2v2h-2v-2z" fill="rgb(24,151,70)"/>
<path d="M26 10h2v2h-2v-2z" fill="rgb(233,230,73)"/>
<path d="M8 12h2v2h-2v-2z" fill="rgb(235,170,222)"/>
<path d="M10 12h2v2h-2v-2z" fill="rgb(204,83,153)"/>
<path d="M12 12h2v2h2v-2h2v4h-2v2h-2v-2h-2v-4z" fill="rgb(226,129,207)"/>
<path d="M18 12h2v6h-2v-6z" fill="rgb(146,45,102)"/>
<path d="M20 12h2v4h-2v-4z" fill="rgb(204,83,153)"/>
<path d="M0 14h2v2h-2v-2z" fill="rgb(233,230,73)"/>
<path d="M2 14h2v2h-2v-2z" fill="rgb(24,151,70)"/>
<path d="M4 14h2v4h-4v-2h2v-2z" fill="rgb(77,0,41)"/>
<path d="M6 14h2v4h-2v-4z" fill="rgb(146,45,102)"/>
<path d="M8 14h2v2h-2v-2z" fill="rgb(226,129,207)"/>
<path d="M10 14h2v2h-2v-2z" fill="rgb(181,51,127)"/>
<path d="M22 14h2v4h-2v-4z" fill="rgb(146,45,102)"/>
<path d="M24 14h2v2h2v2h-4v-4z" fill="rgb(77,0,41)"/>
<path d="M26 14h2v2h-2v-2z" fill="rgb(24,151,70)"/>
<path d="M28 14h2v2h-2v-2z" fill="rgb(233,230,73)"/>
<path d="M0 16h2v2h-2v-2z" fill="rgb(255,255,255)"/>
<path d="M8 16h2v2h-2v-2z" fill="rgb(181,51,127)"/>
<path d="M10 16h2v2h-2v-2z" fill="rgb(146,45,102)"/>
<path d="M12 16h2v2h-2v-2z" fill="rgb(204,83,153)"/>
<path d="M16 16h2v2h-2v-2z" fill="rgb(204,83,153)"/>
<path d="M20 16h2v2h-2v-2z" fill="rgb(181,51,127)"/>
<path d="M28 16h2v2h-2v-2z" fill="rgb(255,255,255)"/>
<path d="M0 18h2v2h-2v-2z" fill="rgb(77,0,41)"/>
<path d="M2 18h2v2h-2v-2z" fill="rgb(235,170,222)"/>
<path d="M4 18h2v2h-2v-2z" fill="rgb(226,129,207)"/>
<path d="M6 18h2v2h-2v-2z" fill="rgb(77,0,41)"/>
<path d="M8 18h2v2h-2v-2z" fill="rgb(146,45,102)"/>
<path d="M10 18h2v2h-2v-2z" fill="rgb(235,170,222)"/>
<path d="M12 18h2v2h-2v-2z" fill="rgb(146,45,102)"/>
<path d="M14 18h2v2h-2v-2z" fill="rgb(204,83,153)"/>
<path d="M16 18h2v2h-2v-2z" fill="rgb(146,45,102)"/>
<path d="M18 18h2v2h-2v-2z" fill="rgb(235,170,222)"/>
<path d="M20 18h2v2h-2v-2z" fill="rgb(146,45,102)"/>
<path d="M22 18h2v2h-2v-2z" fill="rgb(77,0,41)"/>
<path d="M24 18h2v2h-2v-2z" fill="rgb(226,129,207)"/>
<path d="M26 18h2v2h-2v-2z" fill="rgb(235,170,222)"/>
<path d="M28 18h2v2h-2v-2z" fill="rgb(77,0,41)"/>
<path d="M0 20h2v2h2v2h2v2h-2v2h2v2h-6v-10z" fill="rgb(255,255,255)"/>
<path d="M2 20h2v2h-2v-2z" fill="rgb(77,0,41)"/>
<path d="M4 20h2v2h-2v-2z" fill="rgb(204,83,153)"/>
<path d="M6 20h2v2h-2v-2z" fill="rgb(226,129,207)"/>
<path d="M8 20h2v2h-2v-2z" fill="rgb(0,34,20)"/>
<path d="M10 20h2v2h-2v-2z" fill="rgb(204,83,153)"/>
<path d="M12 20h2v2h-2v-2z" fill="rgb(77,0,41)"/>
<path d="M14 20h2v2h-2v-2z" fill="rgb(146,45,102)"/>
<path d="M16 20h2v2h-2v-2z" fill="rgb(77,0,41)"/>
<path d="M18 20h2v2h-2v-2z" fill="rgb(204,83,153)"/>
<path d="M20 20h2v2h-2v-2z" fill="rgb(77,0,41)"/>
<path d="M22 20h2v2h-2v-2z" fill="rgb(226,129,207)"/>
<path d="M24 20h2v2h-2v-2z" fill="rgb(204,83,153)"/>
<path d="M26 20h2v2h-2v-2z" fill="rgb(77,0,41)"/>
<path d="M28 20h2v10h-6v-2h2v-2h-2v-2h2v-2h2v-2z" fill="rgb(255,255,255)"/>
<path d="M4 22h2v2h-2v-2z" fill="rgb(77,0,41)"/>
<path d="M6 22h2v4h-2v-4z" fill="rgb(0,34,20)"/>
<path d="M8 22h2v2h-2v-2z" fill="rgb(24,151,70)"/>
<path d="M10 22h2v2h2v4h-2v-2h-2v-4z" fill="rgb(0,34,20)"/>
<path d="M12 22h2v2h-2v-2z" fill="rgb(107,183,0)"/>
<path d="M14 22h2v2h-2v-2z" fill="rgb(0,34,20)"/>
<path d="M16 22h2v2h-2v-2z" fill="rgb(107,183,0)"/>
<path d="M18 22h2v4h-2v2h-2v-4h2v-2z" fill="rgb(0,34,20)"/>
<path d="M20 22h2v2h-2v-2z" fill="rgb(24,151,70)"/>
<path d="M22 22h2v4h-2v-4z" fill="rgb(0,34,20)"/>
<path d="M24 22h2v2h-2v-2z" fill="rgb(77,0,41)"/>
<path d="M8 24h2v2h-2v-2z" fill="rgb(21,217,94)"/>
<path d="M14 24h2v2h-2v-2z" fill="rgb(24,151,70)"/>
<path d="M20 24h2v2h-2v-2z" fill="rgb(21,217,94)"/>
<path d="M4 26h2v2h-2v-2z" fill="rgb(0,34,20)"/>
<path d="M6 26h2v2h-2v-2z" fill="rgb(24,151,70)"/>
<path d="M8 26h2v2h-2v-2z" fill="rgb(0,34,20)"/>
<path d="M10 26h2v2h-2v-2z" fill="rgb(24,151,70)"/>
<path d="M14 26h2v2h-2v-2z" fill="rgb(21,217,94)"/>
<path d="M18 26h2v2h-2v-2z" fill="rgb(24,151,70)"/>
<path d="M20 26h2v2h-2v-2z" fill="rgb(0,34,20)"/>
<path d="M22 26h2v2h-2v-2z" fill="rgb(24,151,70)"/>
<path d="M24 26h2v2h-2v-2z" fill="rgb(0,34,20)"/>
<path d="M6 28h2v2h-2v-2z" fill="rgb(0,34,20)"/>
<path d="M8 28h2v2h-2v-2z" fill="rgb(255,255,255)"/>
<path d="M10 28h2v2h-2v-2z" fill="rgb(0,34,20)"/>
<path d="M12 28h2v2h-2v-2z" fill="rgb(255,255,255)"/>
<path d="M14 28h2v2h-2v-2z" fill="rgb(0,34,20)"/>
<path d="M16 28h2v2h-2v-2z" fill="rgb(255,255,255)"/>
<path d="M18 28h2v2h-2v-2z" fill="rgb(0,34,20)"/>
<path d="M20 28h2v2h-2v-2z" fill="rgb(255,255,255)"/>
<path d="M22 28h2v2h-2v-2z" fill="rgb(0,34,20)"/>
</svg>