<?xml version="1.0" encoding="utf-8"?>
<!-- generated at drububu.com  -->
<!DOCTYPE svg PUBLIC "-//W3C//DTD SVG 1.1//EN" "http://www.w3.org/Graphics/SVG/1.1/DTD/svg11.dtd">
<svg version="1.1" preserveAspectRatio="xMinYMin meet" xmlns="http://www.w3.org/2000/svg" xmlns:xlink="http://www.w3.org/1999/xlink" x="0px" y="0px" width="30px" height="28px" viewBox="0 0 30 28">
<path d="M0 0h10v2h-4v2h-2v4h-2v4h-2v-12z" fill="rgb(255,255,255)"/>
<path d="M10 0h10v2h-10v-2z" fill="rgb(46,46,46)"/>
<path d="M20 0h10v12h-2v-4h-2v-4h-2v-2h-4v-2z" fill="rgb(255,255,255)"/>
<path d="M6 2h4v2h-4v-2z" fill="rgb(46,46,46)"/>
<path d="M10 2h2v2h-2v-2z" fill="rgb(119,119,119)"/>
<path d="M12 2h2v4h-2v-4z" fill="rgb(161,162,161)"/>
<path d="M14 2h2v2h-2v-2z" fill="rgb(203,203,203)"/>
<path d="M16 2h2v2h-2v-2z" fill="rgb(161,162,161)"/>
<path d="M18 2h2v2h-2v-2z" fill="rgb(119,119,119)"/>
<path d="M20 2h4v2h-4v-2z" fill="rgb(46,46,46)"/>
<path d="M4 4h2v4h-2v-4z" fill="rgb(46,46,46)"/>
<path d="M6 4h2v2h-2v-2z" fill="rgb(161,162,161)"/>
<path d="M8 4h2v4h-2v2h-2v-4h2v-2z" fill="rgb(246,246,246)"/>
<path d="M10 4h2v2h-2v-2z" fill="rgb(244,244,244)"/>
<path d="M14 4h4v2h-4v-2z" fill="rgb(119,119,119)"/>
<path d="M18 4h2v2h-2v-2z" fill="rgb(203,203,203)"/>
<path d="M20 4h2v2h-2v-2z" fill="rgb(161,162,161)"/>
<path d="M22 4h2v2h-2v-2z" fill="rgb(119,119,119)"/>
<path d="M24 4h2v4h-2v-4z" fill="rgb(46,46,46)"/>
<path d="M10 6h2v2h-2v-2z" fill="rgb(161,162,161)"/>
<path d="M12 6h2v2h-2v-2z" fill="rgb(244,244,244)"/>
<path d="M14 6h2v2h2v2h-6v-2h2v-2z" fill="rgb(27,27,27)"/>
<path d="M16 6h2v2h-2v-2z" fill="rgb(244,244,244)"/>
<path d="M18 6h2v2h-2v-2z" fill="rgb(119,119,119)"/>
<path d="M20 6h2v2h-2v-2z" fill="rgb(244,244,244)"/>
<path d="M22 6h2v2h-2v-2z" fill="rgb(203,203,203)"/>
<path d="M2 8h2v4h-2v-4z" fill="rgb(46,46,46)"/>
<path d="M4 8h2v2h-2v-2z" fill="rgb(119,119,119)"/>
<path d="M8 8h2v2h-2v-2z" fill="rgb(161,162,161)"/>
<path d="M10 8h2v2h-2v-2z" fill="rgb(244,244,244)"/>
<path d="M18 8h2v2h-2v-2z" fill="rgb(203,203,203)"/>
<path d="M20 8h2v2h-2v-2z" fill="rgb(119,119,119)"/>
<path d="M22 8h2v2h-2v-2z" fill="rgb(244,244,244)"/>
<path d="M24 8h2v2h-2v-2z" fill="rgb(119,119,119)"/>
<path d="M26 8h2v4h-4v-2h2v-2z" fill="rgb(46,46,46)"/>
<path d="M4 10h2v6h-2v-6z" fill="rgb(203,203,203)"/>
<path d="M6 10h2v2h-2v-2z" fill="rgb(161,162,161)"/>
<path d="M8 10h2v2h-2v-2z" fill="rgb(244,244,244)"/>
<path d="M10 10h2v6h-2v-2h-2v-2h2v-2z" fill="rgb(27,27,27)"/>
<path d="M12 10h2v2h-2v-2z" fill="rgb(244,244,244)"/>
<path d="M14 10h2v4h-4v-2h2v-2z" fill="rgb(236,95,95)"/>
<path d="M16 10h2v4h-2v-4z" fill="rgb(196,25,25)"/>
<path d="M18 10h2v2h2v2h-2v2h-2v-6z" fill="rgb(27,27,27)"/>
<path d="M20 10h2v2h-2v-2z" fill="rgb(203,203,203)"/>
<path d="M22 10h2v6h-2v-6z" fill="rgb(119,119,119)"/>
<path d="M0 12h2v2h-2v-2z" fill="rgb(60,6,8)"/>
<path d="M2 12h2v2h-2v-2z" fill="rgb(152,71,79)"/>
<path d="M6 12h2v4h-2v-4z" fill="rgb(119,119,119)"/>
<path d="M24 12h2v2h-2v-2z" fill="rgb(161,162,161)"/>
<path d="M26 12h2v2h-2v-2z" fill="rgb(152,71,79)"/>
<path d="M28 12h2v2h-2v-2z" fill="rgb(60,6,8)"/>
<path d="M0 14h2v4h2v4h-2v2h2v2h2v-2h2v4h-8v-14z" fill="rgb(255,255,255)"/>
<path d="M2 14h2v2h-2v-2z" fill="rgb(101,23,23)"/>
<path d="M8 14h2v2h-2v-2z" fill="rgb(203,203,203)"/>
<path d="M12 14h4v2h-4v-2z" fill="rgb(196,25,25)"/>
<path d="M16 14h2v2h-2v-2z" fill="rgb(236,95,95)"/>
<path d="M20 14h2v2h-2v-2z" fill="rgb(203,203,203)"/>
<path d="M24 14h2v2h-2v-2z" fill="rgb(46,46,46)"/>
<path d="M26 14h2v2h-2v-2z" fill="rgb(101,23,23)"/>
<path d="M28 14h2v14h-8v-4h2v2h2v-2h2v-2h-2v-4h2v-4z" fill="rgb(255,255,255)"/>
<path d="M2 16h2v2h-2v-2z" fill="rgb(46,46,46)"/>
<path d="M4 16h2v2h-2v-2z" fill="rgb(119,119,119)"/>
<path d="M6 16h2v2h-2v-2z" fill="rgb(203,203,203)"/>
<path d="M8 16h2v2h-2v-2z" fill="rgb(119,119,119)"/>
<path d="M10 16h2v2h-2v-2z" fill="rgb(203,203,203)"/>
<path d="M12 16h6v2h-2v2h-2v-2h-2v-2z" fill="rgb(27,27,27)"/>
<path d="M18 16h2v2h-2v-2z" fill="rgb(203,203,203)"/>
<path d="M20 16h2v2h-2v-2z" fill="rgb(119,119,119)"/>
<path d="M22 16h2v2h-2v-2z" fill="rgb(203,203,203)"/>
<path d="M24 16h2v2h-2v-2z" fill="rgb(119,119,119)"/>
<path d="M26 16h2v2h-2v-2z" fill="rgb(46,46,46)"/>
<path d="M4 18h2v2h-2v-2z" fill="rgb(46,46,46)"/>
<path d="M6 18h2v2h-2v-2z" fill="rgb(161,162,161)"/>
<path d="M8 18h2v2h-2v-2z" fill="rgb(203,203,203)"/>
<path d="M10 18h2v2h-2v-2z" fill="rgb(119,119,119)"/>
<path d="M12 18h2v2h-2v-2z" fill="rgb(203,203,203)"/>
<path d="M16 18h2v2h-2v-2z" fill="rgb(203,203,203)"/>
<path d="M18 18h2v2h-2v-2z" fill="rgb(119,119,119)"/>
<path d="M20 18h2v2h-2v-2z" fill="rgb(203,203,203)"/>
<path d="M22 18h2v2h-2v-2z" fill="rgb(161,162,161)"/>
<path d="M24 18h2v2h-2v-2z" fill="rgb(46,46,46)"/>
<path d="M4 20h2v2h-2v-2z" fill="rgb(60,6,8)"/>
<path d="M6 20h2v2h-2v-2z" fill="rgb(236,95,95)"/>
<path d="M8 20h2v2h-2v-2z" fill="rgb(161,162,161)"/>
<path d="M10 20h2v2h-2v-2z" fill="rgb(203,203,203)"/>
<path d="M12 20h6v2h-6v-2z" fill="rgb(119,119,119)"/>
<path d="M18 20h2v2h-2v-2z" fill="rgb(203,203,203)"/>
<path d="M20 20h2v2h-2v-2z" fill="rgb(161,162,161)"/>
<path d="M22 20h2v2h-2v-2z" fill="rgb(236,95,95)"/>
<path d="M24 20h2v2h-2v-2z" fill="rgb(60,6,8)"/>
<path d="M2 22h2v2h-2v-2z" fill="rgb(60,6,8)"/>
<path d="M4 22h2v2h-2v-2z" fill="rgb(152,71,79)"/>
<path d="M6 22h2v2h-2v-2z" fill="rgb(101,23,23)"/>
<path d="M8 22h2v2h-2v-2z" fill="rgb(60,6,8)"/>
<path d="M10 22h2v2h-2v-2z" fill="rgb(236,95,95)"/>
<path d="M12 22h6v2h-6v-2z" fill="rgb(161,162,161)"/>
<path d="M18 22h2v2h-2v-2z" fill="rgb(236,95,95)"/>
<path d="M20 22h2v2h-2v-2z" fill="rgb(60,6,8)"/>
<path d="M22 22h2v2h-2v-2z" fill="rgb(101,23,23)"/>
<path d="M24 22h2v2h-2v-2z" fill="rgb(152,71,79)"/>
<path d="M26 22h2v2h-2v-2z" fill="rgb(60,6,8)"/>
<path d="M4 24h2v2h-2v-2z" fill="rgb(60,6,8)"/>
<path d="M8 24h2v2h-2v-2z" fill="rgb(152,71,79)"/>
<path d="M10 24h2v2h-2v-2z" fill="rgb(101,23,23)"/>
<path d="M12 24h6v2h-6v-2z" fill="rgb(46,46,46)"/>
<path d="M18 24h2v2h-2v-2z" fill="rgb(101,23,23)"/>
<path d="M20 24h2v2h-2v-2z" fill="rgb(152,71,79)"/>
<path d="M24 24h2v2h-2v-2z" fill="rgb(60,6,8)"/>
<path d="M8 26h2v2h-2v-2z" fill="rgb(60,6,8)"/>
<path d="M10 26h10v2h-10v-2z" fill="rgb(255,255,255)"/>
<path d="M20 26h2v2h-2v-2z" fill="rgb(60,6,8)"/>
</svg>