<?xml version="1.0" encoding="utf-8"?>
<!-- generated at drububu.com  -->
<!DOCTYPE svg PUBLIC "-//W3C//DTD SVG 1.1//EN" "http://www.w3.org/Graphics/SVG/1.1/DTD/svg11.dtd">
<svg version="1.1" preserveAspectRatio="xMinYMin meet" xmlns="http://www.w3.org/2000/svg" xmlns:xlink="http://www.w3.org/1999/xlink" x="0px" y="0px" width="30px" height="30px" viewBox="0 0 30 30">
<path d="M0 0h14v2h-2v2h-4v2h-4v2h-2v2h-2v-10z" fill="rgb(255,255,255)"/>
<path d="M14 0h6v2h-6v-2z" fill="rgb(0,0,0)"/>
<path d="M20 0h10v10h-2v-2h-2v-2h-4v-4h-2v-2z" fill="rgb(255,255,255)"/>
<path d="M12 2h2v4h-2v-4z" fill="rgb(0,0,0)"/>
<path d="M14 2h2v2h-2v-2z" fill="rgb(6,54,0)"/>
<path d="M16 2h4v2h-4v-2z" fill="rgb(26,122,2)"/>
<path d="M20 2h2v2h-2v-2z" fill="rgb(0,0,0)"/>
<path d="M8 4h4v2h-4v-2z" fill="rgb(76,2,0)"/>
<path d="M14 4h2v2h-2v-2z" fill="rgb(26,122,2)"/>
<path d="M16 4h2v2h-2v-2z" fill="rgb(0,0,0)"/>
<path d="M18 4h4v2h-4v-2z" fill="rgb(76,2,0)"/>
<path d="M4 6h4v2h-4v-2z" fill="rgb(76,2,0)"/>
<path d="M8 6h2v2h-2v-2z" fill="rgb(175,70,13)"/>
<path d="M10 6h2v2h-2v-2z" fill="rgb(0,0,0)"/>
<path d="M12 6h2v2h-2v-2z" fill="rgb(6,54,0)"/>
<path d="M14 6h2v2h-2v-2z" fill="rgb(18,95,1)"/>
<path d="M16 6h2v2h-2v-2z" fill="rgb(6,54,0)"/>
<path d="M18 6h2v2h-2v-2z" fill="rgb(0,0,0)"/>
<path d="M20 6h2v2h-2v-2z" fill="rgb(175,70,13)"/>
<path d="M22 6h4v2h-4v-2z" fill="rgb(76,2,0)"/>
<path d="M2 8h2v2h-2v-2z" fill="rgb(76,2,0)"/>
<path d="M4 8h2v2h-2v-2z" fill="rgb(175,70,13)"/>
<path d="M6 8h4v2h-4v-2z" fill="rgb(208,110,8)"/>
<path d="M10 8h2v2h-2v-2z" fill="rgb(250,161,6)"/>
<path d="M12 8h6v2h-6v-2z" fill="rgb(0,0,0)"/>
<path d="M18 8h2v2h-2v-2z" fill="rgb(250,161,6)"/>
<path d="M20 8h4v2h-4v-2z" fill="rgb(208,110,8)"/>
<path d="M24 8h2v2h-2v-2z" fill="rgb(175,70,13)"/>
<path d="M26 8h2v2h-2v-2z" fill="rgb(76,2,0)"/>
<path d="M0 10h2v14h-2v-14z" fill="rgb(76,2,0)"/>
<path d="M2 10h2v2h-2v-2z" fill="rgb(208,110,8)"/>
<path d="M4 10h2v2h-2v-2z" fill="rgb(252,203,82)"/>
<path d="M6 10h4v2h-4v-2z" fill="rgb(91,12,0)"/>
<path d="M10 10h2v2h-2v-2z" fill="rgb(252,203,82)"/>
<path d="M12 10h2v4h-2v-4z" fill="rgb(208,110,8)"/>
<path d="M14 10h2v2h-2v-2z" fill="rgb(250,161,6)"/>
<path d="M16 10h2v4h-2v-4z" fill="rgb(208,110,8)"/>
<path d="M18 10h2v2h-2v-2z" fill="rgb(252,203,82)"/>
<path d="M20 10h4v2h-4v-2z" fill="rgb(91,12,0)"/>
<path d="M24 10h2v2h2v6h-2v-4h-2v-4z" fill="rgb(250,161,6)"/>
<path d="M26 10h2v2h-2v-2z" fill="rgb(208,110,8)"/>
<path d="M28 10h2v14h-2v-14z" fill="rgb(76,2,0)"/>
<path d="M2 12h2v4h-2v-4z" fill="rgb(252,203,82)"/>
<path d="M4 12h2v2h-2v-2z" fill="rgb(250,161,6)"/>
<path d="M6 12h2v2h-2v-2z" fill="rgb(255,255,0)"/>
<path d="M8 12h2v4h-2v-4z" fill="rgb(255,255,205)"/>
<path d="M10 12h2v2h-2v-2z" fill="rgb(91,12,0)"/>
<path d="M14 12h2v2h-2v-2z" fill="rgb(252,203,82)"/>
<path d="M18 12h2v2h-2v-2z" fill="rgb(91,12,0)"/>
<path d="M20 12h2v4h-2v-4z" fill="rgb(255,255,205)"/>
<path d="M22 12h2v2h-2v-2z" fill="rgb(255,255,0)"/>
<path d="M4 14h2v2h-2v-2z" fill="rgb(208,110,8)"/>
<path d="M6 14h2v2h-2v-2z" fill="rgb(175,70,13)"/>
<path d="M10 14h2v2h-2v-2z" fill="rgb(255,255,0)"/>
<path d="M12 14h2v2h-2v-2z" fill="rgb(91,12,0)"/>
<path d="M14 14h2v4h-2v-4z" fill="rgb(252,191,24)"/>
<path d="M16 14h2v2h-2v-2z" fill="rgb(91,12,0)"/>
<path d="M18 14h2v2h-2v-2z" fill="rgb(255,255,0)"/>
<path d="M22 14h2v2h-2v-2z" fill="rgb(175,70,13)"/>
<path d="M24 14h2v2h-2v-2z" fill="rgb(208,110,8)"/>
<path d="M2 16h2v2h-2v-2z" fill="rgb(250,161,6)"/>
<path d="M4 16h2v2h4v2h-4v2h-2v-6z" fill="rgb(91,12,0)"/>
<path d="M6 16h2v2h-2v-2z" fill="rgb(208,110,8)"/>
<path d="M8 16h4v2h-4v-2z" fill="rgb(175,70,13)"/>
<path d="M12 16h2v2h-2v-2z" fill="rgb(208,110,8)"/>
<path d="M16 16h2v2h-2v-2z" fill="rgb(208,110,8)"/>
<path d="M18 16h4v2h-4v-2z" fill="rgb(175,70,13)"/>
<path d="M22 16h2v2h-2v-2z" fill="rgb(250,161,6)"/>
<path d="M24 16h2v6h-2v-2h-4v-2h4v-2z" fill="rgb(91,12,0)"/>
<path d="M2 18h2v2h-2v-2z" fill="rgb(208,110,8)"/>
<path d="M10 18h2v2h-2v-2z" fill="rgb(250,161,6)"/>
<path d="M12 18h2v2h-2v-2z" fill="rgb(175,70,13)"/>
<path d="M14 18h2v2h-2v-2z" fill="rgb(250,161,6)"/>
<path d="M16 18h2v2h-2v-2z" fill="rgb(175,70,13)"/>
<path d="M18 18h2v2h-2v-2z" fill="rgb(250,161,6)"/>
<path d="M26 18h2v2h-2v-2z" fill="rgb(208,110,8)"/>
<path d="M2 20h2v2h-2v-2z" fill="rgb(175,70,13)"/>
<path d="M6 20h2v2h-2v-2z" fill="rgb(244,185,0)"/>
<path d="M8 20h2v2h-2v-2z" fill="rgb(255,255,0)"/>
<path d="M10 20h2v2h-2v-2z" fill="rgb(175,70,13)"/>
<path d="M12 20h2v2h2v-2h2v2h2v2h-4v2h-2v-2h-4v-2h2v-2z" fill="rgb(255,255,0)"/>
<path d="M14 20h2v2h-2v-2z" fill="rgb(91,12,0)"/>
<path d="M18 20h2v2h-2v-2z" fill="rgb(175,70,13)"/>
<path d="M20 20h2v2h-2v-2z" fill="rgb(255,255,0)"/>
<path d="M22 20h2v2h-2v-2z" fill="rgb(244,185,0)"/>
<path d="M26 20h2v2h-2v-2z" fill="rgb(175,70,13)"/>
<path d="M2 22h2v2h-2v-2z" fill="rgb(151,61,10)"/>
<path d="M4 22h2v2h-2v-2z" fill="rgb(175,70,13)"/>
<path d="M6 22h2v2h-2v-2z" fill="rgb(91,12,0)"/>
<path d="M8 22h2v2h-2v-2z" fill="rgb(250,161,6)"/>
<path d="M20 22h2v2h-2v-2z" fill="rgb(250,161,6)"/>
<path d="M22 22h2v2h-2v-2z" fill="rgb(91,12,0)"/>
<path d="M24 22h2v2h-2v-2z" fill="rgb(175,70,13)"/>
<path d="M26 22h2v2h-2v-2z" fill="rgb(151,61,10)"/>
<path d="M0 24h2v2h2v2h4v2h-8v-6z" fill="rgb(255,255,255)"/>
<path d="M2 24h2v2h-2v-2z" fill="rgb(76,2,0)"/>
<path d="M4 24h2v2h-2v-2z" fill="rgb(151,61,10)"/>
<path d="M6 24h2v2h-2v-2z" fill="rgb(175,70,13)"/>
<path d="M8 24h2v2h-2v-2z" fill="rgb(91,12,0)"/>
<path d="M10 24h2v2h-2v-2z" fill="rgb(244,185,0)"/>
<path d="M12 24h2v2h-2v-2z" fill="rgb(91,12,0)"/>
<path d="M16 24h2v2h-2v-2z" fill="rgb(91,12,0)"/>
<path d="M18 24h2v2h-2v-2z" fill="rgb(244,185,0)"/>
<path d="M20 24h2v2h-2v-2z" fill="rgb(91,12,0)"/>
<path d="M22 24h2v2h-2v-2z" fill="rgb(175,70,13)"/>
<path d="M24 24h2v2h-2v-2z" fill="rgb(151,61,10)"/>
<path d="M26 24h2v2h-2v-2z" fill="rgb(76,2,0)"/>
<path d="M28 24h2v6h-8v-2h4v-2h2v-2z" fill="rgb(255,255,255)"/>
<path d="M4 26h4v2h-4v-2z" fill="rgb(76,2,0)"/>
<path d="M8 26h2v2h-2v-2z" fill="rgb(151,61,10)"/>
<path d="M10 26h2v2h-2v-2z" fill="rgb(91,12,0)"/>
<path d="M12 26h2v2h-2v-2z" fill="rgb(208,110,8)"/>
<path d="M14 26h2v2h-2v-2z" fill="rgb(91,12,0)"/>
<path d="M16 26h2v2h-2v-2z" fill="rgb(208,110,8)"/>
<path d="M18 26h2v2h-2v-2z" fill="rgb(91,12,0)"/>
<path d="M20 26h2v2h-2v-2z" fill="rgb(151,61,10)"/>
<path d="M22 26h4v2h-4v-2z" fill="rgb(76,2,0)"/>
<path d="M8 28h14v2h-14v-2z" fill="rgb(76,2,0)"/>
</svg>