<?xml version="1.0" encoding="utf-8"?>
<!-- generated at drububu.com  -->
<!DOCTYPE svg PUBLIC "-//W3C//DTD SVG 1.1//EN" "http://www.w3.org/Graphics/SVG/1.1/DTD/svg11.dtd">
<svg version="1.1" preserveAspectRatio="xMinYMin meet" xmlns="http://www.w3.org/2000/svg" xmlns:xlink="http://www.w3.org/1999/xlink" x="0px" y="0px" width="30px" height="30px" viewBox="0 0 30 30">
<path d="M0 0h6v2h-4v8h-2v-10z" fill="rgb(1,46,23)"/>
<path d="M6 0h4v2h-4v-2z" fill="rgb(255,255,255)"/>
<path d="M10 0h10v2h-10v-2z" fill="rgb(1,46,23)"/>
<path d="M20 0h4v2h-4v-2z" fill="rgb(255,255,255)"/>
<path d="M24 0h6v10h-2v-8h-4v-2z" fill="rgb(1,46,23)"/>
<path d="M2 2h2v2h-2v-2z" fill="rgb(186,255,229)"/>
<path d="M4 2h2v2h-2v-2z" fill="rgb(2,153,85)"/>
<path d="M6 2h4v2h-4v-2z" fill="rgb(1,46,23)"/>
<path d="M10 2h2v2h-2v-2z" fill="rgb(23,208,134)"/>
<path d="M12 2h2v2h-2v-2z" fill="rgb(186,255,229)"/>
<path d="M14 2h4v2h-2v2h-2v-4z" fill="rgb(74,255,187)"/>
<path d="M18 2h2v2h-2v-2z" fill="rgb(23,208,134)"/>
<path d="M20 2h4v2h-4v-2z" fill="rgb(1,46,23)"/>
<path d="M24 2h2v2h-2v-2z" fill="rgb(2,153,85)"/>
<path d="M26 2h2v2h-2v-2z" fill="rgb(186,255,229)"/>
<path d="M2 4h2v2h-2v-2z" fill="rgb(11,82,164)"/>
<path d="M4 4h2v2h-2v-2z" fill="rgb(186,255,229)"/>
<path d="M6 4h6v2h-6v-2z" fill="rgb(2,153,85)"/>
<path d="M12 4h2v2h-2v-2z" fill="rgb(23,208,134)"/>
<path d="M16 4h2v2h-2v-2z" fill="rgb(23,208,134)"/>
<path d="M18 4h6v2h-6v-2z" fill="rgb(2,153,85)"/>
<path d="M24 4h2v2h-2v-2z" fill="rgb(155,255,221)"/>
<path d="M26 4h2v2h-2v-2z" fill="rgb(11,82,164)"/>
<path d="M2 6h2v4h-2v-4z" fill="rgb(25,153,179)"/>
<path d="M4 6h2v2h-2v-2z" fill="rgb(11,82,164)"/>
<path d="M6 6h4v2h-4v-2z" fill="rgb(74,255,187)"/>
<path d="M10 6h2v2h-2v-2z" fill="rgb(23,208,134)"/>
<path d="M12 6h6v2h-6v-2z" fill="rgb(2,153,85)"/>
<path d="M18 6h2v2h-2v-2z" fill="rgb(23,208,134)"/>
<path d="M20 6h4v2h-4v-2z" fill="rgb(74,255,187)"/>
<path d="M24 6h2v2h-2v-2z" fill="rgb(11,82,164)"/>
<path d="M26 6h2v4h-2v-4z" fill="rgb(25,153,179)"/>
<path d="M4 8h2v2h-2v-2z" fill="rgb(18,121,182)"/>
<path d="M6 8h6v2h-4v2h-2v-4z" fill="rgb(1,46,23)"/>
<path d="M12 8h4v4h-2v-2h-2v-2z" fill="rgb(74,255,187)"/>
<path d="M16 8h2v2h-2v-2z" fill="rgb(23,208,134)"/>
<path d="M18 8h6v4h-2v-2h-4v-2z" fill="rgb(1,46,23)"/>
<path d="M24 8h2v2h-2v-2z" fill="rgb(18,121,182)"/>
<path d="M0 10h2v4h-2v-4z" fill="rgb(255,255,255)"/>
<path d="M2 10h2v4h-2v-4z" fill="rgb(1,46,23)"/>
<path d="M4 10h2v2h-2v-2z" fill="rgb(2,153,85)"/>
<path d="M8 10h2v2h-2v-2z" fill="rgb(248,248,248)"/>
<path d="M10 10h2v2h-2v-2z" fill="rgb(79,79,79)"/>
<path d="M12 10h2v2h-2v-2z" fill="rgb(1,46,23)"/>
<path d="M16 10h2v2h-2v-2z" fill="rgb(1,46,23)"/>
<path d="M18 10h2v2h-2v-2z" fill="rgb(79,79,79)"/>
<path d="M20 10h2v2h-2v-2z" fill="rgb(248,248,248)"/>
<path d="M24 10h2v2h-2v-2z" fill="rgb(2,153,85)"/>
<path d="M26 10h2v4h-2v-4z" fill="rgb(1,46,23)"/>
<path d="M28 10h2v4h-2v-4z" fill="rgb(255,255,255)"/>
<path d="M4 12h4v2h2v2h-4v-2h-2v-2z" fill="rgb(74,255,187)"/>
<path d="M8 12h4v2h-4v-2z" fill="rgb(23,208,134)"/>
<path d="M12 12h6v2h-6v-2z" fill="rgb(186,255,229)"/>
<path d="M18 12h4v2h-4v-2z" fill="rgb(23,208,134)"/>
<path d="M22 12h4v2h-2v2h-4v-2h2v-2z" fill="rgb(74,255,187)"/>
<path d="M0 14h2v6h-2v-6z" fill="rgb(1,46,23)"/>
<path d="M2 14h2v4h-2v-4z" fill="rgb(74,255,187)"/>
<path d="M4 14h2v2h-2v-2z" fill="rgb(186,255,229)"/>
<path d="M10 14h2v2h-2v-2z" fill="rgb(186,255,229)"/>
<path d="M12 14h6v2h-2v2h2v2h-6v-2h2v-2h-2v-2z" fill="rgb(2,153,85)"/>
<path d="M18 14h2v2h-2v-2z" fill="rgb(186,255,229)"/>
<path d="M24 14h2v2h-2v-2z" fill="rgb(186,255,229)"/>
<path d="M26 14h2v4h-2v-4z" fill="rgb(74,255,187)"/>
<path d="M28 14h2v6h-2v-6z" fill="rgb(1,46,23)"/>
<path d="M4 16h2v2h-2v-2z" fill="rgb(2,153,85)"/>
<path d="M6 16h2v2h-2v-2z" fill="rgb(30,66,33)"/>
<path d="M8 16h2v2h-2v-2z" fill="rgb(23,208,134)"/>
<path d="M10 16h2v2h-2v-2z" fill="rgb(2,153,85)"/>
<path d="M12 16h2v2h-2v-2z" fill="rgb(1,46,23)"/>
<path d="M16 16h2v2h-2v-2z" fill="rgb(1,46,23)"/>
<path d="M18 16h2v2h-2v-2z" fill="rgb(2,153,85)"/>
<path d="M20 16h2v2h-2v-2z" fill="rgb(23,208,134)"/>
<path d="M22 16h2v2h-2v-2z" fill="rgb(30,66,33)"/>
<path d="M24 16h2v2h-2v-2z" fill="rgb(2,153,85)"/>
<path d="M2 18h2v2h-2v-2z" fill="rgb(23,208,134)"/>
<path d="M4 18h2v2h-2v-2z" fill="rgb(30,66,33)"/>
<path d="M6 18h2v2h-2v-2z" fill="rgb(153,104,115)"/>
<path d="M8 18h2v2h-2v-2z" fill="rgb(87,44,50)"/>
<path d="M10 18h2v2h-2v-2z" fill="rgb(2,96,52)"/>
<path d="M18 18h2v2h-2v-2z" fill="rgb(2,96,52)"/>
<path d="M20 18h2v2h-2v-2z" fill="rgb(87,44,50)"/>
<path d="M22 18h2v2h-2v-2z" fill="rgb(153,104,115)"/>
<path d="M24 18h2v2h-2v-2z" fill="rgb(30,66,33)"/>
<path d="M26 18h2v2h-2v-2z" fill="rgb(23,208,134)"/>
<path d="M0 20h2v2h2v6h2v2h-6v-10z" fill="rgb(255,255,255)"/>
<path d="M2 20h4v2h-4v-2z" fill="rgb(1,46,23)"/>
<path d="M6 20h2v2h-2v-2z" fill="rgb(87,44,50)"/>
<path d="M8 20h2v2h-2v-2z" fill="rgb(120,200,60)"/>
<path d="M10 20h2v2h-2v-2z" fill="rgb(1,46,23)"/>
<path d="M12 20h6v2h-6v-2z" fill="rgb(2,96,52)"/>
<path d="M18 20h2v2h-2v-2z" fill="rgb(1,46,23)"/>
<path d="M20 20h2v2h-2v-2z" fill="rgb(120,200,60)"/>
<path d="M22 20h2v2h-2v-2z" fill="rgb(87,44,50)"/>
<path d="M24 20h4v2h-4v-2z" fill="rgb(1,46,23)"/>
<path d="M28 20h2v10h-6v-2h2v-6h2v-2z" fill="rgb(255,255,255)"/>
<path d="M4 22h2v6h-2v-6z" fill="rgb(30,66,33)"/>
<path d="M6 22h2v2h-2v-2z" fill="rgb(120,200,60)"/>
<path d="M8 22h2v2h-2v-2z" fill="rgb(162,217,107)"/>
<path d="M10 22h2v2h-2v-2z" fill="rgb(30,66,33)"/>
<path d="M12 22h6v2h-6v-2z" fill="rgb(1,46,23)"/>
<path d="M18 22h2v2h-2v-2z" fill="rgb(30,66,33)"/>
<path d="M20 22h2v2h-2v-2z" fill="rgb(162,217,107)"/>
<path d="M22 22h2v2h-2v-2z" fill="rgb(120,200,60)"/>
<path d="M24 22h2v6h-2v-6z" fill="rgb(30,66,33)"/>
<path d="M6 24h2v2h-2v-2z" fill="rgb(162,217,107)"/>
<path d="M8 24h2v4h-2v-4z" fill="rgb(30,66,33)"/>
<path d="M10 24h2v2h-2v-2z" fill="rgb(2,153,85)"/>
<path d="M12 24h2v2h-2v-2z" fill="rgb(23,208,134)"/>
<path d="M14 24h2v2h-2v-2z" fill="rgb(74,255,187)"/>
<path d="M16 24h2v2h-2v-2z" fill="rgb(23,208,134)"/>
<path d="M18 24h2v2h-2v-2z" fill="rgb(2,153,85)"/>
<path d="M20 24h2v2h-2v-2z" fill="rgb(30,66,33)"/>
<path d="M22 24h2v2h-2v-2z" fill="rgb(162,217,107)"/>
<path d="M6 26h2v2h-2v-2z" fill="rgb(205,235,154)"/>
<path d="M10 26h2v2h-2v-2z" fill="rgb(1,46,23)"/>
<path d="M12 26h6v2h-6v-2z" fill="rgb(2,153,85)"/>
<path d="M18 26h4v2h-4v-2z" fill="rgb(1,46,23)"/>
<path d="M22 26h2v2h-2v-2z" fill="rgb(205,235,154)"/>
<path d="M6 28h2v2h-2v-2z" fill="rgb(30,66,33)"/>
<path d="M8 28h4v2h-4v-2z" fill="rgb(255,255,255)"/>
<path d="M12 28h6v2h-6v-2z" fill="rgb(1,46,23)"/>
<path d="M18 28h4v2h-4v-2z" fill="rgb(255,255,255)"/>
<path d="M22 28h2v2h-2v-2z" fill="rgb(30,66,33)"/>
</svg>