<?xml version="1.0" encoding="utf-8"?>
<!-- generated at drububu.com  -->
<!DOCTYPE svg PUBLIC "-//W3C//DTD SVG 1.1//EN" "http://www.w3.org/Graphics/SVG/1.1/DTD/svg11.dtd">
<svg version="1.1" preserveAspectRatio="xMinYMin meet" xmlns="http://www.w3.org/2000/svg" xmlns:xlink="http://www.w3.org/1999/xlink" x="0px" y="0px" width="30px" height="30px" viewBox="0 0 30 30">
<path d="M0 0h8v2h-4v2h-2v4h-2v-8z" fill="rgb(255,255,255)"/>
<path d="M8 0h14v2h-14v-2z" fill="rgb(8,24,40)"/>
<path d="M22 0h8v6h-2v-2h-2v-2h-4v-2z" fill="rgb(255,255,255)"/>
<path d="M4 2h4v2h-4v-2z" fill="rgb(8,24,40)"/>
<path d="M8 2h2v2h-2v-2z" fill="rgb(36,64,150)"/>
<path d="M10 2h2v4h-4v-2h2v-2z" fill="rgb(79,108,208)"/>
<path d="M12 2h2v2h-2v-2z" fill="rgb(185,152,49)"/>
<path d="M14 2h2v2h2v2h-2v2h-2v-6z" fill="rgb(49,83,191)"/>
<path d="M16 2h2v2h-2v-2z" fill="rgb(36,64,150)"/>
<path d="M18 2h4v2h2v2h-2v2h-2v-4h-2v-2z" fill="rgb(26,34,108)"/>
<path d="M22 2h4v2h-4v-2z" fill="rgb(8,24,40)"/>
<path d="M2 4h2v4h-2v-4z" fill="rgb(8,24,40)"/>
<path d="M4 4h2v4h-2v-4z" fill="rgb(36,64,150)"/>
<path d="M6 4h2v2h-2v-2z" fill="rgb(49,83,191)"/>
<path d="M12 4h2v2h-2v-2z" fill="rgb(202,192,79)"/>
<path d="M18 4h2v2h-2v-2z" fill="rgb(36,64,150)"/>
<path d="M24 4h2v2h-2v-2z" fill="rgb(36,64,150)"/>
<path d="M26 4h2v2h-2v-2z" fill="rgb(8,24,40)"/>
<path d="M6 6h4v2h-4v-2z" fill="rgb(216,209,126)"/>
<path d="M10 6h2v2h-2v-2z" fill="rgb(49,83,191)"/>
<path d="M12 6h2v4h-4v-2h2v-2z" fill="rgb(216,209,126)"/>
<path d="M16 6h4v2h-4v-2z" fill="rgb(202,192,79)"/>
<path d="M22 6h2v2h-2v-2z" fill="rgb(8,24,40)"/>
<path d="M24 6h2v2h-2v-2z" fill="rgb(26,34,108)"/>
<path d="M26 6h2v6h-2v-6z" fill="rgb(36,64,150)"/>
<path d="M28 6h2v6h-2v-6z" fill="rgb(8,24,40)"/>
<path d="M0 8h2v12h-2v-12z" fill="rgb(8,24,40)"/>
<path d="M2 8h2v2h-2v-2z" fill="rgb(36,64,150)"/>
<path d="M4 8h2v2h-2v-2z" fill="rgb(216,209,126)"/>
<path d="M6 8h4v2h-4v-2z" fill="rgb(8,24,40)"/>
<path d="M14 8h2v2h-2v-2z" fill="rgb(202,192,79)"/>
<path d="M16 8h4v2h-4v-2z" fill="rgb(8,24,40)"/>
<path d="M20 8h2v2h-2v-2z" fill="rgb(185,152,49)"/>
<path d="M22 8h2v2h-2v-2z" fill="rgb(26,34,108)"/>
<path d="M24 8h2v4h2v2h-2v6h-2v-12z" fill="rgb(8,24,40)"/>
<path d="M2 10h2v4h-2v-4z" fill="rgb(202,192,79)"/>
<path d="M4 10h2v2h-2v-2z" fill="rgb(8,24,40)"/>
<path d="M6 10h2v2h-2v-2z" fill="rgb(99,89,99)"/>
<path d="M8 10h2v2h-2v-2z" fill="rgb(159,162,159)"/>
<path d="M10 10h6v2h-6v-2z" fill="rgb(8,24,40)"/>
<path d="M16 10h2v2h-2v-2z" fill="rgb(159,162,159)"/>
<path d="M18 10h2v2h-2v-2z" fill="rgb(99,89,99)"/>
<path d="M20 10h2v2h-2v-2z" fill="rgb(8,24,40)"/>
<path d="M22 10h2v8h-2v-8z" fill="rgb(185,152,49)"/>
<path d="M4 12h2v4h-2v-4z" fill="rgb(99,89,99)"/>
<path d="M6 12h4v2h2v2h-4v-2h-2v-2z" fill="rgb(8,24,40)"/>
<path d="M10 12h4v12h-2v-4h-2v-2h-2v-2h4v-2h-2v-2z" fill="rgb(239,236,239)"/>
<path d="M14 12h2v2h-2v-2z" fill="rgb(199,200,199)"/>
<path d="M16 12h4v2h-2v2h-4v-2h2v-2z" fill="rgb(8,24,40)"/>
<path d="M20 12h2v4h-2v-4z" fill="rgb(99,89,99)"/>
<path d="M28 12h2v18h-16v-2h2v-2h4v-2h2v-2h2v-2h2v-6h2v-2z" fill="rgb(255,255,255)"/>
<path d="M2 14h2v4h-2v-4z" fill="rgb(185,152,49)"/>
<path d="M6 14h2v4h-2v-4z" fill="rgb(159,162,159)"/>
<path d="M18 14h2v4h-2v-4z" fill="rgb(159,162,159)"/>
<path d="M4 16h2v2h-2v-2z" fill="rgb(8,24,40)"/>
<path d="M14 16h4v2h-2v2h-2v-4z" fill="rgb(199,200,199)"/>
<path d="M20 16h2v2h-2v-2z" fill="rgb(8,24,40)"/>
<path d="M2 18h2v2h-2v-2z" fill="rgb(36,64,150)"/>
<path d="M4 18h2v2h-2v-2z" fill="rgb(202,192,79)"/>
<path d="M6 18h2v2h-2v-2z" fill="rgb(8,24,40)"/>
<path d="M8 18h2v2h-2v-2z" fill="rgb(99,89,99)"/>
<path d="M16 18h2v2h-2v-2z" fill="rgb(99,89,99)"/>
<path d="M18 18h2v2h-2v-2z" fill="rgb(8,24,40)"/>
<path d="M20 18h2v2h-2v-2z" fill="rgb(202,192,79)"/>
<path d="M22 18h2v2h-2v-2z" fill="rgb(36,64,150)"/>
<path d="M0 20h2v2h2v2h2v2h4v2h2v2h-12v-10z" fill="rgb(255,255,255)"/>
<path d="M2 20h2v2h-2v-2z" fill="rgb(8,24,40)"/>
<path d="M4 20h2v2h-2v-2z" fill="rgb(36,64,150)"/>
<path d="M6 20h2v2h-2v-2z" fill="rgb(202,192,79)"/>
<path d="M8 20h2v4h2v4h-2v-2h-4v-2h2v-4z" fill="rgb(8,24,40)"/>
<path d="M10 20h2v2h-2v-2z" fill="rgb(159,162,159)"/>
<path d="M14 20h2v2h-2v-2z" fill="rgb(159,162,159)"/>
<path d="M16 20h2v4h2v2h-4v2h-2v-4h2v-4z" fill="rgb(8,24,40)"/>
<path d="M18 20h2v2h-2v-2z" fill="rgb(202,192,79)"/>
<path d="M20 20h2v2h-2v-2z" fill="rgb(36,64,150)"/>
<path d="M22 20h2v2h-2v-2z" fill="rgb(8,24,40)"/>
<path d="M4 22h2v2h-2v-2z" fill="rgb(8,24,40)"/>
<path d="M6 22h2v2h-2v-2z" fill="rgb(185,152,49)"/>
<path d="M10 22h2v2h-2v-2z" fill="rgb(99,89,99)"/>
<path d="M14 22h2v2h-2v-2z" fill="rgb(99,89,99)"/>
<path d="M18 22h2v2h-2v-2z" fill="rgb(185,152,49)"/>
<path d="M20 22h2v2h-2v-2z" fill="rgb(8,24,40)"/>
<path d="M12 24h2v2h-2v-2z" fill="rgb(199,200,199)"/>
<path d="M12 26h2v2h-2v-2z" fill="rgb(159,162,159)"/>
<path d="M12 28h2v2h-2v-2z" fill="rgb(8,24,40)"/>
</svg>