<?xml version="1.0" encoding="utf-8"?>
<!-- generated at drububu.com  -->
<!DOCTYPE svg PUBLIC "-//W3C//DTD SVG 1.1//EN" "http://www.w3.org/Graphics/SVG/1.1/DTD/svg11.dtd">
<svg version="1.1" preserveAspectRatio="xMinYMin meet" xmlns="http://www.w3.org/2000/svg" xmlns:xlink="http://www.w3.org/1999/xlink" x="0px" y="0px" width="26px" height="30px" viewBox="0 0 26 30">
<path d="M0 0h6v2h-2v2h-2v6h-2v-10z" fill="rgb(255,255,255)"/>
<path d="M6 0h4v4h-2v-2h-2v-2z" fill="rgb(158,5,122)"/>
<path d="M10 0h6v4h-2v-2h-2v2h-2v-4z" fill="rgb(255,255,255)"/>
<path d="M16 0h4v2h-2v2h-2v-4z" fill="rgb(158,5,122)"/>
<path d="M20 0h6v10h-2v-6h-2v-2h-2v-2z" fill="rgb(255,255,255)"/>
<path d="M4 2h2v2h-2v-2z" fill="rgb(158,5,122)"/>
<path d="M6 2h2v2h-2v-2z" fill="rgb(254,191,243)"/>
<path d="M12 2h2v2h-2v-2z" fill="rgb(116,5,90)"/>
<path d="M18 2h2v2h-2v-2z" fill="rgb(254,191,243)"/>
<path d="M20 2h2v2h-2v-2z" fill="rgb(158,5,122)"/>
<path d="M2 4h2v6h-2v-6z" fill="rgb(158,5,122)"/>
<path d="M4 4h2v4h-2v-4z" fill="rgb(254,191,243)"/>
<path d="M6 4h2v4h-2v-4z" fill="rgb(158,5,122)"/>
<path d="M8 4h2v2h-2v-2z" fill="rgb(254,191,243)"/>
<path d="M10 4h2v4h-2v-4z" fill="rgb(116,5,90)"/>
<path d="M12 4h2v2h-2v-2z" fill="rgb(254,127,230)"/>
<path d="M14 4h2v4h-2v-4z" fill="rgb(116,5,90)"/>
<path d="M16 4h2v2h-2v-2z" fill="rgb(254,191,243)"/>
<path d="M18 4h2v4h-2v-4z" fill="rgb(158,5,122)"/>
<path d="M20 4h2v4h-2v-4z" fill="rgb(254,191,243)"/>
<path d="M22 4h2v6h-2v-6z" fill="rgb(158,5,122)"/>
<path d="M8 6h2v2h-2v-2z" fill="rgb(254,127,230)"/>
<path d="M12 6h2v2h-2v-2z" fill="rgb(255,25,176)"/>
<path d="M16 6h2v2h-2v-2z" fill="rgb(254,127,230)"/>
<path d="M4 8h2v2h-2v-2z" fill="rgb(254,127,230)"/>
<path d="M6 8h2v2h-2v-2z" fill="rgb(254,191,243)"/>
<path d="M8 8h2v2h-2v-2z" fill="rgb(255,25,176)"/>
<path d="M10 8h2v2h-2v-2z" fill="rgb(254,127,230)"/>
<path d="M12 8h2v2h-2v-2z" fill="rgb(116,5,90)"/>
<path d="M14 8h2v2h-2v-2z" fill="rgb(254,127,230)"/>
<path d="M16 8h2v2h-2v-2z" fill="rgb(255,25,176)"/>
<path d="M18 8h2v2h-2v-2z" fill="rgb(254,191,243)"/>
<path d="M20 8h2v2h-2v-2z" fill="rgb(254,127,230)"/>
<path d="M0 10h2v2h-2v-2z" fill="rgb(158,5,122)"/>
<path d="M2 10h2v2h-2v-2z" fill="rgb(254,191,243)"/>
<path d="M4 10h2v2h-2v-2z" fill="rgb(62,49,81)"/>
<path d="M6 10h2v2h-2v-2z" fill="rgb(255,25,176)"/>
<path d="M8 10h2v2h-2v-2z" fill="rgb(95,64,97)"/>
<path d="M10 10h2v2h-2v-2z" fill="rgb(255,25,176)"/>
<path d="M12 10h2v2h-2v-2z" fill="rgb(254,127,230)"/>
<path d="M14 10h2v2h-2v-2z" fill="rgb(255,25,176)"/>
<path d="M16 10h2v2h-2v-2z" fill="rgb(95,64,97)"/>
<path d="M18 10h2v2h-2v-2z" fill="rgb(255,25,176)"/>
<path d="M20 10h2v2h-2v-2z" fill="rgb(62,49,81)"/>
<path d="M22 10h2v2h-2v-2z" fill="rgb(254,191,243)"/>
<path d="M24 10h2v2h-2v-2z" fill="rgb(158,5,122)"/>
<path d="M0 12h2v4h-2v-4z" fill="rgb(255,255,255)"/>
<path d="M2 12h2v2h-2v-2z" fill="rgb(116,5,90)"/>
<path d="M4 12h2v2h-2v-2z" fill="rgb(255,25,176)"/>
<path d="M6 12h2v2h-2v-2z" fill="rgb(159,118,148)"/>
<path d="M8 12h2v2h-2v-2z" fill="rgb(254,191,243)"/>
<path d="M10 12h2v2h-2v-2z" fill="rgb(95,64,97)"/>
<path d="M12 12h2v2h-2v-2z" fill="rgb(62,49,81)"/>
<path d="M14 12h2v2h-2v-2z" fill="rgb(95,64,97)"/>
<path d="M16 12h2v2h-2v-2z" fill="rgb(254,191,243)"/>
<path d="M18 12h2v2h-2v-2z" fill="rgb(159,118,148)"/>
<path d="M20 12h2v2h-2v-2z" fill="rgb(255,25,176)"/>
<path d="M22 12h2v2h-2v-2z" fill="rgb(116,5,90)"/>
<path d="M24 12h2v4h-2v-4z" fill="rgb(255,255,255)"/>
<path d="M2 14h2v2h-2v-2z" fill="rgb(158,5,122)"/>
<path d="M4 14h2v2h-2v-2z" fill="rgb(116,5,90)"/>
<path d="M6 14h2v2h-2v-2z" fill="rgb(125,91,123)"/>
<path d="M8 14h2v2h-2v-2z" fill="rgb(254,127,230)"/>
<path d="M10 14h2v2h-2v-2z" fill="rgb(62,49,81)"/>
<path d="M12 14h2v2h-2v-2z" fill="rgb(254,127,230)"/>
<path d="M14 14h2v2h-2v-2z" fill="rgb(62,49,81)"/>
<path d="M16 14h2v2h-2v-2z" fill="rgb(254,127,230)"/>
<path d="M18 14h2v2h-2v-2z" fill="rgb(125,91,123)"/>
<path d="M20 14h2v2h-2v-2z" fill="rgb(30,2,6)"/>
<path d="M22 14h2v2h-2v-2z" fill="rgb(158,5,122)"/>
<path d="M0 16h2v2h-2v-2z" fill="rgb(158,5,122)"/>
<path d="M2 16h2v2h-2v-2z" fill="rgb(254,127,230)"/>
<path d="M4 16h2v4h-2v-4z" fill="rgb(0,0,0)"/>
<path d="M6 16h2v2h-2v-2z" fill="rgb(95,64,97)"/>
<path d="M8 16h2v2h-2v-2z" fill="rgb(62,49,81)"/>
<path d="M10 16h2v2h-2v-2z" fill="rgb(159,118,148)"/>
<path d="M12 16h2v2h-2v-2z" fill="rgb(62,49,81)"/>
<path d="M14 16h2v2h-2v-2z" fill="rgb(125,91,123)"/>
<path d="M16 16h2v2h-2v-2z" fill="rgb(62,49,81)"/>
<path d="M18 16h2v2h-2v-2z" fill="rgb(95,64,97)"/>
<path d="M20 16h2v4h-2v-4z" fill="rgb(0,0,0)"/>
<path d="M22 16h2v2h-2v-2z" fill="rgb(254,127,230)"/>
<path d="M24 16h2v2h-2v-2z" fill="rgb(158,5,122)"/>
<path d="M0 18h2v2h2v8h2v-4h2v6h-8v-12z" fill="rgb(255,255,255)"/>
<path d="M2 18h2v2h-2v-2z" fill="rgb(158,5,122)"/>
<path d="M6 18h2v2h-2v-2z" fill="rgb(62,49,81)"/>
<path d="M8 18h2v2h-2v-2z" fill="rgb(159,118,148)"/>
<path d="M10 18h2v2h-2v-2z" fill="rgb(201,147,187)"/>
<path d="M12 18h2v6h-2v-6z" fill="rgb(125,91,123)"/>
<path d="M14 18h2v2h-2v-2z" fill="rgb(159,118,148)"/>
<path d="M16 18h2v4h-2v-4z" fill="rgb(95,64,97)"/>
<path d="M18 18h2v2h-2v-2z" fill="rgb(62,49,81)"/>
<path d="M22 18h2v2h-2v-2z" fill="rgb(158,5,122)"/>
<path d="M24 18h2v12h-8v-6h2v4h2v-8h2v-2z" fill="rgb(255,255,255)"/>
<path d="M4 20h2v2h-2v-2z" fill="rgb(34,85,135)"/>
<path d="M6 20h2v4h-2v-4z" fill="rgb(0,0,0)"/>
<path d="M8 20h2v2h-2v-2z" fill="rgb(95,64,97)"/>
<path d="M10 20h2v2h-2v-2z" fill="rgb(159,118,148)"/>
<path d="M14 20h2v2h-2v-2z" fill="rgb(201,147,187)"/>
<path d="M18 20h2v4h-2v-4z" fill="rgb(0,0,0)"/>
<path d="M20 20h2v2h-2v-2z" fill="rgb(34,85,135)"/>
<path d="M4 22h2v2h-2v-2z" fill="rgb(74,140,167)"/>
<path d="M8 22h2v2h-2v-2z" fill="rgb(62,49,81)"/>
<path d="M10 22h2v2h-2v-2z" fill="rgb(95,64,97)"/>
<path d="M14 22h2v2h-2v-2z" fill="rgb(95,64,97)"/>
<path d="M16 22h2v2h-2v-2z" fill="rgb(62,49,81)"/>
<path d="M20 22h2v2h-2v-2z" fill="rgb(74,140,167)"/>
<path d="M4 24h2v4h-2v-4z" fill="rgb(120,201,204)"/>
<path d="M8 24h2v2h-2v-2z" fill="rgb(0,0,0)"/>
<path d="M10 24h2v2h-2v-2z" fill="rgb(62,49,81)"/>
<path d="M12 24h2v2h-2v-2z" fill="rgb(159,118,148)"/>
<path d="M14 24h2v2h-2v-2z" fill="rgb(62,49,81)"/>
<path d="M16 24h2v2h-2v-2z" fill="rgb(0,0,0)"/>
<path d="M20 24h2v4h-2v-4z" fill="rgb(120,201,204)"/>
<path d="M8 26h2v2h-2v-2z" fill="rgb(74,140,167)"/>
<path d="M10 26h2v2h-2v-2z" fill="rgb(0,0,0)"/>
<path d="M12 26h2v2h-2v-2z" fill="rgb(62,49,81)"/>
<path d="M14 26h2v2h-2v-2z" fill="rgb(0,0,0)"/>
<path d="M16 26h2v2h-2v-2z" fill="rgb(74,140,167)"/>
<path d="M8 28h2v2h-2v-2z" fill="rgb(120,201,204)"/>
<path d="M10 28h2v2h-2v-2z" fill="rgb(255,255,255)"/>
<path d="M12 28h2v2h-2v-2z" fill="rgb(0,0,0)"/>
<path d="M14 28h2v2h-2v-2z" fill="rgb(255,255,255)"/>
<path d="M16 28h2v2h-2v-2z" fill="rgb(120,201,204)"/>
</svg>