<?xml version="1.0" encoding="utf-8"?>
<!-- generated at drububu.com  -->
<!DOCTYPE svg PUBLIC "-//W3C//DTD SVG 1.1//EN" "http://www.w3.org/Graphics/SVG/1.1/DTD/svg11.dtd">
<svg version="1.1" preserveAspectRatio="xMinYMin meet" xmlns="http://www.w3.org/2000/svg" xmlns:xlink="http://www.w3.org/1999/xlink" x="0px" y="0px" width="28px" height="30px" viewBox="0 0 28 30">
<path d="M0 0h12v2h-4v2h-4v4h2v4h-2v2h-2v2h-2v-16z" fill="rgb(255,255,255)"/>
<path d="M12 0h4v2h-4v-2z" fill="rgb(58,70,71)"/>
<path d="M16 0h12v16h-2v-2h-2v-2h-2v-4h2v-2h-2v-2h-2v-2h-4v-2z" fill="rgb(255,255,255)"/>
<path d="M8 2h2v2h-2v-2z" fill="rgb(19,31,35)"/>
<path d="M10 2h2v2h-2v-2z" fill="rgb(58,70,71)"/>
<path d="M12 2h4v2h-4v-2z" fill="rgb(173,183,184)"/>
<path d="M16 2h2v2h-2v-2z" fill="rgb(58,70,71)"/>
<path d="M18 2h2v2h-2v-2z" fill="rgb(19,31,35)"/>
<path d="M4 4h2v4h-2v-4z" fill="rgb(19,31,35)"/>
<path d="M6 4h2v2h-2v-2z" fill="rgb(58,70,71)"/>
<path d="M8 4h2v2h-2v-2z" fill="rgb(94,109,112)"/>
<path d="M10 4h2v2h-2v-2z" fill="rgb(173,183,184)"/>
<path d="M12 4h4v2h-4v-2z" fill="rgb(94,109,112)"/>
<path d="M16 4h2v2h-2v-2z" fill="rgb(173,183,184)"/>
<path d="M18 4h2v2h-2v-2z" fill="rgb(94,109,112)"/>
<path d="M20 4h2v2h-2v-2z" fill="rgb(58,70,71)"/>
<path d="M6 6h2v2h-2v-2z" fill="rgb(173,183,184)"/>
<path d="M8 6h2v2h-2v-2z" fill="rgb(19,31,35)"/>
<path d="M10 6h2v2h-2v-2z" fill="rgb(94,109,112)"/>
<path d="M12 6h2v2h-2v-2z" fill="rgb(255,235,254)"/>
<path d="M14 6h2v2h-2v-2z" fill="rgb(255,177,245)"/>
<path d="M16 6h2v2h-2v-2z" fill="rgb(94,109,112)"/>
<path d="M18 6h2v2h-2v-2z" fill="rgb(19,31,35)"/>
<path d="M20 6h2v2h-2v-2z" fill="rgb(173,183,184)"/>
<path d="M22 6h2v2h-2v-2z" fill="rgb(19,31,35)"/>
<path d="M6 8h2v2h-2v-2z" fill="rgb(58,70,71)"/>
<path d="M8 8h2v2h-2v-2z" fill="rgb(173,183,184)"/>
<path d="M10 8h2v2h-2v-2z" fill="rgb(246,249,250)"/>
<path d="M12 8h2v2h-2v-2z" fill="rgb(255,177,245)"/>
<path d="M14 8h2v2h-2v-2z" fill="rgb(191,56,166)"/>
<path d="M16 8h2v2h-2v-2z" fill="rgb(246,249,250)"/>
<path d="M18 8h2v2h-2v-2z" fill="rgb(173,183,184)"/>
<path d="M20 8h2v2h-2v-2z" fill="rgb(19,31,35)"/>
<path d="M6 10h2v2h-2v-2z" fill="rgb(64,20,87)"/>
<path d="M8 10h2v2h-2v-2z" fill="rgb(19,31,35)"/>
<path d="M10 10h2v2h-2v-2z" fill="rgb(58,70,71)"/>
<path d="M12 10h4v2h-4v-2z" fill="rgb(123,17,103)"/>
<path d="M16 10h2v2h-2v-2z" fill="rgb(58,70,71)"/>
<path d="M18 10h2v2h-2v-2z" fill="rgb(19,31,35)"/>
<path d="M20 10h2v2h-2v-2z" fill="rgb(135,61,164)"/>
<path d="M4 12h2v2h-2v-2z" fill="rgb(64,20,87)"/>
<path d="M6 12h2v2h-2v-2z" fill="rgb(135,61,164)"/>
<path d="M8 12h2v2h-2v-2z" fill="rgb(180,87,195)"/>
<path d="M10 12h4v2h-2v2h-2v4h2v2h2v2h6v-2h2v-2h2v-4h2v6h-2v2h-2v2h-12v-2h-2v-2
	h-2v-6h2v-2h2v-2z" fill="rgb(247,119,228)"/>
<path d="M14 12h6v2h-4v2h-2v2h2v2h4v-2h2v-2h2v4h-2v2h-2v2h-6v-2h-2v-2h-2v-4h2
	v-2h2v-2z" fill="rgb(245,163,235)"/>
<path d="M20 12h2v2h-2v-2z" fill="rgb(247,119,228)"/>
<path d="M22 12h2v2h-2v-2z" fill="rgb(135,61,164)"/>
<path d="M2 14h2v2h-2v-2z" fill="rgb(64,20,87)"/>
<path d="M4 14h2v2h-2v-2z" fill="rgb(135,61,164)"/>
<path d="M6 14h2v2h-2v-2z" fill="rgb(180,87,195)"/>
<path d="M16 14h4v2h2v2h-2v2h-4v-2h-2v-2h2v-2z" fill="rgb(249,213,244)"/>
<path d="M20 14h2v2h-2v-2z" fill="rgb(245,163,235)"/>
<path d="M22 14h2v2h-2v-2z" fill="rgb(247,119,228)"/>
<path d="M24 14h2v2h-2v-2z" fill="rgb(135,61,164)"/>
<path d="M0 16h2v10h-2v-10z" fill="rgb(64,20,87)"/>
<path d="M2 16h2v2h-2v-2z" fill="rgb(135,61,164)"/>
<path d="M4 16h2v4h-2v6h-2v-8h2v-2z" fill="rgb(180,87,195)"/>
<path d="M26 16h2v4h-2v-4z" fill="rgb(135,61,164)"/>
<path d="M4 20h2v4h2v2h2v2h-4v-2h-2v-6z" fill="rgb(135,61,164)"/>
<path d="M26 20h2v6h-2v-6z" fill="rgb(64,20,87)"/>
<path d="M6 22h2v2h-2v-2z" fill="rgb(180,87,195)"/>
<path d="M24 22h2v2h-2v-2z" fill="rgb(180,87,195)"/>
<path d="M8 24h2v2h-2v-2z" fill="rgb(180,87,195)"/>
<path d="M22 24h2v2h-2v-2z" fill="rgb(180,87,195)"/>
<path d="M24 24h2v2h-2v-2z" fill="rgb(135,61,164)"/>
<path d="M0 26h2v2h2v2h-4v-4z" fill="rgb(255,255,255)"/>
<path d="M2 26h2v2h-2v-2z" fill="rgb(64,20,87)"/>
<path d="M4 26h2v2h-2v-2z" fill="rgb(180,87,195)"/>
<path d="M10 26h12v2h-12v-2z" fill="rgb(180,87,195)"/>
<path d="M22 26h2v2h-2v-2z" fill="rgb(135,61,164)"/>
<path d="M24 26h2v2h-2v-2z" fill="rgb(64,20,87)"/>
<path d="M26 26h2v4h-4v-2h2v-2z" fill="rgb(255,255,255)"/>
<path d="M4 28h20v2h-20v-2z" fill="rgb(64,20,87)"/>
</svg>