<?xml version="1.0" encoding="utf-8"?>
<!-- generated at drububu.com  -->
<!DOCTYPE svg PUBLIC "-//W3C//DTD SVG 1.1//EN" "http://www.w3.org/Graphics/SVG/1.1/DTD/svg11.dtd">
<svg version="1.1" preserveAspectRatio="xMinYMin meet" xmlns="http://www.w3.org/2000/svg" xmlns:xlink="http://www.w3.org/1999/xlink" x="0px" y="0px" width="30px" height="30px" viewBox="0 0 30 30">
<path d="M0 0h2v6h2v2h-4v-8z" fill="rgb(255,255,255)"/>
<path d="M2 0h4v2h-2v4h-2v-6z" fill="rgb(49,86,102)"/>
<path d="M6 0h6v2h-2v2h-2v-2h-2v-2z" fill="rgb(255,255,255)"/>
<path d="M12 0h6v2h-6v-2z" fill="rgb(49,86,102)"/>
<path d="M18 0h6v2h-2v2h-2v-2h-2v-2z" fill="rgb(255,255,255)"/>
<path d="M24 0h4v6h-2v-4h-2v-2z" fill="rgb(49,86,102)"/>
<path d="M28 0h2v8h-4v-2h2v-6z" fill="rgb(255,255,255)"/>
<path d="M4 2h2v2h-2v-2z" fill="rgb(233,254,255)"/>
<path d="M6 2h2v2h-2v-2z" fill="rgb(49,86,102)"/>
<path d="M10 2h2v2h-2v-2z" fill="rgb(49,86,102)"/>
<path d="M12 2h2v2h-2v-2z" fill="rgb(176,217,219)"/>
<path d="M14 2h4v2h-4v-2z" fill="rgb(120,188,218)"/>
<path d="M18 2h2v2h-2v-2z" fill="rgb(49,86,102)"/>
<path d="M22 2h2v2h-2v-2z" fill="rgb(49,86,102)"/>
<path d="M24 2h2v2h-2v-2z" fill="rgb(233,254,255)"/>
<path d="M4 4h2v2h-2v-2z" fill="rgb(176,217,219)"/>
<path d="M6 4h2v2h-2v-2z" fill="rgb(233,254,255)"/>
<path d="M8 4h2v2h-2v-2z" fill="rgb(49,86,102)"/>
<path d="M10 4h2v2h-2v-2z" fill="rgb(176,217,219)"/>
<path d="M12 4h6v4h-2v-2h-2v2h-2v-4z" fill="rgb(98,155,180)"/>
<path d="M18 4h2v2h-2v-2z" fill="rgb(120,188,218)"/>
<path d="M20 4h2v2h-2v-2z" fill="rgb(49,86,102)"/>
<path d="M22 4h2v2h-2v-2z" fill="rgb(233,254,255)"/>
<path d="M24 4h2v2h-2v-2z" fill="rgb(176,217,219)"/>
<path d="M4 6h2v4h-4v2h-2v-4h4v-2z" fill="rgb(49,86,102)"/>
<path d="M6 6h2v2h-2v-2z" fill="rgb(176,217,219)"/>
<path d="M8 6h2v2h-2v-2z" fill="rgb(233,254,255)"/>
<path d="M10 6h2v2h-2v-2z" fill="rgb(49,86,102)"/>
<path d="M14 6h2v2h-2v-2z" fill="rgb(176,217,219)"/>
<path d="M18 6h2v2h-2v-2z" fill="rgb(49,86,102)"/>
<path d="M20 6h2v2h-2v-2z" fill="rgb(233,254,255)"/>
<path d="M22 6h2v2h-2v-2z" fill="rgb(176,217,219)"/>
<path d="M24 6h2v2h4v4h-2v-2h-4v-4z" fill="rgb(49,86,102)"/>
<path d="M6 8h2v2h-2v-2z" fill="rgb(98,155,180)"/>
<path d="M8 8h2v2h-2v-2z" fill="rgb(176,217,219)"/>
<path d="M10 8h2v2h-2v-2z" fill="rgb(98,155,180)"/>
<path d="M12 8h2v2h-2v-2z" fill="rgb(176,217,219)"/>
<path d="M14 8h2v2h-2v-2z" fill="rgb(49,86,102)"/>
<path d="M16 8h2v2h-2v-2z" fill="rgb(176,217,219)"/>
<path d="M18 8h2v2h-2v-2z" fill="rgb(98,155,180)"/>
<path d="M20 8h2v2h-2v-2z" fill="rgb(176,217,219)"/>
<path d="M22 8h2v2h-2v-2z" fill="rgb(98,155,180)"/>
<path d="M2 10h4v2h-4v-2z" fill="rgb(233,254,255)"/>
<path d="M6 10h2v2h-2v-2z" fill="rgb(176,217,219)"/>
<path d="M8 10h2v2h-2v-2z" fill="rgb(98,155,180)"/>
<path d="M10 10h2v2h-2v-2z" fill="rgb(176,217,219)"/>
<path d="M12 10h2v4h-2v-4z" fill="rgb(49,86,102)"/>
<path d="M14 10h2v2h-2v-2z" fill="rgb(233,254,255)"/>
<path d="M16 10h2v4h-2v-4z" fill="rgb(49,86,102)"/>
<path d="M18 10h2v2h-2v-2z" fill="rgb(176,217,219)"/>
<path d="M20 10h2v2h-2v-2z" fill="rgb(98,155,180)"/>
<path d="M22 10h2v2h-2v-2z" fill="rgb(176,217,219)"/>
<path d="M24 10h4v2h-4v-2z" fill="rgb(233,254,255)"/>
<path d="M0 12h2v2h2v6h-2v2h2v2h4v2h2v2h2v2h-12v-18z" fill="rgb(255,255,255)"/>
<path d="M2 12h2v2h-2v-2z" fill="rgb(49,86,102)"/>
<path d="M4 12h2v2h-2v-2z" fill="rgb(176,217,219)"/>
<path d="M6 12h2v2h-2v-2z" fill="rgb(233,254,255)"/>
<path d="M8 12h2v2h-2v-2z" fill="rgb(176,217,219)"/>
<path d="M10 12h2v2h-2v-2z" fill="rgb(98,155,180)"/>
<path d="M14 12h2v2h-2v-2z" fill="rgb(120,188,218)"/>
<path d="M18 12h2v2h-2v-2z" fill="rgb(98,155,180)"/>
<path d="M20 12h2v2h-2v-2z" fill="rgb(176,217,219)"/>
<path d="M22 12h2v2h-2v-2z" fill="rgb(233,254,255)"/>
<path d="M24 12h2v2h-2v-2z" fill="rgb(176,217,219)"/>
<path d="M26 12h2v2h-2v-2z" fill="rgb(49,86,102)"/>
<path d="M28 12h2v18h-12v-2h2v-2h2v-2h4v-2h2v-2h-2v-6h2v-2z" fill="rgb(255,255,255)"/>
<path d="M4 14h2v6h-2v-6z" fill="rgb(49,86,102)"/>
<path d="M6 14h2v6h-2v-6z" fill="rgb(98,155,180)"/>
<path d="M8 14h2v2h-2v-2z" fill="rgb(233,254,255)"/>
<path d="M10 14h2v2h-2v-2z" fill="rgb(176,217,219)"/>
<path d="M12 14h2v6h-2v-6z" fill="rgb(98,155,180)"/>
<path d="M14 14h2v2h-2v-2z" fill="rgb(49,86,102)"/>
<path d="M16 14h2v4h-2v-4z" fill="rgb(98,155,180)"/>
<path d="M18 14h2v2h-2v-2z" fill="rgb(176,217,219)"/>
<path d="M20 14h2v2h-2v-2z" fill="rgb(233,254,255)"/>
<path d="M22 14h2v2h-2v-2z" fill="rgb(120,188,218)"/>
<path d="M24 14h2v6h-2v-6z" fill="rgb(49,86,102)"/>
<path d="M8 16h4v2h-4v-2z" fill="rgb(49,86,102)"/>
<path d="M14 16h2v4h-2v-4z" fill="rgb(176,217,219)"/>
<path d="M18 16h4v2h-4v-2z" fill="rgb(49,86,102)"/>
<path d="M22 16h2v4h-2v-4z" fill="rgb(98,155,180)"/>
<path d="M8 18h2v4h-2v-4z" fill="rgb(233,254,255)"/>
<path d="M10 18h2v4h-2v-4z" fill="rgb(176,217,219)"/>
<path d="M16 18h2v2h-2v-2z" fill="rgb(120,188,218)"/>
<path d="M18 18h2v4h-2v-4z" fill="rgb(176,217,219)"/>
<path d="M20 18h2v4h-2v-4z" fill="rgb(233,254,255)"/>
<path d="M2 20h2v2h-2v-2z" fill="rgb(49,86,102)"/>
<path d="M4 20h2v2h-2v-2z" fill="rgb(120,188,218)"/>
<path d="M6 20h2v2h-2v-2z" fill="rgb(49,86,102)"/>
<path d="M12 20h2v2h-2v-2z" fill="rgb(120,188,218)"/>
<path d="M14 20h2v4h-2v-4z" fill="rgb(233,254,255)"/>
<path d="M16 20h2v2h-2v-2z" fill="rgb(49,86,102)"/>
<path d="M22 20h2v2h-2v-2z" fill="rgb(49,86,102)"/>
<path d="M24 20h2v2h-2v-2z" fill="rgb(120,188,218)"/>
<path d="M26 20h2v2h-2v-2z" fill="rgb(49,86,102)"/>
<path d="M4 22h2v2h-2v-2z" fill="rgb(49,86,102)"/>
<path d="M6 22h2v2h-2v-2z" fill="rgb(34,65,78)"/>
<path d="M8 22h2v2h-2v-2z" fill="rgb(98,155,180)"/>
<path d="M10 22h2v2h-2v-2z" fill="rgb(233,254,255)"/>
<path d="M12 22h2v4h-2v-4z" fill="rgb(176,217,219)"/>
<path d="M16 22h2v2h-2v-2z" fill="rgb(98,155,180)"/>
<path d="M18 22h2v2h-2v-2z" fill="rgb(233,254,255)"/>
<path d="M20 22h2v2h-2v-2z" fill="rgb(98,155,180)"/>
<path d="M22 22h2v2h-2v-2z" fill="rgb(34,65,78)"/>
<path d="M24 22h2v2h-2v-2z" fill="rgb(49,86,102)"/>
<path d="M8 24h2v2h-2v-2z" fill="rgb(34,65,78)"/>
<path d="M10 24h2v2h-2v-2z" fill="rgb(98,155,180)"/>
<path d="M14 24h2v2h-2v-2z" fill="rgb(98,155,180)"/>
<path d="M16 24h2v2h-2v-2z" fill="rgb(176,217,219)"/>
<path d="M18 24h2v2h-2v-2z" fill="rgb(98,155,180)"/>
<path d="M20 24h2v2h-2v-2z" fill="rgb(34,65,78)"/>
<path d="M10 26h2v2h-2v-2z" fill="rgb(34,65,78)"/>
<path d="M12 26h2v2h-2v-2z" fill="rgb(98,155,180)"/>
<path d="M14 26h2v2h-2v-2z" fill="rgb(176,217,219)"/>
<path d="M16 26h2v2h-2v-2z" fill="rgb(98,155,180)"/>
<path d="M18 26h2v2h-2v-2z" fill="rgb(34,65,78)"/>
<path d="M12 28h6v2h-6v-2z" fill="rgb(34,65,78)"/>
</svg>