<?xml version="1.0" encoding="utf-8"?>
<!-- generated at drububu.com  -->
<!DOCTYPE svg PUBLIC "-//W3C//DTD SVG 1.1//EN" "http://www.w3.org/Graphics/SVG/1.1/DTD/svg11.dtd">
<svg version="1.1" preserveAspectRatio="xMinYMin meet" xmlns="http://www.w3.org/2000/svg" xmlns:xlink="http://www.w3.org/1999/xlink" x="0px" y="0px" width="30px" height="24px" viewBox="0 0 30 24">
<path d="M0 0h10v2h-2v2h-2v4h-4v2h-2v-10z" fill="rgb(255,255,255)"/>
<path d="M10 0h10v2h-10v-2z" fill="rgb(2,57,140)"/>
<path d="M20 0h10v10h-2v-2h-4v-4h-2v-2h-2v-2z" fill="rgb(255,255,255)"/>
<path d="M8 2h2v2h-2v-2z" fill="rgb(2,57,140)"/>
<path d="M10 2h4v2h-4v-2z" fill="rgb(204,245,247)"/>
<path d="M14 2h2v2h-2v-2z" fill="rgb(120,188,218)"/>
<path d="M16 2h2v2h2v4h-2v-2h-4v-2h2v-2z" fill="rgb(26,142,169)"/>
<path d="M18 2h2v2h-2v-2z" fill="rgb(120,188,218)"/>
<path d="M20 2h2v2h-2v-2z" fill="rgb(2,57,140)"/>
<path d="M6 4h2v4h-2v-4z" fill="rgb(2,57,140)"/>
<path d="M8 4h2v2h2v2h-4v-4z" fill="rgb(26,142,169)"/>
<path d="M10 4h4v2h-4v-2z" fill="rgb(120,188,218)"/>
<path d="M20 4h2v4h-2v-4z" fill="rgb(120,188,218)"/>
<path d="M22 4h2v4h-2v-4z" fill="rgb(2,57,140)"/>
<path d="M12 6h2v2h-2v-2z" fill="rgb(192,213,49)"/>
<path d="M14 6h2v2h-2v-2z" fill="rgb(189,254,196)"/>
<path d="M16 6h2v2h-2v-2z" fill="rgb(192,213,49)"/>
<path d="M2 8h6v2h-6v-2z" fill="rgb(46,46,46)"/>
<path d="M8 8h4v2h-4v-2z" fill="rgb(2,57,140)"/>
<path d="M12 8h2v2h-2v-2z" fill="rgb(62,66,96)"/>
<path d="M14 8h2v2h-2v-2z" fill="rgb(104,127,146)"/>
<path d="M16 8h2v2h-2v-2z" fill="rgb(62,66,96)"/>
<path d="M18 8h4v2h-4v-2z" fill="rgb(2,57,140)"/>
<path d="M22 8h6v2h-6v-2z" fill="rgb(46,46,46)"/>
<path d="M0 10h2v2h-2v-2z" fill="rgb(46,46,46)"/>
<path d="M2 10h2v2h-2v-2z" fill="rgb(211,211,211)"/>
<path d="M4 10h2v2h-2v-2z" fill="rgb(166,167,166)"/>
<path d="M6 10h2v2h-2v-2z" fill="rgb(192,213,49)"/>
<path d="M8 10h4v2h-4v-2z" fill="rgb(124,124,124)"/>
<path d="M12 10h2v2h-2v-2z" fill="rgb(104,127,146)"/>
<path d="M14 10h2v2h-2v-2z" fill="rgb(97,201,226)"/>
<path d="M16 10h2v2h-2v-2z" fill="rgb(104,127,146)"/>
<path d="M18 10h2v2h-2v-2z" fill="rgb(62,66,96)"/>
<path d="M20 10h2v2h-2v-2z" fill="rgb(124,124,124)"/>
<path d="M22 10h2v2h-2v-2z" fill="rgb(166,167,166)"/>
<path d="M24 10h2v2h-2v-2z" fill="rgb(192,213,49)"/>
<path d="M26 10h2v2h-2v-2z" fill="rgb(211,211,211)"/>
<path d="M28 10h2v2h-2v-2z" fill="rgb(46,46,46)"/>
<path d="M0 12h2v6h2v2h2v-2h2v2h2v2h2v2h-12v-12z" fill="rgb(255,255,255)"/>
<path d="M2 12h2v4h-2v-4z" fill="rgb(46,46,46)"/>
<path d="M4 12h2v2h-2v-2z" fill="rgb(62,66,96)"/>
<path d="M6 12h2v2h-2v-2z" fill="rgb(124,124,124)"/>
<path d="M8 12h2v2h-2v-2z" fill="rgb(166,167,166)"/>
<path d="M10 12h2v2h-2v-2z" fill="rgb(192,213,49)"/>
<path d="M12 12h2v2h-2v-2z" fill="rgb(211,211,211)"/>
<path d="M14 12h2v2h-2v-2z" fill="rgb(104,127,146)"/>
<path d="M16 12h2v2h-2v-2z" fill="rgb(62,66,96)"/>
<path d="M18 12h2v2h-2v-2z" fill="rgb(124,124,124)"/>
<path d="M20 12h2v2h-2v-2z" fill="rgb(192,213,49)"/>
<path d="M22 12h2v2h-2v-2z" fill="rgb(124,124,124)"/>
<path d="M24 12h2v2h-2v-2z" fill="rgb(62,66,96)"/>
<path d="M26 12h2v4h-2v-4z" fill="rgb(46,46,46)"/>
<path d="M28 12h2v12h-12v-2h2v-2h2v-2h2v2h2v-2h2v-6z" fill="rgb(255,255,255)"/>
<path d="M4 14h2v2h-2v-2z" fill="rgb(166,167,166)"/>
<path d="M6 14h4v2h-4v-2z" fill="rgb(62,66,96)"/>
<path d="M10 14h10v2h-10v-2z" fill="rgb(46,46,46)"/>
<path d="M20 14h4v2h-4v-2z" fill="rgb(62,66,96)"/>
<path d="M24 14h2v2h-2v-2z" fill="rgb(166,167,166)"/>
<path d="M2 16h2v2h-2v-2z" fill="rgb(240,168,3)"/>
<path d="M4 16h2v2h-2v-2z" fill="rgb(255,255,129)"/>
<path d="M6 16h2v2h-2v-2z" fill="rgb(46,46,46)"/>
<path d="M8 16h2v2h-2v-2z" fill="rgb(26,142,169)"/>
<path d="M10 16h2v2h-2v-2z" fill="rgb(84,97,126)"/>
<path d="M12 16h2v2h-2v-2z" fill="rgb(104,127,146)"/>
<path d="M14 16h2v2h-2v-2z" fill="rgb(97,201,226)"/>
<path d="M16 16h2v2h-2v-2z" fill="rgb(104,127,146)"/>
<path d="M18 16h2v2h-2v-2z" fill="rgb(84,97,126)"/>
<path d="M20 16h2v2h-2v-2z" fill="rgb(26,142,169)"/>
<path d="M22 16h2v2h-2v-2z" fill="rgb(46,46,46)"/>
<path d="M24 16h2v2h-2v-2z" fill="rgb(255,255,129)"/>
<path d="M26 16h2v2h-2v-2z" fill="rgb(240,168,3)"/>
<path d="M4 18h2v2h-2v-2z" fill="rgb(158,73,0)"/>
<path d="M8 18h14v2h-2v2h-2v-2h-6v2h-2v-2h-2v-2z" fill="rgb(46,46,46)"/>
<path d="M24 18h2v2h-2v-2z" fill="rgb(158,73,0)"/>
<path d="M12 20h2v2h-2v-2z" fill="rgb(211,211,211)"/>
<path d="M14 20h2v2h-2v-2z" fill="rgb(124,124,124)"/>
<path d="M16 20h2v2h-2v-2z" fill="rgb(166,167,166)"/>
<path d="M12 22h2v2h-2v-2z" fill="rgb(158,73,0)"/>
<path d="M14 22h2v2h-2v-2z" fill="rgb(240,168,3)"/>
<path d="M16 22h2v2h-2v-2z" fill="rgb(158,73,0)"/>
</svg>