<?xml version="1.0" encoding="utf-8"?>
<!-- generated at drububu.com  -->
<!DOCTYPE svg PUBLIC "-//W3C//DTD SVG 1.1//EN" "http://www.w3.org/Graphics/SVG/1.1/DTD/svg11.dtd">
<svg version="1.1" preserveAspectRatio="xMinYMin meet" xmlns="http://www.w3.org/2000/svg" xmlns:xlink="http://www.w3.org/1999/xlink" x="0px" y="0px" width="30px" height="30px" viewBox="0 0 30 30">
<path d="M0 0h8v2h-2v2h-2v4h-2v2h-2v-10z" fill="rgb(255,255,255)"/>
<path d="M8 0h16v2h-16v-2z" fill="rgb(28,3,3)"/>
<path d="M24 0h6v6h-2v-2h-2v-2h-2v-2z" fill="rgb(255,255,255)"/>
<path d="M6 2h2v2h-2v-2z" fill="rgb(28,3,3)"/>
<path d="M8 2h2v4h-2v-4z" fill="rgb(237,22,22)"/>
<path d="M10 2h6v2h-6v-2z" fill="rgb(231,89,92)"/>
<path d="M16 2h2v2h-2v-2z" fill="rgb(237,22,22)"/>
<path d="M18 2h2v2h-2v-2z" fill="rgb(231,89,92)"/>
<path d="M20 2h4v2h-2v2h-4v-2h2v-2z" fill="rgb(237,22,22)"/>
<path d="M24 2h2v2h-2v-2z" fill="rgb(28,3,3)"/>
<path d="M4 4h2v4h-2v-4z" fill="rgb(28,3,3)"/>
<path d="M6 4h2v2h-2v-2z" fill="rgb(197,8,10)"/>
<path d="M10 4h8v2h-8v-2z" fill="rgb(105,17,20)"/>
<path d="M22 4h4v2h-4v-2z" fill="rgb(197,8,10)"/>
<path d="M26 4h2v2h-2v-2z" fill="rgb(28,3,3)"/>
<path d="M6 6h4v2h-4v-2z" fill="rgb(105,17,20)"/>
<path d="M10 6h2v2h-2v-2z" fill="rgb(124,124,124)"/>
<path d="M12 6h4v2h2v2h-8v-2h2v-2z" fill="rgb(211,211,211)"/>
<path d="M16 6h2v2h-2v-2z" fill="rgb(124,124,124)"/>
<path d="M18 6h6v2h-6v-2z" fill="rgb(105,17,20)"/>
<path d="M24 6h4v4h-2v-2h-2v-2z" fill="rgb(129,24,26)"/>
<path d="M28 6h2v8h-2v-8z" fill="rgb(28,3,3)"/>
<path d="M2 8h2v2h-2v-2z" fill="rgb(49,49,49)"/>
<path d="M4 8h2v2h-2v-2z" fill="rgb(124,124,124)"/>
<path d="M6 8h2v2h-2v-2z" fill="rgb(211,211,211)"/>
<path d="M8 8h2v2h-2v-2z" fill="rgb(166,167,166)"/>
<path d="M18 8h2v2h-2v-2z" fill="rgb(166,167,166)"/>
<path d="M20 8h2v2h-2v-2z" fill="rgb(211,211,211)"/>
<path d="M22 8h2v2h-2v-2z" fill="rgb(124,124,124)"/>
<path d="M24 8h2v2h-2v-2z" fill="rgb(105,17,20)"/>
<path d="M0 10h2v4h-2v-4z" fill="rgb(49,49,49)"/>
<path d="M2 10h2v4h-2v-4z" fill="rgb(124,124,124)"/>
<path d="M4 10h2v2h-2v-2z" fill="rgb(211,211,211)"/>
<path d="M6 10h2v2h-2v-2z" fill="rgb(166,167,166)"/>
<path d="M8 10h2v2h-2v-2z" fill="rgb(124,124,124)"/>
<path d="M10 10h8v2h-8v-2z" fill="rgb(28,3,3)"/>
<path d="M18 10h2v2h-2v-2z" fill="rgb(124,124,124)"/>
<path d="M20 10h4v2h-4v-2z" fill="rgb(166,167,166)"/>
<path d="M24 10h2v4h-2v-4z" fill="rgb(124,124,124)"/>
<path d="M26 10h2v4h-2v-4z" fill="rgb(49,49,49)"/>
<path d="M4 12h6v2h-6v-2z" fill="rgb(28,3,3)"/>
<path d="M10 12h8v4h-2v-2h-4v2h-2v-4z" fill="rgb(105,17,20)"/>
<path d="M18 12h6v2h-6v-2z" fill="rgb(28,3,3)"/>
<path d="M0 14h2v6h-2v-6z" fill="rgb(255,255,255)"/>
<path d="M2 14h2v6h-2v-6z" fill="rgb(28,3,3)"/>
<path d="M4 14h2v2h-2v-2z" fill="rgb(105,17,20)"/>
<path d="M6 14h2v2h-2v-2z" fill="rgb(255,188,57)"/>
<path d="M8 14h2v2h-2v-2z" fill="rgb(255,255,0)"/>
<path d="M12 14h4v2h-4v-2z" fill="rgb(175,105,74)"/>
<path d="M18 14h2v2h-2v-2z" fill="rgb(255,255,0)"/>
<path d="M20 14h2v2h-2v-2z" fill="rgb(255,188,57)"/>
<path d="M22 14h2v2h-2v-2z" fill="rgb(105,17,20)"/>
<path d="M24 14h2v6h-2v-6z" fill="rgb(28,3,3)"/>
<path d="M26 14h2v2h-2v-2z" fill="rgb(124,124,124)"/>
<path d="M28 14h2v4h-2v-4z" fill="rgb(49,49,49)"/>
<path d="M4 16h2v2h-2v-2z" fill="rgb(226,173,112)"/>
<path d="M6 16h2v2h-2v-2z" fill="rgb(175,105,74)"/>
<path d="M8 16h2v2h-2v-2z" fill="rgb(255,188,57)"/>
<path d="M10 16h2v2h-2v-2z" fill="rgb(255,255,0)"/>
<path d="M12 16h4v4h-2v-2h-2v-2z" fill="rgb(226,173,112)"/>
<path d="M16 16h2v2h-2v-2z" fill="rgb(255,255,0)"/>
<path d="M18 16h2v2h-2v-2z" fill="rgb(255,188,57)"/>
<path d="M20 16h2v2h-2v-2z" fill="rgb(175,105,74)"/>
<path d="M22 16h2v2h-2v-2z" fill="rgb(226,173,112)"/>
<path d="M26 16h2v2h-2v-2z" fill="rgb(211,211,211)"/>
<path d="M4 18h2v2h-2v-2z" fill="rgb(226,140,112)"/>
<path d="M6 18h2v2h-2v-2z" fill="rgb(226,173,112)"/>
<path d="M8 18h2v2h-2v-2z" fill="rgb(175,105,74)"/>
<path d="M10 18h2v2h-2v-2z" fill="rgb(49,49,49)"/>
<path d="M12 18h2v2h-2v-2z" fill="rgb(211,211,211)"/>
<path d="M16 18h2v2h-2v-2z" fill="rgb(49,49,49)"/>
<path d="M18 18h2v2h-2v-2z" fill="rgb(175,105,74)"/>
<path d="M20 18h2v2h-2v-2z" fill="rgb(226,173,112)"/>
<path d="M22 18h2v2h-2v-2z" fill="rgb(226,140,112)"/>
<path d="M26 18h2v2h-2v-2z" fill="rgb(49,49,49)"/>
<path d="M28 18h2v12h-10v-2h4v-2h2v-2h2v-6z" fill="rgb(255,255,255)"/>
<path d="M0 20h2v4h-2v-4z" fill="rgb(28,3,3)"/>
<path d="M2 20h2v2h-2v-2z" fill="rgb(173,173,173)"/>
<path d="M4 20h2v2h-2v-2z" fill="rgb(124,124,124)"/>
<path d="M6 20h2v2h-2v-2z" fill="rgb(175,105,74)"/>
<path d="M8 20h2v2h-2v-2z" fill="rgb(49,49,49)"/>
<path d="M10 20h2v2h-2v-2z" fill="rgb(211,211,211)"/>
<path d="M12 20h4v2h-4v-2z" fill="rgb(175,105,74)"/>
<path d="M16 20h2v2h-2v-2z" fill="rgb(124,124,124)"/>
<path d="M18 20h2v2h-2v-2z" fill="rgb(49,49,49)"/>
<path d="M20 20h2v2h-2v-2z" fill="rgb(175,105,74)"/>
<path d="M22 20h2v2h-2v-2z" fill="rgb(124,124,124)"/>
<path d="M24 20h2v2h-2v-2z" fill="rgb(173,173,173)"/>
<path d="M26 20h2v4h-2v-4z" fill="rgb(28,3,3)"/>
<path d="M2 22h2v2h-2v-2z" fill="rgb(124,124,124)"/>
<path d="M4 22h2v2h-2v-2z" fill="rgb(211,211,211)"/>
<path d="M6 22h2v2h-2v-2z" fill="rgb(87,82,100)"/>
<path d="M8 22h2v2h-2v-2z" fill="rgb(211,211,211)"/>
<path d="M10 22h2v2h-2v-2z" fill="rgb(173,173,173)"/>
<path d="M12 22h4v2h-4v-2z" fill="rgb(49,49,49)"/>
<path d="M16 22h4v2h-4v-2z" fill="rgb(173,173,173)"/>
<path d="M20 22h2v2h-2v-2z" fill="rgb(87,82,100)"/>
<path d="M22 22h2v2h-2v-2z" fill="rgb(211,211,211)"/>
<path d="M24 22h2v2h-2v-2z" fill="rgb(124,124,124)"/>
<path d="M0 24h2v2h2v2h4v2h-8v-6z" fill="rgb(255,255,255)"/>
<path d="M2 24h2v2h-2v-2z" fill="rgb(28,3,3)"/>
<path d="M4 24h2v2h-2v-2z" fill="rgb(124,124,124)"/>
<path d="M6 24h2v2h-2v-2z" fill="rgb(173,173,173)"/>
<path d="M8 24h2v2h-2v-2z" fill="rgb(87,82,100)"/>
<path d="M10 24h2v2h-2v-2z" fill="rgb(49,49,49)"/>
<path d="M12 24h4v2h-4v-2z" fill="rgb(124,124,124)"/>
<path d="M16 24h2v2h-2v-2z" fill="rgb(49,49,49)"/>
<path d="M18 24h2v2h-2v-2z" fill="rgb(87,82,100)"/>
<path d="M20 24h2v2h-2v-2z" fill="rgb(173,173,173)"/>
<path d="M22 24h2v2h-2v-2z" fill="rgb(124,124,124)"/>
<path d="M24 24h2v2h-2v-2z" fill="rgb(28,3,3)"/>
<path d="M4 26h2v2h-2v-2z" fill="rgb(28,3,3)"/>
<path d="M6 26h2v2h-2v-2z" fill="rgb(49,49,49)"/>
<path d="M8 26h2v2h-2v-2z" fill="rgb(124,124,124)"/>
<path d="M10 26h2v2h-2v-2z" fill="rgb(173,173,173)"/>
<path d="M12 26h2v2h-2v-2z" fill="rgb(211,211,211)"/>
<path d="M14 26h4v2h-4v-2z" fill="rgb(173,173,173)"/>
<path d="M18 26h2v2h-2v-2z" fill="rgb(124,124,124)"/>
<path d="M20 26h2v2h-2v-2z" fill="rgb(49,49,49)"/>
<path d="M22 26h2v2h-2v-2z" fill="rgb(28,3,3)"/>
<path d="M8 28h2v2h-2v-2z" fill="rgb(28,3,3)"/>
<path d="M10 28h8v2h-8v-2z" fill="rgb(49,49,49)"/>
<path d="M18 28h2v2h-2v-2z" fill="rgb(28,3,3)"/>
</svg>