<?xml version="1.0" encoding="utf-8"?>
<!-- generated at drububu.com  -->
<!DOCTYPE svg PUBLIC "-//W3C//DTD SVG 1.1//EN" "http://www.w3.org/Graphics/SVG/1.1/DTD/svg11.dtd">
<svg version="1.1" preserveAspectRatio="xMinYMin meet" xmlns="http://www.w3.org/2000/svg" xmlns:xlink="http://www.w3.org/1999/xlink" x="0px" y="0px" width="30px" height="32px" viewBox="0 0 30 32">
<path d="M0 0h14v2h-2v4h-2v-2h-2v2h-2v-2h-2v8h-4v-12z" fill="rgb(255,255,255)"/>
<path d="M14 0h2v2h-2v-2z" fill="rgb(0,125,249)"/>
<path d="M16 0h14v12h-4v-8h-2v2h-2v-2h-2v2h-2v-4h-2v-2z" fill="rgb(255,255,255)"/>
<path d="M12 2h2v4h-2v-4z" fill="rgb(0,125,249)"/>
<path d="M14 2h2v4h-2v-4z" fill="rgb(201,255,248)"/>
<path d="M16 2h2v4h-2v-4z" fill="rgb(0,125,249)"/>
<path d="M4 4h2v2h2v2h-2v2h-2v-6z" fill="rgb(76,41,2)"/>
<path d="M8 4h2v2h-2v-2z" fill="rgb(76,41,2)"/>
<path d="M20 4h2v2h-2v-2z" fill="rgb(76,41,2)"/>
<path d="M24 4h2v6h-2v-2h-2v-2h2v-2z" fill="rgb(76,41,2)"/>
<path d="M8 6h2v2h-2v-2z" fill="rgb(109,68,3)"/>
<path d="M10 6h2v2h-2v-2z" fill="rgb(76,41,2)"/>
<path d="M12 6h2v4h-2v-4z" fill="rgb(0,52,146)"/>
<path d="M14 6h2v2h-2v-2z" fill="rgb(114,183,255)"/>
<path d="M16 6h2v4h-2v-4z" fill="rgb(0,52,146)"/>
<path d="M18 6h2v2h-2v-2z" fill="rgb(76,41,2)"/>
<path d="M20 6h2v2h-2v-2z" fill="rgb(109,68,3)"/>
<path d="M6 8h2v2h-2v-2z" fill="rgb(177,126,8)"/>
<path d="M8 8h2v2h-2v-2z" fill="rgb(76,41,2)"/>
<path d="M10 8h2v2h-2v-2z" fill="rgb(232,180,21)"/>
<path d="M14 8h2v2h-2v-2z" fill="rgb(255,249,56)"/>
<path d="M18 8h2v2h-2v-2z" fill="rgb(232,180,21)"/>
<path d="M20 8h2v2h-2v-2z" fill="rgb(76,41,2)"/>
<path d="M22 8h2v2h-2v-2z" fill="rgb(177,126,8)"/>
<path d="M4 10h4v2h-4v-2z" fill="rgb(86,0,73)"/>
<path d="M8 10h2v2h-2v-2z" fill="rgb(232,180,21)"/>
<path d="M10 10h4v2h-4v-2z" fill="rgb(255,249,56)"/>
<path d="M14 10h2v2h-2v-2z" fill="rgb(254,255,222)"/>
<path d="M16 10h4v2h-4v-2z" fill="rgb(255,249,56)"/>
<path d="M20 10h2v2h-2v-2z" fill="rgb(232,180,21)"/>
<path d="M22 10h4v2h-4v-2z" fill="rgb(86,0,73)"/>
<path d="M0 12h6v2h-4v2h-2v-4z" fill="rgb(109,68,3)"/>
<path d="M6 12h2v2h-2v-2z" fill="rgb(123,17,103)"/>
<path d="M8 12h2v2h-2v-2z" fill="rgb(86,0,73)"/>
<path d="M10 12h2v2h-2v-2z" fill="rgb(177,126,8)"/>
<path d="M12 12h2v2h-2v-2z" fill="rgb(232,180,21)"/>
<path d="M14 12h2v2h-2v-2z" fill="rgb(255,249,56)"/>
<path d="M16 12h2v2h-2v-2z" fill="rgb(232,180,21)"/>
<path d="M18 12h2v2h-2v-2z" fill="rgb(177,126,8)"/>
<path d="M20 12h2v2h-2v-2z" fill="rgb(86,0,73)"/>
<path d="M22 12h2v2h-2v-2z" fill="rgb(123,17,103)"/>
<path d="M24 12h6v4h-2v-2h-4v-2z" fill="rgb(109,68,3)"/>
<path d="M2 14h4v2h-4v-2z" fill="rgb(254,255,222)"/>
<path d="M6 14h2v2h-2v-2z" fill="rgb(232,180,21)"/>
<path d="M8 14h2v2h-2v-2z" fill="rgb(123,17,103)"/>
<path d="M10 14h2v2h-2v-2z" fill="rgb(255,177,245)"/>
<path d="M12 14h2v2h-2v-2z" fill="rgb(109,68,3)"/>
<path d="M14 14h2v2h-2v-2z" fill="rgb(177,126,8)"/>
<path d="M16 14h2v2h-2v-2z" fill="rgb(109,68,3)"/>
<path d="M18 14h2v2h-2v-2z" fill="rgb(255,177,245)"/>
<path d="M20 14h2v2h-2v-2z" fill="rgb(191,56,166)"/>
<path d="M22 14h2v2h-2v-2z" fill="rgb(232,180,21)"/>
<path d="M24 14h4v2h-4v-2z" fill="rgb(254,255,222)"/>
<path d="M0 16h2v2h2v10h2v2h2v2h-8v-16z" fill="rgb(255,255,255)"/>
<path d="M2 16h2v2h-2v-2z" fill="rgb(76,41,2)"/>
<path d="M4 16h2v2h-2v-2z" fill="rgb(232,180,21)"/>
<path d="M6 16h2v2h-2v-2z" fill="rgb(255,249,56)"/>
<path d="M8 16h2v4h-2v-4z" fill="rgb(255,235,254)"/>
<path d="M10 16h2v2h-2v-2z" fill="rgb(76,41,2)"/>
<path d="M12 16h2v2h-2v-2z" fill="rgb(232,180,21)"/>
<path d="M14 16h2v2h-2v-2z" fill="rgb(255,249,56)"/>
<path d="M16 16h2v2h-2v-2z" fill="rgb(232,180,21)"/>
<path d="M18 16h2v2h-2v-2z" fill="rgb(76,41,2)"/>
<path d="M20 16h2v4h-2v-4z" fill="rgb(255,235,254)"/>
<path d="M22 16h2v2h-2v-2z" fill="rgb(255,249,56)"/>
<path d="M24 16h2v2h-2v-2z" fill="rgb(232,180,21)"/>
<path d="M26 16h2v2h-2v-2z" fill="rgb(76,41,2)"/>
<path d="M28 16h2v16h-8v-2h2v-2h2v-10h2v-2z" fill="rgb(255,255,255)"/>
<path d="M4 18h2v10h-2v-10z" fill="rgb(86,0,73)"/>
<path d="M6 18h2v4h-2v-4z" fill="rgb(123,17,103)"/>
<path d="M10 18h2v2h-2v-2z" fill="rgb(232,180,21)"/>
<path d="M12 18h2v2h-2v-2z" fill="rgb(255,249,56)"/>
<path d="M14 18h2v4h-2v-4z" fill="rgb(254,255,222)"/>
<path d="M16 18h2v2h-2v-2z" fill="rgb(255,249,56)"/>
<path d="M18 18h2v2h-2v-2z" fill="rgb(232,180,21)"/>
<path d="M22 18h2v4h-2v-4z" fill="rgb(123,17,103)"/>
<path d="M24 18h2v10h-2v-10z" fill="rgb(86,0,73)"/>
<path d="M8 20h2v4h-2v-4z" fill="rgb(255,177,245)"/>
<path d="M10 20h2v2h-2v-2z" fill="rgb(76,41,2)"/>
<path d="M12 20h2v2h-2v-2z" fill="rgb(109,68,3)"/>
<path d="M16 20h2v2h-2v-2z" fill="rgb(109,68,3)"/>
<path d="M18 20h2v2h-2v-2z" fill="rgb(76,41,2)"/>
<path d="M20 20h2v4h-2v-4z" fill="rgb(255,177,245)"/>
<path d="M6 22h2v6h-2v-6z" fill="rgb(191,56,166)"/>
<path d="M10 22h8v2h-2v2h-2v-2h-4v-2z" fill="rgb(255,249,56)"/>
<path d="M18 22h2v2h-2v-2z" fill="rgb(232,180,21)"/>
<path d="M22 22h2v6h-2v-6z" fill="rgb(191,56,166)"/>
<path d="M8 24h2v2h-2v-2z" fill="rgb(247,120,225)"/>
<path d="M10 24h2v2h-2v-2z" fill="rgb(109,68,3)"/>
<path d="M12 24h2v2h-2v-2z" fill="rgb(232,180,21)"/>
<path d="M16 24h2v2h-2v-2z" fill="rgb(232,180,21)"/>
<path d="M18 24h2v2h-2v-2z" fill="rgb(109,68,3)"/>
<path d="M20 24h2v2h-2v-2z" fill="rgb(247,120,225)"/>
<path d="M8 26h2v2h-2v-2z" fill="rgb(255,177,245)"/>
<path d="M10 26h2v4h-2v-4z" fill="rgb(86,0,73)"/>
<path d="M12 26h6v2h-6v-2z" fill="rgb(109,68,3)"/>
<path d="M18 26h2v4h-2v-4z" fill="rgb(86,0,73)"/>
<path d="M20 26h2v2h-2v-2z" fill="rgb(255,177,245)"/>
<path d="M6 28h2v2h-2v-2z" fill="rgb(86,0,73)"/>
<path d="M8 28h2v2h-2v-2z" fill="rgb(247,120,225)"/>
<path d="M12 28h6v2h2v2h-10v-2h2v-2z" fill="rgb(255,255,255)"/>
<path d="M20 28h2v2h-2v-2z" fill="rgb(247,120,225)"/>
<path d="M22 28h2v2h-2v-2z" fill="rgb(86,0,73)"/>
<path d="M8 30h2v2h-2v-2z" fill="rgb(86,0,73)"/>
<path d="M20 30h2v2h-2v-2z" fill="rgb(86,0,73)"/>
</svg>