<?xml version="1.0" encoding="utf-8"?>
<!-- generated at drububu.com  -->
<!DOCTYPE svg PUBLIC "-//W3C//DTD SVG 1.1//EN" "http://www.w3.org/Graphics/SVG/1.1/DTD/svg11.dtd">
<svg version="1.1" preserveAspectRatio="xMinYMin meet" xmlns="http://www.w3.org/2000/svg" xmlns:xlink="http://www.w3.org/1999/xlink" x="0px" y="0px" width="28px" height="30px" viewBox="0 0 28 30">
<path d="M0 0h10v2h-2v2h-2v2h-2v-2h-4v-4z" fill="rgb(255,255,255)"/>
<path d="M10 0h8v2h-8v-2z" fill="rgb(35,6,0)"/>
<path d="M18 0h10v4h-4v2h-2v-2h-2v-2h-2v-2z" fill="rgb(255,255,255)"/>
<path d="M8 2h2v2h-2v-2z" fill="rgb(35,6,0)"/>
<path d="M10 2h2v2h-2v-2z" fill="rgb(151,73,8)"/>
<path d="M12 2h2v2h-2v-2z" fill="rgb(205,101,14)"/>
<path d="M14 2h2v2h-2v-2z" fill="rgb(151,73,8)"/>
<path d="M16 2h2v2h-2v-2z" fill="rgb(142,53,0)"/>
<path d="M18 2h2v2h-2v-2z" fill="rgb(35,6,0)"/>
<path d="M0 4h4v2h-2v4h-2v-6z" fill="rgb(35,6,0)"/>
<path d="M6 4h2v2h-2v-2z" fill="rgb(35,6,0)"/>
<path d="M8 4h2v2h-2v-2z" fill="rgb(95,25,0)"/>
<path d="M10 4h2v2h-2v-2z" fill="rgb(35,6,0)"/>
<path d="M12 4h4v2h-4v-2z" fill="rgb(95,25,0)"/>
<path d="M16 4h2v2h-2v-2z" fill="rgb(35,6,0)"/>
<path d="M18 4h2v2h-2v-2z" fill="rgb(95,25,0)"/>
<path d="M20 4h2v2h-2v-2z" fill="rgb(35,6,0)"/>
<path d="M24 4h4v6h-2v-4h-2v-2z" fill="rgb(35,6,0)"/>
<path d="M2 6h2v2h-2v-2z" fill="rgb(151,73,8)"/>
<path d="M4 6h2v4h-2v-4z" fill="rgb(35,6,0)"/>
<path d="M6 6h2v2h-2v-2z" fill="rgb(95,25,0)"/>
<path d="M8 6h2v2h-2v-2z" fill="rgb(205,101,14)"/>
<path d="M10 6h2v2h-2v-2z" fill="rgb(142,53,0)"/>
<path d="M12 6h2v2h2v2h-2v2h-2v-2h-2v-2h2v-2z" fill="rgb(205,101,14)"/>
<path d="M14 6h2v2h-2v-2z" fill="rgb(151,73,8)"/>
<path d="M16 6h2v2h-2v-2z" fill="rgb(142,53,0)"/>
<path d="M18 6h2v2h-2v-2z" fill="rgb(205,101,14)"/>
<path d="M20 6h2v2h-2v-2z" fill="rgb(95,25,0)"/>
<path d="M22 6h2v4h-2v-4z" fill="rgb(35,6,0)"/>
<path d="M24 6h2v2h-2v-2z" fill="rgb(151,73,8)"/>
<path d="M2 8h2v2h-2v-2z" fill="rgb(142,53,0)"/>
<path d="M6 8h2v2h-2v-2z" fill="rgb(142,53,0)"/>
<path d="M8 8h2v2h-2v-2z" fill="rgb(151,73,8)"/>
<path d="M16 8h4v2h-2v2h-4v-2h2v-2z" fill="rgb(151,73,8)"/>
<path d="M20 8h2v2h-2v-2z" fill="rgb(142,53,0)"/>
<path d="M24 8h2v2h-2v-2z" fill="rgb(142,53,0)"/>
<path d="M0 10h2v2h-2v-2z" fill="rgb(255,255,255)"/>
<path d="M2 10h2v2h-2v-2z" fill="rgb(95,25,0)"/>
<path d="M4 10h2v4h-2v-4z" fill="rgb(142,53,0)"/>
<path d="M6 10h2v2h-2v-2z" fill="rgb(205,101,14)"/>
<path d="M8 10h2v2h-2v-2z" fill="rgb(142,53,0)"/>
<path d="M10 10h2v2h-2v-2z" fill="rgb(151,73,8)"/>
<path d="M18 10h2v2h-2v-2z" fill="rgb(142,53,0)"/>
<path d="M20 10h2v2h-2v-2z" fill="rgb(205,101,14)"/>
<path d="M22 10h2v4h-2v-4z" fill="rgb(142,53,0)"/>
<path d="M24 10h2v2h-2v-2z" fill="rgb(95,25,0)"/>
<path d="M26 10h2v2h-2v-2z" fill="rgb(255,255,255)"/>
<path d="M0 12h4v2h-2v4h-2v-6z" fill="rgb(35,6,0)"/>
<path d="M6 12h4v2h-2v2h2v2h-4v-2h-2v-2h2v-2z" fill="rgb(12,12,12)"/>
<path d="M10 12h2v2h-2v-2z" fill="rgb(95,25,0)"/>
<path d="M12 12h4v2h-4v-2z" fill="rgb(142,53,0)"/>
<path d="M16 12h2v2h-2v-2z" fill="rgb(95,25,0)"/>
<path d="M18 12h4v2h2v2h-2v2h-4v-2h2v-2h-2v-2z" fill="rgb(12,12,12)"/>
<path d="M24 12h4v6h-2v-4h-2v-2z" fill="rgb(35,6,0)"/>
<path d="M2 14h2v2h-2v-2z" fill="rgb(142,53,0)"/>
<path d="M8 14h2v2h-2v-2z" fill="rgb(255,159,40)"/>
<path d="M10 14h2v2h-2v-2z" fill="rgb(12,12,12)"/>
<path d="M12 14h4v2h-4v-2z" fill="rgb(95,25,0)"/>
<path d="M16 14h2v2h-2v-2z" fill="rgb(12,12,12)"/>
<path d="M18 14h2v2h-2v-2z" fill="rgb(255,159,40)"/>
<path d="M24 14h2v2h-2v-2z" fill="rgb(142,53,0)"/>
<path d="M2 16h2v2h-2v-2z" fill="rgb(95,25,0)"/>
<path d="M4 16h2v2h-2v-2z" fill="rgb(142,53,0)"/>
<path d="M10 16h2v2h-2v-2z" fill="rgb(142,53,0)"/>
<path d="M12 16h2v4h-2v-4z" fill="rgb(205,101,14)"/>
<path d="M14 16h2v4h-2v-4z" fill="rgb(151,73,8)"/>
<path d="M16 16h2v2h-2v-2z" fill="rgb(142,53,0)"/>
<path d="M22 16h2v2h-2v-2z" fill="rgb(142,53,0)"/>
<path d="M24 16h2v2h-2v-2z" fill="rgb(95,25,0)"/>
<path d="M0 18h2v2h-2v-2z" fill="rgb(255,255,255)"/>
<path d="M2 18h2v2h-2v-2z" fill="rgb(35,6,0)"/>
<path d="M4 18h2v2h-2v-2z" fill="rgb(151,73,8)"/>
<path d="M6 18h2v2h-2v-2z" fill="rgb(205,101,14)"/>
<path d="M8 18h2v2h-2v-2z" fill="rgb(151,73,8)"/>
<path d="M10 18h2v2h-2v-2z" fill="rgb(95,25,0)"/>
<path d="M16 18h2v2h-2v-2z" fill="rgb(95,25,0)"/>
<path d="M18 18h2v2h-2v-2z" fill="rgb(151,73,8)"/>
<path d="M20 18h2v2h-2v-2z" fill="rgb(205,101,14)"/>
<path d="M22 18h2v2h-2v-2z" fill="rgb(151,73,8)"/>
<path d="M24 18h2v2h-2v-2z" fill="rgb(35,6,0)"/>
<path d="M26 18h2v2h-2v-2z" fill="rgb(255,255,255)"/>
<path d="M0 20h4v2h-2v2h-2v-4z" fill="rgb(95,25,0)"/>
<path d="M4 20h2v4h-2v-4z" fill="rgb(35,6,0)"/>
<path d="M6 20h2v2h-2v-2z" fill="rgb(151,73,8)"/>
<path d="M8 20h2v2h-2v-2z" fill="rgb(142,53,0)"/>
<path d="M10 20h8v2h-8v-2z" fill="rgb(35,6,0)"/>
<path d="M18 20h2v2h-2v-2z" fill="rgb(142,53,0)"/>
<path d="M20 20h2v2h-2v-2z" fill="rgb(151,73,8)"/>
<path d="M22 20h2v4h-2v-4z" fill="rgb(35,6,0)"/>
<path d="M24 20h4v4h-2v-2h-2v-2z" fill="rgb(95,25,0)"/>
<path d="M2 22h2v2h-2v-2z" fill="rgb(142,53,0)"/>
<path d="M6 22h2v2h-2v-2z" fill="rgb(142,53,0)"/>
<path d="M8 22h2v2h-2v-2z" fill="rgb(95,25,0)"/>
<path d="M10 22h2v2h-2v-2z" fill="rgb(142,53,0)"/>
<path d="M12 22h4v2h-4v-2z" fill="rgb(95,25,0)"/>
<path d="M16 22h2v2h-2v-2z" fill="rgb(142,53,0)"/>
<path d="M18 22h2v2h-2v-2z" fill="rgb(95,25,0)"/>
<path d="M20 22h2v2h-2v-2z" fill="rgb(142,53,0)"/>
<path d="M24 22h2v2h-2v-2z" fill="rgb(142,53,0)"/>
<path d="M0 24h2v2h-2v-2z" fill="rgb(35,6,0)"/>
<path d="M2 24h2v2h-2v-2z" fill="rgb(151,73,8)"/>
<path d="M4 24h2v2h-2v-2z" fill="rgb(142,53,0)"/>
<path d="M6 24h2v2h-2v-2z" fill="rgb(35,6,0)"/>
<path d="M8 24h2v2h-2v-2z" fill="rgb(142,53,0)"/>
<path d="M10 24h8v2h-8v-2z" fill="rgb(35,6,0)"/>
<path d="M18 24h2v2h-2v-2z" fill="rgb(142,53,0)"/>
<path d="M20 24h2v2h-2v-2z" fill="rgb(35,6,0)"/>
<path d="M22 24h2v2h-2v-2z" fill="rgb(142,53,0)"/>
<path d="M24 24h2v2h-2v-2z" fill="rgb(151,73,8)"/>
<path d="M26 24h2v2h-2v-2z" fill="rgb(35,6,0)"/>
<path d="M0 26h2v2h4v-2h2v2h2v2h-10v-4z" fill="rgb(255,255,255)"/>
<path d="M2 26h4v2h-4v-2z" fill="rgb(35,6,0)"/>
<path d="M8 26h2v2h-2v-2z" fill="rgb(35,6,0)"/>
<path d="M10 26h2v2h-2v-2z" fill="rgb(95,25,0)"/>
<path d="M12 26h2v2h-2v-2z" fill="rgb(151,73,8)"/>
<path d="M14 26h2v2h-2v-2z" fill="rgb(205,101,14)"/>
<path d="M16 26h2v2h-2v-2z" fill="rgb(95,25,0)"/>
<path d="M18 26h2v2h-2v-2z" fill="rgb(35,6,0)"/>
<path d="M20 26h2v2h4v-2h2v4h-10v-2h2v-2z" fill="rgb(255,255,255)"/>
<path d="M22 26h4v2h-4v-2z" fill="rgb(35,6,0)"/>
<path d="M10 28h8v2h-8v-2z" fill="rgb(35,6,0)"/>
</svg>