<?xml version="1.0" encoding="utf-8"?>
<!-- generated at drububu.com  -->
<!DOCTYPE svg PUBLIC "-//W3C//DTD SVG 1.1//EN" "http://www.w3.org/Graphics/SVG/1.1/DTD/svg11.dtd">
<svg version="1.1" preserveAspectRatio="xMinYMin meet" xmlns="http://www.w3.org/2000/svg" xmlns:xlink="http://www.w3.org/1999/xlink" x="0px" y="0px" width="30px" height="30px" viewBox="0 0 30 30">
<path d="M0 0h10v2h-2v2h-4v2h-2v2h2v2h-2v4h-2v-14z" fill="rgb(255,255,255)"/>
<path d="M10 0h10v2h-10v-2z" fill="rgb(0,19,3)"/>
<path d="M20 0h10v14h-2v-4h-2v-2h2v-2h-2v-2h-4v-2h-2v-2z" fill="rgb(255,255,255)"/>
<path d="M8 2h2v2h-2v-2z" fill="rgb(0,19,3)"/>
<path d="M10 2h2v4h-2v-4z" fill="rgb(33,151,96)"/>
<path d="M12 2h2v4h-2v-4z" fill="rgb(0,61,40)"/>
<path d="M14 2h2v2h-2v-2z" fill="rgb(35,198,147)"/>
<path d="M16 2h2v2h2v2h4v2h-6v-2h-2v-4z" fill="rgb(0,61,40)"/>
<path d="M18 2h2v2h-2v-2z" fill="rgb(20,109,67)"/>
<path d="M20 2h2v2h-2v-2z" fill="rgb(0,19,3)"/>
<path d="M4 4h4v2h-4v-2z" fill="rgb(0,19,3)"/>
<path d="M8 4h2v2h-2v-2z" fill="rgb(35,198,147)"/>
<path d="M14 4h2v2h-2v-2z" fill="rgb(33,151,96)"/>
<path d="M20 4h2v2h-2v-2z" fill="rgb(20,109,67)"/>
<path d="M22 4h4v2h-4v-2z" fill="rgb(0,19,3)"/>
<path d="M2 6h2v2h-2v-2z" fill="rgb(0,19,3)"/>
<path d="M4 6h2v2h-2v-2z" fill="rgb(35,198,147)"/>
<path d="M6 6h2v2h-2v-2z" fill="rgb(33,151,96)"/>
<path d="M8 6h2v2h-2v-2z" fill="rgb(20,109,67)"/>
<path d="M10 6h2v2h-2v-2z" fill="rgb(0,61,40)"/>
<path d="M12 6h2v4h-2v-4z" fill="rgb(20,109,67)"/>
<path d="M14 6h2v2h-2v-2z" fill="rgb(0,61,40)"/>
<path d="M16 6h2v4h-2v-4z" fill="rgb(20,109,67)"/>
<path d="M24 6h2v2h-2v-2z" fill="rgb(20,109,67)"/>
<path d="M26 6h2v2h-2v-2z" fill="rgb(0,19,3)"/>
<path d="M4 8h4v2h-4v-2z" fill="rgb(0,19,3)"/>
<path d="M8 8h2v2h-2v-2z" fill="rgb(146,79,0)"/>
<path d="M10 8h2v2h-2v-2z" fill="rgb(0,19,3)"/>
<path d="M14 8h2v2h-2v-2z" fill="rgb(33,151,96)"/>
<path d="M18 8h2v2h-2v-2z" fill="rgb(0,19,3)"/>
<path d="M20 8h2v2h-2v-2z" fill="rgb(146,79,0)"/>
<path d="M22 8h4v2h-4v-2z" fill="rgb(0,19,3)"/>
<path d="M2 10h2v4h-2v-4z" fill="rgb(0,19,3)"/>
<path d="M4 10h2v2h-2v-2z" fill="rgb(20,109,67)"/>
<path d="M6 10h2v4h-2v-4z" fill="rgb(192,6,13)"/>
<path d="M8 10h2v2h-2v-2z" fill="rgb(233,80,85)"/>
<path d="M10 10h2v4h-4v-2h2v-2z" fill="rgb(215,10,16)"/>
<path d="M12 10h2v12h-2v-4h-2v-4h2v-4z" fill="rgb(0,19,3)"/>
<path d="M14 10h2v2h-2v-2z" fill="rgb(35,198,147)"/>
<path d="M16 10h2v4h2v4h-2v4h-2v-12z" fill="rgb(0,19,3)"/>
<path d="M18 10h2v4h-2v-4z" fill="rgb(192,6,13)"/>
<path d="M20 10h2v2h-2v-2z" fill="rgb(233,80,85)"/>
<path d="M22 10h2v4h-4v-2h2v-2z" fill="rgb(215,10,16)"/>
<path d="M24 10h2v2h-2v-2z" fill="rgb(20,109,67)"/>
<path d="M26 10h2v4h-2v-4z" fill="rgb(0,19,3)"/>
<path d="M4 12h2v2h-2v-2z" fill="rgb(0,61,40)"/>
<path d="M14 12h2v2h-2v-2z" fill="rgb(20,109,67)"/>
<path d="M24 12h2v4h-2v-4z" fill="rgb(0,61,40)"/>
<path d="M0 14h2v2h-2v-2z" fill="rgb(0,19,3)"/>
<path d="M2 14h4v2h-4v-2z" fill="rgb(20,109,67)"/>
<path d="M6 14h2v2h-2v-2z" fill="rgb(0,19,3)"/>
<path d="M8 14h2v2h-2v-2z" fill="rgb(192,6,13)"/>
<path d="M14 14h2v2h-2v-2z" fill="rgb(0,61,40)"/>
<path d="M20 14h2v2h-2v-2z" fill="rgb(192,6,13)"/>
<path d="M22 14h2v2h-2v-2z" fill="rgb(0,19,3)"/>
<path d="M26 14h2v2h-2v-2z" fill="rgb(20,109,67)"/>
<path d="M28 14h2v2h-2v-2z" fill="rgb(0,19,3)"/>
<path d="M0 16h2v4h-2v-4z" fill="rgb(255,255,255)"/>
<path d="M2 16h2v2h2v2h-4v-4z" fill="rgb(0,19,3)"/>
<path d="M4 16h4v2h-4v-2z" fill="rgb(33,151,96)"/>
<path d="M8 16h2v2h-2v-2z" fill="rgb(20,109,67)"/>
<path d="M14 16h2v4h-2v-4z" fill="rgb(35,198,147)"/>
<path d="M20 16h4v2h-4v-2z" fill="rgb(0,61,40)"/>
<path d="M24 16h4v4h2v6h-2v-4h-2v-2h-4v2h-2v-4h4v-2z" fill="rgb(0,19,3)"/>
<path d="M28 16h2v4h-2v-4z" fill="rgb(255,255,255)"/>
<path d="M6 18h2v2h-2v-2z" fill="rgb(35,198,147)"/>
<path d="M8 18h2v4h-2v-4z" fill="rgb(0,19,3)"/>
<path d="M10 18h2v2h-2v-2z" fill="rgb(33,151,96)"/>
<path d="M18 18h2v4h-2v-4z" fill="rgb(33,151,96)"/>
<path d="M0 20h2v6h-2v-6z" fill="rgb(0,19,3)"/>
<path d="M2 20h2v2h-2v-2z" fill="rgb(20,109,67)"/>
<path d="M4 20h2v2h-2v-2z" fill="rgb(0,61,40)"/>
<path d="M6 20h2v2h-2v-2z" fill="rgb(20,109,67)"/>
<path d="M10 20h2v2h-2v-2z" fill="rgb(35,198,147)"/>
<path d="M14 20h2v2h-2v-2z" fill="rgb(33,151,96)"/>
<path d="M22 20h4v2h-4v-2z" fill="rgb(0,61,40)"/>
<path d="M2 22h2v2h-2v-2z" fill="rgb(0,61,40)"/>
<path d="M4 22h2v2h-2v-2z" fill="rgb(20,109,67)"/>
<path d="M6 22h2v2h-2v-2z" fill="rgb(0,46,14)"/>
<path d="M8 22h2v2h-2v-2z" fill="rgb(33,151,96)"/>
<path d="M10 22h2v2h-2v-2z" fill="rgb(0,19,3)"/>
<path d="M12 22h2v2h-2v-2z" fill="rgb(0,46,14)"/>
<path d="M14 22h2v2h-2v-2z" fill="rgb(0,19,3)"/>
<path d="M16 22h2v2h-2v-2z" fill="rgb(0,46,14)"/>
<path d="M18 22h2v2h-2v-2z" fill="rgb(0,19,3)"/>
<path d="M20 22h2v2h-2v-2z" fill="rgb(33,151,96)"/>
<path d="M22 22h2v2h-2v-2z" fill="rgb(0,46,14)"/>
<path d="M24 22h2v4h-2v-4z" fill="rgb(0,19,3)"/>
<path d="M26 22h2v4h-2v-4z" fill="rgb(0,61,40)"/>
<path d="M2 24h2v2h-2v-2z" fill="rgb(20,109,67)"/>
<path d="M4 24h2v2h-2v-2z" fill="rgb(0,19,3)"/>
<path d="M6 24h2v2h-2v-2z" fill="rgb(20,109,67)"/>
<path d="M8 24h2v2h-2v-2z" fill="rgb(0,61,40)"/>
<path d="M10 24h2v2h-2v-2z" fill="rgb(20,109,67)"/>
<path d="M12 24h2v2h-2v-2z" fill="rgb(0,19,3)"/>
<path d="M14 24h2v2h-2v-2z" fill="rgb(0,61,40)"/>
<path d="M16 24h2v2h-2v-2z" fill="rgb(0,19,3)"/>
<path d="M18 24h2v2h-2v-2z" fill="rgb(20,109,67)"/>
<path d="M20 24h4v2h-2v2h-2v-4z" fill="rgb(0,61,40)"/>
<path d="M0 26h2v2h2v-2h2v2h2v2h-8v-4z" fill="rgb(255,255,255)"/>
<path d="M2 26h2v2h-2v-2z" fill="rgb(0,19,3)"/>
<path d="M6 26h2v2h-2v-2z" fill="rgb(0,19,3)"/>
<path d="M8 26h2v2h-2v-2z" fill="rgb(20,109,67)"/>
<path d="M10 26h2v2h-2v-2z" fill="rgb(0,19,3)"/>
<path d="M12 26h2v2h-2v-2z" fill="rgb(0,61,40)"/>
<path d="M14 26h2v2h-2v-2z" fill="rgb(20,109,67)"/>
<path d="M16 26h2v2h-2v-2z" fill="rgb(0,61,40)"/>
<path d="M18 26h2v2h-2v-2z" fill="rgb(0,19,3)"/>
<path d="M22 26h2v2h-2v-2z" fill="rgb(0,19,3)"/>
<path d="M24 26h2v2h2v-2h2v4h-8v-2h2v-2z" fill="rgb(255,255,255)"/>
<path d="M26 26h2v2h-2v-2z" fill="rgb(0,19,3)"/>
<path d="M8 28h2v2h-2v-2z" fill="rgb(0,19,3)"/>
<path d="M10 28h2v2h-2v-2z" fill="rgb(255,255,255)"/>
<path d="M12 28h6v2h-6v-2z" fill="rgb(0,19,3)"/>
<path d="M18 28h2v2h-2v-2z" fill="rgb(255,255,255)"/>
<path d="M20 28h2v2h-2v-2z" fill="rgb(0,19,3)"/>
</svg>