<?xml version="1.0" encoding="UTF-8" standalone="no"?>
<svg
   xmlns:dc="http://purl.org/dc/elements/1.1/"
   xmlns:cc="http://creativecommons.org/ns#"
   xmlns:rdf="http://www.w3.org/1999/02/22-rdf-syntax-ns#"
   xmlns:svg="http://www.w3.org/2000/svg"
   xmlns="http://www.w3.org/2000/svg"
   xmlns:sodipodi="http://sodipodi.sourceforge.net/DTD/sodipodi-0.dtd"
   xmlns:inkscape="http://www.inkscape.org/namespaces/inkscape"
   width="11.1125mm"
   height="15.345833mm"
   viewBox="0 0 11.1125 15.345833"
   version="1.1"
   id="svg8"
   inkscape:version="1.0.2 (e86c870879, 2021-01-15, custom)"
   sodipodi:docname="Ancient_Cultist.svg">
  <defs
     id="defs2" />
  <sodipodi:namedview
     id="base"
     pagecolor="#ffffff"
     bordercolor="#666666"
     borderopacity="1.0"
     inkscape:pageopacity="0.0"
     inkscape:pageshadow="2"
     inkscape:zoom="5.451954"
     inkscape:cx="17.418411"
     inkscape:cy="34.6202"
     inkscape:document-units="mm"
     inkscape:current-layer="layer1"
     inkscape:document-rotation="0"
     showgrid="false"
     inkscape:window-width="1920"
     inkscape:window-height="1017"
     inkscape:window-x="-8"
     inkscape:window-y="-8"
     inkscape:window-maximized="1" />
  <metadata
     id="metadata5">
    <rdf:RDF>
      <cc:Work
         rdf:about="">
        <dc:format>image/svg+xml</dc:format>
        <dc:type
           rdf:resource="http://purl.org/dc/dcmitype/StillImage" />
        <dc:title></dc:title>
      </cc:Work>
    </rdf:RDF>
  </metadata>
  <g
     inkscape:label="Layer 1"
     inkscape:groupmode="layer"
     id="layer1"
     transform="translate(-134.98664,-115.78741)">
    <g
       id="g672"
       transform="matrix(0.26458333,0,0,0.26458333,134.98664,115.78741)">
      <path
         d="m 14,0 h 8 v 2 h -8 z"
         fill="#081828"
         id="path12" />
      <path
         d="m 10,2 h 4 v 2 h -4 z"
         fill="#081828"
         id="path16" />
      <path
         d="m 14,2 h 6 v 2 h 2 v 2 h 2 v 2 h 2 v 2 h -2 v 2 H 22 V 10 H 20 V 8 H 16 V 6 H 12 V 4 h 2 z"
         fill="#4f6cd0"
         id="path18" />
      <path
         d="m 20,2 h 2 v 2 h -2 z"
         fill="#3153bf"
         id="path20" />
      <path
         d="m 22,2 h 8 v 2 h -8 z"
         fill="#081828"
         id="path22" />
      <path
         d="m 8,4 h 2 V 8 H 8 Z"
         fill="#081828"
         id="path24" />
      <path
         d="m 10,4 h 2 v 2 h -2 z"
         fill="#1a226c"
         id="path26" />
      <path
         d="m 22,4 h 4 v 2 h 2 v 4 H 26 V 8 H 24 V 6 h -2 z"
         fill="#3153bf"
         id="path28" />
      <path
         d="m 26,4 h 2 v 2 h -2 z"
         fill="#244096"
         id="path30" />
      <path
         d="m 28,4 h 2 v 2 h -2 z"
         fill="#1a226c"
         id="path32" />
      <path
         d="m 30,4 h 4 v 2 h -4 z"
         fill="#081828"
         id="path34" />
      <path
         d="m 10,6 h 2 v 2 h -2 z"
         fill="#4f6cd0"
         id="path36" />
      <path
         d="m 12,6 h 4 v 2 h -4 z"
         fill="#3153bf"
         id="path38" />
      <path
         d="m 28,6 h 4 v 2 h -2 v 2 h -2 z"
         fill="#244096"
         id="path40" />
      <path
         d="m 32,6 h 2 v 2 h -2 z"
         fill="#1a226c"
         id="path42" />
      <path
         d="m 34,6 h 4 v 2 h -4 z"
         fill="#081828"
         id="path44" />
      <path
         d="m 6,8 h 2 v 6 h 2 v 2 H 6 Z"
         fill="#081828"
         id="path46" />
      <path
         d="m 8,8 h 2 v 2 H 8 Z"
         fill="#244096"
         id="path48" />
      <path
         d="m 10,8 h 2 v 2 h -2 z"
         fill="#cac04f"
         id="path50" />
      <path
         d="m 12,8 h 4 v 2 h -4 z"
         fill="#d8d17e"
         id="path52" />
      <path
         d="m 16,8 h 2 v 2 h -2 z"
         fill="#244096"
         id="path54" />
      <path
         d="m 18,8 h 2 v 2 h -2 z"
         fill="#3153bf"
         id="path56" />
      <path
         d="m 30,8 h 2 v 2 h -2 z"
         fill="#3153bf"
         id="path58" />
      <path
         d="m 32,8 h 2 v 2 h -2 z"
         fill="#4f6cd0"
         id="path60" />
      <path
         d="m 34,8 h 2 v 2 h 2 v 4 h -2 v -2 h -4 v -2 h 2 z"
         fill="#3153bf"
         id="path62" />
      <path
         d="m 36,8 h 2 v 2 h -2 z"
         fill="#1a226c"
         id="path64" />
      <path
         d="m 38,8 h 2 v 4 h -2 z"
         fill="#081828"
         id="path66" />
      <path
         d="m 8,10 h 2 v 2 H 8 Z"
         fill="#cac04f"
         id="path68" />
      <path
         d="m 10,10 h 6 v 2 h -4 v 2 h -2 z"
         fill="#081828"
         id="path70" />
      <path
         d="m 16,10 h 2 v 2 h -2 z"
         fill="#cac04f"
         id="path72" />
      <path
         d="m 18,10 h 2 v 2 h -2 z"
         fill="#244096"
         id="path74" />
      <path
         d="m 20,10 h 2 v 2 h -2 z"
         fill="#3153bf"
         id="path76" />
      <path
         d="m 24,10 h 2 v 2 h -2 z"
         fill="#3153bf"
         id="path78" />
      <path
         d="m 26,10 h 2 v 4 h -2 v 2 h -2 v -4 h 2 z"
         fill="#244096"
         id="path80" />
      <path
         d="m 28,10 h 2 v 2 h 2 v 2 h -4 z"
         fill="#1a226c"
         id="path82" />
      <path
         d="m 30,10 h 2 v 2 h -2 z"
         fill="#244096"
         id="path84" />
      <path
         d="m 8,12 h 2 v 2 H 8 Z"
         fill="#b99831"
         id="path86" />
      <path
         d="m 12,12 h 4 v 2 h -4 z"
         fill="#9fa29f"
         id="path88" />
      <path
         d="m 16,12 h 2 v 2 h -2 z"
         fill="#081828"
         id="path90" />
      <path
         d="m 18,12 h 2 v 2 h -2 z"
         fill="#b99831"
         id="path92" />
      <path
         d="m 20,12 h 2 v 2 h -2 z"
         fill="#1a226c"
         id="path94" />
      <path
         d="m 22,12 h 2 v 2 h -2 z"
         fill="#3153bf"
         id="path96" />
      <path
         d="m 32,12 h 4 v 2 h -4 z"
         fill="#244096"
         id="path98" />
      <path
         d="m 38,12 h 2 v 2 h -2 z"
         fill="#1a226c"
         id="path100" />
      <path
         d="m 40,12 h 2 v 6 h -2 z"
         fill="#081828"
         id="path102" />
      <path
         d="m 10,14 h 2 v 2 h -2 z"
         fill="#c7c8c7"
         id="path104" />
      <path
         d="m 12,14 h 4 v 4 h -4 z"
         fill="#081828"
         id="path106" />
      <path
         d="m 16,14 h 2 v 2 h -2 z"
         fill="#9fa29f"
         id="path108" />
      <path
         d="m 18,14 h 2 v 2 h -2 z"
         fill="#081828"
         id="path110" />
      <path
         d="m 20,14 h 2 v 2 h -2 z"
         fill="#b99831"
         id="path112" />
      <path
         d="m 22,14 h 2 v 2 h -2 z"
         fill="#1a226c"
         id="path114" />
      <path
         d="m 26,14 h 2 v 4 h -2 v 2 h -2 v -4 h 2 z"
         fill="#1a226c"
         id="path116" />
      <path
         d="m 28,14 h 8 v 2 h -6 v 2 h -2 z"
         fill="#081828"
         id="path118" />
      <path
         d="m 36,14 h 2 v 2 h -2 z"
         fill="#1a226c"
         id="path120" />
      <path
         d="m 38,14 h 2 v 2 h -2 z"
         fill="#244096"
         id="path122" />
      <path
         d="m 6,16 h 2 v 2 H 6 Z"
         fill="#635963"
         id="path124" />
      <path
         d="m 8,16 h 2 v 2 H 8 Z"
         fill="#c7c8c7"
         id="path126" />
      <path
         d="m 10,16 h 2 v 2 h 4 v 2 h -4 v 2 H 8 v 2 H 4 v -2 h 2 v -2 h 2 v -2 h 2 z"
         fill="#efecef"
         id="path128" />
      <path
         d="m 16,16 h 2 v 4 h -2 z"
         fill="#c7c8c7"
         id="path130" />
      <path
         d="m 18,16 h 2 v 4 h -2 z"
         fill="#9fa29f"
         id="path132" />
      <path
         d="m 20,16 h 2 v 4 h -2 z"
         fill="#081828"
         id="path134" />
      <path
         d="m 22,16 h 2 v 6 h -4 v -2 h 2 z"
         fill="#b99831"
         id="path136" />
      <path
         d="m 36,16 h 2 v 2 h -2 z"
         fill="#081828"
         id="path140" />
      <path
         d="m 38,16 h 2 v 2 h -2 z"
         fill="#1a226c"
         id="path142" />
      <path
         d="m 4,18 h 2 v 2 H 4 Z"
         fill="#635963"
         id="path144" />
      <path
         d="m 6,18 h 2 v 2 H 6 Z"
         fill="#c7c8c7"
         id="path146" />
      <path
         d="m 26,18 h 2 v 2 h -2 z"
         fill="#2e2e2e"
         id="path148" />
      <path
         d="m 38,18 h 2 v 2 h -2 z"
         fill="#081828"
         id="path150" />
      <path
         d="m 2,20 h 2 v 4 H 2 Z"
         fill="#635963"
         id="path152" />
      <path
         d="m 4,20 h 2 v 2 H 4 Z"
         fill="#c7c8c7"
         id="path154" />
      <path
         d="m 12,20 h 4 v 2 h -4 z"
         fill="#c7c8c7"
         id="path156" />
      <path
         d="m 16,20 h 2 v 2 h -2 z"
         fill="#9fa29f"
         id="path158" />
      <path
         d="m 18,20 h 2 v 2 h -2 z"
         fill="#081828"
         id="path160" />
      <path
         d="m 24,20 h 2 v 2 h -2 z"
         fill="#2e2e2e"
         id="path162" />
      <path
         d="m 26,20 h 2 v 2 h -2 z"
         fill="#1a226c"
         id="path164" />
      <path
         d="m 28,20 h 2 v 2 h -2 z"
         fill="#081828"
         id="path166" />
      <path
         d="m 8,22 h 2 v 2 H 8 Z"
         fill="#c7c8c7"
         id="path168" />
      <path
         d="m 10,22 h 2 v 2 h -2 z"
         fill="#9fa29f"
         id="path170" />
      <path
         d="m 12,22 h 6 v 2 h -6 z"
         fill="#081828"
         id="path172" />
      <path
         d="m 18,22 h 2 v 2 h -2 z"
         fill="#b99831"
         id="path174" />
      <path
         d="m 20,22 h 2 v 2 h -2 z"
         fill="#2e2e2e"
         id="path176" />
      <path
         d="m 22,22 h 2 v 2 h -2 z"
         fill="#081828"
         id="path178" />
      <path
         d="m 24,22 h 2 v 2 h -2 z"
         fill="#1a226c"
         id="path180" />
      <path
         d="m 26,22 h 2 v 2 h -2 z"
         fill="#244096"
         id="path182" />
      <path
         d="m 28,22 h 2 v 2 h -2 z"
         fill="#1a226c"
         id="path184" />
      <path
         d="m 30,22 h 2 v 6 h -2 z"
         fill="#081828"
         id="path186" />
      <path
         d="m 0,24 h 2 v 4 H 0 Z"
         fill="#635963"
         id="path188" />
      <path
         d="m 2,24 h 2 v 2 H 2 Z"
         fill="#efecef"
         id="path190" />
      <path
         d="m 4,24 h 2 v 2 H 4 Z"
         fill="#c7c8c7"
         id="path192" />
      <path
         d="m 6,24 h 4 v 2 H 6 Z"
         fill="#635963"
         id="path194" />
      <path
         d="m 10,24 h 2 v 2 h -2 z"
         fill="#081828"
         id="path196" />
      <path
         d="m 12,24 h 2 v 2 h -2 z"
         fill="#cac04f"
         id="path198" />
      <path
         d="m 14,24 h 2 v 2 h -2 z"
         fill="#d8d17e"
         id="path200" />
      <path
         d="m 16,24 h 2 v 2 h -2 z"
         fill="#b99831"
         id="path202" />
      <path
         d="m 18,24 h 2 v 2 h -2 z"
         fill="#081828"
         id="path204" />
      <path
         d="m 20,24 h 4 v 2 h -4 z"
         fill="#1a226c"
         id="path206" />
      <path
         d="m 24,24 h 2 v 4 h -2 z"
         fill="#244096"
         id="path208" />
      <path
         d="m 26,24 h 2 v 2 h -2 z"
         fill="#1a226c"
         id="path210" />
      <path
         d="m 28,24 h 2 v 4 h -4 v -2 h 2 z"
         fill="#b99831"
         id="path212" />
      <path
         d="m 2,26 h 2 v 2 H 2 Z"
         fill="#c7c8c7"
         id="path214" />
      <path
         d="m 4,26 h 2 v 2 H 4 Z"
         fill="#635963"
         id="path216" />
      <path
         d="m 8,26 h 2 v 6 h 2 v 2 h 6 v 2 h -6 v 8 h 2 v 8 H 12 V 48 H 10 V 46 H 8 v -2 h 2 V 34 H 8 Z"
         fill="#081828"
         id="path220" />
      <path
         d="m 10,26 h 2 v 2 h -2 z"
         fill="#1a226c"
         id="path222" />
      <path
         d="m 12,26 h 6 v 2 h -6 z"
         fill="#081828"
         id="path224" />
      <path
         d="m 18,26 h 4 v 2 h -4 z"
         fill="#244096"
         id="path226" />
      <path
         d="m 22,26 h 2 v 2 h -2 z"
         fill="#3153bf"
         id="path228" />
      <path
         d="m 2,28 h 2 v 2 H 2 Z"
         fill="#635963"
         id="path230" />
      <path
         d="m 10,28 h 2 v 2 h -2 z"
         fill="#244096"
         id="path232" />
      <path
         d="m 12,28 h 6 v 2 h -6 z"
         fill="#4f6cd0"
         id="path234" />
      <path
         d="m 18,28 h 4 v 2 h -4 z"
         fill="#3153bf"
         id="path236" />
      <path
         d="m 22,28 h 2 v 2 h -2 z"
         fill="#244096"
         id="path238" />
      <path
         d="m 24,28 h 2 v 2 h -2 z"
         fill="#b99831"
         id="path240" />
      <path
         d="m 26,28 h 4 v 2 h -4 z"
         fill="#081828"
         id="path242" />
      <path
         d="m 30,28 h 2 v 6 h -2 v -2 h -2 v 2 h -2 v -4 h 4 z"
         fill="#1a226c"
         id="path244" />
      <path
         d="m 32,28 h 2 v 6 h -2 z"
         fill="#081828"
         id="path246" />
      <path
         d="m 10,30 h 2 v 2 h -2 z"
         fill="#cac04f"
         id="path248" />
      <path
         d="m 12,30 h 6 v 2 h -6 z"
         fill="#3153bf"
         id="path250" />
      <path
         d="m 18,30 h 4 v 2 h -4 z"
         fill="#d8d17e"
         id="path252" />
      <path
         d="m 22,30 h 2 v 2 h -2 z"
         fill="#b99831"
         id="path254" />
      <path
         d="m 24,30 h 2 v 12 h -2 v -2 h -2 v -2 h -2 v -4 h -2 v -2 h 6 z"
         fill="#081828"
         id="path256" />
      <path
         d="m 12,32 h 2 v 2 h -2 z"
         fill="#cac04f"
         id="path258" />
      <path
         d="m 14,32 h 2 v 2 h -2 z"
         fill="#d8d17e"
         id="path260" />
      <path
         d="m 16,32 h 2 v 2 h -2 z"
         fill="#b99831"
         id="path262" />
      <path
         d="m 28,32 h 2 v 2 h -2 z"
         fill="#244096"
         id="path264" />
      <path
         d="M 6,34 H 8 V 44 H 6 Z"
         fill="#081828"
         id="path266" />
      <path
         d="m 8,34 h 2 v 2 H 8 Z"
         fill="#1a226c"
         id="path268" />
      <path
         d="m 18,34 h 2 v 4 h -2 z"
         fill="#1a226c"
         id="path270" />
      <path
         d="m 22,34 h 2 v 4 h -2 z"
         fill="#1a226c"
         id="path272" />
      <path
         d="m 26,34 h 2 v 2 h -2 z"
         fill="#244096"
         id="path274" />
      <path
         d="m 28,34 h 2 v 2 h 2 v 2 h -4 v 2 h -2 v -4 h 2 z"
         fill="#3153bf"
         id="path276" />
      <path
         d="m 30,34 h 2 v 2 h -2 z"
         fill="#244096"
         id="path278" />
      <path
         d="m 32,34 h 2 v 2 h -2 z"
         fill="#1a226c"
         id="path280" />
      <path
         d="m 34,34 h 2 v 14 h -2 z"
         fill="#081828"
         id="path282" />
      <path
         d="m 8,36 h 2 v 2 H 8 Z"
         fill="#244096"
         id="path284" />
      <path
         d="m 12,36 h 4 v 2 h -2 v 2 h -2 z"
         fill="#1a226c"
         id="path286" />
      <path
         d="m 16,36 h 2 v 2 h -2 z"
         fill="#244096"
         id="path288" />
      <path
         d="m 32,36 h 2 v 2 h -2 z"
         fill="#244096"
         id="path290" />
      <path
         d="m 8,38 h 2 v 2 H 8 Z"
         fill="#3153bf"
         id="path292" />
      <path
         d="m 14,38 h 2 v 2 h -2 z"
         fill="#244096"
         id="path294" />
      <path
         d="m 16,38 h 2 v 2 h -2 z"
         fill="#3153bf"
         id="path296" />
      <path
         d="m 18,38 h 2 v 2 h -2 z"
         fill="#244096"
         id="path298" />
      <path
         d="m 20,38 h 2 v 2 h -2 z"
         fill="#1a226c"
         id="path300" />
      <path
         d="m 28,38 h 4 v 2 h 2 v 4 h -2 v -2 h -2 v -2 h -2 z"
         fill="#4f6cd0"
         id="path302" />
      <path
         d="m 32,38 h 2 v 2 h -2 z"
         fill="#3153bf"
         id="path304" />
      <path
         d="m 8,40 h 2 v 2 H 8 Z"
         fill="#4f6cd0"
         id="path306" />
      <path
         d="m 12,40 h 2 v 2 h -2 z"
         fill="#244096"
         id="path308" />
      <path
         d="m 14,40 h 6 v 2 h -2 v 2 h -2 v -2 h -2 z"
         fill="#4f6cd0"
         id="path310" />
      <path
         d="m 20,40 h 2 v 2 h -2 z"
         fill="#244096"
         id="path312" />
      <path
         d="m 22,40 h 2 v 2 h -2 z"
         fill="#b99831"
         id="path314" />
      <path
         d="m 26,40 h 2 v 2 h -2 z"
         fill="#cac04f"
         id="path316" />
      <path
         d="m 28,40 h 2 v 2 h -2 z"
         fill="#3153bf"
         id="path318" />
      <path
         d="m 8,42 h 2 v 2 H 8 Z"
         fill="#b99831"
         id="path320" />
      <path
         d="m 12,42 h 2 v 2 h -2 z"
         fill="#cac04f"
         id="path322" />
      <path
         d="m 14,42 h 2 v 2 h -2 z"
         fill="#3153bf"
         id="path324" />
      <path
         d="m 18,42 h 2 v 2 h -2 z"
         fill="#3153bf"
         id="path326" />
      <path
         d="m 20,42 h 2 v 2 h -2 z"
         fill="#b99831"
         id="path328" />
      <path
         d="m 22,42 h 2 v 2 h -2 z"
         fill="#081828"
         id="path330" />
      <path
         d="m 24,42 h 2 v 2 h -2 z"
         fill="#1a226c"
         id="path332" />
      <path
         d="m 26,42 h 2 v 2 h 2 v 2 h -4 z"
         fill="#081828"
         id="path334" />
      <path
         d="m 28,42 h 2 v 2 h -2 z"
         fill="#d8d17e"
         id="path336" />
      <path
         d="m 30,42 h 2 v 2 h -2 z"
         fill="#3153bf"
         id="path338" />
      <path
         d="m 14,44 h 2 v 2 h -2 z"
         fill="#d8d17e"
         id="path340" />
      <path
         d="m 16,44 h 2 v 2 h -2 z"
         fill="#3153bf"
         id="path342" />
      <path
         d="m 18,44 h 2 v 4 h -2 z"
         fill="#b99831"
         id="path344" />
      <path
         d="m 20,44 h 2 v 8 h -2 z"
         fill="#081828"
         id="path346" />
      <path
         d="m 22,44 h 2 v 2 h -2 z"
         fill="#1a226c"
         id="path348" />
      <path
         d="m 24,44 h 2 v 2 h -2 z"
         fill="#244096"
         id="path350" />
      <path
         d="m 30,44 h 2 v 2 h -2 z"
         fill="#d8d17e"
         id="path352" />
      <path
         d="m 32,44 h 2 v 2 h -2 z"
         fill="#3153bf"
         id="path354" />
      <path
         d="m 14,46 h 2 v 2 h -2 z"
         fill="#244096"
         id="path356" />
      <path
         d="m 16,46 h 2 v 2 h -2 z"
         fill="#d8d17e"
         id="path358" />
      <path
         d="m 22,46 h 2 v 2 h -2 z"
         fill="#244096"
         id="path360" />
      <path
         d="m 24,46 h 2 v 2 h -2 z"
         fill="#3153bf"
         id="path362" />
      <path
         d="m 26,46 h 2 v 2 h -2 z"
         fill="#244096"
         id="path364" />
      <path
         d="m 28,46 h 2 v 2 h -2 z"
         fill="#1a226c"
         id="path366" />
      <path
         d="m 30,46 h 2 v 2 h 2 v 2 h -2 v 2 h -2 z"
         fill="#081828"
         id="path368" />
      <path
         d="m 32,46 h 2 v 2 h -2 z"
         fill="#b99831"
         id="path370" />
      <path
         d="m 8,48 h 2 v 4 H 8 Z"
         fill="#081828"
         id="path372" />
      <path
         d="m 10,48 h 2 v 2 h -2 z"
         fill="#1a226c"
         id="path374" />
      <path
         d="m 14,48 h 2 v 2 h -2 z"
         fill="#3153bf"
         id="path376" />
      <path
         d="m 16,48 h 2 v 2 h -2 z"
         fill="#244096"
         id="path378" />
      <path
         d="m 18,48 h 2 v 2 h -2 z"
         fill="#3153bf"
         id="path380" />
      <path
         d="m 22,48 h 4 v 4 h -2 v -2 h -2 z"
         fill="#4f6cd0"
         id="path382" />
      <path
         d="m 26,48 h 2 v 4 h -2 z"
         fill="#3153bf"
         id="path384" />
      <path
         d="m 28,48 h 2 v 2 h -2 z"
         fill="#244096"
         id="path386" />
      <path
         d="m 10,50 h 2 v 4 h -2 z"
         fill="#244096"
         id="path388" />
      <path
         d="m 14,50 h 2 v 2 h -2 z"
         fill="#cac04f"
         id="path390" />
      <path
         d="m 16,50 h 2 v 2 h -2 z"
         fill="#3153bf"
         id="path392" />
      <path
         d="m 18,50 h 2 v 2 h -2 z"
         fill="#b99831"
         id="path394" />
      <path
         d="m 22,50 h 2 v 2 h -2 z"
         fill="#3153bf"
         id="path396" />
      <path
         d="m 28,50 h 2 v 2 h -2 z"
         fill="#1a226c"
         id="path398" />
      <path
         d="m 6,52 h 2 v 4 h 8 v -2 h 2 v 2 h 16 v -2 h 2 v 4 H 6 Z"
         fill="#081828"
         id="path400" />
      <path
         d="m 8,52 h 2 v 2 H 8 Z"
         fill="#1a226c"
         id="path402" />
      <path
         d="m 12,52 h 2 v 2 h -2 z"
         fill="#1a226c"
         id="path404" />
      <path
         d="m 14,52 h 2 v 2 h -2 z"
         fill="#081828"
         id="path406" />
      <path
         d="m 16,52 h 2 v 2 h -2 z"
         fill="#d8d17e"
         id="path408" />
      <path
         d="m 18,52 h 2 v 2 h -2 z"
         fill="#081828"
         id="path410" />
      <path
         d="m 20,52 h 2 v 2 h -2 z"
         fill="#1a226c"
         id="path412" />
      <path
         d="m 22,52 h 2 v 2 h -2 z"
         fill="#244096"
         id="path414" />
      <path
         d="m 24,52 h 4 v 2 h -4 z"
         fill="#1a226c"
         id="path416" />
      <path
         d="m 28,52 h 2 v 2 h -2 z"
         fill="#4f6cd0"
         id="path418" />
      <path
         d="m 30,52 h 2 v 2 h -2 z"
         fill="#3153bf"
         id="path420" />
      <path
         d="m 32,52 h 2 v 2 h -2 z"
         fill="#081828"
         id="path422" />
      <path
         d="m 8,54 h 2 v 2 H 8 Z"
         fill="#244096"
         id="path424" />
      <path
         d="m 10,54 h 2 v 2 h -2 z"
         fill="#3153bf"
         id="path426" />
      <path
         d="m 12,54 h 2 v 2 h -2 z"
         fill="#244096"
         id="path428" />
      <path
         d="m 14,54 h 2 v 2 h -2 z"
         fill="#1a226c"
         id="path430" />
      <path
         d="m 18,54 h 2 v 2 h -2 z"
         fill="#1a226c"
         id="path432" />
      <path
         d="m 20,54 h 2 v 2 h -2 z"
         fill="#244096"
         id="path434" />
      <path
         d="m 22,54 h 2 v 2 h -2 z"
         fill="#3153bf"
         id="path436" />
      <path
         d="m 24,54 h 4 v 2 h -4 z"
         fill="#4f6cd0"
         id="path438" />
      <path
         d="m 28,54 h 2 v 2 h -2 z"
         fill="#3153bf"
         id="path440" />
      <path
         d="m 30,54 h 2 v 2 h -2 z"
         fill="#244096"
         id="path442" />
      <path
         d="m 32,54 h 2 v 2 h -2 z"
         fill="#1a226c"
         id="path444" />
    </g>
  </g>
</svg>
