<?xml version="1.0" encoding="utf-8"?>
<!-- generated at drububu.com  -->
<!DOCTYPE svg PUBLIC "-//W3C//DTD SVG 1.1//EN" "http://www.w3.org/Graphics/SVG/1.1/DTD/svg11.dtd">
<svg xmlns="http://www.w3.org/2000/svg" xmlns:xlink="http://www.w3.org/1999/xlink" version="1.1" preserveAspectRatio="xMinYMin meet" x="0px" y="0px" width="194px" height="176px" viewBox="0 0 194 176">

<path d="M70 0h16v2h-16v-2z" fill="rgb(96,19,26)"/>

<path d="M108 0h16v2h-16v-2z" fill="rgb(96,19,26)"/>

<path d="M56 2h14v2h-14v-2z" fill="rgb(96,19,26)"/>
<path d="M70 2h16v2h4v2h4v2h-4v2h-2v-4h-4v-2h-14v-2z" fill="rgb(154,66,75)"/>
<path d="M86 2h4v2h-4v-2z" fill="rgb(96,19,26)"/>
<path d="M104 2h4v2h-4v-2z" fill="rgb(96,19,26)"/>
<path d="M108 2h16v2h-14v2h-4v4h-2v-2h-4v-2h4v-2h4v-2z" fill="rgb(154,66,75)"/>
<path d="M124 2h14v2h4v2h4v2h6v2h-8v-2h-6v-2h-6v-2h-8v-2z" fill="rgb(96,19,26)"/>
<path d="M52 4h4v2h-4v-2z" fill="rgb(96,19,26)"/>
<path d="M56 4h14v2h-8v2h-2v-2h-4v-2z" fill="rgb(154,66,75)"/>
<path d="M70 4h8v2h2v2h2v2h2v2h2v-4h-2v-2h4v4h2v-2h2v2h2v4h-2v-2h-2v2h-2v6h-2v2  h-4v-2h2v-6h-2v-2h-2v-2h-4v-2h-8v2h-2v2h-2v-4h-2v-2h8v-2z" fill="rgb(203,113,116)"/>
<path d="M78 4h2v2h-2v-2z" fill="rgb(221,167,167)"/>
<path d="M80 4h2v2h-2v-2z" fill="rgb(234,198,195)"/>
<path d="M82 4h2v2h-2v-2z" fill="rgb(203,113,116)"/>
<path d="M90 4h4v2h-4v-2z" fill="rgb(96,19,26)"/>
<path d="M100 4h4v2h-4v-2z" fill="rgb(96,19,26)"/>
<path d="M110 4h2v2h-2v-2z" fill="rgb(203,113,116)"/>
<path d="M112 4h2v2h-2v-2z" fill="rgb(234,198,195)"/>
<path d="M114 4h2v2h-2v-2z" fill="rgb(221,167,167)"/>
<path d="M116 4h8v2h8v2h-2v4h-2v-2h-2v-2h-8v2h-4v2h-2v2h-2v6h2v2h-4v-2h-2v-6h-2  v-2h-2v2h-2v-4h2v-2h2v2h2v-4h4v2h-2v4h2v-2h2v-2h2v-2h2v-2z" fill="rgb(203,113,116)"/>
<path d="M124 4h8v2h-8v-2z" fill="rgb(154,66,75)"/>
<path d="M48 6h4v2h-4v-2z" fill="rgb(96,19,26)"/>
<path d="M52 6h2v2h-2v-2z" fill="rgb(154,66,75)"/>
<path d="M54 6h6v2h-4v2h-4v2h2v2h2v2h6v4h-6v-2h-2v-2h-4v-2h-4v-2h2v-2h2v-2h4v-2z" fill="rgb(221,167,167)"/>
<path d="M80 6h2v2h-2v-2z" fill="rgb(221,167,167)"/>
<path d="M82 6h2v2h-2v-2z" fill="rgb(234,198,195)"/>
<path d="M94 6h2v4h-2v-4z" fill="rgb(96,19,26)"/>
<path d="M98 6h2v4h-2v-4z" fill="rgb(96,19,26)"/>
<path d="M110 6h2v2h-2v-2z" fill="rgb(234,198,195)"/>
<path d="M112 6h2v2h-2v-2z" fill="rgb(221,167,167)"/>
<path d="M132 6h2v2h-2v-2z" fill="rgb(154,66,75)"/>
<path d="M134 6h4v2h-4v-2z" fill="rgb(221,167,167)"/>
<path d="M42 8h6v2h-6v-2z" fill="rgb(96,19,26)"/>
<path d="M48 8h2v2h-2v-2z" fill="rgb(154,66,75)"/>
<path d="M56 8h4v2h2v6h-6v-2h-2v-2h-2v-2h4v-2z" fill="rgb(234,198,195)"/>
<path d="M60 8h4v4h2v8h2v2h8v-2h4v-4h2v-2h2v6h-2v2h-2v2h-4v2h-2v2h-4v-2h-2v-2  h-2v-2h-2v-6h-2v-6h-2v-2z" fill="rgb(221,167,167)"/>
<path d="M68 8h8v2h-6v2h-4v-2h2v-2z" fill="rgb(221,167,167)"/>
<path d="M82 8h2v2h-2v-2z" fill="rgb(221,167,167)"/>
<path d="M84 8h2v2h-2v-2z" fill="rgb(234,198,195)"/>
<path d="M92 8h2v2h-2v-2z" fill="rgb(121,45,52)"/>
<path d="M100 8h2v2h-2v-2z" fill="rgb(121,45,52)"/>
<path d="M108 8h2v2h-2v-2z" fill="rgb(234,198,195)"/>
<path d="M110 8h2v2h-2v-2z" fill="rgb(221,167,167)"/>
<path d="M118 8h8v2h2v2h-4v-2h-6v-2z" fill="rgb(221,167,167)"/>
<path d="M130 8h4v2h-2v6h-2v6h-2v2h-2v2h-2v2h-4v-2h-2v-2h-4v-2h-2v-2h-2v-6h2v2  h2v4h4v2h8v-2h2v-8h2v-4z" fill="rgb(221,167,167)"/>
<path d="M134 8h4v2h4v2h-2v2h-2v2h-6v-6h2v-2z" fill="rgb(234,198,195)"/>
<path d="M138 8h6v2h2v2h2v2h-4v2h-4v2h-2v2h-6v-4h6v-2h2v-2h2v-2h-4v-2z" fill="rgb(221,167,167)"/>
<path d="M36 10h6v2h-6v-2z" fill="rgb(96,19,26)"/>
<path d="M42 10h6v2h-6v-2z" fill="rgb(154,66,75)"/>
<path d="M70 10h8v2h4v4h-2v4h-4v2h-8v-2h-2v-8h4v-2z" fill="rgb(234,198,195)"/>
<path d="M78 10h2v2h-2v-2z" fill="rgb(221,167,167)"/>
<path d="M84 10h2v2h-2v-2z" fill="rgb(221,167,167)"/>
<path d="M94 10h2v14h-2v-14z" fill="rgb(121,45,52)"/>
<path d="M96 10h2v4h2v4h-2v8h2v2h-2v2h2v6h-2v4h2v8h-2v8h-2v4h2v6h2v10h-2v4h-2  v-8h2v-4h-2v-6h-2v-8h2v-20h2v-2h-2v-22z" fill="rgb(96,19,26)"/>
<path d="M98 10h2v4h-2v-4z" fill="rgb(121,45,52)"/>
<path d="M108 10h2v2h-2v-2z" fill="rgb(221,167,167)"/>
<path d="M114 10h2v2h-2v-2z" fill="rgb(221,167,167)"/>
<path d="M116 10h8v2h-6v2h-2v4h4v2h4v-2h2v-4h-2v-2h4v8h-2v2h-8v-2h-4v-4h-2v-4h4  v-2z" fill="rgb(234,198,195)"/>
<path d="M146 10h6v2h-6v-2z" fill="rgb(154,66,75)"/>
<path d="M152 10h6v2h-6v-2z" fill="rgb(96,19,26)"/>
<path d="M30 12h6v2h-6v-2z" fill="rgb(96,19,26)"/>
<path d="M36 12h6v2h2v2h-2v4h-2v-2h-2v-2h2v-2h-4v-2z" fill="rgb(154,66,75)"/>
<path d="M42 12h4v2h4v2h4v2h2v2h-8v-2h-6v-2h2v-2h-2v-2z" fill="rgb(203,113,116)"/>
<path d="M58 12h2v2h-2v-2z" fill="rgb(241,220,204)"/>
<path d="M70 12h6v2h2v4h-4v2h-4v-2h-2v-4h2v-2z" fill="rgb(241,220,204)"/>
<path d="M90 12h2v2h2v2h-4v4h-2v-6h2v-2z" fill="rgb(221,167,167)"/>
<path d="M102 12h2v2h2v6h-2v-4h-4v-2h2v-2z" fill="rgb(221,167,167)"/>
<path d="M118 12h6v2h2v4h-2v2h-4v-2h-4v-4h2v-2z" fill="rgb(241,220,204)"/>
<path d="M134 12h2v2h-2v-2z" fill="rgb(241,220,204)"/>
<path d="M148 12h4v2h-2v2h2v2h-6v2h-8v-2h2v-2h4v-2h4v-2z" fill="rgb(203,113,116)"/>
<path d="M152 12h6v2h-4v2h2v2h-2v2h-2v-4h-2v-2h2v-2z" fill="rgb(154,66,75)"/>
<path d="M158 12h6v2h-6v-2z" fill="rgb(96,19,26)"/>
<path d="M26 14h4v2h-4v-2z" fill="rgb(96,19,26)"/>
<path d="M30 14h6v2h-6v-2z" fill="rgb(154,66,75)"/>
<path d="M36 14h4v2h-2v2h-4v-2h2v-2z" fill="rgb(203,113,116)"/>
<path d="M154 14h4v2h2v2h-4v-2h-2v-2z" fill="rgb(203,113,116)"/>
<path d="M158 14h6v2h-6v-2z" fill="rgb(154,66,75)"/>
<path d="M164 14h4v2h-4v-2z" fill="rgb(96,19,26)"/>
<path d="M20 16h6v2h-6v-2z" fill="rgb(77,6,8)"/>
<path d="M26 16h2v2h-2v-2z" fill="rgb(121,45,52)"/>
<path d="M28 16h2v2h-2v-2z" fill="rgb(154,66,75)"/>
<path d="M30 16h4v2h-2v2h-2v-4z" fill="rgb(221,167,167)"/>
<path d="M62 16h2v6h2v2h2v2h2v2h-4v-2h-2v-2h-4v-2h-4v-2h6v-4z" fill="rgb(203,113,116)"/>
<path d="M90 16h2v2h2v2h-2v6h-2v2h-2v2h-4v-4h4v-4h2v-6z" fill="rgb(234,198,195)"/>
<path d="M92 16h2v2h-2v-2z" fill="rgb(203,113,116)"/>
<path d="M100 16h2v2h-2v-2z" fill="rgb(203,113,116)"/>
<path d="M102 16h2v6h2v4h4v4h-4v-2h-2v-2h-2v-6h-2v-2h2v-2z" fill="rgb(234,198,195)"/>
<path d="M130 16h2v4h6v2h-4v2h-4v2h-2v2h-4v-2h2v-2h2v-2h2v-6z" fill="rgb(203,113,116)"/>
<path d="M160 16h4v4h-2v-2h-2v-2z" fill="rgb(221,167,167)"/>
<path d="M164 16h2v2h-2v-2z" fill="rgb(154,66,75)"/>
<path d="M166 16h2v2h-2v-2z" fill="rgb(121,45,52)"/>
<path d="M168 16h6v2h-6v-2z" fill="rgb(77,6,8)"/>
<path d="M16 18h4v2h-4v-2z" fill="rgb(77,6,8)"/>
<path d="M20 18h2v2h-2v-2z" fill="rgb(154,66,75)"/>
<path d="M22 18h2v2h-2v-2z" fill="rgb(203,113,116)"/>
<path d="M24 18h4v2h-4v-2z" fill="rgb(154,66,75)"/>
<path d="M28 18h2v2h-2v-2z" fill="rgb(203,113,116)"/>
<path d="M32 18h2v2h-2v-2z" fill="rgb(203,113,116)"/>
<path d="M34 18h4v2h-4v-2z" fill="rgb(154,66,75)"/>
<path d="M38 18h2v2h-2v-2z" fill="rgb(203,113,116)"/>
<path d="M42 18h6v2h-6v-2z" fill="rgb(221,167,167)"/>
<path d="M98 18h2v6h-2v-6z" fill="rgb(121,45,52)"/>
<path d="M146 18h6v2h-6v-2z" fill="rgb(221,167,167)"/>
<path d="M154 18h2v2h-2v-2z" fill="rgb(203,113,116)"/>
<path d="M156 18h4v2h-4v-2z" fill="rgb(154,66,75)"/>
<path d="M160 18h2v2h-2v-2z" fill="rgb(203,113,116)"/>
<path d="M164 18h2v2h-2v-2z" fill="rgb(203,113,116)"/>
<path d="M166 18h4v2h-4v-2z" fill="rgb(154,66,75)"/>
<path d="M170 18h2v2h-2v-2z" fill="rgb(121,45,52)"/>
<path d="M172 18h2v2h-2v-2z" fill="rgb(154,66,75)"/>
<path d="M174 18h4v2h-4v-2z" fill="rgb(77,6,8)"/>
<path d="M14 20h2v2h-2v-2z" fill="rgb(77,6,8)"/>
<path d="M16 20h2v2h-2v-2z" fill="rgb(154,66,75)"/>
<path d="M18 20h4v2h-4v-2z" fill="rgb(203,113,116)"/>
<path d="M22 20h2v4h-2v4h-2v4h-4v-2h-2v-4h4v-4h4v-2z" fill="rgb(221,167,167)"/>
<path d="M24 20h4v2h2v2h-4v2h-2v2h2v6h-2v-4h-2v4h-2v2h2v4h2v6h-2v-4h-2v-2h-2v-2  h-2v2h2v4h-2v2h-6v2h-2v-6h2v2h2v-2h2v-6h4v-2h-4v-2h-2v-6h2v4h2v2h4v-4h2v-4h2  v-4z" fill="rgb(203,113,116)"/>
<path d="M28 20h2v2h-2v-2z" fill="rgb(154,66,75)"/>
<path d="M30 20h2v2h-2v-2z" fill="rgb(203,113,116)"/>
<path d="M32 20h2v4h-4v-2h2v-2z" fill="rgb(154,66,75)"/>
<path d="M34 20h4v6h2v2h2v2h4v2h4v2h2v2h2v2h2v6h2v4h2v2h2v2h-4v-2h-2v-4h-2v-6  h-2v-2h-2v-2h-4v-2h-4v-2h-2v-2h-2v-2h-2v-4h-2v-4z" fill="rgb(203,113,116)"/>
<path d="M38 20h2v2h-2v-2z" fill="rgb(154,66,75)"/>
<path d="M40 20h2v2h-2v-2z" fill="rgb(221,167,167)"/>
<path d="M42 20h6v2h-2v2h2v2h2v2h4v-2h-2v-2h4v2h4v2h2v2h-4v4h-2v-2h-2v-2h-6v-2  h-2v-2h-2v-2h-4v-2h2v-2z" fill="rgb(234,198,195)"/>
<path d="M48 20h8v2h4v2h4v2h2v2h2v4h-2v6h-2v2h-4v-2h-2v2h2v2h6v2h2v2h2v2h-4v-2  h-4v4h-2v-2h-2v-4h-2v-6h-2v-2h-2v-2h-2v-2h-4v-2h-4v-2h-2v-2h-2v-4h2v2h4v2h2v2h2  v2h6v2h2v2h2v2h6v-6h-2v-2h-2v-2h-4v-2h-4v-2h-4v-2z" fill="rgb(221,167,167)"/>
<path d="M86 20h2v6h-4v4h2v2h-2v2h-2v-4h-6v-2h4v-2h2v-4h4v-2z" fill="rgb(221,167,167)"/>
<path d="M88 20h2v2h-2v-2z" fill="rgb(241,220,204)"/>
<path d="M92 20h2v2h-2v-2z" fill="rgb(203,113,116)"/>
<path d="M100 20h2v2h-2v-2z" fill="rgb(203,113,116)"/>
<path d="M104 20h2v2h-2v-2z" fill="rgb(241,220,204)"/>
<path d="M106 20h2v2h4v4h2v2h4v2h-6v4h-2v-2h-2v-2h2v-4h-4v-6z" fill="rgb(221,167,167)"/>
<path d="M138 20h8v2h-4v2h-4v2h-4v2h-2v2h-2v6h6v-2h2v-2h2v-2h6v-2h2v-2h2v-2h4  v-2h2v4h-2v2h-2v2h-4v2h-4v2h-2v2h-2v2h-2v6h-2v4h-2v2h-2v-4h-4v2h-4v-2h2v-2h2v-2  h6v-2h-4v-2h-2v-6h-2v-4h2v-2h2v-2h4v-2h4v-2z" fill="rgb(221,167,167)"/>
<path d="M146 20h6v2h2v2h-4v2h-2v2h-2v2h-6v2h-2v2h-2v-4h2v-2h-2v2h-4v-2h2v-2h4  v-2h4v2h-2v2h4v-2h2v-2h2v-2h-2v-2z" fill="rgb(234,198,195)"/>
<path d="M152 20h2v2h-2v-2z" fill="rgb(221,167,167)"/>
<path d="M154 20h2v2h-2v-2z" fill="rgb(154,66,75)"/>
<path d="M156 20h4v4h-2v4h-2v2h-2v2h-2v2h-4v2h-4v2h-2v2h-2v6h-2v4h-2v2h-4v-2h2  v-2h2v-4h2v-6h2v-2h2v-2h2v-2h4v-2h4v-2h2v-2h2v-6z" fill="rgb(203,113,116)"/>
<path d="M160 20h2v2h2v2h-4v-4z" fill="rgb(154,66,75)"/>
<path d="M162 20h2v2h-2v-2z" fill="rgb(203,113,116)"/>
<path d="M164 20h2v2h-2v-2z" fill="rgb(154,66,75)"/>
<path d="M166 20h4v4h2v4h2v4h4v-2h4v2h-2v2h-4v2h4v6h2v2h2v-2h2v6h-2v-2h-6v-2h-2  v-4h-2v2h-2v4h-2v-6h2v-4h2v-2h-2v-4h-2v4h-2v-6h2v-2h-2v-2h-4v-2h2v-2z" fill="rgb(203,113,116)"/>
<path d="M170 20h2v2h4v4h4v4h-2v2h-4v-4h-2v-4h-2v-4z" fill="rgb(221,167,167)"/>
<path d="M172 20h4v2h-4v-2z" fill="rgb(203,113,116)"/>
<path d="M176 20h2v2h-2v-2z" fill="rgb(154,66,75)"/>
<path d="M178 20h2v2h-2v-2z" fill="rgb(77,6,8)"/>
<path d="M12 22h2v2h-2v-2z" fill="rgb(77,6,8)"/>
<path d="M14 22h2v2h-2v-2z" fill="rgb(154,66,75)"/>
<path d="M16 22h2v4h-4v-2h2v-2z" fill="rgb(203,113,116)"/>
<path d="M46 22h2v2h-2v-2z" fill="rgb(241,220,204)"/>
<path d="M48 22h4v2h-4v-2z" fill="rgb(234,198,195)"/>
<path d="M80 22h2v4h-2v2h-4v2h-4v4h-4v2h-2v-4h4v-4h4v-2h2v-2h4v-2z" fill="rgb(203,113,116)"/>
<path d="M92 22h2v2h-2v-2z" fill="rgb(221,167,167)"/>
<path d="M100 22h2v2h-2v-2z" fill="rgb(221,167,167)"/>
<path d="M112 22h2v2h4v2h2v2h4v4h4v4h-2v-2h-4v-4h-4v-2h-4v-2h-2v-4z" fill="rgb(203,113,116)"/>
<path d="M142 22h4v2h-4v-2z" fill="rgb(234,198,195)"/>
<path d="M146 22h2v2h-2v-2z" fill="rgb(241,220,204)"/>
<path d="M176 22h2v2h-2v-2z" fill="rgb(121,45,52)"/>
<path d="M178 22h2v2h-2v-2z" fill="rgb(154,66,75)"/>
<path d="M180 22h2v2h-2v-2z" fill="rgb(77,6,8)"/>
<path d="M10 24h2v6h-2v-6z" fill="rgb(77,6,8)"/>
<path d="M12 24h2v2h-2v-2z" fill="rgb(154,66,75)"/>
<path d="M26 24h4v2h-4v-2z" fill="rgb(154,66,75)"/>
<path d="M30 24h4v4h-8v-2h4v-2z" fill="rgb(203,113,116)"/>
<path d="M34 24h2v4h-2v-4z" fill="rgb(154,66,75)"/>
<path d="M48 24h4v2h2v2h-4v-2h-2v-2z" fill="rgb(241,220,204)"/>
<path d="M92 24h2v8h-2v2h2v2h-2v2h2v2h-2v2h2v4h-8v-2h2v-2h2v-4h-2v-2h-2v-2h-2  v-2h2v-2h6v-2h-2v-2h2v-2z" fill="rgb(203,113,116)"/>
<path d="M94 24h2v8h2v2h-2v20h-2v8h-2v-8h-2v-4h2v-2h-6v-2h8v-4h-2v-2h2v-2h-2v-2  h2v-2h-2v-2h2v-8z" fill="rgb(154,66,75)"/>
<path d="M98 24h2v2h-2v-2z" fill="rgb(154,66,75)"/>
<path d="M100 24h2v2h2v2h-2v2h6v2h2v2h-2v2h-2v2h-2v4h2v2h2v2h-8v-4h2v-2h-2v-2h2  v-2h-2v-2h2v-2h-2v-8z" fill="rgb(203,113,116)"/>
<path d="M142 24h4v2h-2v2h-4v-2h2v-2z" fill="rgb(241,220,204)"/>
<path d="M158 24h2v4h-2v-4z" fill="rgb(154,66,75)"/>
<path d="M160 24h4v2h4v2h-8v-4z" fill="rgb(203,113,116)"/>
<path d="M164 24h4v2h-4v-2z" fill="rgb(154,66,75)"/>
<path d="M176 24h2v2h-2v-2z" fill="rgb(203,113,116)"/>
<path d="M178 24h2v2h-2v-2z" fill="rgb(121,45,52)"/>
<path d="M180 24h2v2h-2v-2z" fill="rgb(154,66,75)"/>
<path d="M182 24h2v6h-2v-6z" fill="rgb(77,6,8)"/>
<path d="M24 26h2v2h-2v-2z" fill="rgb(154,66,75)"/>
<path d="M168 26h2v2h-2v-2z" fill="rgb(154,66,75)"/>
<path d="M180 26h2v4h-2v-4z" fill="rgb(121,45,52)"/>
<path d="M26 28h8v4h2v2h2v2h6v2h-2v4h-2v-2h-2v-2h-4v-4h-2v-4h-4v4h-2v-6z" fill="rgb(221,167,167)"/>
<path d="M34 28h2v4h-2v-4z" fill="rgb(203,113,116)"/>
<path d="M36 28h2v2h2v2h-4v-4z" fill="rgb(154,66,75)"/>
<path d="M56 28h2v2h-2v-2z" fill="rgb(241,220,204)"/>
<path d="M68 28h2v4h-2v-4z" fill="rgb(154,66,75)"/>
<path d="M88 28h4v2h-4v-2z" fill="rgb(221,167,167)"/>
<path d="M98 28h2v2h-2v-2z" fill="rgb(154,66,75)"/>
<path d="M102 28h4v2h-4v-2z" fill="rgb(221,167,167)"/>
<path d="M124 28h2v4h-2v-4z" fill="rgb(154,66,75)"/>
<path d="M136 28h2v2h-2v-2z" fill="rgb(241,220,204)"/>
<path d="M156 28h2v4h-4v-2h2v-2z" fill="rgb(154,66,75)"/>
<path d="M158 28h2v4h-2v-4z" fill="rgb(203,113,116)"/>
<path d="M160 28h8v6h-2v-4h-4v4h-2v4h-4v2h-2v2h-2v-4h-2v-2h6v-2h2v-2h2v-4z" fill="rgb(221,167,167)"/>
<path d="M8 30h2v4h-2v-4z" fill="rgb(77,6,8)"/>
<path d="M10 30h2v4h-2v-4z" fill="rgb(121,45,52)"/>
<path d="M22 30h2v4h-2v-4z" fill="rgb(154,66,75)"/>
<path d="M28 30h4v4h2v4h-4v2h-4v-2h-2v-2h2v-2h2v-4z" fill="rgb(234,198,195)"/>
<path d="M58 30h4v4h-4v-4z" fill="rgb(241,220,204)"/>
<path d="M62 30h2v6h-6v-2h4v-4z" fill="rgb(234,198,195)"/>
<path d="M72 30h4v2h-4v-2z" fill="rgb(221,167,167)"/>
<path d="M76 30h6v4h2v8h-2v2h-6v-2h-2v-6h-2v-4h4v-2z" fill="rgb(234,198,195)"/>
<path d="M112 30h6v2h4v4h-2v6h-2v2h-6v-2h-2v-8h2v-4z" fill="rgb(234,198,195)"/>
<path d="M118 30h4v2h-4v-2z" fill="rgb(221,167,167)"/>
<path d="M130 30h2v4h4v2h-6v-6z" fill="rgb(234,198,195)"/>
<path d="M132 30h4v4h-4v-4z" fill="rgb(241,220,204)"/>
<path d="M162 30h4v4h2v2h2v2h-2v2h-4v-2h-4v-4h2v-4z" fill="rgb(234,198,195)"/>
<path d="M170 30h2v4h-2v-4z" fill="rgb(154,66,75)"/>
<path d="M182 30h2v4h-2v-4z" fill="rgb(121,45,52)"/>
<path d="M184 30h2v4h-2v-4z" fill="rgb(77,6,8)"/>
<path d="M12 32h2v2h-2v-2z" fill="rgb(154,66,75)"/>
<path d="M36 32h4v2h2v2h-4v-2h-2v-2z" fill="rgb(203,113,116)"/>
<path d="M40 32h2v2h-2v-2z" fill="rgb(154,66,75)"/>
<path d="M88 32h2v2h-2v-2z" fill="rgb(154,66,75)"/>
<path d="M100 32h2v2h-2v-2z" fill="rgb(154,66,75)"/>
<path d="M104 32h2v2h-2v-2z" fill="rgb(154,66,75)"/>
<path d="M152 32h2v2h-2v-2z" fill="rgb(154,66,75)"/>
<path d="M154 32h4v2h-2v2h-4v-2h2v-2z" fill="rgb(203,113,116)"/>
<path d="M180 32h2v2h-2v-2z" fill="rgb(154,66,75)"/>
<path d="M6 34h2v4h-2v-4z" fill="rgb(77,6,8)"/>
<path d="M8 34h2v4h-2v-4z" fill="rgb(121,45,52)"/>
<path d="M10 34h4v2h-4v-2z" fill="rgb(203,113,116)"/>
<path d="M14 34h4v2h-4v-2z" fill="rgb(154,66,75)"/>
<path d="M20 34h2v2h-2v-2z" fill="rgb(154,66,75)"/>
<path d="M22 34h2v2h-2v-2z" fill="rgb(203,113,116)"/>
<path d="M24 34h2v2h-2v-2z" fill="rgb(221,167,167)"/>
<path d="M42 34h4v2h-4v-2z" fill="rgb(154,66,75)"/>
<path d="M68 34h2v2h-2v-2z" fill="rgb(154,66,75)"/>
<path d="M70 34h2v2h2v6h2v2h6v-2h2v-8h2v2h2v2h2v4h-2v2h-2v2h-4v2h-8v-4h-2v-4h-2  v-6z" fill="rgb(221,167,167)"/>
<path d="M76 34h4v2h2v2h-2v2h-4v-6z" fill="rgb(241,220,204)"/>
<path d="M108 34h2v8h2v2h6v-2h2v-6h2v-2h2v6h-2v4h-2v4h-8v-2h-4v-2h-2v-2h-2v-4h2  v-2h2v-2z" fill="rgb(221,167,167)"/>
<path d="M114 34h4v6h-4v-2h-2v-2h2v-2z" fill="rgb(241,220,204)"/>
<path d="M124 34h2v2h-2v-2z" fill="rgb(154,66,75)"/>
<path d="M148 34h4v2h-4v-2z" fill="rgb(154,66,75)"/>
<path d="M168 34h2v2h-2v-2z" fill="rgb(221,167,167)"/>
<path d="M170 34h2v2h-2v-2z" fill="rgb(203,113,116)"/>
<path d="M172 34h2v2h-2v-2z" fill="rgb(154,66,75)"/>
<path d="M176 34h4v2h-4v-2z" fill="rgb(154,66,75)"/>
<path d="M180 34h4v2h-4v-2z" fill="rgb(203,113,116)"/>
<path d="M184 34h2v4h-2v-4z" fill="rgb(121,45,52)"/>
<path d="M186 34h2v4h-2v-4z" fill="rgb(77,6,8)"/>
<path d="M10 36h4v6h-2v2h-2v-2h-2v-2h2v-4z" fill="rgb(221,167,167)"/>
<path d="M22 36h2v2h2v2h4v-2h4v2h-2v2h2v2h2v2h2v2h2v2h2v2h6v-4h2v-2h-2v2h-2v-2  h-2v-2h4v-4h-2v-2h4v6h2v8h-2v2h2v-2h2v4h2v2h6v2h-6v2h2v4h2v2h6v-6h-4v-2h6v10h-2  v2h-2v2h-4v-2h-2v-4h-2v-2h-2v-4h-2v-2h-2v-4h-2v-2h-2v2h-10v-2h-2v-2h-2v-2h-4  v-2h-2v-2h-2v-6h-2v-4z" fill="rgb(221,167,167)"/>
<path d="M44 36h2v2h-2v-2z" fill="rgb(203,113,116)"/>
<path d="M46 36h4v2h-4v-2z" fill="rgb(154,66,75)"/>
<path d="M66 36h2v4h-2v-4z" fill="rgb(154,66,75)"/>
<path d="M68 36h2v4h2v4h-2v-2h-2v2h-2v-4h2v-4z" fill="rgb(203,113,116)"/>
<path d="M98 36h2v4h-2v-4z" fill="rgb(121,45,52)"/>
<path d="M100 36h2v2h-2v-2z" fill="rgb(154,66,75)"/>
<path d="M124 36h2v4h2v4h-2v-2h-2v2h-2v-4h2v-4z" fill="rgb(203,113,116)"/>
<path d="M126 36h2v4h-2v-4z" fill="rgb(154,66,75)"/>
<path d="M144 36h4v2h-4v-2z" fill="rgb(154,66,75)"/>
<path d="M148 36h2v2h-2v-2z" fill="rgb(203,113,116)"/>
<path d="M170 36h2v4h-2v6h-2v2h-2v2h-4v2h-2v2h-2v2h-10v-2h-2v2h-2v4h-2v2h-2v4  h-2v2h-2v4h-2v2h-4v-2h-2v-2h-2v-10h6v-2h6v-2h2v-4h2v-8h2v-6h4v2h-2v4h4v2h-2v2h-2  v4h6v-2h2v-2h2v-2h2v-2h2v-2h2v-2h-2v-2h4v2h4v-2h2v-2z" fill="rgb(221,167,167)"/>
<path d="M180 36h4v4h2v2h-2v2h-2v-2h-2v-6z" fill="rgb(221,167,167)"/>
<path d="M4 38h2v8h-2v-8z" fill="rgb(77,6,8)"/>
<path d="M6 38h2v6h-2v-6z" fill="rgb(121,45,52)"/>
<path d="M8 38h2v2h-2v-2z" fill="rgb(203,113,116)"/>
<path d="M16 38h2v2h-2v-2z" fill="rgb(154,66,75)"/>
<path d="M34 38h4v2h-4v-2z" fill="rgb(203,113,116)"/>
<path d="M42 38h4v2h-2v2h-2v-4z" fill="rgb(234,198,195)"/>
<path d="M50 38h2v2h-2v-2z" fill="rgb(154,66,75)"/>
<path d="M58 38h2v2h-2v-2z" fill="rgb(234,198,195)"/>
<path d="M64 38h2v2h-2v-2z" fill="rgb(203,113,116)"/>
<path d="M128 38h2v2h-2v-2z" fill="rgb(203,113,116)"/>
<path d="M134 38h2v2h-2v-2z" fill="rgb(234,198,195)"/>
<path d="M142 38h2v2h-2v-2z" fill="rgb(154,66,75)"/>
<path d="M148 38h4v4h-2v-2h-2v-2z" fill="rgb(234,198,195)"/>
<path d="M156 38h4v2h-4v-2z" fill="rgb(203,113,116)"/>
<path d="M176 38h2v2h-2v-2z" fill="rgb(154,66,75)"/>
<path d="M184 38h2v2h-2v-2z" fill="rgb(203,113,116)"/>
<path d="M186 38h2v6h-2v-6z" fill="rgb(121,45,52)"/>
<path d="M188 38h2v8h-2v-8z" fill="rgb(77,6,8)"/>
<path d="M18 40h2v2h2v4h-2v-2h-2v-4z" fill="rgb(154,66,75)"/>
<path d="M32 40h2v2h-2v-2z" fill="rgb(203,113,116)"/>
<path d="M34 40h4v2h-4v-2z" fill="rgb(154,66,75)"/>
<path d="M38 40h2v2h-2v-2z" fill="rgb(203,113,116)"/>
<path d="M44 40h2v2h-2v-2z" fill="rgb(241,220,204)"/>
<path d="M46 40h2v4h-4v-2h2v-2z" fill="rgb(234,198,195)"/>
<path d="M50 40h2v4h-2v-4z" fill="rgb(203,113,116)"/>
<path d="M52 40h2v6h-2v-6z" fill="rgb(154,66,75)"/>
<path d="M60 40h4v2h-4v-2z" fill="rgb(203,113,116)"/>
<path d="M64 40h2v2h-2v-2z" fill="rgb(154,66,75)"/>
<path d="M100 40h2v2h-2v-2z" fill="rgb(154,66,75)"/>
<path d="M128 40h2v2h-2v-2z" fill="rgb(154,66,75)"/>
<path d="M130 40h4v2h-4v-2z" fill="rgb(203,113,116)"/>
<path d="M140 40h2v6h-2v-6z" fill="rgb(154,66,75)"/>
<path d="M142 40h2v4h-2v-4z" fill="rgb(203,113,116)"/>
<path d="M146 40h2v2h2v2h-4v-4z" fill="rgb(234,198,195)"/>
<path d="M148 40h2v2h-2v-2z" fill="rgb(241,220,204)"/>
<path d="M154 40h2v2h-2v-2z" fill="rgb(203,113,116)"/>
<path d="M156 40h4v2h-4v-2z" fill="rgb(154,66,75)"/>
<path d="M160 40h2v2h-2v-2z" fill="rgb(203,113,116)"/>
<path d="M174 40h2v4h-2v2h-2v-4h2v-2z" fill="rgb(154,66,75)"/>
<path d="M34 42h4v4h-2v-2h-2v-2z" fill="rgb(203,113,116)"/>
<path d="M38 42h2v4h-2v-4z" fill="rgb(154,66,75)"/>
<path d="M40 42h2v2h2v2h-4v-4z" fill="rgb(203,113,116)"/>
<path d="M42 42h2v2h-2v-2z" fill="rgb(221,167,167)"/>
<path d="M68 42h2v2h-2v-2z" fill="rgb(154,66,75)"/>
<path d="M124 42h2v2h-2v-2z" fill="rgb(154,66,75)"/>
<path d="M150 42h2v2h-2v-2z" fill="rgb(221,167,167)"/>
<path d="M152 42h2v4h-4v-2h2v-2z" fill="rgb(203,113,116)"/>
<path d="M154 42h2v4h-2v-4z" fill="rgb(154,66,75)"/>
<path d="M156 42h4v2h-2v2h-2v-4z" fill="rgb(203,113,116)"/>
<path d="M6 44h2v4h-2v-4z" fill="rgb(154,66,75)"/>
<path d="M16 44h2v2h-2v-2z" fill="rgb(154,66,75)"/>
<path d="M18 44h2v2h2v2h2v4h-4v2h-2v2h-2v4h-2v-2h-2v-4h-2v-6h2v4h4v-2h2v-2h-2  v-2h2v-2z" fill="rgb(203,113,116)"/>
<path d="M68 44h2v2h-2v-2z" fill="rgb(203,113,116)"/>
<path d="M70 44h2v4h-2v-4z" fill="rgb(154,66,75)"/>
<path d="M72 44h2v4h-2v-4z" fill="rgb(203,113,116)"/>
<path d="M120 44h2v4h-2v-4z" fill="rgb(203,113,116)"/>
<path d="M122 44h2v4h-2v-4z" fill="rgb(154,66,75)"/>
<path d="M124 44h2v2h-2v-2z" fill="rgb(203,113,116)"/>
<path d="M174 44h2v2h2v2h-2v2h2v2h4v-4h2v6h-2v4h-2v2h-2v-4h-2v-2h-2v-2h-4v-4h2  v-2h2v-2z" fill="rgb(203,113,116)"/>
<path d="M176 44h2v2h-2v-2z" fill="rgb(154,66,75)"/>
<path d="M186 44h2v4h-2v-4z" fill="rgb(154,66,75)"/>
<path d="M2 46h2v8h-2v-8z" fill="rgb(77,6,8)"/>
<path d="M4 46h2v2h2v4h-2v4h-2v12h-2v-14h2v-8z" fill="rgb(121,45,52)"/>
<path d="M10 46h6v2h-6v-2z" fill="rgb(154,66,75)"/>
<path d="M22 46h2v2h-2v-2z" fill="rgb(154,66,75)"/>
<path d="M24 46h2v2h-2v-2z" fill="rgb(203,113,116)"/>
<path d="M38 46h2v2h-2v-2z" fill="rgb(203,113,116)"/>
<path d="M40 46h4v2h2v4h-2v-2h-2v-2h-2v-2z" fill="rgb(154,66,75)"/>
<path d="M44 46h2v2h-2v-2z" fill="rgb(203,113,116)"/>
<path d="M48 46h2v2h-2v-2z" fill="rgb(234,198,195)"/>
<path d="M52 46h2v4h2v2h2v2h2v2h4v2h4v2h-6v-2h-6v-2h-2v-4h-2v-6z" fill="rgb(203,113,116)"/>
<path d="M54 46h2v4h-2v-4z" fill="rgb(154,66,75)"/>
<path d="M62 46h4v2h4v4h-4v-2h-4v-4z" fill="rgb(234,198,195)"/>
<path d="M82 46h4v2h-4v-2z" fill="rgb(203,113,116)"/>
<path d="M100 46h8v2h-6v2h2v4h-2v8h-2v-2h-2v-10h2v-4z" fill="rgb(154,66,75)"/>
<path d="M108 46h4v2h-4v-2z" fill="rgb(203,113,116)"/>
<path d="M128 46h4v4h-4v2h-4v-4h4v-2z" fill="rgb(234,198,195)"/>
<path d="M138 46h2v4h-2v-4z" fill="rgb(154,66,75)"/>
<path d="M140 46h2v6h-2v4h-2v2h-6v2h-6v-2h4v-2h4v-2h2v-2h2v-2h2v-4z" fill="rgb(203,113,116)"/>
<path d="M144 46h2v2h-2v-2z" fill="rgb(234,198,195)"/>
<path d="M148 46h2v2h-2v-2z" fill="rgb(203,113,116)"/>
<path d="M150 46h4v2h-2v2h-2v2h-2v-4h2v-2z" fill="rgb(154,66,75)"/>
<path d="M154 46h2v2h-2v-2z" fill="rgb(203,113,116)"/>
<path d="M168 46h2v2h-2v-2z" fill="rgb(203,113,116)"/>
<path d="M170 46h2v2h-2v-2z" fill="rgb(154,66,75)"/>
<path d="M178 46h6v2h-6v-2z" fill="rgb(154,66,75)"/>
<path d="M188 46h2v8h2v14h-2v-12h-2v-4h-2v-4h2v-2z" fill="rgb(121,45,52)"/>
<path d="M190 46h2v8h-2v-8z" fill="rgb(77,6,8)"/>
<path d="M8 48h2v4h-2v-4z" fill="rgb(154,66,75)"/>
<path d="M12 48h6v2h-2v2h-4v-4z" fill="rgb(221,167,167)"/>
<path d="M24 48h2v2h4v4h-2v-2h-4v-4z" fill="rgb(154,66,75)"/>
<path d="M26 48h2v2h-2v-2z" fill="rgb(203,113,116)"/>
<path d="M40 48h2v2h-2v-2z" fill="rgb(203,113,116)"/>
<path d="M46 48h2v4h-2v-4z" fill="rgb(203,113,116)"/>
<path d="M70 48h2v2h2v2h2v4h-2v2h-4v-2h-2v-2h-4v-2h-2v-2h4v2h4v-4z" fill="rgb(221,167,167)"/>
<path d="M72 48h6v2h-6v-2z" fill="rgb(154,66,75)"/>
<path d="M78 48h4v2h-4v-2z" fill="rgb(203,113,116)"/>
<path d="M82 48h4v2h-2v2h-4v2h-2v-4h4v-2z" fill="rgb(154,66,75)"/>
<path d="M86 48h6v2h-2v2h-6v-2h2v-2z" fill="rgb(203,113,116)"/>
<path d="M98 48h2v2h-2v-2z" fill="rgb(121,45,52)"/>
<path d="M102 48h6v2h2v2h-6v-2h-2v-2z" fill="rgb(203,113,116)"/>
<path d="M108 48h4v2h4v4h-2v-2h-4v-2h-2v-2z" fill="rgb(154,66,75)"/>
<path d="M112 48h4v2h-4v-2z" fill="rgb(203,113,116)"/>
<path d="M116 48h6v2h-6v-2z" fill="rgb(154,66,75)"/>
<path d="M122 48h2v4h4v-2h4v2h-2v2h-4v2h-2v2h-4v-2h-2v-4h2v-2h2v-2z" fill="rgb(221,167,167)"/>
<path d="M146 48h2v4h-2v-4z" fill="rgb(203,113,116)"/>
<path d="M152 48h2v2h-2v-2z" fill="rgb(203,113,116)"/>
<path d="M166 48h2v2h-2v-2z" fill="rgb(203,113,116)"/>
<path d="M168 48h2v4h-4v2h-2v-4h4v-2z" fill="rgb(154,66,75)"/>
<path d="M176 48h6v4h-4v-2h-2v-2z" fill="rgb(221,167,167)"/>
<path d="M184 48h2v4h-2v-4z" fill="rgb(154,66,75)"/>
<path d="M30 50h2v2h2v2h-4v-4z" fill="rgb(203,113,116)"/>
<path d="M42 50h2v2h-2v-2z" fill="rgb(203,113,116)"/>
<path d="M56 50h2v2h-2v-2z" fill="rgb(154,66,75)"/>
<path d="M74 50h4v4h-2v-2h-2v-2z" fill="rgb(203,113,116)"/>
<path d="M116 50h4v2h-2v2h-2v-4z" fill="rgb(203,113,116)"/>
<path d="M136 50h2v2h-2v-2z" fill="rgb(154,66,75)"/>
<path d="M150 50h2v2h-2v-2z" fill="rgb(203,113,116)"/>
<path d="M162 50h2v4h-4v-2h2v-2z" fill="rgb(203,113,116)"/>
<path d="M6 52h2v4h2v2h2v2h2v4h2v4h-4v-2h-4v-4h-2v-4h-2v-2h2v-4z" fill="rgb(203,113,116)"/>
<path d="M8 52h2v2h-2v-2z" fill="rgb(121,45,52)"/>
<path d="M20 52h4v2h-4v-2z" fill="rgb(154,66,75)"/>
<path d="M24 52h4v2h-4v-2z" fill="rgb(203,113,116)"/>
<path d="M50 52h2v2h-2v-2z" fill="rgb(234,198,195)"/>
<path d="M58 52h4v2h2v2h-4v-2h-2v-2z" fill="rgb(154,66,75)"/>
<path d="M62 52h2v2h-2v-2z" fill="rgb(203,113,116)"/>
<path d="M80 52h4v2h-2v2h-2v4h-2v-2h-4v-2h4v-2h2v-2z" fill="rgb(203,113,116)"/>
<path d="M84 52h6v2h2v8h-2v2h-2v-2h-4v-2h-4v-4h2v-2h2v-2z" fill="rgb(221,167,167)"/>
<path d="M104 52h6v2h2v2h2v4h-4v2h-4v2h-2v-2h-2v-8h2v-2z" fill="rgb(221,167,167)"/>
<path d="M110 52h4v2h2v2h4v2h-4v2h-2v-4h-2v-2h-2v-2z" fill="rgb(203,113,116)"/>
<path d="M130 52h2v2h-2v-2z" fill="rgb(203,113,116)"/>
<path d="M132 52h4v2h-2v2h-4v-2h2v-2z" fill="rgb(154,66,75)"/>
<path d="M142 52h2v2h-2v-2z" fill="rgb(234,198,195)"/>
<path d="M166 52h4v2h-4v-2z" fill="rgb(203,113,116)"/>
<path d="M170 52h4v2h-4v-2z" fill="rgb(154,66,75)"/>
<path d="M184 52h2v2h-2v-2z" fill="rgb(121,45,52)"/>
<path d="M186 52h2v4h2v2h-2v4h-2v4h-4v2h-4v-4h2v-4h2v-2h2v-2h2v-4z" fill="rgb(203,113,116)"/>
<path d="M0 54h2v14h-2v-14z" fill="rgb(77,6,8)"/>
<path d="M8 54h2v2h-2v-2z" fill="rgb(154,66,75)"/>
<path d="M10 54h2v2h-2v-2z" fill="rgb(121,45,52)"/>
<path d="M18 54h2v2h-2v-2z" fill="rgb(154,66,75)"/>
<path d="M20 54h2v2h-2v-2z" fill="rgb(203,113,116)"/>
<path d="M22 54h6v4h-2v2h-2v2h-2v2h-2v-8h2v-2z" fill="rgb(221,167,167)"/>
<path d="M28 54h2v2h4v-2h2v2h8v4h2v-6h2v2h2v4h-2v4h-2v-2h-4v-4h-4v2h-2v-2h-2v4  h-2v-2h-4v2h-2v2h-4v-2h2v-2h2v-2h2v-4z" fill="rgb(203,113,116)"/>
<path d="M30 54h4v2h-4v-2z" fill="rgb(154,66,75)"/>
<path d="M64 54h4v2h-4v-2z" fill="rgb(203,113,116)"/>
<path d="M76 54h2v2h-2v-2z" fill="rgb(154,66,75)"/>
<path d="M86 54h2v2h2v4h-4v-2h-2v-2h2v-2z" fill="rgb(234,198,195)"/>
<path d="M106 54h2v2h2v2h-2v2h-4v-4h2v-2z" fill="rgb(234,198,195)"/>
<path d="M116 54h2v2h-2v-2z" fill="rgb(154,66,75)"/>
<path d="M126 54h4v2h-4v-2z" fill="rgb(203,113,116)"/>
<path d="M146 54h2v6h2v-4h8v-2h2v2h4v-2h2v4h2v2h2v2h2v2h-4v-2h-2v-2h-4v2h-2v-4  h-2v2h-2v-2h-4v4h-4v2h-2v-4h-2v-4h2v-2z" fill="rgb(203,113,116)"/>
<path d="M160 54h4v2h-4v-2z" fill="rgb(154,66,75)"/>
<path d="M166 54h6v2h-2v2h2v-2h2v8h-2v-2h-2v-2h-2v-2h-2v-4z" fill="rgb(221,167,167)"/>
<path d="M172 54h2v2h-2v-2z" fill="rgb(203,113,116)"/>
<path d="M174 54h2v2h-2v-2z" fill="rgb(154,66,75)"/>
<path d="M182 54h2v2h-2v-2z" fill="rgb(121,45,52)"/>
<path d="M184 54h2v2h-2v-2z" fill="rgb(154,66,75)"/>
<path d="M192 54h2v14h-2v-14z" fill="rgb(77,6,8)"/>
<path d="M10 56h2v2h-2v-2z" fill="rgb(154,66,75)"/>
<path d="M16 56h2v4h-2v-4z" fill="rgb(154,66,75)"/>
<path d="M18 56h2v8h2v2h-4v-2h-2v-4h2v-4z" fill="rgb(203,113,116)"/>
<path d="M22 56h2v2h-2v-2z" fill="rgb(234,198,195)"/>
<path d="M44 56h2v4h-2v-4z" fill="rgb(154,66,75)"/>
<path d="M64 56h4v2h-4v-2z" fill="rgb(154,66,75)"/>
<path d="M68 56h2v2h-2v-2z" fill="rgb(203,113,116)"/>
<path d="M96 56h2v4h-2v-4z" fill="rgb(121,45,52)"/>
<path d="M124 56h2v2h-2v-2z" fill="rgb(203,113,116)"/>
<path d="M126 56h4v2h-4v-2z" fill="rgb(154,66,75)"/>
<path d="M148 56h2v4h-2v-4z" fill="rgb(154,66,75)"/>
<path d="M170 56h2v2h-2v-2z" fill="rgb(234,198,195)"/>
<path d="M174 56h2v4h2v4h-2v2h-4v-2h2v-8z" fill="rgb(203,113,116)"/>
<path d="M176 56h2v4h-2v-4z" fill="rgb(154,66,75)"/>
<path d="M182 56h2v2h-2v-2z" fill="rgb(154,66,75)"/>
<path d="M4 58h2v6h-2v-6z" fill="rgb(154,66,75)"/>
<path d="M12 58h2v2h-2v-2z" fill="rgb(154,66,75)"/>
<path d="M34 58h2v2h-2v-2z" fill="rgb(154,66,75)"/>
<path d="M38 58h4v2h-4v-2z" fill="rgb(154,66,75)"/>
<path d="M68 58h2v2h-2v-2z" fill="rgb(154,66,75)"/>
<path d="M70 58h4v2h-4v-2z" fill="rgb(203,113,116)"/>
<path d="M74 58h4v2h2v2h-4v-2h-2v-2z" fill="rgb(154,66,75)"/>
<path d="M116 58h4v2h-2v2h-4v-2h2v-2z" fill="rgb(154,66,75)"/>
<path d="M120 58h4v2h-4v-2z" fill="rgb(203,113,116)"/>
<path d="M124 58h2v2h-2v-2z" fill="rgb(154,66,75)"/>
<path d="M152 58h4v2h-4v-2z" fill="rgb(154,66,75)"/>
<path d="M158 58h2v2h-2v-2z" fill="rgb(154,66,75)"/>
<path d="M180 58h2v2h-2v-2z" fill="rgb(154,66,75)"/>
<path d="M188 58h2v6h-2v-6z" fill="rgb(154,66,75)"/>
<path d="M14 60h2v4h-2v-4z" fill="rgb(154,66,75)"/>
<path d="M28 60h4v2h-4v-2z" fill="rgb(154,66,75)"/>
<path d="M34 60h8v2h-4v2h-4v4h4v2h4v-2h2v-4h-2v-2h4v2h2v2h2v4h-2v-2h-2v4h-12v-2  h-4v-2h-2v-4h2v-2h4v-2z" fill="rgb(221,167,167)"/>
<path d="M48 60h2v2h2v2h-4v-4z" fill="rgb(154,66,75)"/>
<path d="M50 60h2v2h-2v-2z" fill="rgb(203,113,116)"/>
<path d="M56 60h6v2h4v6h-6v-2h-2v-4h-2v-2z" fill="rgb(234,198,195)"/>
<path d="M68 60h2v2h4v2h-4v6h2v-4h2v-2h2v4h-2v6h2v4h4v2h2v2h4v-2h2v-2h2v-4h2v8  h-2v4h-6v-2h-4v-2h-4v-2h-2v-2h-2v-2h-2v2h-4v2h-2v4h2v2h4v-2h2v-4h2v4h2v2h-4v2  h-2v2h-6v-4h-2v-10h-2v-2h4v-2h2v-2h2v-10z" fill="rgb(203,113,116)"/>
<path d="M70 60h4v2h-4v-2z" fill="rgb(154,66,75)"/>
<path d="M74 60h2v2h-2v-2z" fill="rgb(203,113,116)"/>
<path d="M80 60h4v2h4v2h2v-2h4v2h-2v2h-6v-2h-2v2h-4v-2h2v-2h-2v-2z" fill="rgb(203,113,116)"/>
<path d="M98 60h2v6h-2v-6z" fill="rgb(121,45,52)"/>
<path d="M110 60h4v2h-2v2h2v2h-4v-2h-2v2h-6v-2h-2v-2h4v2h2v-2h4v-2z" fill="rgb(203,113,116)"/>
<path d="M118 60h2v2h-2v-2z" fill="rgb(203,113,116)"/>
<path d="M120 60h4v2h-4v-2z" fill="rgb(154,66,75)"/>
<path d="M124 60h2v10h2v2h2v2h4v2h-2v10h-2v4h-6v-2h-2v-2h-4v-2h2v-4h-2v2h-4v2  h-4v2h-6v-4h-2v-8h2v4h2v2h2v2h4v-2h2v-2h4v-4h2v-6h-2v-4h2v-2h4v-2z" fill="rgb(203,113,116)"/>
<path d="M132 60h6v2h-2v4h-2v2h-6v-6h4v-2z" fill="rgb(234,198,195)"/>
<path d="M142 60h2v2h-2v-2z" fill="rgb(203,113,116)"/>
<path d="M144 60h2v4h-4v-2h2v-2z" fill="rgb(154,66,75)"/>
<path d="M152 60h8v2h4v2h2v4h-2v-2h-2v2h2v2h-4v2h-12v-4h-2v2h-2v-4h2v-2h2v-2h4  v-2z" fill="rgb(221,167,167)"/>
<path d="M162 60h4v2h-4v-2z" fill="rgb(154,66,75)"/>
<path d="M178 60h2v4h-2v-4z" fill="rgb(154,66,75)"/>
<path d="M6 62h2v2h-2v-2z" fill="rgb(121,45,52)"/>
<path d="M26 62h2v2h-2v-2z" fill="rgb(154,66,75)"/>
<path d="M28 62h2v2h-2v-2z" fill="rgb(203,113,116)"/>
<path d="M38 62h4v2h2v4h-2v2h-4v-2h-4v-4h4v-2z" fill="rgb(234,198,195)"/>
<path d="M52 62h2v4h2v2h-4v-2h-4v-2h4v-2z" fill="rgb(203,113,116)"/>
<path d="M74 62h2v2h-2v-2z" fill="rgb(154,66,75)"/>
<path d="M76 62h4v2h-4v-2z" fill="rgb(203,113,116)"/>
<path d="M80 62h2v2h-2v-2z" fill="rgb(154,66,75)"/>
<path d="M94 62h2v14h-2v6h-2v-8h-2v-2h2v-2h-2v-2h-4v-2h6v-2h2v-2z" fill="rgb(154,66,75)"/>
<path d="M112 62h2v2h-2v-2z" fill="rgb(154,66,75)"/>
<path d="M114 62h4v2h-4v-2z" fill="rgb(203,113,116)"/>
<path d="M118 62h2v2h-2v-2z" fill="rgb(154,66,75)"/>
<path d="M140 62h2v2h4v2h-4v2h-4v-2h2v-4z" fill="rgb(203,113,116)"/>
<path d="M152 62h4v2h4v4h-4v2h-4v-2h-2v-4h2v-2z" fill="rgb(234,198,195)"/>
<path d="M164 62h2v2h-2v-2z" fill="rgb(203,113,116)"/>
<path d="M166 62h2v2h-2v-2z" fill="rgb(154,66,75)"/>
<path d="M186 62h2v2h-2v-2z" fill="rgb(121,45,52)"/>
<path d="M4 64h2v4h-2v-4z" fill="rgb(203,113,116)"/>
<path d="M6 64h2v4h-2v-4z" fill="rgb(154,66,75)"/>
<path d="M16 64h2v2h4v2h-6v-4z" fill="rgb(154,66,75)"/>
<path d="M22 64h4v2h-4v-2z" fill="rgb(154,66,75)"/>
<path d="M26 64h2v4h2v2h4v2h4v2h4v2h2v4h-2v2h2v2h-2v2h-4v2h-2v-2h-2v-4h-2v-2h-2  v-2h-2v-2h-2v-2h4v-2h-4v-4h-2v-2h2v-2z" fill="rgb(203,113,116)"/>
<path d="M70 64h4v2h-2v4h-2v-6z" fill="rgb(154,66,75)"/>
<path d="M76 64h4v2h-4v-2z" fill="rgb(221,167,167)"/>
<path d="M84 64h2v2h-2v-2z" fill="rgb(154,66,75)"/>
<path d="M100 64h2v2h6v2h-4v2h-2v2h2v2h-2v8h-2v-18z" fill="rgb(154,66,75)"/>
<path d="M108 64h2v2h-2v-2z" fill="rgb(154,66,75)"/>
<path d="M114 64h4v2h-4v-2z" fill="rgb(221,167,167)"/>
<path d="M120 64h4v6h-2v-4h-2v-2z" fill="rgb(154,66,75)"/>
<path d="M166 64h2v2h2v2h-2v4h-4v2h4v2h-2v2h-2v2h-2v2h-2v4h-2v2h-2v-2h-4v-2h-2  v-2h2v-2h-2v-4h2v-2h4v-2h4v-2h4v-2h2v-4z" fill="rgb(203,113,116)"/>
<path d="M168 64h4v2h-4v-2z" fill="rgb(154,66,75)"/>
<path d="M176 64h2v4h-6v-2h4v-2z" fill="rgb(154,66,75)"/>
<path d="M186 64h2v4h-2v-4z" fill="rgb(154,66,75)"/>
<path d="M188 64h2v4h-2v-4z" fill="rgb(203,113,116)"/>
<path d="M8 66h2v2h-2v-2z" fill="rgb(121,45,52)"/>
<path d="M10 66h2v2h-2v-2z" fill="rgb(154,66,75)"/>
<path d="M22 66h2v2h-2v-2z" fill="rgb(121,45,52)"/>
<path d="M30 66h2v2h-2v-2z" fill="rgb(234,198,195)"/>
<path d="M50 66h2v2h-2v-2z" fill="rgb(154,66,75)"/>
<path d="M76 66h4v2h4v2h2v2h-2v2h-4v-2h-2v-2h-2v-4z" fill="rgb(234,198,195)"/>
<path d="M80 66h4v2h-4v-2z" fill="rgb(221,167,167)"/>
<path d="M84 66h2v2h-2v-2z" fill="rgb(203,113,116)"/>
<path d="M108 66h2v2h-2v-2z" fill="rgb(203,113,116)"/>
<path d="M110 66h4v2h-4v-2z" fill="rgb(221,167,167)"/>
<path d="M114 66h4v4h-2v2h-2v2h-4v-2h-2v-2h2v-2h4v-2z" fill="rgb(234,198,195)"/>
<path d="M142 66h2v2h-2v-2z" fill="rgb(154,66,75)"/>
<path d="M162 66h2v2h-2v-2z" fill="rgb(234,198,195)"/>
<path d="M170 66h2v2h-2v-2z" fill="rgb(121,45,52)"/>
<path d="M182 66h2v2h-2v-2z" fill="rgb(154,66,75)"/>
<path d="M184 66h2v2h-2v-2z" fill="rgb(121,45,52)"/>

<path d="M2 68h2v8h-2v-8z" fill="rgb(77,6,8)"/>
<path d="M4 68h2v6h4v-6h2v2h4v-2h6v2h2v2h2v2h-2v2h-4v-2h-2v2h-2v-2h-4v2h-2v2h-2  v2h-2v-4h-2v-8z" fill="rgb(121,45,52)"/>
<path d="M6 68h2v4h-2v-4z" fill="rgb(203,113,116)"/>
<path d="M8 68h2v6h-4v-2h2v-4z" fill="rgb(154,66,75)"/>
<path d="M12 68h4v2h-4v-2z" fill="rgb(154,66,75)"/>
<path d="M22 68h4v4h-2v-2h-2v-2z" fill="rgb(154,66,75)"/>
<path d="M46 68h2v2h-2v-2z" fill="rgb(234,198,195)"/>
<path d="M50 68h2v4h-4v6h2v4h2v2h6v-6h-2v-2h4v12h-6v-2h-2v4h-2v-2h-4v2h-2v4h2v2  h10v-4h-2v-2h6v2h2v2h2v4h-2v2h-4v2h-4v-2h-4v-2h-6v-2h-2v-2h-2v-4h2v-2h2v-4h4  v-2h-4v-2h2v-4h-2v-2h-2v-2h4v-2h4v-2z" fill="rgb(203,113,116)"/>
<path d="M52 68h4v2h-2v2h-2v-4z" fill="rgb(154,66,75)"/>
<path d="M56 68h2v4h-4v-2h2v-2z" fill="rgb(203,113,116)"/>
<path d="M74 68h2v2h2v2h2v2h4v-2h2v-2h2v4h2v4h-2v2h-2v2h-4v-2h-2v-2h-4v-4h-2v-6z" fill="rgb(221,167,167)"/>
<path d="M84 68h2v2h-2v-2z" fill="rgb(221,167,167)"/>
<path d="M86 68h4v2h2v2h-2v2h-2v-4h-2v-2z" fill="rgb(203,113,116)"/>
<path d="M96 68h2v4h-2v-4z" fill="rgb(121,45,52)"/>
<path d="M104 68h4v2h-2v4h-2v-2h-2v-2h2v-2z" fill="rgb(203,113,116)"/>
<path d="M108 68h2v2h-2v-2z" fill="rgb(221,167,167)"/>
<path d="M118 68h2v6h-2v4h-4v2h-2v2h-4v-2h-2v-2h-2v-4h2v-4h2v2h2v2h4v-2h2v-2h2  v-2z" fill="rgb(221,167,167)"/>
<path d="M136 68h2v2h2v2h-4v-4z" fill="rgb(203,113,116)"/>
<path d="M138 68h4v4h-2v-2h-2v-2z" fill="rgb(154,66,75)"/>
<path d="M142 68h2v2h4v2h4v2h-2v2h-2v4h2v2h-4v2h-2v2h2v-2h4v4h2v2h2v4h-2v2h-2v2  h-6v2h-4v2h-4v-2h-4v-2h-2v-4h2v-2h2v-2h6v2h-2v4h10v-2h2v-4h-2v-2h-4v2h-2v-4h-2  v2h-6v-12h4v2h-2v6h6v-2h2v-4h2v-6h-4v-4z" fill="rgb(203,113,116)"/>
<path d="M146 68h2v2h-2v-2z" fill="rgb(234,198,195)"/>
<path d="M168 68h4v2h-2v2h-2v-4z" fill="rgb(154,66,75)"/>
<path d="M172 68h6v2h4v-2h2v6h4v-6h2v8h-2v4h-2v-2h-2v-2h-2v-2h-4v2h-2v-2h-2v2  h-4v-2h-2v-2h2v-2h2v-2z" fill="rgb(121,45,52)"/>
<path d="M178 68h4v2h-4v-2z" fill="rgb(154,66,75)"/>
<path d="M184 68h2v4h2v2h-4v-6z" fill="rgb(154,66,75)"/>
<path d="M186 68h2v4h-2v-4z" fill="rgb(203,113,116)"/>
<path d="M190 68h2v8h-2v-8z" fill="rgb(77,6,8)"/>

<path d="M26 72h4v2h-4v-2z" fill="rgb(154,66,75)"/>
<path d="M38 72h4v2h-4v-2z" fill="rgb(154,66,75)"/>
<path d="M48 72h4v2h2v2h2v2h-2v2h2v-2h2v6h-6v-2h-2v-4h-2v-2h2v-2h-2v-2z" fill="rgb(221,167,167)"/>
<path d="M52 72h2v2h-2v-2z" fill="rgb(203,113,116)"/>
<path d="M54 72h4v2h2v2h-4v-2h-2v-2z" fill="rgb(154,66,75)"/>
<path d="M58 72h2v2h-2v-2z" fill="rgb(203,113,116)"/>
<path d="M70 72h2v2h-2v-2z" fill="rgb(154,66,75)"/>
<path d="M122 72h2v2h-2v-2z" fill="rgb(154,66,75)"/>
<path d="M134 72h2v2h-2v-2z" fill="rgb(203,113,116)"/>
<path d="M136 72h4v2h-2v2h-4v-2h2v-2z" fill="rgb(154,66,75)"/>
<path d="M140 72h2v2h-2v-2z" fill="rgb(203,113,116)"/>
<path d="M142 72h4v2h-2v2h2v2h-2v4h-2v2h-6v-6h2v-2h2v-2h2v-2z" fill="rgb(221,167,167)"/>
<path d="M152 72h4v2h-4v-2z" fill="rgb(154,66,75)"/>
<path d="M164 72h4v2h-4v-2z" fill="rgb(154,66,75)"/>
<path d="M12 74h4v2h-4v-2z" fill="rgb(191,68,71)"/>
<path d="M18 74h2v2h-2v-2z" fill="rgb(191,68,71)"/>
<path d="M24 74h2v2h-2v-2z" fill="rgb(154,66,75)"/>
<path d="M42 74h2v2h-2v-2z" fill="rgb(154,66,75)"/>
<path d="M48 74h2v2h-2v-2z" fill="rgb(234,198,195)"/>
<path d="M54 74h2v2h-2v-2z" fill="rgb(203,113,116)"/>
<path d="M138 74h2v2h-2v-2z" fill="rgb(203,113,116)"/>
<path d="M144 74h2v2h-2v-2z" fill="rgb(234,198,195)"/>
<path d="M150 74h2v2h-2v-2z" fill="rgb(154,66,75)"/>
<path d="M168 74h2v2h-2v-2z" fill="rgb(154,66,75)"/>
<path d="M174 74h2v2h-2v-2z" fill="rgb(191,68,71)"/>
<path d="M178 74h4v2h-4v-2z" fill="rgb(191,68,71)"/>
<path d="M4 76h2v6h-2v-6z" fill="rgb(68,10,16)"/>
<path d="M10 76h2v2h-2v-2z" fill="rgb(191,68,71)"/>
<path d="M12 76h4v2h-4v-2z" fill="rgb(214,109,113)"/>
<path d="M16 76h2v2h-2v-2z" fill="rgb(191,68,71)"/>
<path d="M18 76h4v2h-2v2h-2v-4z" fill="rgb(214,109,113)"/>
<path d="M22 76h2v2h-2v-2z" fill="rgb(191,68,71)"/>
<path d="M24 76h2v2h-2v-2z" fill="rgb(121,45,52)"/>
<path d="M26 76h2v2h-2v-2z" fill="rgb(154,66,75)"/>
<path d="M32 76h6v2h2v6h-2v-2h-2v-2h-2v-2h-2v-2z" fill="rgb(221,167,167)"/>
<path d="M44 76h2v4h-2v-4z" fill="rgb(154,66,75)"/>
<path d="M60 76h2v10h2v4h6v-2h2v4h-2v2h-2v2h-2v4h-4v-2h2v-4h-2v-2h-2v-2h2v-2h-2  v-12z" fill="rgb(154,66,75)"/>
<path d="M70 76h2v2h-2v-2z" fill="rgb(154,66,75)"/>
<path d="M94 76h2v4h2v2h-2v4h-6v-2h2v-2h2v-6z" fill="rgb(121,45,52)"/>
<path d="M98 76h2v4h-2v-4z" fill="rgb(121,45,52)"/>
<path d="M122 76h2v2h-2v-2z" fill="rgb(154,66,75)"/>
<path d="M132 76h2v12h-2v2h2v2h-2v2h-2v-2h-2v2h2v4h2v2h-4v-4h-2v-2h-2v-2h-2v-4  h2v2h6v-4h2v-10z" fill="rgb(154,66,75)"/>
<path d="M148 76h2v4h-2v-4z" fill="rgb(154,66,75)"/>
<path d="M156 76h6v2h-2v2h-2v2h-2v2h-2v-6h2v-2z" fill="rgb(221,167,167)"/>
<path d="M166 76h2v2h-2v-2z" fill="rgb(154,66,75)"/>
<path d="M168 76h2v2h-2v-2z" fill="rgb(121,45,52)"/>
<path d="M170 76h2v2h-2v-2z" fill="rgb(191,68,71)"/>
<path d="M172 76h4v4h-2v-2h-2v-2z" fill="rgb(214,109,113)"/>
<path d="M176 76h2v2h-2v-2z" fill="rgb(191,68,71)"/>
<path d="M178 76h4v2h-4v-2z" fill="rgb(214,109,113)"/>
<path d="M182 76h2v2h-2v-2z" fill="rgb(191,68,71)"/>
<path d="M188 76h2v6h-2v-6z" fill="rgb(68,10,16)"/>
<path d="M8 78h2v6h4v2h4v-2h2v-2h2v6h2v2h-6v-2h-6v-2h-6v-6h2v-2z" fill="rgb(191,68,71)"/>
<path d="M10 78h2v4h4v-2h2v2h2v2h-2v2h-4v-2h-4v-6z" fill="rgb(214,109,113)"/>
<path d="M12 78h6v2h-2v2h-4v-4z" fill="rgb(221,167,167)"/>
<path d="M20 78h2v2h-2v-2z" fill="rgb(221,167,167)"/>
<path d="M22 78h2v6h-2v-2h-2v-2h2v-2z" fill="rgb(214,109,113)"/>
<path d="M24 78h2v2h2v2h2v4h-2v-2h-2v2h-2v-8z" fill="rgb(191,68,71)"/>
<path d="M26 78h2v2h-2v-2z" fill="rgb(121,45,52)"/>
<path d="M28 78h2v2h-2v-2z" fill="rgb(154,66,75)"/>
<path d="M54 78h2v2h-2v-2z" fill="rgb(234,198,195)"/>
<path d="M66 78h4v2h2v4h-2v2h-4v-2h-2v-4h2v-2z" fill="rgb(221,167,167)"/>
<path d="M70 78h2v2h-2v-2z" fill="rgb(203,113,116)"/>
<path d="M72 78h2v2h-2v-2z" fill="rgb(154,66,75)"/>
<path d="M120 78h2v2h-2v-2z" fill="rgb(154,66,75)"/>
<path d="M122 78h2v2h-2v-2z" fill="rgb(203,113,116)"/>
<path d="M124 78h4v2h2v4h-2v-2h-2v2h2v2h-4v-2h-2v-4h2v-2z" fill="rgb(221,167,167)"/>
<path d="M138 78h2v2h-2v-2z" fill="rgb(234,198,195)"/>
<path d="M164 78h2v2h-2v-2z" fill="rgb(154,66,75)"/>
<path d="M166 78h2v2h-2v-2z" fill="rgb(121,45,52)"/>
<path d="M168 78h2v8h-2v-2h-2v2h-2v-4h2v-2h2v-2z" fill="rgb(191,68,71)"/>
<path d="M170 78h2v2h2v2h-2v2h-2v-6z" fill="rgb(214,109,113)"/>
<path d="M172 78h2v2h-2v-2z" fill="rgb(221,167,167)"/>
<path d="M176 78h6v4h-4v-2h-2v-2z" fill="rgb(221,167,167)"/>
<path d="M182 78h2v6h-4v2h-4v-2h-2v-2h2v-2h2v2h4v-4z" fill="rgb(214,109,113)"/>
<path d="M184 78h2v2h2v6h-8v-2h4v-6z" fill="rgb(191,68,71)"/>
<path d="M18 80h2v2h-2v-2z" fill="rgb(191,68,71)"/>
<path d="M28 80h2v2h-2v-2z" fill="rgb(121,45,52)"/>
<path d="M30 80h2v2h-2v-2z" fill="rgb(154,66,75)"/>
<path d="M42 80h2v2h-2v-2z" fill="rgb(154,66,75)"/>
<path d="M74 80h2v2h4v2h4v2h12v4h2v4h-2v-2h-2v-2h-2v-2h-10v-2h-4v2h2v4h2v2h-2v2  h-2v-6h-2v-2h-4v-2h4v-2h-2v-4z" fill="rgb(154,66,75)"/>
<path d="M98 80h2v18h-2v4h-2v-6h2v-10h-2v-4h2v-2z" fill="rgb(96,19,26)"/>
<path d="M118 80h2v4h-2v2h4v2h-4v2h-2v6h-2v-2h-2v-2h2v-4h2v-2h-4v2h-6v2h-2v10h2  v2h-6v-4h2v-2h-2v-2h2v-8h8v-2h4v-2h4v-2z" fill="rgb(154,66,75)"/>
<path d="M150 80h2v2h-2v-2z" fill="rgb(154,66,75)"/>
<path d="M162 80h2v2h-2v-2z" fill="rgb(154,66,75)"/>
<path d="M164 80h2v2h-2v-2z" fill="rgb(121,45,52)"/>
<path d="M174 80h2v2h-2v-2z" fill="rgb(191,68,71)"/>
<path d="M2 82h2v6h-2v-6z" fill="rgb(68,10,16)"/>
<path d="M4 82h2v4h6v2h-2v8h2v6h-2v-4h-2v-4h-2v-6h-2v-6z" fill="rgb(121,45,52)"/>
<path d="M30 82h2v6h-2v-6z" fill="rgb(121,45,52)"/>
<path d="M32 82h2v4h2v2h2v2h-4v-2h-2v-6z" fill="rgb(154,66,75)"/>
<path d="M44 82h4v2h-4v-2z" fill="rgb(154,66,75)"/>
<path d="M66 82h2v2h-2v-2z" fill="rgb(214,109,113)"/>
<path d="M90 82h2v2h-2v-2z" fill="rgb(154,66,75)"/>
<path d="M100 82h2v2h2v2h-2v8h-2v-12z" fill="rgb(121,45,52)"/>
<path d="M102 82h2v2h-2v-2z" fill="rgb(154,66,75)"/>
<path d="M126 82h2v2h-2v-2z" fill="rgb(214,109,113)"/>
<path d="M146 82h4v2h-4v-2z" fill="rgb(154,66,75)"/>
<path d="M160 82h2v6h-2v2h-4v-2h2v-2h2v-4z" fill="rgb(154,66,75)"/>
<path d="M162 82h2v6h-2v-6z" fill="rgb(121,45,52)"/>
<path d="M172 82h2v2h2v2h4v2h-8v-6z" fill="rgb(191,68,71)"/>
<path d="M188 82h2v6h-2v6h-2v4h-2v4h-2v-6h2v-8h-2v4h-2v-2h-4v2h-2v6h-2v2h-6v-2  h4v-2h2v-4h-2v-2h2v-2h8v-2h8v-4z" fill="rgb(121,45,52)"/>
<path d="M190 82h2v6h-2v-6z" fill="rgb(68,10,16)"/>
<path d="M22 84h2v4h-2v-4z" fill="rgb(121,45,52)"/>
<path d="M26 84h2v2h-2v-2z" fill="rgb(214,109,113)"/>
<path d="M42 84h2v4h-2v-4z" fill="rgb(154,66,75)"/>
<path d="M48 84h2v2h-2v-2z" fill="rgb(154,66,75)"/>
<path d="M144 84h2v2h-2v-2z" fill="rgb(154,66,75)"/>
<path d="M150 84h2v4h-2v-4z" fill="rgb(154,66,75)"/>
<path d="M166 84h2v2h-2v-2z" fill="rgb(214,109,113)"/>
<path d="M170 84h2v4h-2v-4z" fill="rgb(121,45,52)"/>
<path d="M24 86h2v6h4v4h2v-2h2v2h2v2h-2v2h-4v-2h-2v-2h-4v-10z" fill="rgb(214,109,113)"/>
<path d="M26 86h2v2h2v4h-4v-6z" fill="rgb(221,167,167)"/>
<path d="M28 86h2v2h-2v-2z" fill="rgb(214,109,113)"/>
<path d="M38 86h2v2h-2v-2z" fill="rgb(154,66,75)"/>
<path d="M40 86h2v2h-2v-2z" fill="rgb(121,45,52)"/>
<path d="M52 86h2v2h6v2h-8v-4z" fill="rgb(154,66,75)"/>
<path d="M78 86h4v2h2v2h-2v2h-2v-4h-2v-2z" fill="rgb(203,113,116)"/>
<path d="M96 86h2v4h-2v-4z" fill="rgb(121,45,52)"/>
<path d="M112 86h4v2h-2v4h-2v-2h-2v-2h2v-2z" fill="rgb(203,113,116)"/>
<path d="M140 86h2v4h-8v-2h6v-2z" fill="rgb(154,66,75)"/>
<path d="M152 86h2v2h-2v-2z" fill="rgb(121,45,52)"/>
<path d="M154 86h2v2h-2v-2z" fill="rgb(154,66,75)"/>
<path d="M164 86h2v2h-2v-2z" fill="rgb(214,109,113)"/>
<path d="M166 86h2v6h-4v-4h2v-2z" fill="rgb(221,167,167)"/>
<path d="M168 86h2v10h-4v2h-2v2h-4v-2h-2v-2h2v-2h2v2h2v-4h4v-6z" fill="rgb(214,109,113)"/>
<path d="M4 88h2v6h-2v-6z" fill="rgb(68,10,16)"/>
<path d="M10 88h2v4h2v2h-2v2h-2v-8z" fill="rgb(191,68,71)"/>
<path d="M12 88h6v2h-4v2h-2v-4z" fill="rgb(121,45,52)"/>
<path d="M30 88h2v2h-2v-2z" fill="rgb(191,68,71)"/>
<path d="M32 88h2v2h4v-2h2v4h-2v2h2v2h2v2h4v2h4v2h6v2h4v-2h2v-2h4v-4h2v6h2v2h2  v2h-4v2h-2v2h-2v-4h-8v2h-6v-2h4v-2h-6v-2h-4v-2h-4v-2h-2v-2h-2v-2h-2v-2h-2v2h-2  v-4h2v-2z" fill="rgb(121,45,52)"/>
<path d="M40 88h2v2h-2v-2z" fill="rgb(154,66,75)"/>
<path d="M46 88h4v2h4v2h2v4h-10v-2h-2v-4h2v-2z" fill="rgb(221,167,167)"/>
<path d="M60 88h2v2h-2v-2z" fill="rgb(203,113,116)"/>
<path d="M72 88h4v2h2v6h-2v-2h-4v4h2v2h2v2h2v-6h2v2h2v2h2v2h2v2h-2v2h-4v-2h-8  v-2h-2v-6h-2v-2h2v-2h2v-4z" fill="rgb(203,113,116)"/>
<path d="M84 88h4v2h4v2h2v4h-8v-2h-2v-2h-2v-2h2v-2z" fill="rgb(221,167,167)"/>
<path d="M88 88h4v2h-4v-2z" fill="rgb(203,113,116)"/>
<path d="M106 88h4v2h2v2h-2v2h-2v2h-4v-6h2v-2z" fill="rgb(221,167,167)"/>
<path d="M118 88h4v4h2v2h2v2h-2v6h-2v2h-8v2h-4v-2h-2v-2h2v-2h2v-2h2v-2h2v-6h2  v-2z" fill="rgb(203,113,116)"/>
<path d="M132 88h2v2h-2v-2z" fill="rgb(203,113,116)"/>
<path d="M144 88h4v2h2v4h-2v2h-10v-4h2v-2h4v-2z" fill="rgb(221,167,167)"/>
<path d="M152 88h2v2h-2v-2z" fill="rgb(154,66,75)"/>
<path d="M154 88h2v2h4v-2h2v2h2v4h-2v-2h-2v2h-2v2h-2v2h-2v2h-4v2h-4v2h-6v2h4v2  h-6v-2h-8v6h-2v2h-6v6h-2v-4h-2v-2h2v-2h6v-2h2v-2h-2v-2h-4v-2h2v-2h2v-6h2v4h4v2  h2v2h4v-2h6v-2h4v-2h4v-2h2v-2h2v-2h-2v-4z" fill="rgb(121,45,52)"/>
<path d="M162 88h2v2h-2v-2z" fill="rgb(191,68,71)"/>
<path d="M170 88h2v2h-2v-2z" fill="rgb(191,68,71)"/>
<path d="M182 88h2v8h-2v-2h-2v-2h2v-4z" fill="rgb(191,68,71)"/>
<path d="M188 88h2v6h-2v-6z" fill="rgb(68,10,16)"/>
<path d="M14 90h4v2h-4v-2z" fill="rgb(191,68,71)"/>
<path d="M18 90h6v2h-2v4h-2v-4h-2v-2z" fill="rgb(121,45,52)"/>
<path d="M92 90h2v2h-2v-2z" fill="rgb(203,113,116)"/>
<path d="M176 90h4v2h-4v-2z" fill="rgb(191,68,71)"/>
<path d="M14 92h4v2h2v6h4v2h4v2h-2v2h-8v-2h-2v-2h-2v-4h-2v-4h2v-2z" fill="rgb(214,109,113)"/>
<path d="M18 92h2v2h-2v-2z" fill="rgb(191,68,71)"/>
<path d="M22 92h2v4h-2v-4z" fill="rgb(191,68,71)"/>
<path d="M32 92h2v2h-2v-2z" fill="rgb(191,68,71)"/>
<path d="M38 92h2v2h-2v-2z" fill="rgb(154,66,75)"/>
<path d="M64 92h2v2h-2v-2z" fill="rgb(121,45,52)"/>
<path d="M82 92h2v2h2v2h6v4h-8v-4h-2v-4z" fill="rgb(203,113,116)"/>
<path d="M94 92h2v2h-2v-2z" fill="rgb(203,113,116)"/>
<path d="M110 92h2v4h-2v4h-6v-4h4v-2h2v-2z" fill="rgb(203,113,116)"/>
<path d="M128 92h2v2h-2v-2z" fill="rgb(121,45,52)"/>
<path d="M154 92h2v2h-2v-2z" fill="rgb(154,66,75)"/>
<path d="M160 92h2v2h-2v-2z" fill="rgb(191,68,71)"/>
<path d="M170 92h2v4h-2v-4z" fill="rgb(191,68,71)"/>
<path d="M174 92h2v2h-2v-2z" fill="rgb(191,68,71)"/>
<path d="M176 92h4v2h2v4h-2v4h-2v2h-2v2h-8v-2h-2v-2h4v-2h4v-6h2v-2z" fill="rgb(214,109,113)"/>
<path d="M6 94h2v4h-2v-4z" fill="rgb(68,10,16)"/>
<path d="M30 94h2v2h-2v-2z" fill="rgb(221,167,167)"/>
<path d="M34 94h2v2h-2v-2z" fill="rgb(191,68,71)"/>
<path d="M40 94h2v2h-2v-2z" fill="rgb(154,66,75)"/>
<path d="M72 94h4v2h2v6h-2v-2h-2v-2h-2v-4z" fill="rgb(221,167,167)"/>
<path d="M80 94h2v2h-2v-2z" fill="rgb(121,45,52)"/>
<path d="M94 94h2v2h-2v-2z" fill="rgb(154,66,75)"/>
<path d="M96 94h2v2h-2v-2z" fill="rgb(121,45,52)"/>
<path d="M112 94h2v2h-2v-2z" fill="rgb(121,45,52)"/>
<path d="M118 94h4v4h-2v2h-2v2h-2v-6h2v-2z" fill="rgb(221,167,167)"/>
<path d="M152 94h2v2h-2v-2z" fill="rgb(154,66,75)"/>
<path d="M158 94h2v2h-2v-2z" fill="rgb(191,68,71)"/>
<path d="M162 94h2v2h-2v-2z" fill="rgb(221,167,167)"/>
<path d="M186 94h2v4h-2v-4z" fill="rgb(68,10,16)"/>
<path d="M20 96h2v2h2v2h-4v-4z" fill="rgb(191,68,71)"/>
<path d="M22 96h2v2h-2v-2z" fill="rgb(121,45,52)"/>
<path d="M24 96h4v2h-4v-2z" fill="rgb(191,68,71)"/>
<path d="M36 96h2v2h2v4h-4v8h-2v-6h-6v-2h4v-2h2v-2h2v-2z" fill="rgb(191,68,71)"/>
<path d="M42 96h2v2h-2v-2z" fill="rgb(154,66,75)"/>
<path d="M68 96h2v6h-2v-6z" fill="rgb(154,66,75)"/>
<path d="M80 96h2v2h-2v-2z" fill="rgb(154,66,75)"/>
<path d="M82 96h2v2h-2v-2z" fill="rgb(121,45,52)"/>
<path d="M92 96h2v6h-6v-2h4v-4z" fill="rgb(154,66,75)"/>
<path d="M94 96h2v6h-2v-6z" fill="rgb(121,45,52)"/>
<path d="M100 96h2v2h-2v-2z" fill="rgb(121,45,52)"/>
<path d="M110 96h2v2h-2v-2z" fill="rgb(121,45,52)"/>
<path d="M112 96h2v2h-2v-2z" fill="rgb(154,66,75)"/>
<path d="M124 96h2v6h-2v-6z" fill="rgb(154,66,75)"/>
<path d="M150 96h2v2h-2v-2z" fill="rgb(154,66,75)"/>
<path d="M156 96h2v2h2v2h2v2h4v2h-6v6h-2v-8h-4v-4h2v-2z" fill="rgb(191,68,71)"/>
<path d="M166 96h4v2h-4v-2z" fill="rgb(191,68,71)"/>
<path d="M8 98h2v4h-2v-4z" fill="rgb(68,10,16)"/>
<path d="M12 98h2v4h-2v-4z" fill="rgb(191,68,71)"/>
<path d="M24 98h4v2h-4v-2z" fill="rgb(121,45,52)"/>
<path d="M28 98h2v2h-2v-2z" fill="rgb(191,68,71)"/>
<path d="M46 98h4v2h-4v-2z" fill="rgb(154,66,75)"/>
<path d="M82 98h2v2h-2v-2z" fill="rgb(154,66,75)"/>
<path d="M98 98h2v4h-2v-4z" fill="rgb(121,45,52)"/>
<path d="M110 98h2v2h-2v-2z" fill="rgb(154,66,75)"/>
<path d="M144 98h4v2h-4v-2z" fill="rgb(154,66,75)"/>
<path d="M164 98h2v2h-2v-2z" fill="rgb(191,68,71)"/>
<path d="M172 98h2v2h-2v-2z" fill="rgb(191,68,71)"/>
<path d="M180 98h2v4h-2v-4z" fill="rgb(191,68,71)"/>
<path d="M184 98h2v4h-2v-4z" fill="rgb(68,10,16)"/>
<path d="M24 100h4v2h-4v-2z" fill="rgb(191,68,71)"/>
<path d="M28 100h4v2h-4v-2z" fill="rgb(121,45,52)"/>
<path d="M40 100h2v2h-2v-2z" fill="rgb(214,109,113)"/>
<path d="M42 100h2v2h-2v-2z" fill="rgb(191,68,71)"/>
<path d="M50 100h4v2h-4v-2z" fill="rgb(154,66,75)"/>
<path d="M58 100h4v2h-2v2h-4v-2h2v-2z" fill="rgb(154,66,75)"/>
<path d="M84 100h2v2h-2v-2z" fill="rgb(154,66,75)"/>
<path d="M86 100h2v2h-2v-2z" fill="rgb(121,45,52)"/>
<path d="M106 100h2v2h-2v-2z" fill="rgb(121,45,52)"/>
<path d="M108 100h2v2h-2v-2z" fill="rgb(154,66,75)"/>
<path d="M132 100h4v2h2v2h-4v-2h-2v-2z" fill="rgb(154,66,75)"/>
<path d="M140 100h4v2h-4v-2z" fill="rgb(154,66,75)"/>
<path d="M150 100h2v2h-2v-2z" fill="rgb(191,68,71)"/>
<path d="M152 100h2v2h-2v-2z" fill="rgb(214,109,113)"/>
<path d="M162 100h4v2h-4v-2z" fill="rgb(121,45,52)"/>
<path d="M166 100h4v2h-4v-2z" fill="rgb(191,68,71)"/>
<path d="M10 102h2v4h-2v-4z" fill="rgb(68,10,16)"/>
<path d="M12 102h2v2h2v2h2v2h4v-2h4v2h-2v4h2v2h2v2h4v2h4v2h-6v-2h-4v-2h-2v-2h-2  v-2h-2v-2h-4v-2h-2v-2h-2v-4z" fill="rgb(121,45,52)"/>
<path d="M14 102h2v2h-2v-2z" fill="rgb(191,68,71)"/>
<path d="M36 102h4v2h-2v2h2v4h-4v-8z" fill="rgb(214,109,113)"/>
<path d="M40 102h4v2h2v2h-4v-2h-2v-2z" fill="rgb(221,167,167)"/>
<path d="M44 102h2v2h-2v-2z" fill="rgb(214,109,113)"/>
<path d="M46 102h2v2h-2v-2z" fill="rgb(191,68,71)"/>
<path d="M70 102h2v2h-2v-2z" fill="rgb(154,66,75)"/>
<path d="M86 102h2v4h-4v-2h2v-2z" fill="rgb(154,66,75)"/>
<path d="M88 102h4v2h-4v-2z" fill="rgb(121,45,52)"/>
<path d="M92 102h4v2h-4v-2z" fill="rgb(96,19,26)"/>
<path d="M96 102h2v2h-2v-2z" fill="rgb(77,6,8)"/>
<path d="M98 102h4v2h-4v-2z" fill="rgb(96,19,26)"/>
<path d="M102 102h4v2h-4v-2z" fill="rgb(121,45,52)"/>
<path d="M106 102h2v2h2v2h-4v-4z" fill="rgb(154,66,75)"/>
<path d="M122 102h2v2h-2v-2z" fill="rgb(154,66,75)"/>
<path d="M146 102h2v2h-2v-2z" fill="rgb(191,68,71)"/>
<path d="M148 102h2v2h-2v-2z" fill="rgb(214,109,113)"/>
<path d="M150 102h4v2h-2v2h-4v-2h2v-2z" fill="rgb(221,167,167)"/>
<path d="M154 102h4v8h-4v-4h2v-2h-2v-2z" fill="rgb(214,109,113)"/>
<path d="M178 102h2v2h-2v-2z" fill="rgb(191,68,71)"/>
<path d="M180 102h2v4h-2v2h-2v2h-2v2h-2v2h-2v2h-4v2h-4v2h-4v2h-8v2h-16v2h-10v-2  h4v-2h4v-2h2v-2h-2v-2h-2v-2h4v2h2v4h4v2h6v-2h4v-4h-2v-2h-2v-2h4v-4h2v2h6v2h-2  v2h-4v4h2v2h2v-2h4v-2h4v-2h2v-2h2v-4h-2v-2h4v2h4v-2h2v-2h2v-2z" fill="rgb(121,45,52)"/>
<path d="M182 102h2v4h-2v-4z" fill="rgb(68,10,16)"/>
<path d="M16 104h2v2h-2v-2z" fill="rgb(191,68,71)"/>
<path d="M26 104h2v2h-2v-2z" fill="rgb(121,45,52)"/>
<path d="M28 104h6v10h4v4h-4v-2h-4v-2h-2v-2h-2v-6h2v-2z" fill="rgb(214,109,113)"/>
<path d="M38 104h2v2h-2v-2z" fill="rgb(221,167,167)"/>
<path d="M40 104h2v2h-2v-2z" fill="rgb(214,109,113)"/>
<path d="M46 104h2v4h-4v2h-2v-4h4v-2z" fill="rgb(214,109,113)"/>
<path d="M48 104h6v2h-4v2h-2v-4z" fill="rgb(191,68,71)"/>
<path d="M72 104h8v2h4v2h-8v-2h-4v-2z" fill="rgb(154,66,75)"/>
<path d="M88 104h2v2h-2v-2z" fill="rgb(96,19,26)"/>
<path d="M90 104h2v2h-2v-2z" fill="rgb(77,6,8)"/>
<path d="M92 104h10v2h-2v2h-6v-2h-2v-2z" fill="rgb(121,45,52)"/>
<path d="M102 104h2v2h-2v-2z" fill="rgb(77,6,8)"/>
<path d="M104 104h2v2h-2v-2z" fill="rgb(96,19,26)"/>
<path d="M114 104h8v2h-4v2h-8v-2h4v-2z" fill="rgb(154,66,75)"/>
<path d="M140 104h6v4h-2v-2h-4v-2z" fill="rgb(191,68,71)"/>
<path d="M146 104h2v2h4v4h-2v-2h-4v-4z" fill="rgb(214,109,113)"/>
<path d="M152 104h2v2h-2v-2z" fill="rgb(214,109,113)"/>
<path d="M154 104h2v2h-2v-2z" fill="rgb(221,167,167)"/>
<path d="M160 104h6v2h2v6h-2v2h-2v2h-4v2h-4v-4h4v-10z" fill="rgb(214,109,113)"/>
<path d="M166 104h2v2h-2v-2z" fill="rgb(121,45,52)"/>
<path d="M176 104h2v2h-2v-2z" fill="rgb(191,68,71)"/>
<path d="M12 106h2v2h-2v-2z" fill="rgb(68,10,16)"/>
<path d="M18 106h4v2h-4v-2z" fill="rgb(191,68,71)"/>
<path d="M40 106h2v4h-2v-4z" fill="rgb(191,68,71)"/>
<path d="M56 106h8v4h2v2h2v2h4v4h2v-6h2v2h2v-2h2v6h-2v2h-4v2h-6v-2h2v-2h-2v-2  h-4v2h-2v4h-2v-2h-2v-2h2v-2h-4v-4h4v-2h2v-2h-6v-2z" fill="rgb(191,68,71)"/>
<path d="M68 106h4v2h-4v-2z" fill="rgb(191,68,71)"/>
<path d="M72 106h4v2h-4v-2z" fill="rgb(121,45,52)"/>
<path d="M84 106h2v2h-2v-2z" fill="rgb(121,45,52)"/>
<path d="M86 106h2v2h-2v-2z" fill="rgb(96,19,26)"/>
<path d="M88 106h4v2h-2v2h-2v2h-2v-4h2v-2z" fill="rgb(121,45,52)"/>
<path d="M92 106h2v2h6v-2h2v2h2v2h-4v2h-6v-2h-4v-2h2v-2z" fill="rgb(184,70,77)"/>
<path d="M102 106h4v2h2v4h-2v-2h-2v-2h-2v-2z" fill="rgb(121,45,52)"/>
<path d="M106 106h2v2h-2v-2z" fill="rgb(96,19,26)"/>
<path d="M108 106h2v2h-2v-2z" fill="rgb(121,45,52)"/>
<path d="M118 106h4v2h-4v-2z" fill="rgb(121,45,52)"/>
<path d="M122 106h4v2h-4v-2z" fill="rgb(191,68,71)"/>
<path d="M130 106h8v2h-6v2h2v2h4v4h-2v-2h-4v2h2v2h2v2h-2v2h-2v-4h-2v-2h-4v2h-2  v2h2v2h-6v-2h2v-6h6v-2h2v-6z" fill="rgb(191,68,71)"/>
<path d="M152 106h2v2h-2v-2z" fill="rgb(191,68,71)"/>
<path d="M172 106h4v2h-4v-2z" fill="rgb(191,68,71)"/>
<path d="M180 106h2v2h-2v-2z" fill="rgb(68,10,16)"/>
<path d="M14 108h2v2h-2v-2z" fill="rgb(68,10,16)"/>
<path d="M24 108h2v4h-2v-4z" fill="rgb(191,68,71)"/>
<path d="M44 108h4v2h-2v2h-2v2h-2v-4h2v-2z" fill="rgb(191,68,71)"/>
<path d="M48 108h2v2h-2v-2z" fill="rgb(121,45,52)"/>
<path d="M50 108h2v2h-2v-2z" fill="rgb(191,68,71)"/>
<path d="M52 108h2v2h-2v-2z" fill="rgb(214,109,113)"/>
<path d="M54 108h4v2h-2v2h-4v-2h2v-2z" fill="rgb(221,167,167)"/>
<path d="M58 108h4v2h-2v2h-4v-2h2v-2z" fill="rgb(214,109,113)"/>
<path d="M66 108h2v2h-2v-2z" fill="rgb(191,68,71)"/>
<path d="M68 108h2v2h6v2h-8v-4z" fill="rgb(214,109,113)"/>
<path d="M70 108h2v2h-2v-2z" fill="rgb(221,167,167)"/>
<path d="M72 108h4v2h-4v-2z" fill="rgb(191,68,71)"/>
<path d="M76 108h8v6h-2v8h-2v2h-12v-2h6v-2h4v-2h2v-6h-2v-2h-2v-2z" fill="rgb(121,45,52)"/>
<path d="M84 108h2v2h-2v-2z" fill="rgb(96,19,26)"/>
<path d="M108 108h2v2h-2v-2z" fill="rgb(96,19,26)"/>
<path d="M110 108h8v2h-2v2h2v2h-4v4h2v2h4v2h6v2h-12v-2h-2v-8h-2v-6z" fill="rgb(121,45,52)"/>
<path d="M118 108h4v2h-4v-2z" fill="rgb(191,68,71)"/>
<path d="M122 108h2v2h-2v-2z" fill="rgb(221,167,167)"/>
<path d="M124 108h2v4h-8v-2h6v-2z" fill="rgb(214,109,113)"/>
<path d="M126 108h2v2h-2v-2z" fill="rgb(191,68,71)"/>
<path d="M132 108h4v2h2v2h-4v-2h-2v-2z" fill="rgb(214,109,113)"/>
<path d="M136 108h4v2h2v2h-4v-2h-2v-2z" fill="rgb(221,167,167)"/>
<path d="M140 108h2v2h-2v-2z" fill="rgb(214,109,113)"/>
<path d="M142 108h2v2h-2v-2z" fill="rgb(191,68,71)"/>
<path d="M144 108h2v2h-2v-2z" fill="rgb(121,45,52)"/>
<path d="M146 108h4v2h2v2h-4v-2h-2v-2z" fill="rgb(191,68,71)"/>
<path d="M168 108h2v4h-2v-4z" fill="rgb(191,68,71)"/>
<path d="M178 108h2v2h-2v-2z" fill="rgb(68,10,16)"/>
<path d="M16 110h4v2h-4v-2z" fill="rgb(68,10,16)"/>
<path d="M34 110h8v4h2v2h-2v4h4v2h6v-2h4v-4h4v2h-2v2h2v2h4v2h4v2h-10v-2h-14v-2  h-8v-2h2v-2h2v-6h-6v-2z" fill="rgb(121,45,52)"/>
<path d="M46 110h6v2h-2v2h-4v-4z" fill="rgb(214,109,113)"/>
<path d="M66 110h2v2h-2v-2z" fill="rgb(121,45,52)"/>
<path d="M76 110h2v2h-2v-2z" fill="rgb(191,68,71)"/>
<path d="M80 110h2v2h-2v-2z" fill="rgb(191,68,71)"/>
<path d="M84 110h2v2h-2v-2z" fill="rgb(77,6,8)"/>
<path d="M88 110h2v2h-2v-2z" fill="rgb(184,70,77)"/>
<path d="M90 110h4v4h-2v-2h-2v-2z" fill="rgb(221,167,167)"/>
<path d="M100 110h4v2h-2v2h-2v-4z" fill="rgb(221,167,167)"/>
<path d="M104 110h2v2h-2v-2z" fill="rgb(184,70,77)"/>
<path d="M108 110h2v2h-2v-2z" fill="rgb(77,6,8)"/>
<path d="M112 110h2v2h-2v-2z" fill="rgb(191,68,71)"/>
<path d="M116 110h2v2h-2v-2z" fill="rgb(191,68,71)"/>
<path d="M142 110h6v4h-4v-2h-2v-2z" fill="rgb(214,109,113)"/>
<path d="M176 110h2v2h-2v-2z" fill="rgb(68,10,16)"/>
<path d="M20 112h2v2h-2v-2z" fill="rgb(68,10,16)"/>
<path d="M26 112h2v2h-2v-2z" fill="rgb(191,68,71)"/>
<path d="M34 112h6v6h-2v-4h-4v-2z" fill="rgb(191,68,71)"/>
<path d="M44 112h2v2h-2v-2z" fill="rgb(121,45,52)"/>
<path d="M50 112h6v4h-2v-2h-4v-2z" fill="rgb(121,45,52)"/>
<path d="M68 112h6v6h-2v-4h-4v-2z" fill="rgb(121,45,52)"/>
<path d="M76 112h2v2h-2v-2z" fill="rgb(121,45,52)"/>
<path d="M84 112h2v2h-2v-2z" fill="rgb(96,19,26)"/>
<path d="M86 112h2v4h-2v-4z" fill="rgb(184,70,77)"/>
<path d="M88 112h4v2h4v4h-4v-2h-2v-2h-2v-2z" fill="rgb(214,109,113)"/>
<path d="M94 112h6v2h-2v2h-2v-2h-2v-2z" fill="rgb(234,198,195)"/>
<path d="M102 112h4v2h-2v2h-2v2h-4v-4h4v-2z" fill="rgb(214,109,113)"/>
<path d="M106 112h2v4h-2v-4z" fill="rgb(184,70,77)"/>
<path d="M108 112h2v2h-2v-2z" fill="rgb(96,19,26)"/>
<path d="M118 112h2v2h-2v-2z" fill="rgb(191,68,71)"/>
<path d="M138 112h6v4h-6v-4z" fill="rgb(121,45,52)"/>
<path d="M158 112h2v2h-2v-2z" fill="rgb(191,68,71)"/>
<path d="M166 112h2v2h-2v-2z" fill="rgb(191,68,71)"/>
<path d="M22 114h2v2h-2v-2z" fill="rgb(68,10,16)"/>
<path d="M28 114h2v2h-2v-2z" fill="rgb(191,68,71)"/>
<path d="M44 114h10v2h2v4h-4v-4h-6v2h2v2h4v2h-6v-2h-4v-4h2v-2z" fill="rgb(191,68,71)"/>
<path d="M60 114h2v2h-2v-2z" fill="rgb(121,45,52)"/>
<path d="M82 114h2v4h-2v-4z" fill="rgb(96,19,26)"/>
<path d="M84 114h2v2h-2v-2z" fill="rgb(121,45,52)"/>
<path d="M88 114h2v2h-2v-2z" fill="rgb(221,167,167)"/>
<path d="M104 114h2v2h-2v-2z" fill="rgb(221,167,167)"/>
<path d="M108 114h2v2h-2v-2z" fill="rgb(121,45,52)"/>
<path d="M110 114h2v4h-2v-4z" fill="rgb(96,19,26)"/>
<path d="M114 114h4v2h-2v2h-2v-4z" fill="rgb(191,68,71)"/>
<path d="M144 114h6v2h2v4h-4v2h-6v-2h4v-2h2v-2h-4v-2z" fill="rgb(191,68,71)"/>
<path d="M154 114h2v4h-2v-4z" fill="rgb(191,68,71)"/>
<path d="M164 114h2v2h-2v-2z" fill="rgb(191,68,71)"/>
<path d="M24 116h2v2h-2v-2z" fill="rgb(68,10,16)"/>
<path d="M32 116h2v2h-2v-2z" fill="rgb(191,68,71)"/>
<path d="M46 116h6v4h-4v-2h-2v-2z" fill="rgb(214,109,113)"/>
<path d="M64 116h4v2h2v2h-2v2h-6v-4h2v-2z" fill="rgb(214,109,113)"/>
<path d="M76 116h2v2h-2v-2z" fill="rgb(214,109,113)"/>
<path d="M84 116h2v6h-2v-6z" fill="rgb(184,70,77)"/>
<path d="M86 116h2v2h-2v-2z" fill="rgb(221,167,167)"/>
<path d="M88 116h2v2h-2v-2z" fill="rgb(234,198,195)"/>
<path d="M90 116h2v4h-2v-4z" fill="rgb(221,167,167)"/>
<path d="M96 116h2v2h-2v-2z" fill="rgb(221,167,167)"/>
<path d="M102 116h2v4h-2v-4z" fill="rgb(221,167,167)"/>
<path d="M104 116h2v2h-2v-2z" fill="rgb(234,198,195)"/>
<path d="M106 116h2v2h-2v-2z" fill="rgb(221,167,167)"/>
<path d="M108 116h2v6h-2v-6z" fill="rgb(184,70,77)"/>
<path d="M116 116h2v2h-2v-2z" fill="rgb(214,109,113)"/>
<path d="M118 116h2v4h-4v-2h2v-2z" fill="rgb(191,68,71)"/>
<path d="M126 116h4v2h2v4h-6v-2h-2v-2h2v-2z" fill="rgb(214,109,113)"/>
<path d="M138 116h4v4h-4v-4z" fill="rgb(191,68,71)"/>
<path d="M142 116h6v2h-2v2h-4v-4z" fill="rgb(214,109,113)"/>
<path d="M160 116h2v2h-2v-2z" fill="rgb(191,68,71)"/>
<path d="M168 116h2v2h-2v-2z" fill="rgb(68,10,16)"/>
<path d="M26 118h4v2h-4v-2z" fill="rgb(68,10,16)"/>
<path d="M36 118h2v2h-2v-2z" fill="rgb(191,68,71)"/>
<path d="M82 118h2v6h-2v-6z" fill="rgb(77,6,8)"/>
<path d="M86 118h4v2h-2v2h-2v-4z" fill="rgb(214,109,113)"/>
<path d="M92 118h10v2h-10v-2z" fill="rgb(184,70,77)"/>
<path d="M104 118h4v4h-2v-2h-2v-2z" fill="rgb(214,109,113)"/>
<path d="M110 118h2v6h-2v-6z" fill="rgb(77,6,8)"/>
<path d="M156 118h2v2h-2v-2z" fill="rgb(191,68,71)"/>
<path d="M164 118h4v2h-4v-2z" fill="rgb(68,10,16)"/>
<path d="M30 120h6v2h-6v-2z" fill="rgb(68,10,16)"/>
<path d="M88 120h4v2h-2v2h-4v-2h2v-2z" fill="rgb(184,70,77)"/>
<path d="M92 120h2v2h-2v-2z" fill="rgb(121,45,52)"/>
<path d="M94 120h6v2h-6v-2z" fill="rgb(96,19,26)"/>
<path d="M100 120h2v2h-2v-2z" fill="rgb(121,45,52)"/>
<path d="M102 120h4v2h2v2h-4v-2h-2v-2z" fill="rgb(184,70,77)"/>
<path d="M160 120h4v2h-4v-2z" fill="rgb(68,10,16)"/>
<path d="M36 122h8v2h-8v-2z" fill="rgb(68,10,16)"/>
<path d="M64 122h4v2h-4v-2z" fill="rgb(191,68,71)"/>
<path d="M80 122h2v2h-2v-2z" fill="rgb(68,10,16)"/>
<path d="M84 122h2v2h-2v-2z" fill="rgb(121,45,52)"/>
<path d="M90 122h2v2h-2v-2z" fill="rgb(121,45,52)"/>
<path d="M92 122h2v2h-2v-2z" fill="rgb(108,24,26)"/>
<path d="M94 122h2v2h-2v-2z" fill="rgb(149,54,48)"/>
<path d="M96 122h2v2h2v2h-2v2h-2v-2h-2v-2h2v-2z" fill="rgb(214,109,113)"/>
<path d="M98 122h2v2h-2v-2z" fill="rgb(149,54,48)"/>
<path d="M100 122h2v2h-2v-2z" fill="rgb(108,24,26)"/>
<path d="M102 122h2v2h-2v-2z" fill="rgb(121,45,52)"/>
<path d="M108 122h2v2h-2v-2z" fill="rgb(121,45,52)"/>
<path d="M112 122h2v2h-2v-2z" fill="rgb(68,10,16)"/>
<path d="M126 122h4v2h-4v-2z" fill="rgb(191,68,71)"/>
<path d="M152 122h6v2h-6v-2z" fill="rgb(68,10,16)"/>
<path d="M44 124h14v2h-14v-2z" fill="rgb(68,10,16)"/>
<path d="M68 124h12v2h-12v-2z" fill="rgb(68,10,16)"/>
<path d="M80 124h4v2h-2v2h-14v-2h12v-2z" fill="rgb(108,24,26)"/>
<path d="M84 124h4v2h-4v-2z" fill="rgb(77,6,8)"/>
<path d="M88 124h2v2h-2v-2z" fill="rgb(96,19,26)"/>
<path d="M90 124h2v2h-2v-2z" fill="rgb(108,24,26)"/>
<path d="M92 124h2v2h-2v-2z" fill="rgb(149,54,48)"/>
<path d="M100 124h2v2h-2v-2z" fill="rgb(149,54,48)"/>
<path d="M102 124h2v2h-2v-2z" fill="rgb(108,24,26)"/>
<path d="M104 124h2v2h-2v-2z" fill="rgb(96,19,26)"/>
<path d="M106 124h4v2h-4v-2z" fill="rgb(77,6,8)"/>
<path d="M110 124h4v2h12v2h-14v-2h-2v-2z" fill="rgb(108,24,26)"/>
<path d="M114 124h12v2h-12v-2z" fill="rgb(68,10,16)"/>
<path d="M136 124h14v2h-14v-2z" fill="rgb(68,10,16)"/>
<path d="M58 126h10v2h-10v-2z" fill="rgb(68,10,16)"/>
<path d="M82 126h2v2h-2v-2z" fill="rgb(77,6,8)"/>
<path d="M84 126h6v2h2v2h2v2h-4v-2h-2v-2h-4v-2z" fill="rgb(177,61,55)"/>
<path d="M90 126h4v4h-2v-2h-2v-2z" fill="rgb(96,19,26)"/>
<path d="M94 126h2v2h-2v-2z" fill="rgb(191,68,71)"/>
<path d="M98 126h2v2h-2v-2z" fill="rgb(191,68,71)"/>
<path d="M100 126h4v2h-2v2h-2v-4z" fill="rgb(96,19,26)"/>
<path d="M104 126h6v2h-4v2h-2v2h-4v-2h2v-2h2v-2z" fill="rgb(177,61,55)"/>
<path d="M110 126h2v2h-2v-2z" fill="rgb(77,6,8)"/>
<path d="M126 126h10v2h-10v-2z" fill="rgb(68,10,16)"/>
<path d="M56 128h2v4h-2v-4z" fill="rgb(77,6,8)"/>
<path d="M58 128h2v2h2v4h-4v-6z" fill="rgb(108,24,26)"/>
<path d="M60 128h2v2h-2v-2z" fill="rgb(77,6,8)"/>
<path d="M62 128h6v2h-6v-2z" fill="rgb(108,24,26)"/>
<path d="M68 128h6v2h-6v-2z" fill="rgb(77,6,8)"/>
<path d="M74 128h2v2h-2v-2z" fill="rgb(149,54,48)"/>
<path d="M76 128h2v2h-2v-2z" fill="rgb(191,68,71)"/>
<path d="M78 128h2v2h-2v-2z" fill="rgb(149,54,48)"/>
<path d="M80 128h2v2h-2v-2z" fill="rgb(77,6,8)"/>
<path d="M82 128h2v2h-2v-2z" fill="rgb(177,61,55)"/>
<path d="M84 128h4v2h-2v2h-2v2h-4v-2h2v-2h2v-2z" fill="rgb(185,118,98)"/>
<path d="M94 128h2v2h-2v-2z" fill="rgb(149,54,48)"/>
<path d="M96 128h2v2h-2v-2z" fill="rgb(191,68,71)"/>
<path d="M98 128h2v2h-2v-2z" fill="rgb(149,54,48)"/>
<path d="M106 128h4v2h2v2h2v2h-4v-2h-2v-2h-2v-2z" fill="rgb(185,118,98)"/>
<path d="M110 128h2v2h-2v-2z" fill="rgb(177,61,55)"/>
<path d="M112 128h2v2h-2v-2z" fill="rgb(77,6,8)"/>
<path d="M114 128h2v2h-2v-2z" fill="rgb(149,54,48)"/>
<path d="M116 128h2v2h-2v-2z" fill="rgb(191,68,71)"/>
<path d="M118 128h2v2h-2v-2z" fill="rgb(149,54,48)"/>
<path d="M120 128h6v2h-6v-2z" fill="rgb(77,6,8)"/>
<path d="M126 128h6v2h-6v-2z" fill="rgb(108,24,26)"/>
<path d="M132 128h2v2h-2v-2z" fill="rgb(77,6,8)"/>
<path d="M134 128h2v4h-2v2h-2v-4h2v-2z" fill="rgb(108,24,26)"/>
<path d="M136 128h2v2h-2v-2z" fill="rgb(77,6,8)"/>
<path d="M44 130h4v2h-4v-2z" fill="rgb(77,6,8)"/>
<path d="M62 130h2v4h-2v-4z" fill="rgb(77,6,8)"/>
<path d="M64 130h2v2h2v2h-4v-4z" fill="rgb(191,68,71)"/>
<path d="M66 130h2v2h-2v-2z" fill="rgb(149,54,48)"/>
<path d="M68 130h6v2h4v2h-4v2h-2v-4h-4v-2z" fill="rgb(108,24,26)"/>
<path d="M74 130h6v4h-2v-2h-4v-2z" fill="rgb(77,6,8)"/>
<path d="M80 130h2v2h-2v-2z" fill="rgb(177,61,55)"/>
<path d="M86 130h2v2h4v2h2v2h6v-2h2v-2h4v-2h2v2h2v2h-2v2h-2v2h-6v2h-6v-2h-6v-2  h-2v-2h-2v-2h2v-2z" fill="rgb(218,200,181)"/>
<path d="M88 130h2v2h-2v-2z" fill="rgb(185,118,98)"/>
<path d="M94 130h6v2h-6v-2z" fill="rgb(96,19,26)"/>
<path d="M104 130h2v2h-2v-2z" fill="rgb(185,118,98)"/>
<path d="M112 130h2v2h-2v-2z" fill="rgb(177,61,55)"/>
<path d="M114 130h6v2h-4v2h-2v-4z" fill="rgb(77,6,8)"/>
<path d="M120 130h6v2h-4v4h-2v-2h-4v-2h4v-2z" fill="rgb(108,24,26)"/>
<path d="M126 130h2v2h-2v-2z" fill="rgb(149,54,48)"/>
<path d="M128 130h2v4h-4v-2h2v-2z" fill="rgb(191,68,71)"/>
<path d="M130 130h2v4h-2v-4z" fill="rgb(77,6,8)"/>
<path d="M136 130h2v2h2v4h-4v-2h-2v-2h2v-2z" fill="rgb(187,43,45)"/>
<path d="M138 130h4v2h-4v-2z" fill="rgb(77,6,8)"/>
<path d="M42 132h2v2h-2v-2z" fill="rgb(77,6,8)"/>
<path d="M44 132h4v2h-2v2h-2v2h-2v-4h2v-2z" fill="rgb(208,75,79)"/>
<path d="M48 132h2v2h-2v-2z" fill="rgb(77,6,8)"/>
<path d="M54 132h2v6h-2v-6z" fill="rgb(77,6,8)"/>
<path d="M56 132h2v2h2v4h-2v6h-2v-4h-2v-2h2v-6z" fill="rgb(187,43,45)"/>
<path d="M68 132h4v4h-2v-2h-2v-2z" fill="rgb(149,54,48)"/>
<path d="M92 132h2v2h-2v-2z" fill="rgb(185,118,98)"/>
<path d="M94 132h6v2h-2v2h-2v-2h-2v-2z" fill="rgb(177,61,55)"/>
<path d="M100 132h2v2h-2v-2z" fill="rgb(185,118,98)"/>
<path d="M122 132h4v2h-2v2h-2v-4z" fill="rgb(149,54,48)"/>
<path d="M140 132h2v2h4v2h4v2h-8v-2h-2v-4z" fill="rgb(208,75,79)"/>
<path d="M142 132h6v2h-6v-2z" fill="rgb(77,6,8)"/>
<path d="M40 134h2v6h-2v-6z" fill="rgb(77,6,8)"/>
<path d="M46 134h2v2h-2v-2z" fill="rgb(77,6,8)"/>
<path d="M60 134h2v4h-2v-4z" fill="rgb(77,6,8)"/>
<path d="M62 134h2v2h4v2h-2v2h-2v-2h-2v-4z" fill="rgb(108,24,26)"/>
<path d="M64 134h4v2h-4v-2z" fill="rgb(77,6,8)"/>
<path d="M68 134h2v2h-2v-2z" fill="rgb(191,68,71)"/>
<path d="M74 134h4v2h-4v-2z" fill="rgb(77,6,8)"/>
<path d="M80 134h4v2h-4v-2z" fill="rgb(93,28,30)"/>
<path d="M84 134h2v2h-2v-2z" fill="rgb(185,118,98)"/>
<path d="M94 134h2v2h-2v-2z" fill="rgb(185,118,98)"/>
<path d="M98 134h2v2h-2v-2z" fill="rgb(185,118,98)"/>
<path d="M108 134h2v2h-2v-2z" fill="rgb(185,118,98)"/>
<path d="M110 134h4v2h-4v-2z" fill="rgb(93,28,30)"/>
<path d="M116 134h4v2h-4v-2z" fill="rgb(77,6,8)"/>
<path d="M124 134h2v2h-2v-2z" fill="rgb(191,68,71)"/>
<path d="M126 134h4v2h-4v-2z" fill="rgb(77,6,8)"/>
<path d="M130 134h2v4h-4v4h-2v-2h-2v-2h2v-2h4v-2z" fill="rgb(108,24,26)"/>
<path d="M132 134h2v2h6v2h-4v12h-2v-12h-2v-4z" fill="rgb(77,6,8)"/>
<path d="M134 134h2v2h-2v-2z" fill="rgb(108,24,26)"/>
<path d="M146 134h2v2h-2v-2z" fill="rgb(214,109,113)"/>
<path d="M148 134h6v2h-6v-2z" fill="rgb(77,6,8)"/>
<path d="M44 136h2v2h-2v-2z" fill="rgb(77,6,8)"/>
<path d="M68 136h6v2h-6v-2z" fill="rgb(77,6,8)"/>
<path d="M84 136h2v2h-2v-2z" fill="rgb(93,28,30)"/>
<path d="M86 136h2v2h-2v-2z" fill="rgb(185,118,98)"/>
<path d="M106 136h2v2h-2v-2z" fill="rgb(185,118,98)"/>
<path d="M108 136h2v2h-2v-2z" fill="rgb(93,28,30)"/>
<path d="M120 136h6v2h-2v2h-2v-2h-2v-2z" fill="rgb(77,6,8)"/>
<path d="M140 136h2v2h-2v-2z" fill="rgb(187,43,45)"/>
<path d="M150 136h4v2h-4v-2z" fill="rgb(214,109,113)"/>
<path d="M154 136h4v2h-4v-2z" fill="rgb(77,6,8)"/>
<path d="M42 138h2v2h-2v-2z" fill="rgb(187,43,45)"/>
<path d="M44 138h2v2h-2v-2z" fill="rgb(208,75,79)"/>
<path d="M46 138h2v2h-2v-2z" fill="rgb(77,6,8)"/>
<path d="M52 138h2v2h-2v-2z" fill="rgb(77,6,8)"/>
<path d="M58 138h2v10h-2v-2h-2v-2h2v-6z" fill="rgb(77,6,8)"/>
<path d="M60 138h4v2h2v4h-2v-2h-2v6h-2v-10z" fill="rgb(187,43,45)"/>
<path d="M66 138h2v6h-2v-6z" fill="rgb(77,6,8)"/>
<path d="M86 138h6v2h-6v-2z" fill="rgb(93,28,30)"/>
<path d="M92 138h2v2h-2v-2z" fill="rgb(185,118,98)"/>
<path d="M100 138h2v2h-2v-2z" fill="rgb(185,118,98)"/>
<path d="M102 138h6v2h-6v-2z" fill="rgb(93,28,30)"/>
<path d="M128 138h4v2h-2v4h-2v-6z" fill="rgb(187,43,45)"/>
<path d="M132 138h2v2h-2v-2z" fill="rgb(108,24,26)"/>
<path d="M140 138h8v2h-8v-2z" fill="rgb(77,6,8)"/>
<path d="M148 138h2v2h-2v-2z" fill="rgb(187,43,45)"/>
<path d="M150 138h8v4h-2v-2h-6v-2z" fill="rgb(208,75,79)"/>
<path d="M158 138h2v6h-2v-6z" fill="rgb(77,6,8)"/>
<path d="M42 140h2v2h-2v-2z" fill="rgb(77,6,8)"/>
<path d="M44 140h2v2h-2v-2z" fill="rgb(187,43,45)"/>
<path d="M46 140h2v2h-2v-2z" fill="rgb(208,75,79)"/>
<path d="M48 140h4v2h-4v-2z" fill="rgb(77,6,8)"/>
<path d="M52 140h2v2h-2v-2z" fill="rgb(187,43,45)"/>
<path d="M54 140h2v4h-8v-2h6v-2z" fill="rgb(208,75,79)"/>
<path d="M84 140h2v4h-2v-4z" fill="rgb(93,28,30)"/>
<path d="M86 140h6v2h-4v2h-2v-4z" fill="rgb(177,61,55)"/>
<path d="M92 140h10v2h-10v-2z" fill="rgb(93,28,30)"/>
<path d="M102 140h6v4h-2v-2h-4v-2z" fill="rgb(177,61,55)"/>
<path d="M108 140h2v4h-2v-4z" fill="rgb(93,28,30)"/>
<path d="M124 140h2v2h-2v-2z" fill="rgb(77,6,8)"/>
<path d="M130 140h2v2h2v2h-2v2h2v2h-2v4h-2v-12z" fill="rgb(208,75,79)"/>
<path d="M132 140h2v2h-2v-2z" fill="rgb(187,43,45)"/>
<path d="M148 140h6v2h-6v-2z" fill="rgb(77,6,8)"/>
<path d="M154 140h2v2h-2v-2z" fill="rgb(187,43,45)"/>
<path d="M44 142h2v2h-2v-2z" fill="rgb(77,6,8)"/>
<path d="M46 142h2v2h-2v-2z" fill="rgb(187,43,45)"/>
<path d="M62 142h2v2h2v4h2v8h2v2h-4v-8h-4v-8z" fill="rgb(208,75,79)"/>
<path d="M88 142h4v2h4v2h-8v2h2v2h-4v-2h-2v-4h4v-2z" fill="rgb(185,118,98)"/>
<path d="M92 142h10v2h-4v2h-2v-2h-4v-2z" fill="rgb(177,61,55)"/>
<path d="M102 142h4v2h4v4h-2v2h-4v-2h2v-2h-8v-2h4v-2z" fill="rgb(185,118,98)"/>
<path d="M126 142h2v2h-2v-2z" fill="rgb(77,6,8)"/>
<path d="M154 142h2v2h-2v-2z" fill="rgb(77,6,8)"/>
<path d="M156 142h2v2h-2v-2z" fill="rgb(187,43,45)"/>
<path d="M46 144h4v2h-4v-2z" fill="rgb(77,6,8)"/>
<path d="M50 144h6v2h-6v-2z" fill="rgb(187,43,45)"/>
<path d="M66 144h2v4h-2v-4z" fill="rgb(187,43,45)"/>
<path d="M68 144h2v10h-2v-10z" fill="rgb(77,6,8)"/>
<path d="M82 144h2v4h-2v-4z" fill="rgb(93,28,30)"/>
<path d="M110 144h2v4h-2v-4z" fill="rgb(93,28,30)"/>
<path d="M128 144h2v12h-2v-12z" fill="rgb(77,6,8)"/>
<path d="M132 144h2v2h-2v-2z" fill="rgb(214,109,113)"/>
<path d="M156 144h2v2h-2v-2z" fill="rgb(77,6,8)"/>
<path d="M50 146h6v2h-6v-2z" fill="rgb(77,6,8)"/>
<path d="M88 146h4v2h2v2h-4v-2h-2v-2z" fill="rgb(195,167,133)"/>
<path d="M92 146h4v2h2v-2h4v2h-2v2h-6v-2h-2v-2z" fill="rgb(218,200,181)"/>
<path d="M96 146h2v2h-2v-2z" fill="rgb(185,118,98)"/>
<path d="M102 146h4v2h-2v2h-4v-2h2v-2z" fill="rgb(195,167,133)"/>
<path d="M60 148h2v6h-2v-6z" fill="rgb(77,6,8)"/>
<path d="M84 148h2v2h-2v-2z" fill="rgb(93,28,30)"/>
<path d="M108 148h2v2h-2v-2z" fill="rgb(93,28,30)"/>
<path d="M132 148h2v2h2v6h-2v-4h-2v-4z" fill="rgb(214,109,113)"/>
<path d="M62 150h2v4h-2v-4z" fill="rgb(187,43,45)"/>
<path d="M64 150h2v4h-2v-4z" fill="rgb(214,109,113)"/>
<path d="M86 150h6v2h-4v2h-2v-4z" fill="rgb(93,28,30)"/>
<path d="M92 150h10v2h-10v-2z" fill="rgb(185,118,98)"/>
<path d="M102 150h6v2h-2v4h-2v-4h-2v-2z" fill="rgb(93,28,30)"/>
<path d="M136 150h2v10h-2v-10z" fill="rgb(77,6,8)"/>
<path d="M88 152h4v2h10v-2h2v4h-8v2h-2v-2h-4v-2h-2v-2z" fill="rgb(177,61,55)"/>
<path d="M92 152h10v2h-10v-2z" fill="rgb(93,28,30)"/>
<path d="M130 152h2v4h-2v-4z" fill="rgb(187,43,45)"/>
<path d="M132 152h2v4h2v4h-2v-2h-2v-6z" fill="rgb(208,75,79)"/>
<path d="M62 154h2v4h-2v-4z" fill="rgb(77,6,8)"/>
<path d="M64 154h2v4h-2v-4z" fill="rgb(187,43,45)"/>
<path d="M68 154h2v2h-2v-2z" fill="rgb(187,43,45)"/>
<path d="M70 154h2v4h-2v-4z" fill="rgb(77,6,8)"/>
<path d="M84 154h2v2h-2v-2z" fill="rgb(93,28,30)"/>
<path d="M86 154h2v2h-2v-2z" fill="rgb(177,61,55)"/>
<path d="M88 154h2v4h-2v2h2v2h-4v-2h-2v-4h4v-2z" fill="rgb(163,84,62)"/>
<path d="M82 156h2v4h-2v-4z" fill="rgb(93,28,30)"/>
<path d="M90 156h2v2h-2v-2z" fill="rgb(185,118,98)"/>
<path d="M92 156h2v2h-2v-2z" fill="rgb(163,84,62)"/>
<path d="M96 156h2v2h-2v-2z" fill="rgb(163,84,62)"/>
<path d="M98 156h2v2h-2v-2z" fill="rgb(185,118,98)"/>
<path d="M100 156h6v4h-2v2h-4v-2h2v-2h-2v-2z" fill="rgb(163,84,62)"/>
<path d="M106 156h2v4h-2v-4z" fill="rgb(93,28,30)"/>
<path d="M130 156h2v4h-2v-4z" fill="rgb(77,6,8)"/>
<path d="M64 158h2v4h-2v-4z" fill="rgb(77,6,8)"/>
<path d="M66 158h2v2h2v2h-4v-4z" fill="rgb(187,43,45)"/>
<path d="M68 158h4v2h2v8h-2v-6h-2v-2h-2v-2z" fill="rgb(214,109,113)"/>
<path d="M72 158h4v2h-4v-2z" fill="rgb(77,6,8)"/>
<path d="M88 158h2v2h-2v-2z" fill="rgb(185,118,98)"/>
<path d="M90 158h2v2h-2v-2z" fill="rgb(195,167,133)"/>
<path d="M92 158h6v2h-6v-2z" fill="rgb(185,118,98)"/>
<path d="M98 158h2v2h-2v-2z" fill="rgb(195,167,133)"/>
<path d="M100 158h2v2h-2v-2z" fill="rgb(185,118,98)"/>
<path d="M132 158h2v2h-2v-2z" fill="rgb(187,43,45)"/>
<path d="M74 160h2v2h-2v-2z" fill="rgb(187,43,45)"/>
<path d="M76 160h2v2h-2v-2z" fill="rgb(77,6,8)"/>
<path d="M84 160h2v2h-2v-2z" fill="rgb(93,28,30)"/>
<path d="M90 160h2v2h-2v-2z" fill="rgb(185,118,98)"/>
<path d="M92 160h6v2h-6v-2z" fill="rgb(195,167,133)"/>
<path d="M98 160h2v2h-2v-2z" fill="rgb(185,118,98)"/>
<path d="M104 160h2v2h-2v-2z" fill="rgb(93,28,30)"/>
<path d="M132 160h2v8h-2v-8z" fill="rgb(77,6,8)"/>
<path d="M134 160h2v8h-2v-8z" fill="rgb(187,43,45)"/>
<path d="M136 160h2v2h-2v-2z" fill="rgb(214,109,113)"/>
<path d="M138 160h2v6h-2v-6z" fill="rgb(77,6,8)"/>
<path d="M66 162h4v2h-4v-2z" fill="rgb(77,6,8)"/>
<path d="M70 162h2v2h-2v-2z" fill="rgb(187,43,45)"/>
<path d="M74 162h2v4h-2v-4z" fill="rgb(208,75,79)"/>
<path d="M76 162h2v6h-2v2h-4v2h-4v-2h2v-2h4v-2h2v-4z" fill="rgb(187,43,45)"/>
<path d="M78 162h2v6h-2v-6z" fill="rgb(77,6,8)"/>
<path d="M86 162h4v2h-4v-2z" fill="rgb(93,28,30)"/>
<path d="M90 162h2v2h-2v-2z" fill="rgb(163,84,62)"/>
<path d="M92 162h6v2h-6v-2z" fill="rgb(185,118,98)"/>
<path d="M98 162h2v2h-2v-2z" fill="rgb(163,84,62)"/>
<path d="M100 162h4v2h-2v2h-10v6h-2v-8h10v-2z" fill="rgb(93,28,30)"/>
<path d="M136 162h2v6h2v2h-4v-8z" fill="rgb(208,75,79)"/>
<path d="M70 164h2v4h-2v-4z" fill="rgb(77,6,8)"/>
<path d="M92 166h2v2h2v2h-2v2h-2v-6z" fill="rgb(163,84,62)"/>
<path d="M94 166h6v2h-2v2h-2v-2h-2v-2z" fill="rgb(177,61,55)"/>
<path d="M100 166h2v6h-2v-2h-2v-2h2v-2z" fill="rgb(163,84,62)"/>
<path d="M102 166h2v6h-2v-6z" fill="rgb(93,28,30)"/>
<path d="M138 166h2v2h-2v-2z" fill="rgb(214,109,113)"/>
<path d="M140 166h4v2h-4v-2z" fill="rgb(77,6,8)"/>
<path d="M68 168h2v2h-2v-2z" fill="rgb(77,6,8)"/>
<path d="M76 168h2v2h-2v-2z" fill="rgb(77,6,8)"/>
<path d="M134 168h2v4h-2v-4z" fill="rgb(77,6,8)"/>
<path d="M140 168h4v2h-2v2h-6v-2h4v-2z" fill="rgb(187,43,45)"/>
<path d="M144 168h2v2h-2v-2z" fill="rgb(77,6,8)"/>
<path d="M66 170h2v2h-2v-2z" fill="rgb(77,6,8)"/>
<path d="M72 170h4v2h-4v-2z" fill="rgb(77,6,8)"/>
<path d="M94 170h6v2h-2v2h-2v-2h-2v-2z" fill="rgb(196,128,107)"/>
<path d="M142 170h2v2h-2v-2z" fill="rgb(77,6,8)"/>
<path d="M68 172h4v2h-4v-2z" fill="rgb(77,6,8)"/>
<path d="M92 172h2v2h-2v-2z" fill="rgb(93,28,30)"/>
<path d="M94 172h2v2h-2v-2z" fill="rgb(163,84,62)"/>
<path d="M98 172h2v2h-2v-2z" fill="rgb(163,84,62)"/>
<path d="M100 172h2v2h-2v-2z" fill="rgb(93,28,30)"/>
<path d="M136 172h6v2h-6v-2z" fill="rgb(77,6,8)"/>
<path d="M94 174h6v2h-6v-2z" fill="rgb(93,28,30)"/>
</svg>