<?xml version="1.0" encoding="utf-8"?>
<!-- generated at drububu.com  -->
<!DOCTYPE svg PUBLIC "-//W3C//DTD SVG 1.1//EN" "http://www.w3.org/Graphics/SVG/1.1/DTD/svg11.dtd">
<svg version="1.1" preserveAspectRatio="xMinYMin meet" xmlns="http://www.w3.org/2000/svg" xmlns:xlink="http://www.w3.org/1999/xlink" x="0px" y="0px" width="80px" height="66px" viewBox="0 0 80 66">
<path d="M0 0h44v2h-6v2h-2v2h-2v-2h-4v8h-2v4h2v4h-4v2h-2v6h2v2h-2v4h-2v2h-2v4
	h-2v2h-2v2h-4v2h-2v-2h-2v4h-2v6h2v2h6v2h10v2h10v2h18v-2h2v-2h4v-2h2v-2h2v-2h4v10
	h2v2h2v2h-70v-30h2v2h6v-2h2v-2h2v-4h2v-4h-2v-2h-2v-2h-8v4h-2v-26z" fill="rgb(255,255,255)"/>
<path d="M44 0h14v2h-14v-2z" fill="rgb(92,52,139)"/>
<path d="M58 0h8v2h-2v12h2v2h8v-2h2v-10h-2v-2h-2v-2h8v56h-2v-4h-2v-2h-8v-2h2v-6
	h-2v-2h-2v-2h-2v4h-4v-2h-2v-2h-4v-2h-6v-2h2v-4h2v-4h4v-2h4v-2h2v-2h-2v-2h4v-2
	h-2v-2h-2v-2h2v-2h-2v-2h2v-2h-2v-4h-2v-2z" fill="rgb(255,255,255)"/>
<path d="M66 0h6v2h-6v-2z" fill="rgb(121,41,32)"/>
<path d="M38 2h2v2h-2v-2z" fill="rgb(126,91,164)"/>
<path d="M40 2h4v2h-4v-2z" fill="rgb(92,52,139)"/>
<path d="M44 2h2v2h-2v-2z" fill="rgb(126,91,164)"/>
<path d="M46 2h4v2h-4v-2z" fill="rgb(164,151,200)"/>
<path d="M50 2h2v2h-2v-2z" fill="rgb(149,118,183)"/>
<path d="M52 2h4v2h-4v-2z" fill="rgb(164,151,200)"/>
<path d="M56 2h2v2h-2v-2z" fill="rgb(149,118,183)"/>
<path d="M58 2h2v2h-2v-2z" fill="rgb(92,52,139)"/>
<path d="M64 2h2v12h-2v-12z" fill="rgb(70,70,70)"/>
<path d="M66 2h2v2h-2v-2z" fill="rgb(127,141,141)"/>
<path d="M68 2h4v2h-2v2h-2v-4z" fill="rgb(173,99,62)"/>
<path d="M72 2h2v2h-2v-2z" fill="rgb(121,41,32)"/>
<path d="M30 4h4v2h-2v4h-2v-6z" fill="rgb(70,70,70)"/>
<path d="M36 4h2v2h-2v-2z" fill="rgb(126,91,164)"/>
<path d="M38 4h4v2h-4v-2z" fill="rgb(166,181,229)"/>
<path d="M42 4h4v2h-4v-2z" fill="rgb(164,151,200)"/>
<path d="M46 4h4v2h-4v-2z" fill="rgb(149,118,183)"/>
<path d="M50 4h6v2h-6v-2z" fill="rgb(126,91,164)"/>
<path d="M56 4h2v2h-2v-2z" fill="rgb(92,52,139)"/>
<path d="M58 4h2v2h-2v-2z" fill="rgb(64,18,75)"/>
<path d="M66 4h2v8h-2v-8z" fill="rgb(196,208,208)"/>
<path d="M70 4h2v2h2v6h-6v-6h2v-2z" fill="rgb(229,157,98)"/>
<path d="M72 4h2v2h-2v-2z" fill="rgb(173,99,62)"/>
<path d="M74 4h2v10h-2v-10z" fill="rgb(121,41,32)"/>
<path d="M32 6h2v4h-2v-4z" fill="rgb(184,184,184)"/>
<path d="M34 6h2v4h-2v-4z" fill="rgb(70,70,70)"/>
<path d="M36 6h2v2h-2v-2z" fill="rgb(166,181,229)"/>
<path d="M38 6h4v2h-2v2h-4v-2h2v-2z" fill="rgb(175,229,248)"/>
<path d="M42 6h2v2h-2v-2z" fill="rgb(149,118,183)"/>
<path d="M44 6h4v4h-2v-2h-2v-2z" fill="rgb(70,70,70)"/>
<path d="M48 6h2v2h-2v-2z" fill="rgb(164,151,200)"/>
<path d="M50 6h4v2h-4v-2z" fill="rgb(149,118,183)"/>
<path d="M54 6h4v2h-4v-2z" fill="rgb(164,151,200)"/>
<path d="M58 6h2v2h-2v-2z" fill="rgb(149,118,183)"/>
<path d="M60 6h2v2h-2v-2z" fill="rgb(64,18,75)"/>
<path d="M40 8h2v2h-2v-2z" fill="rgb(166,181,229)"/>
<path d="M42 8h2v4h-2v-4z" fill="rgb(70,70,70)"/>
<path d="M44 8h2v4h-2v-4z" fill="rgb(184,184,184)"/>
<path d="M48 8h2v2h-2v-2z" fill="rgb(166,181,229)"/>
<path d="M50 8h2v2h-2v-2z" fill="rgb(126,91,164)"/>
<path d="M52 8h2v2h-2v-2z" fill="rgb(164,151,200)"/>
<path d="M54 8h4v2h-4v-2z" fill="rgb(126,91,164)"/>
<path d="M58 8h2v2h-2v-2z" fill="rgb(64,18,75)"/>
<path d="M30 10h2v2h-2v-2z" fill="rgb(104,35,102)"/>
<path d="M32 10h2v2h-2v-2z" fill="rgb(247,190,89)"/>
<path d="M34 10h2v2h-2v-2z" fill="rgb(184,184,184)"/>
<path d="M36 10h2v2h-2v-2z" fill="rgb(70,70,70)"/>
<path d="M38 10h2v2h-2v-2z" fill="rgb(166,181,229)"/>
<path d="M40 10h2v2h-2v-2z" fill="rgb(149,118,183)"/>
<path d="M46 10h2v6h-2v-6z" fill="rgb(37,27,54)"/>
<path d="M48 10h2v2h-2v-2z" fill="rgb(149,118,183)"/>
<path d="M50 10h2v2h-2v-2z" fill="rgb(164,151,200)"/>
<path d="M52 10h2v2h-2v-2z" fill="rgb(126,91,164)"/>
<path d="M54 10h4v2h-4v-2z" fill="rgb(164,151,200)"/>
<path d="M58 10h2v2h-2v-2z" fill="rgb(149,118,183)"/>
<path d="M60 10h2v2h-2v-2z" fill="rgb(64,18,75)"/>
<path d="M28 12h2v4h-2v-4z" fill="rgb(104,35,102)"/>
<path d="M30 12h2v2h-2v-2z" fill="rgb(239,131,245)"/>
<path d="M32 12h2v2h-2v-2z" fill="rgb(164,90,182)"/>
<path d="M34 12h2v2h-2v-2z" fill="rgb(247,190,89)"/>
<path d="M36 12h2v4h-2v-4z" fill="rgb(184,184,184)"/>
<path d="M38 12h4v2h-4v-2z" fill="rgb(70,70,70)"/>
<path d="M42 12h2v2h-2v-2z" fill="rgb(184,184,184)"/>
<path d="M44 12h2v2h-2v-2z" fill="rgb(134,134,134)"/>
<path d="M48 12h4v2h-2v2h-2v-4z" fill="rgb(166,181,229)"/>
<path d="M52 12h2v2h-2v-2z" fill="rgb(175,229,248)"/>
<path d="M54 12h2v2h-2v-2z" fill="rgb(149,118,183)"/>
<path d="M56 12h2v2h-2v-2z" fill="rgb(126,91,164)"/>
<path d="M58 12h2v2h-2v-2z" fill="rgb(64,18,75)"/>
<path d="M66 12h2v2h-2v-2z" fill="rgb(127,141,141)"/>
<path d="M68 12h6v2h-6v-2z" fill="rgb(173,99,62)"/>
<path d="M30 14h2v2h-2v-2z" fill="rgb(164,90,182)"/>
<path d="M32 14h2v2h-2v-2z" fill="rgb(121,41,32)"/>
<path d="M34 14h2v2h-2v-2z" fill="rgb(247,245,113)"/>
<path d="M38 14h2v2h-2v-2z" fill="rgb(247,245,113)"/>
<path d="M40 14h4v2h-4v-2z" fill="rgb(247,190,89)"/>
<path d="M44 14h2v2h-2v-2z" fill="rgb(98,98,98)"/>
<path d="M50 14h2v2h-2v-2z" fill="rgb(175,229,248)"/>
<path d="M52 14h2v2h-2v-2z" fill="rgb(164,151,200)"/>
<path d="M54 14h2v2h-2v-2z" fill="rgb(126,91,164)"/>
<path d="M56 14h4v2h-2v2h-4v-2h2v-2z" fill="rgb(164,151,200)"/>
<path d="M60 14h2v2h-2v-2z" fill="rgb(64,18,75)"/>
<path d="M66 14h8v2h-8v-2z" fill="rgb(121,41,32)"/>
<path d="M30 16h2v2h-2v-2z" fill="rgb(121,41,32)"/>
<path d="M32 16h2v2h-2v-2z" fill="rgb(247,245,113)"/>
<path d="M34 16h2v2h-2v-2z" fill="rgb(184,184,184)"/>
<path d="M36 16h2v2h-2v-2z" fill="rgb(247,245,113)"/>
<path d="M38 16h4v4h-2v-2h-2v-2z" fill="rgb(104,35,102)"/>
<path d="M42 16h2v2h-2v-2z" fill="rgb(98,98,98)"/>
<path d="M44 16h2v4h-2v-4z" fill="rgb(37,27,54)"/>
<path d="M46 16h2v2h-2v-2z" fill="rgb(166,181,229)"/>
<path d="M48 16h2v2h-2v-2z" fill="rgb(149,118,183)"/>
<path d="M50 16h2v2h-2v-2z" fill="rgb(164,151,200)"/>
<path d="M52 16h2v2h-2v-2z" fill="rgb(126,91,164)"/>
<path d="M58 16h2v2h-2v-2z" fill="rgb(149,118,183)"/>
<path d="M60 16h2v2h-2v-2z" fill="rgb(126,91,164)"/>
<path d="M62 16h2v2h-2v-2z" fill="rgb(64,18,75)"/>
<path d="M30 18h2v2h-2v-2z" fill="rgb(70,70,70)"/>
<path d="M32 18h2v4h-2v-4z" fill="rgb(197,197,197)"/>
<path d="M34 18h2v2h-2v-2z" fill="rgb(247,245,113)"/>
<path d="M36 18h2v2h-2v-2z" fill="rgb(104,35,102)"/>
<path d="M38 18h2v2h-2v-2z" fill="rgb(255,112,247)"/>
<path d="M42 18h2v4h-4v-2h2v-2z" fill="rgb(70,70,70)"/>
<path d="M46 18h2v2h-2v-2z" fill="rgb(175,229,248)"/>
<path d="M48 18h4v2h-4v-2z" fill="rgb(46,46,46)"/>
<path d="M52 18h2v2h-2v-2z" fill="rgb(164,151,200)"/>
<path d="M54 18h4v2h-2v2h-4v-2h2v-2z" fill="rgb(126,91,164)"/>
<path d="M58 18h2v2h-2v-2z" fill="rgb(64,18,75)"/>
<path d="M26 20h4v2h-4v-2z" fill="rgb(24,36,76)"/>
<path d="M30 20h2v2h-2v-2z" fill="rgb(46,46,46)"/>
<path d="M34 20h2v2h-2v-2z" fill="rgb(104,35,102)"/>
<path d="M36 20h2v2h-2v-2z" fill="rgb(255,112,247)"/>
<path d="M38 20h2v2h-2v-2z" fill="rgb(104,35,102)"/>
<path d="M44 20h4v2h-4v-2z" fill="rgb(24,36,76)"/>
<path d="M48 20h2v2h-2v-2z" fill="rgb(197,197,197)"/>
<path d="M50 20h2v2h-2v-2z" fill="rgb(37,27,54)"/>
<path d="M56 20h2v2h-2v-2z" fill="rgb(149,118,183)"/>
<path d="M58 20h2v2h-2v-2z" fill="rgb(126,91,164)"/>
<path d="M60 20h2v2h-2v-2z" fill="rgb(64,18,75)"/>
<path d="M2 22h4v2h-2v2h-2v-4z" fill="rgb(71,16,16)"/>
<path d="M6 22h2v2h-2v-2z" fill="rgb(121,41,32)"/>
<path d="M8 22h2v2h-2v-2z" fill="rgb(71,16,16)"/>
<path d="M24 22h2v6h-2v-6z" fill="rgb(24,36,76)"/>
<path d="M26 22h2v2h-2v-2z" fill="rgb(175,229,248)"/>
<path d="M28 22h2v6h-2v-6z" fill="rgb(46,46,46)"/>
<path d="M30 22h8v2h-8v-2z" fill="rgb(134,134,134)"/>
<path d="M38 22h2v4h-2v-4z" fill="rgb(197,197,197)"/>
<path d="M40 22h2v2h-2v-2z" fill="rgb(98,98,98)"/>
<path d="M42 22h2v6h-2v-6z" fill="rgb(24,36,76)"/>
<path d="M44 22h4v2h-4v-2z" fill="rgb(175,229,248)"/>
<path d="M48 22h2v2h-2v-2z" fill="rgb(121,41,32)"/>
<path d="M50 22h2v2h-2v-2z" fill="rgb(64,18,75)"/>
<path d="M52 22h4v2h-4v-2z" fill="rgb(117,54,132)"/>
<path d="M56 22h4v2h-4v-2z" fill="rgb(64,18,75)"/>
<path d="M4 24h2v2h-2v-2z" fill="rgb(121,41,32)"/>
<path d="M6 24h4v2h-2v6h-2v2h-4v-6h2v-2h2v-2z" fill="rgb(173,99,62)"/>
<path d="M10 24h2v2h-2v-2z" fill="rgb(71,16,16)"/>
<path d="M26 24h2v2h-2v-2z" fill="rgb(140,190,228)"/>
<path d="M30 24h4v2h-4v-2z" fill="rgb(197,197,197)"/>
<path d="M34 24h2v2h-2v-2z" fill="rgb(70,70,70)"/>
<path d="M36 24h2v2h-2v-2z" fill="rgb(98,98,98)"/>
<path d="M40 24h2v2h-2v-2z" fill="rgb(134,134,134)"/>
<path d="M44 24h4v2h-4v-2z" fill="rgb(140,190,228)"/>
<path d="M48 24h2v2h-2v-2z" fill="rgb(220,143,79)"/>
<path d="M50 24h2v6h-2v-6z" fill="rgb(121,41,32)"/>
<path d="M52 24h4v2h-4v-2z" fill="rgb(64,18,75)"/>
<path d="M0 26h2v2h-2v-2z" fill="rgb(71,16,16)"/>
<path d="M2 26h2v2h-2v-2z" fill="rgb(121,41,32)"/>
<path d="M8 26h2v4h-2v-4z" fill="rgb(121,41,32)"/>
<path d="M10 26h4v4h-2v-2h-2v-2z" fill="rgb(70,70,70)"/>
<path d="M26 26h2v2h-2v-2z" fill="rgb(63,101,163)"/>
<path d="M30 26h4v2h-4v-2z" fill="rgb(134,134,134)"/>
<path d="M34 26h4v2h-4v-2z" fill="rgb(46,46,46)"/>
<path d="M38 26h2v2h-2v-2z" fill="rgb(134,134,134)"/>
<path d="M40 26h2v2h-2v-2z" fill="rgb(197,197,197)"/>
<path d="M44 26h4v2h-4v-2z" fill="rgb(63,101,163)"/>
<path d="M48 26h2v2h-2v-2z" fill="rgb(247,186,113)"/>
<path d="M0 28h2v6h-2v-6z" fill="rgb(121,41,32)"/>
<path d="M10 28h2v2h-2v-2z" fill="rgb(127,141,141)"/>
<path d="M26 28h2v2h-2v-2z" fill="rgb(121,41,32)"/>
<path d="M28 28h2v4h-2v-4z" fill="rgb(247,186,113)"/>
<path d="M30 28h4v4h-2v-2h-2v-2z" fill="rgb(98,98,98)"/>
<path d="M34 28h4v2h-4v-2z" fill="rgb(134,134,134)"/>
<path d="M38 28h2v2h-2v-2z" fill="rgb(98,98,98)"/>
<path d="M40 28h2v2h-2v-2z" fill="rgb(70,70,70)"/>
<path d="M42 28h2v4h-2v-4z" fill="rgb(63,101,163)"/>
<path d="M44 28h2v2h-2v-2z" fill="rgb(121,41,32)"/>
<path d="M46 28h2v2h-2v-2z" fill="rgb(247,186,113)"/>
<path d="M48 28h2v2h-2v-2z" fill="rgb(220,143,79)"/>
<path d="M8 30h2v2h-2v-2z" fill="rgb(196,208,208)"/>
<path d="M10 30h2v4h-2v-4z" fill="rgb(70,70,70)"/>
<path d="M24 30h2v2h4v2h-6v-4z" fill="rgb(121,41,32)"/>
<path d="M26 30h2v2h-2v-2z" fill="rgb(255,240,165)"/>
<path d="M30 30h2v2h-2v-2z" fill="rgb(220,143,79)"/>
<path d="M34 30h2v2h-2v-2z" fill="rgb(70,70,70)"/>
<path d="M36 30h6v2h-6v-2z" fill="rgb(37,27,54)"/>
<path d="M44 30h2v2h-2v-2z" fill="rgb(68,133,180)"/>
<path d="M46 30h2v4h-2v-4z" fill="rgb(63,101,163)"/>
<path d="M48 30h2v2h-2v-2z" fill="rgb(121,41,32)"/>
<path d="M6 32h2v2h-2v-2z" fill="rgb(121,41,32)"/>
<path d="M8 32h2v2h-2v-2z" fill="rgb(127,141,141)"/>
<path d="M30 32h6v2h-6v-2z" fill="rgb(37,27,54)"/>
<path d="M36 32h2v2h-2v-2z" fill="rgb(140,190,228)"/>
<path d="M38 32h4v2h-4v-2z" fill="rgb(175,229,248)"/>
<path d="M42 32h2v2h-2v-2z" fill="rgb(68,133,180)"/>
<path d="M44 32h2v2h-2v-2z" fill="rgb(140,190,228)"/>
<path d="M48 32h2v2h-2v-2z" fill="rgb(24,36,76)"/>
<path d="M0 34h2v2h-2v-2z" fill="rgb(71,16,16)"/>
<path d="M2 34h2v2h-2v-2z" fill="rgb(121,41,32)"/>
<path d="M4 34h2v2h2v2h-4v-4z" fill="rgb(70,70,70)"/>
<path d="M6 34h2v2h-2v-2z" fill="rgb(196,208,208)"/>
<path d="M8 34h2v2h-2v-2z" fill="rgb(70,70,70)"/>
<path d="M22 34h2v2h-2v-2z" fill="rgb(121,41,32)"/>
<path d="M24 34h6v2h-6v-2z" fill="rgb(255,255,255)"/>
<path d="M30 34h2v2h-2v-2z" fill="rgb(24,36,76)"/>
<path d="M32 34h2v2h-2v-2z" fill="rgb(140,190,228)"/>
<path d="M34 34h4v2h-4v-2z" fill="rgb(68,133,180)"/>
<path d="M38 34h4v2h-4v-2z" fill="rgb(140,190,228)"/>
<path d="M42 34h2v2h-2v-2z" fill="rgb(63,101,163)"/>
<path d="M44 34h4v2h-4v-2z" fill="rgb(24,36,76)"/>
<path d="M2 36h2v2h-2v-2z" fill="rgb(71,16,16)"/>
<path d="M20 36h2v2h-2v-2z" fill="rgb(121,41,32)"/>
<path d="M22 36h2v2h-2v-2z" fill="rgb(220,143,79)"/>
<path d="M24 36h4v2h-4v-2z" fill="rgb(70,70,70)"/>
<path d="M28 36h4v2h-4v-2z" fill="rgb(64,18,75)"/>
<path d="M32 36h2v2h-2v-2z" fill="rgb(117,54,132)"/>
<path d="M34 36h2v2h-2v-2z" fill="rgb(164,90,182)"/>
<path d="M36 36h4v2h-4v-2z" fill="rgb(255,240,165)"/>
<path d="M40 36h2v2h-2v-2z" fill="rgb(117,54,132)"/>
<path d="M42 36h2v2h-2v-2z" fill="rgb(64,18,75)"/>
<path d="M44 36h10v2h-10v-2z" fill="rgb(70,70,70)"/>
<path d="M20 38h4v2h-4v-2z" fill="rgb(70,70,70)"/>
<path d="M24 38h2v2h-2v-2z" fill="rgb(196,208,208)"/>
<path d="M26 38h2v2h-2v-2z" fill="rgb(64,18,75)"/>
<path d="M28 38h2v2h-2v-2z" fill="rgb(220,143,79)"/>
<path d="M30 38h2v2h-2v-2z" fill="rgb(117,54,132)"/>
<path d="M32 38h2v2h-2v-2z" fill="rgb(164,90,182)"/>
<path d="M34 38h2v2h-2v-2z" fill="rgb(255,240,165)"/>
<path d="M36 38h4v2h-4v-2z" fill="rgb(121,41,32)"/>
<path d="M40 38h2v2h-2v-2z" fill="rgb(247,186,113)"/>
<path d="M42 38h2v2h-2v-2z" fill="rgb(117,54,132)"/>
<path d="M44 38h2v4h-2v-4z" fill="rgb(64,18,75)"/>
<path d="M46 38h4v2h6v2h4v2h-4v2h-4v2h-2v2h-2v2h-4v-2h-4v-2h-8v-2h16v-4h-2v-4z" fill="rgb(223,239,239)"/>
<path d="M50 38h4v2h-4v-2z" fill="rgb(196,208,208)"/>
<path d="M54 38h2v2h-2v-2z" fill="rgb(127,141,141)"/>
<path d="M56 38h2v2h-2v-2z" fill="rgb(70,70,70)"/>
<path d="M64 38h2v2h-2v-2z" fill="rgb(121,41,32)"/>
<path d="M18 40h2v2h-2v-2z" fill="rgb(127,141,141)"/>
<path d="M20 40h2v2h-2v-2z" fill="rgb(196,208,208)"/>
<path d="M22 40h4v2h2v2h-2v2h-8v-2h2v-2h2v-2z" fill="rgb(223,239,239)"/>
<path d="M26 40h2v2h-2v-2z" fill="rgb(24,36,76)"/>
<path d="M28 40h2v2h-2v-2z" fill="rgb(63,101,163)"/>
<path d="M30 40h2v2h-2v-2z" fill="rgb(24,36,76)"/>
<path d="M32 40h2v2h-2v-2z" fill="rgb(121,41,32)"/>
<path d="M34 40h4v2h-4v-2z" fill="rgb(64,18,75)"/>
<path d="M38 40h2v2h-2v-2z" fill="rgb(140,190,228)"/>
<path d="M40 40h2v2h-2v-2z" fill="rgb(121,41,32)"/>
<path d="M42 40h2v2h-2v-2z" fill="rgb(220,143,79)"/>
<path d="M56 40h2v2h-2v-2z" fill="rgb(196,208,208)"/>
<path d="M58 40h2v2h-2v-2z" fill="rgb(127,141,141)"/>
<path d="M64 40h2v2h-2v-2z" fill="rgb(255,240,165)"/>
<path d="M66 40h2v2h-2v-2z" fill="rgb(121,41,32)"/>
<path d="M16 42h2v2h-2v-2z" fill="rgb(127,141,141)"/>
<path d="M18 42h2v2h-2v-2z" fill="rgb(196,208,208)"/>
<path d="M28 42h2v2h-2v-2z" fill="rgb(24,36,76)"/>
<path d="M30 42h2v2h-2v-2z" fill="rgb(117,54,132)"/>
<path d="M32 42h2v2h-2v-2z" fill="rgb(68,133,180)"/>
<path d="M34 42h2v2h-2v-2z" fill="rgb(140,190,228)"/>
<path d="M36 42h2v2h-2v-2z" fill="rgb(117,54,132)"/>
<path d="M38 42h2v2h-2v-2z" fill="rgb(68,133,180)"/>
<path d="M40 42h2v2h-2v-2z" fill="rgb(63,101,163)"/>
<path d="M42 42h2v2h-2v-2z" fill="rgb(121,41,32)"/>
<path d="M44 42h2v2h-2v-2z" fill="rgb(220,143,79)"/>
<path d="M46 42h2v4h-6v-2h4v-2z" fill="rgb(64,18,75)"/>
<path d="M60 42h2v4h-2v2h-2v2h-2v2h-4v2h-2v-4h2v-2h4v-2h2v-2h2v-2z" fill="rgb(127,141,141)"/>
<path d="M62 42h2v2h-2v-2z" fill="rgb(64,18,75)"/>
<path d="M64 42h2v2h-2v-2z" fill="rgb(247,186,113)"/>
<path d="M66 42h2v2h-2v-2z" fill="rgb(255,240,165)"/>
<path d="M68 42h2v6h-2v-6z" fill="rgb(121,41,32)"/>
<path d="M8 44h2v2h-2v-2z" fill="rgb(220,143,79)"/>
<path d="M12 44h2v2h-2v-2z" fill="rgb(64,18,75)"/>
<path d="M14 44h2v2h-2v-2z" fill="rgb(127,141,141)"/>
<path d="M16 44h2v2h8v2h-12v-2h2v-2z" fill="rgb(196,208,208)"/>
<path d="M26 44h2v2h-2v-2z" fill="rgb(196,208,208)"/>
<path d="M28 44h2v2h-2v-2z" fill="rgb(70,70,70)"/>
<path d="M30 44h8v2h-8v-2z" fill="rgb(64,18,75)"/>
<path d="M38 44h4v2h-4v-2z" fill="rgb(24,36,76)"/>
<path d="M56 44h2v2h-2v-2z" fill="rgb(196,208,208)"/>
<path d="M62 44h2v4h-4v-2h2v-2z" fill="rgb(70,70,70)"/>
<path d="M64 44h2v2h-2v-2z" fill="rgb(220,143,79)"/>
<path d="M66 44h2v2h-2v-2z" fill="rgb(247,186,113)"/>
<path d="M8 46h2v2h-2v-2z" fill="rgb(247,186,113)"/>
<path d="M10 46h2v2h-2v-2z" fill="rgb(64,18,75)"/>
<path d="M12 46h2v2h10v4h-8v-2h-4v-4z" fill="rgb(127,141,141)"/>
<path d="M26 46h2v2h-2v-2z" fill="rgb(70,70,70)"/>
<path d="M28 46h2v2h-2v-2z" fill="rgb(127,141,141)"/>
<path d="M30 46h2v2h8v2h4v2h4v2h-8v-2h-8v-2h-4v-2h2v-2z" fill="rgb(196,208,208)"/>
<path d="M52 46h4v2h-4v-2z" fill="rgb(196,208,208)"/>
<path d="M64 46h2v2h-2v-2z" fill="rgb(121,41,32)"/>
<path d="M66 46h2v2h-2v-2z" fill="rgb(220,143,79)"/>
<path d="M6 48h2v6h-2v-6z" fill="rgb(121,41,32)"/>
<path d="M8 48h2v4h-2v-4z" fill="rgb(255,240,165)"/>
<path d="M10 48h2v2h-2v-2z" fill="rgb(117,54,132)"/>
<path d="M24 48h2v4h2v2h8v2h-10v-2h-10v-2h8v-4z" fill="rgb(70,70,70)"/>
<path d="M26 48h2v2h4v2h8v2h8v2h-12v-2h-8v-2h-2v-4z" fill="rgb(127,141,141)"/>
<path d="M50 48h2v2h-2v-2z" fill="rgb(196,208,208)"/>
<path d="M58 48h2v2h-2v-2z" fill="rgb(70,70,70)"/>
<path d="M60 48h2v2h-2v-2z" fill="rgb(164,90,182)"/>
<path d="M62 48h4v2h-4v-2z" fill="rgb(117,54,132)"/>
<path d="M66 48h2v2h-2v-2z" fill="rgb(64,18,75)"/>
<path d="M10 50h2v4h-2v-4z" fill="rgb(220,143,79)"/>
<path d="M12 50h4v2h-4v-2z" fill="rgb(70,70,70)"/>
<path d="M48 50h2v2h-2v-2z" fill="rgb(220,143,79)"/>
<path d="M56 50h2v2h-2v-2z" fill="rgb(70,70,70)"/>
<path d="M58 50h2v2h-2v-2z" fill="rgb(149,118,183)"/>
<path d="M60 50h2v2h-2v-2z" fill="rgb(117,54,132)"/>
<path d="M62 50h4v2h-4v-2z" fill="rgb(64,18,75)"/>
<path d="M66 50h2v2h-2v-2z" fill="rgb(255,255,255)"/>
<path d="M68 50h6v2h-6v-2z" fill="rgb(64,18,75)"/>
<path d="M74 50h2v2h-2v-2z" fill="rgb(70,70,70)"/>
<path d="M8 52h2v2h-2v-2z" fill="rgb(247,186,113)"/>
<path d="M12 52h4v2h2v2h-4v-2h-2v-2z" fill="rgb(117,54,132)"/>
<path d="M48 52h2v6h-2v-6z" fill="rgb(255,240,165)"/>
<path d="M52 52h4v2h-4v-2z" fill="rgb(70,70,70)"/>
<path d="M56 52h2v2h-2v-2z" fill="rgb(149,118,183)"/>
<path d="M58 52h2v2h-2v-2z" fill="rgb(117,54,132)"/>
<path d="M60 52h2v2h-2v-2z" fill="rgb(64,18,75)"/>
<path d="M66 52h2v10h-2v-10z" fill="rgb(64,18,75)"/>
<path d="M68 52h2v6h2v4h2v2h-4v-2h-2v-10z" fill="rgb(117,54,132)"/>
<path d="M70 52h2v2h2v4h2v6h-2v-2h-2v-4h-2v-6z" fill="rgb(164,90,182)"/>
<path d="M72 52h2v2h-2v-2z" fill="rgb(117,54,132)"/>
<path d="M74 52h2v4h-2v-4z" fill="rgb(127,141,141)"/>
<path d="M76 52h2v4h-2v-4z" fill="rgb(70,70,70)"/>
<path d="M8 54h4v2h-4v-2z" fill="rgb(121,41,32)"/>
<path d="M12 54h2v2h-2v-2z" fill="rgb(64,18,75)"/>
<path d="M18 54h8v2h-8v-2z" fill="rgb(164,90,182)"/>
<path d="M50 54h2v2h-2v-2z" fill="rgb(220,143,79)"/>
<path d="M52 54h2v2h-2v-2z" fill="rgb(164,90,182)"/>
<path d="M54 54h2v2h-2v-2z" fill="rgb(149,118,183)"/>
<path d="M56 54h2v2h-2v-2z" fill="rgb(117,54,132)"/>
<path d="M58 54h2v2h-2v-2z" fill="rgb(64,18,75)"/>
<path d="M14 56h10v2h-10v-2z" fill="rgb(64,18,75)"/>
<path d="M24 56h2v2h-2v-2z" fill="rgb(117,54,132)"/>
<path d="M26 56h10v2h-10v-2z" fill="rgb(164,90,182)"/>
<path d="M36 56h10v2h-10v-2z" fill="rgb(70,70,70)"/>
<path d="M46 56h2v2h-2v-2z" fill="rgb(220,143,79)"/>
<path d="M50 56h2v2h-2v-2z" fill="rgb(247,186,113)"/>
<path d="M52 56h2v4h-2v-4z" fill="rgb(121,41,32)"/>
<path d="M54 56h4v2h-4v-2z" fill="rgb(64,18,75)"/>
<path d="M74 56h2v2h-2v-2z" fill="rgb(117,54,132)"/>
<path d="M76 56h2v6h-2v-6z" fill="rgb(127,141,141)"/>
<path d="M78 56h2v6h-2v-6z" fill="rgb(70,70,70)"/>
<path d="M24 58h10v2h-10v-2z" fill="rgb(64,18,75)"/>
<path d="M34 58h2v2h-2v-2z" fill="rgb(117,54,132)"/>
<path d="M36 58h6v2h-6v-2z" fill="rgb(164,90,182)"/>
<path d="M42 58h4v2h-4v-2z" fill="rgb(149,118,183)"/>
<path d="M46 58h2v2h4v2h-6v-4z" fill="rgb(121,41,32)"/>
<path d="M48 58h2v2h-2v-2z" fill="rgb(247,186,113)"/>
<path d="M50 58h2v2h-2v-2z" fill="rgb(220,143,79)"/>
<path d="M34 60h12v2h-12v-2z" fill="rgb(64,18,75)"/>
<path d="M68 62h2v2h-2v-2z" fill="rgb(64,18,75)"/>
<path d="M76 62h4v2h-2v2h-8v-2h6v-2z" fill="rgb(64,18,75)"/>
<path d="M78 64h2v2h-2v-2z" fill="rgb(255,255,255)"/>
</svg>