<?xml version="1.0" encoding="utf-8"?>
<!-- generated at drububu.com  -->
<!DOCTYPE svg PUBLIC "-//W3C//DTD SVG 1.1//EN" "http://www.w3.org/Graphics/SVG/1.1/DTD/svg11.dtd">
<svg version="1.1" preserveAspectRatio="xMinYMin meet" xmlns="http://www.w3.org/2000/svg" xmlns:xlink="http://www.w3.org/1999/xlink" x="0px" y="0px" width="194px" height="144px" viewBox="0 0 194 144">
<path d="M0 0h184v2h-18v2h-14v2h-10v2h-4v2h-6v2h-4v2h-4v2h-2v4h-2v4h-2v2h-2v2
	h-2v2h-2v2h-2v2h-2v-4h2v-6h2v-4h2v-2h2v-2h2v-2h2v-2h4v-2h4v-2h2v-4h-8v2h-4v2h-4
	v2h-4v2h-4v2h-4v2h-2v2h-2v2h-2v2h-2v4h-2v4h-2v4h-2v4h-4v-2h-2v-2h-2v-4h-2v-2h2
	v-2h2v-2h-8v2h-2v-2h-6v-2h-4v-2h-38v2h-4v2h2v2h2v2h6v6h2v10h2v6h-2v2h-2v2h-2v2
	h-4v2h-2v2h-2v4h2v8h-6v2h-4v2h-2v4h2v6h2v4h2v2h2v2h2v6h-2v2h-2v2h-2v2h-4v2h-4v2
	h-4v2h-2v-112z" fill="rgb(255,255,255)"/>
<path d="M184 0h8v2h-8v-2z" fill="rgb(3,66,35)"/>
<path d="M192 0h2v2h-2v-2z" fill="rgb(255,255,255)"/>
<path d="M166 2h18v2h-18v-2z" fill="rgb(3,66,35)"/>
<path d="M184 2h8v2h-8v-2z" fill="rgb(44,248,173)"/>
<path d="M192 2h2v4h-6v-2h4v-2z" fill="rgb(3,66,35)"/>
<path d="M122 4h8v4h-2v-2h-6v-2z" fill="rgb(3,66,35)"/>
<path d="M152 4h14v2h-14v-2z" fill="rgb(3,66,35)"/>
<path d="M166 4h8v2h-8v-2z" fill="rgb(26,225,145)"/>
<path d="M174 4h8v2h-8v-2z" fill="rgb(44,248,173)"/>
<path d="M182 4h2v2h-2v-2z" fill="rgb(16,201,120)"/>
<path d="M184 4h4v2h-4v-2z" fill="rgb(2,96,52)"/>
<path d="M118 6h4v2h-4v-2z" fill="rgb(3,66,35)"/>
<path d="M122 6h6v2h-4v2h-4v2h-2v2h-2v2h-2v2h-2v2h-2v4h-2v6h-2v6h-2v-4h-2v-4h2
	v-6h2v-4h2v-2h2v-2h2v-2h2v-2h4v-2h4v-2z" fill="rgb(44,248,173)"/>
<path d="M142 6h10v2h-10v-2z" fill="rgb(3,66,35)"/>
<path d="M152 6h4v2h-4v-2z" fill="rgb(44,248,173)"/>
<path d="M156 6h2v2h-2v-2z" fill="rgb(113,248,202)"/>
<path d="M158 6h4v2h-4v-2z" fill="rgb(44,248,173)"/>
<path d="M162 6h2v2h-2v-2z" fill="rgb(26,225,145)"/>
<path d="M164 6h4v2h-4v-2z" fill="rgb(16,201,120)"/>
<path d="M168 6h16v2h-16v-2z" fill="rgb(2,96,52)"/>
<path d="M184 6h4v2h-4v-2z" fill="rgb(11,82,164)"/>
<path d="M188 6h4v2h-4v-2z" fill="rgb(4,26,107)"/>
<path d="M192 6h2v138h-48v-2h-4v-2h-4v-2h-4v-2h-4v-2h-2v-2h-2v-2h-2v-4h-2v-2h-2
	v-2h-2v-4h2v-2h4v-2h-4v-2h-4v-2h-4v-2h-4v-4h4v-2h4v-2h2v-2h2v-2h2v-2h2v2h6v2h8
	v2h16v-2h2v-2h-2v-2h-6v-2h-6v-2h-4v-2h-2v-2h-2v-4h4v-2h6v4h2v2h2v2h2v2h4v2h4v2
	h4v2h4v2h4v2h10v-2h-2v-2h-2v-2h-2v-2h-2v-2h-2v-2h-2v-2h-2v-2h-2v-4h-2v-4h12v2
	h6v2h8v-2h-2v-2h-2v-2h-4v-2h-6v-2h-14v-2h-2v-6h-2v-6h2v-4h2v-4h2v-2h2v-2h2v-2
	h-10v2h-4v2h-2v2h-2v2h-2v2h-2v2h-2v2h-2v4h-2v-2h-2v-2h-2v-2h-2v-4h-2v-2h-2v-2h2
	v-2h2v-2h2v-2h4v-2h4v-2h6v-2h2v-2h4v-2h2v-2h2v-2h2v-2h2v-2h2v-2h2v-2h6v-2h4v-2
	h4v-2h4v-2h4v-2h4v-2z" fill="rgb(255,255,255)"/>
<path d="M114 8h4v2h-4v-2z" fill="rgb(3,66,35)"/>
<path d="M124 8h4v2h-4v-2z" fill="rgb(3,66,35)"/>
<path d="M138 8h4v2h-4v-2z" fill="rgb(3,66,35)"/>
<path d="M142 8h4v2h-2v2h-6v-2h4v-2z" fill="rgb(44,248,173)"/>
<path d="M146 8h2v2h-2v-2z" fill="rgb(113,248,202)"/>
<path d="M148 8h4v2h-4v-2z" fill="rgb(44,248,173)"/>
<path d="M152 8h4v2h-4v-2z" fill="rgb(26,225,145)"/>
<path d="M156 8h4v2h-4v-2z" fill="rgb(16,201,120)"/>
<path d="M160 8h8v2h-8v-2z" fill="rgb(2,96,52)"/>
<path d="M168 8h16v2h-4v2h-4v2h-4v-2h-4v2h4v2h-6v-2h-2v-2h-2v-2h6v-2z" fill="rgb(11,82,164)"/>
<path d="M184 8h4v2h-4v-2z" fill="rgb(4,26,107)"/>
<path d="M110 10h4v2h-4v-2z" fill="rgb(3,66,35)"/>
<path d="M120 10h4v2h-4v-2z" fill="rgb(3,66,35)"/>
<path d="M132 10h6v2h-6v-2z" fill="rgb(3,66,35)"/>
<path d="M144 10h4v2h-4v-2z" fill="rgb(26,225,145)"/>
<path d="M148 10h4v2h-4v-2z" fill="rgb(16,201,120)"/>
<path d="M152 10h8v2h-8v-2z" fill="rgb(2,96,52)"/>
<path d="M160 10h2v2h-2v-2z" fill="rgb(4,26,107)"/>
<path d="M180 10h4v2h-4v-2z" fill="rgb(4,26,107)"/>
<path d="M106 12h4v2h-4v-2z" fill="rgb(3,66,35)"/>
<path d="M110 12h2v2h-2v-2z" fill="rgb(26,225,145)"/>
<path d="M118 12h2v2h-2v-2z" fill="rgb(3,66,35)"/>
<path d="M128 12h4v2h-4v-2z" fill="rgb(3,66,35)"/>
<path d="M132 12h2v2h-2v-2z" fill="rgb(113,248,202)"/>
<path d="M134 12h4v2h-4v-2z" fill="rgb(44,248,173)"/>
<path d="M138 12h4v2h-4v-2z" fill="rgb(26,225,145)"/>
<path d="M142 12h2v2h-2v-2z" fill="rgb(16,201,120)"/>
<path d="M144 12h8v2h-8v-2z" fill="rgb(2,96,52)"/>
<path d="M152 12h6v2h2v2h2v2h2v2h-2v2h-2v2h-2v2h-2v2h-2v2h-4v-2h-2v-2h-4v-2h6v2
	h4v-2h2v-2h2v-2h2v-2h-4v2h-6v-2h-4v2h-4v2h-4v-2h-2v-2h4v-2h4v-2h8v-2z" fill="rgb(11,82,164)"/>
<path d="M158 12h2v2h-2v-2z" fill="rgb(4,26,107)"/>
<path d="M160 12h2v2h-2v-2z" fill="rgb(2,153,85)"/>
<path d="M162 12h2v2h-2v-2z" fill="rgb(4,26,107)"/>
<path d="M168 12h4v2h-4v-2z" fill="rgb(18,121,182)"/>
<path d="M176 12h4v2h-4v-2z" fill="rgb(4,26,107)"/>
<path d="M102 14h4v2h-4v-2z" fill="rgb(3,66,35)"/>
<path d="M106 14h4v2h-2v2h-2v4h-2v6h-2v4h-2v-2h-2v-4h2v-4h2v-4h2v-2h2v-2z" fill="rgb(26,225,145)"/>
<path d="M116 14h2v2h-2v-2z" fill="rgb(3,66,35)"/>
<path d="M124 14h4v2h-4v-2z" fill="rgb(3,66,35)"/>
<path d="M128 14h6v2h-4v2h-2v-4z" fill="rgb(44,248,173)"/>
<path d="M134 14h4v2h-4v-2z" fill="rgb(26,225,145)"/>
<path d="M138 14h2v2h-2v-2z" fill="rgb(16,201,120)"/>
<path d="M140 14h4v2h-4v-2z" fill="rgb(2,96,52)"/>
<path d="M160 14h2v2h-2v-2z" fill="rgb(4,26,107)"/>
<path d="M162 14h2v2h-2v-2z" fill="rgb(2,153,85)"/>
<path d="M164 14h2v2h-2v-2z" fill="rgb(4,26,107)"/>
<path d="M172 14h4v2h-4v-2z" fill="rgb(4,26,107)"/>
<path d="M100 16h2v2h-2v-2z" fill="rgb(3,66,35)"/>
<path d="M102 16h2v2h-2v-2z" fill="rgb(16,201,120)"/>
<path d="M114 16h2v2h-2v-2z" fill="rgb(3,66,35)"/>
<path d="M122 16h2v4h-2v-4z" fill="rgb(3,66,35)"/>
<path d="M124 16h2v2h2v2h-2v2h-2v4h-2v2h-2v-4h2v-4h2v-4z" fill="rgb(44,248,173)"/>
<path d="M126 16h2v2h-2v-2z" fill="rgb(113,248,202)"/>
<path d="M130 16h2v2h-2v-2z" fill="rgb(26,225,145)"/>
<path d="M132 16h4v2h-4v-2z" fill="rgb(16,201,120)"/>
<path d="M136 16h4v2h-4v-2z" fill="rgb(2,96,52)"/>
<path d="M162 16h2v2h-2v-2z" fill="rgb(4,26,107)"/>
<path d="M164 16h2v2h-2v-2z" fill="rgb(16,201,120)"/>
<path d="M166 16h6v2h-6v-2z" fill="rgb(4,26,107)"/>
<path d="M98 18h2v2h-2v-2z" fill="rgb(3,66,35)"/>
<path d="M100 18h2v4h-2v4h-2v4h2v2h2v2h-10v-4h2v-4h2v-4h2v-2h2v-2z" fill="rgb(16,201,120)"/>
<path d="M112 18h2v2h-2v-2z" fill="rgb(3,66,35)"/>
<path d="M128 18h2v2h-2v-2z" fill="rgb(26,225,145)"/>
<path d="M130 18h2v2h-2v-2z" fill="rgb(16,201,120)"/>
<path d="M132 18h4v2h-4v-2z" fill="rgb(2,96,52)"/>
<path d="M146 18h4v2h6v-2h4v2h-2v2h-2v2h-2v2h-4v-2h-6v-2h-2v-2h4v-2z" fill="rgb(18,121,182)"/>
<path d="M164 18h2v2h-2v-2z" fill="rgb(4,26,107)"/>
<path d="M24 20h38v2h-38v-2z" fill="rgb(3,66,35)"/>
<path d="M96 20h2v2h-2v-2z" fill="rgb(3,66,35)"/>
<path d="M110 20h2v4h-2v-4z" fill="rgb(3,66,35)"/>
<path d="M120 20h2v4h-2v-4z" fill="rgb(3,66,35)"/>
<path d="M126 20h2v2h-2v-2z" fill="rgb(26,225,145)"/>
<path d="M128 20h2v2h-2v-2z" fill="rgb(16,201,120)"/>
<path d="M130 20h2v2h-2v-2z" fill="rgb(2,96,52)"/>
<path d="M132 20h2v2h-2v-2z" fill="rgb(2,153,85)"/>
<path d="M134 20h4v2h-4v-2z" fill="rgb(4,26,107)"/>
<path d="M162 20h2v2h-2v-2z" fill="rgb(4,26,107)"/>
<path d="M20 22h4v2h2v2h-4v-2h-2v-2z" fill="rgb(3,66,35)"/>
<path d="M24 22h2v2h-2v-2z" fill="rgb(2,153,85)"/>
<path d="M26 22h4v2h-4v-2z" fill="rgb(16,201,120)"/>
<path d="M30 22h20v2h-20v-2z" fill="rgb(26,225,145)"/>
<path d="M50 22h8v2h-8v-2z" fill="rgb(44,248,173)"/>
<path d="M58 22h4v2h-4v-2z" fill="rgb(26,225,145)"/>
<path d="M62 22h4v2h-4v-2z" fill="rgb(3,66,35)"/>
<path d="M94 22h2v4h-2v-4z" fill="rgb(3,66,35)"/>
<path d="M124 22h2v2h-2v-2z" fill="rgb(26,225,145)"/>
<path d="M126 22h2v2h-2v-2z" fill="rgb(16,201,120)"/>
<path d="M128 22h2v2h-2v-2z" fill="rgb(2,96,52)"/>
<path d="M130 22h2v2h2v2h4v2h4v2h2v2h4v2h-6v2h-4v2h-4v2h-2v2h-2v2h-2v2h-2v-4h2
	v-6h-4v2h-2v2h-2v2h-2v2h-2v2h-2v4h-2v2h-2v4h-2v-6h2v-4h2v-4h2v-2h2v-2h2v-2h2v-2
	h2v-4h2v-2h2v-2h2v-2h2v-2z" fill="rgb(11,82,164)"/>
<path d="M132 22h2v2h-2v-2z" fill="rgb(4,26,107)"/>
<path d="M134 22h4v2h-4v-2z" fill="rgb(2,153,85)"/>
<path d="M138 22h4v2h-4v-2z" fill="rgb(4,26,107)"/>
<path d="M142 22h2v2h-2v-2z" fill="rgb(11,82,164)"/>
<path d="M160 22h2v2h-2v-2z" fill="rgb(4,26,107)"/>
<path d="M26 24h2v2h2v2h-6v-2h2v-2z" fill="rgb(4,26,107)"/>
<path d="M28 24h34v2h-34v-2z" fill="rgb(2,96,52)"/>
<path d="M62 24h4v2h-4v-2z" fill="rgb(26,225,145)"/>
<path d="M66 24h6v2h2v2h-4v-2h-4v-2z" fill="rgb(3,66,35)"/>
<path d="M74 24h8v2h-2v2h-2v-2h-4v-2z" fill="rgb(3,66,35)"/>
<path d="M108 24h2v6h-2v-6z" fill="rgb(3,66,35)"/>
<path d="M118 24h2v2h-2v-2z" fill="rgb(3,66,35)"/>
<path d="M124 24h2v2h-2v-2z" fill="rgb(16,201,120)"/>
<path d="M126 24h2v2h-2v-2z" fill="rgb(2,96,52)"/>
<path d="M134 24h4v2h-4v-2z" fill="rgb(4,26,107)"/>
<path d="M138 24h2v2h-2v-2z" fill="rgb(16,201,120)"/>
<path d="M140 24h2v2h-2v-2z" fill="rgb(2,153,85)"/>
<path d="M142 24h2v2h-2v-2z" fill="rgb(4,26,107)"/>
<path d="M158 24h2v2h-2v-2z" fill="rgb(4,26,107)"/>
<path d="M30 26h28v2h-2v4h-2v-4h-8v2h-4v-2h-12v-2z" fill="rgb(11,82,164)"/>
<path d="M58 26h2v2h-2v-2z" fill="rgb(4,26,107)"/>
<path d="M60 26h2v2h-2v-2z" fill="rgb(2,153,85)"/>
<path d="M62 26h4v2h-4v-2z" fill="rgb(2,96,52)"/>
<path d="M66 26h4v2h-4v-2z" fill="rgb(26,225,145)"/>
<path d="M74 26h4v2h-4v-2z" fill="rgb(113,248,202)"/>
<path d="M92 26h2v4h-2v-4z" fill="rgb(3,66,35)"/>
<path d="M116 26h2v2h-2v-2z" fill="rgb(3,66,35)"/>
<path d="M118 26h2v2h-2v-2z" fill="rgb(113,248,202)"/>
<path d="M122 26h2v2h-2v-2z" fill="rgb(16,201,120)"/>
<path d="M124 26h2v2h-2v-2z" fill="rgb(2,96,52)"/>
<path d="M138 26h4v2h-4v-2z" fill="rgb(4,26,107)"/>
<path d="M142 26h2v2h-2v-2z" fill="rgb(16,201,120)"/>
<path d="M144 26h4v2h-4v-2z" fill="rgb(4,26,107)"/>
<path d="M156 26h2v2h-2v-2z" fill="rgb(4,26,107)"/>
<path d="M30 28h6v2h-4v4h-2v-6z" fill="rgb(3,66,35)"/>
<path d="M36 28h6v2h-6v-2z" fill="rgb(4,26,107)"/>
<path d="M46 28h8v4h-4v-2h-4v-2z" fill="rgb(18,121,182)"/>
<path d="M56 28h2v4h-2v-4z" fill="rgb(4,26,107)"/>
<path d="M58 28h2v2h-2v-2z" fill="rgb(2,153,85)"/>
<path d="M60 28h2v4h-2v-4z" fill="rgb(4,26,107)"/>
<path d="M62 28h2v4h-2v-4z" fill="rgb(11,82,164)"/>
<path d="M64 28h2v4h-2v-4z" fill="rgb(4,26,107)"/>
<path d="M66 28h2v2h-2v-2z" fill="rgb(2,96,52)"/>
<path d="M68 28h2v2h-2v-2z" fill="rgb(3,66,35)"/>
<path d="M70 28h2v2h-2v-2z" fill="rgb(113,248,202)"/>
<path d="M72 28h2v2h-2v-2z" fill="rgb(44,248,173)"/>
<path d="M74 28h4v2h-4v-2z" fill="rgb(2,96,52)"/>
<path d="M114 28h2v2h-2v-2z" fill="rgb(3,66,35)"/>
<path d="M116 28h4v2h-4v-2z" fill="rgb(44,248,173)"/>
<path d="M120 28h2v2h-2v-2z" fill="rgb(16,201,120)"/>
<path d="M122 28h2v2h-2v-2z" fill="rgb(2,96,52)"/>
<path d="M142 28h2v2h-2v-2z" fill="rgb(4,26,107)"/>
<path d="M144 28h4v2h-4v-2z" fill="rgb(16,201,120)"/>
<path d="M148 28h2v2h-2v-2z" fill="rgb(4,26,107)"/>
<path d="M154 28h2v2h-2v-2z" fill="rgb(4,26,107)"/>
<path d="M32 30h2v2h-2v-2z" fill="rgb(16,201,120)"/>
<path d="M34 30h2v2h-2v-2z" fill="rgb(26,225,145)"/>
<path d="M36 30h4v2h-4v-2z" fill="rgb(3,66,35)"/>
<path d="M40 30h2v2h-2v-2z" fill="rgb(255,255,255)"/>
<path d="M42 30h4v2h-4v-2z" fill="rgb(4,26,107)"/>
<path d="M46 30h4v2h-4v-2z" fill="rgb(11,82,164)"/>
<path d="M58 30h2v2h-2v-2z" fill="rgb(16,201,120)"/>
<path d="M66 30h2v2h-2v-2z" fill="rgb(3,66,35)"/>
<path d="M68 30h2v2h-2v-2z" fill="rgb(113,248,202)"/>
<path d="M70 30h2v2h-2v-2z" fill="rgb(44,248,173)"/>
<path d="M72 30h2v2h-2v-2z" fill="rgb(2,96,52)"/>
<path d="M74 30h4v6h-2v2h-2v-2h-2v-4h2v-2z" fill="rgb(11,82,164)"/>
<path d="M78 30h2v4h2v2h-4v-6z" fill="rgb(3,66,35)"/>
<path d="M90 30h2v4h-2v-4z" fill="rgb(3,66,35)"/>
<path d="M106 30h2v4h2v2h-4v-6z" fill="rgb(3,66,35)"/>
<path d="M112 30h2v2h-2v-2z" fill="rgb(3,66,35)"/>
<path d="M114 30h2v4h-2v2h-2v2h-2v2h-2v4h-2v8h-2v6h-2v4h4v2h2v-2h-2v-2h-2v-2h4
	v2h2v2h4v2h4v2h-12v2h-6v-2h-2v-4h2v-2h-2v-2h-2v-4h4v-2h-4v-2h2v-2h2v-2h2v-4h2
	v-2h2v-2h2v-2h2v-2h2v-2h2v-2z" fill="rgb(44,248,173)"/>
<path d="M116 30h2v2h-2v-2z" fill="rgb(113,248,202)"/>
<path d="M118 30h2v2h-2v-2z" fill="rgb(26,225,145)"/>
<path d="M120 30h2v4h-2v-4z" fill="rgb(2,96,52)"/>
<path d="M144 30h4v2h-4v-2z" fill="rgb(4,26,107)"/>
<path d="M148 30h2v2h-2v-2z" fill="rgb(16,201,120)"/>
<path d="M150 30h4v2h-4v-2z" fill="rgb(4,26,107)"/>
<path d="M32 32h2v2h-2v-2z" fill="rgb(26,225,145)"/>
<path d="M34 32h2v2h-2v-2z" fill="rgb(44,248,173)"/>
<path d="M36 32h2v2h-2v-2z" fill="rgb(113,248,202)"/>
<path d="M38 32h2v2h-2v-2z" fill="rgb(44,248,173)"/>
<path d="M40 32h2v2h-2v-2z" fill="rgb(3,66,35)"/>
<path d="M42 32h4v2h4v2h6v2h2v4h-6v2h-2v-4h-2v-2h-2v-2h-2v-2h-2v-2z" fill="rgb(255,255,255)"/>
<path d="M46 32h4v2h-4v-2z" fill="rgb(4,26,107)"/>
<path d="M50 32h4v2h-4v-2z" fill="rgb(11,82,164)"/>
<path d="M54 32h2v4h-6v-2h4v-2z" fill="rgb(4,26,107)"/>
<path d="M56 32h2v2h-2v-2z" fill="rgb(2,153,85)"/>
<path d="M58 32h2v2h2v2h-2v4h-2v-2h-2v-2h2v-4z" fill="rgb(4,26,107)"/>
<path d="M60 32h2v2h-2v-2z" fill="rgb(11,82,164)"/>
<path d="M62 32h2v2h-2v-2z" fill="rgb(4,26,107)"/>
<path d="M64 32h2v2h-2v-2z" fill="rgb(3,66,35)"/>
<path d="M66 32h2v2h-2v-2z" fill="rgb(113,248,202)"/>
<path d="M68 32h2v2h-2v-2z" fill="rgb(44,248,173)"/>
<path d="M70 32h2v4h-2v-4z" fill="rgb(2,96,52)"/>
<path d="M102 32h2v2h-2v-2z" fill="rgb(26,225,145)"/>
<path d="M110 32h2v2h-2v-2z" fill="rgb(3,66,35)"/>
<path d="M116 32h2v2h-2v-2z" fill="rgb(26,225,145)"/>
<path d="M118 32h2v2h-2v-2z" fill="rgb(16,201,120)"/>
<path d="M148 32h2v2h-2v-2z" fill="rgb(4,26,107)"/>
<path d="M32 34h2v10h-2v-10z" fill="rgb(3,66,35)"/>
<path d="M34 34h2v4h-2v-4z" fill="rgb(26,225,145)"/>
<path d="M36 34h2v4h-2v-4z" fill="rgb(44,248,173)"/>
<path d="M38 34h2v2h2v2h2v2h2v2h-4v-2h-2v-2h-2v-4z" fill="rgb(113,248,202)"/>
<path d="M40 34h2v2h-2v-2z" fill="rgb(44,248,173)"/>
<path d="M42 34h2v2h-2v-2z" fill="rgb(3,66,35)"/>
<path d="M56 34h2v2h-2v-2z" fill="rgb(16,201,120)"/>
<path d="M62 34h2v2h-2v-2z" fill="rgb(3,66,35)"/>
<path d="M64 34h4v2h-2v2h-2v4h-2v-6h2v-2z" fill="rgb(44,248,173)"/>
<path d="M68 34h2v2h-2v-2z" fill="rgb(26,225,145)"/>
<path d="M88 34h2v4h-2v-4z" fill="rgb(3,66,35)"/>
<path d="M90 34h2v2h-2v-2z" fill="rgb(16,201,120)"/>
<path d="M92 34h4v2h-4v-2z" fill="rgb(2,96,52)"/>
<path d="M96 34h6v2h-6v-2z" fill="rgb(2,153,85)"/>
<path d="M102 34h2v2h-2v-2z" fill="rgb(16,201,120)"/>
<path d="M114 34h2v2h-2v-2z" fill="rgb(26,225,145)"/>
<path d="M116 34h2v2h-2v-2z" fill="rgb(16,201,120)"/>
<path d="M118 34h2v2h-2v-2z" fill="rgb(2,96,52)"/>
<path d="M142 34h6v2h-6v-2z" fill="rgb(4,26,107)"/>
<path d="M42 36h2v2h-2v-2z" fill="rgb(44,248,173)"/>
<path d="M44 36h2v2h-2v-2z" fill="rgb(3,66,35)"/>
<path d="M60 36h2v4h-2v-4z" fill="rgb(3,66,35)"/>
<path d="M66 36h2v2h-2v-2z" fill="rgb(26,225,145)"/>
<path d="M68 36h2v2h-2v-2z" fill="rgb(2,96,52)"/>
<path d="M70 36h2v2h-2v-2z" fill="rgb(11,82,164)"/>
<path d="M72 36h2v2h2v2h-2v2h-2v-2h-4v-2h4v-2z" fill="rgb(18,121,182)"/>
<path d="M76 36h2v4h4v2h-6v-6z" fill="rgb(3,66,35)"/>
<path d="M78 36h2v2h2v2h-4v-4z" fill="rgb(16,201,120)"/>
<path d="M80 36h2v2h-2v-2z" fill="rgb(44,248,173)"/>
<path d="M82 36h2v2h4v2h-6v-4z" fill="rgb(3,66,35)"/>
<path d="M90 36h2v2h-2v-2z" fill="rgb(2,96,52)"/>
<path d="M92 36h2v2h-2v-2z" fill="rgb(26,225,145)"/>
<path d="M94 36h8v2h-6v2h6v2h-2v2h-2v2h-4v2h-6v4h-2v2h-2v2h-4v4h-2v-2h-2v-2h-4
	v4h-2v-2h-2v-2h2v-2h2v-2h2v-2h-2v-2h2v-2h2v2h2v-4h-2v-2h4v2h4v-2h-2v-2h8v-2h4
	v-2z" fill="rgb(44,248,173)"/>
<path d="M102 36h4v2h-4v-2z" fill="rgb(2,153,85)"/>
<path d="M106 36h2v2h-2v-2z" fill="rgb(2,96,52)"/>
<path d="M112 36h2v4h-4v-2h2v-2z" fill="rgb(26,225,145)"/>
<path d="M114 36h2v2h-2v-2z" fill="rgb(16,201,120)"/>
<path d="M116 36h2v2h-2v-2z" fill="rgb(2,96,52)"/>
<path d="M124 36h4v6h-2v-2h-2v2h-2v2h-2v2h-2v2h-2v4h-2v6h4v-2h2v-4h2v-4h2v-6h2
	v8h-2v4h-2v10h-2v-2h-4v-2h-4v-2h-4v-2h2v-4h2v-2h2v-4h2v-2h2v-2h2v-2h2v-2h2v-2z" fill="rgb(18,121,182)"/>
<path d="M138 36h4v2h-4v-2z" fill="rgb(4,26,107)"/>
<path d="M34 38h2v4h2v4h4v2h-6v-4h-2v-6z" fill="rgb(16,201,120)"/>
<path d="M36 38h2v4h-2v-4z" fill="rgb(26,225,145)"/>
<path d="M38 38h2v2h2v2h4v-2h2v4h-2v2h-4v-2h-2v-2h-2v-4z" fill="rgb(44,248,173)"/>
<path d="M44 38h2v2h-2v-2z" fill="rgb(44,248,173)"/>
<path d="M46 38h2v2h-2v-2z" fill="rgb(3,66,35)"/>
<path d="M64 38h2v2h-2v-2z" fill="rgb(26,225,145)"/>
<path d="M66 38h2v2h-2v-2z" fill="rgb(2,96,52)"/>
<path d="M88 38h2v2h-2v-2z" fill="rgb(26,225,145)"/>
<path d="M96 38h6v2h-6v-2z" fill="rgb(113,248,202)"/>
<path d="M102 38h2v2h-2v-2z" fill="rgb(44,248,173)"/>
<path d="M104 38h2v2h-2v-2z" fill="rgb(2,96,52)"/>
<path d="M114 38h2v2h-2v-2z" fill="rgb(2,96,52)"/>
<path d="M134 38h4v2h-4v-2z" fill="rgb(4,26,107)"/>
<path d="M48 40h2v4h-2v-4z" fill="rgb(3,66,35)"/>
<path d="M58 40h2v2h-2v-2z" fill="rgb(3,66,35)"/>
<path d="M60 40h2v2h2v4h2v2h-4v-2h-2v-6z" fill="rgb(26,225,145)"/>
<path d="M64 40h2v2h-2v-2z" fill="rgb(2,96,52)"/>
<path d="M66 40h2v4h-2v-4z" fill="rgb(18,121,182)"/>
<path d="M68 40h4v2h2v2h-2v2h-4v-6z" fill="rgb(25,153,179)"/>
<path d="M74 40h2v2h-2v-2z" fill="rgb(2,96,52)"/>
<path d="M90 40h4v2h-4v-2z" fill="rgb(113,248,202)"/>
<path d="M102 40h2v2h-2v-2z" fill="rgb(2,96,52)"/>
<path d="M108 40h2v2h-2v-2z" fill="rgb(26,225,145)"/>
<path d="M110 40h2v2h-2v-2z" fill="rgb(16,201,120)"/>
<path d="M112 40h2v2h-2v-2z" fill="rgb(2,96,52)"/>
<path d="M124 40h2v2h-2v-2z" fill="rgb(25,153,179)"/>
<path d="M132 40h2v2h-2v-2z" fill="rgb(4,26,107)"/>
<path d="M38 42h2v2h2v2h-4v-4z" fill="rgb(26,225,145)"/>
<path d="M52 42h6v2h-6v-2z" fill="rgb(3,66,35)"/>
<path d="M58 42h2v4h2v2h-2v2h-4v-4h2v-4z" fill="rgb(16,201,120)"/>
<path d="M64 42h2v2h-2v-2z" fill="rgb(2,153,85)"/>
<path d="M74 42h2v2h-2v-2z" fill="rgb(2,153,85)"/>
<path d="M80 42h4v2h-4v-2z" fill="rgb(113,248,202)"/>
<path d="M100 42h2v4h-2v-4z" fill="rgb(2,96,52)"/>
<path d="M108 42h2v4h-2v-4z" fill="rgb(16,201,120)"/>
<path d="M110 42h2v4h-2v-4z" fill="rgb(2,96,52)"/>
<path d="M122 42h2v6h-2v4h-2v4h-2v2h-4v-6h2v-4h2v-2h2v-2h2v-2z" fill="rgb(25,153,179)"/>
<path d="M130 42h2v2h-2v-2z" fill="rgb(4,26,107)"/>
<path d="M156 42h10v2h-10v-2z" fill="rgb(3,66,35)"/>
<path d="M34 44h2v6h-2v-6z" fill="rgb(3,66,35)"/>
<path d="M46 44h2v2h-2v-2z" fill="rgb(16,201,120)"/>
<path d="M48 44h2v2h-2v-2z" fill="rgb(2,153,85)"/>
<path d="M50 44h2v2h-2v-2z" fill="rgb(3,66,35)"/>
<path d="M52 44h2v2h-2v-2z" fill="rgb(44,248,173)"/>
<path d="M54 44h2v2h-2v-2z" fill="rgb(2,153,85)"/>
<path d="M56 44h2v2h-2v-2z" fill="rgb(2,96,52)"/>
<path d="M64 44h2v2h-2v-2z" fill="rgb(16,201,120)"/>
<path d="M66 44h2v2h-2v-2z" fill="rgb(2,153,85)"/>
<path d="M72 44h4v2h-2v2h-4v-2h2v-2z" fill="rgb(32,185,177)"/>
<path d="M76 44h2v2h-2v-2z" fill="rgb(2,153,85)"/>
<path d="M98 44h2v2h-2v-2z" fill="rgb(16,201,120)"/>
<path d="M106 44h2v4h-2v-4z" fill="rgb(26,225,145)"/>
<path d="M128 44h2v2h-2v-2z" fill="rgb(4,26,107)"/>
<path d="M152 44h4v2h-4v-2z" fill="rgb(3,66,35)"/>
<path d="M156 44h6v2h-2v2h-2v4h-2v2h-2v2h-2v2h-2v2h-2v2h-2v-6h2v-2h2v-2h2v-2h2
	v-2h2v-4z" fill="rgb(11,82,164)"/>
<path d="M162 44h2v2h-2v-2z" fill="rgb(4,26,107)"/>
<path d="M42 46h6v2h-6v-2z" fill="rgb(2,153,85)"/>
<path d="M48 46h2v2h-2v-2z" fill="rgb(16,201,120)"/>
<path d="M50 46h2v2h-2v-2z" fill="rgb(44,248,173)"/>
<path d="M52 46h2v4h-2v-4z" fill="rgb(16,201,120)"/>
<path d="M54 46h2v4h-2v-4z" fill="rgb(2,96,52)"/>
<path d="M66 46h2v2h-2v-2z" fill="rgb(16,201,120)"/>
<path d="M68 46h2v2h-2v-2z" fill="rgb(2,153,85)"/>
<path d="M76 46h2v2h-2v-2z" fill="rgb(16,201,120)"/>
<path d="M82 46h4v2h-4v-2z" fill="rgb(113,248,202)"/>
<path d="M94 46h4v2h-4v-2z" fill="rgb(16,201,120)"/>
<path d="M98 46h2v2h-2v-2z" fill="rgb(2,96,52)"/>
<path d="M108 46h2v4h-2v-4z" fill="rgb(2,96,52)"/>
<path d="M126 46h2v4h-2v-4z" fill="rgb(4,26,107)"/>
<path d="M150 46h2v2h-2v-2z" fill="rgb(3,66,35)"/>
<path d="M152 46h2v2h-2v-2z" fill="rgb(26,225,145)"/>
<path d="M154 46h2v2h-2v-2z" fill="rgb(2,96,52)"/>
<path d="M160 46h2v2h-2v-2z" fill="rgb(4,26,107)"/>
<path d="M36 48h2v2h-2v-2z" fill="rgb(2,96,52)"/>
<path d="M38 48h4v2h-4v-2z" fill="rgb(2,153,85)"/>
<path d="M42 48h2v2h-2v-2z" fill="rgb(16,201,120)"/>
<path d="M44 48h4v2h-4v-2z" fill="rgb(44,248,173)"/>
<path d="M48 48h4v2h-4v-2z" fill="rgb(113,248,202)"/>
<path d="M60 48h2v2h-2v-2z" fill="rgb(26,225,145)"/>
<path d="M62 48h4v2h4v4h-2v2h-4v4h2v2h2v2h2v4h2v4h2v4h2v2h-4v-2h-2v-2h-4v-2h-4
	v-2h-2v-2h-6v-2h-2v2h2v2h-6v-2h2v-2h-2v-2h2v-2h6v-2h2v-4h-2v-2h-2v-2h4v-2h4v-2z" fill="rgb(44,248,173)"/>
<path d="M66 48h2v2h-2v-2z" fill="rgb(26,225,145)"/>
<path d="M68 48h2v2h-2v-2z" fill="rgb(16,201,120)"/>
<path d="M70 48h2v2h-2v-2z" fill="rgb(2,153,85)"/>
<path d="M88 48h4v2h-4v-2z" fill="rgb(113,248,202)"/>
<path d="M92 48h2v2h-2v-2z" fill="rgb(16,201,120)"/>
<path d="M94 48h4v2h-4v-2z" fill="rgb(2,96,52)"/>
<path d="M106 48h2v2h-2v-2z" fill="rgb(16,201,120)"/>
<path d="M128 48h2v2h-2v-2z" fill="rgb(3,66,35)"/>
<path d="M148 48h2v2h-2v-2z" fill="rgb(3,66,35)"/>
<path d="M150 48h2v2h-2v-2z" fill="rgb(26,225,145)"/>
<path d="M152 48h2v2h-2v-2z" fill="rgb(2,96,52)"/>
<path d="M158 48h2v4h-2v-4z" fill="rgb(4,26,107)"/>
<path d="M32 50h2v2h-2v-2z" fill="rgb(3,66,35)"/>
<path d="M34 50h2v2h-2v-2z" fill="rgb(2,96,52)"/>
<path d="M36 50h2v2h-2v-2z" fill="rgb(16,201,120)"/>
<path d="M38 50h2v2h-2v-2z" fill="rgb(113,248,202)"/>
<path d="M40 50h4v2h-4v-2z" fill="rgb(44,248,173)"/>
<path d="M44 50h4v2h-4v-2z" fill="rgb(113,248,202)"/>
<path d="M48 50h6v2h-6v-2z" fill="rgb(44,248,173)"/>
<path d="M54 50h4v2h-4v-2z" fill="rgb(26,225,145)"/>
<path d="M62 50h2v2h-2v-2z" fill="rgb(113,248,202)"/>
<path d="M70 50h2v2h-2v-2z" fill="rgb(26,225,145)"/>
<path d="M72 50h2v2h-2v-2z" fill="rgb(16,201,120)"/>
<path d="M80 50h2v2h-2v-2z" fill="rgb(113,248,202)"/>
<path d="M88 50h2v2h-2v-2z" fill="rgb(16,201,120)"/>
<path d="M90 50h2v2h-2v-2z" fill="rgb(2,153,85)"/>
<path d="M92 50h2v2h-2v-2z" fill="rgb(2,96,52)"/>
<path d="M94 50h2v2h-2v-2z" fill="rgb(16,201,120)"/>
<path d="M106 50h2v6h-2v-6z" fill="rgb(2,96,52)"/>
<path d="M124 50h2v4h-2v-4z" fill="rgb(4,26,107)"/>
<path d="M126 50h4v4h-4v-4z" fill="rgb(44,248,173)"/>
<path d="M130 50h2v4h-2v-4z" fill="rgb(3,66,35)"/>
<path d="M146 50h2v2h-2v-2z" fill="rgb(3,66,35)"/>
<path d="M148 50h2v2h-2v-2z" fill="rgb(26,225,145)"/>
<path d="M150 50h2v2h-2v-2z" fill="rgb(2,96,52)"/>
<path d="M30 52h2v2h-2v-2z" fill="rgb(3,66,35)"/>
<path d="M32 52h2v2h-2v-2z" fill="rgb(44,248,173)"/>
<path d="M34 52h4v2h-4v-2z" fill="rgb(113,248,202)"/>
<path d="M38 52h2v2h-2v-2z" fill="rgb(44,248,173)"/>
<path d="M40 52h14v2h-14v-2z" fill="rgb(26,225,145)"/>
<path d="M64 52h2v2h-2v-2z" fill="rgb(113,248,202)"/>
<path d="M70 52h2v2h-2v-2z" fill="rgb(2,153,85)"/>
<path d="M76 52h4v2h-4v-2z" fill="rgb(113,248,202)"/>
<path d="M86 52h2v2h-2v-2z" fill="rgb(16,201,120)"/>
<path d="M88 52h2v4h-4v-2h2v-2z" fill="rgb(2,153,85)"/>
<path d="M90 52h2v4h-2v-4z" fill="rgb(2,96,52)"/>
<path d="M92 52h2v2h-2v-2z" fill="rgb(16,201,120)"/>
<path d="M94 52h2v2h-2v-2z" fill="rgb(44,248,173)"/>
<path d="M96 52h4v2h-4v-2z" fill="rgb(113,248,202)"/>
<path d="M104 52h2v2h-2v-2z" fill="rgb(26,225,145)"/>
<path d="M144 52h2v2h-2v-2z" fill="rgb(3,66,35)"/>
<path d="M146 52h2v2h-2v-2z" fill="rgb(44,248,173)"/>
<path d="M148 52h2v2h-2v-2z" fill="rgb(2,96,52)"/>
<path d="M156 52h2v4h-2v-4z" fill="rgb(4,26,107)"/>
<path d="M28 54h2v2h-2v-2z" fill="rgb(3,66,35)"/>
<path d="M30 54h2v2h-2v-2z" fill="rgb(44,248,173)"/>
<path d="M32 54h2v2h-2v-2z" fill="rgb(113,248,202)"/>
<path d="M34 54h4v2h-2v4h-2v-6z" fill="rgb(44,248,173)"/>
<path d="M38 54h2v4h2v2h-4v-2h-2v-2h2v-2z" fill="rgb(26,225,145)"/>
<path d="M40 54h4v2h-2v2h-2v-4z" fill="rgb(44,248,173)"/>
<path d="M44 54h4v2h-4v-2z" fill="rgb(113,248,202)"/>
<path d="M48 54h2v2h-2v-2z" fill="rgb(44,248,173)"/>
<path d="M50 54h2v2h-2v-2z" fill="rgb(113,248,202)"/>
<path d="M52 54h2v4h-4v-2h2v-2z" fill="rgb(44,248,173)"/>
<path d="M54 54h2v2h2v2h-2v2h-6v-2h4v-4z" fill="rgb(26,225,145)"/>
<path d="M68 54h2v2h-2v-2z" fill="rgb(113,248,202)"/>
<path d="M84 54h2v2h-2v-2z" fill="rgb(16,201,120)"/>
<path d="M92 54h2v2h-2v-2z" fill="rgb(2,153,85)"/>
<path d="M94 54h2v2h-2v-2z" fill="rgb(113,248,202)"/>
<path d="M104 54h2v2h-2v-2z" fill="rgb(16,201,120)"/>
<path d="M122 54h2v10h-2v-10z" fill="rgb(4,26,107)"/>
<path d="M124 54h2v2h4v-2h2v4h4v2h2v2h2v2h2v-2h2v4h2v4h2v2h14v2h-12v2h-2v8h-2
	v-6h-4v-2h-4v-2h-4v-2h-4v-2h-4v-8h-2v-2h6v-2h-6v-4z" fill="rgb(44,248,173)"/>
<path d="M126 54h4v2h-4v-2z" fill="rgb(113,248,202)"/>
<path d="M132 54h2v2h-2v-2z" fill="rgb(3,66,35)"/>
<path d="M142 54h2v2h-2v-2z" fill="rgb(3,66,35)"/>
<path d="M144 54h2v2h-2v-2z" fill="rgb(44,248,173)"/>
<path d="M146 54h2v2h-2v-2z" fill="rgb(2,96,52)"/>
<path d="M154 54h2v2h-2v-2z" fill="rgb(18,121,182)"/>
<path d="M24 56h4v2h-4v-2z" fill="rgb(3,66,35)"/>
<path d="M28 56h6v4h-2v-2h-4v-2z" fill="rgb(26,225,145)"/>
<path d="M42 56h8v2h-8v-2z" fill="rgb(26,225,145)"/>
<path d="M64 56h2v4h-2v-4z" fill="rgb(26,225,145)"/>
<path d="M66 56h2v2h-2v-2z" fill="rgb(2,153,85)"/>
<path d="M72 56h2v4h-2v-4z" fill="rgb(26,225,145)"/>
<path d="M74 56h2v2h-2v-2z" fill="rgb(2,153,85)"/>
<path d="M80 56h2v4h-2v-4z" fill="rgb(26,225,145)"/>
<path d="M82 56h2v2h-2v-2z" fill="rgb(2,153,85)"/>
<path d="M84 56h2v2h-2v-2z" fill="rgb(44,248,173)"/>
<path d="M86 56h2v2h-2v-2z" fill="rgb(26,225,145)"/>
<path d="M88 56h2v2h-2v-2z" fill="rgb(16,201,120)"/>
<path d="M90 56h2v2h-2v-2z" fill="rgb(2,153,85)"/>
<path d="M92 56h2v2h-2v-2z" fill="rgb(2,96,52)"/>
<path d="M94 56h2v2h-2v-2z" fill="rgb(2,153,85)"/>
<path d="M104 56h2v2h-2v-2z" fill="rgb(2,96,52)"/>
<path d="M106 56h2v2h-2v-2z" fill="rgb(25,153,179)"/>
<path d="M132 56h2v2h-2v-2z" fill="rgb(26,225,145)"/>
<path d="M134 56h2v2h-2v-2z" fill="rgb(3,66,35)"/>
<path d="M140 56h2v6h-4v-2h2v-4z" fill="rgb(3,66,35)"/>
<path d="M142 56h2v2h-2v-2z" fill="rgb(26,225,145)"/>
<path d="M144 56h2v6h-2v-6z" fill="rgb(2,96,52)"/>
<path d="M152 56h2v10h2v4h-2v-2h-2v-2h-2v-4h-2v-2h2v-2h2v-2z" fill="rgb(18,121,182)"/>
<path d="M154 56h2v6h-2v-6z" fill="rgb(4,26,107)"/>
<path d="M22 58h2v2h-2v-2z" fill="rgb(3,66,35)"/>
<path d="M24 58h4v2h4v2h-8v-4z" fill="rgb(26,225,145)"/>
<path d="M28 58h2v2h-2v-2z" fill="rgb(113,248,202)"/>
<path d="M30 58h2v2h-2v-2z" fill="rgb(44,248,173)"/>
<path d="M36 58h2v2h-2v-2z" fill="rgb(2,153,85)"/>
<path d="M42 58h8v2h-8v-2z" fill="rgb(2,96,52)"/>
<path d="M56 58h2v2h-2v-2z" fill="rgb(2,153,85)"/>
<path d="M66 58h2v2h-2v-2z" fill="rgb(2,96,52)"/>
<path d="M68 58h2v2h-2v-2z" fill="rgb(2,153,85)"/>
<path d="M74 58h2v2h-2v-2z" fill="rgb(2,96,52)"/>
<path d="M76 58h2v2h-2v-2z" fill="rgb(2,153,85)"/>
<path d="M82 58h2v2h-2v-2z" fill="rgb(2,96,52)"/>
<path d="M84 58h2v2h-2v-2z" fill="rgb(2,153,85)"/>
<path d="M86 58h2v2h-2v-2z" fill="rgb(44,248,173)"/>
<path d="M88 58h2v2h-2v-2z" fill="rgb(26,225,145)"/>
<path d="M90 58h2v2h-2v-2z" fill="rgb(16,201,120)"/>
<path d="M92 58h2v2h-2v-2z" fill="rgb(2,153,85)"/>
<path d="M94 58h2v2h-2v-2z" fill="rgb(2,96,52)"/>
<path d="M96 58h2v2h-2v-2z" fill="rgb(16,201,120)"/>
<path d="M102 58h2v2h2v2h-4v-4z" fill="rgb(113,248,202)"/>
<path d="M108 58h2v2h-2v-2z" fill="rgb(32,185,177)"/>
<path d="M110 58h2v2h-2v-2z" fill="rgb(25,153,179)"/>
<path d="M124 58h6v2h-6v-2z" fill="rgb(26,225,145)"/>
<path d="M136 58h2v2h-2v-2z" fill="rgb(3,66,35)"/>
<path d="M142 58h2v2h-2v-2z" fill="rgb(44,248,173)"/>
<path d="M20 60h2v4h-2v-4z" fill="rgb(3,66,35)"/>
<path d="M22 60h2v2h-2v-2z" fill="rgb(16,201,120)"/>
<path d="M32 60h2v2h-2v-2z" fill="rgb(2,153,85)"/>
<path d="M34 60h2v2h-2v-2z" fill="rgb(26,225,145)"/>
<path d="M36 60h2v2h-2v-2z" fill="rgb(16,201,120)"/>
<path d="M38 60h4v2h-2v4h-2v-6z" fill="rgb(2,96,52)"/>
<path d="M42 60h8v4h-2v2h-4v-4h-2v-2z" fill="rgb(27,36,45)"/>
<path d="M50 60h4v2h-4v-2z" fill="rgb(2,96,52)"/>
<path d="M54 60h2v2h-2v-2z" fill="rgb(16,201,120)"/>
<path d="M66 60h2v2h-2v-2z" fill="rgb(26,225,145)"/>
<path d="M68 60h2v2h-2v-2z" fill="rgb(2,96,52)"/>
<path d="M70 60h2v2h-2v-2z" fill="rgb(2,153,85)"/>
<path d="M72 60h2v2h-2v-2z" fill="rgb(44,248,173)"/>
<path d="M74 60h2v2h-2v-2z" fill="rgb(26,225,145)"/>
<path d="M76 60h2v2h-2v-2z" fill="rgb(2,96,52)"/>
<path d="M78 60h2v2h-2v-2z" fill="rgb(2,153,85)"/>
<path d="M80 60h2v2h-2v-2z" fill="rgb(44,248,173)"/>
<path d="M82 60h2v2h-2v-2z" fill="rgb(26,225,145)"/>
<path d="M84 60h2v2h-2v-2z" fill="rgb(2,96,52)"/>
<path d="M86 60h2v2h-2v-2z" fill="rgb(2,153,85)"/>
<path d="M88 60h2v2h-2v-2z" fill="rgb(44,248,173)"/>
<path d="M90 60h4v2h2v2h2v2h2v2h6v-2h14v2h6v2h4v2h4v2h4v2h4v2h-4v2h-2v-2h-4v-4
	h-2v2h-2v-2h-8v2h-4v2h-4v2h-4v2h-4v2h-2v2h-2v2h-2v2h-2v2h2v2h-4v-2h-2v2h2v2h-4
	v-2h-2v2h2v2h-8v2h2v2h4v2h-4v2h-6v-4h-2v-4h-2v-4h2v-2h-8v-2h-2v-2h6v2h6v-2h2v-2
	h-2v-2h-2v-2h-2v-2h-2v-2h4v-2h4v-2h2v-2h2v4h4v-2h2v-2h2v4h4v-2h2v-2h-2v-4h-2
	v-4h-2v-2h-2v-2z" fill="rgb(26,225,145)"/>
<path d="M94 60h2v2h-2v-2z" fill="rgb(16,201,120)"/>
<path d="M96 60h2v2h-2v-2z" fill="rgb(2,153,85)"/>
<path d="M98 60h2v2h-2v-2z" fill="rgb(16,201,120)"/>
<path d="M110 60h4v2h-4v-2z" fill="rgb(32,185,177)"/>
<path d="M114 60h2v2h-2v-2z" fill="rgb(25,153,179)"/>
<path d="M142 60h2v2h-2v-2z" fill="rgb(26,225,145)"/>
<path d="M22 62h2v2h-2v-2z" fill="rgb(2,153,85)"/>
<path d="M24 62h8v2h-8v-2z" fill="rgb(2,96,52)"/>
<path d="M32 62h2v2h-2v-2z" fill="rgb(16,201,120)"/>
<path d="M34 62h4v4h-2v-2h-2v-2z" fill="rgb(44,248,173)"/>
<path d="M40 62h4v4h-2v-2h-2v-2z" fill="rgb(79,79,79)"/>
<path d="M68 62h2v2h-2v-2z" fill="rgb(26,225,145)"/>
<path d="M70 62h2v2h-2v-2z" fill="rgb(2,96,52)"/>
<path d="M72 62h2v2h-2v-2z" fill="rgb(2,153,85)"/>
<path d="M74 62h2v2h-2v-2z" fill="rgb(44,248,173)"/>
<path d="M76 62h2v2h-2v-2z" fill="rgb(26,225,145)"/>
<path d="M78 62h2v2h-2v-2z" fill="rgb(2,96,52)"/>
<path d="M80 62h2v2h-2v-2z" fill="rgb(2,153,85)"/>
<path d="M82 62h2v2h-2v-2z" fill="rgb(44,248,173)"/>
<path d="M84 62h2v2h-2v-2z" fill="rgb(26,225,145)"/>
<path d="M86 62h2v2h-2v-2z" fill="rgb(2,96,52)"/>
<path d="M88 62h2v2h-2v-2z" fill="rgb(2,153,85)"/>
<path d="M90 62h2v2h-2v-2z" fill="rgb(44,248,173)"/>
<path d="M96 62h2v2h-2v-2z" fill="rgb(16,201,120)"/>
<path d="M106 62h2v2h-2v-2z" fill="rgb(113,248,202)"/>
<path d="M114 62h4v2h-4v-2z" fill="rgb(32,185,177)"/>
<path d="M118 62h2v2h-2v-2z" fill="rgb(25,153,179)"/>
<path d="M124 62h2v2h-2v-2z" fill="rgb(113,248,202)"/>
<path d="M140 62h2v2h-2v-2z" fill="rgb(26,225,145)"/>
<path d="M144 62h2v4h-2v-4z" fill="rgb(2,153,85)"/>
<path d="M146 62h4v4h-2v-2h-2v-2z" fill="rgb(25,153,179)"/>
<path d="M154 62h2v4h-2v-4z" fill="rgb(11,82,164)"/>
<path d="M156 62h2v6h-2v-6z" fill="rgb(4,26,107)"/>
<path d="M22 64h2v4h2v2h-2v2h-2v-8z" fill="rgb(3,66,35)"/>
<path d="M24 64h2v2h-2v-2z" fill="rgb(79,79,79)"/>
<path d="M26 64h2v2h-2v-2z" fill="rgb(27,36,45)"/>
<path d="M28 64h2v2h-2v-2z" fill="rgb(2,153,85)"/>
<path d="M30 64h2v2h-2v-2z" fill="rgb(26,225,145)"/>
<path d="M32 64h2v2h2v2h-4v2h-2v2h-4v-2h2v-2h2v-2h2v-2z" fill="rgb(44,248,173)"/>
<path d="M34 64h2v2h-2v-2z" fill="rgb(113,248,202)"/>
<path d="M40 64h2v2h-2v-2z" fill="rgb(248,248,248)"/>
<path d="M54 64h4v2h-4v-2z" fill="rgb(113,248,202)"/>
<path d="M70 64h2v4h-2v-4z" fill="rgb(26,225,145)"/>
<path d="M72 64h2v4h-2v-4z" fill="rgb(2,96,52)"/>
<path d="M74 64h2v4h-2v-4z" fill="rgb(2,153,85)"/>
<path d="M76 64h2v4h-2v-4z" fill="rgb(44,248,173)"/>
<path d="M78 64h2v4h-2v-4z" fill="rgb(26,225,145)"/>
<path d="M80 64h2v4h-2v-4z" fill="rgb(2,96,52)"/>
<path d="M82 64h2v4h-2v-4z" fill="rgb(2,153,85)"/>
<path d="M84 64h2v4h-2v-4z" fill="rgb(44,248,173)"/>
<path d="M86 64h2v4h-2v-4z" fill="rgb(26,225,145)"/>
<path d="M88 64h2v4h-2v-4z" fill="rgb(2,96,52)"/>
<path d="M90 64h2v4h-2v-4z" fill="rgb(2,153,85)"/>
<path d="M92 64h2v4h-2v-4z" fill="rgb(44,248,173)"/>
<path d="M118 64h4v2h-4v-2z" fill="rgb(32,185,177)"/>
<path d="M122 64h2v2h-2v-2z" fill="rgb(18,121,182)"/>
<path d="M124 64h2v4h-2v-4z" fill="rgb(4,26,107)"/>
<path d="M132 64h4v2h-4v-2z" fill="rgb(113,248,202)"/>
<path d="M146 64h2v2h-2v-2z" fill="rgb(32,185,177)"/>
<path d="M24 66h2v2h-2v-2z" fill="rgb(248,248,248)"/>
<path d="M26 66h2v2h-2v-2z" fill="rgb(3,66,35)"/>
<path d="M28 66h2v2h-2v-2z" fill="rgb(26,225,145)"/>
<path d="M36 66h4v2h-2v2h-4v2h-2v2h4v2h-8v-2h-2v-2h4v-2h2v-2h4v-2z" fill="rgb(26,225,145)"/>
<path d="M40 66h2v2h-2v-2z" fill="rgb(2,96,52)"/>
<path d="M42 66h2v2h-2v-2z" fill="rgb(2,153,85)"/>
<path d="M44 66h4v2h-4v-2z" fill="rgb(44,248,173)"/>
<path d="M48 66h2v2h-2v-2z" fill="rgb(113,248,202)"/>
<path d="M52 66h2v2h-2v-2z" fill="rgb(113,248,202)"/>
<path d="M120 66h2v2h-2v-2z" fill="rgb(44,248,173)"/>
<path d="M122 66h2v2h-2v-2z" fill="rgb(32,185,177)"/>
<path d="M140 66h2v2h-2v-2z" fill="rgb(113,248,202)"/>
<path d="M146 66h2v2h-2v-2z" fill="rgb(16,201,120)"/>
<path d="M148 66h2v2h-2v-2z" fill="rgb(32,185,177)"/>
<path d="M150 66h2v2h-2v-2z" fill="rgb(25,153,179)"/>
<path d="M26 68h2v2h-2v-2z" fill="rgb(26,225,145)"/>
<path d="M38 68h2v2h-2v-2z" fill="rgb(16,201,120)"/>
<path d="M40 68h2v2h-2v-2z" fill="rgb(44,248,173)"/>
<path d="M42 68h2v2h-2v-2z" fill="rgb(113,248,202)"/>
<path d="M44 68h2v2h-2v-2z" fill="rgb(2,153,85)"/>
<path d="M46 68h2v2h-2v-2z" fill="rgb(16,201,120)"/>
<path d="M54 68h6v2h2v2h4v2h4v2h-6v-2h-6v2h-2v2h-10v2h-2v2h-2v2h-4v2h-2v-10h2
	v-2h4v-2h4v-2h2v2h2v-2h4v-2z" fill="rgb(26,225,145)"/>
<path d="M72 68h2v4h-2v-4z" fill="rgb(26,225,145)"/>
<path d="M74 68h2v4h-2v-4z" fill="rgb(2,96,52)"/>
<path d="M76 68h2v4h-2v-4z" fill="rgb(2,153,85)"/>
<path d="M78 68h2v4h-2v-4z" fill="rgb(44,248,173)"/>
<path d="M80 68h2v4h-2v-4z" fill="rgb(26,225,145)"/>
<path d="M82 68h2v4h-2v-4z" fill="rgb(2,96,52)"/>
<path d="M84 68h2v4h-2v-4z" fill="rgb(2,153,85)"/>
<path d="M86 68h2v4h-2v-4z" fill="rgb(44,248,173)"/>
<path d="M88 68h2v4h-2v-4z" fill="rgb(26,225,145)"/>
<path d="M90 68h2v4h-2v-4z" fill="rgb(2,96,52)"/>
<path d="M92 68h2v4h-2v-4z" fill="rgb(2,153,85)"/>
<path d="M94 68h2v4h-2v-4z" fill="rgb(44,248,173)"/>
<path d="M146 68h2v2h-2v-2z" fill="rgb(26,225,145)"/>
<path d="M148 68h2v2h-2v-2z" fill="rgb(16,201,120)"/>
<path d="M150 68h2v2h-2v-2z" fill="rgb(32,185,177)"/>
<path d="M152 68h2v2h-2v-2z" fill="rgb(25,153,179)"/>
<path d="M156 68h2v2h-2v-2z" fill="rgb(11,82,164)"/>
<path d="M158 68h2v2h-2v-2z" fill="rgb(4,26,107)"/>
<path d="M24 70h2v2h-2v-2z" fill="rgb(113,248,202)"/>
<path d="M34 70h2v2h-2v-2z" fill="rgb(16,201,120)"/>
<path d="M36 70h2v2h-2v-2z" fill="rgb(44,248,173)"/>
<path d="M38 70h2v2h-2v-2z" fill="rgb(113,248,202)"/>
<path d="M40 70h2v4h-2v-4z" fill="rgb(16,201,120)"/>
<path d="M42 70h4v2h-4v-2z" fill="rgb(44,248,173)"/>
<path d="M48 70h2v2h-2v-2z" fill="rgb(16,201,120)"/>
<path d="M148 70h2v2h-2v-2z" fill="rgb(26,225,145)"/>
<path d="M150 70h2v2h-2v-2z" fill="rgb(16,201,120)"/>
<path d="M152 70h8v2h-8v-2z" fill="rgb(2,153,85)"/>
<path d="M160 70h14v2h-14v-2z" fill="rgb(3,66,35)"/>
<path d="M16 72h6v2h-6v-2z" fill="rgb(3,66,35)"/>
<path d="M22 72h2v2h-2v-2z" fill="rgb(113,248,202)"/>
<path d="M24 72h2v2h2v2h-4v2h-10v-2h4v-2h6v-2z" fill="rgb(44,248,173)"/>
<path d="M32 72h2v2h-2v-2z" fill="rgb(44,248,173)"/>
<path d="M34 72h2v2h-2v-2z" fill="rgb(113,248,202)"/>
<path d="M36 72h2v4h-2v-4z" fill="rgb(16,201,120)"/>
<path d="M38 72h2v2h-2v-2z" fill="rgb(44,248,173)"/>
<path d="M74 72h2v4h-2v-4z" fill="rgb(26,225,145)"/>
<path d="M76 72h2v4h-2v-4z" fill="rgb(2,96,52)"/>
<path d="M78 72h2v4h-2v-4z" fill="rgb(2,153,85)"/>
<path d="M80 72h2v2h-2v-2z" fill="rgb(44,248,173)"/>
<path d="M84 72h2v4h-2v-4z" fill="rgb(2,96,52)"/>
<path d="M86 72h2v4h-2v-4z" fill="rgb(2,153,85)"/>
<path d="M88 72h2v2h-2v-2z" fill="rgb(44,248,173)"/>
<path d="M92 72h2v4h-2v-4z" fill="rgb(2,96,52)"/>
<path d="M94 72h2v4h-2v-4z" fill="rgb(2,153,85)"/>
<path d="M96 72h2v2h-2v-2z" fill="rgb(44,248,173)"/>
<path d="M162 72h6v2h-6v-2z" fill="rgb(16,201,120)"/>
<path d="M168 72h2v2h-2v-2z" fill="rgb(26,225,145)"/>
<path d="M170 72h4v2h-4v-2z" fill="rgb(44,248,173)"/>
<path d="M174 72h6v2h-6v-2z" fill="rgb(3,66,35)"/>
<path d="M12 74h4v2h-4v-2z" fill="rgb(3,66,35)"/>
<path d="M16 74h2v2h-2v-2z" fill="rgb(113,248,202)"/>
<path d="M58 74h6v2h6v2h2v2h2v2h2v2h2v2h2v2h-2v2h-6v-2h-4v-2h-2v-2h2v-4h-2v-2
	h-10v-2h2v-2z" fill="rgb(44,248,173)"/>
<path d="M120 74h8v2h-4v2h-2v2h-6v2h-2v2h-2v-2h-4v-2h4v-2h4v-2h4v-2z" fill="rgb(16,201,120)"/>
<path d="M130 74h2v2h-2v-2z" fill="rgb(2,96,52)"/>
<path d="M150 74h6v2h-6v-2z" fill="rgb(26,225,145)"/>
<path d="M156 74h6v2h-6v-2z" fill="rgb(16,201,120)"/>
<path d="M162 74h12v2h-12v-2z" fill="rgb(3,66,35)"/>
<path d="M174 74h4v2h-4v-2z" fill="rgb(26,225,145)"/>
<path d="M178 74h2v2h-2v-2z" fill="rgb(44,248,173)"/>
<path d="M180 74h4v2h-4v-2z" fill="rgb(3,66,35)"/>
<path d="M10 76h2v4h-2v-4z" fill="rgb(3,66,35)"/>
<path d="M12 76h2v2h-2v-2z" fill="rgb(16,201,120)"/>
<path d="M24 76h2v2h-2v-2z" fill="rgb(26,225,145)"/>
<path d="M26 76h8v2h-8v-2z" fill="rgb(16,201,120)"/>
<path d="M34 76h2v2h-2v-2z" fill="rgb(44,248,173)"/>
<path d="M70 76h2v2h-2v-2z" fill="rgb(26,225,145)"/>
<path d="M124 76h4v2h-4v-2z" fill="rgb(26,225,145)"/>
<path d="M128 76h2v4h-2v-4z" fill="rgb(2,96,52)"/>
<path d="M130 76h2v2h4v2h-2v2h-2v-2h-2v-4z" fill="rgb(16,201,120)"/>
<path d="M148 76h2v4h-2v-4z" fill="rgb(26,225,145)"/>
<path d="M150 76h4v2h-4v-2z" fill="rgb(16,201,120)"/>
<path d="M154 76h6v2h-6v-2z" fill="rgb(2,153,85)"/>
<path d="M160 76h2v4h-2v-4z" fill="rgb(4,26,107)"/>
<path d="M174 76h6v2h-6v-2z" fill="rgb(3,66,35)"/>
<path d="M180 76h4v2h-4v-2z" fill="rgb(26,225,145)"/>
<path d="M184 76h2v2h2v2h-8v-2h4v-2z" fill="rgb(3,66,35)"/>
<path d="M12 78h2v2h-2v-2z" fill="rgb(2,153,85)"/>
<path d="M14 78h12v2h-12v-2z" fill="rgb(16,201,120)"/>
<path d="M26 78h8v6h2v4h-2v2h-18v-2h-2v-8h12v-2z" fill="rgb(2,153,85)"/>
<path d="M34 78h2v6h-2v-6z" fill="rgb(16,201,120)"/>
<path d="M46 78h18v2h-16v2h-2v2h-2v2h-2v2h-2v2h-4v-2h2v-2h2v-2h2v-2h2v-2h2v-2z" fill="rgb(16,201,120)"/>
<path d="M64 78h2v2h-2v-2z" fill="rgb(26,225,145)"/>
<path d="M122 78h2v2h-2v-2z" fill="rgb(26,225,145)"/>
<path d="M124 78h4v2h2v4h2v2h-2v2h-6v-2h-2v-6h2v-2z" fill="rgb(44,248,173)"/>
<path d="M138 78h6v2h-6v-2z" fill="rgb(3,66,35)"/>
<path d="M144 78h2v2h-2v-2z" fill="rgb(2,153,85)"/>
<path d="M150 78h2v4h2v2h-4v-6z" fill="rgb(32,185,177)"/>
<path d="M152 78h4v2h2v2h4v2h2v2h2v2h2v2h2v2h2v2h-4v-2h-2v-2h-4v-2h-2v-2h-2v-2
	h-2v-2h-2v-2h-2v-2z" fill="rgb(18,121,182)"/>
<path d="M156 78h4v2h2v2h-4v-2h-2v-2z" fill="rgb(11,82,164)"/>
<path d="M12 80h2v6h-2v-6z" fill="rgb(3,66,35)"/>
<path d="M48 80h18v4h-2v-2h-4v2h-2v-2h-10v-2z" fill="rgb(44,248,173)"/>
<path d="M66 80h2v2h-2v-2z" fill="rgb(26,225,145)"/>
<path d="M116 80h6v6h2v2h6v2h2v2h4v2h-6v-2h-6v-2h-4v-2h-2v-2h-2v-2h-2v-2h2v-2z" fill="rgb(26,225,145)"/>
<path d="M130 80h2v4h-2v-4z" fill="rgb(2,96,52)"/>
<path d="M134 80h4v2h-4v-2z" fill="rgb(3,66,35)"/>
<path d="M144 80h2v4h-2v-4z" fill="rgb(3,66,35)"/>
<path d="M148 80h2v2h-2v-2z" fill="rgb(2,153,85)"/>
<path d="M152 80h2v2h-2v-2z" fill="rgb(25,153,179)"/>
<path d="M162 80h2v4h-2v-4z" fill="rgb(4,26,107)"/>
<path d="M16 82h2v4h-2v-4z" fill="rgb(16,201,120)"/>
<path d="M18 82h4v4h-4v-4z" fill="rgb(2,96,52)"/>
<path d="M24 82h2v4h-2v-4z" fill="rgb(16,201,120)"/>
<path d="M26 82h4v4h-4v-4z" fill="rgb(2,96,52)"/>
<path d="M46 82h2v2h-2v-2z" fill="rgb(44,248,173)"/>
<path d="M48 82h10v2h-10v-2z" fill="rgb(2,96,52)"/>
<path d="M60 82h4v2h2v2h-2v2h-2v-4h-2v-2z" fill="rgb(2,96,52)"/>
<path d="M66 82h2v2h-2v-2z" fill="rgb(16,201,120)"/>
<path d="M104 82h4v2h-2v2h4v2h2v2h2v4h2v6h-4v2h-4v2h-4v-4h-2v-4h-2v-4h2v-2h2v-2
	h-4v-2h2v-2h2v-2z" fill="rgb(16,201,120)"/>
<path d="M108 82h4v2h-4v-2z" fill="rgb(2,96,52)"/>
<path d="M132 82h2v2h-2v-2z" fill="rgb(3,66,35)"/>
<path d="M148 82h2v2h-2v-2z" fill="rgb(2,96,52)"/>
<path d="M154 82h2v2h-2v-2z" fill="rgb(25,153,179)"/>
<path d="M38 84h2v2h-2v-2z" fill="rgb(2,153,85)"/>
<path d="M44 84h2v2h-2v-2z" fill="rgb(44,248,173)"/>
<path d="M46 84h2v2h-2v-2z" fill="rgb(2,96,52)"/>
<path d="M48 84h10v2h-10v-2z" fill="rgb(153,104,115)"/>
<path d="M58 84h2v2h-2v-2z" fill="rgb(2,96,52)"/>
<path d="M60 84h2v4h-2v-4z" fill="rgb(87,44,50)"/>
<path d="M106 84h6v2h2v2h2v2h2v2h2v4h-2v2h-2v-4h-2v-4h-2v-2h-2v-2h-4v-2z" fill="rgb(2,153,85)"/>
<path d="M112 84h2v2h-2v-2z" fill="rgb(2,96,52)"/>
<path d="M114 84h2v2h-2v-2z" fill="rgb(16,201,120)"/>
<path d="M132 84h2v2h-2v-2z" fill="rgb(2,96,52)"/>
<path d="M146 84h2v2h-2v-2z" fill="rgb(3,66,35)"/>
<path d="M148 84h2v2h-2v-2z" fill="rgb(44,248,173)"/>
<path d="M150 84h4v2h-4v-2z" fill="rgb(2,96,52)"/>
<path d="M154 84h2v2h-2v-2z" fill="rgb(32,185,177)"/>
<path d="M156 84h2v2h-2v-2z" fill="rgb(25,153,179)"/>
<path d="M164 84h2v2h-2v-2z" fill="rgb(4,26,107)"/>
<path d="M18 86h2v2h-2v-2z" fill="rgb(16,201,120)"/>
<path d="M26 86h2v2h-2v-2z" fill="rgb(16,201,120)"/>
<path d="M36 86h2v2h-2v-2z" fill="rgb(2,96,52)"/>
<path d="M42 86h2v2h-2v-2z" fill="rgb(26,225,145)"/>
<path d="M44 86h2v2h-2v-2z" fill="rgb(2,96,52)"/>
<path d="M46 86h12v2h-12v-2z" fill="rgb(87,44,50)"/>
<path d="M58 86h2v2h-2v-2z" fill="rgb(153,104,115)"/>
<path d="M64 86h2v2h-2v-2z" fill="rgb(2,153,85)"/>
<path d="M66 86h2v2h-2v-2z" fill="rgb(16,201,120)"/>
<path d="M114 86h2v2h-2v-2z" fill="rgb(2,96,52)"/>
<path d="M116 86h2v2h-2v-2z" fill="rgb(16,201,120)"/>
<path d="M130 86h2v2h-2v-2z" fill="rgb(113,248,202)"/>
<path d="M132 86h2v2h2v2h-2v2h-2v-2h-2v-2h2v-2z" fill="rgb(44,248,173)"/>
<path d="M134 86h2v2h-2v-2z" fill="rgb(3,66,35)"/>
<path d="M148 86h2v2h-2v-2z" fill="rgb(3,66,35)"/>
<path d="M150 86h4v2h-4v-2z" fill="rgb(26,225,145)"/>
<path d="M154 86h4v2h-4v-2z" fill="rgb(2,96,52)"/>
<path d="M158 86h2v2h-2v-2z" fill="rgb(25,153,179)"/>
<path d="M166 86h2v2h-2v-2z" fill="rgb(4,26,107)"/>
<path d="M14 88h2v2h-2v-2z" fill="rgb(3,66,35)"/>
<path d="M34 88h2v2h-2v-2z" fill="rgb(2,96,52)"/>
<path d="M40 88h2v2h-2v-2z" fill="rgb(26,225,145)"/>
<path d="M42 88h2v2h2v4h-2v-2h-4v2h-6v-2h4v-2h4v-2z" fill="rgb(2,96,52)"/>
<path d="M44 88h2v2h-2v-2z" fill="rgb(87,44,50)"/>
<path d="M46 88h2v4h-2v-4z" fill="rgb(30,66,33)"/>
<path d="M48 88h8v6h-2v-2h-2v-2h-4v-2z" fill="rgb(120,200,60)"/>
<path d="M56 88h2v6h-2v-6z" fill="rgb(30,66,33)"/>
<path d="M58 88h2v2h-2v-2z" fill="rgb(87,44,50)"/>
<path d="M60 88h2v2h-2v-2z" fill="rgb(2,96,52)"/>
<path d="M62 88h2v2h-2v-2z" fill="rgb(2,153,85)"/>
<path d="M64 88h2v2h2v2h-4v-4z" fill="rgb(16,201,120)"/>
<path d="M98 88h2v2h-2v-2z" fill="rgb(16,201,120)"/>
<path d="M100 88h2v2h-2v-2z" fill="rgb(26,225,145)"/>
<path d="M102 88h2v2h-2v-2z" fill="rgb(2,96,52)"/>
<path d="M116 88h2v2h-2v-2z" fill="rgb(2,96,52)"/>
<path d="M118 88h2v2h-2v-2z" fill="rgb(16,201,120)"/>
<path d="M136 88h2v2h-2v-2z" fill="rgb(3,66,35)"/>
<path d="M150 88h4v2h-4v-2z" fill="rgb(3,66,35)"/>
<path d="M154 88h4v2h-4v-2z" fill="rgb(26,225,145)"/>
<path d="M158 88h4v2h-4v-2z" fill="rgb(2,96,52)"/>
<path d="M168 88h2v2h-2v-2z" fill="rgb(4,26,107)"/>
<path d="M16 90h2v2h-2v-2z" fill="rgb(3,66,35)"/>
<path d="M18 90h16v2h-16v-2z" fill="rgb(2,96,52)"/>
<path d="M34 90h4v2h-4v-2z" fill="rgb(26,225,145)"/>
<path d="M48 90h4v2h2v2h2v10h-2v-8h-2v-2h-2v-2h-2v-2z" fill="rgb(162,217,107)"/>
<path d="M58 90h6v2h-6v-2z" fill="rgb(44,248,173)"/>
<path d="M96 90h2v2h-2v-2z" fill="rgb(16,201,120)"/>
<path d="M98 90h2v2h-2v-2z" fill="rgb(26,225,145)"/>
<path d="M100 90h2v2h-2v-2z" fill="rgb(2,96,52)"/>
<path d="M118 90h2v2h-2v-2z" fill="rgb(2,96,52)"/>
<path d="M120 90h4v2h-4v-2z" fill="rgb(16,201,120)"/>
<path d="M134 90h2v2h-2v-2z" fill="rgb(113,248,202)"/>
<path d="M136 90h2v2h4v2h-6v-4z" fill="rgb(44,248,173)"/>
<path d="M138 90h4v2h-4v-2z" fill="rgb(3,66,35)"/>
<path d="M154 90h4v2h-4v-2z" fill="rgb(3,66,35)"/>
<path d="M158 90h4v2h-4v-2z" fill="rgb(16,201,120)"/>
<path d="M162 90h4v2h-4v-2z" fill="rgb(2,96,52)"/>
<path d="M170 90h2v2h-2v-2z" fill="rgb(4,26,107)"/>
<path d="M18 92h2v2h-2v-2z" fill="rgb(3,66,35)"/>
<path d="M20 92h14v2h-14v-2z" fill="rgb(16,201,120)"/>
<path d="M40 92h4v2h-4v-2z" fill="rgb(2,153,85)"/>
<path d="M46 92h2v2h-2v-2z" fill="rgb(53,101,40)"/>
<path d="M48 92h2v2h-2v-2z" fill="rgb(205,235,154)"/>
<path d="M58 92h4v4h2v6h-2v2h-2v-6h-2v-6z" fill="rgb(16,201,120)"/>
<path d="M62 92h2v2h-2v-2z" fill="rgb(26,225,145)"/>
<path d="M64 92h4v2h-4v-2z" fill="rgb(2,96,52)"/>
<path d="M68 92h8v2h-2v4h2v4h2v4h6v4h-2v2h2v4h2v4h-2v-2h-2v-2h-2v-4h-2v-4h-2v-4
	h-2v-4h-2v-4h-2v-2h-2v-2z" fill="rgb(16,201,120)"/>
<path d="M92 92h2v2h-2v-2z" fill="rgb(16,201,120)"/>
<path d="M98 92h2v4h-2v-4z" fill="rgb(2,96,52)"/>
<path d="M120 92h2v2h-2v-2z" fill="rgb(2,96,52)"/>
<path d="M122 92h2v2h-2v-2z" fill="rgb(3,66,35)"/>
<path d="M124 92h6v2h-6v-2z" fill="rgb(16,201,120)"/>
<path d="M142 92h6v2h-6v-2z" fill="rgb(3,66,35)"/>
<path d="M158 92h4v2h-4v-2z" fill="rgb(3,66,35)"/>
<path d="M162 92h4v2h-4v-2z" fill="rgb(16,201,120)"/>
<path d="M166 92h2v2h-2v-2z" fill="rgb(2,96,52)"/>
<path d="M172 92h2v2h-2v-2z" fill="rgb(4,26,107)"/>
<path d="M20 94h2v2h2v2h-2v2h-2v-6z" fill="rgb(3,66,35)"/>
<path d="M22 94h12v2h-8v2h-2v-2h-2v-2z" fill="rgb(2,96,52)"/>
<path d="M34 94h4v2h-4v-2z" fill="rgb(2,153,85)"/>
<path d="M38 94h6v2h4v6h-6v-2h2v-2h-6v2h-8v2h-2v-4h6v-2h4v-2z" fill="rgb(16,201,120)"/>
<path d="M44 94h2v2h-2v-2z" fill="rgb(2,153,85)"/>
<path d="M46 94h2v2h-2v-2z" fill="rgb(2,96,52)"/>
<path d="M48 94h2v8h-2v-8z" fill="rgb(53,101,40)"/>
<path d="M50 94h2v2h2v8h2v6h-2v-4h-2v-4h-2v-8z" fill="rgb(205,235,154)"/>
<path d="M56 94h2v4h-2v-4z" fill="rgb(53,101,40)"/>
<path d="M62 94h6v2h2v4h2v4h2v4h-2v-2h-8v-2h-2v-2h2v-6h-2v-2z" fill="rgb(2,153,85)"/>
<path d="M68 94h2v2h-2v-2z" fill="rgb(2,96,52)"/>
<path d="M88 94h2v2h-2v-2z" fill="rgb(16,201,120)"/>
<path d="M94 94h4v2h2v4h-2v-2h-4v4h-4v-2h-2v2h-4v-2h-2v-2h8v-2h4v-2z" fill="rgb(44,248,173)"/>
<path d="M120 94h2v2h-2v-2z" fill="rgb(3,66,35)"/>
<path d="M124 94h6v2h-6v-2z" fill="rgb(3,66,35)"/>
<path d="M130 94h6v2h-6v-2z" fill="rgb(16,201,120)"/>
<path d="M136 94h8v2h-8v-2z" fill="rgb(26,225,145)"/>
<path d="M144 94h4v2h-4v-2z" fill="rgb(44,248,173)"/>
<path d="M148 94h6v2h-6v-2z" fill="rgb(3,66,35)"/>
<path d="M162 94h4v2h-4v-2z" fill="rgb(3,66,35)"/>
<path d="M166 94h2v2h-2v-2z" fill="rgb(16,201,120)"/>
<path d="M168 94h2v2h-2v-2z" fill="rgb(2,96,52)"/>
<path d="M170 94h2v2h-2v-2z" fill="rgb(25,153,179)"/>
<path d="M172 94h2v2h-2v-2z" fill="rgb(18,121,182)"/>
<path d="M174 94h2v2h-2v-2z" fill="rgb(4,26,107)"/>
<path d="M26 96h8v2h-6v2h-2v-4z" fill="rgb(2,153,85)"/>
<path d="M70 96h2v4h-2v-4z" fill="rgb(2,96,52)"/>
<path d="M100 96h2v4h-2v-4z" fill="rgb(2,96,52)"/>
<path d="M118 96h2v2h-2v-2z" fill="rgb(3,66,35)"/>
<path d="M130 96h8v2h-8v-2z" fill="rgb(3,66,35)"/>
<path d="M138 96h6v2h-6v-2z" fill="rgb(16,201,120)"/>
<path d="M144 96h6v2h-6v-2z" fill="rgb(26,225,145)"/>
<path d="M150 96h4v2h-4v-2z" fill="rgb(44,248,173)"/>
<path d="M154 96h2v2h-2v-2z" fill="rgb(3,66,35)"/>
<path d="M166 96h4v2h-4v-2z" fill="rgb(3,66,35)"/>
<path d="M170 96h2v2h-2v-2z" fill="rgb(2,96,52)"/>
<path d="M172 96h2v2h-2v-2z" fill="rgb(25,153,179)"/>
<path d="M174 96h2v2h-2v-2z" fill="rgb(18,121,182)"/>
<path d="M176 96h2v2h-2v-2z" fill="rgb(4,26,107)"/>
<path d="M22 98h2v2h2v2h2v2h4v2h-6v2h-6v2h-6v2h-8v-2h4v-2h4v-2h2v-2h2v-2h2v-2h2
	v-2z" fill="rgb(2,153,85)"/>
<path d="M24 98h2v2h-2v-2z" fill="rgb(3,66,35)"/>
<path d="M38 98h6v2h-2v2h-4v2h-6v-2h-2v-2h8v-2z" fill="rgb(26,225,145)"/>
<path d="M56 98h2v6h-2v-6z" fill="rgb(120,200,60)"/>
<path d="M58 98h2v6h-2v-6z" fill="rgb(53,101,40)"/>
<path d="M94 98h4v2h-4v-2z" fill="rgb(113,248,202)"/>
<path d="M116 98h2v2h-2v-2z" fill="rgb(3,66,35)"/>
<path d="M138 98h16v2h-16v-2z" fill="rgb(3,66,35)"/>
<path d="M170 98h10v2h-10v-2z" fill="rgb(3,66,35)"/>
<path d="M18 100h2v2h-2v-2z" fill="rgb(3,66,35)"/>
<path d="M26 100h2v2h-2v-2z" fill="rgb(3,66,35)"/>
<path d="M72 100h2v4h-2v-4z" fill="rgb(2,96,52)"/>
<path d="M88 100h2v2h-2v-2z" fill="rgb(113,248,202)"/>
<path d="M94 100h6v2h-6v-2z" fill="rgb(26,225,145)"/>
<path d="M100 100h2v4h2v2h2v2h2v2h4v2h4v2h2v2h-4v-2h-4v2h4v2h-8v-2h-2v2h2v2h-12
	v-2h-4v-2h-2v-2h-2v-6h2v-2h2v-2h4v-2h6v-2z" fill="rgb(44,248,173)"/>
<path d="M102 100h2v4h-2v-4z" fill="rgb(2,96,52)"/>
<path d="M112 100h4v2h-4v-2z" fill="rgb(3,66,35)"/>
<path d="M16 102h2v2h-2v-2z" fill="rgb(3,66,35)"/>
<path d="M28 102h4v2h-4v-2z" fill="rgb(3,66,35)"/>
<path d="M38 102h10v2h-10v-2z" fill="rgb(3,66,35)"/>
<path d="M48 102h2v2h-2v-2z" fill="rgb(16,201,120)"/>
<path d="M50 102h2v2h-2v-2z" fill="rgb(53,101,40)"/>
<path d="M88 102h2v2h-2v-2z" fill="rgb(44,248,173)"/>
<path d="M90 102h4v2h-4v-2z" fill="rgb(26,225,145)"/>
<path d="M108 102h4v2h-4v-2z" fill="rgb(3,66,35)"/>
<path d="M14 104h2v2h-2v-2z" fill="rgb(3,66,35)"/>
<path d="M32 104h6v2h-6v-2z" fill="rgb(3,66,35)"/>
<path d="M38 104h2v2h-2v-2z" fill="rgb(120,200,60)"/>
<path d="M40 104h2v4h-2v-4z" fill="rgb(30,66,33)"/>
<path d="M42 104h6v2h4v4h2v4h2v4h2v2h2v2h2v2h2v2h2v2h2v2h4v-4h-2v-2h-2v-2h-2v-4
	h-2v-6h-2v-6h2v2h8v2h4v2h2v4h2v2h2v2h2v2h2v2h2v2h2v2h4v2h4v2h4v2h6v2h6v2h6v2h6
	v2h8v2h-134v-30h14v-2h6v-2h6v-2h6v-2h2v2h2v4h2v2h2v2h2v2h2v2h2v2h2v2h4v-4h-2
	v-2h-2v-2h-2v-4h-2v-4h-2v-4z" fill="rgb(255,255,255)"/>
<path d="M48 104h2v2h-2v-2z" fill="rgb(3,66,35)"/>
<path d="M50 104h2v2h-2v-2z" fill="rgb(30,66,33)"/>
<path d="M56 104h2v6h2v4h2v4h-2v-2h-2v-4h-2v-8z" fill="rgb(162,217,107)"/>
<path d="M58 104h2v2h-2v-2z" fill="rgb(30,66,33)"/>
<path d="M60 104h4v2h-4v-2z" fill="rgb(3,66,35)"/>
<path d="M74 104h2v4h-2v-4z" fill="rgb(2,96,52)"/>
<path d="M84 104h4v2h-4v-2z" fill="rgb(16,201,120)"/>
<path d="M88 104h2v2h-2v-2z" fill="rgb(26,225,145)"/>
<path d="M104 104h2v2h-2v-2z" fill="rgb(2,96,52)"/>
<path d="M106 104h2v4h-2v-4z" fill="rgb(3,66,35)"/>
<path d="M10 106h4v2h-4v-2z" fill="rgb(3,66,35)"/>
<path d="M26 106h6v2h-6v-2z" fill="rgb(3,66,35)"/>
<path d="M34 106h2v2h-2v-2z" fill="rgb(30,66,33)"/>
<path d="M36 106h2v2h-2v-2z" fill="rgb(120,200,60)"/>
<path d="M38 106h2v4h-2v-4z" fill="rgb(162,217,107)"/>
<path d="M52 106h2v4h-2v-4z" fill="rgb(30,66,33)"/>
<path d="M58 106h2v4h-2v-4z" fill="rgb(120,200,60)"/>
<path d="M60 106h2v6h-2v-6z" fill="rgb(30,66,33)"/>
<path d="M64 106h8v2h-8v-2z" fill="rgb(3,66,35)"/>
<path d="M84 106h4v2h-2v6h2v2h2v2h4v2h8v2h-4v2h-6v-2h-2v-2h-4v-4h-2v-4h-2v-2h2
	v-4z" fill="rgb(26,225,145)"/>
<path d="M6 108h4v2h-4v-2z" fill="rgb(3,66,35)"/>
<path d="M20 108h6v2h-6v-2z" fill="rgb(3,66,35)"/>
<path d="M36 108h2v4h-2v-4z" fill="rgb(30,66,33)"/>
<path d="M40 108h2v2h-2v-2z" fill="rgb(120,200,60)"/>
<path d="M42 108h2v4h-2v-4z" fill="rgb(30,66,33)"/>
<path d="M72 108h4v2h-4v-2z" fill="rgb(3,66,35)"/>
<path d="M76 108h2v2h-2v-2z" fill="rgb(2,96,52)"/>
<path d="M108 108h4v2h-4v-2z" fill="rgb(3,66,35)"/>
<path d="M2 110h4v2h8v2h-14v-2h2v-2z" fill="rgb(3,66,35)"/>
<path d="M14 110h6v2h-6v-2z" fill="rgb(3,66,35)"/>
<path d="M38 110h2v2h-2v-2z" fill="rgb(205,235,154)"/>
<path d="M40 110h2v2h-2v-2z" fill="rgb(162,217,107)"/>
<path d="M54 110h2v4h-2v-4z" fill="rgb(30,66,33)"/>
<path d="M76 110h2v2h-2v-2z" fill="rgb(3,66,35)"/>
<path d="M112 110h4v2h-4v-2z" fill="rgb(3,66,35)"/>
<path d="M38 112h2v2h-2v-2z" fill="rgb(30,66,33)"/>
<path d="M40 112h2v2h-2v-2z" fill="rgb(205,235,154)"/>
<path d="M42 112h2v2h-2v-2z" fill="rgb(162,217,107)"/>
<path d="M44 112h2v4h-2v-4z" fill="rgb(30,66,33)"/>
<path d="M56 112h2v2h-2v-2z" fill="rgb(205,235,154)"/>
<path d="M60 112h2v2h-2v-2z" fill="rgb(120,200,60)"/>
<path d="M62 112h2v6h-2v-6z" fill="rgb(30,66,33)"/>
<path d="M78 112h2v4h-2v-4z" fill="rgb(3,66,35)"/>
<path d="M116 112h4v2h-4v-2z" fill="rgb(3,66,35)"/>
<path d="M40 114h2v2h-2v-2z" fill="rgb(30,66,33)"/>
<path d="M42 114h2v2h-2v-2z" fill="rgb(205,235,154)"/>
<path d="M56 114h2v4h-2v-4z" fill="rgb(30,66,33)"/>
<path d="M110 114h4v2h-4v-2z" fill="rgb(113,248,202)"/>
<path d="M118 114h2v2h-2v-2z" fill="rgb(26,225,145)"/>
<path d="M120 114h4v2h-4v-2z" fill="rgb(3,66,35)"/>
<path d="M42 116h2v2h-2v-2z" fill="rgb(30,66,33)"/>
<path d="M44 116h2v2h-2v-2z" fill="rgb(162,217,107)"/>
<path d="M46 116h2v2h-2v-2z" fill="rgb(30,66,33)"/>
<path d="M58 116h2v2h-2v-2z" fill="rgb(205,235,154)"/>
<path d="M80 116h2v2h-2v-2z" fill="rgb(3,66,35)"/>
<path d="M98 116h4v2h-4v-2z" fill="rgb(113,248,202)"/>
<path d="M104 116h2v2h-2v-2z" fill="rgb(113,248,202)"/>
<path d="M114 116h2v2h-2v-2z" fill="rgb(26,225,145)"/>
<path d="M116 116h2v2h-2v-2z" fill="rgb(16,201,120)"/>
<path d="M118 116h2v2h-2v-2z" fill="rgb(3,66,35)"/>
<path d="M44 118h2v2h-2v-2z" fill="rgb(30,66,33)"/>
<path d="M46 118h2v2h-2v-2z" fill="rgb(162,217,107)"/>
<path d="M48 118h2v2h-2v-2z" fill="rgb(30,66,33)"/>
<path d="M58 118h2v2h-2v-2z" fill="rgb(30,66,33)"/>
<path d="M60 118h2v2h-2v-2z" fill="rgb(205,235,154)"/>
<path d="M62 118h2v4h-2v-4z" fill="rgb(162,217,107)"/>
<path d="M64 118h2v4h-2v-4z" fill="rgb(30,66,33)"/>
<path d="M82 118h2v2h-2v-2z" fill="rgb(3,66,35)"/>
<path d="M106 118h8v2h-8v-2z" fill="rgb(26,225,145)"/>
<path d="M114 118h2v2h-2v-2z" fill="rgb(16,201,120)"/>
<path d="M116 118h2v4h-2v-4z" fill="rgb(3,66,35)"/>
<path d="M46 120h2v2h-2v-2z" fill="rgb(30,66,33)"/>
<path d="M48 120h2v2h-2v-2z" fill="rgb(120,200,60)"/>
<path d="M50 120h2v4h-4v-2h2v-2z" fill="rgb(30,66,33)"/>
<path d="M60 120h2v2h-2v-2z" fill="rgb(30,66,33)"/>
<path d="M84 120h2v2h-2v-2z" fill="rgb(3,66,35)"/>
<path d="M86 120h4v2h2v2h6v-2h4v2h-2v4h4v2h4v2h-6v-2h-4v-2h-4v-2h-4v-2h-2v-2h-2
	v-2z" fill="rgb(16,201,120)"/>
<path d="M102 120h2v2h-2v-2z" fill="rgb(16,201,120)"/>
<path d="M104 120h2v2h-2v-2z" fill="rgb(26,225,145)"/>
<path d="M106 120h8v2h2v2h2v4h2v2h-2v2h2v-2h2v2h2v2h2v2h-4v-2h-6v-2h-6v-4h-6v-2
	h-2v-2h2v-2h2v-2z" fill="rgb(44,248,173)"/>
<path d="M114 120h2v2h-2v-2z" fill="rgb(26,225,145)"/>
<path d="M62 122h2v2h-2v-2z" fill="rgb(30,66,33)"/>
<path d="M64 122h2v2h-2v-2z" fill="rgb(120,200,60)"/>
<path d="M66 122h2v2h-2v-2z" fill="rgb(30,66,33)"/>
<path d="M86 122h2v2h-2v-2z" fill="rgb(3,66,35)"/>
<path d="M102 122h2v2h-2v-2z" fill="rgb(26,225,145)"/>
<path d="M116 122h2v2h-2v-2z" fill="rgb(26,225,145)"/>
<path d="M118 122h2v2h-2v-2z" fill="rgb(3,66,35)"/>
<path d="M64 124h2v2h-2v-2z" fill="rgb(30,66,33)"/>
<path d="M66 124h2v2h-2v-2z" fill="rgb(120,200,60)"/>
<path d="M68 124h2v2h-2v-2z" fill="rgb(30,66,33)"/>
<path d="M88 124h2v2h-2v-2z" fill="rgb(3,66,35)"/>
<path d="M100 124h2v2h2v2h-4v-4z" fill="rgb(26,225,145)"/>
<path d="M112 124h2v2h-2v-2z" fill="rgb(113,248,202)"/>
<path d="M118 124h2v2h2v4h-2v-2h-2v-4z" fill="rgb(26,225,145)"/>
<path d="M120 124h2v2h-2v-2z" fill="rgb(3,66,35)"/>
<path d="M66 126h2v2h-2v-2z" fill="rgb(30,66,33)"/>
<path d="M68 126h2v2h-2v-2z" fill="rgb(120,200,60)"/>
<path d="M70 126h2v4h-4v-2h2v-2z" fill="rgb(30,66,33)"/>
<path d="M90 126h4v2h-4v-2z" fill="rgb(3,66,35)"/>
<path d="M122 126h2v4h-2v-4z" fill="rgb(3,66,35)"/>
<path d="M94 128h4v2h-4v-2z" fill="rgb(3,66,35)"/>
<path d="M104 128h6v4h-2v-2h-4v-2z" fill="rgb(26,225,145)"/>
<path d="M98 130h4v2h-4v-2z" fill="rgb(3,66,35)"/>
<path d="M118 130h2v2h-2v-2z" fill="rgb(113,248,202)"/>
<path d="M122 130h2v2h-2v-2z" fill="rgb(26,225,145)"/>
<path d="M124 130h2v2h-2v-2z" fill="rgb(3,66,35)"/>
<path d="M102 132h6v2h-6v-2z" fill="rgb(3,66,35)"/>
<path d="M108 132h4v2h-4v-2z" fill="rgb(16,201,120)"/>
<path d="M112 132h4v2h-4v-2z" fill="rgb(26,225,145)"/>
<path d="M124 132h2v2h-2v-2z" fill="rgb(26,225,145)"/>
<path d="M126 132h2v2h-2v-2z" fill="rgb(3,66,35)"/>
<path d="M108 134h6v2h-6v-2z" fill="rgb(3,66,35)"/>
<path d="M114 134h6v2h-6v-2z" fill="rgb(16,201,120)"/>
<path d="M120 134h2v2h-2v-2z" fill="rgb(26,225,145)"/>
<path d="M126 134h2v2h-2v-2z" fill="rgb(26,225,145)"/>
<path d="M128 134h2v2h-2v-2z" fill="rgb(3,66,35)"/>
<path d="M114 136h6v2h-6v-2z" fill="rgb(3,66,35)"/>
<path d="M120 136h6v2h-6v-2z" fill="rgb(16,201,120)"/>
<path d="M126 136h4v2h-4v-2z" fill="rgb(44,248,173)"/>
<path d="M130 136h4v2h-4v-2z" fill="rgb(3,66,35)"/>
<path d="M120 138h6v2h-6v-2z" fill="rgb(3,66,35)"/>
<path d="M126 138h6v2h-6v-2z" fill="rgb(16,201,120)"/>
<path d="M132 138h2v2h-2v-2z" fill="rgb(44,248,173)"/>
<path d="M134 138h4v2h-4v-2z" fill="rgb(3,66,35)"/>
<path d="M126 140h8v2h-8v-2z" fill="rgb(3,66,35)"/>
<path d="M134 140h4v2h-4v-2z" fill="rgb(16,201,120)"/>
<path d="M138 140h4v2h4v2h-12v-2h4v-2z" fill="rgb(3,66,35)"/>
</svg>