<?xml version="1.0" encoding="utf-8"?>
<!-- generated at drububu.com  -->
<!DOCTYPE svg PUBLIC "-//W3C//DTD SVG 1.1//EN" "http://www.w3.org/Graphics/SVG/1.1/DTD/svg11.dtd">
<svg version="1.1" preserveAspectRatio="xMinYMin meet" xmlns="http://www.w3.org/2000/svg" xmlns:xlink="http://www.w3.org/1999/xlink" x="0px" y="0px" width="46px" height="68px" viewBox="0 0 46 68">
<path d="M0 0h16v2h-4v2h-2v2h-2v2h-2v4h-2v2h-2v4h-2v-18z" fill="rgb(255,255,255)"/>
<path d="M16 0h2v2h-2v-2z" fill="rgb(90,75,46)"/>
<path d="M18 0h10v2h2v8h2v4h2v2h-2v2h2v4h2v2h-2v4h-2v-8h-2v-4h-2v-2h-2v2h-2v8
	h-2v-8h-2v-2h-2v2h-2v4h-2v8h-2v-4h-2v-2h2v-4h2v-2h-2v-2h2v-4h2v-8h2v-2z" fill="rgb(255,255,255)"/>
<path d="M28 0h2v2h-2v-2z" fill="rgb(90,75,46)"/>
<path d="M30 0h16v18h-2v-4h-2v-2h-2v-4h-2v-2h-2v-2h-2v-2h-4v-2z" fill="rgb(255,255,255)"/>
<path d="M12 2h4v8h-2v-6h-2v-2z" fill="rgb(41,32,16)"/>
<path d="M30 2h4v2h-2v6h-2v-8z" fill="rgb(41,32,16)"/>
<path d="M10 4h2v2h-2v-2z" fill="rgb(41,32,16)"/>
<path d="M12 4h2v2h-2v-2z" fill="rgb(186,167,128)"/>
<path d="M32 4h2v2h-2v-2z" fill="rgb(186,167,128)"/>
<path d="M34 4h2v2h-2v-2z" fill="rgb(41,32,16)"/>
<path d="M8 6h2v2h-2v-2z" fill="rgb(41,32,16)"/>
<path d="M10 6h2v2h-2v-2z" fill="rgb(186,167,128)"/>
<path d="M12 6h2v2h-2v-2z" fill="rgb(135,115,73)"/>
<path d="M32 6h2v2h-2v-2z" fill="rgb(135,115,73)"/>
<path d="M34 6h2v2h-2v-2z" fill="rgb(186,167,128)"/>
<path d="M36 6h2v2h-2v-2z" fill="rgb(41,32,16)"/>
<path d="M6 8h2v4h-2v-4z" fill="rgb(41,32,16)"/>
<path d="M8 8h2v4h-2v-4z" fill="rgb(186,167,128)"/>
<path d="M10 8h2v4h-2v-4z" fill="rgb(135,115,73)"/>
<path d="M12 8h2v2h-2v-2z" fill="rgb(90,75,46)"/>
<path d="M32 8h2v2h-2v-2z" fill="rgb(90,75,46)"/>
<path d="M34 8h2v4h-2v-4z" fill="rgb(135,115,73)"/>
<path d="M36 8h2v4h-2v-4z" fill="rgb(186,167,128)"/>
<path d="M38 8h2v4h-2v-4z" fill="rgb(41,32,16)"/>
<path d="M12 10h2v4h-2v-4z" fill="rgb(41,32,16)"/>
<path d="M32 10h2v4h-2v-4z" fill="rgb(41,32,16)"/>
<path d="M4 12h2v2h-2v-2z" fill="rgb(41,32,16)"/>
<path d="M6 12h2v6h-2v-6z" fill="rgb(186,167,128)"/>
<path d="M8 12h2v8h-4v-2h2v-6z" fill="rgb(135,115,73)"/>
<path d="M10 12h2v2h-2v-2z" fill="rgb(90,75,46)"/>
<path d="M34 12h2v2h-2v-2z" fill="rgb(90,75,46)"/>
<path d="M36 12h2v6h2v2h-4v-8z" fill="rgb(135,115,73)"/>
<path d="M38 12h2v6h-2v-6z" fill="rgb(186,167,128)"/>
<path d="M40 12h2v2h-2v-2z" fill="rgb(41,32,16)"/>
<path d="M2 14h2v4h-2v-4z" fill="rgb(41,32,16)"/>
<path d="M4 14h2v2h-2v-2z" fill="rgb(90,75,46)"/>
<path d="M10 14h2v2h-2v-2z" fill="rgb(41,32,16)"/>
<path d="M18 14h2v2h-2v-2z" fill="rgb(41,32,16)"/>
<path d="M26 14h2v2h-2v-2z" fill="rgb(41,32,16)"/>
<path d="M34 14h2v2h-2v-2z" fill="rgb(41,32,16)"/>
<path d="M40 14h2v2h-2v-2z" fill="rgb(90,75,46)"/>
<path d="M42 14h2v4h-2v-4z" fill="rgb(41,32,16)"/>
<path d="M4 16h2v2h-2v-2z" fill="rgb(135,115,73)"/>
<path d="M10 16h2v2h-2v-2z" fill="rgb(90,75,46)"/>
<path d="M12 16h2v2h-2v-2z" fill="rgb(41,32,16)"/>
<path d="M16 16h2v4h-2v-4z" fill="rgb(41,32,16)"/>
<path d="M18 16h2v4h-2v-4z" fill="rgb(186,167,128)"/>
<path d="M20 16h2v8h-2v-8z" fill="rgb(41,32,16)"/>
<path d="M24 16h2v8h-2v-8z" fill="rgb(41,32,16)"/>
<path d="M26 16h2v4h-2v-4z" fill="rgb(186,167,128)"/>
<path d="M28 16h2v4h-2v-4z" fill="rgb(41,32,16)"/>
<path d="M32 16h2v2h-2v-2z" fill="rgb(41,32,16)"/>
<path d="M34 16h2v2h-2v-2z" fill="rgb(90,75,46)"/>
<path d="M40 16h2v2h-2v-2z" fill="rgb(135,115,73)"/>
<path d="M0 18h2v2h-2v-2z" fill="rgb(41,32,16)"/>
<path d="M2 18h2v2h-2v-2z" fill="rgb(90,75,46)"/>
<path d="M4 18h2v2h-2v-2z" fill="rgb(186,167,128)"/>
<path d="M10 18h2v4h-2v-4z" fill="rgb(41,32,16)"/>
<path d="M34 18h2v4h-2v-4z" fill="rgb(41,32,16)"/>
<path d="M40 18h2v2h-2v-2z" fill="rgb(186,167,128)"/>
<path d="M42 18h2v2h-2v-2z" fill="rgb(90,75,46)"/>
<path d="M44 18h2v2h-2v-2z" fill="rgb(41,32,16)"/>
<path d="M0 20h2v2h-2v-2z" fill="rgb(255,255,255)"/>
<path d="M2 20h2v2h-2v-2z" fill="rgb(41,32,16)"/>
<path d="M4 20h2v2h-2v-2z" fill="rgb(135,115,73)"/>
<path d="M6 20h2v2h-2v-2z" fill="rgb(186,167,128)"/>
<path d="M8 20h2v2h-2v-2z" fill="rgb(90,75,46)"/>
<path d="M14 20h2v6h-2v-6z" fill="rgb(41,32,16)"/>
<path d="M16 20h4v2h-2v2h-2v-4z" fill="rgb(135,115,73)"/>
<path d="M26 20h4v4h-2v-2h-2v-2z" fill="rgb(135,115,73)"/>
<path d="M30 20h2v6h-2v-6z" fill="rgb(41,32,16)"/>
<path d="M36 20h2v2h-2v-2z" fill="rgb(90,75,46)"/>
<path d="M38 20h2v2h-2v-2z" fill="rgb(186,167,128)"/>
<path d="M40 20h2v2h-2v-2z" fill="rgb(135,115,73)"/>
<path d="M42 20h2v2h-2v-2z" fill="rgb(41,32,16)"/>
<path d="M44 20h2v2h-2v-2z" fill="rgb(255,255,255)"/>
<path d="M0 22h2v6h-2v-6z" fill="rgb(41,32,16)"/>
<path d="M2 22h2v4h-2v-4z" fill="rgb(135,115,73)"/>
<path d="M4 22h2v4h-2v-4z" fill="rgb(186,167,128)"/>
<path d="M6 22h2v4h-2v-4z" fill="rgb(135,115,73)"/>
<path d="M8 22h2v2h-2v-2z" fill="rgb(41,32,16)"/>
<path d="M18 22h2v2h-2v-2z" fill="rgb(90,75,46)"/>
<path d="M26 22h2v2h-2v-2z" fill="rgb(90,75,46)"/>
<path d="M36 22h2v2h-2v-2z" fill="rgb(41,32,16)"/>
<path d="M38 22h2v4h-2v-4z" fill="rgb(135,115,73)"/>
<path d="M40 22h2v4h-2v-4z" fill="rgb(186,167,128)"/>
<path d="M42 22h2v4h-2v-4z" fill="rgb(135,115,73)"/>
<path d="M44 22h2v6h-2v-6z" fill="rgb(41,32,16)"/>
<path d="M8 24h2v2h-2v-2z" fill="rgb(90,75,46)"/>
<path d="M10 24h2v2h-2v-2z" fill="rgb(41,32,16)"/>
<path d="M16 24h2v2h-2v-2z" fill="rgb(90,75,46)"/>
<path d="M18 24h2v2h-2v-2z" fill="rgb(56,36,39)"/>
<path d="M20 24h2v2h-2v-2z" fill="rgb(90,75,46)"/>
<path d="M22 24h2v2h-2v-2z" fill="rgb(41,32,16)"/>
<path d="M24 24h2v2h-2v-2z" fill="rgb(90,75,46)"/>
<path d="M26 24h2v2h-2v-2z" fill="rgb(56,36,39)"/>
<path d="M28 24h2v2h-2v-2z" fill="rgb(90,75,46)"/>
<path d="M34 24h2v2h-2v-2z" fill="rgb(41,32,16)"/>
<path d="M36 24h2v2h-2v-2z" fill="rgb(90,75,46)"/>
<path d="M2 26h2v2h-2v-2z" fill="rgb(90,75,46)"/>
<path d="M4 26h2v4h-2v-4z" fill="rgb(135,115,73)"/>
<path d="M6 26h2v2h-2v-2z" fill="rgb(186,167,128)"/>
<path d="M8 26h2v2h-2v-2z" fill="rgb(135,115,73)"/>
<path d="M10 26h2v2h-2v-2z" fill="rgb(36,20,23)"/>
<path d="M14 26h2v2h-2v-2z" fill="rgb(36,20,23)"/>
<path d="M16 26h2v2h-2v-2z" fill="rgb(56,36,39)"/>
<path d="M18 26h2v2h-2v-2z" fill="rgb(94,75,77)"/>
<path d="M20 26h2v2h-2v-2z" fill="rgb(56,36,39)"/>
<path d="M22 26h2v2h-2v-2z" fill="rgb(36,20,23)"/>
<path d="M24 26h2v2h-2v-2z" fill="rgb(56,36,39)"/>
<path d="M26 26h2v2h-2v-2z" fill="rgb(94,75,77)"/>
<path d="M28 26h2v2h-2v-2z" fill="rgb(56,36,39)"/>
<path d="M30 26h2v2h-2v-2z" fill="rgb(36,20,23)"/>
<path d="M34 26h2v2h-2v-2z" fill="rgb(36,20,23)"/>
<path d="M36 26h2v2h-2v-2z" fill="rgb(135,115,73)"/>
<path d="M38 26h2v2h-2v-2z" fill="rgb(186,167,128)"/>
<path d="M40 26h2v4h-2v-4z" fill="rgb(135,115,73)"/>
<path d="M42 26h2v2h-2v-2z" fill="rgb(90,75,46)"/>
<path d="M0 28h2v4h2v8h2v4h-2v4h-2v2h-2v-22z" fill="rgb(255,255,255)"/>
<path d="M2 28h2v4h-2v-4z" fill="rgb(41,32,16)"/>
<path d="M6 28h2v2h-2v-2z" fill="rgb(90,75,46)"/>
<path d="M8 28h2v2h-2v-2z" fill="rgb(56,36,39)"/>
<path d="M10 28h2v2h-2v-2z" fill="rgb(94,75,77)"/>
<path d="M12 28h2v2h-2v-2z" fill="rgb(36,20,23)"/>
<path d="M14 28h4v2h-4v-2z" fill="rgb(94,75,77)"/>
<path d="M18 28h2v2h6v-2h2v2h4v2h-2v2h-4v-2h-6v2h-4v-2h-2v-2h4v-2z" fill="rgb(117,94,97)"/>
<path d="M20 28h6v2h-6v-2z" fill="rgb(94,75,77)"/>
<path d="M28 28h4v2h-4v-2z" fill="rgb(94,75,77)"/>
<path d="M32 28h2v2h-2v-2z" fill="rgb(36,20,23)"/>
<path d="M34 28h2v2h-2v-2z" fill="rgb(94,75,77)"/>
<path d="M36 28h2v2h-2v-2z" fill="rgb(56,36,39)"/>
<path d="M38 28h2v2h-2v-2z" fill="rgb(90,75,46)"/>
<path d="M42 28h2v4h-2v-4z" fill="rgb(41,32,16)"/>
<path d="M44 28h2v22h-2v-2h-2v-4h-2v-4h2v-8h2v-4z" fill="rgb(255,255,255)"/>
<path d="M4 30h2v2h-2v-2z" fill="rgb(90,75,46)"/>
<path d="M6 30h2v2h-2v-2z" fill="rgb(56,36,39)"/>
<path d="M8 30h2v2h-2v-2z" fill="rgb(94,75,77)"/>
<path d="M10 30h2v2h-2v-2z" fill="rgb(117,94,97)"/>
<path d="M12 30h2v2h-2v-2z" fill="rgb(94,75,77)"/>
<path d="M32 30h2v2h-2v-2z" fill="rgb(94,75,77)"/>
<path d="M34 30h2v2h-2v-2z" fill="rgb(117,94,97)"/>
<path d="M36 30h2v2h-2v-2z" fill="rgb(94,75,77)"/>
<path d="M38 30h2v2h-2v-2z" fill="rgb(56,36,39)"/>
<path d="M40 30h2v2h-2v-2z" fill="rgb(90,75,46)"/>
<path d="M4 32h2v8h-2v-8z" fill="rgb(36,20,23)"/>
<path d="M6 32h2v8h-2v-8z" fill="rgb(94,75,77)"/>
<path d="M8 32h2v6h2v-2h2v4h-6v-8z" fill="rgb(117,94,97)"/>
<path d="M10 32h2v2h2v2h-2v2h-2v-6z" fill="rgb(147,119,122)"/>
<path d="M12 32h2v2h-2v-2z" fill="rgb(117,94,97)"/>
<path d="M14 32h2v2h-2v-2z" fill="rgb(147,119,122)"/>
<path d="M20 32h6v2h-6v-2z" fill="rgb(23,26,8)"/>
<path d="M30 32h2v2h-2v-2z" fill="rgb(147,119,122)"/>
<path d="M32 32h2v2h-2v-2z" fill="rgb(117,94,97)"/>
<path d="M34 32h2v6h-2v-2h-2v-2h2v-2z" fill="rgb(147,119,122)"/>
<path d="M36 32h2v8h-6v-4h2v2h2v-6z" fill="rgb(117,94,97)"/>
<path d="M38 32h2v8h-2v-8z" fill="rgb(94,75,77)"/>
<path d="M40 32h2v8h-2v-8z" fill="rgb(36,20,23)"/>
<path d="M14 34h2v2h-2v-2z" fill="rgb(117,94,97)"/>
<path d="M16 34h4v2h-4v-2z" fill="rgb(23,26,8)"/>
<path d="M20 34h6v4h-6v-4z" fill="rgb(12,12,12)"/>
<path d="M26 34h4v2h-4v-2z" fill="rgb(23,26,8)"/>
<path d="M30 34h2v2h-2v-2z" fill="rgb(117,94,97)"/>
<path d="M14 36h2v4h-2v-4z" fill="rgb(23,26,8)"/>
<path d="M16 36h2v2h-2v-2z" fill="rgb(53,59,18)"/>
<path d="M18 36h2v2h-2v-2z" fill="rgb(42,45,20)"/>
<path d="M26 36h2v2h-2v-2z" fill="rgb(42,45,20)"/>
<path d="M28 36h2v2h-2v-2z" fill="rgb(53,59,18)"/>
<path d="M30 36h2v4h-2v-4z" fill="rgb(23,26,8)"/>
<path d="M16 38h2v2h-2v-2z" fill="rgb(90,104,19)"/>
<path d="M18 38h2v2h-2v-2z" fill="rgb(53,59,18)"/>
<path d="M20 38h6v2h-6v-2z" fill="rgb(42,45,20)"/>
<path d="M26 38h2v2h-2v-2z" fill="rgb(53,59,18)"/>
<path d="M28 38h2v2h-2v-2z" fill="rgb(116,128,27)"/>
<path d="M6 40h2v4h-2v-4z" fill="rgb(36,20,23)"/>
<path d="M8 40h4v4h-2v4h-2v2h-2v2h2v4h2v6h2v4h2v2h-4v-2h-2v-4h-2v-6h-2v-4h-2v-2
	h2v-2h2v-4h2v-4z" fill="rgb(94,75,77)"/>
<path d="M12 40h2v6h-2v-6z" fill="rgb(58,59,58)"/>
<path d="M14 40h2v4h2v4h-2v-2h-2v-6z" fill="rgb(119,119,119)"/>
<path d="M16 40h2v2h-2v-2z" fill="rgb(84,90,49)"/>
<path d="M18 40h2v2h-2v-2z" fill="rgb(90,104,19)"/>
<path d="M20 40h6v2h-6v-2z" fill="rgb(53,59,18)"/>
<path d="M26 40h2v2h-2v-2z" fill="rgb(116,128,27)"/>
<path d="M28 40h2v2h-2v-2z" fill="rgb(137,145,81)"/>
<path d="M30 40h2v2h-2v-2z" fill="rgb(216,216,216)"/>
<path d="M32 40h2v6h-2v-6z" fill="rgb(58,59,58)"/>
<path d="M34 40h4v4h2v4h2v2h2v2h-2v4h-2v6h-2v4h-2v2h-4v-2h2v-4h2v-6h2v-4h2v-2
	h-2v-2h-2v-4h-2v-4z" fill="rgb(94,75,77)"/>
<path d="M38 40h2v4h-2v-4z" fill="rgb(36,20,23)"/>
<path d="M16 42h2v2h-2v-2z" fill="rgb(161,162,161)"/>
<path d="M18 42h2v2h-2v-2z" fill="rgb(216,216,216)"/>
<path d="M20 42h6v2h-6v-2z" fill="rgb(116,128,27)"/>
<path d="M26 42h2v2h-2v-2z" fill="rgb(231,231,231)"/>
<path d="M28 42h2v2h-2v-2z" fill="rgb(216,216,216)"/>
<path d="M30 42h2v4h-2v2h-4v2h-4v-2h-4v-4h2v2h8v-2h2v-2z" fill="rgb(161,162,161)"/>
<path d="M4 44h2v4h-2v-4z" fill="rgb(36,20,23)"/>
<path d="M10 44h2v2h2v4h-2v-2h-2v-4z" fill="rgb(117,94,97)"/>
<path d="M20 44h8v2h-8v-2z" fill="rgb(216,216,216)"/>
<path d="M34 44h2v4h-2v2h-2v-4h2v-2z" fill="rgb(117,94,97)"/>
<path d="M40 44h2v4h-2v-4z" fill="rgb(36,20,23)"/>
<path d="M14 46h2v2h-2v-2z" fill="rgb(58,59,58)"/>
<path d="M30 46h2v2h-2v-2z" fill="rgb(58,59,58)"/>
<path d="M2 48h2v2h-2v-2z" fill="rgb(36,20,23)"/>
<path d="M8 48h2v4h2v2h4v2h-4v2h-2v-2h-2v-4h-2v-2h2v-2z" fill="rgb(117,94,97)"/>
<path d="M10 48h2v2h2v2h2v2h-4v-2h-2v-4z" fill="rgb(147,119,122)"/>
<path d="M14 48h2v2h-2v-2z" fill="rgb(52,32,32)"/>
<path d="M16 48h2v2h-2v-2z" fill="rgb(76,41,41)"/>
<path d="M18 48h2v2h-2v-2z" fill="rgb(128,91,91)"/>
<path d="M20 48h2v2h-2v-2z" fill="rgb(119,119,119)"/>
<path d="M26 48h2v2h-2v-2z" fill="rgb(128,91,91)"/>
<path d="M28 48h2v2h-2v-2z" fill="rgb(144,74,74)"/>
<path d="M30 48h2v2h-2v-2z" fill="rgb(52,32,32)"/>
<path d="M34 48h2v4h-2v2h-4v-2h2v-2h2v-2z" fill="rgb(147,119,122)"/>
<path d="M36 48h2v2h2v2h-2v4h-2v2h-2v-2h-4v-2h4v-2h2v-4z" fill="rgb(117,94,97)"/>
<path d="M42 48h2v2h-2v-2z" fill="rgb(36,20,23)"/>
<path d="M0 50h2v2h-2v-2z" fill="rgb(36,20,23)"/>
<path d="M14 50h2v2h-2v-2z" fill="rgb(117,94,97)"/>
<path d="M16 50h4v2h-4v-2z" fill="rgb(52,32,32)"/>
<path d="M20 50h6v2h-6v-2z" fill="rgb(128,91,91)"/>
<path d="M26 50h4v2h-4v-2z" fill="rgb(52,32,32)"/>
<path d="M30 50h2v2h-2v-2z" fill="rgb(117,94,97)"/>
<path d="M44 50h2v2h-2v-2z" fill="rgb(36,20,23)"/>
<path d="M0 52h2v4h2v6h2v4h2v2h-8v-16z" fill="rgb(255,255,255)"/>
<path d="M2 52h2v4h-2v-4z" fill="rgb(36,20,23)"/>
<path d="M16 52h4v2h-4v-2z" fill="rgb(117,94,97)"/>
<path d="M20 52h6v2h-6v-2z" fill="rgb(52,32,32)"/>
<path d="M26 52h4v2h-4v-2z" fill="rgb(117,94,97)"/>
<path d="M42 52h2v4h-2v-4z" fill="rgb(36,20,23)"/>
<path d="M44 52h2v16h-8v-2h2v-4h2v-6h2v-4z" fill="rgb(255,255,255)"/>
<path d="M16 54h4v2h2v2h2v-2h2v-2h4v2h-2v2h-2v4h-2v-2h-2v2h-2v-4h-2v-2h-2v-2z" fill="rgb(147,119,122)"/>
<path d="M20 54h6v2h-2v2h-2v-2h-2v-2z" fill="rgb(117,94,97)"/>
<path d="M4 56h2v6h-2v-6z" fill="rgb(36,20,23)"/>
<path d="M12 56h4v2h-4v-2z" fill="rgb(65,43,45)"/>
<path d="M16 56h2v2h-2v-2z" fill="rgb(117,94,97)"/>
<path d="M28 56h2v2h-2v-2z" fill="rgb(117,94,97)"/>
<path d="M30 56h4v2h-4v-2z" fill="rgb(65,43,45)"/>
<path d="M40 56h2v6h-2v-6z" fill="rgb(36,20,23)"/>
<path d="M10 58h2v4h-2v-4z" fill="rgb(65,43,45)"/>
<path d="M12 58h2v2h-2v-2z" fill="rgb(12,12,12)"/>
<path d="M14 58h2v2h-2v-2z" fill="rgb(116,128,27)"/>
<path d="M16 58h2v4h-2v-4z" fill="rgb(65,43,45)"/>
<path d="M18 58h2v4h-2v-4z" fill="rgb(117,94,97)"/>
<path d="M26 58h2v4h-2v-4z" fill="rgb(117,94,97)"/>
<path d="M28 58h2v4h-2v-4z" fill="rgb(65,43,45)"/>
<path d="M30 58h2v2h-2v-2z" fill="rgb(116,128,27)"/>
<path d="M32 58h2v2h-2v-2z" fill="rgb(12,12,12)"/>
<path d="M34 58h2v4h-2v-4z" fill="rgb(65,43,45)"/>
<path d="M12 60h2v2h-2v-2z" fill="rgb(137,151,33)"/>
<path d="M14 60h2v2h-2v-2z" fill="rgb(161,162,161)"/>
<path d="M22 60h2v2h2v2h-6v-2h2v-2z" fill="rgb(117,94,97)"/>
<path d="M30 60h2v2h-2v-2z" fill="rgb(161,162,161)"/>
<path d="M32 60h2v2h-2v-2z" fill="rgb(137,151,33)"/>
<path d="M6 62h2v4h-2v-4z" fill="rgb(36,20,23)"/>
<path d="M12 62h4v2h-4v-2z" fill="rgb(65,43,45)"/>
<path d="M16 62h2v6h-4v-4h2v-2z" fill="rgb(117,94,97)"/>
<path d="M18 62h2v2h-2v-2z" fill="rgb(94,75,77)"/>
<path d="M26 62h2v2h-2v-2z" fill="rgb(94,75,77)"/>
<path d="M28 62h2v2h2v4h-4v-6z" fill="rgb(117,94,97)"/>
<path d="M30 62h4v2h-4v-2z" fill="rgb(65,43,45)"/>
<path d="M38 62h2v4h-2v-4z" fill="rgb(36,20,23)"/>
<path d="M12 64h2v2h-2v-2z" fill="rgb(147,119,122)"/>
<path d="M18 64h10v2h-10v-2z" fill="rgb(147,119,122)"/>
<path d="M32 64h2v2h-2v-2z" fill="rgb(147,119,122)"/>
<path d="M8 66h2v2h-2v-2z" fill="rgb(36,20,23)"/>
<path d="M18 66h10v2h-10v-2z" fill="rgb(94,75,77)"/>
<path d="M36 66h2v2h-2v-2z" fill="rgb(36,20,23)"/>
</svg>