<?xml version="1.0" encoding="utf-8"?>
<!-- generated at drububu.com  -->
<!DOCTYPE svg PUBLIC "-//W3C//DTD SVG 1.1//EN" "http://www.w3.org/Graphics/SVG/1.1/DTD/svg11.dtd">
<svg version="1.1" preserveAspectRatio="xMinYMin meet" xmlns="http://www.w3.org/2000/svg" xmlns:xlink="http://www.w3.org/1999/xlink" x="0px" y="0px" width="42px" height="46px" viewBox="0 0 42 46">
<path d="M0 0h4v2h-2v2h2v4h-2v2h2v4h2v2h-2v6h-2v6h-2v-28z" fill="rgb(255,255,255)"/>
<path d="M4 0h2v2h-2v-2z" fill="rgb(36,20,23)"/>
<path d="M6 0h4v2h-2v4h2v2h-2v2h2v4h2v2h-2v6h-2v2h-2v2h2v2h-2v2h2v2h-2v2h2v2h2
	v2h-2v2h4v2h-2v2h2v2h-4v-2h-2v-4h-2v-2h2v-2h-2v-6h-2v-2h2v-6h2v-6h2v-2h-2v-4h-2
	v-2h2v-4h-2v-2h2v-2z" fill="rgb(94,75,77)"/>
<path d="M10 0h4v2h-2v2h2v2h-2v2h2v2h-2v4h-2v-4h-2v-2h2v-2h-2v-4h2v-2z" fill="rgb(117,94,97)"/>
<path d="M14 0h4v2h6v-2h4v2h2v2h-2v2h-4v-2h-6v2h-4v-2h-2v-2h2v-2z" fill="rgb(147,119,122)"/>
<path d="M18 0h6v2h-6v-2z" fill="rgb(117,94,97)"/>
<path d="M28 0h4v2h2v4h-2v2h2v2h-2v4h-2v-4h-2v-2h2v-2h-2v-2h2v-2h-2v-2z" fill="rgb(117,94,97)"/>
<path d="M32 0h4v2h2v2h-2v4h2v2h-2v4h-2v2h2v6h2v6h2v2h-2v6h-2v2h2v2h-2v4h-2v2
	h-4v-2h2v-2h-2v-2h4v-2h-2v-2h2v-2h2v-2h-2v-2h2v-2h-2v-2h2v-2h-2v-2h-2v-6h-2v-2h2
	v-4h2v-2h-2v-2h2v-4h-2v-2z" fill="rgb(94,75,77)"/>
<path d="M36 0h2v2h-2v-2z" fill="rgb(36,20,23)"/>
<path d="M38 0h4v28h-2v-6h-2v-6h-2v-2h2v-4h2v-2h-2v-4h2v-2h-2v-2z" fill="rgb(255,255,255)"/>
<path d="M2 2h2v2h-2v-2z" fill="rgb(36,20,23)"/>
<path d="M38 2h2v2h-2v-2z" fill="rgb(36,20,23)"/>
<path d="M4 4h2v4h-2v-4z" fill="rgb(36,20,23)"/>
<path d="M18 4h6v2h-6v-2z" fill="rgb(94,75,77)"/>
<path d="M36 4h2v4h-2v-4z" fill="rgb(36,20,23)"/>
<path d="M12 6h2v2h-2v-2z" fill="rgb(147,119,122)"/>
<path d="M14 6h4v2h-4v-2z" fill="rgb(117,94,97)"/>
<path d="M18 6h2v2h-2v-2z" fill="rgb(147,119,122)"/>
<path d="M20 6h2v2h-2v-2z" fill="rgb(117,94,97)"/>
<path d="M22 6h2v2h-2v-2z" fill="rgb(147,119,122)"/>
<path d="M24 6h4v2h-4v-2z" fill="rgb(117,94,97)"/>
<path d="M28 6h2v2h-2v-2z" fill="rgb(147,119,122)"/>
<path d="M2 8h2v2h-2v-2z" fill="rgb(36,20,23)"/>
<path d="M14 8h4v2h-4v-2z" fill="rgb(65,43,45)"/>
<path d="M18 8h2v2h-2v-2z" fill="rgb(117,94,97)"/>
<path d="M20 8h2v2h-2v-2z" fill="rgb(147,119,122)"/>
<path d="M22 8h2v2h-2v-2z" fill="rgb(117,94,97)"/>
<path d="M24 8h4v2h-4v-2z" fill="rgb(65,43,45)"/>
<path d="M38 8h2v2h-2v-2z" fill="rgb(36,20,23)"/>
<path d="M4 10h2v4h-2v-4z" fill="rgb(36,20,23)"/>
<path d="M12 10h2v4h-2v-4z" fill="rgb(65,43,45)"/>
<path d="M14 10h2v2h-2v-2z" fill="rgb(12,12,12)"/>
<path d="M16 10h2v2h-2v-2z" fill="rgb(116,128,27)"/>
<path d="M18 10h2v4h-2v-4z" fill="rgb(65,43,45)"/>
<path d="M20 10h2v4h-2v-4z" fill="rgb(117,94,97)"/>
<path d="M22 10h2v4h-2v-4z" fill="rgb(65,43,45)"/>
<path d="M24 10h2v2h-2v-2z" fill="rgb(116,128,27)"/>
<path d="M26 10h2v2h-2v-2z" fill="rgb(12,12,12)"/>
<path d="M28 10h2v4h-2v-4z" fill="rgb(65,43,45)"/>
<path d="M36 10h2v4h-2v-4z" fill="rgb(36,20,23)"/>
<path d="M14 12h2v2h-2v-2z" fill="rgb(137,151,33)"/>
<path d="M16 12h2v2h-2v-2z" fill="rgb(161,162,161)"/>
<path d="M24 12h2v2h-2v-2z" fill="rgb(161,162,161)"/>
<path d="M26 12h2v2h-2v-2z" fill="rgb(137,151,33)"/>
<path d="M6 14h2v2h-2v-2z" fill="rgb(36,20,23)"/>
<path d="M12 14h2v2h-2v-2z" fill="rgb(117,94,97)"/>
<path d="M14 14h4v2h-4v-2z" fill="rgb(65,43,45)"/>
<path d="M18 14h2v2h2v-2h2v2h4v2h-2v2h-2v-2h-6v2h-2v-2h-2v-2h4v-2z" fill="rgb(117,94,97)"/>
<path d="M20 14h2v2h-2v-2z" fill="rgb(147,119,122)"/>
<path d="M24 14h4v2h-4v-2z" fill="rgb(65,43,45)"/>
<path d="M28 14h2v2h-2v-2z" fill="rgb(117,94,97)"/>
<path d="M34 14h2v2h-2v-2z" fill="rgb(36,20,23)"/>
<path d="M4 16h2v6h-2v-6z" fill="rgb(36,20,23)"/>
<path d="M10 16h2v6h-2v-6z" fill="rgb(117,94,97)"/>
<path d="M12 16h2v2h2v2h-2v2h-2v-6z" fill="rgb(147,119,122)"/>
<path d="M28 16h2v6h-2v-2h-2v-2h2v-2z" fill="rgb(147,119,122)"/>
<path d="M30 16h2v6h-2v-6z" fill="rgb(117,94,97)"/>
<path d="M36 16h2v6h-2v-6z" fill="rgb(36,20,23)"/>
<path d="M18 18h6v2h-6v-2z" fill="rgb(23,26,8)"/>
<path d="M14 20h2v2h-2v-2z" fill="rgb(117,94,97)"/>
<path d="M16 20h2v2h-2v-2z" fill="rgb(23,26,8)"/>
<path d="M18 20h6v2h-2v2h-2v-2h-2v-2z" fill="rgb(12,12,12)"/>
<path d="M24 20h2v2h-2v-2z" fill="rgb(23,26,8)"/>
<path d="M26 20h2v2h-2v-2z" fill="rgb(117,94,97)"/>
<path d="M2 22h2v6h-2v-6z" fill="rgb(36,20,23)"/>
<path d="M8 22h2v8h2v2h4v2h-4v2h-4v-2h-2v-2h2v-2h-2v-2h2v-2h-2v-2h2v-2z" fill="rgb(117,94,97)"/>
<path d="M10 22h2v6h2v2h2v2h-4v-2h-2v-8z" fill="rgb(147,119,122)"/>
<path d="M12 22h2v6h-2v-6z" fill="rgb(117,94,97)"/>
<path d="M14 22h2v2h-2v-2z" fill="rgb(23,26,8)"/>
<path d="M16 22h2v2h-2v-2z" fill="rgb(90,104,19)"/>
<path d="M18 22h2v2h-2v-2z" fill="rgb(42,45,20)"/>
<path d="M22 22h2v2h-2v-2z" fill="rgb(42,45,20)"/>
<path d="M24 22h2v2h-2v-2z" fill="rgb(148,168,37)"/>
<path d="M26 22h2v2h-2v-2z" fill="rgb(23,26,8)"/>
<path d="M28 22h2v6h-2v-6z" fill="rgb(117,94,97)"/>
<path d="M30 22h2v8h-2v2h-4v-2h2v-2h2v-6z" fill="rgb(147,119,122)"/>
<path d="M32 22h2v2h2v2h-2v2h2v2h-2v2h2v2h-2v2h-4v-2h-4v-2h4v-2h2v-8z" fill="rgb(117,94,97)"/>
<path d="M38 22h2v6h-2v-6z" fill="rgb(36,20,23)"/>
<path d="M14 24h2v2h-2v-2z" fill="rgb(58,59,58)"/>
<path d="M16 24h2v2h-2v-2z" fill="rgb(161,162,161)"/>
<path d="M18 24h2v2h-2v-2z" fill="rgb(90,104,19)"/>
<path d="M20 24h2v2h-2v-2z" fill="rgb(116,128,27)"/>
<path d="M22 24h2v2h-2v-2z" fill="rgb(137,151,33)"/>
<path d="M24 24h2v2h-2v-2z" fill="rgb(216,216,216)"/>
<path d="M26 24h2v2h-2v-2z" fill="rgb(58,59,58)"/>
<path d="M14 26h2v2h-2v-2z" fill="rgb(52,32,32)"/>
<path d="M16 26h2v2h-2v-2z" fill="rgb(76,41,41)"/>
<path d="M18 26h6v2h-6v-2z" fill="rgb(216,216,216)"/>
<path d="M24 26h2v2h-2v-2z" fill="rgb(144,74,74)"/>
<path d="M26 26h2v2h-2v-2z" fill="rgb(52,32,32)"/>
<path d="M0 28h2v2h-2v-2z" fill="rgb(36,20,23)"/>
<path d="M14 28h2v2h-2v-2z" fill="rgb(117,94,97)"/>
<path d="M16 28h2v2h-2v-2z" fill="rgb(52,32,32)"/>
<path d="M18 28h6v2h-6v-2z" fill="rgb(128,91,91)"/>
<path d="M24 28h2v2h-2v-2z" fill="rgb(52,32,32)"/>
<path d="M26 28h2v2h-2v-2z" fill="rgb(117,94,97)"/>
<path d="M40 28h2v2h-2v-2z" fill="rgb(36,20,23)"/>
<path d="M0 30h2v6h2v2h-2v2h2v4h2v2h-6v-16z" fill="rgb(255,255,255)"/>
<path d="M2 30h2v6h-2v-6z" fill="rgb(36,20,23)"/>
<path d="M16 30h2v2h-2v-2z" fill="rgb(117,94,97)"/>
<path d="M18 30h6v2h-6v-2z" fill="rgb(52,32,32)"/>
<path d="M24 30h2v2h-2v-2z" fill="rgb(117,94,97)"/>
<path d="M38 30h2v6h-2v-6z" fill="rgb(36,20,23)"/>
<path d="M40 30h2v16h-6v-2h2v-4h2v-2h-2v-2h2v-6z" fill="rgb(255,255,255)"/>
<path d="M16 32h2v2h-2v-2z" fill="rgb(147,119,122)"/>
<path d="M18 32h6v2h-6v-2z" fill="rgb(117,94,97)"/>
<path d="M24 32h2v2h-2v-2z" fill="rgb(147,119,122)"/>
<path d="M12 34h4v2h-4v-2z" fill="rgb(65,43,45)"/>
<path d="M16 34h2v2h-2v-2z" fill="rgb(117,94,97)"/>
<path d="M18 34h6v2h-2v4h2v2h2v2h-10v-2h2v-2h2v-4h-2v-2z" fill="rgb(147,119,122)"/>
<path d="M24 34h2v2h-2v-2z" fill="rgb(117,94,97)"/>
<path d="M26 34h4v2h-4v-2z" fill="rgb(65,43,45)"/>
<path d="M4 36h2v2h-2v-2z" fill="rgb(36,20,23)"/>
<path d="M10 36h2v4h-2v-4z" fill="rgb(65,43,45)"/>
<path d="M12 36h2v2h-2v-2z" fill="rgb(12,12,12)"/>
<path d="M14 36h2v2h-2v-2z" fill="rgb(116,128,27)"/>
<path d="M16 36h2v4h-2v-4z" fill="rgb(65,43,45)"/>
<path d="M18 36h2v4h-2v-4z" fill="rgb(117,94,97)"/>
<path d="M22 36h2v4h-2v-4z" fill="rgb(117,94,97)"/>
<path d="M24 36h2v4h-2v-4z" fill="rgb(65,43,45)"/>
<path d="M26 36h2v2h-2v-2z" fill="rgb(116,128,27)"/>
<path d="M28 36h2v2h-2v-2z" fill="rgb(12,12,12)"/>
<path d="M30 36h2v4h-2v-4z" fill="rgb(65,43,45)"/>
<path d="M36 36h2v2h-2v-2z" fill="rgb(36,20,23)"/>
<path d="M2 38h2v2h-2v-2z" fill="rgb(36,20,23)"/>
<path d="M8 38h2v2h-2v-2z" fill="rgb(117,94,97)"/>
<path d="M12 38h2v2h-2v-2z" fill="rgb(137,151,33)"/>
<path d="M14 38h2v2h-2v-2z" fill="rgb(161,162,161)"/>
<path d="M26 38h2v2h-2v-2z" fill="rgb(161,162,161)"/>
<path d="M28 38h2v2h-2v-2z" fill="rgb(137,151,33)"/>
<path d="M32 38h2v2h-2v-2z" fill="rgb(117,94,97)"/>
<path d="M38 38h2v2h-2v-2z" fill="rgb(36,20,23)"/>
<path d="M4 40h2v4h-2v-4z" fill="rgb(36,20,23)"/>
<path d="M12 40h4v2h-4v-2z" fill="rgb(65,43,45)"/>
<path d="M16 40h2v2h-2v-2z" fill="rgb(117,94,97)"/>
<path d="M24 40h2v2h-2v-2z" fill="rgb(117,94,97)"/>
<path d="M26 40h4v2h-4v-2z" fill="rgb(65,43,45)"/>
<path d="M36 40h2v4h-2v-4z" fill="rgb(36,20,23)"/>
<path d="M10 42h2v2h-2v-2z" fill="rgb(147,119,122)"/>
<path d="M12 42h4v4h-4v-4z" fill="rgb(117,94,97)"/>
<path d="M26 42h4v4h-4v-4z" fill="rgb(117,94,97)"/>
<path d="M30 42h2v2h-2v-2z" fill="rgb(147,119,122)"/>
<path d="M6 44h2v2h-2v-2z" fill="rgb(36,20,23)"/>
<path d="M16 44h10v2h-10v-2z" fill="rgb(94,75,77)"/>
<path d="M34 44h2v2h-2v-2z" fill="rgb(36,20,23)"/>
</svg>