<?xml version="1.0" encoding="utf-8"?>
<!-- generated at drububu.com  -->
<!DOCTYPE svg PUBLIC "-//W3C//DTD SVG 1.1//EN" "http://www.w3.org/Graphics/SVG/1.1/DTD/svg11.dtd">
<svg version="1.1" preserveAspectRatio="xMinYMin meet" xmlns="http://www.w3.org/2000/svg" xmlns:xlink="http://www.w3.org/1999/xlink" x="0px" y="0px" width="42px" height="64px" viewBox="0 0 42 64">
<path d="M0 0h4v2h-2v2h2v2h2v2h-2v4h-2v4h-2v-16z" fill="rgb(255,255,255)"/>
<path d="M4 0h2v2h-2v-2z" fill="rgb(36,20,23)"/>
<path d="M6 0h4v2h-2v2h2v2h2v2h-2v4h-2v4h-2v2h2v6h2v2h-2v6h2v8h2v2h2v2h2v6h2v2
	h2v2h2v-2h2v-2h2v-4h2v-4h2v-2h2v-8h2v-6h-2v-2h2v-6h2v-2h-2v-4h-2v-4h-2v-2h2v-2
	h2v-2h-2v-2h4v2h2v2h-2v2h-2v2h2v4h2v4h2v2h-2v6h-2v2h2v6h-2v6h-2v4h-2v4h-2v2h-2
	v4h-2v2h-2v4h-2v4h-2v-4h-2v-4h-2v-2h-2v-4h-2v-2h-2v-4h-2v-4h-2v-6h-2v-6h2v-2h-2
	v-6h-2v-2h2v-4h2v-4h2v-2h-2v-2h-2v-2h2v-2z" fill="rgb(94,75,77)"/>
<path d="M10 0h4v2h-2v2h-4v-2h2v-2z" fill="rgb(117,94,97)"/>
<path d="M14 0h4v2h6v-2h4v2h2v2h-4v2h-10v-2h-4v-2h2v-2z" fill="rgb(147,119,122)"/>
<path d="M18 0h6v2h-6v-2z" fill="rgb(117,94,97)"/>
<path d="M28 0h4v2h2v2h-4v-2h-2v-2z" fill="rgb(117,94,97)"/>
<path d="M36 0h2v2h-2v-2z" fill="rgb(36,20,23)"/>
<path d="M38 0h4v16h-2v-4h-2v-4h-2v-2h2v-2h2v-2h-2v-2z" fill="rgb(255,255,255)"/>
<path d="M2 2h2v2h-2v-2z" fill="rgb(36,20,23)"/>
<path d="M38 2h2v2h-2v-2z" fill="rgb(36,20,23)"/>
<path d="M4 4h2v2h-2v-2z" fill="rgb(36,20,23)"/>
<path d="M10 4h2v2h-2v-2z" fill="rgb(147,119,122)"/>
<path d="M12 4h4v4h-4v-4z" fill="rgb(117,94,97)"/>
<path d="M26 4h4v4h-4v-4z" fill="rgb(117,94,97)"/>
<path d="M30 4h2v2h-2v-2z" fill="rgb(147,119,122)"/>
<path d="M36 4h2v2h-2v-2z" fill="rgb(36,20,23)"/>
<path d="M6 6h2v2h-2v-2z" fill="rgb(36,20,23)"/>
<path d="M16 6h10v2h-10v-2z" fill="rgb(94,75,77)"/>
<path d="M34 6h2v2h-2v-2z" fill="rgb(36,20,23)"/>
<path d="M4 8h2v4h-2v-4z" fill="rgb(36,20,23)"/>
<path d="M10 8h2v2h2v2h-2v2h2v6h-2v2h-2v2h-2v-6h-2v-2h2v-4h2v-4z" fill="rgb(117,94,97)"/>
<path d="M12 8h4v2h-4v-2z" fill="rgb(94,75,77)"/>
<path d="M16 8h2v4h-2v-4z" fill="rgb(117,94,97)"/>
<path d="M18 8h6v2h-6v-2z" fill="rgb(147,119,122)"/>
<path d="M24 8h2v4h-2v-4z" fill="rgb(117,94,97)"/>
<path d="M26 8h4v2h-4v-2z" fill="rgb(94,75,77)"/>
<path d="M30 8h2v4h2v4h2v2h-2v6h-2v-2h-2v-2h-2v-6h2v-2h-2v-2h2v-2z" fill="rgb(117,94,97)"/>
<path d="M36 8h2v4h-2v-4z" fill="rgb(36,20,23)"/>
<path d="M14 10h2v2h-2v-2z" fill="rgb(147,119,122)"/>
<path d="M18 10h6v2h-6v-2z" fill="rgb(23,26,8)"/>
<path d="M26 10h2v2h-2v-2z" fill="rgb(147,119,122)"/>
<path d="M2 12h2v4h-2v-4z" fill="rgb(36,20,23)"/>
<path d="M12 12h2v2h-2v-2z" fill="rgb(147,119,122)"/>
<path d="M14 12h2v2h-2v-2z" fill="rgb(117,94,97)"/>
<path d="M16 12h2v2h-2v-2z" fill="rgb(23,26,8)"/>
<path d="M18 12h6v2h-2v2h-2v-2h-2v-2z" fill="rgb(12,12,12)"/>
<path d="M24 12h2v2h-2v-2z" fill="rgb(23,26,8)"/>
<path d="M26 12h2v2h-2v-2z" fill="rgb(117,94,97)"/>
<path d="M28 12h2v2h-2v-2z" fill="rgb(147,119,122)"/>
<path d="M38 12h2v4h-2v-4z" fill="rgb(36,20,23)"/>
<path d="M14 14h2v2h-2v-2z" fill="rgb(23,26,8)"/>
<path d="M16 14h2v2h-2v-2z" fill="rgb(90,104,19)"/>
<path d="M18 14h2v2h-2v-2z" fill="rgb(42,45,20)"/>
<path d="M22 14h2v2h-2v-2z" fill="rgb(42,45,20)"/>
<path d="M24 14h2v2h-2v-2z" fill="rgb(148,168,37)"/>
<path d="M26 14h2v2h-2v-2z" fill="rgb(23,26,8)"/>
<path d="M0 16h2v2h-2v-2z" fill="rgb(36,20,23)"/>
<path d="M10 16h2v2h-2v-2z" fill="rgb(147,119,122)"/>
<path d="M14 16h2v2h-2v-2z" fill="rgb(58,59,58)"/>
<path d="M16 16h2v2h-2v-2z" fill="rgb(161,162,161)"/>
<path d="M18 16h2v2h-2v-2z" fill="rgb(90,104,19)"/>
<path d="M20 16h2v2h-2v-2z" fill="rgb(116,128,27)"/>
<path d="M22 16h2v2h-2v-2z" fill="rgb(137,151,33)"/>
<path d="M24 16h2v2h-2v-2z" fill="rgb(216,216,216)"/>
<path d="M26 16h2v2h-2v-2z" fill="rgb(58,59,58)"/>
<path d="M30 16h2v2h-2v-2z" fill="rgb(147,119,122)"/>
<path d="M40 16h2v2h-2v-2z" fill="rgb(36,20,23)"/>
<path d="M0 18h2v6h2v2h-2v6h2v6h2v4h2v4h2v2h2v4h2v2h2v4h2v4h2v2h-20v-46z" fill="rgb(255,255,255)"/>
<path d="M2 18h2v6h-2v-6z" fill="rgb(36,20,23)"/>
<path d="M14 18h2v2h-2v-2z" fill="rgb(52,32,32)"/>
<path d="M16 18h2v2h-2v-2z" fill="rgb(76,41,41)"/>
<path d="M18 18h6v2h-6v-2z" fill="rgb(216,216,216)"/>
<path d="M24 18h2v2h-2v-2z" fill="rgb(144,74,74)"/>
<path d="M26 18h2v2h-2v-2z" fill="rgb(52,32,32)"/>
<path d="M38 18h2v6h-2v-6z" fill="rgb(36,20,23)"/>
<path d="M40 18h2v46h-20v-2h2v-4h2v-4h2v-2h2v-4h2v-2h2v-4h2v-4h2v-6h2v-6h-2v-2
	h2v-6z" fill="rgb(255,255,255)"/>
<path d="M12 20h2v2h2v2h2v2h6v-2h2v-2h2v-2h2v2h2v2h-4v2h2v2h-6v2h-2v4h2v2h2v2
	h-10v-2h2v-2h2v-4h-2v-2h-6v-2h2v-2h-4v-2h2v-2z" fill="rgb(147,119,122)"/>
<path d="M14 20h2v2h-2v-2z" fill="rgb(117,94,97)"/>
<path d="M16 20h2v2h-2v-2z" fill="rgb(52,32,32)"/>
<path d="M18 20h6v2h-6v-2z" fill="rgb(128,91,91)"/>
<path d="M24 20h2v2h-2v-2z" fill="rgb(52,32,32)"/>
<path d="M26 20h2v2h-2v-2z" fill="rgb(117,94,97)"/>
<path d="M16 22h2v2h-2v-2z" fill="rgb(117,94,97)"/>
<path d="M18 22h6v2h-6v-2z" fill="rgb(52,32,32)"/>
<path d="M24 22h2v2h-2v-2z" fill="rgb(117,94,97)"/>
<path d="M4 24h2v2h-2v-2z" fill="rgb(36,20,23)"/>
<path d="M10 24h4v2h-2v4h-2v2h-2v-6h2v-2z" fill="rgb(117,94,97)"/>
<path d="M18 24h6v2h-6v-2z" fill="rgb(117,94,97)"/>
<path d="M28 24h4v2h2v6h-2v-2h-2v-4h-2v-2z" fill="rgb(117,94,97)"/>
<path d="M36 24h2v2h-2v-2z" fill="rgb(36,20,23)"/>
<path d="M2 26h2v6h-2v-6z" fill="rgb(36,20,23)"/>
<path d="M38 26h2v6h-2v-6z" fill="rgb(36,20,23)"/>
<path d="M12 28h4v2h-4v-2z" fill="rgb(65,43,45)"/>
<path d="M16 28h2v2h-2v-2z" fill="rgb(117,94,97)"/>
<path d="M24 28h2v2h-2v-2z" fill="rgb(117,94,97)"/>
<path d="M26 28h4v2h-4v-2z" fill="rgb(65,43,45)"/>
<path d="M10 30h2v4h-2v-4z" fill="rgb(65,43,45)"/>
<path d="M12 30h2v2h-2v-2z" fill="rgb(137,151,33)"/>
<path d="M14 30h2v2h-2v-2z" fill="rgb(161,162,161)"/>
<path d="M16 30h2v4h-2v-4z" fill="rgb(65,43,45)"/>
<path d="M18 30h2v4h-2v-4z" fill="rgb(117,94,97)"/>
<path d="M22 30h2v4h-2v-4z" fill="rgb(117,94,97)"/>
<path d="M24 30h2v4h-2v-4z" fill="rgb(65,43,45)"/>
<path d="M26 30h2v2h-2v-2z" fill="rgb(161,162,161)"/>
<path d="M28 30h2v2h-2v-2z" fill="rgb(137,151,33)"/>
<path d="M30 30h2v4h-2v-4z" fill="rgb(65,43,45)"/>
<path d="M4 32h2v6h-2v-6z" fill="rgb(36,20,23)"/>
<path d="M12 32h2v2h-2v-2z" fill="rgb(12,12,12)"/>
<path d="M14 32h2v2h-2v-2z" fill="rgb(116,128,27)"/>
<path d="M26 32h2v2h-2v-2z" fill="rgb(116,128,27)"/>
<path d="M28 32h2v2h-2v-2z" fill="rgb(12,12,12)"/>
<path d="M36 32h2v6h-2v-6z" fill="rgb(36,20,23)"/>
<path d="M10 34h2v2h4v2h2v2h-4v2h-2v-2h-2v-6z" fill="rgb(117,94,97)"/>
<path d="M12 34h4v2h-4v-2z" fill="rgb(65,43,45)"/>
<path d="M16 34h2v2h-2v-2z" fill="rgb(117,94,97)"/>
<path d="M24 34h2v2h-2v-2z" fill="rgb(117,94,97)"/>
<path d="M26 34h4v2h-4v-2z" fill="rgb(65,43,45)"/>
<path d="M30 34h2v6h-2v2h-2v-2h-4v-2h2v-2h4v-2z" fill="rgb(117,94,97)"/>
<path d="M6 38h2v4h-2v-4z" fill="rgb(36,20,23)"/>
<path d="M18 38h6v2h-6v-2z" fill="rgb(94,75,77)"/>
<path d="M34 38h2v4h-2v-4z" fill="rgb(36,20,23)"/>
<path d="M14 40h4v2h-4v-2z" fill="rgb(94,75,77)"/>
<path d="M18 40h6v2h-6v-2z" fill="rgb(117,94,97)"/>
<path d="M24 40h4v2h-4v-2z" fill="rgb(94,75,77)"/>
<path d="M8 42h2v4h-2v-4z" fill="rgb(36,20,23)"/>
<path d="M14 42h4v2h2v4h-2v2h-2v-6h-2v-2z" fill="rgb(117,94,97)"/>
<path d="M18 42h6v2h-2v4h-2v-4h-2v-2z" fill="rgb(147,119,122)"/>
<path d="M24 42h4v4h-2v4h-2v-2h-2v-4h2v-2z" fill="rgb(117,94,97)"/>
<path d="M32 42h2v4h-2v-4z" fill="rgb(36,20,23)"/>
<path d="M10 46h2v2h-2v-2z" fill="rgb(36,20,23)"/>
<path d="M30 46h2v2h-2v-2z" fill="rgb(36,20,23)"/>
<path d="M12 48h2v4h-2v-4z" fill="rgb(36,20,23)"/>
<path d="M18 48h2v2h-2v-2z" fill="rgb(147,119,122)"/>
<path d="M20 48h2v2h2v2h-2v2h-2v-2h-2v-2h2v-2z" fill="rgb(117,94,97)"/>
<path d="M22 48h2v2h-2v-2z" fill="rgb(147,119,122)"/>
<path d="M28 48h2v4h-2v-4z" fill="rgb(36,20,23)"/>
<path d="M14 52h2v2h-2v-2z" fill="rgb(36,20,23)"/>
<path d="M26 52h2v2h-2v-2z" fill="rgb(36,20,23)"/>
<path d="M16 54h2v4h-2v-4z" fill="rgb(36,20,23)"/>
<path d="M24 54h2v4h-2v-4z" fill="rgb(36,20,23)"/>
<path d="M18 58h2v4h-2v-4z" fill="rgb(36,20,23)"/>
<path d="M22 58h2v4h-2v-4z" fill="rgb(36,20,23)"/>
<path d="M20 62h2v2h-2v-2z" fill="rgb(36,20,23)"/>
</svg>