<?xml version="1.0" encoding="utf-8"?>
<!-- generated at drububu.com  -->
<!DOCTYPE svg PUBLIC "-//W3C//DTD SVG 1.1//EN" "http://www.w3.org/Graphics/SVG/1.1/DTD/svg11.dtd">
<svg version="1.1" preserveAspectRatio="xMinYMin meet" xmlns="http://www.w3.org/2000/svg" xmlns:xlink="http://www.w3.org/1999/xlink" x="0px" y="0px" width="110px" height="106px" viewBox="0 0 110 106">
<path d="M0 0h52v2h-2v2h-2v2h-2v2h-4v2h-2v4h-4v2h-2v2h-2v2h-2v4h-4v2h-2v2h-2v-2
	h-2v-2h-14v2h-2v2h-2v2h-2v-30z" fill="rgb(255,255,255)"/>
<path d="M52 0h8v2h-8v-2z" fill="rgb(10,0,19)"/>
<path d="M60 0h50v30h-2v-2h-2v-2h-2v-2h-14v2h-2v2h-2v-2h-2v-2h-4v-4h-2v-2h-2v-4
	h-2v-4h-2v-2h-4v-2h-2v-2h-4v-2h-2v-2z" fill="rgb(255,255,255)"/>
<path d="M50 2h2v4h-4v-2h2v-2z" fill="rgb(10,0,19)"/>
<path d="M52 2h2v4h-2v-4z" fill="rgb(142,53,0)"/>
<path d="M54 2h2v2h-2v-2z" fill="rgb(151,73,8)"/>
<path d="M56 2h2v2h-2v-2z" fill="rgb(205,101,14)"/>
<path d="M58 2h2v2h-2v-2z" fill="rgb(142,53,0)"/>
<path d="M60 2h2v2h4v2h-6v-4z" fill="rgb(10,0,19)"/>
<path d="M54 4h2v6h-2v-2h-2v-2h2v-2z" fill="rgb(95,25,0)"/>
<path d="M56 4h2v2h-2v-2z" fill="rgb(151,73,8)"/>
<path d="M58 4h2v2h-2v-2z" fill="rgb(205,101,14)"/>
<path d="M46 6h2v4h-6v-2h4v-2z" fill="rgb(10,0,19)"/>
<path d="M48 6h2v2h-2v-2z" fill="rgb(151,73,8)"/>
<path d="M50 6h2v2h-2v-2z" fill="rgb(48,8,0)"/>
<path d="M56 6h2v2h-2v-2z" fill="rgb(142,53,0)"/>
<path d="M58 6h2v2h-2v-2z" fill="rgb(151,73,8)"/>
<path d="M60 6h2v2h-2v-2z" fill="rgb(48,8,0)"/>
<path d="M62 6h2v2h-2v-2z" fill="rgb(95,25,0)"/>
<path d="M64 6h2v2h-2v-2z" fill="rgb(205,101,14)"/>
<path d="M66 6h2v2h4v2h-6v-4z" fill="rgb(10,0,19)"/>
<path d="M48 8h2v2h-2v-2z" fill="rgb(95,25,0)"/>
<path d="M50 8h2v2h-2v-2z" fill="rgb(142,53,0)"/>
<path d="M52 8h2v2h-2v-2z" fill="rgb(48,8,0)"/>
<path d="M56 8h2v2h-2v-2z" fill="rgb(151,73,8)"/>
<path d="M58 8h2v2h-2v-2z" fill="rgb(142,53,0)"/>
<path d="M60 8h2v2h-2v-2z" fill="rgb(95,25,0)"/>
<path d="M62 8h2v2h-2v-2z" fill="rgb(142,53,0)"/>
<path d="M64 8h2v2h-2v-2z" fill="rgb(151,73,8)"/>
<path d="M40 10h2v4h-2v-4z" fill="rgb(10,0,19)"/>
<path d="M42 10h2v2h4v2h-6v-4z" fill="rgb(95,25,0)"/>
<path d="M44 10h2v2h-2v-2z" fill="rgb(142,53,0)"/>
<path d="M46 10h2v2h-2v-2z" fill="rgb(151,73,8)"/>
<path d="M48 10h2v4h-2v-4z" fill="rgb(48,8,0)"/>
<path d="M50 10h4v2h-4v-2z" fill="rgb(95,25,0)"/>
<path d="M54 10h4v2h2v2h-10v-2h4v-2z" fill="rgb(142,53,0)"/>
<path d="M58 10h2v2h-2v-2z" fill="rgb(95,25,0)"/>
<path d="M60 10h2v6h-4v-2h2v-4z" fill="rgb(48,8,0)"/>
<path d="M62 10h2v2h-2v-2z" fill="rgb(95,25,0)"/>
<path d="M64 10h2v2h-2v-2z" fill="rgb(142,53,0)"/>
<path d="M66 10h2v2h-2v-2z" fill="rgb(95,25,0)"/>
<path d="M68 10h2v2h-2v-2z" fill="rgb(142,53,0)"/>
<path d="M70 10h2v2h-2v-2z" fill="rgb(205,101,14)"/>
<path d="M72 10h2v4h-2v-4z" fill="rgb(10,0,19)"/>
<path d="M62 12h2v2h-2v-2z" fill="rgb(142,53,0)"/>
<path d="M64 12h2v2h-2v-2z" fill="rgb(95,25,0)"/>
<path d="M66 12h2v10h-2v-6h-2v-2h2v-2z" fill="rgb(48,8,0)"/>
<path d="M68 12h2v4h-2v-4z" fill="rgb(95,25,0)"/>
<path d="M70 12h2v2h-2v-2z" fill="rgb(142,53,0)"/>
<path d="M36 14h4v2h-4v-2z" fill="rgb(10,0,19)"/>
<path d="M40 14h8v2h-8v-2z" fill="rgb(48,8,0)"/>
<path d="M48 14h2v2h-2v-2z" fill="rgb(95,25,0)"/>
<path d="M50 14h2v2h-2v-2z" fill="rgb(48,8,0)"/>
<path d="M52 14h6v2h-6v-2z" fill="rgb(95,25,0)"/>
<path d="M62 14h2v2h-2v-2z" fill="rgb(95,25,0)"/>
<path d="M70 14h4v2h-4v-2z" fill="rgb(48,8,0)"/>
<path d="M74 14h2v4h-2v-4z" fill="rgb(10,0,19)"/>
<path d="M34 16h2v2h-2v-2z" fill="rgb(10,0,19)"/>
<path d="M36 16h2v6h2v-2h2v2h6v2h-2v2h-2v-2h-10v-2h2v-2h-2v-2h2v-2z" fill="rgb(95,25,0)"/>
<path d="M38 16h4v2h-2v2h-2v-4z" fill="rgb(142,53,0)"/>
<path d="M42 16h2v2h-2v-2z" fill="rgb(151,73,8)"/>
<path d="M44 16h2v2h-2v-2z" fill="rgb(142,53,0)"/>
<path d="M46 16h2v2h-2v-2z" fill="rgb(95,25,0)"/>
<path d="M48 16h2v6h-2v-6z" fill="rgb(48,8,0)"/>
<path d="M50 16h4v2h-4v-2z" fill="rgb(142,53,0)"/>
<path d="M54 16h2v2h-2v-2z" fill="rgb(205,101,14)"/>
<path d="M56 16h2v2h-2v-2z" fill="rgb(142,53,0)"/>
<path d="M58 16h4v2h-4v-2z" fill="rgb(151,73,8)"/>
<path d="M62 16h4v2h-4v-2z" fill="rgb(142,53,0)"/>
<path d="M68 16h4v2h-2v2h-2v-4z" fill="rgb(142,53,0)"/>
<path d="M72 16h2v4h-2v-4z" fill="rgb(151,73,8)"/>
<path d="M32 18h2v2h-2v-2z" fill="rgb(10,0,19)"/>
<path d="M40 18h2v2h-2v-2z" fill="rgb(151,73,8)"/>
<path d="M42 18h4v2h-4v-2z" fill="rgb(205,101,14)"/>
<path d="M46 18h2v4h-2v-4z" fill="rgb(151,73,8)"/>
<path d="M50 18h4v2h-2v2h2v2h-4v-6z" fill="rgb(95,25,0)"/>
<path d="M54 18h2v2h-2v-2z" fill="rgb(142,53,0)"/>
<path d="M56 18h2v2h-2v-2z" fill="rgb(151,73,8)"/>
<path d="M58 18h4v2h-4v-2z" fill="rgb(205,101,14)"/>
<path d="M62 18h2v2h-2v-2z" fill="rgb(151,73,8)"/>
<path d="M64 18h2v2h-2v-2z" fill="rgb(95,25,0)"/>
<path d="M70 18h2v2h-2v-2z" fill="rgb(205,101,14)"/>
<path d="M74 18h2v2h-2v-2z" fill="rgb(48,8,0)"/>
<path d="M76 18h2v2h-2v-2z" fill="rgb(10,0,19)"/>
<path d="M30 20h2v4h-2v-4z" fill="rgb(10,0,19)"/>
<path d="M32 20h2v2h-2v-2z" fill="rgb(95,25,0)"/>
<path d="M34 20h2v2h-2v-2z" fill="rgb(142,53,0)"/>
<path d="M38 20h2v2h-2v-2z" fill="rgb(151,73,8)"/>
<path d="M42 20h4v2h-4v-2z" fill="rgb(142,53,0)"/>
<path d="M52 20h2v2h-2v-2z" fill="rgb(142,53,0)"/>
<path d="M54 20h2v2h-2v-2z" fill="rgb(151,73,8)"/>
<path d="M56 20h2v2h-2v-2z" fill="rgb(95,25,0)"/>
<path d="M58 20h4v2h-4v-2z" fill="rgb(151,73,8)"/>
<path d="M62 20h2v2h-2v-2z" fill="rgb(142,53,0)"/>
<path d="M64 20h2v2h-2v-2z" fill="rgb(151,73,8)"/>
<path d="M68 20h2v2h6v-2h2v4h-10v-4z" fill="rgb(95,25,0)"/>
<path d="M70 20h4v2h-4v-2z" fill="rgb(142,53,0)"/>
<path d="M74 20h2v2h-2v-2z" fill="rgb(151,73,8)"/>
<path d="M78 20h2v4h-2v-4z" fill="rgb(10,0,19)"/>
<path d="M32 22h2v2h10v2h-14v-2h2v-2z" fill="rgb(48,8,0)"/>
<path d="M48 22h2v4h-2v-4z" fill="rgb(10,0,19)"/>
<path d="M54 22h2v4h-2v-4z" fill="rgb(205,101,14)"/>
<path d="M56 22h2v2h-2v-2z" fill="rgb(48,8,0)"/>
<path d="M58 22h8v2h-8v-2z" fill="rgb(95,25,0)"/>
<path d="M66 22h2v4h-2v-4z" fill="rgb(10,0,19)"/>
<path d="M6 24h14v2h-14v-2z" fill="rgb(10,0,19)"/>
<path d="M26 24h4v2h-4v-2z" fill="rgb(10,0,19)"/>
<path d="M46 24h2v2h-2v-2z" fill="rgb(48,8,0)"/>
<path d="M50 24h2v2h-2v-2z" fill="rgb(48,8,0)"/>
<path d="M52 24h2v4h-2v-4z" fill="rgb(151,73,8)"/>
<path d="M56 24h2v4h-2v-4z" fill="rgb(151,73,8)"/>
<path d="M58 24h4v2h-4v-2z" fill="rgb(48,8,0)"/>
<path d="M62 24h2v2h-2v-2z" fill="rgb(10,0,19)"/>
<path d="M64 24h2v2h-2v-2z" fill="rgb(48,8,0)"/>
<path d="M68 24h12v2h-12v-2z" fill="rgb(48,8,0)"/>
<path d="M80 24h4v2h-4v-2z" fill="rgb(10,0,19)"/>
<path d="M90 24h14v2h-14v-2z" fill="rgb(10,0,19)"/>
<path d="M4 26h2v2h-2v-2z" fill="rgb(10,0,19)"/>
<path d="M6 26h4v2h-2v2h-4v-2h2v-2z" fill="rgb(205,101,14)"/>
<path d="M10 26h2v2h2v2h-2v2h-4v2h-2v-2h-2v-2h4v-2h2v-2z" fill="rgb(151,73,8)"/>
<path d="M12 26h2v2h-2v-2z" fill="rgb(142,53,0)"/>
<path d="M14 26h2v2h-2v-2z" fill="rgb(151,73,8)"/>
<path d="M16 26h2v2h2v6h-6v-2h-2v-2h2v-2h2v-2z" fill="rgb(142,53,0)"/>
<path d="M18 26h2v2h-2v-2z" fill="rgb(95,25,0)"/>
<path d="M20 26h2v2h-2v-2z" fill="rgb(10,0,19)"/>
<path d="M24 26h2v4h-4v-2h2v-2z" fill="rgb(10,0,19)"/>
<path d="M26 26h2v2h-2v-2z" fill="rgb(48,8,0)"/>
<path d="M28 26h2v2h2v-2h6v2h-4v2h-2v4h2v2h-4v-6h-2v-4z" fill="rgb(142,53,0)"/>
<path d="M30 26h2v2h-2v-2z" fill="rgb(205,101,14)"/>
<path d="M38 26h4v2h-4v-2z" fill="rgb(95,25,0)"/>
<path d="M42 26h8v2h-2v2h-2v-2h-4v-2z" fill="rgb(142,53,0)"/>
<path d="M50 26h2v2h-2v-2z" fill="rgb(95,25,0)"/>
<path d="M54 26h2v2h-2v-2z" fill="rgb(142,53,0)"/>
<path d="M58 26h4v2h6v2h-4v2h-4v-4h-2v-2z" fill="rgb(95,25,0)"/>
<path d="M62 26h6v2h-6v-2z" fill="rgb(142,53,0)"/>
<path d="M68 26h4v2h-4v-2z" fill="rgb(95,25,0)"/>
<path d="M72 26h6v2h-4v2h-2v-4z" fill="rgb(142,53,0)"/>
<path d="M78 26h2v2h-2v-2z" fill="rgb(205,101,14)"/>
<path d="M80 26h2v2h-2v-2z" fill="rgb(142,53,0)"/>
<path d="M82 26h2v2h-2v-2z" fill="rgb(95,25,0)"/>
<path d="M84 26h2v2h-2v-2z" fill="rgb(10,0,19)"/>
<path d="M88 26h2v2h-2v-2z" fill="rgb(10,0,19)"/>
<path d="M90 26h2v2h-2v-2z" fill="rgb(95,25,0)"/>
<path d="M92 26h2v2h2v2h2v2h-2v2h-6v-4h-2v-2h4v-2z" fill="rgb(142,53,0)"/>
<path d="M94 26h2v2h-2v-2z" fill="rgb(151,73,8)"/>
<path d="M96 26h2v2h-2v-2z" fill="rgb(142,53,0)"/>
<path d="M98 26h2v2h2v2h4v2h-2v2h-2v-2h-4v-2h-2v-2h2v-2z" fill="rgb(151,73,8)"/>
<path d="M100 26h4v2h2v2h-4v-2h-2v-2z" fill="rgb(205,101,14)"/>
<path d="M104 26h2v2h-2v-2z" fill="rgb(10,0,19)"/>
<path d="M2 28h2v2h-2v-2z" fill="rgb(10,0,19)"/>
<path d="M20 28h2v6h-2v-6z" fill="rgb(95,25,0)"/>
<path d="M26 28h2v2h2v6h-2v-4h-2v-4z" fill="rgb(95,25,0)"/>
<path d="M34 28h4v2h-4v-2z" fill="rgb(151,73,8)"/>
<path d="M38 28h4v2h-4v-2z" fill="rgb(205,101,14)"/>
<path d="M42 28h4v2h-4v-2z" fill="rgb(95,25,0)"/>
<path d="M48 28h2v4h-4v-2h2v-2z" fill="rgb(95,25,0)"/>
<path d="M50 28h4v4h-2v-2h-2v-2z" fill="rgb(142,53,0)"/>
<path d="M54 28h2v2h-2v-2z" fill="rgb(255,225,48)"/>
<path d="M56 28h2v4h-2v-4z" fill="rgb(142,53,0)"/>
<path d="M58 28h2v2h-2v-2z" fill="rgb(205,101,14)"/>
<path d="M68 28h4v2h-4v-2z" fill="rgb(205,101,14)"/>
<path d="M74 28h2v6h-4v-2h2v-4z" fill="rgb(151,73,8)"/>
<path d="M76 28h2v4h-2v-4z" fill="rgb(95,25,0)"/>
<path d="M78 28h2v2h-2v-2z" fill="rgb(142,53,0)"/>
<path d="M80 28h2v2h-2v-2z" fill="rgb(95,25,0)"/>
<path d="M82 28h2v2h-2v-2z" fill="rgb(205,101,14)"/>
<path d="M84 28h2v2h-2v-2z" fill="rgb(142,53,0)"/>
<path d="M86 28h2v18h-2v-18z" fill="rgb(10,0,19)"/>
<path d="M106 28h2v2h-2v-2z" fill="rgb(10,0,19)"/>
<path d="M0 30h2v6h-2v-6z" fill="rgb(10,0,19)"/>
<path d="M2 30h2v2h-2v-2z" fill="rgb(205,101,14)"/>
<path d="M16 30h2v2h-2v-2z" fill="rgb(95,25,0)"/>
<path d="M22 30h4v4h-2v-2h-2v-2z" fill="rgb(48,8,0)"/>
<path d="M32 30h2v4h-2v-4z" fill="rgb(95,25,0)"/>
<path d="M34 30h2v2h-2v-2z" fill="rgb(205,101,14)"/>
<path d="M36 30h2v2h-2v-2z" fill="rgb(255,225,48)"/>
<path d="M38 30h2v4h-4v-2h2v-2z" fill="rgb(142,53,0)"/>
<path d="M40 30h2v2h4v2h-2v2h-2v-2h-2v-4z" fill="rgb(151,73,8)"/>
<path d="M42 30h4v2h-4v-2z" fill="rgb(205,101,14)"/>
<path d="M50 30h2v2h-2v-2z" fill="rgb(151,73,8)"/>
<path d="M54 30h2v2h-2v-2z" fill="rgb(255,233,102)"/>
<path d="M58 30h2v2h-2v-2z" fill="rgb(151,73,8)"/>
<path d="M64 30h4v2h-4v-2z" fill="rgb(205,101,14)"/>
<path d="M68 30h4v4h-2v-2h-2v-2z" fill="rgb(142,53,0)"/>
<path d="M72 30h2v2h-2v-2z" fill="rgb(255,225,48)"/>
<path d="M78 30h4v2h-4v-2z" fill="rgb(48,8,0)"/>
<path d="M82 30h2v2h-2v-2z" fill="rgb(142,53,0)"/>
<path d="M84 30h2v2h-2v-2z" fill="rgb(151,73,8)"/>
<path d="M88 30h2v4h-2v-4z" fill="rgb(95,25,0)"/>
<path d="M92 30h2v2h-2v-2z" fill="rgb(95,25,0)"/>
<path d="M106 30h2v2h-2v-2z" fill="rgb(205,101,14)"/>
<path d="M108 30h2v6h-2v-6z" fill="rgb(10,0,19)"/>
<path d="M2 32h2v2h-2v-2z" fill="rgb(95,25,0)"/>
<path d="M4 32h2v2h-2v-2z" fill="rgb(142,53,0)"/>
<path d="M8 32h4v2h-4v-2z" fill="rgb(142,53,0)"/>
<path d="M12 32h2v2h-2v-2z" fill="rgb(151,73,8)"/>
<path d="M22 32h2v14h-2v-14z" fill="rgb(10,0,19)"/>
<path d="M26 32h2v2h-2v-2z" fill="rgb(205,101,14)"/>
<path d="M34 32h2v2h-2v-2z" fill="rgb(151,73,8)"/>
<path d="M46 32h2v2h-2v-2z" fill="rgb(142,53,0)"/>
<path d="M48 32h2v2h-2v-2z" fill="rgb(255,225,48)"/>
<path d="M50 32h2v2h-2v-2z" fill="rgb(142,53,0)"/>
<path d="M52 32h2v2h-2v-2z" fill="rgb(205,101,14)"/>
<path d="M54 32h2v2h-2v-2z" fill="rgb(255,157,39)"/>
<path d="M56 32h2v2h-2v-2z" fill="rgb(151,73,8)"/>
<path d="M58 32h2v2h-2v-2z" fill="rgb(142,53,0)"/>
<path d="M60 32h2v2h-2v-2z" fill="rgb(255,225,48)"/>
<path d="M62 32h8v2h-6v2h-2v-4z" fill="rgb(151,73,8)"/>
<path d="M76 32h2v2h-2v-2z" fill="rgb(48,8,0)"/>
<path d="M78 32h4v2h-2v4h-2v-2h-2v-2h2v-2z" fill="rgb(95,25,0)"/>
<path d="M82 32h2v2h-2v-2z" fill="rgb(48,8,0)"/>
<path d="M84 32h2v2h-2v-2z" fill="rgb(142,53,0)"/>
<path d="M96 32h2v2h-2v-2z" fill="rgb(151,73,8)"/>
<path d="M98 32h4v2h-4v-2z" fill="rgb(142,53,0)"/>
<path d="M104 32h2v2h-2v-2z" fill="rgb(142,53,0)"/>
<path d="M106 32h2v2h-2v-2z" fill="rgb(95,25,0)"/>
<path d="M2 34h2v2h-2v-2z" fill="rgb(48,8,0)"/>
<path d="M4 34h16v6h-4v-2h-8v-2h-4v-2z" fill="rgb(95,25,0)"/>
<path d="M20 34h2v12h4v4h-4v2h2v2h-4v-6h-4v-6h-2v-2h-8v-2h-2v-2h4v2h8v2h4v-6z" fill="rgb(48,8,0)"/>
<path d="M24 34h4v2h-4v-2z" fill="rgb(142,53,0)"/>
<path d="M34 34h2v2h-2v-2z" fill="rgb(48,8,0)"/>
<path d="M36 34h6v2h-6v-2z" fill="rgb(95,25,0)"/>
<path d="M44 34h2v2h-2v-2z" fill="rgb(95,25,0)"/>
<path d="M46 34h2v2h-2v-2z" fill="rgb(151,73,8)"/>
<path d="M48 34h2v2h-2v-2z" fill="rgb(142,53,0)"/>
<path d="M50 34h2v2h-2v-2z" fill="rgb(255,157,39)"/>
<path d="M52 34h2v2h-2v-2z" fill="rgb(142,53,0)"/>
<path d="M54 34h2v2h-2v-2z" fill="rgb(255,225,48)"/>
<path d="M56 34h2v2h-2v-2z" fill="rgb(142,53,0)"/>
<path d="M58 34h2v2h-2v-2z" fill="rgb(255,157,39)"/>
<path d="M60 34h2v2h-2v-2z" fill="rgb(142,53,0)"/>
<path d="M64 34h4v2h-4v-2z" fill="rgb(142,53,0)"/>
<path d="M68 34h6v2h-6v-2z" fill="rgb(95,25,0)"/>
<path d="M74 34h2v2h-2v-2z" fill="rgb(48,8,0)"/>
<path d="M80 34h2v2h2v2h-4v-4z" fill="rgb(142,53,0)"/>
<path d="M82 34h2v2h-2v-2z" fill="rgb(205,101,14)"/>
<path d="M84 34h2v2h-2v-2z" fill="rgb(95,25,0)"/>
<path d="M88 34h2v6h4v-2h8v-2h4v2h-2v2h-8v2h-2v6h-4v4h-2v-2h-2v-4h2v-12z" fill="rgb(48,8,0)"/>
<path d="M90 34h16v2h-4v2h-8v2h-4v-6z" fill="rgb(95,25,0)"/>
<path d="M106 34h2v2h-2v-2z" fill="rgb(48,8,0)"/>
<path d="M0 36h2v2h2v2h2v2h8v6h2v2h-6v2h-4v2h-4v2h-2v-20z" fill="rgb(255,255,255)"/>
<path d="M2 36h2v2h-2v-2z" fill="rgb(10,0,19)"/>
<path d="M24 36h2v4h2v2h-2v2h-2v-8z" fill="rgb(48,8,0)"/>
<path d="M26 36h2v2h-2v-2z" fill="rgb(95,25,0)"/>
<path d="M28 36h2v4h-4v-2h2v-2z" fill="rgb(142,53,0)"/>
<path d="M30 36h2v2h-2v-2z" fill="rgb(95,25,0)"/>
<path d="M32 36h2v2h-2v-2z" fill="rgb(151,73,8)"/>
<path d="M34 36h4v4h-2v-2h-2v-2z" fill="rgb(205,101,14)"/>
<path d="M38 36h2v2h-2v-2z" fill="rgb(142,53,0)"/>
<path d="M40 36h2v2h-2v-2z" fill="rgb(151,73,8)"/>
<path d="M42 36h4v2h-4v-2z" fill="rgb(205,101,14)"/>
<path d="M46 36h2v2h-2v-2z" fill="rgb(255,225,48)"/>
<path d="M48 36h2v2h-2v-2z" fill="rgb(255,157,39)"/>
<path d="M50 36h2v2h-2v-2z" fill="rgb(151,73,8)"/>
<path d="M52 36h2v2h-2v-2z" fill="rgb(255,225,48)"/>
<path d="M54 36h2v2h-2v-2z" fill="rgb(255,233,102)"/>
<path d="M56 36h2v2h-2v-2z" fill="rgb(255,225,48)"/>
<path d="M58 36h2v2h-2v-2z" fill="rgb(151,73,8)"/>
<path d="M60 36h2v2h-2v-2z" fill="rgb(255,157,39)"/>
<path d="M62 36h2v2h-2v-2z" fill="rgb(255,225,48)"/>
<path d="M64 36h4v2h-4v-2z" fill="rgb(205,101,14)"/>
<path d="M68 36h4v2h-2v2h-6v-2h4v-2z" fill="rgb(151,73,8)"/>
<path d="M72 36h2v2h-2v-2z" fill="rgb(205,101,14)"/>
<path d="M74 36h2v2h-2v-2z" fill="rgb(142,53,0)"/>
<path d="M76 36h2v6h-2v-6z" fill="rgb(151,73,8)"/>
<path d="M84 36h2v6h-2v-2h-2v-2h2v-2z" fill="rgb(48,8,0)"/>
<path d="M106 36h2v2h-2v-2z" fill="rgb(10,0,19)"/>
<path d="M108 36h2v20h-2v-2h-4v-2h-4v-2h-6v-2h2v-6h8v-2h2v-2h2v-2z" fill="rgb(255,255,255)"/>
<path d="M4 38h2v2h-2v-2z" fill="rgb(10,0,19)"/>
<path d="M30 38h2v4h-2v-4z" fill="rgb(48,8,0)"/>
<path d="M32 38h2v2h-2v-2z" fill="rgb(142,53,0)"/>
<path d="M34 38h2v2h-2v-2z" fill="rgb(255,225,48)"/>
<path d="M38 38h2v2h-2v-2z" fill="rgb(151,73,8)"/>
<path d="M40 38h2v2h-2v-2z" fill="rgb(142,53,0)"/>
<path d="M42 38h2v2h-2v-2z" fill="rgb(151,73,8)"/>
<path d="M44 38h6v2h-6v-2z" fill="rgb(142,53,0)"/>
<path d="M50 38h2v2h-2v-2z" fill="rgb(48,8,0)"/>
<path d="M52 38h2v2h-2v-2z" fill="rgb(142,53,0)"/>
<path d="M54 38h4v2h-4v-2z" fill="rgb(151,73,8)"/>
<path d="M58 38h2v2h-2v-2z" fill="rgb(48,8,0)"/>
<path d="M60 38h4v2h-4v-2z" fill="rgb(142,53,0)"/>
<path d="M70 38h4v2h-4v-2z" fill="rgb(142,53,0)"/>
<path d="M74 38h2v2h-2v-2z" fill="rgb(255,225,48)"/>
<path d="M78 38h2v4h-2v-4z" fill="rgb(48,8,0)"/>
<path d="M80 38h2v6h-4v2h-6v-2h2v-2h6v-4z" fill="rgb(95,25,0)"/>
<path d="M104 38h2v2h-2v-2z" fill="rgb(10,0,19)"/>
<path d="M6 40h8v2h-8v-2z" fill="rgb(10,0,19)"/>
<path d="M28 40h2v2h-2v-2z" fill="rgb(95,25,0)"/>
<path d="M32 40h2v2h-2v-2z" fill="rgb(95,25,0)"/>
<path d="M34 40h2v2h-2v-2z" fill="rgb(142,53,0)"/>
<path d="M36 40h2v2h-2v-2z" fill="rgb(151,73,8)"/>
<path d="M38 40h12v2h-6v4h-2v-4h-4v-2z" fill="rgb(48,8,0)"/>
<path d="M50 40h2v2h6v-2h4v2h4v2h-16v2h-2v-2h-2v2h-2v-4h6v-2z" fill="rgb(95,25,0)"/>
<path d="M52 40h6v2h-6v-2z" fill="rgb(48,8,0)"/>
<path d="M62 40h10v2h-4v2h-2v-2h-4v-2z" fill="rgb(48,8,0)"/>
<path d="M72 40h2v2h-2v-2z" fill="rgb(151,73,8)"/>
<path d="M74 40h2v2h-2v-2z" fill="rgb(142,53,0)"/>
<path d="M82 40h2v4h-2v-4z" fill="rgb(142,53,0)"/>
<path d="M96 40h8v2h-8v-2z" fill="rgb(10,0,19)"/>
<path d="M14 42h2v6h-2v-6z" fill="rgb(10,0,19)"/>
<path d="M18 42h2v2h-2v-2z" fill="rgb(95,25,0)"/>
<path d="M26 42h2v6h2v-2h2v2h2v2h-4v2h-2v-2h-2v-4h-2v-2h2v-2z" fill="rgb(95,25,0)"/>
<path d="M28 42h2v2h10v2h-10v2h-2v-6z" fill="rgb(142,53,0)"/>
<path d="M30 42h2v2h-2v-2z" fill="rgb(95,25,0)"/>
<path d="M32 42h4v2h-4v-2z" fill="rgb(48,8,0)"/>
<path d="M36 42h6v4h-2v-2h-4v-2z" fill="rgb(95,25,0)"/>
<path d="M68 42h4v2h-4v-2z" fill="rgb(95,25,0)"/>
<path d="M72 42h2v2h-2v-2z" fill="rgb(48,8,0)"/>
<path d="M84 42h2v2h-2v-2z" fill="rgb(95,25,0)"/>
<path d="M90 42h2v2h-2v-2z" fill="rgb(95,25,0)"/>
<path d="M94 42h2v6h-2v-6z" fill="rgb(10,0,19)"/>
<path d="M46 44h2v2h-2v-2z" fill="rgb(142,53,0)"/>
<path d="M50 44h10v2h-2v2h2v2h-8v-2h4v-2h-6v-2z" fill="rgb(142,53,0)"/>
<path d="M60 44h2v2h-2v-2z" fill="rgb(151,73,8)"/>
<path d="M62 44h4v2h-4v-2z" fill="rgb(142,53,0)"/>
<path d="M66 44h2v2h2v2h-8v-2h4v-2z" fill="rgb(10,0,19)"/>
<path d="M68 44h4v2h-4v-2z" fill="rgb(142,53,0)"/>
<path d="M78 44h4v2h2v2h-6v-4z" fill="rgb(142,53,0)"/>
<path d="M82 44h2v2h-2v-2z" fill="rgb(95,25,0)"/>
<path d="M84 44h2v2h-2v-2z" fill="rgb(142,53,0)"/>
<path d="M32 46h4v2h2v2h-4v-2h-2v-2z" fill="rgb(48,8,0)"/>
<path d="M36 46h12v2h-12v-2z" fill="rgb(10,0,19)"/>
<path d="M48 46h4v2h-2v12h-2v-8h-2v-2h2v-4z" fill="rgb(48,8,0)"/>
<path d="M52 46h4v2h-4v-2z" fill="rgb(151,73,8)"/>
<path d="M58 46h2v2h-2v-2z" fill="rgb(95,25,0)"/>
<path d="M60 46h2v2h-2v-2z" fill="rgb(48,8,0)"/>
<path d="M70 46h8v2h-4v2h-10v-2h6v-2z" fill="rgb(48,8,0)"/>
<path d="M84 46h2v4h2v2h2v6h-2v4h-2v-8h-2v-2h-4v-2h-6v-2h10v-2z" fill="rgb(95,25,0)"/>
<path d="M16 48h4v12h-2v-8h-8v-2h6v-2z" fill="rgb(10,0,19)"/>
<path d="M38 48h2v2h-2v-2z" fill="rgb(95,25,0)"/>
<path d="M40 48h4v2h-4v-2z" fill="rgb(48,8,0)"/>
<path d="M44 48h4v2h-4v-2z" fill="rgb(95,25,0)"/>
<path d="M50 48h2v2h-2v-2z" fill="rgb(95,25,0)"/>
<path d="M60 48h4v2h-2v2h-4v2h2v4h-2v2h-2v-4h-2v-2h-2v2h2v2h-2v4h-2v-10h2v-2h8
	v-2z" fill="rgb(95,25,0)"/>
<path d="M90 48h4v2h6v2h-8v8h-2v-12z" fill="rgb(10,0,19)"/>
<path d="M22 50h4v4h-2v-2h-2v-2z" fill="rgb(95,25,0)"/>
<path d="M26 50h2v4h-2v-4z" fill="rgb(48,8,0)"/>
<path d="M30 50h2v2h-2v-2z" fill="rgb(48,8,0)"/>
<path d="M32 50h14v2h-14v-2z" fill="rgb(33,8,34)"/>
<path d="M50 50h2v2h-2v-2z" fill="rgb(142,53,0)"/>
<path d="M62 50h2v2h-2v-2z" fill="rgb(48,8,0)"/>
<path d="M64 50h14v2h-14v-2z" fill="rgb(33,8,34)"/>
<path d="M78 50h2v2h-2v-2z" fill="rgb(48,8,0)"/>
<path d="M6 52h4v2h-4v-2z" fill="rgb(10,0,19)"/>
<path d="M10 52h2v2h-2v-2z" fill="rgb(95,25,0)"/>
<path d="M12 52h2v2h2v4h-6v-2h2v-4z" fill="rgb(142,53,0)"/>
<path d="M14 52h2v2h-2v-2z" fill="rgb(95,25,0)"/>
<path d="M16 52h2v2h-2v-2z" fill="rgb(48,8,0)"/>
<path d="M28 52h4v2h-4v-2z" fill="rgb(33,8,34)"/>
<path d="M32 52h6v2h-2v4h-6v-2h-2v-2h4v-2z" fill="rgb(2,0,5)"/>
<path d="M38 52h2v2h-2v-2z" fill="rgb(205,44,0)"/>
<path d="M40 52h2v2h-2v-2z" fill="rgb(255,83,3)"/>
<path d="M42 52h4v8h-4v-2h2v-4h-2v-2z" fill="rgb(2,0,5)"/>
<path d="M46 52h2v8h-2v-8z" fill="rgb(33,8,34)"/>
<path d="M58 52h2v2h-2v-2z" fill="rgb(142,53,0)"/>
<path d="M60 52h2v8h2v2h-2v2h-2v-12z" fill="rgb(48,8,0)"/>
<path d="M62 52h2v8h-2v-8z" fill="rgb(33,8,34)"/>
<path d="M64 52h4v2h-2v4h2v2h-4v-8z" fill="rgb(2,0,5)"/>
<path d="M68 52h2v2h-2v-2z" fill="rgb(205,44,0)"/>
<path d="M70 52h2v2h-2v-2z" fill="rgb(255,83,3)"/>
<path d="M72 52h6v2h4v2h-2v2h-6v-4h-2v-2z" fill="rgb(2,0,5)"/>
<path d="M78 52h4v2h-4v-2z" fill="rgb(33,8,34)"/>
<path d="M82 52h2v2h-2v-2z" fill="rgb(48,8,0)"/>
<path d="M92 52h2v2h-2v-2z" fill="rgb(48,8,0)"/>
<path d="M94 52h2v2h-2v-2z" fill="rgb(95,25,0)"/>
<path d="M96 52h2v4h2v2h-6v-4h2v-2z" fill="rgb(142,53,0)"/>
<path d="M98 52h2v2h-2v-2z" fill="rgb(95,25,0)"/>
<path d="M100 52h4v2h-4v-2z" fill="rgb(10,0,19)"/>
<path d="M2 54h4v2h-4v-2z" fill="rgb(10,0,19)"/>
<path d="M6 54h2v2h-2v-2z" fill="rgb(151,73,8)"/>
<path d="M8 54h2v2h-2v-2z" fill="rgb(205,101,14)"/>
<path d="M10 54h2v2h-2v-2z" fill="rgb(151,73,8)"/>
<path d="M16 54h2v4h-2v-4z" fill="rgb(95,25,0)"/>
<path d="M20 54h4v2h-2v2h-2v-4z" fill="rgb(95,25,0)"/>
<path d="M24 54h2v6h-2v-2h-2v-2h2v-2z" fill="rgb(48,8,0)"/>
<path d="M26 54h2v2h2v2h-4v-4z" fill="rgb(33,8,34)"/>
<path d="M36 54h2v2h-2v-2z" fill="rgb(255,83,3)"/>
<path d="M38 54h4v4h-4v-4z" fill="rgb(255,157,39)"/>
<path d="M42 54h2v2h-2v-2z" fill="rgb(255,83,3)"/>
<path d="M52 54h2v2h-2v-2z" fill="rgb(142,53,0)"/>
<path d="M66 54h2v2h-2v-2z" fill="rgb(255,83,3)"/>
<path d="M68 54h4v4h-4v-4z" fill="rgb(255,157,39)"/>
<path d="M72 54h2v2h-2v-2z" fill="rgb(255,83,3)"/>
<path d="M82 54h2v4h-4v-2h2v-2z" fill="rgb(33,8,34)"/>
<path d="M84 54h2v6h-2v-6z" fill="rgb(48,8,0)"/>
<path d="M92 54h2v4h-2v-4z" fill="rgb(95,25,0)"/>
<path d="M98 54h2v2h-2v-2z" fill="rgb(151,73,8)"/>
<path d="M100 54h2v2h-2v-2z" fill="rgb(205,101,14)"/>
<path d="M102 54h2v2h-2v-2z" fill="rgb(151,73,8)"/>
<path d="M104 54h4v2h-4v-2z" fill="rgb(10,0,19)"/>
<path d="M0 56h2v6h-2v-6z" fill="rgb(10,0,19)"/>
<path d="M2 56h2v2h-2v-2z" fill="rgb(151,73,8)"/>
<path d="M4 56h4v2h-4v-2z" fill="rgb(205,101,14)"/>
<path d="M8 56h2v2h-2v-2z" fill="rgb(151,73,8)"/>
<path d="M36 56h2v2h-2v-2z" fill="rgb(205,44,0)"/>
<path d="M42 56h2v2h-2v-2z" fill="rgb(205,44,0)"/>
<path d="M54 56h2v2h-2v-2z" fill="rgb(142,53,0)"/>
<path d="M66 56h2v2h-2v-2z" fill="rgb(205,44,0)"/>
<path d="M72 56h2v2h-2v-2z" fill="rgb(205,44,0)"/>
<path d="M100 56h2v2h-2v-2z" fill="rgb(151,73,8)"/>
<path d="M102 56h4v2h-4v-2z" fill="rgb(205,101,14)"/>
<path d="M106 56h2v2h-2v-2z" fill="rgb(151,73,8)"/>
<path d="M108 56h2v6h-2v-6z" fill="rgb(10,0,19)"/>
<path d="M2 58h2v2h-2v-2z" fill="rgb(205,101,14)"/>
<path d="M4 58h6v2h-6v-2z" fill="rgb(142,53,0)"/>
<path d="M10 58h6v2h-2v2h-10v-2h6v-2z" fill="rgb(95,25,0)"/>
<path d="M16 58h2v2h4v4h-2v-2h-6v-2h2v-2z" fill="rgb(48,8,0)"/>
<path d="M20 58h2v2h-2v-2z" fill="rgb(142,53,0)"/>
<path d="M22 58h2v2h6v2h-8v-4z" fill="rgb(95,25,0)"/>
<path d="M26 58h4v2h-4v-2z" fill="rgb(142,53,0)"/>
<path d="M30 58h6v2h-6v-2z" fill="rgb(33,8,34)"/>
<path d="M36 58h2v2h-2v-2z" fill="rgb(2,0,5)"/>
<path d="M38 58h2v2h-2v-2z" fill="rgb(205,44,0)"/>
<path d="M40 58h2v2h-2v-2z" fill="rgb(255,83,3)"/>
<path d="M52 58h2v4h-2v-4z" fill="rgb(142,53,0)"/>
<path d="M54 58h2v4h-2v-4z" fill="rgb(151,73,8)"/>
<path d="M58 58h2v2h-2v-2z" fill="rgb(142,53,0)"/>
<path d="M68 58h2v2h-2v-2z" fill="rgb(205,44,0)"/>
<path d="M70 58h2v2h-2v-2z" fill="rgb(255,83,3)"/>
<path d="M72 58h2v2h-2v-2z" fill="rgb(2,0,5)"/>
<path d="M74 58h6v2h-6v-2z" fill="rgb(33,8,34)"/>
<path d="M80 58h2v2h2v2h-4v-4z" fill="rgb(95,25,0)"/>
<path d="M82 58h2v2h-2v-2z" fill="rgb(142,53,0)"/>
<path d="M88 58h2v2h-2v-2z" fill="rgb(142,53,0)"/>
<path d="M92 58h2v2h2v2h-6v2h-2v-4h4v-2z" fill="rgb(48,8,0)"/>
<path d="M94 58h6v2h6v2h-10v-2h-2v-2z" fill="rgb(95,25,0)"/>
<path d="M100 58h6v2h-6v-2z" fill="rgb(142,53,0)"/>
<path d="M106 58h2v2h-2v-2z" fill="rgb(205,101,14)"/>
<path d="M2 60h2v2h-2v-2z" fill="rgb(48,8,0)"/>
<path d="M30 60h2v2h-2v-2z" fill="rgb(142,53,0)"/>
<path d="M32 60h2v2h-2v-2z" fill="rgb(95,25,0)"/>
<path d="M34 60h2v2h2v2h-10v-2h6v-2z" fill="rgb(48,8,0)"/>
<path d="M36 60h10v2h-10v-2z" fill="rgb(33,8,34)"/>
<path d="M46 60h2v2h-2v-2z" fill="rgb(48,8,0)"/>
<path d="M48 60h2v8h-4v-2h2v-6z" fill="rgb(10,0,19)"/>
<path d="M56 60h2v2h-2v-2z" fill="rgb(142,53,0)"/>
<path d="M58 60h2v2h-2v-2z" fill="rgb(95,25,0)"/>
<path d="M64 60h10v2h-10v-2z" fill="rgb(33,8,34)"/>
<path d="M74 60h2v2h6v2h-10v-2h2v-2z" fill="rgb(48,8,0)"/>
<path d="M76 60h2v2h-2v-2z" fill="rgb(95,25,0)"/>
<path d="M78 60h2v2h-2v-2z" fill="rgb(142,53,0)"/>
<path d="M84 60h2v2h2v2h-6v-2h2v-2z" fill="rgb(10,0,19)"/>
<path d="M106 60h2v2h-2v-2z" fill="rgb(48,8,0)"/>
<path d="M0 62h2v2h14v2h-6v2h-2v2h-2v2h-2v10h2v2h4v2h4v2h10v-2h2v2h2v2h2v6h2v2
	h2v2h4v4h2v2h-40v-44z" fill="rgb(255,255,255)"/>
<path d="M2 62h18v2h-2v2h-2v-2h-14v-2z" fill="rgb(10,0,19)"/>
<path d="M22 62h6v2h-6v-2z" fill="rgb(10,0,19)"/>
<path d="M38 62h6v2h-6v-2z" fill="rgb(10,0,19)"/>
<path d="M44 62h2v2h-2v-2z" fill="rgb(48,8,0)"/>
<path d="M46 62h2v2h-2v-2z" fill="rgb(95,25,0)"/>
<path d="M50 62h2v4h-2v-4z" fill="rgb(142,53,0)"/>
<path d="M52 62h2v2h-2v-2z" fill="rgb(151,73,8)"/>
<path d="M54 62h2v2h-2v-2z" fill="rgb(205,101,14)"/>
<path d="M56 62h2v2h-2v-2z" fill="rgb(151,73,8)"/>
<path d="M58 62h2v2h-2v-2z" fill="rgb(142,53,0)"/>
<path d="M62 62h2v2h-2v-2z" fill="rgb(95,25,0)"/>
<path d="M64 62h2v2h-2v-2z" fill="rgb(48,8,0)"/>
<path d="M66 62h6v2h-6v-2z" fill="rgb(10,0,19)"/>
<path d="M90 62h18v2h-14v2h-2v-2h-2v-2z" fill="rgb(10,0,19)"/>
<path d="M108 62h2v44h-40v-2h4v-2h2v-6h2v-2h4v-2h2v-8h2v2h4v2h6v-2h4v-2h4v-2h2
	v-10h-2v-2h-2v-2h-2v-2h-6v-2h14v-2z" fill="rgb(255,255,255)"/>
<path d="M18 64h2v4h2v2h2v2h-2v2h-2v2h2v2h2v2h2v2h2v2h2v4h-2v-2h-2v-2h-2v2h-10
	v-2h-4v-2h-4v-2h8v-2h2v2h4v-2h-2v-6h2v-2h-2v-2h-2v-2h2v-2z" fill="rgb(48,8,0)"/>
<path d="M20 64h2v4h-2v-4z" fill="rgb(10,0,19)"/>
<path d="M22 64h4v2h-2v2h2v2h-4v-6z" fill="rgb(95,25,0)"/>
<path d="M26 64h8v2h-8v-2z" fill="rgb(142,53,0)"/>
<path d="M34 64h4v2h-4v-2z" fill="rgb(95,25,0)"/>
<path d="M38 64h4v2h-4v-2z" fill="rgb(48,8,0)"/>
<path d="M42 64h4v2h-4v-2z" fill="rgb(95,25,0)"/>
<path d="M46 64h2v2h-2v-2z" fill="rgb(48,8,0)"/>
<path d="M52 64h6v2h-6v-2z" fill="rgb(95,25,0)"/>
<path d="M58 64h2v2h-2v-2z" fill="rgb(151,73,8)"/>
<path d="M60 64h2v2h-2v-2z" fill="rgb(95,25,0)"/>
<path d="M62 64h2v2h-2v-2z" fill="rgb(48,8,0)"/>
<path d="M64 64h4v2h-4v-2z" fill="rgb(95,25,0)"/>
<path d="M68 64h4v2h-4v-2z" fill="rgb(48,8,0)"/>
<path d="M72 64h2v2h-2v-2z" fill="rgb(95,25,0)"/>
<path d="M74 64h6v2h-6v-2z" fill="rgb(142,53,0)"/>
<path d="M80 64h2v2h-2v-2z" fill="rgb(95,25,0)"/>
<path d="M82 64h2v2h-2v-2z" fill="rgb(142,53,0)"/>
<path d="M84 64h4v10h-2v2h-4v-2h2v-4h2v-4h-2v-2z" fill="rgb(95,25,0)"/>
<path d="M88 64h2v4h-2v-4z" fill="rgb(10,0,19)"/>
<path d="M90 64h2v2h2v2h-2v2h-2v2h2v6h-2v2h-2v2h2v2h-4v-2h-2v-2h2v-2h2v-2h2v-2
	h-2v-6h2v-4z" fill="rgb(48,8,0)"/>
<path d="M10 66h6v2h-6v-2z" fill="rgb(10,0,19)"/>
<path d="M24 66h2v2h-2v-2z" fill="rgb(142,53,0)"/>
<path d="M26 66h6v2h-2v2h-2v-2h-2v-2z" fill="rgb(151,73,8)"/>
<path d="M32 66h4v2h2v4h-2v-2h-2v-2h-2v-2z" fill="rgb(205,101,14)"/>
<path d="M36 66h4v2h-4v-2z" fill="rgb(142,53,0)"/>
<path d="M40 66h2v2h-2v-2z" fill="rgb(95,25,0)"/>
<path d="M42 66h4v2h-2v2h-2v-4z" fill="rgb(48,8,0)"/>
<path d="M50 66h2v2h-2v-2z" fill="rgb(95,25,0)"/>
<path d="M52 66h2v2h-2v-2z" fill="rgb(151,73,8)"/>
<path d="M54 66h2v2h2v4h-4v-2h-2v-2h2v-2z" fill="rgb(205,101,14)"/>
<path d="M56 66h2v2h-2v-2z" fill="rgb(151,73,8)"/>
<path d="M58 66h2v2h-2v-2z" fill="rgb(95,25,0)"/>
<path d="M60 66h2v2h-2v-2z" fill="rgb(142,53,0)"/>
<path d="M62 66h2v2h-2v-2z" fill="rgb(95,25,0)"/>
<path d="M64 66h4v4h-2v-2h-2v-2z" fill="rgb(48,8,0)"/>
<path d="M68 66h4v2h-2v2h-2v-4z" fill="rgb(95,25,0)"/>
<path d="M72 66h2v2h-2v-2z" fill="rgb(151,73,8)"/>
<path d="M74 66h6v2h-2v2h-2v-2h-2v-2z" fill="rgb(205,101,14)"/>
<path d="M80 66h2v2h2v-2h2v4h-2v4h-2v-4h-2v-4z" fill="rgb(142,53,0)"/>
<path d="M82 66h2v2h-2v-2z" fill="rgb(151,73,8)"/>
<path d="M94 66h6v2h-6v-2z" fill="rgb(10,0,19)"/>
<path d="M8 68h2v2h-2v-2z" fill="rgb(10,0,19)"/>
<path d="M10 68h4v2h-2v2h-4v-2h2v-2z" fill="rgb(205,101,14)"/>
<path d="M14 68h2v2h-2v-2z" fill="rgb(151,73,8)"/>
<path d="M16 68h2v2h-2v-2z" fill="rgb(142,53,0)"/>
<path d="M26 68h2v2h2v2h2v-2h2v4h4v2h-6v-2h-6v-2h-2v-2h2v-2z" fill="rgb(142,53,0)"/>
<path d="M30 68h2v2h-2v-2z" fill="rgb(205,101,14)"/>
<path d="M32 68h2v2h-2v-2z" fill="rgb(151,73,8)"/>
<path d="M38 68h2v4h-2v-4z" fill="rgb(151,73,8)"/>
<path d="M40 68h2v4h-2v-4z" fill="rgb(142,53,0)"/>
<path d="M44 68h2v2h-2v-2z" fill="rgb(95,25,0)"/>
<path d="M46 68h2v2h-2v-2z" fill="rgb(142,53,0)"/>
<path d="M48 68h2v4h-2v-4z" fill="rgb(95,25,0)"/>
<path d="M50 68h2v4h-2v-4z" fill="rgb(142,53,0)"/>
<path d="M58 68h2v2h-2v-2z" fill="rgb(151,73,8)"/>
<path d="M60 68h2v4h-2v-4z" fill="rgb(95,25,0)"/>
<path d="M62 68h2v2h-2v-2z" fill="rgb(205,101,14)"/>
<path d="M64 68h2v2h-2v-2z" fill="rgb(151,73,8)"/>
<path d="M70 68h2v2h2v2h2v2h-4v-2h-2v-4z" fill="rgb(151,73,8)"/>
<path d="M72 68h2v2h-2v-2z" fill="rgb(205,101,14)"/>
<path d="M74 68h2v2h-2v-2z" fill="rgb(151,73,8)"/>
<path d="M78 68h2v2h-2v-2z" fill="rgb(151,73,8)"/>
<path d="M92 68h2v2h-2v-2z" fill="rgb(142,53,0)"/>
<path d="M94 68h2v2h-2v-2z" fill="rgb(151,73,8)"/>
<path d="M96 68h4v2h2v2h-4v-2h-2v-2z" fill="rgb(205,101,14)"/>
<path d="M100 68h2v2h-2v-2z" fill="rgb(10,0,19)"/>
<path d="M6 70h2v2h-2v-2z" fill="rgb(10,0,19)"/>
<path d="M12 70h2v2h-2v-2z" fill="rgb(151,73,8)"/>
<path d="M14 70h2v6h-2v-2h-2v2h2v2h-8v-6h8v-2z" fill="rgb(142,53,0)"/>
<path d="M16 70h2v2h-2v-2z" fill="rgb(48,8,0)"/>
<path d="M18 70h2v2h-2v-2z" fill="rgb(95,25,0)"/>
<path d="M30 70h2v2h-2v-2z" fill="rgb(151,73,8)"/>
<path d="M34 70h2v2h2v2h-4v-4z" fill="rgb(151,73,8)"/>
<path d="M42 70h2v6h-2v-6z" fill="rgb(10,0,19)"/>
<path d="M44 70h2v2h2v2h-4v-4z" fill="rgb(142,53,0)"/>
<path d="M46 70h2v2h-2v-2z" fill="rgb(151,73,8)"/>
<path d="M52 70h2v2h-2v-2z" fill="rgb(151,73,8)"/>
<path d="M58 70h2v2h-2v-2z" fill="rgb(142,53,0)"/>
<path d="M62 70h2v2h-2v-2z" fill="rgb(151,73,8)"/>
<path d="M64 70h2v4h-2v-4z" fill="rgb(142,53,0)"/>
<path d="M66 70h2v6h-2v-6z" fill="rgb(10,0,19)"/>
<path d="M68 70h2v2h2v2h4v-2h2v2h4v2h-4v2h-2v2h-4v-4h-2v-2h-2v-4z" fill="rgb(142,53,0)"/>
<path d="M74 70h2v2h-2v-2z" fill="rgb(142,53,0)"/>
<path d="M76 70h2v2h-2v-2z" fill="rgb(151,73,8)"/>
<path d="M78 70h2v2h-2v-2z" fill="rgb(142,53,0)"/>
<path d="M80 70h2v2h-2v-2z" fill="rgb(151,73,8)"/>
<path d="M90 70h2v2h-2v-2z" fill="rgb(95,25,0)"/>
<path d="M92 70h2v2h-2v-2z" fill="rgb(48,8,0)"/>
<path d="M94 70h2v2h8v6h-8v-2h-2v-6z" fill="rgb(142,53,0)"/>
<path d="M96 70h2v2h-2v-2z" fill="rgb(151,73,8)"/>
<path d="M102 70h2v2h-2v-2z" fill="rgb(10,0,19)"/>
<path d="M4 72h2v10h-2v-10z" fill="rgb(10,0,19)"/>
<path d="M16 72h2v6h2v2h-4v-2h-2v-2h2v-4z" fill="rgb(95,25,0)"/>
<path d="M22 72h4v2h6v2h-2v2h-2v-2h-4v-2h-2v-2z" fill="rgb(95,25,0)"/>
<path d="M38 72h2v2h-2v-2z" fill="rgb(142,53,0)"/>
<path d="M40 72h2v2h-2v-2z" fill="rgb(95,25,0)"/>
<path d="M48 72h2v2h-2v-2z" fill="rgb(48,8,0)"/>
<path d="M50 72h2v2h-2v-2z" fill="rgb(95,25,0)"/>
<path d="M52 72h6v2h-6v-2z" fill="rgb(142,53,0)"/>
<path d="M58 72h2v2h-2v-2z" fill="rgb(95,25,0)"/>
<path d="M60 72h2v2h-2v-2z" fill="rgb(48,8,0)"/>
<path d="M62 72h2v2h-2v-2z" fill="rgb(95,25,0)"/>
<path d="M78 72h2v2h-2v-2z" fill="rgb(151,73,8)"/>
<path d="M80 72h2v2h-2v-2z" fill="rgb(95,25,0)"/>
<path d="M92 72h2v4h2v2h-2v2h-4v-2h2v-6z" fill="rgb(95,25,0)"/>
<path d="M104 72h2v10h-2v-10z" fill="rgb(10,0,19)"/>
<path d="M12 74h2v2h-2v-2z" fill="rgb(95,25,0)"/>
<path d="M20 74h2v2h-2v-2z" fill="rgb(10,0,19)"/>
<path d="M22 74h2v2h-2v-2z" fill="rgb(48,8,0)"/>
<path d="M38 74h2v2h-2v-2z" fill="rgb(151,73,8)"/>
<path d="M40 74h2v2h-2v-2z" fill="rgb(142,53,0)"/>
<path d="M44 74h2v4h-4v-2h2v-2z" fill="rgb(48,8,0)"/>
<path d="M46 74h4v2h-4v-2z" fill="rgb(95,25,0)"/>
<path d="M50 74h2v2h-2v-2z" fill="rgb(48,8,0)"/>
<path d="M52 74h6v2h-6v-2z" fill="rgb(95,25,0)"/>
<path d="M58 74h2v4h-2v2h-6v-4h6v-2z" fill="rgb(48,8,0)"/>
<path d="M60 74h2v2h-2v-2z" fill="rgb(95,25,0)"/>
<path d="M62 74h2v2h-2v-2z" fill="rgb(48,8,0)"/>
<path d="M64 74h2v2h-2v-2z" fill="rgb(95,25,0)"/>
<path d="M68 74h2v2h-2v-2z" fill="rgb(95,25,0)"/>
<path d="M86 74h2v2h-2v-2z" fill="rgb(48,8,0)"/>
<path d="M88 74h2v2h-2v-2z" fill="rgb(10,0,19)"/>
<path d="M96 74h2v2h-2v-2z" fill="rgb(95,25,0)"/>
<path d="M22 76h2v2h-2v-2z" fill="rgb(10,0,19)"/>
<path d="M24 76h4v2h2v2h-4v-2h-2v-2z" fill="rgb(48,8,0)"/>
<path d="M30 76h2v2h-2v-2z" fill="rgb(142,53,0)"/>
<path d="M32 76h6v2h-2v2h-6v-2h2v-2z" fill="rgb(95,25,0)"/>
<path d="M38 76h2v2h-2v-2z" fill="rgb(142,53,0)"/>
<path d="M40 76h2v2h-2v-2z" fill="rgb(95,25,0)"/>
<path d="M46 76h6v2h-6v-2z" fill="rgb(10,0,19)"/>
<path d="M60 76h6v2h-6v-2z" fill="rgb(10,0,19)"/>
<path d="M66 76h4v2h2v4h-2v-2h-2v-2h-2v-2z" fill="rgb(48,8,0)"/>
<path d="M70 76h2v2h-2v-2z" fill="rgb(95,25,0)"/>
<path d="M78 76h4v2h-4v-2z" fill="rgb(95,25,0)"/>
<path d="M82 76h4v2h-2v2h-6v-2h4v-2z" fill="rgb(48,8,0)"/>
<path d="M86 76h2v2h-2v-2z" fill="rgb(10,0,19)"/>
<path d="M6 78h8v2h-8v-2z" fill="rgb(95,25,0)"/>
<path d="M24 78h2v2h-2v-2z" fill="rgb(10,0,19)"/>
<path d="M36 78h2v2h-2v-2z" fill="rgb(142,53,0)"/>
<path d="M38 78h2v2h-2v-2z" fill="rgb(95,25,0)"/>
<path d="M40 78h2v2h-2v-2z" fill="rgb(48,8,0)"/>
<path d="M42 78h2v2h-2v-2z" fill="rgb(10,0,19)"/>
<path d="M44 78h8v2h-4v2h-4v-4z" fill="rgb(95,25,0)"/>
<path d="M58 78h8v4h-4v-2h-4v-2z" fill="rgb(95,25,0)"/>
<path d="M66 78h2v2h-2v-2z" fill="rgb(10,0,19)"/>
<path d="M76 78h2v2h-2v-2z" fill="rgb(95,25,0)"/>
<path d="M84 78h2v2h-2v-2z" fill="rgb(10,0,19)"/>
<path d="M94 78h2v2h8v2h-4v2h-4v2h-6v-2h2v-2h-2v-2h4v-2z" fill="rgb(48,8,0)"/>
<path d="M96 78h8v2h-8v-2z" fill="rgb(95,25,0)"/>
<path d="M26 80h8v2h-2v6h-2v-6h-4v-2z" fill="rgb(10,0,19)"/>
<path d="M34 80h2v2h-2v-2z" fill="rgb(48,8,0)"/>
<path d="M36 80h2v4h-2v-4z" fill="rgb(95,25,0)"/>
<path d="M38 80h2v4h-2v-4z" fill="rgb(48,8,0)"/>
<path d="M40 80h2v4h-2v-4z" fill="rgb(10,0,19)"/>
<path d="M42 80h2v2h-2v-2z" fill="rgb(48,8,0)"/>
<path d="M48 80h14v2h4v2h2v4h-2v-2h-2v-2h-6v-2h-4v2h-2v-2h-2v4h-4v2h-2v2h-2v-4
	h2v-4h4v-2z" fill="rgb(142,53,0)"/>
<path d="M66 80h2v2h-2v-2z" fill="rgb(48,8,0)"/>
<path d="M68 80h2v4h-2v-4z" fill="rgb(10,0,19)"/>
<path d="M72 80h2v2h-2v-2z" fill="rgb(95,25,0)"/>
<path d="M74 80h2v2h-2v-2z" fill="rgb(48,8,0)"/>
<path d="M76 80h8v2h-4v4h-2v-4h-2v-2z" fill="rgb(10,0,19)"/>
<path d="M88 80h2v2h-2v-2z" fill="rgb(95,25,0)"/>
<path d="M6 82h4v2h-4v-2z" fill="rgb(10,0,19)"/>
<path d="M18 82h2v2h-2v-2z" fill="rgb(95,25,0)"/>
<path d="M28 82h2v2h-2v-2z" fill="rgb(95,25,0)"/>
<path d="M32 82h4v2h-4v-2z" fill="rgb(142,53,0)"/>
<path d="M42 82h2v4h-2v-4z" fill="rgb(95,25,0)"/>
<path d="M50 82h2v2h-2v-2z" fill="rgb(151,73,8)"/>
<path d="M54 82h4v2h-4v-2z" fill="rgb(151,73,8)"/>
<path d="M66 82h2v2h-2v-2z" fill="rgb(95,25,0)"/>
<path d="M70 82h2v4h2v2h-2v2h2v4h-2v-2h-2v-10z" fill="rgb(95,25,0)"/>
<path d="M72 82h4v2h-2v2h-2v-4z" fill="rgb(142,53,0)"/>
<path d="M76 82h2v4h-2v-4z" fill="rgb(95,25,0)"/>
<path d="M80 82h4v2h-4v-2z" fill="rgb(48,8,0)"/>
<path d="M84 82h2v2h-2v-2z" fill="rgb(10,0,19)"/>
<path d="M90 82h2v2h-2v-2z" fill="rgb(95,25,0)"/>
<path d="M100 82h4v2h-4v-2z" fill="rgb(10,0,19)"/>
<path d="M10 84h4v2h-4v-2z" fill="rgb(10,0,19)"/>
<path d="M24 84h2v2h-2v-2z" fill="rgb(10,0,19)"/>
<path d="M32 84h2v2h-2v-2z" fill="rgb(95,25,0)"/>
<path d="M34 84h2v2h-2v-2z" fill="rgb(205,101,14)"/>
<path d="M36 84h2v2h-2v-2z" fill="rgb(142,53,0)"/>
<path d="M38 84h2v10h-2v-10z" fill="rgb(95,25,0)"/>
<path d="M40 84h2v6h2v2h-4v-8z" fill="rgb(48,8,0)"/>
<path d="M50 84h12v2h-12v-2z" fill="rgb(95,25,0)"/>
<path d="M62 84h2v2h-2v-2z" fill="rgb(151,73,8)"/>
<path d="M68 84h2v8h2v2h2v-2h4v2h-2v2h-6v-2h-2v-2h-2v-2h2v-6z" fill="rgb(48,8,0)"/>
<path d="M74 84h2v4h-2v-4z" fill="rgb(151,73,8)"/>
<path d="M80 84h2v2h-2v-2z" fill="rgb(95,25,0)"/>
<path d="M82 84h2v8h-2v-8z" fill="rgb(10,0,19)"/>
<path d="M86 84h4v2h-4v-2z" fill="rgb(10,0,19)"/>
<path d="M96 84h4v2h-4v-2z" fill="rgb(10,0,19)"/>
<path d="M14 86h10v2h-10v-2z" fill="rgb(10,0,19)"/>
<path d="M26 86h2v2h-2v-2z" fill="rgb(10,0,19)"/>
<path d="M32 86h2v2h-2v-2z" fill="rgb(48,8,0)"/>
<path d="M34 86h2v2h2v2h-4v-4z" fill="rgb(151,73,8)"/>
<path d="M36 86h2v2h-2v-2z" fill="rgb(205,101,14)"/>
<path d="M46 86h2v2h-2v-2z" fill="rgb(95,25,0)"/>
<path d="M48 86h14v2h-14v-2z" fill="rgb(48,8,0)"/>
<path d="M62 86h4v2h-4v-2z" fill="rgb(95,25,0)"/>
<path d="M76 86h2v4h-2v2h-2v-2h-2v-2h4v-2z" fill="rgb(142,53,0)"/>
<path d="M78 86h4v2h-2v2h2v2h-4v-6z" fill="rgb(48,8,0)"/>
<path d="M90 86h6v2h-6v-2z" fill="rgb(10,0,19)"/>
<path d="M28 88h2v2h-2v-2z" fill="rgb(10,0,19)"/>
<path d="M30 88h2v2h-2v-2z" fill="rgb(48,8,0)"/>
<path d="M32 88h2v2h-2v-2z" fill="rgb(95,25,0)"/>
<path d="M44 88h2v2h-2v-2z" fill="rgb(95,25,0)"/>
<path d="M46 88h10v2h-10v-2z" fill="rgb(142,53,0)"/>
<path d="M56 88h4v2h-4v-2z" fill="rgb(151,73,8)"/>
<path d="M60 88h4v2h-4v-2z" fill="rgb(205,101,14)"/>
<path d="M64 88h2v2h-2v-2z" fill="rgb(151,73,8)"/>
<path d="M66 88h2v2h-2v-2z" fill="rgb(95,25,0)"/>
<path d="M80 88h2v2h-2v-2z" fill="rgb(95,25,0)"/>
<path d="M30 90h2v6h-2v-6z" fill="rgb(10,0,19)"/>
<path d="M32 90h2v4h2v2h2v2h-4v-2h-2v-6z" fill="rgb(48,8,0)"/>
<path d="M34 90h4v4h-2v-2h-2v-2z" fill="rgb(142,53,0)"/>
<path d="M44 90h2v2h-2v-2z" fill="rgb(142,53,0)"/>
<path d="M46 90h6v2h6v2h-6v2h2v2h-4v-6h-4v-2z" fill="rgb(95,25,0)"/>
<path d="M52 90h6v2h-6v-2z" fill="rgb(48,8,0)"/>
<path d="M58 90h8v2h-8v-2z" fill="rgb(95,25,0)"/>
<path d="M76 90h2v2h-2v-2z" fill="rgb(95,25,0)"/>
<path d="M34 92h2v2h-2v-2z" fill="rgb(95,25,0)"/>
<path d="M40 92h2v2h4v2h-6v-4z" fill="rgb(10,0,19)"/>
<path d="M42 92h4v2h-4v-2z" fill="rgb(95,25,0)"/>
<path d="M46 92h4v2h-4v-2z" fill="rgb(142,53,0)"/>
<path d="M58 92h8v2h-8v-2z" fill="rgb(142,53,0)"/>
<path d="M66 92h2v2h-2v-2z" fill="rgb(95,25,0)"/>
<path d="M78 92h4v2h-4v-2z" fill="rgb(10,0,19)"/>
<path d="M36 94h2v2h-2v-2z" fill="rgb(95,25,0)"/>
<path d="M38 94h2v2h-2v-2z" fill="rgb(48,8,0)"/>
<path d="M46 94h4v2h-4v-2z" fill="rgb(48,8,0)"/>
<path d="M52 94h8v2h-4v2h-2v-2h-2v-2z" fill="rgb(10,0,19)"/>
<path d="M60 94h4v2h-4v-2z" fill="rgb(95,25,0)"/>
<path d="M64 94h4v2h-4v-2z" fill="rgb(48,8,0)"/>
<path d="M68 94h2v2h-2v-2z" fill="rgb(10,0,19)"/>
<path d="M76 94h2v2h-2v-2z" fill="rgb(10,0,19)"/>
<path d="M32 96h2v2h-2v-2z" fill="rgb(10,0,19)"/>
<path d="M38 96h2v8h-2v-4h-4v-2h4v-2z" fill="rgb(10,0,19)"/>
<path d="M40 96h2v4h-2v-4z" fill="rgb(95,25,0)"/>
<path d="M42 96h4v2h-2v2h-2v-4z" fill="rgb(142,53,0)"/>
<path d="M46 96h2v2h-2v-2z" fill="rgb(151,73,8)"/>
<path d="M48 96h2v4h-2v-4z" fill="rgb(142,53,0)"/>
<path d="M56 96h2v6h-6v-2h4v-4z" fill="rgb(95,25,0)"/>
<path d="M58 96h4v2h-2v2h2v-2h2v2h2v2h-8v-6z" fill="rgb(142,53,0)"/>
<path d="M62 96h4v4h-2v-2h-2v-2z" fill="rgb(151,73,8)"/>
<path d="M66 96h4v4h-2v-2h-2v-2z" fill="rgb(95,25,0)"/>
<path d="M70 96h2v6h2v2h-4v-8z" fill="rgb(10,0,19)"/>
<path d="M72 96h2v2h-2v-2z" fill="rgb(142,53,0)"/>
<path d="M74 96h2v6h-2v-6z" fill="rgb(10,0,19)"/>
<path d="M44 98h2v2h-2v-2z" fill="rgb(151,73,8)"/>
<path d="M46 98h2v2h-2v-2z" fill="rgb(205,101,14)"/>
<path d="M50 98h2v2h-2v-2z" fill="rgb(151,73,8)"/>
<path d="M52 98h2v2h-2v-2z" fill="rgb(142,53,0)"/>
<path d="M54 98h2v2h-2v-2z" fill="rgb(48,8,0)"/>
<path d="M60 98h2v2h-2v-2z" fill="rgb(205,101,14)"/>
<path d="M66 98h2v2h-2v-2z" fill="rgb(142,53,0)"/>
<path d="M72 98h2v4h-2v-4z" fill="rgb(95,25,0)"/>
<path d="M40 100h2v2h2v2h-4v-4z" fill="rgb(48,8,0)"/>
<path d="M42 100h2v2h-2v-2z" fill="rgb(95,25,0)"/>
<path d="M44 100h4v2h-4v-2z" fill="rgb(142,53,0)"/>
<path d="M48 100h2v2h-2v-2z" fill="rgb(151,73,8)"/>
<path d="M50 100h2v2h-2v-2z" fill="rgb(142,53,0)"/>
<path d="M66 100h2v2h-2v-2z" fill="rgb(95,25,0)"/>
<path d="M68 100h2v4h-4v-2h2v-2z" fill="rgb(48,8,0)"/>
<path d="M44 102h8v2h-8v-2z" fill="rgb(95,25,0)"/>
<path d="M52 102h2v2h-2v-2z" fill="rgb(48,8,0)"/>
<path d="M54 102h2v2h14v2h-30v-2h14v-2z" fill="rgb(10,0,19)"/>
<path d="M56 102h2v2h-2v-2z" fill="rgb(48,8,0)"/>
<path d="M58 102h8v2h-8v-2z" fill="rgb(95,25,0)"/>
</svg>