<?xml version="1.0" encoding="utf-8"?>
<!-- generated at drububu.com  -->
<!DOCTYPE svg PUBLIC "-//W3C//DTD SVG 1.1//EN" "http://www.w3.org/Graphics/SVG/1.1/DTD/svg11.dtd">
<svg version="1.1" preserveAspectRatio="xMinYMin meet" xmlns="http://www.w3.org/2000/svg" xmlns:xlink="http://www.w3.org/1999/xlink" x="0px" y="0px" width="250px" height="208px" viewBox="0 0 250 208">
<path d="M0 0h122v2h-2v4h-2v2h-2v2h-2v2h-2v-2h-2v-4h-2v-2h-4v10h2v4h2v4h-4v-2
	h-4v-2h-4v6h2v2h2v2h2v2h2v2h2v2h2v2h-6v2h-2v2h2v2h4v2h2v2h2v2h2v4h2v6h2v2h-2v2
	h-4v2h-6v2h-4v2h-2v2h-8v-2h-8v2h-4v2h-6v2h-12v-2h-8v-2h-6v-2h-6v-2h-10v-2h-2v-2
	h-4v-2h-2v-2h-6v-2h-8v2h-2v2h-2v2h-2v2h-2v-64z" fill="rgb(255,255,255)"/>
<path d="M122 0h2v2h-2v-2z" fill="rgb(83,99,129)"/>
<path d="M124 0h2v2h-2v-2z" fill="rgb(255,255,255)"/>
<path d="M126 0h2v2h-2v-2z" fill="rgb(83,99,129)"/>
<path d="M128 0h122v64h-2v-2h-2v-2h-2v-2h-2v-2h-8v2h-6v2h-2v2h-4v2h-2v2h-10v2
	h-6v2h-6v2h-8v2h-12v-2h-6v-2h-4v-2h-8v2h-8v-2h-2v-2h-4v-2h-6v-2h-4v-2h-2v-2h2v-6
	h2v-4h2v-2h2v-2h2v-2h4v-2h2v-2h-2v-2h-6v-2h2v-2h2v-2h2v-2h2v-2h2v-2h2v-6h-4v2
	h-4v2h-4v-4h2v-4h2v-10h-4v2h-2v4h-2v2h-2v-2h-2v-2h-2v-2h-2v-4h-2v-2z" fill="rgb(255,255,255)"/>
<path d="M120 2h2v4h-2v-4z" fill="rgb(83,99,129)"/>
<path d="M122 2h2v2h2v-2h2v4h-2v2h-2v-2h-2v-4z" fill="rgb(120,188,218)"/>
<path d="M124 2h2v2h-2v-2z" fill="rgb(83,99,129)"/>
<path d="M128 2h2v4h-2v-4z" fill="rgb(83,99,129)"/>
<path d="M104 4h4v2h-2v8h-2v-10z" fill="rgb(83,99,129)"/>
<path d="M142 4h4v10h-2v-8h-2v-2z" fill="rgb(83,99,129)"/>
<path d="M106 6h2v2h-2v-2z" fill="rgb(176,217,219)"/>
<path d="M108 6h2v4h-2v-4z" fill="rgb(83,99,129)"/>
<path d="M118 6h2v2h-2v-2z" fill="rgb(83,99,129)"/>
<path d="M120 6h2v2h-2v-2z" fill="rgb(120,188,218)"/>
<path d="M122 6h2v2h2v-2h2v2h2v2h2v2h4v2h-2v2h-2v-2h-2v-2h-2v-2h-6v2h-2v2h-2v2
	h-2v-2h-2v-2h4v-2h2v-2h2v-2z" fill="rgb(98,155,180)"/>
<path d="M128 6h2v2h-2v-2z" fill="rgb(120,188,218)"/>
<path d="M130 6h2v2h-2v-2z" fill="rgb(83,99,129)"/>
<path d="M140 6h2v4h-2v-4z" fill="rgb(83,99,129)"/>
<path d="M142 6h2v2h-2v-2z" fill="rgb(176,217,219)"/>
<path d="M106 8h2v2h-2v-2z" fill="rgb(204,245,247)"/>
<path d="M116 8h2v2h-2v-2z" fill="rgb(83,99,129)"/>
<path d="M118 8h2v2h-2v-2z" fill="rgb(120,188,218)"/>
<path d="M130 8h2v2h-2v-2z" fill="rgb(120,188,218)"/>
<path d="M132 8h2v2h-2v-2z" fill="rgb(83,99,129)"/>
<path d="M142 8h2v2h-2v-2z" fill="rgb(204,245,247)"/>
<path d="M106 10h2v2h-2v-2z" fill="rgb(120,188,218)"/>
<path d="M108 10h2v2h-2v-2z" fill="rgb(233,254,255)"/>
<path d="M110 10h2v2h-2v-2z" fill="rgb(83,99,129)"/>
<path d="M114 10h2v2h-2v-2z" fill="rgb(83,99,129)"/>
<path d="M116 10h2v2h-2v-2z" fill="rgb(120,188,218)"/>
<path d="M122 10h6v2h-6v-2z" fill="rgb(83,99,129)"/>
<path d="M132 10h2v2h-2v-2z" fill="rgb(120,188,218)"/>
<path d="M134 10h2v2h-2v-2z" fill="rgb(83,99,129)"/>
<path d="M138 10h2v2h-2v-2z" fill="rgb(83,99,129)"/>
<path d="M140 10h2v2h-2v-2z" fill="rgb(233,254,255)"/>
<path d="M142 10h2v2h-2v-2z" fill="rgb(120,188,218)"/>
<path d="M106 12h2v2h-2v-2z" fill="rgb(176,217,219)"/>
<path d="M108 12h2v2h-2v-2z" fill="rgb(120,188,218)"/>
<path d="M110 12h2v2h-2v-2z" fill="rgb(233,254,255)"/>
<path d="M112 12h2v2h-2v-2z" fill="rgb(83,99,129)"/>
<path d="M120 12h2v2h-2v-2z" fill="rgb(83,99,129)"/>
<path d="M122 12h2v2h-2v-2z" fill="rgb(120,188,218)"/>
<path d="M124 12h2v2h-2v-2z" fill="rgb(176,217,219)"/>
<path d="M126 12h2v2h-2v-2z" fill="rgb(120,188,218)"/>
<path d="M128 12h2v2h-2v-2z" fill="rgb(83,99,129)"/>
<path d="M136 12h2v2h-2v-2z" fill="rgb(83,99,129)"/>
<path d="M138 12h2v2h-2v-2z" fill="rgb(233,254,255)"/>
<path d="M140 12h2v2h-2v-2z" fill="rgb(120,188,218)"/>
<path d="M142 12h2v2h-2v-2z" fill="rgb(176,217,219)"/>
<path d="M106 14h2v4h-2v-4z" fill="rgb(83,99,129)"/>
<path d="M108 14h2v4h-2v-4z" fill="rgb(176,217,219)"/>
<path d="M110 14h2v4h-2v-4z" fill="rgb(120,188,218)"/>
<path d="M112 14h2v2h-2v-2z" fill="rgb(176,217,219)"/>
<path d="M114 14h2v2h-2v-2z" fill="rgb(83,99,129)"/>
<path d="M118 14h2v2h-2v-2z" fill="rgb(83,99,129)"/>
<path d="M120 14h2v2h2v2h-4v-4z" fill="rgb(120,188,218)"/>
<path d="M122 14h2v2h-2v-2z" fill="rgb(176,217,219)"/>
<path d="M124 14h2v2h-2v-2z" fill="rgb(233,254,255)"/>
<path d="M126 14h2v2h-2v-2z" fill="rgb(176,217,219)"/>
<path d="M128 14h2v4h-4v-2h2v-2z" fill="rgb(120,188,218)"/>
<path d="M130 14h2v2h-2v-2z" fill="rgb(83,99,129)"/>
<path d="M134 14h2v2h-2v-2z" fill="rgb(83,99,129)"/>
<path d="M136 14h2v2h-2v-2z" fill="rgb(176,217,219)"/>
<path d="M138 14h2v4h-2v-4z" fill="rgb(120,188,218)"/>
<path d="M140 14h2v4h-2v-4z" fill="rgb(176,217,219)"/>
<path d="M142 14h2v4h-2v-4z" fill="rgb(83,99,129)"/>
<path d="M112 16h2v2h-2v-2z" fill="rgb(204,245,247)"/>
<path d="M114 16h2v2h-2v-2z" fill="rgb(176,217,219)"/>
<path d="M116 16h2v2h-2v-2z" fill="rgb(83,99,129)"/>
<path d="M118 16h2v2h-2v-2z" fill="rgb(98,155,180)"/>
<path d="M124 16h2v2h-2v-2z" fill="rgb(83,99,129)"/>
<path d="M130 16h2v2h-2v-2z" fill="rgb(98,155,180)"/>
<path d="M132 16h2v2h-2v-2z" fill="rgb(83,99,129)"/>
<path d="M134 16h2v2h-2v-2z" fill="rgb(176,217,219)"/>
<path d="M136 16h2v2h-2v-2z" fill="rgb(204,245,247)"/>
<path d="M96 18h4v2h-2v4h-2v-6z" fill="rgb(83,99,129)"/>
<path d="M108 18h2v4h-2v-4z" fill="rgb(83,99,129)"/>
<path d="M110 18h2v4h-2v-4z" fill="rgb(176,217,219)"/>
<path d="M112 18h2v4h-2v-4z" fill="rgb(120,188,218)"/>
<path d="M114 18h2v2h2v2h6v2h-4v4h-2v2h-2v-4h2v-2h-2v-2h-2v-4z" fill="rgb(204,245,247)"/>
<path d="M116 18h2v2h-2v-2z" fill="rgb(176,217,219)"/>
<path d="M118 18h2v2h-2v-2z" fill="rgb(83,99,129)"/>
<path d="M120 18h2v2h-2v-2z" fill="rgb(98,155,180)"/>
<path d="M122 18h2v2h-2v-2z" fill="rgb(83,99,129)"/>
<path d="M124 18h2v2h-2v-2z" fill="rgb(176,217,219)"/>
<path d="M126 18h2v2h-2v-2z" fill="rgb(83,99,129)"/>
<path d="M128 18h2v2h-2v-2z" fill="rgb(98,155,180)"/>
<path d="M130 18h2v2h-2v-2z" fill="rgb(83,99,129)"/>
<path d="M132 18h2v2h-2v-2z" fill="rgb(176,217,219)"/>
<path d="M134 18h2v4h-2v2h-2v2h2v4h-2v-2h-2v-4h-4v-2h6v-2h2v-2z" fill="rgb(204,245,247)"/>
<path d="M136 18h2v4h-2v-4z" fill="rgb(120,188,218)"/>
<path d="M138 18h2v4h-2v-4z" fill="rgb(176,217,219)"/>
<path d="M140 18h2v4h-2v-4z" fill="rgb(83,99,129)"/>
<path d="M150 18h4v6h-2v-4h-2v-2z" fill="rgb(83,99,129)"/>
<path d="M98 20h2v2h-2v-2z" fill="rgb(120,188,218)"/>
<path d="M100 20h4v2h-4v-2z" fill="rgb(83,99,129)"/>
<path d="M118 20h2v2h-2v-2z" fill="rgb(176,217,219)"/>
<path d="M120 20h2v2h-2v-2z" fill="rgb(83,99,129)"/>
<path d="M122 20h2v2h-2v-2z" fill="rgb(176,217,219)"/>
<path d="M124 20h2v2h-2v-2z" fill="rgb(204,245,247)"/>
<path d="M126 20h2v2h-2v-2z" fill="rgb(176,217,219)"/>
<path d="M128 20h2v2h-2v-2z" fill="rgb(83,99,129)"/>
<path d="M130 20h2v2h-2v-2z" fill="rgb(176,217,219)"/>
<path d="M146 20h4v2h-4v-2z" fill="rgb(83,99,129)"/>
<path d="M150 20h2v2h-2v-2z" fill="rgb(120,188,218)"/>
<path d="M98 22h2v2h-2v-2z" fill="rgb(176,217,219)"/>
<path d="M100 22h2v2h-2v-2z" fill="rgb(120,188,218)"/>
<path d="M102 22h2v2h-2v-2z" fill="rgb(204,245,247)"/>
<path d="M104 22h4v2h-4v-2z" fill="rgb(83,99,129)"/>
<path d="M108 22h2v2h-2v-2z" fill="rgb(255,255,255)"/>
<path d="M110 22h2v4h-4v-2h2v-2z" fill="rgb(83,99,129)"/>
<path d="M112 22h2v2h-2v-2z" fill="rgb(176,217,219)"/>
<path d="M114 22h2v2h-2v-2z" fill="rgb(120,188,218)"/>
<path d="M124 22h2v2h-2v-2z" fill="rgb(83,99,129)"/>
<path d="M134 22h2v2h-2v-2z" fill="rgb(120,188,218)"/>
<path d="M136 22h2v2h-2v-2z" fill="rgb(176,217,219)"/>
<path d="M138 22h2v2h2v2h-4v-4z" fill="rgb(83,99,129)"/>
<path d="M140 22h2v2h-2v-2z" fill="rgb(255,255,255)"/>
<path d="M142 22h4v2h-4v-2z" fill="rgb(83,99,129)"/>
<path d="M146 22h2v2h-2v-2z" fill="rgb(204,245,247)"/>
<path d="M148 22h2v2h-2v-2z" fill="rgb(120,188,218)"/>
<path d="M150 22h2v2h-2v-2z" fill="rgb(176,217,219)"/>
<path d="M98 24h2v2h-2v-2z" fill="rgb(83,99,129)"/>
<path d="M100 24h2v2h-2v-2z" fill="rgb(176,217,219)"/>
<path d="M102 24h2v2h-2v-2z" fill="rgb(120,188,218)"/>
<path d="M104 24h2v2h-2v-2z" fill="rgb(233,254,255)"/>
<path d="M106 24h2v2h-2v-2z" fill="rgb(176,217,219)"/>
<path d="M112 24h2v2h-2v-2z" fill="rgb(204,245,247)"/>
<path d="M114 24h2v2h-2v-2z" fill="rgb(176,217,219)"/>
<path d="M116 24h2v2h-2v-2z" fill="rgb(120,188,218)"/>
<path d="M120 24h2v2h-2v-2z" fill="rgb(176,217,219)"/>
<path d="M122 24h2v2h-2v-2z" fill="rgb(83,99,129)"/>
<path d="M124 24h2v2h-2v-2z" fill="rgb(98,155,180)"/>
<path d="M126 24h2v2h-2v-2z" fill="rgb(83,99,129)"/>
<path d="M128 24h2v2h-2v-2z" fill="rgb(176,217,219)"/>
<path d="M132 24h2v2h-2v-2z" fill="rgb(120,188,218)"/>
<path d="M134 24h2v2h-2v-2z" fill="rgb(176,217,219)"/>
<path d="M136 24h2v2h-2v-2z" fill="rgb(204,245,247)"/>
<path d="M142 24h2v2h-2v-2z" fill="rgb(176,217,219)"/>
<path d="M144 24h2v2h-2v-2z" fill="rgb(233,254,255)"/>
<path d="M146 24h2v2h-2v-2z" fill="rgb(120,188,218)"/>
<path d="M148 24h2v2h-2v-2z" fill="rgb(176,217,219)"/>
<path d="M150 24h2v2h-2v-2z" fill="rgb(83,99,129)"/>
<path d="M100 26h2v2h-2v-2z" fill="rgb(83,99,129)"/>
<path d="M102 26h2v2h-2v-2z" fill="rgb(176,217,219)"/>
<path d="M104 26h2v2h-2v-2z" fill="rgb(120,188,218)"/>
<path d="M106 26h2v2h-2v-2z" fill="rgb(233,254,255)"/>
<path d="M108 26h4v2h-4v-2z" fill="rgb(176,217,219)"/>
<path d="M112 26h4v2h-4v-2z" fill="rgb(83,99,129)"/>
<path d="M120 26h2v2h-2v-2z" fill="rgb(83,99,129)"/>
<path d="M122 26h2v2h-2v-2z" fill="rgb(98,155,180)"/>
<path d="M124 26h2v2h-2v-2z" fill="rgb(176,217,219)"/>
<path d="M126 26h2v2h-2v-2z" fill="rgb(98,155,180)"/>
<path d="M128 26h2v2h-2v-2z" fill="rgb(83,99,129)"/>
<path d="M134 26h4v2h-4v-2z" fill="rgb(83,99,129)"/>
<path d="M138 26h4v2h-4v-2z" fill="rgb(176,217,219)"/>
<path d="M142 26h2v2h-2v-2z" fill="rgb(233,254,255)"/>
<path d="M144 26h2v2h-2v-2z" fill="rgb(120,188,218)"/>
<path d="M146 26h2v2h-2v-2z" fill="rgb(176,217,219)"/>
<path d="M148 26h2v2h-2v-2z" fill="rgb(83,99,129)"/>
<path d="M102 28h2v2h-2v-2z" fill="rgb(83,99,129)"/>
<path d="M104 28h2v2h-2v-2z" fill="rgb(176,217,219)"/>
<path d="M106 28h2v2h-2v-2z" fill="rgb(120,188,218)"/>
<path d="M108 28h4v2h2v2h2v4h2v2h2v2h-2v2h-2v4h2v2h2v4h-2v-2h-2v-2h-2v-8h-2v-4
	h2v-2h-2v-2h-2v-2h-2v-2z" fill="rgb(204,245,247)"/>
<path d="M112 28h4v2h2v2h-4v-2h-2v-2z" fill="rgb(176,217,219)"/>
<path d="M118 28h2v8h-2v-8z" fill="rgb(83,99,129)"/>
<path d="M120 28h2v2h-2v-2z" fill="rgb(98,155,180)"/>
<path d="M122 28h2v2h-2v-2z" fill="rgb(176,217,219)"/>
<path d="M124 28h2v2h-2v-2z" fill="rgb(83,99,129)"/>
<path d="M126 28h2v2h-2v-2z" fill="rgb(120,188,218)"/>
<path d="M128 28h2v2h-2v-2z" fill="rgb(98,155,180)"/>
<path d="M130 28h2v8h-2v-8z" fill="rgb(83,99,129)"/>
<path d="M134 28h4v2h-2v2h-4v-2h2v-2z" fill="rgb(176,217,219)"/>
<path d="M138 28h4v2h-2v2h-2v2h-2v2h2v4h-2v-2h-2v2h2v8h-2v2h-2v2h-2v-4h2v-2h2
	v-4h-2v-2h-2v-2h2v-2h2v-4h2v-2h2v-2z" fill="rgb(204,245,247)"/>
<path d="M142 28h2v2h-2v-2z" fill="rgb(120,188,218)"/>
<path d="M144 28h2v2h-2v-2z" fill="rgb(176,217,219)"/>
<path d="M146 28h2v2h-2v-2z" fill="rgb(83,99,129)"/>
<path d="M104 30h2v2h-2v-2z" fill="rgb(83,99,129)"/>
<path d="M106 30h2v2h-2v-2z" fill="rgb(176,217,219)"/>
<path d="M108 30h2v2h-2v-2z" fill="rgb(120,188,218)"/>
<path d="M120 30h2v2h-2v-2z" fill="rgb(176,217,219)"/>
<path d="M122 30h2v6h-2v-6z" fill="rgb(98,155,180)"/>
<path d="M124 30h2v4h-2v-4z" fill="rgb(176,217,219)"/>
<path d="M126 30h2v6h-2v-6z" fill="rgb(83,99,129)"/>
<path d="M128 30h2v4h-2v-4z" fill="rgb(120,188,218)"/>
<path d="M140 30h2v2h-2v-2z" fill="rgb(120,188,218)"/>
<path d="M142 30h2v2h-2v-2z" fill="rgb(176,217,219)"/>
<path d="M144 30h2v2h-2v-2z" fill="rgb(83,99,129)"/>
<path d="M106 32h2v2h-2v-2z" fill="rgb(83,99,129)"/>
<path d="M108 32h2v2h-2v-2z" fill="rgb(176,217,219)"/>
<path d="M110 32h2v2h-2v-2z" fill="rgb(120,188,218)"/>
<path d="M116 32h2v4h-2v-4z" fill="rgb(120,188,218)"/>
<path d="M120 32h2v4h-2v-4z" fill="rgb(120,188,218)"/>
<path d="M132 32h2v4h-2v-4z" fill="rgb(120,188,218)"/>
<path d="M138 32h2v2h-2v-2z" fill="rgb(120,188,218)"/>
<path d="M140 32h2v2h-2v-2z" fill="rgb(176,217,219)"/>
<path d="M142 32h2v2h-2v-2z" fill="rgb(83,99,129)"/>
<path d="M108 34h2v2h-2v-2z" fill="rgb(83,99,129)"/>
<path d="M110 34h2v2h-2v-2z" fill="rgb(176,217,219)"/>
<path d="M112 34h2v2h-2v-2z" fill="rgb(120,188,218)"/>
<path d="M124 34h2v2h-2v-2z" fill="rgb(120,188,218)"/>
<path d="M128 34h2v2h-2v-2z" fill="rgb(98,155,180)"/>
<path d="M136 34h2v2h-2v-2z" fill="rgb(120,188,218)"/>
<path d="M138 34h2v2h-2v-2z" fill="rgb(176,217,219)"/>
<path d="M140 34h2v2h-2v-2z" fill="rgb(83,99,129)"/>
<path d="M102 36h6v2h-6v-2z" fill="rgb(83,99,129)"/>
<path d="M108 36h2v2h-2v-2z" fill="rgb(255,255,255)"/>
<path d="M110 36h2v4h-4v-2h2v-2z" fill="rgb(83,99,129)"/>
<path d="M118 36h2v2h-2v-2z" fill="rgb(120,188,218)"/>
<path d="M120 36h2v2h-2v-2z" fill="rgb(83,99,129)"/>
<path d="M122 36h2v2h-2v-2z" fill="rgb(120,188,218)"/>
<path d="M124 36h2v2h-2v-2z" fill="rgb(176,217,219)"/>
<path d="M126 36h2v2h-2v-2z" fill="rgb(98,155,180)"/>
<path d="M128 36h2v2h-2v-2z" fill="rgb(83,99,129)"/>
<path d="M130 36h2v2h-2v-2z" fill="rgb(120,188,218)"/>
<path d="M138 36h2v2h2v2h-4v-4z" fill="rgb(83,99,129)"/>
<path d="M140 36h2v2h-2v-2z" fill="rgb(255,255,255)"/>
<path d="M142 36h6v2h-6v-2z" fill="rgb(83,99,129)"/>
<path d="M100 38h2v2h-2v-2z" fill="rgb(83,99,129)"/>
<path d="M102 38h2v2h-2v-2z" fill="rgb(176,217,219)"/>
<path d="M104 38h2v2h-2v-2z" fill="rgb(120,188,218)"/>
<path d="M106 38h2v2h-2v-2z" fill="rgb(233,254,255)"/>
<path d="M114 38h2v2h-2v-2z" fill="rgb(233,254,255)"/>
<path d="M120 38h2v2h-2v-2z" fill="rgb(120,188,218)"/>
<path d="M122 38h2v2h-2v-2z" fill="rgb(83,99,129)"/>
<path d="M124 38h2v2h-2v-2z" fill="rgb(98,155,180)"/>
<path d="M126 38h2v2h-2v-2z" fill="rgb(83,99,129)"/>
<path d="M128 38h2v2h-2v-2z" fill="rgb(120,188,218)"/>
<path d="M134 38h2v2h-2v-2z" fill="rgb(233,254,255)"/>
<path d="M142 38h2v2h-2v-2z" fill="rgb(233,254,255)"/>
<path d="M144 38h2v2h-2v-2z" fill="rgb(120,188,218)"/>
<path d="M146 38h2v2h-2v-2z" fill="rgb(176,217,219)"/>
<path d="M148 38h2v2h-2v-2z" fill="rgb(83,99,129)"/>
<path d="M102 40h4v2h-4v-2z" fill="rgb(83,99,129)"/>
<path d="M106 40h2v2h-2v-2z" fill="rgb(176,217,219)"/>
<path d="M108 40h2v2h-2v-2z" fill="rgb(120,188,218)"/>
<path d="M110 40h2v2h-2v-2z" fill="rgb(204,245,247)"/>
<path d="M112 40h2v12h-2v-4h-2v-2h2v-6z" fill="rgb(83,99,129)"/>
<path d="M118 40h2v2h-2v-2z" fill="rgb(120,188,218)"/>
<path d="M120 40h2v2h-2v-2z" fill="rgb(204,245,247)"/>
<path d="M122 40h2v2h-2v-2z" fill="rgb(120,188,218)"/>
<path d="M124 40h2v2h-2v-2z" fill="rgb(83,99,129)"/>
<path d="M126 40h2v2h-2v-2z" fill="rgb(120,188,218)"/>
<path d="M128 40h2v2h-2v-2z" fill="rgb(204,245,247)"/>
<path d="M130 40h2v2h-2v-2z" fill="rgb(120,188,218)"/>
<path d="M136 40h2v6h2v2h-2v4h-2v-12z" fill="rgb(83,99,129)"/>
<path d="M138 40h2v2h-2v-2z" fill="rgb(204,245,247)"/>
<path d="M140 40h2v2h-2v-2z" fill="rgb(120,188,218)"/>
<path d="M142 40h2v2h-2v-2z" fill="rgb(176,217,219)"/>
<path d="M144 40h4v2h-4v-2z" fill="rgb(83,99,129)"/>
<path d="M106 42h2v2h-2v-2z" fill="rgb(83,99,129)"/>
<path d="M108 42h2v2h-2v-2z" fill="rgb(176,217,219)"/>
<path d="M110 42h2v2h-2v-2z" fill="rgb(120,188,218)"/>
<path d="M116 42h2v2h-2v-2z" fill="rgb(120,188,218)"/>
<path d="M118 42h2v2h-2v-2z" fill="rgb(176,217,219)"/>
<path d="M120 42h2v2h-2v-2z" fill="rgb(120,188,218)"/>
<path d="M122 42h2v2h-2v-2z" fill="rgb(176,217,219)"/>
<path d="M124 42h2v2h-2v-2z" fill="rgb(120,188,218)"/>
<path d="M126 42h2v2h-2v-2z" fill="rgb(176,217,219)"/>
<path d="M128 42h2v2h-2v-2z" fill="rgb(120,188,218)"/>
<path d="M130 42h2v2h-2v-2z" fill="rgb(176,217,219)"/>
<path d="M132 42h2v2h-2v-2z" fill="rgb(120,188,218)"/>
<path d="M138 42h2v2h-2v-2z" fill="rgb(120,188,218)"/>
<path d="M140 42h2v2h-2v-2z" fill="rgb(176,217,219)"/>
<path d="M142 42h2v2h-2v-2z" fill="rgb(83,99,129)"/>
<path d="M108 44h2v2h-2v-2z" fill="rgb(83,99,129)"/>
<path d="M110 44h2v2h-2v-2z" fill="rgb(176,217,219)"/>
<path d="M116 44h6v2h-6v-2z" fill="rgb(83,99,129)"/>
<path d="M122 44h2v2h-2v-2z" fill="rgb(233,254,255)"/>
<path d="M124 44h2v4h-2v-4z" fill="rgb(176,217,219)"/>
<path d="M126 44h2v2h-2v-2z" fill="rgb(233,254,255)"/>
<path d="M128 44h6v2h-6v-2z" fill="rgb(83,99,129)"/>
<path d="M138 44h2v2h-2v-2z" fill="rgb(176,217,219)"/>
<path d="M140 44h2v2h-2v-2z" fill="rgb(83,99,129)"/>
<path d="M118 46h2v2h-2v-2z" fill="rgb(176,217,219)"/>
<path d="M120 46h2v2h-2v-2z" fill="rgb(120,188,218)"/>
<path d="M122 46h2v2h-2v-2z" fill="rgb(98,155,180)"/>
<path d="M126 46h2v10h-2v-10z" fill="rgb(83,99,129)"/>
<path d="M128 46h2v2h-2v-2z" fill="rgb(120,188,218)"/>
<path d="M130 46h2v2h-2v-2z" fill="rgb(176,217,219)"/>
<path d="M114 48h2v2h-2v-2z" fill="rgb(120,188,218)"/>
<path d="M120 48h2v4h-2v-4z" fill="rgb(176,217,219)"/>
<path d="M122 48h2v4h-2v-4z" fill="rgb(120,188,218)"/>
<path d="M124 48h2v6h-2v-6z" fill="rgb(204,245,247)"/>
<path d="M128 48h2v4h-2v-4z" fill="rgb(176,217,219)"/>
<path d="M134 48h2v2h-2v-2z" fill="rgb(120,188,218)"/>
<path d="M114 50h2v2h-2v-2z" fill="rgb(98,155,180)"/>
<path d="M116 50h2v4h-2v-4z" fill="rgb(176,217,219)"/>
<path d="M132 50h2v4h-2v-4z" fill="rgb(176,217,219)"/>
<path d="M134 50h2v2h-2v-2z" fill="rgb(98,155,180)"/>
<path d="M114 52h2v6h-2v-6z" fill="rgb(83,99,129)"/>
<path d="M118 52h2v2h-2v-2z" fill="rgb(233,254,255)"/>
<path d="M120 52h2v4h-2v-4z" fill="rgb(204,245,247)"/>
<path d="M122 52h2v4h-2v-4z" fill="rgb(176,217,219)"/>
<path d="M128 52h2v4h-2v-4z" fill="rgb(204,245,247)"/>
<path d="M130 52h2v2h-2v-2z" fill="rgb(233,254,255)"/>
<path d="M134 52h2v6h-2v-6z" fill="rgb(83,99,129)"/>
<path d="M116 54h2v2h-2v-2z" fill="rgb(120,188,218)"/>
<path d="M118 54h2v2h2v2h2v2h2v-2h2v-2h2v-2h2v4h-2v2h-2v2h-6v-2h-2v-2h-2v-4z" fill="rgb(176,217,219)"/>
<path d="M124 54h2v2h-2v-2z" fill="rgb(233,254,255)"/>
<path d="M132 54h2v2h-2v-2z" fill="rgb(120,188,218)"/>
<path d="M8 56h8v2h-8v-2z" fill="rgb(83,99,129)"/>
<path d="M116 56h2v2h-2v-2z" fill="rgb(98,155,180)"/>
<path d="M122 56h2v2h-2v-2z" fill="rgb(204,245,247)"/>
<path d="M124 56h2v2h-2v-2z" fill="rgb(83,99,129)"/>
<path d="M126 56h2v2h-2v-2z" fill="rgb(204,245,247)"/>
<path d="M132 56h2v2h-2v-2z" fill="rgb(98,155,180)"/>
<path d="M234 56h8v2h-8v-2z" fill="rgb(83,99,129)"/>
<path d="M6 58h2v2h-2v-2z" fill="rgb(83,99,129)"/>
<path d="M8 58h8v2h-8v-2z" fill="rgb(176,217,219)"/>
<path d="M16 58h6v2h-6v-2z" fill="rgb(83,99,129)"/>
<path d="M116 58h2v2h-2v-2z" fill="rgb(83,99,129)"/>
<path d="M118 58h2v2h-2v-2z" fill="rgb(98,155,180)"/>
<path d="M124 58h2v2h-2v-2z" fill="rgb(204,245,247)"/>
<path d="M130 58h2v2h-2v-2z" fill="rgb(98,155,180)"/>
<path d="M132 58h2v2h-2v-2z" fill="rgb(83,99,129)"/>
<path d="M228 58h6v2h-6v-2z" fill="rgb(83,99,129)"/>
<path d="M234 58h8v2h-8v-2z" fill="rgb(176,217,219)"/>
<path d="M242 58h2v2h-2v-2z" fill="rgb(83,99,129)"/>
<path d="M4 60h2v2h-2v-2z" fill="rgb(83,99,129)"/>
<path d="M6 60h2v2h-2v-2z" fill="rgb(176,217,219)"/>
<path d="M8 60h2v2h-2v-2z" fill="rgb(120,188,218)"/>
<path d="M10 60h6v2h-6v-2z" fill="rgb(83,99,129)"/>
<path d="M16 60h2v2h-2v-2z" fill="rgb(233,254,255)"/>
<path d="M18 60h2v2h2v2h6v2h2v2h8v2h8v2h2v2h2v-2h2v4h4v-2h4v2h-2v2h2v-2h12v-2h2
	v2h4v-2h2v2h2v2h6v-2h-4v-2h4v-2h8v2h-6v2h6v-2h6v-2h2v-2h2v-2h2v-2h4v-2h2v-2h2
	v6h2v2h2v2h2v2h6v-2h2v-2h2v-2h2v-6h2v2h2v2h4v2h2v2h2v2h2v2h6v2h6v-2h-6v-2h8v2h4
	v2h-4v2h6v-2h2v-2h2v2h4v-2h2v2h12v2h2v-2h-2v-2h4v2h4v-4h2v2h2v-2h2v-2h8v-2h8
	v-2h2v-2h6v-2h2v-2h2v2h8v2h-10v2h-4v4h2v2h-4v-2h-10v2h-4v2h-6v2h-4v2h-4v2h-4v2
	h-4v2h-2v-2h-2v-2h-2v-2h-2v2h-14v2h-14v-2h-2v-2h-6v-2h-2v-2h-2v-2h-6v2h-2v2h-4v2
	h-2v-2h-2v2h-2v-2h-4v-2h-2v-2h-6v2h-2v2h-2v2h-6v2h-2v2h-14v-2h-14v-2h-2v2h-2v2
	h-2v2h-2v-2h-4v-2h-4v-2h-4v-2h-4v-2h-6v-2h-4v-2h-10v2h-4v-2h2v-4h-4v-2h-10v-2
	h8v-2z" fill="rgb(204,245,247)"/>
<path d="M20 60h2v2h-2v-2z" fill="rgb(233,254,255)"/>
<path d="M22 60h2v2h-2v-2z" fill="rgb(83,99,129)"/>
<path d="M114 60h2v2h-2v-2z" fill="rgb(83,99,129)"/>
<path d="M116 60h2v2h-2v-2z" fill="rgb(120,188,218)"/>
<path d="M118 60h2v2h-2v-2z" fill="rgb(83,99,129)"/>
<path d="M120 60h2v2h-2v-2z" fill="rgb(98,155,180)"/>
<path d="M128 60h2v2h-2v-2z" fill="rgb(98,155,180)"/>
<path d="M130 60h2v2h-2v-2z" fill="rgb(83,99,129)"/>
<path d="M132 60h2v2h-2v-2z" fill="rgb(120,188,218)"/>
<path d="M134 60h2v2h-2v-2z" fill="rgb(83,99,129)"/>
<path d="M226 60h2v2h-2v-2z" fill="rgb(83,99,129)"/>
<path d="M228 60h2v2h-2v-2z" fill="rgb(233,254,255)"/>
<path d="M232 60h2v2h-2v-2z" fill="rgb(233,254,255)"/>
<path d="M234 60h6v2h-6v-2z" fill="rgb(83,99,129)"/>
<path d="M240 60h2v2h-2v-2z" fill="rgb(120,188,218)"/>
<path d="M242 60h2v2h-2v-2z" fill="rgb(176,217,219)"/>
<path d="M244 60h2v2h-2v-2z" fill="rgb(83,99,129)"/>
<path d="M2 62h2v2h-2v-2z" fill="rgb(83,99,129)"/>
<path d="M4 62h2v2h-2v-2z" fill="rgb(204,245,247)"/>
<path d="M6 62h2v2h-2v-2z" fill="rgb(120,188,218)"/>
<path d="M8 62h2v2h-2v-2z" fill="rgb(83,99,129)"/>
<path d="M22 62h2v2h-2v-2z" fill="rgb(233,254,255)"/>
<path d="M24 62h4v2h-4v-2z" fill="rgb(83,99,129)"/>
<path d="M110 62h4v2h-4v-2z" fill="rgb(83,99,129)"/>
<path d="M116 62h2v2h2v4h2v2h2v2h2v-2h2v-2h2v-4h2v-2h2v6h-2v2h-2v2h-2v2h-6v-2
	h-2v-2h-2v-2h-2v-6z" fill="rgb(176,217,219)"/>
<path d="M118 62h2v2h-2v-2z" fill="rgb(120,188,218)"/>
<path d="M120 62h2v2h-2v-2z" fill="rgb(83,99,129)"/>
<path d="M122 62h2v2h-2v-2z" fill="rgb(98,155,180)"/>
<path d="M124 62h2v2h-2v-2z" fill="rgb(120,188,218)"/>
<path d="M126 62h2v2h-2v-2z" fill="rgb(98,155,180)"/>
<path d="M128 62h2v2h-2v-2z" fill="rgb(83,99,129)"/>
<path d="M130 62h2v2h-2v-2z" fill="rgb(120,188,218)"/>
<path d="M136 62h4v2h-4v-2z" fill="rgb(83,99,129)"/>
<path d="M222 62h4v2h-4v-2z" fill="rgb(83,99,129)"/>
<path d="M226 62h2v2h-2v-2z" fill="rgb(233,254,255)"/>
<path d="M240 62h2v2h-2v-2z" fill="rgb(83,99,129)"/>
<path d="M242 62h2v2h-2v-2z" fill="rgb(120,188,218)"/>
<path d="M244 62h2v2h-2v-2z" fill="rgb(204,245,247)"/>
<path d="M246 62h2v2h-2v-2z" fill="rgb(83,99,129)"/>
<path d="M0 64h2v2h-2v-2z" fill="rgb(83,99,129)"/>
<path d="M2 64h2v2h-2v-2z" fill="rgb(176,217,219)"/>
<path d="M4 64h2v2h-2v-2z" fill="rgb(120,188,218)"/>
<path d="M6 64h2v2h-2v-2z" fill="rgb(83,99,129)"/>
<path d="M8 64h2v2h-2v-2z" fill="rgb(233,254,255)"/>
<path d="M10 64h2v2h-2v-2z" fill="rgb(120,188,218)"/>
<path d="M12 64h2v2h-2v-2z" fill="rgb(83,99,129)"/>
<path d="M14 64h2v2h-2v-2z" fill="rgb(120,188,218)"/>
<path d="M16 64h4v2h-4v-2z" fill="rgb(176,217,219)"/>
<path d="M28 64h2v2h-2v-2z" fill="rgb(83,99,129)"/>
<path d="M104 64h6v2h-6v-2z" fill="rgb(83,99,129)"/>
<path d="M110 64h2v2h-2v-2z" fill="rgb(176,217,219)"/>
<path d="M120 64h2v4h-2v-4z" fill="rgb(120,188,218)"/>
<path d="M122 64h2v4h-2v-4z" fill="rgb(83,99,129)"/>
<path d="M124 64h2v2h-2v-2z" fill="rgb(204,245,247)"/>
<path d="M126 64h2v4h-2v-4z" fill="rgb(83,99,129)"/>
<path d="M128 64h2v4h-2v-4z" fill="rgb(120,188,218)"/>
<path d="M138 64h2v2h-2v-2z" fill="rgb(176,217,219)"/>
<path d="M140 64h6v2h-6v-2z" fill="rgb(83,99,129)"/>
<path d="M220 64h2v2h-2v-2z" fill="rgb(83,99,129)"/>
<path d="M230 64h4v2h-4v-2z" fill="rgb(176,217,219)"/>
<path d="M234 64h2v2h-2v-2z" fill="rgb(120,188,218)"/>
<path d="M236 64h2v2h-2v-2z" fill="rgb(83,99,129)"/>
<path d="M238 64h2v2h-2v-2z" fill="rgb(120,188,218)"/>
<path d="M240 64h2v2h-2v-2z" fill="rgb(233,254,255)"/>
<path d="M242 64h2v2h-2v-2z" fill="rgb(83,99,129)"/>
<path d="M244 64h2v2h-2v-2z" fill="rgb(120,188,218)"/>
<path d="M246 64h2v2h-2v-2z" fill="rgb(176,217,219)"/>
<path d="M248 64h2v2h-2v-2z" fill="rgb(83,99,129)"/>
<path d="M0 66h2v2h2v4h2v2h2v-2h2v-4h2v-2h2v2h2v2h4v2h-4v2h-2v-2h-2v2h-2v2h2v2
	h2v2h6v-2h2v-2h4v4h2v2h2v2h2v4h2v4h2v6h2v16h2v12h2v8h2v2h2v-2h2v-4h2v-2h2v-2h2
	v-2h4v-2h6v-2h4v-2h2v-2h2v-2h2v-2h2v-6h2v2h4v2h4v2h4v2h2v2h2v2h2v2h2v2h2v2h2v4
	h-2v2h-2v6h-2v10h2v6h2v6h2v4h2v4h2v2h-2v8h2v6h2v4h2v2h2v-2h2v6h2v6h2v4h2v2h2v2
	h2v2h-124v-142z" fill="rgb(255,255,255)"/>
<path d="M2 66h4v6h-2v-4h-2v-2z" fill="rgb(83,99,129)"/>
<path d="M6 66h2v2h-2v-2z" fill="rgb(204,245,247)"/>
<path d="M8 66h2v2h-2v-2z" fill="rgb(120,188,218)"/>
<path d="M10 66h2v2h-2v-2z" fill="rgb(83,99,129)"/>
<path d="M14 66h2v2h-2v-2z" fill="rgb(83,99,129)"/>
<path d="M16 66h4v2h-4v-2z" fill="rgb(120,188,218)"/>
<path d="M20 66h4v2h-4v-2z" fill="rgb(176,217,219)"/>
<path d="M30 66h10v2h-10v-2z" fill="rgb(83,99,129)"/>
<path d="M100 66h4v2h-4v-2z" fill="rgb(83,99,129)"/>
<path d="M104 66h2v2h-2v-2z" fill="rgb(176,217,219)"/>
<path d="M106 66h2v2h-2v-2z" fill="rgb(233,254,255)"/>
<path d="M124 66h2v2h-2v-2z" fill="rgb(120,188,218)"/>
<path d="M142 66h2v2h-2v-2z" fill="rgb(233,254,255)"/>
<path d="M144 66h2v2h-2v-2z" fill="rgb(176,217,219)"/>
<path d="M146 66h4v2h-4v-2z" fill="rgb(83,99,129)"/>
<path d="M210 66h10v2h-10v-2z" fill="rgb(83,99,129)"/>
<path d="M226 66h4v2h-4v-2z" fill="rgb(176,217,219)"/>
<path d="M230 66h4v2h-4v-2z" fill="rgb(120,188,218)"/>
<path d="M234 66h2v2h-2v-2z" fill="rgb(83,99,129)"/>
<path d="M236 66h2v2h2v4h2v2h2v-2h2v-4h2v-2h2v142h-124v-2h2v-2h2v-2h2v-4h2v-6h2
	v-6h2v2h2v-2h2v-4h2v-6h2v-8h-2v-2h2v-4h2v-4h2v-6h2v-6h2v-10h-2v-6h-2v-2h-2v-4
	h2v-2h2v-2h2v-2h2v-2h2v-2h2v-2h4v-2h4v-2h4v-2h2v6h2v2h2v2h2v2h2v2h4v2h6v2h4v2h2
	v2h2v2h2v4h2v2h2v-2h2v-8h2v-12h2v-16h2v-6h2v-4h2v-4h2v-2h2v-2h2v-4h4v2h2v2h6
	v-2h2v-2h2v-2h-2v-2h-2v2h-2v-2h-4v-2h4v-2h2v-2z" fill="rgb(255,255,255)"/>
<path d="M238 66h2v2h-2v-2z" fill="rgb(83,99,129)"/>
<path d="M240 66h2v2h-2v-2z" fill="rgb(120,188,218)"/>
<path d="M242 66h2v2h-2v-2z" fill="rgb(204,245,247)"/>
<path d="M244 66h4v2h-2v4h-2v-6z" fill="rgb(83,99,129)"/>
<path d="M6 68h2v2h-2v-2z" fill="rgb(176,217,219)"/>
<path d="M8 68h2v4h-2v-4z" fill="rgb(83,99,129)"/>
<path d="M16 68h6v4h-2v-2h-4v-2z" fill="rgb(83,99,129)"/>
<path d="M22 68h2v2h-2v-2z" fill="rgb(120,188,218)"/>
<path d="M38 68h2v2h-2v-2z" fill="rgb(233,254,255)"/>
<path d="M40 68h6v2h-6v-2z" fill="rgb(83,99,129)"/>
<path d="M82 68h8v2h-8v-2z" fill="rgb(83,99,129)"/>
<path d="M98 68h2v2h-2v-2z" fill="rgb(83,99,129)"/>
<path d="M100 68h2v2h-2v-2z" fill="rgb(176,217,219)"/>
<path d="M102 68h4v2h-2v2h-2v2h-4v-2h2v-2h2v-2z" fill="rgb(233,254,255)"/>
<path d="M122 68h2v2h-2v-2z" fill="rgb(120,188,218)"/>
<path d="M124 68h2v2h-2v-2z" fill="rgb(83,99,129)"/>
<path d="M126 68h2v2h-2v-2z" fill="rgb(120,188,218)"/>
<path d="M144 68h4v2h2v2h2v2h-4v-2h-2v-2h-2v-2z" fill="rgb(233,254,255)"/>
<path d="M148 68h2v2h-2v-2z" fill="rgb(176,217,219)"/>
<path d="M150 68h2v2h-2v-2z" fill="rgb(83,99,129)"/>
<path d="M160 68h8v2h-8v-2z" fill="rgb(83,99,129)"/>
<path d="M204 68h6v2h-6v-2z" fill="rgb(83,99,129)"/>
<path d="M210 68h2v2h-2v-2z" fill="rgb(233,254,255)"/>
<path d="M226 68h2v2h-2v-2z" fill="rgb(120,188,218)"/>
<path d="M228 68h6v2h-4v2h-2v-4z" fill="rgb(83,99,129)"/>
<path d="M240 68h2v4h-2v-4z" fill="rgb(83,99,129)"/>
<path d="M242 68h2v2h-2v-2z" fill="rgb(176,217,219)"/>
<path d="M6 70h2v2h-2v-2z" fill="rgb(120,188,218)"/>
<path d="M26 70h2v2h-2v-2z" fill="rgb(176,217,219)"/>
<path d="M28 70h6v2h-6v-2z" fill="rgb(120,188,218)"/>
<path d="M34 70h2v2h-2v-2z" fill="rgb(176,217,219)"/>
<path d="M46 70h6v2h-6v-2z" fill="rgb(83,99,129)"/>
<path d="M78 70h4v2h-4v-2z" fill="rgb(83,99,129)"/>
<path d="M82 70h8v2h-2v2h-4v2h4v2h-6v-2h-2v-2h-2v-2h4v-2z" fill="rgb(233,254,255)"/>
<path d="M90 70h8v2h-8v-2z" fill="rgb(83,99,129)"/>
<path d="M98 70h2v2h-2v-2z" fill="rgb(176,217,219)"/>
<path d="M124 70h2v2h-2v-2z" fill="rgb(120,188,218)"/>
<path d="M150 70h2v2h-2v-2z" fill="rgb(176,217,219)"/>
<path d="M152 70h8v2h-8v-2z" fill="rgb(83,99,129)"/>
<path d="M160 70h8v2h4v2h-2v2h-2v2h-6v-2h4v-2h-4v-2h-2v-2z" fill="rgb(233,254,255)"/>
<path d="M168 70h4v2h-4v-2z" fill="rgb(83,99,129)"/>
<path d="M198 70h6v2h-6v-2z" fill="rgb(83,99,129)"/>
<path d="M214 70h2v2h-2v-2z" fill="rgb(176,217,219)"/>
<path d="M216 70h6v2h-6v-2z" fill="rgb(120,188,218)"/>
<path d="M222 70h2v2h-2v-2z" fill="rgb(176,217,219)"/>
<path d="M242 70h2v2h-2v-2z" fill="rgb(120,188,218)"/>
<path d="M6 72h2v2h-2v-2z" fill="rgb(83,99,129)"/>
<path d="M12 72h2v2h-2v-2z" fill="rgb(83,99,129)"/>
<path d="M16 72h4v2h-4v-2z" fill="rgb(83,99,129)"/>
<path d="M20 72h2v2h-2v-2z" fill="rgb(204,245,247)"/>
<path d="M22 72h2v2h-2v-2z" fill="rgb(176,217,219)"/>
<path d="M24 72h2v2h-2v-2z" fill="rgb(120,188,218)"/>
<path d="M26 72h8v2h-8v-2z" fill="rgb(83,99,129)"/>
<path d="M34 72h2v2h-2v-2z" fill="rgb(120,188,218)"/>
<path d="M36 72h4v2h-4v-2z" fill="rgb(176,217,219)"/>
<path d="M48 72h2v2h-2v-2z" fill="rgb(233,254,255)"/>
<path d="M52 72h8v2h-8v-2z" fill="rgb(83,99,129)"/>
<path d="M72 72h6v2h-6v-2z" fill="rgb(83,99,129)"/>
<path d="M96 72h2v2h-2v-2z" fill="rgb(176,217,219)"/>
<path d="M110 72h6v2h2v2h-2v2h-2v-2h-4v2h-2v2h-2v2h-6v2h-2v2h-8v-2h-12v-2h-8v2
	h-4v2h-6v-4h2v2h2v-2h2v-2h2v-2h2v2h14v2h14v-2h2v-2h6v-2h2v-2h2v-2z" fill="rgb(176,217,219)"/>
<path d="M134 72h6v2h2v2h2v2h6v2h2v2h14v-2h14v-2h2v2h2v2h2v2h2v-2h2v4h-6v-2h-4
	v-2h-8v2h-12v2h-8v-2h-2v-2h-6v-2h-2v-2h-2v-2h-4v2h-2v-2h-2v-2h2v-2z" fill="rgb(176,217,219)"/>
<path d="M152 72h2v2h-2v-2z" fill="rgb(176,217,219)"/>
<path d="M172 72h6v2h-6v-2z" fill="rgb(83,99,129)"/>
<path d="M190 72h8v2h-8v-2z" fill="rgb(83,99,129)"/>
<path d="M200 72h2v2h-2v-2z" fill="rgb(233,254,255)"/>
<path d="M210 72h4v2h-4v-2z" fill="rgb(176,217,219)"/>
<path d="M214 72h2v2h-2v-2z" fill="rgb(120,188,218)"/>
<path d="M216 72h8v2h-8v-2z" fill="rgb(83,99,129)"/>
<path d="M224 72h2v2h-2v-2z" fill="rgb(120,188,218)"/>
<path d="M226 72h2v2h-2v-2z" fill="rgb(176,217,219)"/>
<path d="M228 72h2v2h-2v-2z" fill="rgb(204,245,247)"/>
<path d="M230 72h4v2h-4v-2z" fill="rgb(83,99,129)"/>
<path d="M236 72h2v2h-2v-2z" fill="rgb(83,99,129)"/>
<path d="M242 72h2v2h-2v-2z" fill="rgb(83,99,129)"/>
<path d="M10 74h2v2h-2v-2z" fill="rgb(83,99,129)"/>
<path d="M12 74h2v2h-2v-2z" fill="rgb(176,217,219)"/>
<path d="M14 74h2v2h-2v-2z" fill="rgb(83,99,129)"/>
<path d="M16 74h2v2h-2v-2z" fill="rgb(204,245,247)"/>
<path d="M18 74h2v2h-2v-2z" fill="rgb(176,217,219)"/>
<path d="M20 74h2v2h-2v-2z" fill="rgb(120,188,218)"/>
<path d="M22 74h4v2h-4v-2z" fill="rgb(83,99,129)"/>
<path d="M26 74h8v2h4v2h-6v2h2v2h2v4h2v4h2v4h2v4h2v6h2v22h2v-2h2v-2h2v-2h6v2h-4
	v2h-2v2h-2v2h-2v2h-2v4h-2v-8h-2v-12h-2v-16h-2v-6h-2v-4h-2v-4h-2v-2h-2v-2h-2v-4
	h-2v-2z" fill="rgb(98,155,180)"/>
<path d="M34 74h4v2h-4v-2z" fill="rgb(83,99,129)"/>
<path d="M38 74h2v2h-2v-2z" fill="rgb(120,188,218)"/>
<path d="M40 74h6v2h4v2h4v2h-6v-2h-4v-2h-4v-2z" fill="rgb(176,217,219)"/>
<path d="M52 74h4v2h-4v-2z" fill="rgb(233,254,255)"/>
<path d="M60 74h12v2h-12v-2z" fill="rgb(83,99,129)"/>
<path d="M74 74h4v2h-4v-2z" fill="rgb(233,254,255)"/>
<path d="M90 74h6v2h-6v-2z" fill="rgb(176,217,219)"/>
<path d="M154 74h6v2h-6v-2z" fill="rgb(176,217,219)"/>
<path d="M172 74h4v2h-4v-2z" fill="rgb(233,254,255)"/>
<path d="M178 74h12v2h-12v-2z" fill="rgb(83,99,129)"/>
<path d="M194 74h4v2h-4v-2z" fill="rgb(233,254,255)"/>
<path d="M204 74h6v2h-4v2h-4v2h-6v-2h4v-2h4v-2z" fill="rgb(176,217,219)"/>
<path d="M210 74h2v2h-2v-2z" fill="rgb(120,188,218)"/>
<path d="M212 74h4v2h-4v-2z" fill="rgb(83,99,129)"/>
<path d="M216 74h8v2h-2v4h-2v2h-2v2h-2v4h-2v4h-2v6h-2v16h-2v12h-2v8h-2v-4h-2v-2
	h-2v-2h-2v-2h-2v-2h-4v-2h6v2h2v2h2v2h2v-22h2v-6h2v-4h2v-4h2v-4h2v-4h2v-2h2v-2
	h-6v-2h4v-2z" fill="rgb(98,155,180)"/>
<path d="M224 74h4v2h-4v-2z" fill="rgb(83,99,129)"/>
<path d="M228 74h2v2h-2v-2z" fill="rgb(120,188,218)"/>
<path d="M230 74h2v2h-2v-2z" fill="rgb(176,217,219)"/>
<path d="M232 74h2v2h-2v-2z" fill="rgb(204,245,247)"/>
<path d="M234 74h2v2h-2v-2z" fill="rgb(83,99,129)"/>
<path d="M236 74h2v2h-2v-2z" fill="rgb(176,217,219)"/>
<path d="M238 74h2v2h-2v-2z" fill="rgb(83,99,129)"/>
<path d="M12 76h2v2h-2v-2z" fill="rgb(83,99,129)"/>
<path d="M14 76h2v2h-2v-2z" fill="rgb(176,217,219)"/>
<path d="M16 76h4v2h-4v-2z" fill="rgb(120,188,218)"/>
<path d="M20 76h2v2h-2v-2z" fill="rgb(83,99,129)"/>
<path d="M26 76h2v4h-2v-4z" fill="rgb(83,99,129)"/>
<path d="M38 76h4v2h-4v-2z" fill="rgb(83,99,129)"/>
<path d="M42 76h2v2h-2v-2z" fill="rgb(120,188,218)"/>
<path d="M58 76h2v2h-2v-2z" fill="rgb(233,254,255)"/>
<path d="M110 76h4v2h2v2h-4v2h-2v-2h-2v-2h2v-2z" fill="rgb(204,245,247)"/>
<path d="M116 76h4v2h-4v-2z" fill="rgb(120,188,218)"/>
<path d="M120 76h2v2h-2v-2z" fill="rgb(176,217,219)"/>
<path d="M124 76h2v4h-2v-4z" fill="rgb(176,217,219)"/>
<path d="M128 76h2v2h-2v-2z" fill="rgb(176,217,219)"/>
<path d="M130 76h4v2h-4v-2z" fill="rgb(120,188,218)"/>
<path d="M136 76h4v2h2v2h-2v2h-2v-2h-4v-2h2v-2z" fill="rgb(204,245,247)"/>
<path d="M190 76h2v2h-2v-2z" fill="rgb(233,254,255)"/>
<path d="M206 76h2v2h-2v-2z" fill="rgb(120,188,218)"/>
<path d="M208 76h4v2h-4v-2z" fill="rgb(83,99,129)"/>
<path d="M222 76h2v4h-2v-4z" fill="rgb(83,99,129)"/>
<path d="M228 76h2v2h-2v-2z" fill="rgb(83,99,129)"/>
<path d="M230 76h4v2h-4v-2z" fill="rgb(120,188,218)"/>
<path d="M234 76h2v2h-2v-2z" fill="rgb(176,217,219)"/>
<path d="M236 76h2v2h-2v-2z" fill="rgb(83,99,129)"/>
<path d="M14 78h6v2h-6v-2z" fill="rgb(83,99,129)"/>
<path d="M32 78h6v2h2v2h4v2h2v2h4v2h4v2h2v2h4v2h2v2h2v6h-2v8h-2v8h-2v2h-6v2h-2
	v2h-2v2h-2v-22h-2v-6h-2v-4h-2v-2h2v-2h-4v-4h-2v-4h-2v-2h-2v-2z" fill="rgb(120,188,218)"/>
<path d="M38 78h4v2h4v2h4v2h6v2h4v2h2v2h2v2h2v-2h2v-2h2v-2h8v2h8v2h12v2h2v2h2v2
	h2v2h2v2h2v4h2v4h2v8h-2v4h-2v2h-2v2h-4v-2h-2v-2h6v-10h-2v-4h-2v-4h-2v-2h-2v-2
	h-2v-2h-2v-2h-6v-2h-4v-2h-8v2h-2v2h-2v2h-2v4h-2v6h-2v4h-2v10h-6v-2h2v-8h2v-8h2
	v-6h-2v-2h-2v-2h-4v-2h-2v-2h-4v-2h-4v-2h-2v-2h-4v-2h-2v-2z" fill="rgb(98,155,180)"/>
<path d="M42 78h4v2h-4v-2z" fill="rgb(83,99,129)"/>
<path d="M46 78h2v2h-2v-2z" fill="rgb(120,188,218)"/>
<path d="M116 78h2v2h-2v-2z" fill="rgb(176,217,219)"/>
<path d="M118 78h2v2h-2v-2z" fill="rgb(83,99,129)"/>
<path d="M120 78h4v2h-4v-2z" fill="rgb(120,188,218)"/>
<path d="M126 78h4v2h-4v-2z" fill="rgb(120,188,218)"/>
<path d="M130 78h2v2h-2v-2z" fill="rgb(83,99,129)"/>
<path d="M132 78h2v2h-2v-2z" fill="rgb(176,217,219)"/>
<path d="M202 78h2v2h-2v-2z" fill="rgb(120,188,218)"/>
<path d="M204 78h4v2h-4v-2z" fill="rgb(83,99,129)"/>
<path d="M208 78h4v2h-2v2h-4v2h-2v2h-4v2h-4v2h-2v2h-4v2h-2v2h-2v6h2v8h2v8h2v2
	h-6v-10h-2v-4h-2v-6h-2v-4h-2v-2h-2v-2h-2v-2h-8v2h-4v2h-6v2h-2v2h-2v2h-2v2h-2v4
	h-2v4h-2v10h6v2h-2v2h-4v-2h-2v-2h-2v-4h-2v-8h2v-4h2v-4h2v-2h2v-2h2v-2h2v-2h2v-2
	h12v-2h8v-2h8v2h2v2h2v2h2v-2h2v-2h2v-2h4v-2h6v-2h4v-2h4v-2z" fill="rgb(98,155,180)"/>
<path d="M212 78h6v2h-2v2h-2v4h-2v4h-4v2h2v2h-2v4h-2v6h-2v22h-2v-2h-2v-2h-2v-2
	h-6v-2h-2v-8h-2v-8h-2v-6h2v-2h2v-2h4v-2h2v-2h4v-2h4v-2h2v-2h4v-2h2v-2z" fill="rgb(120,188,218)"/>
<path d="M230 78h6v2h-6v-2z" fill="rgb(83,99,129)"/>
<path d="M28 80h2v2h-2v-2z" fill="rgb(83,99,129)"/>
<path d="M46 80h4v2h-4v-2z" fill="rgb(83,99,129)"/>
<path d="M50 80h4v2h-4v-2z" fill="rgb(120,188,218)"/>
<path d="M54 80h4v2h-4v-2z" fill="rgb(176,217,219)"/>
<path d="M106 80h2v2h12v-2h2v2h6v-2h2v2h12v-2h2v2h4v2h-2v2h-2v-2h-38v2h-2v-2h-2
	v-2h4v-2z" fill="rgb(83,99,129)"/>
<path d="M108 80h2v2h-2v-2z" fill="rgb(176,217,219)"/>
<path d="M112 80h4v2h-4v-2z" fill="rgb(233,254,255)"/>
<path d="M116 80h2v2h-2v-2z" fill="rgb(204,245,247)"/>
<path d="M118 80h2v2h-2v-2z" fill="rgb(176,217,219)"/>
<path d="M122 80h2v2h-2v-2z" fill="rgb(98,155,180)"/>
<path d="M124 80h2v2h-2v-2z" fill="rgb(120,188,218)"/>
<path d="M126 80h2v2h-2v-2z" fill="rgb(98,155,180)"/>
<path d="M130 80h2v2h-2v-2z" fill="rgb(176,217,219)"/>
<path d="M132 80h2v2h-2v-2z" fill="rgb(204,245,247)"/>
<path d="M134 80h4v2h-4v-2z" fill="rgb(233,254,255)"/>
<path d="M140 80h2v2h-2v-2z" fill="rgb(176,217,219)"/>
<path d="M192 80h4v2h-4v-2z" fill="rgb(176,217,219)"/>
<path d="M196 80h4v2h-4v-2z" fill="rgb(120,188,218)"/>
<path d="M200 80h4v2h-4v-2z" fill="rgb(83,99,129)"/>
<path d="M220 80h2v2h-2v-2z" fill="rgb(83,99,129)"/>
<path d="M30 82h2v2h-2v-2z" fill="rgb(83,99,129)"/>
<path d="M50 82h6v2h-6v-2z" fill="rgb(83,99,129)"/>
<path d="M56 82h4v2h-4v-2z" fill="rgb(120,188,218)"/>
<path d="M70 82h8v2h-8v-2z" fill="rgb(120,188,218)"/>
<path d="M100 82h2v2h-2v-2z" fill="rgb(120,188,218)"/>
<path d="M148 82h2v2h-2v-2z" fill="rgb(120,188,218)"/>
<path d="M172 82h8v2h-8v-2z" fill="rgb(120,188,218)"/>
<path d="M190 82h4v2h-4v-2z" fill="rgb(120,188,218)"/>
<path d="M194 82h6v2h-6v-2z" fill="rgb(83,99,129)"/>
<path d="M218 82h2v2h-2v-2z" fill="rgb(83,99,129)"/>
<path d="M32 84h2v4h-2v-4z" fill="rgb(83,99,129)"/>
<path d="M56 84h4v2h-4v-2z" fill="rgb(83,99,129)"/>
<path d="M66 84h4v2h-2v2h-2v2h-2v-2h-2v-2h4v-2z" fill="rgb(120,188,218)"/>
<path d="M70 84h8v2h-8v-2z" fill="rgb(83,99,129)"/>
<path d="M78 84h12v2h8v2h-12v-2h-8v-2z" fill="rgb(120,188,218)"/>
<path d="M98 84h2v2h-2v-2z" fill="rgb(120,188,218)"/>
<path d="M100 84h2v2h-2v-2z" fill="rgb(83,99,129)"/>
<path d="M102 84h2v2h-2v-2z" fill="rgb(98,155,180)"/>
<path d="M106 84h2v2h-2v-2z" fill="rgb(120,188,218)"/>
<path d="M108 84h2v2h6v-2h18v2h6v-2h2v4h-6v2h-8v-2h2v-2h-4v2h-2v-2h-4v2h2v2h-8
	v-2h-6v-4z" fill="rgb(204,245,247)"/>
<path d="M110 84h6v2h-6v-2z" fill="rgb(233,254,255)"/>
<path d="M134 84h6v2h-6v-2z" fill="rgb(233,254,255)"/>
<path d="M142 84h2v2h-2v-2z" fill="rgb(120,188,218)"/>
<path d="M146 84h2v2h-2v-2z" fill="rgb(98,155,180)"/>
<path d="M148 84h2v2h-2v-2z" fill="rgb(83,99,129)"/>
<path d="M150 84h2v2h-2v-2z" fill="rgb(120,188,218)"/>
<path d="M160 84h12v2h-8v2h-12v-2h8v-2z" fill="rgb(120,188,218)"/>
<path d="M172 84h8v2h-8v-2z" fill="rgb(83,99,129)"/>
<path d="M180 84h4v2h4v2h-2v2h-2v-2h-2v-2h-2v-2z" fill="rgb(120,188,218)"/>
<path d="M190 84h4v2h-4v-2z" fill="rgb(83,99,129)"/>
<path d="M216 84h2v4h-2v-4z" fill="rgb(83,99,129)"/>
<path d="M60 86h2v2h-2v-2z" fill="rgb(83,99,129)"/>
<path d="M68 86h2v2h-2v-2z" fill="rgb(83,99,129)"/>
<path d="M78 86h8v2h-8v-2z" fill="rgb(83,99,129)"/>
<path d="M98 86h2v2h-2v-2z" fill="rgb(83,99,129)"/>
<path d="M100 86h2v6h-2v-2h-2v-2h2v-2z" fill="rgb(98,155,180)"/>
<path d="M102 86h2v6h-2v-6z" fill="rgb(83,99,129)"/>
<path d="M104 86h2v2h-2v-2z" fill="rgb(120,188,218)"/>
<path d="M106 86h2v2h6v2h8v-2h6v2h8v-2h6v-2h2v4h-2v2h-4v2h-8v-2h-10v2h-8v-2h-4
	v-2h-2v-4z" fill="rgb(176,217,219)"/>
<path d="M120 86h4v2h-4v-2z" fill="rgb(120,188,218)"/>
<path d="M126 86h4v2h-4v-2z" fill="rgb(120,188,218)"/>
<path d="M144 86h2v2h-2v-2z" fill="rgb(120,188,218)"/>
<path d="M146 86h2v6h-2v-6z" fill="rgb(83,99,129)"/>
<path d="M148 86h2v2h2v2h-2v2h-2v-6z" fill="rgb(98,155,180)"/>
<path d="M150 86h2v2h-2v-2z" fill="rgb(83,99,129)"/>
<path d="M164 86h8v2h-8v-2z" fill="rgb(83,99,129)"/>
<path d="M180 86h2v2h-2v-2z" fill="rgb(83,99,129)"/>
<path d="M188 86h2v2h-2v-2z" fill="rgb(83,99,129)"/>
<path d="M34 88h2v4h-2v-4z" fill="rgb(83,99,129)"/>
<path d="M62 88h2v2h-2v-2z" fill="rgb(83,99,129)"/>
<path d="M66 88h2v2h-2v-2z" fill="rgb(83,99,129)"/>
<path d="M86 88h12v2h-12v-2z" fill="rgb(83,99,129)"/>
<path d="M104 88h2v4h-2v-4z" fill="rgb(98,155,180)"/>
<path d="M144 88h2v4h-2v-4z" fill="rgb(98,155,180)"/>
<path d="M152 88h12v2h-12v-2z" fill="rgb(83,99,129)"/>
<path d="M182 88h2v2h-2v-2z" fill="rgb(83,99,129)"/>
<path d="M186 88h2v2h-2v-2z" fill="rgb(83,99,129)"/>
<path d="M214 88h2v4h-2v-4z" fill="rgb(83,99,129)"/>
<path d="M40 90h2v2h-2v-2z" fill="rgb(204,245,247)"/>
<path d="M64 90h2v2h-2v-2z" fill="rgb(83,99,129)"/>
<path d="M76 90h8v2h-2v2h-4v4h-2v-2h-2v2h2v2h-2v6h-2v6h-2v-2h-2v2h2v2h-2v2h-2v2
	h-2v-8h2v-4h2v-6h2v-4h2v-2h2v-2h2v-2z" fill="rgb(120,188,218)"/>
<path d="M98 90h2v2h-2v-2z" fill="rgb(83,99,129)"/>
<path d="M106 90h2v2h-2v-2z" fill="rgb(120,188,218)"/>
<path d="M142 90h2v2h-2v-2z" fill="rgb(120,188,218)"/>
<path d="M150 90h2v2h-2v-2z" fill="rgb(83,99,129)"/>
<path d="M166 90h8v2h2v2h2v2h2v4h-2v2h2v-2h2v6h2v4h2v8h-2v-2h-2v-2h-2v-2h-2v-6
	h-2v-6h-2v-2h-2v-4h-4v-2h-2v-2z" fill="rgb(120,188,218)"/>
<path d="M184 90h2v2h-2v-2z" fill="rgb(83,99,129)"/>
<path d="M208 90h2v2h-2v-2z" fill="rgb(204,245,247)"/>
<path d="M36 92h2v6h-2v-6z" fill="rgb(83,99,129)"/>
<path d="M82 92h2v6h-2v6h2v2h2v2h-4v-2h-4v-6h2v-4h2v-4z" fill="rgb(98,155,180)"/>
<path d="M84 92h4v2h6v2h-2v2h2v-2h2v2h2v2h2v2h2v2h-2v2h4v4h2v6h-2v2h2v2h-6v-2
	h-2v-2h-2v-2h-2v-2h-2v-2h-2v-2h-4v-2h-2v-2h-2v-6h2v-6z" fill="rgb(120,188,218)"/>
<path d="M100 92h2v2h-2v-2z" fill="rgb(83,99,129)"/>
<path d="M102 92h2v2h-2v-2z" fill="rgb(98,155,180)"/>
<path d="M104 92h2v2h-2v-2z" fill="rgb(83,99,129)"/>
<path d="M106 92h2v2h-2v-2z" fill="rgb(98,155,180)"/>
<path d="M108 92h4v2h-4v-2z" fill="rgb(120,188,218)"/>
<path d="M120 92h10v2h8v2h-10v-2h-6v2h-10v-2h8v-2z" fill="rgb(120,188,218)"/>
<path d="M138 92h4v2h-4v-2z" fill="rgb(120,188,218)"/>
<path d="M142 92h2v2h-2v-2z" fill="rgb(98,155,180)"/>
<path d="M144 92h2v2h-2v-2z" fill="rgb(83,99,129)"/>
<path d="M146 92h2v2h-2v-2z" fill="rgb(98,155,180)"/>
<path d="M148 92h2v2h-2v-2z" fill="rgb(83,99,129)"/>
<path d="M162 92h4v6h2v6h-2v2h-2v2h-4v2h-2v2h-2v2h-2v2h-2v2h-2v2h-6v-2h2v-2h-2
	v-6h2v-4h4v-2h-2v-2h2v-2h2v-2h2v-2h2v-2h6v-2z" fill="rgb(120,188,218)"/>
<path d="M166 92h2v4h2v4h2v6h-4v2h-4v-2h2v-2h2v-6h-2v-6z" fill="rgb(98,155,180)"/>
<path d="M212 92h2v6h-2v-6z" fill="rgb(83,99,129)"/>
<path d="M54 94h2v2h-2v-2z" fill="rgb(204,245,247)"/>
<path d="M78 94h2v2h-2v-2z" fill="rgb(98,155,180)"/>
<path d="M80 94h2v2h-2v-2z" fill="rgb(83,99,129)"/>
<path d="M102 94h2v2h-2v-2z" fill="rgb(83,99,129)"/>
<path d="M104 94h2v2h-2v-2z" fill="rgb(98,155,180)"/>
<path d="M106 94h2v2h-2v-2z" fill="rgb(83,99,129)"/>
<path d="M108 94h4v2h-4v-2z" fill="rgb(98,155,180)"/>
<path d="M122 94h6v2h-6v-2z" fill="rgb(98,155,180)"/>
<path d="M138 94h4v2h-4v-2z" fill="rgb(98,155,180)"/>
<path d="M142 94h2v2h-2v-2z" fill="rgb(83,99,129)"/>
<path d="M144 94h2v2h-2v-2z" fill="rgb(98,155,180)"/>
<path d="M146 94h2v2h-2v-2z" fill="rgb(83,99,129)"/>
<path d="M168 94h2v2h-2v-2z" fill="rgb(83,99,129)"/>
<path d="M170 94h2v2h-2v-2z" fill="rgb(98,155,180)"/>
<path d="M194 94h2v2h-2v-2z" fill="rgb(204,245,247)"/>
<path d="M48 96h2v2h-2v-2z" fill="rgb(176,217,219)"/>
<path d="M74 96h2v2h-2v-2z" fill="rgb(204,245,247)"/>
<path d="M78 96h2v4h-2v-4z" fill="rgb(83,99,129)"/>
<path d="M92 96h2v2h-2v-2z" fill="rgb(204,245,247)"/>
<path d="M104 96h2v2h-2v-2z" fill="rgb(83,99,129)"/>
<path d="M106 96h2v2h-2v-2z" fill="rgb(98,155,180)"/>
<path d="M108 96h34v2h2v2h-2v4h-2v-6h-30v6h-2v-4h-2v-2h2v-2z" fill="rgb(83,99,129)"/>
<path d="M142 96h2v2h-2v-2z" fill="rgb(98,155,180)"/>
<path d="M144 96h2v2h-2v-2z" fill="rgb(83,99,129)"/>
<path d="M156 96h2v2h-2v-2z" fill="rgb(204,245,247)"/>
<path d="M170 96h2v4h-2v-4z" fill="rgb(83,99,129)"/>
<path d="M174 96h2v2h-2v-2z" fill="rgb(204,245,247)"/>
<path d="M200 96h2v2h-2v-2z" fill="rgb(176,217,219)"/>
<path d="M38 98h2v16h-2v-16z" fill="rgb(83,99,129)"/>
<path d="M76 98h2v2h-2v-2z" fill="rgb(98,155,180)"/>
<path d="M110 98h12v2h-8v6h2v4h2v8h-2v2h-2v2h-2v2h-2v-4h2v-4h2v-8h-2v-4h-2v-6z" fill="rgb(120,188,218)"/>
<path d="M122 98h6v2h-6v-2z" fill="rgb(98,155,180)"/>
<path d="M128 98h12v6h-2v4h-2v8h2v4h2v4h-2v-2h-2v-2h-2v-2h-2v-8h2v-4h2v-6h-8v-2z" fill="rgb(120,188,218)"/>
<path d="M172 98h2v2h-2v-2z" fill="rgb(98,155,180)"/>
<path d="M210 98h2v16h-2v-16z" fill="rgb(83,99,129)"/>
<path d="M70 100h2v2h-2v-2z" fill="rgb(176,217,219)"/>
<path d="M74 100h2v6h-2v-6z" fill="rgb(98,155,180)"/>
<path d="M76 100h2v6h-2v-6z" fill="rgb(83,99,129)"/>
<path d="M86 100h2v2h-2v-2z" fill="rgb(176,217,219)"/>
<path d="M114 100h8v2h-4v2h-2v2h-2v-6z" fill="rgb(176,217,219)"/>
<path d="M122 100h6v2h-2v6h-2v-6h-2v-2z" fill="rgb(120,188,218)"/>
<path d="M128 100h8v6h-2v-2h-2v-2h-4v-2z" fill="rgb(176,217,219)"/>
<path d="M162 100h2v2h-2v-2z" fill="rgb(176,217,219)"/>
<path d="M172 100h2v6h-2v-6z" fill="rgb(83,99,129)"/>
<path d="M174 100h2v6h-2v-6z" fill="rgb(98,155,180)"/>
<path d="M178 100h2v2h-2v-2z" fill="rgb(176,217,219)"/>
<path d="M118 102h4v2h2v8h-2v4h2v8h-2v-2h-2v-2h-2v-2h2v-8h-2v-4h-2v-2h2v-2z" fill="rgb(204,245,247)"/>
<path d="M122 102h2v2h-2v-2z" fill="rgb(176,217,219)"/>
<path d="M126 102h2v2h-2v-2z" fill="rgb(176,217,219)"/>
<path d="M128 102h4v2h2v2h-2v4h-2v-4h-2v4h2v8h2v2h-2v2h-2v2h-2v-8h2v-4h-2v-8h2
	v-2z" fill="rgb(204,245,247)"/>
<path d="M50 104h2v2h-2v-2z" fill="rgb(204,245,247)"/>
<path d="M56 104h2v2h-2v-2z" fill="rgb(176,217,219)"/>
<path d="M92 104h2v2h-2v-2z" fill="rgb(176,217,219)"/>
<path d="M100 104h2v2h-2v-2z" fill="rgb(176,217,219)"/>
<path d="M110 104h2v4h-2v-4z" fill="rgb(83,99,129)"/>
<path d="M138 104h2v4h-2v-4z" fill="rgb(83,99,129)"/>
<path d="M148 104h2v2h-2v-2z" fill="rgb(176,217,219)"/>
<path d="M156 104h2v2h-2v-2z" fill="rgb(176,217,219)"/>
<path d="M192 104h2v2h-2v-2z" fill="rgb(176,217,219)"/>
<path d="M198 104h2v2h-2v-2z" fill="rgb(204,245,247)"/>
<path d="M72 106h2v6h-2v-6z" fill="rgb(98,155,180)"/>
<path d="M74 106h2v6h-2v-6z" fill="rgb(83,99,129)"/>
<path d="M78 106h4v2h-4v-2z" fill="rgb(83,99,129)"/>
<path d="M116 106h2v4h-2v-4z" fill="rgb(176,217,219)"/>
<path d="M120 106h2v4h-2v-4z" fill="rgb(233,254,255)"/>
<path d="M128 106h2v4h-2v-4z" fill="rgb(233,254,255)"/>
<path d="M132 106h2v4h-2v-4z" fill="rgb(176,217,219)"/>
<path d="M168 106h4v2h-4v-2z" fill="rgb(83,99,129)"/>
<path d="M174 106h2v6h-2v-6z" fill="rgb(83,99,129)"/>
<path d="M176 106h2v6h-2v-6z" fill="rgb(98,155,180)"/>
<path d="M82 108h4v2h-4v-2z" fill="rgb(83,99,129)"/>
<path d="M86 108h4v2h-4v-2z" fill="rgb(98,155,180)"/>
<path d="M96 108h2v2h-2v-2z" fill="rgb(204,245,247)"/>
<path d="M112 108h2v8h-2v-8z" fill="rgb(83,99,129)"/>
<path d="M124 108h2v2h-2v-2z" fill="rgb(176,217,219)"/>
<path d="M136 108h2v8h-2v-8z" fill="rgb(83,99,129)"/>
<path d="M152 108h2v2h-2v-2z" fill="rgb(204,245,247)"/>
<path d="M160 108h4v2h-4v-2z" fill="rgb(98,155,180)"/>
<path d="M164 108h4v2h-4v-2z" fill="rgb(83,99,129)"/>
<path d="M48 110h2v2h-2v-2z" fill="rgb(176,217,219)"/>
<path d="M68 110h2v2h-2v-2z" fill="rgb(176,217,219)"/>
<path d="M86 110h4v2h-4v-2z" fill="rgb(83,99,129)"/>
<path d="M90 110h2v2h-2v-2z" fill="rgb(98,155,180)"/>
<path d="M118 110h2v8h-2v-8z" fill="rgb(176,217,219)"/>
<path d="M124 110h2v2h-2v-2z" fill="rgb(83,99,129)"/>
<path d="M130 110h2v8h-2v-8z" fill="rgb(176,217,219)"/>
<path d="M158 110h2v2h-2v-2z" fill="rgb(98,155,180)"/>
<path d="M160 110h4v2h-4v-2z" fill="rgb(83,99,129)"/>
<path d="M180 110h2v2h-2v-2z" fill="rgb(176,217,219)"/>
<path d="M200 110h2v2h-2v-2z" fill="rgb(176,217,219)"/>
<path d="M70 112h2v2h-2v-2z" fill="rgb(98,155,180)"/>
<path d="M72 112h2v2h-2v-2z" fill="rgb(83,99,129)"/>
<path d="M90 112h2v2h-2v-2z" fill="rgb(83,99,129)"/>
<path d="M92 112h2v2h-2v-2z" fill="rgb(98,155,180)"/>
<path d="M98 112h2v2h-2v-2z" fill="rgb(176,217,219)"/>
<path d="M122 112h2v4h-2v-4z" fill="rgb(176,217,219)"/>
<path d="M124 112h2v2h-2v-2z" fill="rgb(98,155,180)"/>
<path d="M126 112h2v4h-2v-4z" fill="rgb(83,99,129)"/>
<path d="M150 112h2v2h-2v-2z" fill="rgb(176,217,219)"/>
<path d="M156 112h2v2h-2v-2z" fill="rgb(98,155,180)"/>
<path d="M158 112h2v2h-2v-2z" fill="rgb(83,99,129)"/>
<path d="M176 112h2v2h-2v-2z" fill="rgb(83,99,129)"/>
<path d="M178 112h2v2h-2v-2z" fill="rgb(98,155,180)"/>
<path d="M40 114h2v12h-2v-12z" fill="rgb(83,99,129)"/>
<path d="M68 114h2v2h-2v-2z" fill="rgb(98,155,180)"/>
<path d="M70 114h2v2h-2v-2z" fill="rgb(83,99,129)"/>
<path d="M92 114h2v2h-2v-2z" fill="rgb(83,99,129)"/>
<path d="M94 114h2v2h-2v-2z" fill="rgb(98,155,180)"/>
<path d="M124 114h2v2h-2v-2z" fill="rgb(120,188,218)"/>
<path d="M154 114h2v2h-2v-2z" fill="rgb(98,155,180)"/>
<path d="M156 114h2v2h-2v-2z" fill="rgb(83,99,129)"/>
<path d="M178 114h2v2h-2v-2z" fill="rgb(83,99,129)"/>
<path d="M180 114h2v2h-2v-2z" fill="rgb(98,155,180)"/>
<path d="M208 114h2v12h-2v-12z" fill="rgb(83,99,129)"/>
<path d="M54 116h2v2h-2v-2z" fill="rgb(204,245,247)"/>
<path d="M66 116h2v2h-2v-2z" fill="rgb(98,155,180)"/>
<path d="M68 116h2v2h-2v-2z" fill="rgb(83,99,129)"/>
<path d="M94 116h2v2h-2v-2z" fill="rgb(83,99,129)"/>
<path d="M96 116h2v2h-2v-2z" fill="rgb(98,155,180)"/>
<path d="M104 116h2v2h-2v-2z" fill="rgb(204,245,247)"/>
<path d="M110 116h2v4h-2v-4z" fill="rgb(83,99,129)"/>
<path d="M124 116h2v2h-2v-2z" fill="rgb(83,99,129)"/>
<path d="M138 116h2v4h-2v-4z" fill="rgb(83,99,129)"/>
<path d="M144 116h2v2h-2v-2z" fill="rgb(204,245,247)"/>
<path d="M152 116h2v2h-2v-2z" fill="rgb(98,155,180)"/>
<path d="M154 116h2v2h-2v-2z" fill="rgb(83,99,129)"/>
<path d="M180 116h2v2h-2v-2z" fill="rgb(83,99,129)"/>
<path d="M182 116h2v2h-2v-2z" fill="rgb(98,155,180)"/>
<path d="M194 116h2v2h-2v-2z" fill="rgb(204,245,247)"/>
<path d="M64 118h4v2h-4v-2z" fill="rgb(83,99,129)"/>
<path d="M96 118h2v2h-2v-2z" fill="rgb(83,99,129)"/>
<path d="M98 118h2v2h-2v-2z" fill="rgb(98,155,180)"/>
<path d="M116 118h2v2h2v2h2v2h2v2h-4v-2h-2v-2h-4v-2h2v-2z" fill="rgb(176,217,219)"/>
<path d="M124 118h2v2h-2v-2z" fill="rgb(176,217,219)"/>
<path d="M132 118h2v2h2v2h-4v2h-2v2h-4v-2h2v-2h2v-2h2v-2z" fill="rgb(176,217,219)"/>
<path d="M150 118h2v2h-2v-2z" fill="rgb(98,155,180)"/>
<path d="M152 118h2v2h-2v-2z" fill="rgb(83,99,129)"/>
<path d="M182 118h4v2h-4v-2z" fill="rgb(83,99,129)"/>
<path d="M58 120h6v2h-6v-2z" fill="rgb(83,99,129)"/>
<path d="M98 120h2v2h-2v-2z" fill="rgb(83,99,129)"/>
<path d="M108 120h2v4h-2v4h2v2h-2v2h-2v-6h-2v2h-2v-4h4v-2h2v-2z" fill="rgb(83,99,129)"/>
<path d="M124 120h2v2h-2v-2z" fill="rgb(120,188,218)"/>
<path d="M140 120h2v2h2v2h4v4h-2v-2h-2v6h-2v-2h-2v-2h2v-4h-2v-4z" fill="rgb(83,99,129)"/>
<path d="M150 120h2v2h-2v-2z" fill="rgb(83,99,129)"/>
<path d="M186 120h6v2h-6v-2z" fill="rgb(83,99,129)"/>
<path d="M54 122h4v2h-4v-2z" fill="rgb(83,99,129)"/>
<path d="M100 122h2v2h-2v-2z" fill="rgb(83,99,129)"/>
<path d="M112 122h2v2h-2v-2z" fill="rgb(98,155,180)"/>
<path d="M114 122h4v2h-4v-2z" fill="rgb(83,99,129)"/>
<path d="M124 122h2v2h-2v-2z" fill="rgb(176,217,219)"/>
<path d="M132 122h4v2h-4v-2z" fill="rgb(83,99,129)"/>
<path d="M136 122h2v2h-2v-2z" fill="rgb(98,155,180)"/>
<path d="M148 122h2v2h-2v-2z" fill="rgb(83,99,129)"/>
<path d="M192 122h4v2h-4v-2z" fill="rgb(83,99,129)"/>
<path d="M52 124h2v2h-2v-2z" fill="rgb(83,99,129)"/>
<path d="M108 124h2v2h-2v-2z" fill="rgb(120,188,218)"/>
<path d="M110 124h2v2h-2v-2z" fill="rgb(98,155,180)"/>
<path d="M112 124h2v2h-2v-2z" fill="rgb(83,99,129)"/>
<path d="M114 124h2v2h-2v-2z" fill="rgb(120,188,218)"/>
<path d="M116 124h2v2h-2v-2z" fill="rgb(233,254,255)"/>
<path d="M118 124h2v2h-2v-2z" fill="rgb(83,99,129)"/>
<path d="M124 124h2v2h-2v-2z" fill="rgb(83,99,129)"/>
<path d="M130 124h2v2h-2v-2z" fill="rgb(83,99,129)"/>
<path d="M132 124h2v2h-2v-2z" fill="rgb(233,254,255)"/>
<path d="M134 124h2v2h-2v-2z" fill="rgb(120,188,218)"/>
<path d="M136 124h2v2h-2v-2z" fill="rgb(83,99,129)"/>
<path d="M138 124h2v2h-2v-2z" fill="rgb(98,155,180)"/>
<path d="M140 124h2v2h-2v-2z" fill="rgb(120,188,218)"/>
<path d="M196 124h2v2h-2v-2z" fill="rgb(83,99,129)"/>
<path d="M42 126h2v8h-2v-8z" fill="rgb(83,99,129)"/>
<path d="M50 126h2v2h-2v-2z" fill="rgb(83,99,129)"/>
<path d="M104 126h2v6h-2v-6z" fill="rgb(98,155,180)"/>
<path d="M108 126h2v2h-2v-2z" fill="rgb(98,155,180)"/>
<path d="M110 126h2v2h-2v-2z" fill="rgb(83,99,129)"/>
<path d="M112 126h2v2h-2v-2z" fill="rgb(120,188,218)"/>
<path d="M114 126h2v2h-2v-2z" fill="rgb(204,245,247)"/>
<path d="M116 126h2v2h-2v-2z" fill="rgb(83,99,129)"/>
<path d="M118 126h2v2h-2v-2z" fill="rgb(120,188,218)"/>
<path d="M120 126h2v2h-2v-2z" fill="rgb(98,155,180)"/>
<path d="M122 126h2v2h-2v-2z" fill="rgb(83,99,129)"/>
<path d="M124 126h2v2h-2v-2z" fill="rgb(120,188,218)"/>
<path d="M126 126h2v2h-2v-2z" fill="rgb(83,99,129)"/>
<path d="M128 126h2v2h-2v-2z" fill="rgb(98,155,180)"/>
<path d="M130 126h2v2h-2v-2z" fill="rgb(120,188,218)"/>
<path d="M132 126h2v2h-2v-2z" fill="rgb(83,99,129)"/>
<path d="M134 126h2v2h-2v-2z" fill="rgb(204,245,247)"/>
<path d="M136 126h2v2h-2v-2z" fill="rgb(120,188,218)"/>
<path d="M138 126h2v2h-2v-2z" fill="rgb(83,99,129)"/>
<path d="M140 126h2v2h-2v-2z" fill="rgb(98,155,180)"/>
<path d="M144 126h2v6h-2v-6z" fill="rgb(98,155,180)"/>
<path d="M198 126h2v2h-2v-2z" fill="rgb(83,99,129)"/>
<path d="M206 126h2v8h-2v-8z" fill="rgb(83,99,129)"/>
<path d="M48 128h2v2h-2v-2z" fill="rgb(83,99,129)"/>
<path d="M100 128h2v4h-2v4h-2v-6h2v-2z" fill="rgb(83,99,129)"/>
<path d="M102 128h2v4h-2v-4z" fill="rgb(120,188,218)"/>
<path d="M110 128h2v2h-2v-2z" fill="rgb(204,245,247)"/>
<path d="M112 128h2v2h-2v-2z" fill="rgb(176,217,219)"/>
<path d="M114 128h2v4h-2v-4z" fill="rgb(83,99,129)"/>
<path d="M116 128h2v2h-2v-2z" fill="rgb(120,188,218)"/>
<path d="M118 128h2v2h-2v-2z" fill="rgb(98,155,180)"/>
<path d="M120 128h2v2h-2v-2z" fill="rgb(83,99,129)"/>
<path d="M122 128h2v2h-2v-2z" fill="rgb(120,188,218)"/>
<path d="M124 128h2v2h-2v-2z" fill="rgb(176,217,219)"/>
<path d="M126 128h2v2h-2v-2z" fill="rgb(120,188,218)"/>
<path d="M128 128h2v2h-2v-2z" fill="rgb(83,99,129)"/>
<path d="M130 128h2v2h-2v-2z" fill="rgb(98,155,180)"/>
<path d="M132 128h2v2h-2v-2z" fill="rgb(120,188,218)"/>
<path d="M134 128h2v4h-2v-4z" fill="rgb(83,99,129)"/>
<path d="M136 128h2v2h-2v-2z" fill="rgb(176,217,219)"/>
<path d="M138 128h2v2h-2v-2z" fill="rgb(204,245,247)"/>
<path d="M146 128h2v4h-2v-4z" fill="rgb(120,188,218)"/>
<path d="M148 128h2v2h2v6h-2v-4h-2v-4z" fill="rgb(83,99,129)"/>
<path d="M200 128h2v2h-2v-2z" fill="rgb(83,99,129)"/>
<path d="M46 130h2v4h-2v-4z" fill="rgb(83,99,129)"/>
<path d="M108 130h2v2h-2v-2z" fill="rgb(204,245,247)"/>
<path d="M110 130h2v2h-2v-2z" fill="rgb(120,188,218)"/>
<path d="M112 130h2v2h-2v-2z" fill="rgb(204,245,247)"/>
<path d="M116 130h2v2h-2v-2z" fill="rgb(98,155,180)"/>
<path d="M118 130h2v2h-2v-2z" fill="rgb(83,99,129)"/>
<path d="M120 130h2v2h2v-2h2v2h2v-2h2v2h2v2h-4v2h-6v-2h-4v-2h2v-2z" fill="rgb(120,188,218)"/>
<path d="M122 130h2v2h-2v-2z" fill="rgb(176,217,219)"/>
<path d="M126 130h2v2h-2v-2z" fill="rgb(176,217,219)"/>
<path d="M130 130h2v2h-2v-2z" fill="rgb(83,99,129)"/>
<path d="M132 130h2v2h-2v-2z" fill="rgb(98,155,180)"/>
<path d="M136 130h2v2h-2v-2z" fill="rgb(204,245,247)"/>
<path d="M138 130h2v2h-2v-2z" fill="rgb(120,188,218)"/>
<path d="M140 130h2v2h-2v-2z" fill="rgb(204,245,247)"/>
<path d="M202 130h2v4h-2v-4z" fill="rgb(83,99,129)"/>
<path d="M100 132h2v2h-2v-2z" fill="rgb(204,245,247)"/>
<path d="M102 132h4v2h-4v-2z" fill="rgb(83,99,129)"/>
<path d="M106 132h2v2h-2v-2z" fill="rgb(204,245,247)"/>
<path d="M108 132h2v2h-2v-2z" fill="rgb(233,254,255)"/>
<path d="M110 132h2v2h-2v-2z" fill="rgb(204,245,247)"/>
<path d="M112 132h2v2h-2v-2z" fill="rgb(120,188,218)"/>
<path d="M114 132h2v2h-2v-2z" fill="rgb(204,245,247)"/>
<path d="M116 132h2v2h-2v-2z" fill="rgb(83,99,129)"/>
<path d="M132 132h2v2h-2v-2z" fill="rgb(83,99,129)"/>
<path d="M134 132h2v2h-2v-2z" fill="rgb(204,245,247)"/>
<path d="M136 132h2v2h-2v-2z" fill="rgb(120,188,218)"/>
<path d="M138 132h2v2h-2v-2z" fill="rgb(204,245,247)"/>
<path d="M140 132h2v2h-2v-2z" fill="rgb(233,254,255)"/>
<path d="M142 132h2v2h-2v-2z" fill="rgb(204,245,247)"/>
<path d="M144 132h4v2h-4v-2z" fill="rgb(83,99,129)"/>
<path d="M148 132h2v2h-2v-2z" fill="rgb(204,245,247)"/>
<path d="M44 134h2v2h-2v-2z" fill="rgb(83,99,129)"/>
<path d="M100 134h2v4h-2v-4z" fill="rgb(176,217,219)"/>
<path d="M102 134h2v4h-2v-4z" fill="rgb(204,245,247)"/>
<path d="M104 134h4v2h-4v-2z" fill="rgb(233,254,255)"/>
<path d="M108 134h2v2h-2v-2z" fill="rgb(204,245,247)"/>
<path d="M110 134h2v2h-2v-2z" fill="rgb(120,188,218)"/>
<path d="M112 134h2v2h-2v-2z" fill="rgb(204,245,247)"/>
<path d="M114 134h2v2h-2v-2z" fill="rgb(83,99,129)"/>
<path d="M116 134h2v4h-2v2h-2v4h2v2h2v2h4v-2h2v-2h-2v-2h6v2h-2v2h2v2h4v-2h2v-2
	h2v-4h-2v-2h-2v-4h2v2h2v2h2v12h-2v2h-6v6h2v2h-4v-4h-6v4h-4v-2h2v-6h-6v-2h-2v-12
	h2v-2h2v-2z" fill="rgb(120,188,218)"/>
<path d="M118 134h4v2h-4v-2z" fill="rgb(98,155,180)"/>
<path d="M128 134h4v2h-4v-2z" fill="rgb(98,155,180)"/>
<path d="M134 134h2v2h-2v-2z" fill="rgb(83,99,129)"/>
<path d="M136 134h2v2h-2v-2z" fill="rgb(204,245,247)"/>
<path d="M138 134h2v2h-2v-2z" fill="rgb(120,188,218)"/>
<path d="M140 134h2v2h-2v-2z" fill="rgb(204,245,247)"/>
<path d="M142 134h4v2h-4v-2z" fill="rgb(233,254,255)"/>
<path d="M146 134h2v4h-2v-4z" fill="rgb(204,245,247)"/>
<path d="M148 134h2v4h-2v-4z" fill="rgb(176,217,219)"/>
<path d="M204 134h2v2h-2v-2z" fill="rgb(83,99,129)"/>
<path d="M96 136h2v10h-2v-10z" fill="rgb(83,99,129)"/>
<path d="M98 136h2v2h2v2h2v-2h2v-2h2v2h2v2h-4v2h2v2h-4v-2h-2v2h-2v-4h-2v-4z" fill="rgb(204,245,247)"/>
<path d="M104 136h2v2h-2v-2z" fill="rgb(176,217,219)"/>
<path d="M108 136h2v2h-2v-2z" fill="rgb(120,188,218)"/>
<path d="M110 136h2v2h-2v-2z" fill="rgb(176,217,219)"/>
<path d="M112 136h2v2h-2v-2z" fill="rgb(83,99,129)"/>
<path d="M118 136h2v2h-2v-2z" fill="rgb(176,217,219)"/>
<path d="M120 136h2v2h-2v-2z" fill="rgb(83,99,129)"/>
<path d="M122 136h6v2h-6v-2z" fill="rgb(98,155,180)"/>
<path d="M128 136h2v2h-2v-2z" fill="rgb(83,99,129)"/>
<path d="M130 136h2v2h-2v-2z" fill="rgb(176,217,219)"/>
<path d="M136 136h2v2h-2v-2z" fill="rgb(83,99,129)"/>
<path d="M138 136h2v2h-2v-2z" fill="rgb(176,217,219)"/>
<path d="M140 136h2v2h-2v-2z" fill="rgb(120,188,218)"/>
<path d="M142 136h2v2h2v2h2v-2h2v-2h2v4h-2v4h-2v-2h-2v2h-4v-2h2v-2h-4v-2h2v-2z" fill="rgb(204,245,247)"/>
<path d="M144 136h2v2h-2v-2z" fill="rgb(176,217,219)"/>
<path d="M152 136h2v10h-2v-10z" fill="rgb(83,99,129)"/>
<path d="M102 138h2v2h-2v-2z" fill="rgb(176,217,219)"/>
<path d="M110 138h2v4h-2v-4z" fill="rgb(83,99,129)"/>
<path d="M116 138h2v2h-2v-2z" fill="rgb(83,99,129)"/>
<path d="M118 138h2v2h-2v-2z" fill="rgb(120,188,218)"/>
<path d="M120 138h2v2h-2v-2z" fill="rgb(176,217,219)"/>
<path d="M122 138h6v2h-6v-2z" fill="rgb(83,99,129)"/>
<path d="M128 138h2v2h-2v-2z" fill="rgb(176,217,219)"/>
<path d="M130 138h2v2h-2v-2z" fill="rgb(120,188,218)"/>
<path d="M132 138h2v2h-2v-2z" fill="rgb(83,99,129)"/>
<path d="M138 138h2v4h-2v-4z" fill="rgb(83,99,129)"/>
<path d="M146 138h2v2h-2v-2z" fill="rgb(176,217,219)"/>
<path d="M98 140h2v4h-2v-4z" fill="rgb(120,188,218)"/>
<path d="M106 140h2v2h-2v-2z" fill="rgb(120,188,218)"/>
<path d="M108 140h2v2h-2v-2z" fill="rgb(176,217,219)"/>
<path d="M114 140h2v4h-2v-4z" fill="rgb(83,99,129)"/>
<path d="M116 140h2v2h-2v-2z" fill="rgb(176,217,219)"/>
<path d="M118 140h2v2h-2v-2z" fill="rgb(83,99,129)"/>
<path d="M120 140h2v2h-2v-2z" fill="rgb(120,188,218)"/>
<path d="M122 140h6v2h-6v-2z" fill="rgb(176,217,219)"/>
<path d="M128 140h2v2h-2v-2z" fill="rgb(120,188,218)"/>
<path d="M130 140h2v2h-2v-2z" fill="rgb(83,99,129)"/>
<path d="M132 140h2v2h-2v-2z" fill="rgb(176,217,219)"/>
<path d="M134 140h2v4h-2v-4z" fill="rgb(83,99,129)"/>
<path d="M140 140h2v2h-2v-2z" fill="rgb(176,217,219)"/>
<path d="M142 140h2v2h-2v-2z" fill="rgb(120,188,218)"/>
<path d="M150 140h2v4h-2v-4z" fill="rgb(120,188,218)"/>
<path d="M102 142h2v2h-2v-2z" fill="rgb(233,254,255)"/>
<path d="M108 142h2v8h-2v-8z" fill="rgb(83,99,129)"/>
<path d="M110 142h2v8h-2v-8z" fill="rgb(98,155,180)"/>
<path d="M116 142h2v2h-2v-2z" fill="rgb(204,245,247)"/>
<path d="M118 142h2v2h-2v-2z" fill="rgb(176,217,219)"/>
<path d="M120 142h2v2h-2v-2z" fill="rgb(83,99,129)"/>
<path d="M128 142h2v2h-2v-2z" fill="rgb(83,99,129)"/>
<path d="M130 142h2v2h-2v-2z" fill="rgb(176,217,219)"/>
<path d="M132 142h2v2h-2v-2z" fill="rgb(204,245,247)"/>
<path d="M138 142h2v8h-2v-8z" fill="rgb(98,155,180)"/>
<path d="M140 142h2v8h-2v-8z" fill="rgb(83,99,129)"/>
<path d="M146 142h2v2h-2v-2z" fill="rgb(233,254,255)"/>
<path d="M98 144h2v2h-2v-2z" fill="rgb(176,217,219)"/>
<path d="M100 144h2v4h-2v-4z" fill="rgb(120,188,218)"/>
<path d="M102 144h2v2h4v2h-6v-4z" fill="rgb(204,245,247)"/>
<path d="M104 144h2v2h-2v-2z" fill="rgb(233,254,255)"/>
<path d="M106 144h2v2h-2v-2z" fill="rgb(120,188,218)"/>
<path d="M116 144h2v2h-2v-2z" fill="rgb(83,99,129)"/>
<path d="M118 144h2v2h-2v-2z" fill="rgb(204,245,247)"/>
<path d="M120 144h2v2h-2v-2z" fill="rgb(176,217,219)"/>
<path d="M122 144h2v2h-2v-2z" fill="rgb(83,99,129)"/>
<path d="M126 144h2v2h-2v-2z" fill="rgb(83,99,129)"/>
<path d="M128 144h2v2h-2v-2z" fill="rgb(176,217,219)"/>
<path d="M130 144h2v2h-2v-2z" fill="rgb(204,245,247)"/>
<path d="M132 144h2v2h-2v-2z" fill="rgb(83,99,129)"/>
<path d="M142 144h2v2h-2v-2z" fill="rgb(120,188,218)"/>
<path d="M144 144h2v2h-2v-2z" fill="rgb(233,254,255)"/>
<path d="M146 144h2v4h-6v-2h4v-2z" fill="rgb(204,245,247)"/>
<path d="M148 144h2v4h-2v-4z" fill="rgb(120,188,218)"/>
<path d="M150 144h2v2h-2v-2z" fill="rgb(176,217,219)"/>
<path d="M98 146h2v6h-2v-6z" fill="rgb(83,99,129)"/>
<path d="M118 146h4v2h-4v-2z" fill="rgb(83,99,129)"/>
<path d="M128 146h4v2h-4v-2z" fill="rgb(83,99,129)"/>
<path d="M150 146h2v6h-2v-6z" fill="rgb(83,99,129)"/>
<path d="M100 148h2v2h-2v-2z" fill="rgb(204,245,247)"/>
<path d="M102 148h4v2h-4v-2z" fill="rgb(120,188,218)"/>
<path d="M106 148h2v2h-2v-2z" fill="rgb(176,217,219)"/>
<path d="M124 148h2v2h-2v-2z" fill="rgb(176,217,219)"/>
<path d="M142 148h2v2h-2v-2z" fill="rgb(176,217,219)"/>
<path d="M144 148h4v2h-4v-2z" fill="rgb(120,188,218)"/>
<path d="M148 148h2v2h-2v-2z" fill="rgb(204,245,247)"/>
<path d="M100 150h2v2h-2v-2z" fill="rgb(176,217,219)"/>
<path d="M102 150h2v2h-2v-2z" fill="rgb(204,245,247)"/>
<path d="M104 150h2v2h-2v-2z" fill="rgb(176,217,219)"/>
<path d="M106 150h2v2h-2v-2z" fill="rgb(83,99,129)"/>
<path d="M108 150h2v2h-2v-2z" fill="rgb(233,254,255)"/>
<path d="M110 150h2v4h-2v-4z" fill="rgb(83,99,129)"/>
<path d="M112 150h2v4h-2v-4z" fill="rgb(98,155,180)"/>
<path d="M122 150h2v2h-2v-2z" fill="rgb(83,99,129)"/>
<path d="M124 150h2v2h-2v-2z" fill="rgb(204,245,247)"/>
<path d="M126 150h2v2h-2v-2z" fill="rgb(83,99,129)"/>
<path d="M136 150h2v4h-2v-4z" fill="rgb(98,155,180)"/>
<path d="M138 150h2v4h-2v-4z" fill="rgb(83,99,129)"/>
<path d="M140 150h2v2h-2v-2z" fill="rgb(233,254,255)"/>
<path d="M142 150h2v2h-2v-2z" fill="rgb(83,99,129)"/>
<path d="M144 150h2v2h-2v-2z" fill="rgb(176,217,219)"/>
<path d="M146 150h2v2h-2v-2z" fill="rgb(204,245,247)"/>
<path d="M148 150h2v2h-2v-2z" fill="rgb(176,217,219)"/>
<path d="M100 152h6v2h-4v4h-2v-6z" fill="rgb(83,99,129)"/>
<path d="M106 152h2v2h-2v-2z" fill="rgb(233,254,255)"/>
<path d="M108 152h2v2h2v2h-2v4h2v2h2v-2h2v6h-6v-4h-2v2h-2v-8h-2v-2h4v-2z" fill="rgb(204,245,247)"/>
<path d="M114 152h6v6h-4v-2h-2v2h-2v-4h2v-2z" fill="rgb(83,99,129)"/>
<path d="M124 152h2v2h-2v-2z" fill="rgb(83,99,129)"/>
<path d="M130 152h6v2h2v4h-2v-2h-2v-2h-2v2h2v2h-4v-6z" fill="rgb(83,99,129)"/>
<path d="M140 152h2v2h4v2h-2v8h-2v-2h-2v4h-6v-6h2v2h2v-2h2v-4h-2v-2h2v-2z" fill="rgb(204,245,247)"/>
<path d="M142 152h2v2h-2v-2z" fill="rgb(233,254,255)"/>
<path d="M144 152h6v6h-2v-4h-4v-2z" fill="rgb(83,99,129)"/>
<path d="M102 154h2v2h2v4h-2v-2h-2v-4z" fill="rgb(120,188,218)"/>
<path d="M116 154h2v2h-2v-2z" fill="rgb(98,155,180)"/>
<path d="M132 154h2v2h-2v-2z" fill="rgb(98,155,180)"/>
<path d="M146 154h2v4h-2v2h-2v-4h2v-2z" fill="rgb(120,188,218)"/>
<path d="M110 156h2v4h-2v-4z" fill="rgb(176,217,219)"/>
<path d="M114 156h2v2h-2v-2z" fill="rgb(98,155,180)"/>
<path d="M122 156h6v6h-6v-6z" fill="rgb(83,99,129)"/>
<path d="M134 156h2v2h-2v-2z" fill="rgb(98,155,180)"/>
<path d="M138 156h2v4h-2v-4z" fill="rgb(176,217,219)"/>
<path d="M102 158h2v4h-2v-4z" fill="rgb(83,99,129)"/>
<path d="M112 158h2v2h-2v-2z" fill="rgb(204,245,247)"/>
<path d="M114 158h2v2h-2v-2z" fill="rgb(83,99,129)"/>
<path d="M116 158h2v2h-2v-2z" fill="rgb(98,155,180)"/>
<path d="M124 158h2v2h-2v-2z" fill="rgb(98,155,180)"/>
<path d="M132 158h2v2h-2v-2z" fill="rgb(98,155,180)"/>
<path d="M134 158h2v2h-2v-2z" fill="rgb(83,99,129)"/>
<path d="M136 158h2v2h-2v-2z" fill="rgb(204,245,247)"/>
<path d="M146 158h2v4h-2v-4z" fill="rgb(83,99,129)"/>
<path d="M104 160h2v2h-2v-2z" fill="rgb(176,217,219)"/>
<path d="M112 160h2v2h-2v-2z" fill="rgb(176,217,219)"/>
<path d="M116 160h2v2h-2v-2z" fill="rgb(83,99,129)"/>
<path d="M118 160h4v2h-4v-2z" fill="rgb(98,155,180)"/>
<path d="M128 160h4v2h-4v-2z" fill="rgb(98,155,180)"/>
<path d="M132 160h2v2h-2v-2z" fill="rgb(83,99,129)"/>
<path d="M136 160h2v2h-2v-2z" fill="rgb(176,217,219)"/>
<path d="M144 160h2v2h-2v-2z" fill="rgb(176,217,219)"/>
<path d="M104 162h2v4h-2v-4z" fill="rgb(83,99,129)"/>
<path d="M108 162h2v4h-2v-4z" fill="rgb(120,188,218)"/>
<path d="M116 162h2v2h-2v-2z" fill="rgb(176,217,219)"/>
<path d="M118 162h4v2h-4v-2z" fill="rgb(83,99,129)"/>
<path d="M122 162h6v2h-6v-2z" fill="rgb(98,155,180)"/>
<path d="M128 162h4v2h-4v-2z" fill="rgb(83,99,129)"/>
<path d="M132 162h2v2h-2v-2z" fill="rgb(176,217,219)"/>
<path d="M140 162h2v4h-2v-4z" fill="rgb(120,188,218)"/>
<path d="M144 162h2v4h-2v-4z" fill="rgb(83,99,129)"/>
<path d="M106 164h2v2h-2v-2z" fill="rgb(176,217,219)"/>
<path d="M116 164h2v4h-2v-4z" fill="rgb(83,99,129)"/>
<path d="M118 164h2v2h-2v-2z" fill="rgb(204,245,247)"/>
<path d="M120 164h2v2h-2v-2z" fill="rgb(233,254,255)"/>
<path d="M122 164h6v2h-6v-2z" fill="rgb(83,99,129)"/>
<path d="M128 164h2v2h-2v-2z" fill="rgb(233,254,255)"/>
<path d="M130 164h2v2h-2v-2z" fill="rgb(204,245,247)"/>
<path d="M132 164h2v4h-2v-4z" fill="rgb(83,99,129)"/>
<path d="M142 164h2v2h-2v-2z" fill="rgb(176,217,219)"/>
<path d="M106 166h2v2h-2v-2z" fill="rgb(83,99,129)"/>
<path d="M108 166h2v2h-2v-2z" fill="rgb(176,217,219)"/>
<path d="M110 166h4v2h-4v-2z" fill="rgb(120,188,218)"/>
<path d="M114 166h2v2h-2v-2z" fill="rgb(176,217,219)"/>
<path d="M118 166h2v2h-2v-2z" fill="rgb(120,188,218)"/>
<path d="M120 166h4v2h-2v2h2v2h2v-2h2v-2h-2v-2h4v2h4v4h-2v-2h-2v2h-2v2h-2v4h2v2
	h-6v-2h2v-4h-2v-2h-2v-2h-2v2h-2v-4h4v-2z" fill="rgb(204,245,247)"/>
<path d="M124 166h2v2h-2v-2z" fill="rgb(233,254,255)"/>
<path d="M130 166h2v2h-2v-2z" fill="rgb(120,188,218)"/>
<path d="M134 166h2v2h-2v-2z" fill="rgb(176,217,219)"/>
<path d="M136 166h4v2h-4v-2z" fill="rgb(120,188,218)"/>
<path d="M140 166h2v2h-2v-2z" fill="rgb(176,217,219)"/>
<path d="M142 166h2v2h-2v-2z" fill="rgb(83,99,129)"/>
<path d="M104 168h2v8h-2v-8z" fill="rgb(83,99,129)"/>
<path d="M106 168h2v2h2v2h-2v4h-2v-8z" fill="rgb(98,155,180)"/>
<path d="M108 168h2v2h-2v-2z" fill="rgb(83,99,129)"/>
<path d="M110 168h2v2h-2v-2z" fill="rgb(176,217,219)"/>
<path d="M112 168h2v2h-2v-2z" fill="rgb(204,245,247)"/>
<path d="M114 168h2v6h-4v-2h2v-4z" fill="rgb(83,99,129)"/>
<path d="M122 168h2v2h-2v-2z" fill="rgb(176,217,219)"/>
<path d="M124 168h2v2h-2v-2z" fill="rgb(204,245,247)"/>
<path d="M126 168h2v2h-2v-2z" fill="rgb(176,217,219)"/>
<path d="M134 168h2v4h2v2h-4v-6z" fill="rgb(83,99,129)"/>
<path d="M136 168h2v2h-2v-2z" fill="rgb(204,245,247)"/>
<path d="M138 168h2v2h-2v-2z" fill="rgb(176,217,219)"/>
<path d="M140 168h2v2h-2v-2z" fill="rgb(83,99,129)"/>
<path d="M142 168h2v8h-2v-4h-2v-2h2v-2z" fill="rgb(98,155,180)"/>
<path d="M144 168h2v8h-2v-8z" fill="rgb(83,99,129)"/>
<path d="M110 170h2v2h-2v-2z" fill="rgb(83,99,129)"/>
<path d="M112 170h2v2h-2v-2z" fill="rgb(176,217,219)"/>
<path d="M118 170h2v2h2v2h-4v-4z" fill="rgb(120,188,218)"/>
<path d="M124 170h2v2h-2v-2z" fill="rgb(176,217,219)"/>
<path d="M130 170h2v4h-4v-2h2v-2z" fill="rgb(120,188,218)"/>
<path d="M136 170h2v2h-2v-2z" fill="rgb(176,217,219)"/>
<path d="M138 170h2v2h-2v-2z" fill="rgb(83,99,129)"/>
<path d="M108 172h2v2h-2v-2z" fill="rgb(120,188,218)"/>
<path d="M110 172h2v2h4v2h-2v2h-2v-2h-2v-4z" fill="rgb(98,155,180)"/>
<path d="M116 172h2v2h-2v-2z" fill="rgb(176,217,219)"/>
<path d="M132 172h2v2h-2v-2z" fill="rgb(176,217,219)"/>
<path d="M138 172h2v4h-2v2h-2v-2h-2v-2h4v-2z" fill="rgb(98,155,180)"/>
<path d="M140 172h2v2h-2v-2z" fill="rgb(120,188,218)"/>
<path d="M108 174h2v2h-2v-2z" fill="rgb(176,217,219)"/>
<path d="M116 174h2v2h-2v-2z" fill="rgb(83,99,129)"/>
<path d="M118 174h2v2h-2v-2z" fill="rgb(176,217,219)"/>
<path d="M120 174h2v2h-2v-2z" fill="rgb(204,245,247)"/>
<path d="M122 174h2v4h-2v-4z" fill="rgb(120,188,218)"/>
<path d="M126 174h2v4h-2v-4z" fill="rgb(120,188,218)"/>
<path d="M128 174h2v2h-2v-2z" fill="rgb(204,245,247)"/>
<path d="M130 174h2v2h-2v-2z" fill="rgb(176,217,219)"/>
<path d="M132 174h2v2h-2v-2z" fill="rgb(83,99,129)"/>
<path d="M140 174h2v2h-2v-2z" fill="rgb(176,217,219)"/>
<path d="M106 176h2v6h-2v-6z" fill="rgb(83,99,129)"/>
<path d="M108 176h4v2h-4v-2z" fill="rgb(120,188,218)"/>
<path d="M114 176h2v6h-2v-6z" fill="rgb(83,99,129)"/>
<path d="M116 176h2v2h2v2h-2v8h2v2h-2v2h-2v-6h-2v-4h2v-6z" fill="rgb(98,155,180)"/>
<path d="M118 176h2v2h-2v-2z" fill="rgb(83,99,129)"/>
<path d="M120 176h2v2h-2v-2z" fill="rgb(176,217,219)"/>
<path d="M128 176h2v2h-2v-2z" fill="rgb(176,217,219)"/>
<path d="M130 176h2v2h-2v-2z" fill="rgb(83,99,129)"/>
<path d="M132 176h2v6h2v4h-2v6h-2v-2h-2v-2h2v-8h-2v-2h2v-2z" fill="rgb(98,155,180)"/>
<path d="M134 176h2v6h-2v-6z" fill="rgb(83,99,129)"/>
<path d="M138 176h4v2h-4v-2z" fill="rgb(120,188,218)"/>
<path d="M142 176h2v6h-2v-6z" fill="rgb(83,99,129)"/>
<path d="M108 178h2v4h-2v-4z" fill="rgb(98,155,180)"/>
<path d="M110 178h2v4h-2v-4z" fill="rgb(176,217,219)"/>
<path d="M112 178h2v4h-2v-4z" fill="rgb(120,188,218)"/>
<path d="M120 178h2v4h-2v-4z" fill="rgb(83,99,129)"/>
<path d="M128 178h2v4h-2v-4z" fill="rgb(83,99,129)"/>
<path d="M136 178h2v4h-2v-4z" fill="rgb(120,188,218)"/>
<path d="M138 178h2v4h-2v-4z" fill="rgb(176,217,219)"/>
<path d="M140 178h2v4h-2v-4z" fill="rgb(98,155,180)"/>
<path d="M118 180h2v2h2v2h-2v4h-2v-8z" fill="rgb(120,188,218)"/>
<path d="M122 180h2v2h-2v-2z" fill="rgb(176,217,219)"/>
<path d="M124 180h2v2h-2v-2z" fill="rgb(120,188,218)"/>
<path d="M126 180h2v2h-2v-2z" fill="rgb(176,217,219)"/>
<path d="M130 180h2v8h-2v-4h-2v-2h2v-2z" fill="rgb(120,188,218)"/>
<path d="M108 182h2v4h-2v-4z" fill="rgb(83,99,129)"/>
<path d="M110 182h2v4h-2v-4z" fill="rgb(98,155,180)"/>
<path d="M112 182h2v4h-2v-4z" fill="rgb(83,99,129)"/>
<path d="M122 182h2v2h-2v-2z" fill="rgb(83,99,129)"/>
<path d="M124 182h2v2h-2v-2z" fill="rgb(176,217,219)"/>
<path d="M126 182h2v2h-2v-2z" fill="rgb(83,99,129)"/>
<path d="M136 182h2v4h-2v-4z" fill="rgb(83,99,129)"/>
<path d="M138 182h2v4h-2v-4z" fill="rgb(98,155,180)"/>
<path d="M140 182h2v4h-2v-4z" fill="rgb(83,99,129)"/>
<path d="M120 184h2v2h-2v-2z" fill="rgb(176,217,219)"/>
<path d="M122 184h2v2h-2v-2z" fill="rgb(120,188,218)"/>
<path d="M124 184h2v2h-2v-2z" fill="rgb(83,99,129)"/>
<path d="M126 184h2v2h-2v-2z" fill="rgb(120,188,218)"/>
<path d="M128 184h2v2h-2v-2z" fill="rgb(176,217,219)"/>
<path d="M110 186h2v2h-2v-2z" fill="rgb(83,99,129)"/>
<path d="M114 186h2v6h-2v-6z" fill="rgb(83,99,129)"/>
<path d="M120 186h2v2h-2v-2z" fill="rgb(98,155,180)"/>
<path d="M122 186h2v2h-2v-2z" fill="rgb(176,217,219)"/>
<path d="M124 186h2v2h-2v-2z" fill="rgb(120,188,218)"/>
<path d="M126 186h2v2h-2v-2z" fill="rgb(176,217,219)"/>
<path d="M128 186h2v2h-2v-2z" fill="rgb(98,155,180)"/>
<path d="M134 186h2v6h-2v-6z" fill="rgb(83,99,129)"/>
<path d="M138 186h2v2h-2v-2z" fill="rgb(83,99,129)"/>
<path d="M120 188h2v2h-2v-2z" fill="rgb(176,217,219)"/>
<path d="M122 188h2v4h-2v-4z" fill="rgb(120,188,218)"/>
<path d="M124 188h2v6h-2v-6z" fill="rgb(98,155,180)"/>
<path d="M126 188h2v4h-2v-4z" fill="rgb(120,188,218)"/>
<path d="M128 188h2v2h-2v-2z" fill="rgb(176,217,219)"/>
<path d="M118 190h2v2h-2v-2z" fill="rgb(120,188,218)"/>
<path d="M120 190h2v4h-2v2h-2v-4h2v-2z" fill="rgb(98,155,180)"/>
<path d="M128 190h2v2h2v4h-2v-2h-2v-4z" fill="rgb(98,155,180)"/>
<path d="M130 190h2v2h-2v-2z" fill="rgb(120,188,218)"/>
<path d="M116 192h2v6h-2v-6z" fill="rgb(83,99,129)"/>
<path d="M122 192h2v2h2v-2h2v6h-2v-2h-2v2h-2v-6z" fill="rgb(176,217,219)"/>
<path d="M132 192h2v6h-2v-6z" fill="rgb(83,99,129)"/>
<path d="M120 194h2v2h-2v-2z" fill="rgb(120,188,218)"/>
<path d="M128 194h2v2h-2v-2z" fill="rgb(120,188,218)"/>
<path d="M118 196h2v2h-2v-2z" fill="rgb(120,188,218)"/>
<path d="M120 196h2v6h-2v-6z" fill="rgb(98,155,180)"/>
<path d="M124 196h2v2h-2v-2z" fill="rgb(120,188,218)"/>
<path d="M128 196h2v6h-2v-6z" fill="rgb(98,155,180)"/>
<path d="M130 196h2v2h-2v-2z" fill="rgb(120,188,218)"/>
<path d="M118 198h2v4h-2v-4z" fill="rgb(83,99,129)"/>
<path d="M122 198h2v6h-2v-6z" fill="rgb(120,188,218)"/>
<path d="M124 198h2v8h-2v-8z" fill="rgb(98,155,180)"/>
<path d="M126 198h2v6h-2v-6z" fill="rgb(120,188,218)"/>
<path d="M130 198h2v4h-2v-4z" fill="rgb(83,99,129)"/>
<path d="M120 202h2v2h-2v-2z" fill="rgb(83,99,129)"/>
<path d="M128 202h2v2h-2v-2z" fill="rgb(83,99,129)"/>
<path d="M122 204h2v2h-2v-2z" fill="rgb(83,99,129)"/>
<path d="M126 204h2v2h-2v-2z" fill="rgb(83,99,129)"/>
<path d="M124 206h2v2h-2v-2z" fill="rgb(83,99,129)"/>
</svg>