<?xml version="1.0" encoding="utf-8"?>
<!-- generated at drububu.com  -->
<!DOCTYPE svg PUBLIC "-//W3C//DTD SVG 1.1//EN" "http://www.w3.org/Graphics/SVG/1.1/DTD/svg11.dtd">
<svg version="1.1" preserveAspectRatio="xMinYMin meet" xmlns="http://www.w3.org/2000/svg" xmlns:xlink="http://www.w3.org/1999/xlink" x="0px" y="0px" width="162px" height="144px" viewBox="0 0 162 144">
<path d="M0 0h80v2h-2v2h-2v4h-2v6h-2v6h-4v2h-2v-6h-2v-2h-4v2h-2v10h-4v2h-2v2h-2
	v-14h-2v-2h-4v2h-2v10h2v4h-2v2h-2v8h2v4h-4v2h-2v2h-4v2h-2v2h-4v2h-2v2h-2v2h-2
	v2h-2v2h-2v2h-2v2h-2v2h-2v2h-2v4h-2v4h-2v4h-2v6h-2v-88z" fill="rgb(255,255,255)"/>
<path d="M80 0h2v2h-2v-2z" fill="rgb(107,84,0)"/>
<path d="M82 0h80v88h-2v-6h-2v-4h-2v-4h-2v-4h-2v-2h-2v-2h-2v-2h-2v-2h-2v-2h-2
	v-2h-2v-2h-2v-2h-2v-2h-4v-2h-2v-2h-4v-2h-2v-2h-4v-4h2v-8h-2v-2h-2v-4h2v-10h-2v-2
	h-4v2h-2v14h-2v-2h-2v-2h-4v-10h-2v-2h-4v2h-2v6h-2v-2h-4v-6h-2v-6h-2v-4h-2v-2
	h-2v-2z" fill="rgb(255,255,255)"/>
<path d="M78 2h2v2h-2v-2z" fill="rgb(107,84,0)"/>
<path d="M80 2h2v2h-2v-2z" fill="rgb(166,131,0)"/>
<path d="M82 2h2v2h-2v-2z" fill="rgb(107,84,0)"/>
<path d="M76 4h2v4h-2v-4z" fill="rgb(107,84,0)"/>
<path d="M78 4h2v2h-2v-2z" fill="rgb(166,131,0)"/>
<path d="M80 4h2v2h-2v-2z" fill="rgb(255,227,118)"/>
<path d="M82 4h2v2h-2v-2z" fill="rgb(166,131,0)"/>
<path d="M84 4h2v4h-2v-4z" fill="rgb(107,84,0)"/>
<path d="M78 6h2v2h-2v-2z" fill="rgb(255,227,118)"/>
<path d="M80 6h2v2h-2v-2z" fill="rgb(166,131,0)"/>
<path d="M82 6h2v2h-2v-2z" fill="rgb(255,227,118)"/>
<path d="M74 8h2v6h-2v-6z" fill="rgb(107,84,0)"/>
<path d="M76 8h2v2h-2v-2z" fill="rgb(166,131,0)"/>
<path d="M78 8h2v2h-2v-2z" fill="rgb(229,197,73)"/>
<path d="M80 8h2v2h-2v-2z" fill="rgb(107,84,0)"/>
<path d="M82 8h2v2h-2v-2z" fill="rgb(229,197,73)"/>
<path d="M84 8h2v2h-2v-2z" fill="rgb(166,131,0)"/>
<path d="M86 8h2v6h-2v-6z" fill="rgb(107,84,0)"/>
<path d="M76 10h2v4h-2v-4z" fill="rgb(229,197,73)"/>
<path d="M78 10h2v12h-2v-12z" fill="rgb(107,84,0)"/>
<path d="M80 10h2v10h-2v-10z" fill="rgb(255,255,255)"/>
<path d="M82 10h2v12h-2v-12z" fill="rgb(107,84,0)"/>
<path d="M84 10h2v4h-2v-4z" fill="rgb(229,197,73)"/>
<path d="M44 14h2v2h-2v-2z" fill="rgb(107,84,0)"/>
<path d="M46 14h2v2h-2v-2z" fill="rgb(58,44,0)"/>
<path d="M60 14h4v2h-4v-2z" fill="rgb(58,44,0)"/>
<path d="M72 14h2v4h-2v-4z" fill="rgb(107,84,0)"/>
<path d="M74 14h2v2h-2v-2z" fill="rgb(166,131,0)"/>
<path d="M76 14h2v4h-2v-4z" fill="rgb(255,227,118)"/>
<path d="M84 14h2v4h-2v-4z" fill="rgb(255,227,118)"/>
<path d="M86 14h2v2h-2v-2z" fill="rgb(166,131,0)"/>
<path d="M88 14h2v4h-2v-4z" fill="rgb(107,84,0)"/>
<path d="M98 14h4v2h-4v-2z" fill="rgb(58,44,0)"/>
<path d="M114 14h2v2h-2v-2z" fill="rgb(58,44,0)"/>
<path d="M116 14h2v2h-2v-2z" fill="rgb(107,84,0)"/>
<path d="M42 16h2v6h-2v-6z" fill="rgb(107,84,0)"/>
<path d="M44 16h2v2h-2v-2z" fill="rgb(166,131,0)"/>
<path d="M46 16h2v2h-2v-2z" fill="rgb(255,227,118)"/>
<path d="M48 16h2v14h2v4h-2v-2h-2v-16z" fill="rgb(58,44,0)"/>
<path d="M58 16h2v10h-2v-10z" fill="rgb(58,44,0)"/>
<path d="M60 16h2v2h-2v-2z" fill="rgb(203,163,27)"/>
<path d="M62 16h2v2h-2v-2z" fill="rgb(166,131,0)"/>
<path d="M64 16h2v6h2v2h-4v-8z" fill="rgb(58,44,0)"/>
<path d="M74 16h2v4h-2v-4z" fill="rgb(203,163,27)"/>
<path d="M86 16h2v4h-2v-4z" fill="rgb(203,163,27)"/>
<path d="M96 16h2v8h-4v-2h2v-6z" fill="rgb(58,44,0)"/>
<path d="M98 16h2v2h-2v-2z" fill="rgb(166,131,0)"/>
<path d="M100 16h2v2h-2v-2z" fill="rgb(203,163,27)"/>
<path d="M102 16h2v10h-2v-10z" fill="rgb(58,44,0)"/>
<path d="M112 16h2v16h-2v2h-2v-4h2v-14z" fill="rgb(58,44,0)"/>
<path d="M114 16h2v2h-2v-2z" fill="rgb(255,227,118)"/>
<path d="M116 16h2v2h-2v-2z" fill="rgb(166,131,0)"/>
<path d="M118 16h2v6h-2v-6z" fill="rgb(107,84,0)"/>
<path d="M44 18h2v4h-2v-4z" fill="rgb(255,227,118)"/>
<path d="M46 18h2v2h-2v-2z" fill="rgb(166,131,0)"/>
<path d="M60 18h2v2h-2v-2z" fill="rgb(166,131,0)"/>
<path d="M62 18h2v6h6v2h-2v6h-2v2h-4v2h-8v-2h-2v-2h2v-2h4v-4h2v-6h2v-2z" fill="rgb(107,84,0)"/>
<path d="M72 18h2v2h-2v-2z" fill="rgb(58,44,0)"/>
<path d="M76 18h2v4h-2v-4z" fill="rgb(229,197,73)"/>
<path d="M84 18h2v2h2v2h-4v-4z" fill="rgb(229,197,73)"/>
<path d="M88 18h2v2h-2v-2z" fill="rgb(58,44,0)"/>
<path d="M98 18h2v2h2v6h2v4h4v2h2v2h-2v2h-8v-2h-4v-2h-2v-6h-2v-2h6v-6z" fill="rgb(107,84,0)"/>
<path d="M100 18h2v2h-2v-2z" fill="rgb(166,131,0)"/>
<path d="M114 18h2v4h-2v-4z" fill="rgb(166,131,0)"/>
<path d="M116 18h2v4h-2v-4z" fill="rgb(255,227,118)"/>
<path d="M46 20h2v18h-2v4h-2v-12h2v-10z" fill="rgb(107,84,0)"/>
<path d="M68 20h4v6h-2v-4h-2v-2z" fill="rgb(58,44,0)"/>
<path d="M72 20h2v2h-2v-2z" fill="rgb(107,84,0)"/>
<path d="M74 20h2v6h-2v-6z" fill="rgb(255,227,118)"/>
<path d="M80 20h2v2h-2v-2z" fill="rgb(58,44,0)"/>
<path d="M88 20h2v2h-2v-2z" fill="rgb(107,84,0)"/>
<path d="M90 20h4v2h-2v4h-2v-6z" fill="rgb(58,44,0)"/>
<path d="M42 22h2v4h-2v-4z" fill="rgb(58,44,0)"/>
<path d="M44 22h2v2h-2v-2z" fill="rgb(203,163,27)"/>
<path d="M68 22h2v2h-2v-2z" fill="rgb(166,131,0)"/>
<path d="M72 22h2v2h-2v-2z" fill="rgb(166,131,0)"/>
<path d="M76 22h2v2h-2v-2z" fill="rgb(166,131,0)"/>
<path d="M78 22h2v2h-2v-2z" fill="rgb(58,44,0)"/>
<path d="M80 22h2v2h2v2h-6v-2h2v-2z" fill="rgb(107,84,0)"/>
<path d="M82 22h2v2h-2v-2z" fill="rgb(58,44,0)"/>
<path d="M84 22h2v2h-2v-2z" fill="rgb(166,131,0)"/>
<path d="M86 22h2v4h-2v-4z" fill="rgb(255,227,118)"/>
<path d="M88 22h2v2h-2v-2z" fill="rgb(166,131,0)"/>
<path d="M92 22h2v2h-2v-2z" fill="rgb(166,131,0)"/>
<path d="M114 22h2v8h2v12h-2v-4h-2v-16z" fill="rgb(107,84,0)"/>
<path d="M116 22h2v2h-2v-2z" fill="rgb(203,163,27)"/>
<path d="M118 22h2v4h-2v-4z" fill="rgb(58,44,0)"/>
<path d="M44 24h2v2h-2v-2z" fill="rgb(166,131,0)"/>
<path d="M72 24h2v2h-2v-2z" fill="rgb(229,197,73)"/>
<path d="M76 24h2v2h-2v-2z" fill="rgb(58,44,0)"/>
<path d="M84 24h2v2h-2v-2z" fill="rgb(58,44,0)"/>
<path d="M88 24h2v2h-2v-2z" fill="rgb(229,197,73)"/>
<path d="M116 24h2v2h-2v-2z" fill="rgb(166,131,0)"/>
<path d="M44 26h2v4h-2v-4z" fill="rgb(58,44,0)"/>
<path d="M54 26h4v2h-4v-2z" fill="rgb(58,44,0)"/>
<path d="M68 26h2v6h-2v-6z" fill="rgb(58,44,0)"/>
<path d="M70 26h2v2h-2v-2z" fill="rgb(107,84,0)"/>
<path d="M72 26h2v2h2v2h-2v2h-2v-6z" fill="rgb(255,227,118)"/>
<path d="M74 26h2v2h-2v-2z" fill="rgb(229,197,73)"/>
<path d="M76 26h2v2h-2v-2z" fill="rgb(107,84,0)"/>
<path d="M78 26h6v2h-6v-2z" fill="rgb(58,44,0)"/>
<path d="M84 26h2v2h-2v-2z" fill="rgb(107,84,0)"/>
<path d="M86 26h2v2h-2v-2z" fill="rgb(229,197,73)"/>
<path d="M88 26h2v6h-2v-2h-2v-2h2v-2z" fill="rgb(255,227,118)"/>
<path d="M90 26h2v2h-2v-2z" fill="rgb(107,84,0)"/>
<path d="M92 26h2v6h-2v-6z" fill="rgb(58,44,0)"/>
<path d="M104 26h4v2h-4v-2z" fill="rgb(58,44,0)"/>
<path d="M116 26h2v4h-2v-4z" fill="rgb(58,44,0)"/>
<path d="M52 28h2v2h-2v-2z" fill="rgb(58,44,0)"/>
<path d="M54 28h2v2h-2v-2z" fill="rgb(203,163,27)"/>
<path d="M56 28h2v2h-2v-2z" fill="rgb(166,131,0)"/>
<path d="M70 28h2v2h-2v-2z" fill="rgb(166,131,0)"/>
<path d="M76 28h2v2h-2v-2z" fill="rgb(229,197,73)"/>
<path d="M78 28h2v2h-2v-2z" fill="rgb(255,227,118)"/>
<path d="M80 28h6v2h-6v-2z" fill="rgb(229,197,73)"/>
<path d="M90 28h2v2h-2v-2z" fill="rgb(166,131,0)"/>
<path d="M104 28h2v2h-2v-2z" fill="rgb(166,131,0)"/>
<path d="M106 28h2v2h-2v-2z" fill="rgb(203,163,27)"/>
<path d="M108 28h2v2h-2v-2z" fill="rgb(58,44,0)"/>
<path d="M42 30h2v2h-2v-2z" fill="rgb(119,22,52)"/>
<path d="M52 30h2v2h-2v-2z" fill="rgb(166,131,0)"/>
<path d="M70 30h2v2h-2v-2z" fill="rgb(229,197,73)"/>
<path d="M74 30h2v2h-2v-2z" fill="rgb(229,197,73)"/>
<path d="M76 30h2v2h-2v-2z" fill="rgb(166,131,0)"/>
<path d="M78 30h4v2h-4v-2z" fill="rgb(119,22,52)"/>
<path d="M82 30h2v2h-2v-2z" fill="rgb(77,10,35)"/>
<path d="M84 30h2v2h-2v-2z" fill="rgb(166,131,0)"/>
<path d="M86 30h2v2h-2v-2z" fill="rgb(229,197,73)"/>
<path d="M90 30h2v2h-2v-2z" fill="rgb(229,197,73)"/>
<path d="M108 30h2v2h-2v-2z" fill="rgb(166,131,0)"/>
<path d="M118 30h2v2h-2v-2z" fill="rgb(119,22,52)"/>
<path d="M40 32h2v4h-2v-4z" fill="rgb(119,22,52)"/>
<path d="M42 32h2v2h-2v-2z" fill="rgb(168,37,46)"/>
<path d="M48 32h2v2h2v2h-4v-4z" fill="rgb(166,131,0)"/>
<path d="M66 32h2v2h-2v-2z" fill="rgb(58,44,0)"/>
<path d="M68 32h2v2h-2v-2z" fill="rgb(229,197,73)"/>
<path d="M70 32h2v2h-2v-2z" fill="rgb(255,227,118)"/>
<path d="M72 32h2v2h-2v-2z" fill="rgb(229,197,73)"/>
<path d="M74 32h2v2h-2v-2z" fill="rgb(166,131,0)"/>
<path d="M76 32h2v2h-2v-2z" fill="rgb(119,22,52)"/>
<path d="M78 32h2v2h-2v-2z" fill="rgb(255,179,147)"/>
<path d="M80 32h2v2h-2v-2z" fill="rgb(241,109,100)"/>
<path d="M82 32h2v2h-2v-2z" fill="rgb(168,37,46)"/>
<path d="M84 32h2v2h-2v-2z" fill="rgb(77,10,35)"/>
<path d="M86 32h2v2h-2v-2z" fill="rgb(166,131,0)"/>
<path d="M88 32h2v2h-2v-2z" fill="rgb(229,197,73)"/>
<path d="M90 32h2v2h-2v-2z" fill="rgb(255,227,118)"/>
<path d="M92 32h2v2h-2v-2z" fill="rgb(229,197,73)"/>
<path d="M94 32h2v2h-2v-2z" fill="rgb(58,44,0)"/>
<path d="M112 32h2v4h-2v2h-2v-4h2v-2z" fill="rgb(166,131,0)"/>
<path d="M118 32h2v2h-2v-2z" fill="rgb(168,37,46)"/>
<path d="M120 32h2v4h-2v-4z" fill="rgb(119,22,52)"/>
<path d="M42 34h2v2h-2v-2z" fill="rgb(255,179,147)"/>
<path d="M52 34h2v2h-2v-2z" fill="rgb(58,44,0)"/>
<path d="M62 34h4v2h-4v-2z" fill="rgb(58,44,0)"/>
<path d="M66 34h2v2h-2v-2z" fill="rgb(166,131,0)"/>
<path d="M68 34h2v2h-2v-2z" fill="rgb(255,227,118)"/>
<path d="M70 34h2v2h-2v-2z" fill="rgb(229,197,73)"/>
<path d="M72 34h2v2h-2v-2z" fill="rgb(166,131,0)"/>
<path d="M74 34h2v2h-2v-2z" fill="rgb(119,22,52)"/>
<path d="M76 34h2v2h-2v-2z" fill="rgb(255,179,147)"/>
<path d="M78 34h6v2h-6v-2z" fill="rgb(119,22,52)"/>
<path d="M84 34h2v2h-2v-2z" fill="rgb(168,37,46)"/>
<path d="M86 34h2v2h-2v-2z" fill="rgb(77,10,35)"/>
<path d="M88 34h2v2h-2v-2z" fill="rgb(166,131,0)"/>
<path d="M90 34h2v2h-2v-2z" fill="rgb(229,197,73)"/>
<path d="M92 34h2v2h-2v-2z" fill="rgb(255,227,118)"/>
<path d="M94 34h2v2h-2v-2z" fill="rgb(166,131,0)"/>
<path d="M96 34h4v2h-4v-2z" fill="rgb(58,44,0)"/>
<path d="M108 34h2v2h-2v-2z" fill="rgb(58,44,0)"/>
<path d="M118 34h2v2h-2v-2z" fill="rgb(255,179,147)"/>
<path d="M40 36h2v4h-2v-4z" fill="rgb(77,10,35)"/>
<path d="M42 36h2v2h-2v-2z" fill="rgb(168,37,46)"/>
<path d="M48 36h2v2h-2v-2z" fill="rgb(23,54,119)"/>
<path d="M50 36h4v4h-2v-2h-2v-2z" fill="rgb(229,197,73)"/>
<path d="M54 36h8v2h-8v-2z" fill="rgb(58,44,0)"/>
<path d="M62 36h2v2h-2v-2z" fill="rgb(107,84,0)"/>
<path d="M64 36h2v2h-2v-2z" fill="rgb(166,131,0)"/>
<path d="M66 36h2v2h-2v-2z" fill="rgb(255,227,118)"/>
<path d="M68 36h2v8h-2v-2h-4v-2h2v-2h2v-2z" fill="rgb(229,197,73)"/>
<path d="M70 36h2v2h-2v-2z" fill="rgb(166,131,0)"/>
<path d="M72 36h2v4h-2v-4z" fill="rgb(119,22,52)"/>
<path d="M74 36h2v2h-2v-2z" fill="rgb(255,179,147)"/>
<path d="M76 36h2v10h-2v-10z" fill="rgb(119,22,52)"/>
<path d="M78 36h2v2h-2v-2z" fill="rgb(168,37,46)"/>
<path d="M80 36h2v2h-2v-2z" fill="rgb(255,179,147)"/>
<path d="M82 36h2v2h-2v-2z" fill="rgb(168,37,46)"/>
<path d="M84 36h2v10h-2v-10z" fill="rgb(119,22,52)"/>
<path d="M86 36h2v2h-2v-2z" fill="rgb(168,37,46)"/>
<path d="M88 36h2v4h-2v-4z" fill="rgb(77,10,35)"/>
<path d="M90 36h2v2h-2v-2z" fill="rgb(166,131,0)"/>
<path d="M92 36h2v2h2v2h2v2h-2v2h-2v2h-2v-10z" fill="rgb(229,197,73)"/>
<path d="M94 36h2v2h-2v-2z" fill="rgb(255,227,118)"/>
<path d="M96 36h2v2h-2v-2z" fill="rgb(166,131,0)"/>
<path d="M98 36h2v2h-2v-2z" fill="rgb(107,84,0)"/>
<path d="M100 36h8v2h-8v-2z" fill="rgb(58,44,0)"/>
<path d="M108 36h2v4h-2v-4z" fill="rgb(229,197,73)"/>
<path d="M112 36h2v2h-2v-2z" fill="rgb(23,54,119)"/>
<path d="M118 36h2v2h-2v-2z" fill="rgb(168,37,46)"/>
<path d="M120 36h2v4h-2v-4z" fill="rgb(77,10,35)"/>
<path d="M42 38h2v2h-2v-2z" fill="rgb(241,109,100)"/>
<path d="M46 38h2v2h-2v-2z" fill="rgb(23,54,119)"/>
<path d="M48 38h2v2h-2v-2z" fill="rgb(147,235,255)"/>
<path d="M50 38h2v4h-2v-4z" fill="rgb(39,94,167)"/>
<path d="M54 38h2v2h-2v-2z" fill="rgb(255,227,118)"/>
<path d="M56 38h6v2h-6v-2z" fill="rgb(229,197,73)"/>
<path d="M62 38h4v2h-4v-2z" fill="rgb(255,227,118)"/>
<path d="M70 38h2v6h-2v-6z" fill="rgb(203,163,27)"/>
<path d="M74 38h2v2h-2v-2z" fill="rgb(241,109,100)"/>
<path d="M78 38h2v4h-2v-4z" fill="rgb(255,179,147)"/>
<path d="M80 38h2v6h-2v-6z" fill="rgb(168,37,46)"/>
<path d="M82 38h2v6h-2v-6z" fill="rgb(241,109,100)"/>
<path d="M86 38h2v2h-2v-2z" fill="rgb(241,109,100)"/>
<path d="M90 38h2v8h-2v-8z" fill="rgb(107,84,0)"/>
<path d="M96 38h6v2h-6v-2z" fill="rgb(255,227,118)"/>
<path d="M102 38h4v2h-4v-2z" fill="rgb(229,197,73)"/>
<path d="M106 38h2v2h-2v-2z" fill="rgb(255,227,118)"/>
<path d="M110 38h2v4h-2v-4z" fill="rgb(39,94,167)"/>
<path d="M112 38h2v2h-2v-2z" fill="rgb(147,235,255)"/>
<path d="M114 38h2v2h-2v-2z" fill="rgb(23,54,119)"/>
<path d="M118 38h2v2h-2v-2z" fill="rgb(241,109,100)"/>
<path d="M42 40h2v2h-2v-2z" fill="rgb(77,10,35)"/>
<path d="M46 40h2v2h-2v-2z" fill="rgb(10,14,77)"/>
<path d="M48 40h2v2h-2v-2z" fill="rgb(58,148,218)"/>
<path d="M52 40h2v2h-2v-2z" fill="rgb(255,227,118)"/>
<path d="M54 40h2v2h-2v-2z" fill="rgb(229,197,73)"/>
<path d="M56 40h2v2h-2v-2z" fill="rgb(107,84,0)"/>
<path d="M58 40h2v2h-2v-2z" fill="rgb(23,119,79)"/>
<path d="M60 40h2v2h-2v-2z" fill="rgb(10,77,70)"/>
<path d="M62 40h2v2h-2v-2z" fill="rgb(166,131,0)"/>
<path d="M72 40h2v6h-2v-6z" fill="rgb(77,10,35)"/>
<path d="M74 40h2v2h-2v-2z" fill="rgb(168,37,46)"/>
<path d="M86 40h2v4h-2v-4z" fill="rgb(255,179,147)"/>
<path d="M88 40h2v6h-2v-6z" fill="rgb(119,22,52)"/>
<path d="M98 40h2v2h-2v-2z" fill="rgb(166,131,0)"/>
<path d="M100 40h2v2h-2v-2z" fill="rgb(23,119,79)"/>
<path d="M102 40h2v2h-2v-2z" fill="rgb(10,77,70)"/>
<path d="M104 40h2v2h-2v-2z" fill="rgb(107,84,0)"/>
<path d="M106 40h2v2h-2v-2z" fill="rgb(166,131,0)"/>
<path d="M108 40h2v2h-2v-2z" fill="rgb(255,227,118)"/>
<path d="M112 40h2v2h-2v-2z" fill="rgb(58,148,218)"/>
<path d="M114 40h2v2h-2v-2z" fill="rgb(10,14,77)"/>
<path d="M118 40h2v2h-2v-2z" fill="rgb(77,10,35)"/>
<path d="M42 42h2v2h-2v-2z" fill="rgb(26,40,66)"/>
<path d="M44 42h2v4h-2v-4z" fill="rgb(58,44,0)"/>
<path d="M46 42h2v2h2v2h2v2h-4v-2h-2v-4z" fill="rgb(107,84,0)"/>
<path d="M48 42h2v2h-2v-2z" fill="rgb(10,14,77)"/>
<path d="M50 42h2v2h-2v-2z" fill="rgb(23,54,119)"/>
<path d="M52 42h2v2h-2v-2z" fill="rgb(229,197,73)"/>
<path d="M54 42h2v4h-2v-4z" fill="rgb(107,84,0)"/>
<path d="M56 42h2v2h-2v-2z" fill="rgb(23,119,79)"/>
<path d="M58 42h2v2h-2v-2z" fill="rgb(182,255,147)"/>
<path d="M60 42h2v2h-2v-2z" fill="rgb(23,119,79)"/>
<path d="M62 42h2v4h-2v-4z" fill="rgb(10,77,70)"/>
<path d="M64 42h2v4h-2v-4z" fill="rgb(166,131,0)"/>
<path d="M66 42h2v2h-2v-2z" fill="rgb(255,227,118)"/>
<path d="M74 42h2v2h-2v-2z" fill="rgb(241,109,100)"/>
<path d="M78 42h2v2h-2v-2z" fill="rgb(241,109,100)"/>
<path d="M96 42h2v4h-2v-4z" fill="rgb(166,131,0)"/>
<path d="M98 42h2v2h-2v-2z" fill="rgb(23,119,79)"/>
<path d="M100 42h2v2h-2v-2z" fill="rgb(182,255,147)"/>
<path d="M102 42h2v2h-2v-2z" fill="rgb(23,119,79)"/>
<path d="M104 42h2v4h-2v-4z" fill="rgb(10,77,70)"/>
<path d="M106 42h2v4h-2v-4z" fill="rgb(107,84,0)"/>
<path d="M108 42h2v2h-2v-2z" fill="rgb(203,163,27)"/>
<path d="M110 42h2v2h-2v-2z" fill="rgb(23,54,119)"/>
<path d="M112 42h2v2h-2v-2z" fill="rgb(10,14,77)"/>
<path d="M114 42h2v4h-2v2h-4v-2h2v-2h2v-2z" fill="rgb(107,84,0)"/>
<path d="M116 42h2v4h-2v-4z" fill="rgb(58,44,0)"/>
<path d="M118 42h2v2h-2v-2z" fill="rgb(26,40,66)"/>
<path d="M38 44h4v2h-4v-2z" fill="rgb(26,40,66)"/>
<path d="M42 44h2v2h2v2h2v2h-4v2h-4v2h-2v2h-2v2h-2v2h-2v2h-2v2h-2v2h-2v4h-2v4
	h-2v6h-2v12h2v6h2v4h2v4h2v2h2v2h2v2h2v2h2v2h2v2h2v2h4v2h4v2h4v2h6v2h6v2h12v2h22
	v-2h10v-2h6v-2h4v-2h6v-2h4v-2h4v-2h4v-2h2v-2h2v-2h2v-2h2v-2h2v-4h2v-4h2v-8h2
	v-12h-2v-6h-2v-6h2v2h2v4h2v4h2v4h2v6h2v20h-2v6h-2v4h-2v4h-2v4h-2v4h-2v2h-2v2h-2v2
	h-2v2h-4v2h-4v2h-106v-2h-4v-2h-4v-2h-2v-2h-2v-2h-2v-2h-2v-4h-2v-4h-2v-4h-2v-4
	h-2v-6h-2v-20h2v-6h2v-4h2v-4h2v-4h2v-2h2v-2h2v-2h2v-2h2v-2h2v-2h2v-2h2v-2h4v-2
	h2v-2h4v-2h2v-2h4v-2z" fill="rgb(70,121,224)"/>
<path d="M50 44h2v2h-2v-2z" fill="rgb(166,131,0)"/>
<path d="M52 44h2v4h-2v-4z" fill="rgb(203,163,27)"/>
<path d="M56 44h2v2h-2v-2z" fill="rgb(10,77,70)"/>
<path d="M58 44h2v2h-2v-2z" fill="rgb(23,119,79)"/>
<path d="M60 44h2v2h-2v-2z" fill="rgb(58,218,84)"/>
<path d="M66 44h2v2h-2v-2z" fill="rgb(229,197,73)"/>
<path d="M68 44h2v2h-2v-2z" fill="rgb(255,227,118)"/>
<path d="M70 44h2v2h-2v-2z" fill="rgb(166,131,0)"/>
<path d="M74 44h2v2h-2v-2z" fill="rgb(168,37,46)"/>
<path d="M78 44h2v2h-2v-2z" fill="rgb(168,37,46)"/>
<path d="M80 44h2v2h-2v-2z" fill="rgb(241,109,100)"/>
<path d="M82 44h2v2h-2v-2z" fill="rgb(168,37,46)"/>
<path d="M86 44h2v2h-2v-2z" fill="rgb(168,37,46)"/>
<path d="M94 44h2v2h-2v-2z" fill="rgb(255,227,118)"/>
<path d="M98 44h2v2h-2v-2z" fill="rgb(10,77,70)"/>
<path d="M100 44h2v2h-2v-2z" fill="rgb(23,119,79)"/>
<path d="M102 44h2v2h-2v-2z" fill="rgb(58,218,84)"/>
<path d="M108 44h4v2h-2v2h-2v2h-6v2h-2v-4h6v-2h2v-2z" fill="rgb(166,131,0)"/>
<path d="M118 44h2v2h-2v-2z" fill="rgb(70,121,224)"/>
<path d="M120 44h4v2h-4v-2z" fill="rgb(26,40,66)"/>
<path d="M36 46h2v2h-2v-2z" fill="rgb(26,40,66)"/>
<path d="M46 46h2v2h-2v-2z" fill="rgb(58,44,0)"/>
<path d="M54 46h2v2h-2v-2z" fill="rgb(166,131,0)"/>
<path d="M56 46h2v2h-2v-2z" fill="rgb(107,84,0)"/>
<path d="M58 46h4v2h-4v-2z" fill="rgb(10,77,70)"/>
<path d="M62 46h2v2h-2v-2z" fill="rgb(166,131,0)"/>
<path d="M64 46h4v2h2v2h-4v-2h-2v-2z" fill="rgb(255,227,118)"/>
<path d="M68 46h2v2h-2v-2z" fill="rgb(229,197,73)"/>
<path d="M70 46h2v2h-2v-2z" fill="rgb(255,227,118)"/>
<path d="M72 46h2v2h-2v-2z" fill="rgb(166,131,0)"/>
<path d="M74 46h2v2h-2v-2z" fill="rgb(77,10,35)"/>
<path d="M76 46h2v2h-2v-2z" fill="rgb(168,37,46)"/>
<path d="M78 46h6v2h-6v-2z" fill="rgb(119,22,52)"/>
<path d="M84 46h2v2h-2v-2z" fill="rgb(168,37,46)"/>
<path d="M86 46h2v2h-2v-2z" fill="rgb(119,22,52)"/>
<path d="M88 46h2v2h-2v-2z" fill="rgb(107,84,0)"/>
<path d="M90 46h2v2h-2v-2z" fill="rgb(166,131,0)"/>
<path d="M92 46h2v2h-2v-2z" fill="rgb(255,227,118)"/>
<path d="M94 46h2v2h-2v-2z" fill="rgb(229,197,73)"/>
<path d="M96 46h2v4h-2v2h-4v-2h2v-2h2v-2z" fill="rgb(255,227,118)"/>
<path d="M98 46h2v2h-2v-2z" fill="rgb(166,131,0)"/>
<path d="M100 46h4v2h-4v-2z" fill="rgb(10,77,70)"/>
<path d="M104 46h2v2h-2v-2z" fill="rgb(107,84,0)"/>
<path d="M114 46h2v2h-2v-2z" fill="rgb(58,44,0)"/>
<path d="M116 46h4v2h-4v-2z" fill="rgb(77,137,255)"/>
<path d="M120 46h4v2h-4v-2z" fill="rgb(70,121,224)"/>
<path d="M124 46h2v2h-2v-2z" fill="rgb(26,40,66)"/>
<path d="M32 48h4v2h-4v-2z" fill="rgb(26,40,66)"/>
<path d="M48 48h4v2h-4v-2z" fill="rgb(58,44,0)"/>
<path d="M52 48h2v2h-2v-2z" fill="rgb(107,84,0)"/>
<path d="M54 48h2v2h-2v-2z" fill="rgb(203,163,27)"/>
<path d="M56 48h6v2h2v2h-4v-2h-4v-2z" fill="rgb(166,131,0)"/>
<path d="M62 48h2v2h-2v-2z" fill="rgb(203,163,27)"/>
<path d="M64 48h2v2h-2v-2z" fill="rgb(229,197,73)"/>
<path d="M70 48h2v2h-2v-2z" fill="rgb(229,197,73)"/>
<path d="M72 48h2v2h-2v-2z" fill="rgb(255,227,118)"/>
<path d="M74 48h2v2h-2v-2z" fill="rgb(166,131,0)"/>
<path d="M76 48h2v2h-2v-2z" fill="rgb(77,10,35)"/>
<path d="M78 48h2v2h-2v-2z" fill="rgb(168,37,46)"/>
<path d="M80 48h2v2h-2v-2z" fill="rgb(255,179,147)"/>
<path d="M82 48h2v2h-2v-2z" fill="rgb(241,109,100)"/>
<path d="M84 48h2v2h-2v-2z" fill="rgb(119,22,52)"/>
<path d="M86 48h2v2h-2v-2z" fill="rgb(107,84,0)"/>
<path d="M88 48h2v2h-2v-2z" fill="rgb(166,131,0)"/>
<path d="M90 48h4v2h-2v2h-2v2h-4v-2h2v-2h2v-2z" fill="rgb(229,197,73)"/>
<path d="M98 48h2v2h-2v-2z" fill="rgb(229,197,73)"/>
<path d="M108 48h2v2h-2v-2z" fill="rgb(107,84,0)"/>
<path d="M110 48h4v2h-4v-2z" fill="rgb(58,44,0)"/>
<path d="M114 48h6v2h4v2h4v2h4v2h2v2h2v2h2v2h2v2h2v2h2v4h2v12h-2v4h-2v2h-2v2h-2
	v2h-2v2h-2v2h-2v2h-4v2h-4v2h-4v2h-12v2h-18v-2h-2v-4h2v-2h2v-4h2v-6h4v2h18v-2h6
	v-2h6v-2h2v-2h2v-2h2v-4h2v-6h-2v-4h-2v-2h-2v-2h-2v-2h-6v-2h-6v-2h-16v2h-6v2h-6
	v2h-2v2h-2v2h-14v2h-8v2h20v4h-8v2h-2v4h-2v2h-2v6h2v6h2v4h2v4h-2v-2h-4v-2h-4v-2
	h-2v-2h-2v-2h-2v-2h-2v-2h-2v-4h-2v-10h2v-4h2v-4h2v-2h2v-2h2v-2h2v-2h2v-2h28v-2
	h10v-2h6v-2h4v-2z" fill="rgb(82,151,255)"/>
<path d="M120 48h4v2h-4v-2z" fill="rgb(77,137,255)"/>
<path d="M124 48h2v2h-2v-2z" fill="rgb(70,121,224)"/>
<path d="M126 48h4v2h-4v-2z" fill="rgb(26,40,66)"/>
<path d="M30 50h2v2h-2v-2z" fill="rgb(26,40,66)"/>
<path d="M44 50h8v2h6v2h10v2h-2v2h-2v2h-2v2h-2v2h-2v2h-2v4h-2v4h-2v10h2v4h2v2h2
	v2h2v2h2v2h2v2h4v2h4v2h2v2h-2v4h-2v2h-4v4h2v2h2v2h6v-2h2v-6h2v-2h2v2h2v2h2v2
	h-2v4h8v-2h2v-8h-2v-2h16v-2h12v-2h4v-2h4v-2h4v-2h2v-2h2v-2h2v-2h2v-2h2v-2h2v-4h2
	v-12h-2v-4h2v2h2v6h2v6h2v12h-2v8h-2v4h-2v4h-2v2h-2v2h-2v2h-2v2h-2v2h-4v2h-4v2
	h-4v2h-6v2h-4v2h-6v2h-10v2h-22v-2h-12v-2h-6v-2h-6v-2h-4v-2h-4v-2h-4v-2h-2v-2h-2
	v-2h-2v-2h-2v-2h-2v-2h-2v-2h-2v-4h-2v-4h-2v-6h-2v-12h2v-6h2v-4h2v-4h2v-2h2v-2
	h2v-2h2v-2h2v-2h2v-2h2v-2h4v-2z" fill="rgb(77,137,255)"/>
<path d="M52 50h6v2h-6v-2z" fill="rgb(58,44,0)"/>
<path d="M58 50h2v2h-2v-2z" fill="rgb(107,84,0)"/>
<path d="M64 50h6v2h-6v-2z" fill="rgb(203,163,27)"/>
<path d="M70 50h2v2h-2v-2z" fill="rgb(255,227,118)"/>
<path d="M72 50h4v2h2v2h-4v-2h-2v-2z" fill="rgb(229,197,73)"/>
<path d="M76 50h2v2h-2v-2z" fill="rgb(166,131,0)"/>
<path d="M78 50h4v2h-4v-2z" fill="rgb(77,10,35)"/>
<path d="M82 50h2v2h-2v-2z" fill="rgb(119,22,52)"/>
<path d="M84 50h2v2h-2v-2z" fill="rgb(107,84,0)"/>
<path d="M86 50h2v2h-2v-2z" fill="rgb(166,131,0)"/>
<path d="M96 50h2v2h-2v-2z" fill="rgb(229,197,73)"/>
<path d="M98 50h2v2h-2v-2z" fill="rgb(203,163,27)"/>
<path d="M102 50h2v2h-2v-2z" fill="rgb(107,84,0)"/>
<path d="M104 50h6v2h-6v-2z" fill="rgb(58,44,0)"/>
<path d="M124 50h4v2h-4v-2z" fill="rgb(77,137,255)"/>
<path d="M128 50h2v2h-2v-2z" fill="rgb(70,121,224)"/>
<path d="M130 50h2v2h-2v-2z" fill="rgb(26,40,66)"/>
<path d="M26 52h4v2h-4v-2z" fill="rgb(26,40,66)"/>
<path d="M58 52h10v2h-10v-2z" fill="rgb(58,44,0)"/>
<path d="M68 52h2v2h-2v-2z" fill="rgb(107,84,0)"/>
<path d="M70 52h2v2h-2v-2z" fill="rgb(166,131,0)"/>
<path d="M72 52h2v2h-2v-2z" fill="rgb(255,227,118)"/>
<path d="M78 52h8v2h-8v-2z" fill="rgb(166,131,0)"/>
<path d="M90 52h2v2h-2v-2z" fill="rgb(255,227,118)"/>
<path d="M92 52h2v2h-2v-2z" fill="rgb(166,131,0)"/>
<path d="M94 52h10v2h-10v-2z" fill="rgb(58,44,0)"/>
<path d="M128 52h4v2h-4v-2z" fill="rgb(77,137,255)"/>
<path d="M132 52h4v2h-4v-2z" fill="rgb(26,40,66)"/>
<path d="M24 54h2v2h-2v-2z" fill="rgb(26,40,66)"/>
<path d="M68 54h4v2h-4v-2z" fill="rgb(58,44,0)"/>
<path d="M72 54h18v2h-18v-2z" fill="rgb(107,84,0)"/>
<path d="M90 54h4v2h-4v-2z" fill="rgb(58,44,0)"/>
<path d="M132 54h2v2h-2v-2z" fill="rgb(77,137,255)"/>
<path d="M134 54h2v2h-2v-2z" fill="rgb(70,121,224)"/>
<path d="M136 54h2v2h-2v-2z" fill="rgb(26,40,66)"/>
<path d="M22 56h2v2h-2v-2z" fill="rgb(26,40,66)"/>
<path d="M100 56h16v2h6v2h6v2h2v2h2v2h2v4h2v6h-2v4h-2v2h-2v2h-2v2h-6v2h-6v2h-18
	v-2h-2v-6h-2v-2h-2v-2h-2v-2h-2v-2h-6v-4h8v-2h-2v-2h-4v-2h2v-2h2v-2h6v-2h6v-2z" fill="rgb(89,166,254)"/>
<path d="M134 56h2v2h-2v-2z" fill="rgb(77,137,255)"/>
<path d="M136 56h2v2h-2v-2z" fill="rgb(70,121,224)"/>
<path d="M138 56h2v2h-2v-2z" fill="rgb(26,40,66)"/>
<path d="M20 58h2v2h-2v-2z" fill="rgb(26,40,66)"/>
<path d="M136 58h2v2h-2v-2z" fill="rgb(77,137,255)"/>
<path d="M138 58h2v2h-2v-2z" fill="rgb(70,121,224)"/>
<path d="M140 58h2v2h-2v-2z" fill="rgb(26,40,66)"/>
<path d="M18 60h2v2h-2v-2z" fill="rgb(26,40,66)"/>
<path d="M138 60h2v2h-2v-2z" fill="rgb(77,137,255)"/>
<path d="M140 60h2v2h-2v-2z" fill="rgb(70,121,224)"/>
<path d="M142 60h2v2h-2v-2z" fill="rgb(26,40,66)"/>
<path d="M16 62h2v2h-2v-2z" fill="rgb(26,40,66)"/>
<path d="M140 62h2v2h-2v-2z" fill="rgb(77,137,255)"/>
<path d="M142 62h2v2h-2v-2z" fill="rgb(70,121,224)"/>
<path d="M144 62h2v2h-2v-2z" fill="rgb(26,40,66)"/>
<path d="M14 64h2v2h-2v-2z" fill="rgb(26,40,66)"/>
<path d="M142 64h2v2h-2v-2z" fill="rgb(77,137,255)"/>
<path d="M144 64h2v2h-2v-2z" fill="rgb(70,121,224)"/>
<path d="M146 64h2v2h-2v-2z" fill="rgb(26,40,66)"/>
<path d="M12 66h2v2h-2v-2z" fill="rgb(26,40,66)"/>
<path d="M70 66h8v2h-6v2h-4v-2h2v-2z" fill="rgb(84,150,255)"/>
<path d="M78 66h2v2h-2v-2z" fill="rgb(85,150,255)"/>
<path d="M80 66h2v2h-2v-2z" fill="rgb(85,150,252)"/>
<path d="M82 66h2v2h-2v-2z" fill="rgb(83,151,247)"/>
<path d="M84 66h2v2h-2v-2z" fill="rgb(91,162,253)"/>
<path d="M86 66h2v2h-2v-2z" fill="rgb(92,163,252)"/>
<path d="M146 66h2v2h-2v-2z" fill="rgb(70,121,224)"/>
<path d="M148 66h2v2h-2v-2z" fill="rgb(26,40,66)"/>
<path d="M10 68h2v2h-2v-2z" fill="rgb(26,40,66)"/>
<path d="M62 68h4v2h-4v-2z" fill="rgb(84,151,252)"/>
<path d="M66 68h2v2h-2v-2z" fill="rgb(84,151,254)"/>
<path d="M72 68h2v2h-2v-2z" fill="rgb(84,151,254)"/>
<path d="M74 68h4v2h-4v-2z" fill="rgb(85,150,254)"/>
<path d="M78 68h2v2h-2v-2z" fill="rgb(86,149,255)"/>
<path d="M80 68h2v2h-2v-2z" fill="rgb(86,151,253)"/>
<path d="M82 68h2v2h-2v-2z" fill="rgb(89,156,251)"/>
<path d="M84 68h2v2h-2v-2z" fill="rgb(92,165,255)"/>
<path d="M86 68h2v2h-2v-2z" fill="rgb(91,164,252)"/>
<path d="M88 68h2v2h-2v-2z" fill="rgb(91,164,250)"/>
<path d="M150 68h2v2h-2v-2z" fill="rgb(26,40,66)"/>
<path d="M8 70h2v4h-2v-4z" fill="rgb(26,40,66)"/>
<path d="M152 70h2v4h-2v-4z" fill="rgb(26,40,66)"/>
<path d="M6 74h2v4h-2v-4z" fill="rgb(26,40,66)"/>
<path d="M74 74h8v2h-4v2h6v2h-6v2h-2v-6h-2v-2z" fill="rgb(75,139,236)"/>
<path d="M82 74h6v2h-6v-2z" fill="rgb(81,152,235)"/>
<path d="M154 74h2v4h-2v-4z" fill="rgb(26,40,66)"/>
<path d="M72 76h2v8h-2v-8z" fill="rgb(75,139,236)"/>
<path d="M74 76h2v6h-2v-6z" fill="rgb(122,167,250)"/>
<path d="M78 76h2v2h-2v-2z" fill="rgb(96,150,241)"/>
<path d="M80 76h4v2h-4v-2z" fill="rgb(87,145,239)"/>
<path d="M84 76h4v2h-4v-2z" fill="rgb(85,154,237)"/>
<path d="M88 76h2v2h-2v-2z" fill="rgb(81,152,235)"/>
<path d="M4 78h2v4h-2v-4z" fill="rgb(26,40,66)"/>
<path d="M84 78h4v2h-4v-2z" fill="rgb(81,152,235)"/>
<path d="M88 78h2v2h-2v-2z" fill="rgb(85,154,237)"/>
<path d="M90 78h2v2h-2v-2z" fill="rgb(81,152,235)"/>
<path d="M156 78h2v4h-2v-4z" fill="rgb(26,40,66)"/>
<path d="M70 80h2v2h-2v-2z" fill="rgb(80,141,236)"/>
<path d="M78 80h4v2h-4v-2z" fill="rgb(122,167,250)"/>
<path d="M82 80h4v2h-4v-2z" fill="rgb(104,154,243)"/>
<path d="M86 80h2v2h-2v-2z" fill="rgb(108,167,242)"/>
<path d="M88 80h4v2h-4v-2z" fill="rgb(85,153,236)"/>
<path d="M92 80h2v2h-2v-2z" fill="rgb(81,152,235)"/>
<path d="M2 82h2v6h-2v-6z" fill="rgb(26,40,66)"/>
<path d="M68 82h2v6h-2v-6z" fill="rgb(80,141,236)"/>
<path d="M70 82h2v6h-2v-6z" fill="rgb(136,168,244)"/>
<path d="M74 82h4v2h-4v-2z" fill="rgb(104,154,243)"/>
<path d="M78 82h6v8h-8v-2h6v-4h-4v-2z" fill="rgb(75,139,236)"/>
<path d="M84 82h2v8h-2v-8z" fill="rgb(122,167,250)"/>
<path d="M86 82h2v6h-2v-6z" fill="rgb(80,141,236)"/>
<path d="M88 82h4v4h-2v-2h-2v-2z" fill="rgb(138,178,243)"/>
<path d="M92 82h2v4h-2v-4z" fill="rgb(129,173,241)"/>
<path d="M94 82h2v6h-2v-6z" fill="rgb(85,153,236)"/>
<path d="M158 82h2v6h-2v-6z" fill="rgb(26,40,66)"/>
<path d="M72 84h2v4h-2v-4z" fill="rgb(126,162,242)"/>
<path d="M74 84h4v2h-2v2h-2v-4z" fill="rgb(75,139,236)"/>
<path d="M78 84h2v4h-2v-4z" fill="rgb(78,140,237)"/>
<path d="M80 84h2v4h-2v-4z" fill="rgb(136,176,255)"/>
<path d="M88 84h2v2h-2v-2z" fill="rgb(136,168,244)"/>
<path d="M76 86h2v2h-2v-2z" fill="rgb(136,168,244)"/>
<path d="M88 86h6v2h-6v-2z" fill="rgb(126,162,242)"/>
<path d="M0 88h2v20h-2v-20z" fill="rgb(26,40,66)"/>
<path d="M70 88h4v2h-2v4h-2v-6z" fill="rgb(75,139,236)"/>
<path d="M74 88h2v2h-2v-2z" fill="rgb(87,145,239)"/>
<path d="M86 88h8v6h-2v-4h-4v2h-2v6h-2v-2h-2v-2h-2v2h-2v-2h-2v-2h8v-2h2v-2z" fill="rgb(75,139,236)"/>
<path d="M160 88h2v20h-2v-20z" fill="rgb(26,40,66)"/>
<path d="M72 90h2v4h-2v-4z" fill="rgb(80,141,237)"/>
<path d="M74 90h2v2h-2v-2z" fill="rgb(75,139,236)"/>
<path d="M76 90h4v2h-4v-2z" fill="rgb(87,145,239)"/>
<path d="M80 90h4v2h-4v-2z" fill="rgb(80,141,237)"/>
<path d="M88 90h2v2h-2v-2z" fill="rgb(100,152,243)"/>
<path d="M90 90h2v2h-2v-2z" fill="rgb(82,143,238)"/>
<path d="M74 92h2v2h-2v-2z" fill="rgb(100,152,243)"/>
<path d="M86 92h2v4h-2v-4z" fill="rgb(100,152,243)"/>
<path d="M88 92h2v2h-2v-2z" fill="rgb(82,143,238)"/>
<path d="M90 92h2v2h-2v-2z" fill="rgb(80,141,237)"/>
<path d="M72 94h4v2h-2v2h-2v-4z" fill="rgb(75,139,236)"/>
<path d="M76 94h2v2h-2v-2z" fill="rgb(122,167,250)"/>
<path d="M80 94h2v2h-2v-2z" fill="rgb(122,167,250)"/>
<path d="M88 94h2v4h-2v-4z" fill="rgb(80,141,237)"/>
<path d="M90 94h2v4h-2v-4z" fill="rgb(75,139,236)"/>
<path d="M74 96h2v2h-2v-2z" fill="rgb(80,141,237)"/>
<path d="M76 96h2v2h-2v-2z" fill="rgb(75,139,236)"/>
<path d="M78 96h2v2h-2v-2z" fill="rgb(122,167,250)"/>
<path d="M80 96h2v2h-2v-2z" fill="rgb(75,139,236)"/>
<path d="M82 96h2v2h-2v-2z" fill="rgb(82,143,238)"/>
<path d="M86 96h2v2h-2v-2z" fill="rgb(82,143,238)"/>
<path d="M74 98h2v4h-2v-4z" fill="rgb(75,139,236)"/>
<path d="M76 98h2v2h-2v-2z" fill="rgb(100,152,243)"/>
<path d="M78 98h2v6h-2v-6z" fill="rgb(75,139,236)"/>
<path d="M80 98h2v4h-2v-4z" fill="rgb(100,152,243)"/>
<path d="M82 98h4v6h-4v-6z" fill="rgb(80,141,237)"/>
<path d="M86 98h4v2h-2v4h-2v-6z" fill="rgb(75,139,236)"/>
<path d="M76 100h2v2h-2v-2z" fill="rgb(87,145,239)"/>
<path d="M74 102h2v2h10v2h-4v2h-2v-2h-6v2h-2v-4h2v-2z" fill="rgb(70,126,236)"/>
<path d="M76 102h2v2h-2v-2z" fill="rgb(83,133,239)"/>
<path d="M80 102h2v2h-2v-2z" fill="rgb(87,145,239)"/>
<path d="M86 104h2v2h-2v-2z" fill="rgb(80,141,237)"/>
<path d="M88 104h2v2h-2v-2z" fill="rgb(75,139,236)"/>
<path d="M74 106h2v2h-2v-2z" fill="rgb(83,133,239)"/>
<path d="M76 106h2v2h-2v-2z" fill="rgb(78,130,238)"/>
<path d="M78 106h2v2h-2v-2z" fill="rgb(75,129,237)"/>
<path d="M82 106h2v2h-2v-2z" fill="rgb(83,133,239)"/>
<path d="M84 106h4v4h-2v-2h-2v-2z" fill="rgb(78,130,238)"/>
<path d="M88 106h2v2h2v2h-4v-4z" fill="rgb(75,129,237)"/>
<path d="M90 106h2v2h-2v-2z" fill="rgb(70,126,236)"/>
<path d="M0 108h2v6h2v4h2v4h2v4h2v4h2v2h2v2h2v2h2v2h2v2h4v2h4v2h-28v-36z" fill="rgb(255,255,255)"/>
<path d="M2 108h2v6h-2v-6z" fill="rgb(26,40,66)"/>
<path d="M70 108h2v2h6v6h-2v-4h-8v2h-2v-4h4v-2z" fill="rgb(70,126,236)"/>
<path d="M72 108h2v2h-2v-2z" fill="rgb(83,133,239)"/>
<path d="M74 108h2v2h-2v-2z" fill="rgb(78,130,238)"/>
<path d="M76 108h2v2h-2v-2z" fill="rgb(75,129,237)"/>
<path d="M78 108h2v2h-2v-2z" fill="rgb(70,126,236)"/>
<path d="M82 108h2v2h-2v-2z" fill="rgb(70,126,236)"/>
<path d="M84 108h2v2h-2v-2z" fill="rgb(83,133,239)"/>
<path d="M92 108h2v8h-2v-4h-4v2h-2v-2h-2v-2h8v-2z" fill="rgb(70,126,236)"/>
<path d="M158 108h2v6h-2v-6z" fill="rgb(26,40,66)"/>
<path d="M160 108h2v36h-28v-2h4v-2h4v-2h2v-2h2v-2h2v-2h2v-2h2v-4h2v-4h2v-4h2v-4
	h2v-6z" fill="rgb(255,255,255)"/>
<path d="M68 112h2v2h-2v-2z" fill="rgb(83,133,239)"/>
<path d="M70 112h4v2h-4v-2z" fill="rgb(120,155,250)"/>
<path d="M74 112h2v2h-2v-2z" fill="rgb(101,143,243)"/>
<path d="M88 112h2v2h-2v-2z" fill="rgb(120,155,250)"/>
<path d="M90 112h2v2h-2v-2z" fill="rgb(101,143,243)"/>
<path d="M4 114h2v4h-2v-4z" fill="rgb(26,40,66)"/>
<path d="M68 114h2v2h-2v-2z" fill="rgb(70,126,236)"/>
<path d="M70 114h6v2h-6v-2z" fill="rgb(75,129,237)"/>
<path d="M84 114h2v2h6v2h-8v-4z" fill="rgb(70,126,236)"/>
<path d="M86 114h2v2h-2v-2z" fill="rgb(95,139,241)"/>
<path d="M88 114h4v2h-4v-2z" fill="rgb(75,129,237)"/>
<path d="M156 114h2v4h-2v-4z" fill="rgb(26,40,66)"/>
<path d="M70 116h6v2h-6v-2z" fill="rgb(70,126,236)"/>
<path d="M6 118h2v4h-2v-4z" fill="rgb(26,40,66)"/>
<path d="M154 118h2v4h-2v-4z" fill="rgb(26,40,66)"/>
<path d="M8 122h2v4h-2v-4z" fill="rgb(26,40,66)"/>
<path d="M152 122h2v4h-2v-4z" fill="rgb(26,40,66)"/>
<path d="M10 126h2v4h-2v-4z" fill="rgb(26,40,66)"/>
<path d="M150 126h2v4h-2v-4z" fill="rgb(26,40,66)"/>
<path d="M12 130h2v2h-2v-2z" fill="rgb(26,40,66)"/>
<path d="M148 130h2v2h-2v-2z" fill="rgb(26,40,66)"/>
<path d="M14 132h2v2h-2v-2z" fill="rgb(26,40,66)"/>
<path d="M146 132h2v2h-2v-2z" fill="rgb(26,40,66)"/>
<path d="M16 134h2v2h-2v-2z" fill="rgb(26,40,66)"/>
<path d="M144 134h2v2h-2v-2z" fill="rgb(26,40,66)"/>
<path d="M18 136h2v2h-2v-2z" fill="rgb(26,40,66)"/>
<path d="M142 136h2v2h-2v-2z" fill="rgb(26,40,66)"/>
<path d="M20 138h4v2h-4v-2z" fill="rgb(26,40,66)"/>
<path d="M138 138h4v2h-4v-2z" fill="rgb(26,40,66)"/>
<path d="M24 140h4v2h-4v-2z" fill="rgb(26,40,66)"/>
<path d="M134 140h4v2h-4v-2z" fill="rgb(26,40,66)"/>
<path d="M28 142h106v2h-106v-2z" fill="rgb(26,40,66)"/>
</svg>