<?xml version="1.0" encoding="utf-8"?>
<!-- generated at drububu.com  -->
<!DOCTYPE svg PUBLIC "-//W3C//DTD SVG 1.1//EN" "http://www.w3.org/Graphics/SVG/1.1/DTD/svg11.dtd">
<svg version="1.1" preserveAspectRatio="xMinYMin meet" xmlns="http://www.w3.org/2000/svg" xmlns:xlink="http://www.w3.org/1999/xlink" x="0px" y="0px" width="50px" height="40px" viewBox="0 0 50 40">
<path d="M0 0h10v2h-2v2h-4v2h-2v2h-2v-8z" fill="rgb(255,255,255)"/>
<path d="M10 0h18v2h-18v-2z" fill="rgb(11,0,22)"/>
<path d="M28 0h22v12h-2v-2h-4v-2h-10v-2h-2v-2h-2v-2h-2v-2z" fill="rgb(255,255,255)"/>
<path d="M8 2h2v4h-6v-2h4v-2z" fill="rgb(11,0,22)"/>
<path d="M10 2h2v2h-2v-2z" fill="rgb(151,73,8)"/>
<path d="M12 2h6v2h2v2h-4v-2h-4v-2z" fill="rgb(195,96,13)"/>
<path d="M18 2h2v2h-2v-2z" fill="rgb(151,73,8)"/>
<path d="M20 2h2v6h-2v-6z" fill="rgb(19,1,25)"/>
<path d="M22 2h2v2h-2v-2z" fill="rgb(142,53,0)"/>
<path d="M24 2h2v4h-2v-4z" fill="rgb(195,96,13)"/>
<path d="M26 2h2v2h-2v-2z" fill="rgb(142,53,0)"/>
<path d="M28 2h2v2h-2v-2z" fill="rgb(11,0,22)"/>
<path d="M10 4h2v2h-2v-2z" fill="rgb(95,25,0)"/>
<path d="M12 4h2v2h-2v-2z" fill="rgb(142,53,0)"/>
<path d="M14 4h2v2h-2v-2z" fill="rgb(151,73,8)"/>
<path d="M22 4h2v2h-2v-2z" fill="rgb(151,73,8)"/>
<path d="M26 4h2v4h-2v-4z" fill="rgb(151,73,8)"/>
<path d="M28 4h2v2h-2v-2z" fill="rgb(95,25,0)"/>
<path d="M30 4h2v2h-2v-2z" fill="rgb(11,0,22)"/>
<path d="M2 6h2v2h-2v-2z" fill="rgb(11,0,22)"/>
<path d="M4 6h2v2h-2v-2z" fill="rgb(95,25,0)"/>
<path d="M6 6h2v2h2v4h-2v-2h-2v-4z" fill="rgb(195,96,13)"/>
<path d="M8 6h2v2h-2v-2z" fill="rgb(151,73,8)"/>
<path d="M10 6h2v2h4v2h-4v2h-2v-6z" fill="rgb(48,8,0)"/>
<path d="M12 6h8v2h-8v-2z" fill="rgb(95,25,0)"/>
<path d="M22 6h2v2h-2v-2z" fill="rgb(95,25,0)"/>
<path d="M24 6h2v2h-2v-2z" fill="rgb(142,53,0)"/>
<path d="M28 6h2v4h-2v-4z" fill="rgb(142,53,0)"/>
<path d="M30 6h2v6h-2v2h-2v2h-2v-4h2v-2h2v-4z" fill="rgb(95,25,0)"/>
<path d="M32 6h2v2h-2v-2z" fill="rgb(11,0,22)"/>
<path d="M0 8h2v8h-2v-8z" fill="rgb(11,0,22)"/>
<path d="M2 8h2v6h-2v-6z" fill="rgb(95,25,0)"/>
<path d="M4 8h2v2h2v2h-4v-4z" fill="rgb(151,73,8)"/>
<path d="M16 8h4v2h-4v-2z" fill="rgb(19,1,25)"/>
<path d="M20 8h4v2h-4v-2z" fill="rgb(48,8,0)"/>
<path d="M24 8h4v2h-4v-2z" fill="rgb(95,25,0)"/>
<path d="M32 8h2v2h-2v-2z" fill="rgb(19,1,25)"/>
<path d="M34 8h10v2h4v2h-6v-2h-8v-2z" fill="rgb(11,0,22)"/>
<path d="M12 10h2v2h-2v-2z" fill="rgb(142,53,0)"/>
<path d="M14 10h2v2h-2v-2z" fill="rgb(151,73,8)"/>
<path d="M16 10h2v4h-2v2h-2v-4h2v-2z" fill="rgb(195,96,13)"/>
<path d="M18 10h2v2h2v4h-2v2h-8v-2h6v-6z" fill="rgb(95,25,0)"/>
<path d="M20 10h6v2h-2v4h6v-4h2v10h-2v-4h-6v2h-2v-8h-2v-2z" fill="rgb(19,1,25)"/>
<path d="M26 10h2v2h-2v-2z" fill="rgb(48,8,0)"/>
<path d="M32 10h2v4h-2v-4z" fill="rgb(142,53,0)"/>
<path d="M34 10h2v2h-2v-2z" fill="rgb(151,73,8)"/>
<path d="M36 10h2v2h-2v-2z" fill="rgb(142,53,0)"/>
<path d="M38 10h2v8h-2v-8z" fill="rgb(19,1,25)"/>
<path d="M40 10h2v2h-2v-2z" fill="rgb(142,53,0)"/>
<path d="M4 12h6v2h-2v2h-2v-2h-2v-2z" fill="rgb(142,53,0)"/>
<path d="M10 12h2v2h-2v-2z" fill="rgb(95,25,0)"/>
<path d="M12 12h2v4h-2v-4z" fill="rgb(151,73,8)"/>
<path d="M24 12h2v4h-2v-4z" fill="rgb(48,8,0)"/>
<path d="M34 12h2v2h-2v-2z" fill="rgb(195,96,13)"/>
<path d="M36 12h2v4h-2v-4z" fill="rgb(151,73,8)"/>
<path d="M40 12h2v2h-2v-2z" fill="rgb(151,73,8)"/>
<path d="M42 12h6v2h-6v-2z" fill="rgb(142,53,0)"/>
<path d="M48 12h2v14h-2v4h-2v-4h-6v-2h8v-12z" fill="rgb(19,1,25)"/>
<path d="M2 14h2v2h-2v-2z" fill="rgb(48,8,0)"/>
<path d="M4 14h2v2h-2v-2z" fill="rgb(95,25,0)"/>
<path d="M8 14h2v2h-2v-2z" fill="rgb(95,25,0)"/>
<path d="M10 14h2v4h6v2h-8v4h-2v-4h-4v-2h6v-4z" fill="rgb(19,1,25)"/>
<path d="M16 14h2v2h-2v-2z" fill="rgb(151,73,8)"/>
<path d="M28 14h2v2h-2v-2z" fill="rgb(48,8,0)"/>
<path d="M32 14h4v2h-2v2h2v-2h2v6h-2v-2h-2v2h-2v-8z" fill="rgb(95,25,0)"/>
<path d="M40 14h2v2h2v2h-4v-4z" fill="rgb(142,53,0)"/>
<path d="M42 14h4v2h-4v-2z" fill="rgb(151,73,8)"/>
<path d="M46 14h2v4h-4v-2h2v-2z" fill="rgb(95,25,0)"/>
<path d="M0 16h2v4h-2v-4z" fill="rgb(255,255,255)"/>
<path d="M2 16h2v4h-2v-4z" fill="rgb(11,0,22)"/>
<path d="M4 16h2v2h-2v-2z" fill="rgb(48,8,0)"/>
<path d="M6 16h2v2h-2v-2z" fill="rgb(95,25,0)"/>
<path d="M8 16h2v2h-2v-2z" fill="rgb(48,8,0)"/>
<path d="M20 16h2v4h-4v-2h2v-2z" fill="rgb(48,8,0)"/>
<path d="M34 16h2v2h-2v-2z" fill="rgb(142,53,0)"/>
<path d="M24 18h4v4h-2v-2h-2v-2z" fill="rgb(48,8,0)"/>
<path d="M28 18h2v4h-2v-4z" fill="rgb(95,25,0)"/>
<path d="M38 18h2v4h-2v-4z" fill="rgb(48,8,0)"/>
<path d="M40 18h4v2h2v2h-2v2h-2v-4h-2v-2z" fill="rgb(95,25,0)"/>
<path d="M44 18h4v6h-4v-2h2v-2h-2v-2z" fill="rgb(48,8,0)"/>
<path d="M0 20h2v10h-2v-10z" fill="rgb(11,0,22)"/>
<path d="M2 20h2v2h-2v-2z" fill="rgb(95,25,0)"/>
<path d="M4 20h2v2h-2v-2z" fill="rgb(151,73,8)"/>
<path d="M6 20h2v2h-2v-2z" fill="rgb(195,96,13)"/>
<path d="M10 20h2v2h-2v-2z" fill="rgb(142,53,0)"/>
<path d="M12 20h2v2h-2v-2z" fill="rgb(151,73,8)"/>
<path d="M14 20h4v2h-2v2h-4v-2h2v-2z" fill="rgb(195,96,13)"/>
<path d="M18 20h6v4h-2v2h-2v2h-8v-2h6v-6z" fill="rgb(95,25,0)"/>
<path d="M24 20h2v2h4v2h-4v4h-2v-8z" fill="rgb(19,1,25)"/>
<path d="M34 20h2v2h-2v-2z" fill="rgb(142,53,0)"/>
<path d="M40 20h2v2h-2v-2z" fill="rgb(142,53,0)"/>
<path d="M2 22h2v2h-2v-2z" fill="rgb(142,53,0)"/>
<path d="M4 22h2v2h-2v-2z" fill="rgb(195,96,13)"/>
<path d="M6 22h2v2h-2v-2z" fill="rgb(151,73,8)"/>
<path d="M10 22h2v2h-2v-2z" fill="rgb(151,73,8)"/>
<path d="M16 22h2v4h-2v-4z" fill="rgb(151,73,8)"/>
<path d="M30 22h2v2h-2v-2z" fill="rgb(48,8,0)"/>
<path d="M32 22h2v6h-2v-6z" fill="rgb(19,1,25)"/>
<path d="M34 22h4v2h-4v-2z" fill="rgb(48,8,0)"/>
<path d="M38 22h2v2h-2v-2z" fill="rgb(19,1,25)"/>
<path d="M40 22h2v2h-2v-2z" fill="rgb(48,8,0)"/>
<path d="M2 24h2v2h4v2h-6v-4z" fill="rgb(95,25,0)"/>
<path d="M4 24h4v2h-4v-2z" fill="rgb(142,53,0)"/>
<path d="M8 24h2v2h-2v-2z" fill="rgb(95,25,0)"/>
<path d="M10 24h2v2h-2v-2z" fill="rgb(142,53,0)"/>
<path d="M12 24h2v2h-2v-2z" fill="rgb(151,73,8)"/>
<path d="M14 24h2v2h-2v-2z" fill="rgb(142,53,0)"/>
<path d="M22 24h2v4h-4v-2h2v-2z" fill="rgb(48,8,0)"/>
<path d="M26 24h4v2h-2v2h2v2h-2v2h-2v4h-2v-4h-2v-2h2v-2h2v-4z" fill="rgb(48,8,0)"/>
<path d="M30 24h2v8h-2v2h-2v2h-2v-4h2v-2h2v-2h-2v-2h2v-2z" fill="rgb(95,25,0)"/>
<path d="M34 24h6v4h2v2h-4v-2h-2v2h2v2h-2v2h-2v-10z" fill="rgb(95,25,0)"/>
<path d="M8 26h4v2h-4v-2z" fill="rgb(48,8,0)"/>
<path d="M40 26h6v4h-2v2h-4v2h-4v-2h2v-2h4v-2h-2v-2z" fill="rgb(48,8,0)"/>
<path d="M48 26h2v14h-28v-2h8v-2h2v-2h2v2h8v-2h2v-2h2v-2h2v-4z" fill="rgb(255,255,255)"/>
<path d="M2 28h2v2h-2v-2z" fill="rgb(48,8,0)"/>
<path d="M4 28h4v2h-4v-2z" fill="rgb(19,1,25)"/>
<path d="M8 28h2v2h-2v-2z" fill="rgb(95,25,0)"/>
<path d="M10 28h6v2h-4v4h-2v-6z" fill="rgb(19,1,25)"/>
<path d="M16 28h4v2h-4v-2z" fill="rgb(48,8,0)"/>
<path d="M20 28h4v2h-4v-2z" fill="rgb(19,1,25)"/>
<path d="M32 28h2v4h-2v-4z" fill="rgb(48,8,0)"/>
<path d="M36 28h2v2h-2v-2z" fill="rgb(48,8,0)"/>
<path d="M0 30h2v6h2v2h2v2h-6v-10z" fill="rgb(255,255,255)"/>
<path d="M2 30h2v6h-2v-6z" fill="rgb(11,0,22)"/>
<path d="M4 30h2v2h-2v-2z" fill="rgb(95,25,0)"/>
<path d="M6 30h2v2h-2v-2z" fill="rgb(151,73,8)"/>
<path d="M8 30h2v2h-2v-2z" fill="rgb(142,53,0)"/>
<path d="M12 30h6v2h-4v2h-2v-4z" fill="rgb(151,73,8)"/>
<path d="M18 30h4v4h-2v2h-4v-2h2v-4z" fill="rgb(95,25,0)"/>
<path d="M44 30h2v2h-2v-2z" fill="rgb(19,1,25)"/>
<path d="M4 32h2v2h-2v-2z" fill="rgb(151,73,8)"/>
<path d="M6 32h2v4h-2v-4z" fill="rgb(142,53,0)"/>
<path d="M8 32h2v4h-2v-4z" fill="rgb(95,25,0)"/>
<path d="M14 32h2v2h-2v-2z" fill="rgb(195,96,13)"/>
<path d="M16 32h2v2h-2v-2z" fill="rgb(142,53,0)"/>
<path d="M22 32h2v4h-2v-4z" fill="rgb(19,1,25)"/>
<path d="M30 32h2v2h-2v-2z" fill="rgb(48,8,0)"/>
<path d="M32 32h2v2h-2v-2z" fill="rgb(11,0,22)"/>
<path d="M40 32h2v2h-2v-2z" fill="rgb(95,25,0)"/>
<path d="M42 32h2v2h-2v-2z" fill="rgb(11,0,22)"/>
<path d="M4 34h2v2h-2v-2z" fill="rgb(95,25,0)"/>
<path d="M10 34h2v2h-2v-2z" fill="rgb(48,8,0)"/>
<path d="M12 34h4v2h-4v-2z" fill="rgb(142,53,0)"/>
<path d="M20 34h2v2h-2v-2z" fill="rgb(48,8,0)"/>
<path d="M28 34h2v2h-2v-2z" fill="rgb(48,8,0)"/>
<path d="M30 34h2v2h-2v-2z" fill="rgb(11,0,22)"/>
<path d="M34 34h8v2h-8v-2z" fill="rgb(11,0,22)"/>
<path d="M4 36h2v2h-2v-2z" fill="rgb(11,0,22)"/>
<path d="M6 36h2v2h-2v-2z" fill="rgb(95,25,0)"/>
<path d="M8 36h2v2h-2v-2z" fill="rgb(48,8,0)"/>
<path d="M10 36h2v2h-2v-2z" fill="rgb(19,1,25)"/>
<path d="M12 36h2v2h-2v-2z" fill="rgb(48,8,0)"/>
<path d="M14 36h8v2h-8v-2z" fill="rgb(19,1,25)"/>
<path d="M22 36h8v2h-8v-2z" fill="rgb(11,0,22)"/>
<path d="M6 38h16v2h-16v-2z" fill="rgb(11,0,22)"/>
</svg>