<?xml version="1.0" encoding="utf-8"?>
<!-- generated at drububu.com  -->
<!DOCTYPE svg PUBLIC "-//W3C//DTD SVG 1.1//EN" "http://www.w3.org/Graphics/SVG/1.1/DTD/svg11.dtd">
<svg version="1.1" preserveAspectRatio="xMinYMin meet" xmlns="http://www.w3.org/2000/svg" xmlns:xlink="http://www.w3.org/1999/xlink" x="0px" y="0px" width="42px" height="58px" viewBox="0 0 42 58">
<path d="M0 0h14v2h-4v2h-2v4h-2v10h-2v2h-2v4h-2v-24z" fill="rgb(255,255,255)"/>
<path d="M14 0h8v2h-8v-2z" fill="rgb(8,24,40)"/>
<path d="M22 0h20v12h-2v-4h-2v-2h-4v-2h-4v-2h-8v-2z" fill="rgb(255,255,255)"/>
<path d="M10 2h4v2h-4v-2z" fill="rgb(8,24,40)"/>
<path d="M14 2h2v2h-2v-2z" fill="rgb(79,108,208)"/>
<path d="M16 2h2v2h-2v-2z" fill="rgb(36,64,150)"/>
<path d="M18 2h2v2h-2v-2z" fill="rgb(202,192,79)"/>
<path d="M20 2h2v2h-2v-2z" fill="rgb(185,152,49)"/>
<path d="M22 2h8v2h-8v-2z" fill="rgb(8,24,40)"/>
<path d="M8 4h2v4h-2v-4z" fill="rgb(8,24,40)"/>
<path d="M10 4h2v2h-2v-2z" fill="rgb(26,34,108)"/>
<path d="M12 4h2v2h-2v-2z" fill="rgb(79,108,208)"/>
<path d="M14 4h2v2h-2v-2z" fill="rgb(49,83,191)"/>
<path d="M16 4h2v2h-2v-2z" fill="rgb(216,209,126)"/>
<path d="M18 4h2v2h-2v-2z" fill="rgb(49,83,191)"/>
<path d="M20 4h2v2h2v2h2v2h-2v2h-2v-2h-2v-2h-2v-2h2v-2z" fill="rgb(79,108,208)"/>
<path d="M22 4h4v2h2v4h-2v-2h-2v-2h-2v-2z" fill="rgb(49,83,191)"/>
<path d="M26 4h2v2h-2v-2z" fill="rgb(36,64,150)"/>
<path d="M28 4h2v2h-2v-2z" fill="rgb(26,34,108)"/>
<path d="M30 4h4v2h-4v-2z" fill="rgb(8,24,40)"/>
<path d="M10 6h2v2h-2v-2z" fill="rgb(79,108,208)"/>
<path d="M12 6h2v2h-2v-2z" fill="rgb(49,83,191)"/>
<path d="M14 6h2v4h-4v-2h2v-2z" fill="rgb(216,209,126)"/>
<path d="M16 6h2v4h-2v-4z" fill="rgb(36,64,150)"/>
<path d="M28 6h4v2h-2v2h-2v-4z" fill="rgb(36,64,150)"/>
<path d="M32 6h2v2h-2v-2z" fill="rgb(26,34,108)"/>
<path d="M34 6h4v2h-4v-2z" fill="rgb(8,24,40)"/>
<path d="M6 8h2v6h2v2h-4v-8z" fill="rgb(8,24,40)"/>
<path d="M8 8h2v2h-2v-2z" fill="rgb(36,64,150)"/>
<path d="M10 8h2v2h-2v-2z" fill="rgb(202,192,79)"/>
<path d="M18 8h2v2h-2v-2z" fill="rgb(49,83,191)"/>
<path d="M30 8h2v2h-2v-2z" fill="rgb(49,83,191)"/>
<path d="M32 8h2v2h-2v-2z" fill="rgb(79,108,208)"/>
<path d="M34 8h2v2h2v4h-2v-2h-4v-2h2v-2z" fill="rgb(49,83,191)"/>
<path d="M36 8h2v2h-2v-2z" fill="rgb(26,34,108)"/>
<path d="M38 8h2v4h-2v-4z" fill="rgb(8,24,40)"/>
<path d="M8 10h2v2h-2v-2z" fill="rgb(202,192,79)"/>
<path d="M10 10h6v2h-4v2h-2v-4z" fill="rgb(8,24,40)"/>
<path d="M16 10h2v2h-2v-2z" fill="rgb(202,192,79)"/>
<path d="M18 10h2v2h-2v-2z" fill="rgb(36,64,150)"/>
<path d="M20 10h2v2h-2v-2z" fill="rgb(49,83,191)"/>
<path d="M24 10h2v2h-2v-2z" fill="rgb(49,83,191)"/>
<path d="M26 10h2v4h-2v2h-2v-4h2v-2z" fill="rgb(36,64,150)"/>
<path d="M28 10h2v2h2v2h-4v-4z" fill="rgb(26,34,108)"/>
<path d="M30 10h2v2h-2v-2z" fill="rgb(36,64,150)"/>
<path d="M8 12h2v2h-2v-2z" fill="rgb(185,152,49)"/>
<path d="M12 12h4v2h-4v-2z" fill="rgb(159,162,159)"/>
<path d="M16 12h2v2h-2v-2z" fill="rgb(8,24,40)"/>
<path d="M18 12h2v2h-2v-2z" fill="rgb(185,152,49)"/>
<path d="M20 12h2v2h-2v-2z" fill="rgb(26,34,108)"/>
<path d="M22 12h2v2h-2v-2z" fill="rgb(49,83,191)"/>
<path d="M32 12h4v2h-4v-2z" fill="rgb(36,64,150)"/>
<path d="M38 12h2v2h-2v-2z" fill="rgb(26,34,108)"/>
<path d="M40 12h2v6h-2v-6z" fill="rgb(8,24,40)"/>
<path d="M10 14h2v2h-2v-2z" fill="rgb(199,200,199)"/>
<path d="M12 14h2v2h-2v-2z" fill="rgb(239,236,239)"/>
<path d="M14 14h2v4h-4v-2h2v-2z" fill="rgb(8,24,40)"/>
<path d="M16 14h2v2h-2v-2z" fill="rgb(159,162,159)"/>
<path d="M18 14h2v2h-2v-2z" fill="rgb(8,24,40)"/>
<path d="M20 14h2v2h-2v-2z" fill="rgb(185,152,49)"/>
<path d="M22 14h2v2h-2v-2z" fill="rgb(26,34,108)"/>
<path d="M26 14h2v4h-2v2h-2v-4h2v-2z" fill="rgb(26,34,108)"/>
<path d="M28 14h8v2h-6v2h-2v-4z" fill="rgb(8,24,40)"/>
<path d="M36 14h2v2h-2v-2z" fill="rgb(26,34,108)"/>
<path d="M38 14h2v2h-2v-2z" fill="rgb(36,64,150)"/>
<path d="M6 16h2v2h-2v-2z" fill="rgb(99,89,99)"/>
<path d="M8 16h2v2h-2v-2z" fill="rgb(199,200,199)"/>
<path d="M10 16h2v2h4v2h-4v2h-4v2h-4v-2h2v-2h2v-2h2v-2z" fill="rgb(239,236,239)"/>
<path d="M16 16h2v4h-2v-4z" fill="rgb(199,200,199)"/>
<path d="M18 16h2v4h-2v-4z" fill="rgb(159,162,159)"/>
<path d="M20 16h2v4h-2v-4z" fill="rgb(8,24,40)"/>
<path d="M22 16h2v6h-4v-2h2v-4z" fill="rgb(185,152,49)"/>
<path d="M30 16h6v2h2v2h2v-2h2v40h-6v-4h-2v-2h-2v-2h2v-2h2v-14h-2v-6h-2v-6h-2
	v-2h-2v-2h2v-2z" fill="rgb(255,255,255)"/>
<path d="M36 16h2v2h-2v-2z" fill="rgb(8,24,40)"/>
<path d="M38 16h2v2h-2v-2z" fill="rgb(26,34,108)"/>
<path d="M4 18h2v2h-2v-2z" fill="rgb(99,89,99)"/>
<path d="M6 18h2v2h-2v-2z" fill="rgb(199,200,199)"/>
<path d="M26 18h2v2h-2v-2z" fill="rgb(46,46,46)"/>
<path d="M38 18h2v2h-2v-2z" fill="rgb(8,24,40)"/>
<path d="M2 20h2v4h-2v-4z" fill="rgb(99,89,99)"/>
<path d="M4 20h2v2h-2v-2z" fill="rgb(199,200,199)"/>
<path d="M12 20h4v2h-4v-2z" fill="rgb(199,200,199)"/>
<path d="M16 20h2v2h-2v-2z" fill="rgb(159,162,159)"/>
<path d="M18 20h2v2h-2v-2z" fill="rgb(8,24,40)"/>
<path d="M24 20h2v2h-2v-2z" fill="rgb(46,46,46)"/>
<path d="M26 20h2v2h-2v-2z" fill="rgb(26,34,108)"/>
<path d="M28 20h2v2h-2v-2z" fill="rgb(8,24,40)"/>
<path d="M8 22h2v2h-2v-2z" fill="rgb(199,200,199)"/>
<path d="M10 22h2v2h-2v-2z" fill="rgb(159,162,159)"/>
<path d="M12 22h6v2h-6v-2z" fill="rgb(8,24,40)"/>
<path d="M18 22h2v2h-2v-2z" fill="rgb(185,152,49)"/>
<path d="M20 22h2v2h-2v-2z" fill="rgb(46,46,46)"/>
<path d="M22 22h2v2h-2v-2z" fill="rgb(8,24,40)"/>
<path d="M24 22h2v2h-2v-2z" fill="rgb(26,34,108)"/>
<path d="M26 22h2v2h-2v-2z" fill="rgb(36,64,150)"/>
<path d="M28 22h2v2h-2v-2z" fill="rgb(26,34,108)"/>
<path d="M30 22h2v6h-2v-6z" fill="rgb(8,24,40)"/>
<path d="M0 24h2v4h-2v-4z" fill="rgb(99,89,99)"/>
<path d="M2 24h2v2h-2v-2z" fill="rgb(239,236,239)"/>
<path d="M4 24h2v2h-2v-2z" fill="rgb(199,200,199)"/>
<path d="M6 24h4v2h-4v-2z" fill="rgb(99,89,99)"/>
<path d="M10 24h2v2h-2v-2z" fill="rgb(8,24,40)"/>
<path d="M12 24h2v2h-2v-2z" fill="rgb(202,192,79)"/>
<path d="M14 24h2v2h-2v-2z" fill="rgb(216,209,126)"/>
<path d="M16 24h2v2h-2v-2z" fill="rgb(185,152,49)"/>
<path d="M18 24h2v2h-2v-2z" fill="rgb(8,24,40)"/>
<path d="M20 24h4v2h-4v-2z" fill="rgb(26,34,108)"/>
<path d="M24 24h2v4h-2v-4z" fill="rgb(36,64,150)"/>
<path d="M26 24h2v2h-2v-2z" fill="rgb(26,34,108)"/>
<path d="M28 24h2v4h-4v-2h2v-2z" fill="rgb(185,152,49)"/>
<path d="M2 26h2v2h-2v-2z" fill="rgb(199,200,199)"/>
<path d="M4 26h2v2h-2v-2z" fill="rgb(99,89,99)"/>
<path d="M6 26h2v8h-2v10h2v2h2v2h-2v4h-2v6h-6v-30h2v2h2v-2h2v-2z" fill="rgb(255,255,255)"/>
<path d="M8 26h2v6h2v2h6v2h-6v8h2v8h-2v-4h-2v-2h-2v-2h2v-10h-2v-8z" fill="rgb(8,24,40)"/>
<path d="M10 26h2v2h-2v-2z" fill="rgb(26,34,108)"/>
<path d="M12 26h6v2h-6v-2z" fill="rgb(8,24,40)"/>
<path d="M18 26h4v2h-4v-2z" fill="rgb(36,64,150)"/>
<path d="M22 26h2v2h-2v-2z" fill="rgb(49,83,191)"/>
<path d="M2 28h2v2h-2v-2z" fill="rgb(99,89,99)"/>
<path d="M10 28h2v2h-2v-2z" fill="rgb(36,64,150)"/>
<path d="M12 28h6v2h-6v-2z" fill="rgb(79,108,208)"/>
<path d="M18 28h4v2h-4v-2z" fill="rgb(49,83,191)"/>
<path d="M22 28h2v2h-2v-2z" fill="rgb(36,64,150)"/>
<path d="M24 28h2v2h-2v-2z" fill="rgb(185,152,49)"/>
<path d="M26 28h4v2h-4v-2z" fill="rgb(8,24,40)"/>
<path d="M30 28h2v6h-2v-2h-2v2h-2v-4h4v-2z" fill="rgb(26,34,108)"/>
<path d="M32 28h2v6h-2v-6z" fill="rgb(8,24,40)"/>
<path d="M10 30h2v2h-2v-2z" fill="rgb(202,192,79)"/>
<path d="M12 30h6v2h-6v-2z" fill="rgb(49,83,191)"/>
<path d="M18 30h4v2h-4v-2z" fill="rgb(216,209,126)"/>
<path d="M22 30h2v2h-2v-2z" fill="rgb(185,152,49)"/>
<path d="M24 30h2v12h-2v-2h-2v-2h-2v-4h-2v-2h6v-2z" fill="rgb(8,24,40)"/>
<path d="M12 32h2v2h-2v-2z" fill="rgb(202,192,79)"/>
<path d="M14 32h2v2h-2v-2z" fill="rgb(216,209,126)"/>
<path d="M16 32h2v2h-2v-2z" fill="rgb(185,152,49)"/>
<path d="M28 32h2v2h-2v-2z" fill="rgb(36,64,150)"/>
<path d="M6 34h2v10h-2v-10z" fill="rgb(8,24,40)"/>
<path d="M8 34h2v2h-2v-2z" fill="rgb(26,34,108)"/>
<path d="M18 34h2v4h-2v-4z" fill="rgb(26,34,108)"/>
<path d="M22 34h2v4h-2v-4z" fill="rgb(26,34,108)"/>
<path d="M26 34h2v2h-2v-2z" fill="rgb(36,64,150)"/>
<path d="M28 34h2v2h2v2h-4v2h-2v-4h2v-2z" fill="rgb(49,83,191)"/>
<path d="M30 34h2v2h-2v-2z" fill="rgb(36,64,150)"/>
<path d="M32 34h2v2h-2v-2z" fill="rgb(26,34,108)"/>
<path d="M34 34h2v14h-2v-14z" fill="rgb(8,24,40)"/>
<path d="M8 36h2v2h-2v-2z" fill="rgb(36,64,150)"/>
<path d="M12 36h4v2h-2v2h-2v-4z" fill="rgb(26,34,108)"/>
<path d="M16 36h2v2h-2v-2z" fill="rgb(36,64,150)"/>
<path d="M32 36h2v2h-2v-2z" fill="rgb(36,64,150)"/>
<path d="M8 38h2v2h-2v-2z" fill="rgb(49,83,191)"/>
<path d="M14 38h2v2h-2v-2z" fill="rgb(36,64,150)"/>
<path d="M16 38h2v2h-2v-2z" fill="rgb(49,83,191)"/>
<path d="M18 38h2v2h-2v-2z" fill="rgb(36,64,150)"/>
<path d="M20 38h2v2h-2v-2z" fill="rgb(26,34,108)"/>
<path d="M28 38h4v2h2v4h-2v-2h-2v-2h-2v-2z" fill="rgb(79,108,208)"/>
<path d="M32 38h2v2h-2v-2z" fill="rgb(49,83,191)"/>
<path d="M8 40h2v2h-2v-2z" fill="rgb(79,108,208)"/>
<path d="M12 40h2v2h-2v-2z" fill="rgb(36,64,150)"/>
<path d="M14 40h6v2h-2v2h-2v-2h-2v-2z" fill="rgb(79,108,208)"/>
<path d="M20 40h2v2h-2v-2z" fill="rgb(36,64,150)"/>
<path d="M22 40h2v2h-2v-2z" fill="rgb(185,152,49)"/>
<path d="M26 40h2v2h-2v-2z" fill="rgb(202,192,79)"/>
<path d="M28 40h2v2h-2v-2z" fill="rgb(49,83,191)"/>
<path d="M8 42h2v2h-2v-2z" fill="rgb(185,152,49)"/>
<path d="M12 42h2v2h-2v-2z" fill="rgb(202,192,79)"/>
<path d="M14 42h2v2h-2v-2z" fill="rgb(49,83,191)"/>
<path d="M18 42h2v2h-2v-2z" fill="rgb(49,83,191)"/>
<path d="M20 42h2v2h-2v-2z" fill="rgb(185,152,49)"/>
<path d="M22 42h2v2h-2v-2z" fill="rgb(8,24,40)"/>
<path d="M24 42h2v2h-2v-2z" fill="rgb(26,34,108)"/>
<path d="M26 42h2v2h2v2h-4v-4z" fill="rgb(8,24,40)"/>
<path d="M28 42h2v2h-2v-2z" fill="rgb(216,209,126)"/>
<path d="M30 42h2v2h-2v-2z" fill="rgb(49,83,191)"/>
<path d="M14 44h2v2h-2v-2z" fill="rgb(216,209,126)"/>
<path d="M16 44h2v2h-2v-2z" fill="rgb(49,83,191)"/>
<path d="M18 44h2v4h-2v-4z" fill="rgb(185,152,49)"/>
<path d="M20 44h2v8h-2v-8z" fill="rgb(8,24,40)"/>
<path d="M22 44h2v2h-2v-2z" fill="rgb(26,34,108)"/>
<path d="M24 44h2v2h-2v-2z" fill="rgb(36,64,150)"/>
<path d="M30 44h2v2h-2v-2z" fill="rgb(216,209,126)"/>
<path d="M32 44h2v2h-2v-2z" fill="rgb(49,83,191)"/>
<path d="M14 46h2v2h-2v-2z" fill="rgb(36,64,150)"/>
<path d="M16 46h2v2h-2v-2z" fill="rgb(216,209,126)"/>
<path d="M22 46h2v2h-2v-2z" fill="rgb(36,64,150)"/>
<path d="M24 46h2v2h-2v-2z" fill="rgb(49,83,191)"/>
<path d="M26 46h2v2h-2v-2z" fill="rgb(36,64,150)"/>
<path d="M28 46h2v2h-2v-2z" fill="rgb(26,34,108)"/>
<path d="M30 46h2v2h2v2h-2v2h-2v-6z" fill="rgb(8,24,40)"/>
<path d="M32 46h2v2h-2v-2z" fill="rgb(185,152,49)"/>
<path d="M8 48h2v4h-2v-4z" fill="rgb(8,24,40)"/>
<path d="M10 48h2v2h-2v-2z" fill="rgb(26,34,108)"/>
<path d="M14 48h2v2h-2v-2z" fill="rgb(49,83,191)"/>
<path d="M16 48h2v2h-2v-2z" fill="rgb(36,64,150)"/>
<path d="M18 48h2v2h-2v-2z" fill="rgb(49,83,191)"/>
<path d="M22 48h4v4h-2v-2h-2v-2z" fill="rgb(79,108,208)"/>
<path d="M26 48h2v4h-2v-4z" fill="rgb(49,83,191)"/>
<path d="M28 48h2v2h-2v-2z" fill="rgb(36,64,150)"/>
<path d="M10 50h2v4h-2v-4z" fill="rgb(36,64,150)"/>
<path d="M14 50h2v2h-2v-2z" fill="rgb(202,192,79)"/>
<path d="M16 50h2v2h-2v-2z" fill="rgb(49,83,191)"/>
<path d="M18 50h2v2h-2v-2z" fill="rgb(185,152,49)"/>
<path d="M22 50h2v2h-2v-2z" fill="rgb(49,83,191)"/>
<path d="M28 50h2v2h-2v-2z" fill="rgb(26,34,108)"/>
<path d="M6 52h2v4h8v-2h2v2h16v-2h2v4h-30v-6z" fill="rgb(8,24,40)"/>
<path d="M8 52h2v2h-2v-2z" fill="rgb(26,34,108)"/>
<path d="M12 52h2v2h-2v-2z" fill="rgb(26,34,108)"/>
<path d="M14 52h2v2h-2v-2z" fill="rgb(8,24,40)"/>
<path d="M16 52h2v2h-2v-2z" fill="rgb(216,209,126)"/>
<path d="M18 52h2v2h-2v-2z" fill="rgb(8,24,40)"/>
<path d="M20 52h2v2h-2v-2z" fill="rgb(26,34,108)"/>
<path d="M22 52h2v2h-2v-2z" fill="rgb(36,64,150)"/>
<path d="M24 52h4v2h-4v-2z" fill="rgb(26,34,108)"/>
<path d="M28 52h2v2h-2v-2z" fill="rgb(79,108,208)"/>
<path d="M30 52h2v2h-2v-2z" fill="rgb(49,83,191)"/>
<path d="M32 52h2v2h-2v-2z" fill="rgb(8,24,40)"/>
<path d="M8 54h2v2h-2v-2z" fill="rgb(36,64,150)"/>
<path d="M10 54h2v2h-2v-2z" fill="rgb(49,83,191)"/>
<path d="M12 54h2v2h-2v-2z" fill="rgb(36,64,150)"/>
<path d="M14 54h2v2h-2v-2z" fill="rgb(26,34,108)"/>
<path d="M18 54h2v2h-2v-2z" fill="rgb(26,34,108)"/>
<path d="M20 54h2v2h-2v-2z" fill="rgb(36,64,150)"/>
<path d="M22 54h2v2h-2v-2z" fill="rgb(49,83,191)"/>
<path d="M24 54h4v2h-4v-2z" fill="rgb(79,108,208)"/>
<path d="M28 54h2v2h-2v-2z" fill="rgb(49,83,191)"/>
<path d="M30 54h2v2h-2v-2z" fill="rgb(36,64,150)"/>
<path d="M32 54h2v2h-2v-2z" fill="rgb(26,34,108)"/>
</svg>