<?xml version="1.0" encoding="utf-8"?>
<!-- generated at drububu.com  -->
<!DOCTYPE svg PUBLIC "-//W3C//DTD SVG 1.1//EN" "http://www.w3.org/Graphics/SVG/1.1/DTD/svg11.dtd">
<svg version="1.1" preserveAspectRatio="xMinYMin meet" xmlns="http://www.w3.org/2000/svg" xmlns:xlink="http://www.w3.org/1999/xlink" x="0px" y="0px" width="42px" height="16px" viewBox="0 0 42 16">
<path d="M0 0h20v2h-4v2h-4v4h-4v-2h-6v2h-2v-8z" fill="rgb(255,255,255)"/>
<path d="M20 0h14v2h-14v-2z" fill="rgb(46,46,46)"/>
<path d="M34 0h8v4h-4v-2h-4v-2z" fill="rgb(255,255,255)"/>
<path d="M16 2h4v2h-4v-2z" fill="rgb(46,46,46)"/>
<path d="M20 2h2v2h-2v-2z" fill="rgb(166,167,166)"/>
<path d="M22 2h4v2h2v4h-2v2h-4v-2h-2v-4h2v-2z" fill="rgb(211,211,211)"/>
<path d="M26 2h2v2h-2v-2z" fill="rgb(166,167,166)"/>
<path d="M28 2h4v2h2v2h2v4h-2v2h-4v2h-8v-2h6v-2h2v-2h2v-2h-2v-2h-2v-2z" fill="rgb(124,124,124)"/>
<path d="M32 2h2v2h-2v-2z" fill="rgb(87,82,100)"/>
<path d="M34 2h4v2h-4v-2z" fill="rgb(46,46,46)"/>
<path d="M12 4h4v2h-2v2h2v2h-8v-2h4v-4z" fill="rgb(46,46,46)"/>
<path d="M16 4h4v4h2v2h4v-2h2v-4h2v2h2v2h-2v2h-2v2h-8v-2h-2v-2h-2v-4z" fill="rgb(166,167,166)"/>
<path d="M34 4h4v2h2v2h-2v2h-2v-4h-2v-2z" fill="rgb(87,82,100)"/>
<path d="M38 4h4v4h-2v-2h-2v-2z" fill="rgb(46,46,46)"/>
<path d="M2 6h6v2h-6v-2z" fill="rgb(46,46,46)"/>
<path d="M14 6h2v2h-2v-2z" fill="rgb(124,124,124)"/>
<path d="M0 8h2v2h2v2h-2v2h-2v-6z" fill="rgb(46,46,46)"/>
<path d="M2 8h2v2h-2v-2z" fill="rgb(211,211,211)"/>
<path d="M4 8h4v2h-4v-2z" fill="rgb(166,167,166)"/>
<path d="M16 8h2v2h-2v-2z" fill="rgb(124,124,124)"/>
<path d="M38 8h2v2h-2v-2z" fill="rgb(46,46,46)"/>
<path d="M40 8h2v8h-10v-2h4v-2h2v-2h2v-2z" fill="rgb(255,255,255)"/>
<path d="M4 10h4v2h-4v-2z" fill="rgb(211,211,211)"/>
<path d="M8 10h2v2h-2v-2z" fill="rgb(166,167,166)"/>
<path d="M10 10h4v2h-4v-2z" fill="rgb(124,124,124)"/>
<path d="M14 10h2v2h-2v-2z" fill="rgb(87,82,100)"/>
<path d="M16 10h2v2h-2v-2z" fill="rgb(46,46,46)"/>
<path d="M18 10h2v2h-2v-2z" fill="rgb(124,124,124)"/>
<path d="M34 10h2v2h-2v-2z" fill="rgb(87,82,100)"/>
<path d="M36 10h2v2h-2v-2z" fill="rgb(46,46,46)"/>
<path d="M2 12h4v2h-4v-2z" fill="rgb(166,167,166)"/>
<path d="M6 12h2v2h-2v-2z" fill="rgb(124,124,124)"/>
<path d="M8 12h8v2h-8v-2z" fill="rgb(46,46,46)"/>
<path d="M16 12h2v2h4v2h-14v-2h8v-2z" fill="rgb(255,255,255)"/>
<path d="M18 12h4v2h-4v-2z" fill="rgb(46,46,46)"/>
<path d="M30 12h2v2h-2v-2z" fill="rgb(87,82,100)"/>
<path d="M32 12h4v2h-4v-2z" fill="rgb(46,46,46)"/>
<path d="M0 14h2v2h-2v-2z" fill="rgb(255,255,255)"/>
<path d="M2 14h6v2h-6v-2z" fill="rgb(46,46,46)"/>
<path d="M22 14h10v2h-10v-2z" fill="rgb(46,46,46)"/>
</svg>