<?xml version="1.0" encoding="utf-8"?>
<!-- generated at drububu.com  -->
<!DOCTYPE svg PUBLIC "-//W3C//DTD SVG 1.1//EN" "http://www.w3.org/Graphics/SVG/1.1/DTD/svg11.dtd">
<svg version="1.1" preserveAspectRatio="xMinYMin meet" xmlns="http://www.w3.org/2000/svg" xmlns:xlink="http://www.w3.org/1999/xlink" x="0px" y="0px" width="52px" height="34px" viewBox="0 0 52 34">
<path d="M0 0h28v2h-2v2h-6v-2h-6v2h-2v4h-4v2h-2v2h-2v2h-2v2h-2v-16z" fill="rgb(255,255,255)"/>
<path d="M28 0h6v2h-6v-2z" fill="rgb(0,79,2)"/>
<path d="M34 0h18v14h-2v-4h-2v-2h-2v-2h-2v-2h-2v-2h-8v-2z" fill="rgb(255,255,255)"/>
<path d="M14 2h6v2h-6v-2z" fill="rgb(0,79,2)"/>
<path d="M26 2h2v2h-2v-2z" fill="rgb(0,79,2)"/>
<path d="M28 2h4v4h-4v-4z" fill="rgb(220,255,224)"/>
<path d="M32 2h2v2h-2v-2z" fill="rgb(192,213,49)"/>
<path d="M34 2h2v2h-2v-2z" fill="rgb(0,79,2)"/>
<path d="M36 2h6v2h-6v-2z" fill="rgb(46,46,46)"/>
<path d="M12 4h2v6h-2v-6z" fill="rgb(0,79,2)"/>
<path d="M14 4h4v4h-2v-2h-2v-2z" fill="rgb(220,255,224)"/>
<path d="M18 4h2v2h-2v-2z" fill="rgb(192,213,49)"/>
<path d="M20 4h2v6h-2v-6z" fill="rgb(0,79,2)"/>
<path d="M22 4h2v2h-2v-2z" fill="rgb(46,46,46)"/>
<path d="M24 4h2v4h-2v-4z" fill="rgb(0,79,2)"/>
<path d="M26 4h2v2h-2v-2z" fill="rgb(110,254,126)"/>
<path d="M32 4h2v2h-2v-2z" fill="rgb(110,254,126)"/>
<path d="M34 4h2v4h-2v-4z" fill="rgb(116,139,51)"/>
<path d="M36 4h2v4h-2v-4z" fill="rgb(0,79,2)"/>
<path d="M38 4h2v2h-2v-2z" fill="rgb(84,97,126)"/>
<path d="M40 4h2v2h-2v-2z" fill="rgb(62,66,96)"/>
<path d="M42 4h2v2h-2v-2z" fill="rgb(46,46,46)"/>
<path d="M14 6h2v2h-2v-2z" fill="rgb(110,254,126)"/>
<path d="M18 6h2v2h-2v-2z" fill="rgb(110,254,126)"/>
<path d="M22 6h2v2h-2v-2z" fill="rgb(84,97,126)"/>
<path d="M26 6h2v2h-2v-2z" fill="rgb(192,213,49)"/>
<path d="M28 6h4v2h-4v-2z" fill="rgb(110,254,126)"/>
<path d="M32 6h2v2h-2v-2z" fill="rgb(220,255,224)"/>
<path d="M38 6h4v2h-4v-2z" fill="rgb(104,127,146)"/>
<path d="M42 6h2v2h-2v-2z" fill="rgb(62,66,96)"/>
<path d="M44 6h2v2h-2v-2z" fill="rgb(46,46,46)"/>
<path d="M8 8h4v2h-4v-2z" fill="rgb(46,46,46)"/>
<path d="M14 8h2v2h-2v-2z" fill="rgb(116,139,51)"/>
<path d="M16 8h2v2h-2v-2z" fill="rgb(192,213,49)"/>
<path d="M18 8h2v2h-2v-2z" fill="rgb(116,139,51)"/>
<path d="M22 8h2v2h-2v-2z" fill="rgb(114,155,177)"/>
<path d="M24 8h2v2h-2v-2z" fill="rgb(84,97,126)"/>
<path d="M26 8h2v4h-2v-4z" fill="rgb(0,79,2)"/>
<path d="M28 8h4v4h-2v-2h-2v-2z" fill="rgb(192,213,49)"/>
<path d="M32 8h2v2h-2v-2z" fill="rgb(110,254,126)"/>
<path d="M34 8h2v4h-2v-4z" fill="rgb(0,79,2)"/>
<path d="M36 8h2v2h-2v-2z" fill="rgb(84,97,126)"/>
<path d="M38 8h2v2h-2v-2z" fill="rgb(120,188,218)"/>
<path d="M40 8h4v2h-2v2h-6v-2h4v-2z" fill="rgb(114,155,177)"/>
<path d="M44 8h2v2h-2v-2z" fill="rgb(62,66,96)"/>
<path d="M46 8h2v2h-2v-2z" fill="rgb(46,46,46)"/>
<path d="M6 10h2v2h-2v-2z" fill="rgb(46,46,46)"/>
<path d="M8 10h2v2h-2v-2z" fill="rgb(104,127,146)"/>
<path d="M10 10h2v2h-2v-2z" fill="rgb(114,155,177)"/>
<path d="M12 10h2v2h-2v-2z" fill="rgb(84,97,126)"/>
<path d="M14 10h2v2h-2v-2z" fill="rgb(0,79,2)"/>
<path d="M16 10h2v2h-2v-2z" fill="rgb(116,139,51)"/>
<path d="M18 10h2v2h-2v-2z" fill="rgb(0,79,2)"/>
<path d="M20 10h4v2h-4v-2z" fill="rgb(120,188,218)"/>
<path d="M24 10h2v4h-6v-2h4v-2z" fill="rgb(114,155,177)"/>
<path d="M28 10h2v2h-2v-2z" fill="rgb(116,139,51)"/>
<path d="M32 10h2v2h-2v-2z" fill="rgb(116,139,51)"/>
<path d="M42 10h4v2h-2v2h-6v2h-4v-2h2v-2h6v-2z" fill="rgb(104,127,146)"/>
<path d="M46 10h2v6h-2v-6z" fill="rgb(62,66,96)"/>
<path d="M48 10h2v4h-2v-4z" fill="rgb(46,46,46)"/>
<path d="M4 12h2v2h-2v-2z" fill="rgb(46,46,46)"/>
<path d="M6 12h2v2h-2v-2z" fill="rgb(104,127,146)"/>
<path d="M8 12h2v2h-2v-2z" fill="rgb(114,155,177)"/>
<path d="M10 12h4v2h-2v2h-2v6h-2v-8h2v-2z" fill="rgb(120,188,218)"/>
<path d="M14 12h2v2h-2v-2z" fill="rgb(84,97,126)"/>
<path d="M16 12h2v2h-2v-2z" fill="rgb(0,79,2)"/>
<path d="M18 12h2v2h-2v-2z" fill="rgb(120,188,218)"/>
<path d="M26 12h2v2h-2v-2z" fill="rgb(84,97,126)"/>
<path d="M28 12h2v2h-2v-2z" fill="rgb(0,79,2)"/>
<path d="M30 12h2v2h-2v-2z" fill="rgb(116,139,51)"/>
<path d="M32 12h2v2h-2v-2z" fill="rgb(0,79,2)"/>
<path d="M34 12h2v2h-2v-2z" fill="rgb(84,97,126)"/>
<path d="M44 12h2v4h-6v2h-6v-2h4v-2h6v-2z" fill="rgb(84,97,126)"/>
<path d="M2 14h2v2h-2v-2z" fill="rgb(46,46,46)"/>
<path d="M4 14h2v2h-2v-2z" fill="rgb(104,127,146)"/>
<path d="M6 14h2v2h-2v-2z" fill="rgb(114,155,177)"/>
<path d="M12 14h4v4h-2v2h-4v-4h2v-2z" fill="rgb(114,155,177)"/>
<path d="M16 14h2v2h-2v-2z" fill="rgb(84,97,126)"/>
<path d="M18 14h2v2h-2v-2z" fill="rgb(46,46,46)"/>
<path d="M20 14h2v4h-2v-4z" fill="rgb(120,188,218)"/>
<path d="M22 14h6v4h-6v-4z" fill="rgb(104,127,146)"/>
<path d="M28 14h2v4h-2v-4z" fill="rgb(84,97,126)"/>
<path d="M30 14h2v2h-2v-2z" fill="rgb(46,46,46)"/>
<path d="M32 14h2v2h-2v-2z" fill="rgb(120,188,218)"/>
<path d="M48 14h2v4h-2v-4z" fill="rgb(104,127,146)"/>
<path d="M50 14h2v4h-2v-4z" fill="rgb(46,46,46)"/>
<path d="M0 16h2v2h2v2h-4v-4z" fill="rgb(46,46,46)"/>
<path d="M2 16h2v2h-2v-2z" fill="rgb(104,127,146)"/>
<path d="M4 16h2v2h-2v-2z" fill="rgb(46,46,46)"/>
<path d="M6 16h2v2h-2v-2z" fill="rgb(104,127,146)"/>
<path d="M16 16h2v4h-2v2h-4v2h-2v-4h4v-2h2v-2z" fill="rgb(104,127,146)"/>
<path d="M18 16h2v2h-2v-2z" fill="rgb(62,66,96)"/>
<path d="M30 16h2v4h-4v-2h2v-2z" fill="rgb(62,66,96)"/>
<path d="M32 16h2v2h-2v-2z" fill="rgb(114,155,177)"/>
<path d="M40 16h6v2h-6v-2z" fill="rgb(62,66,96)"/>
<path d="M46 16h2v2h-2v-2z" fill="rgb(84,97,126)"/>
<path d="M4 18h2v2h-2v-2z" fill="rgb(240,168,3)"/>
<path d="M6 18h2v2h-2v-2z" fill="rgb(46,46,46)"/>
<path d="M18 18h2v4h-2v2h-4v2h-4v-2h2v-2h4v-2h2v-2z" fill="rgb(84,97,126)"/>
<path d="M20 18h2v4h-2v-4z" fill="rgb(46,46,46)"/>
<path d="M22 18h2v2h-2v-2z" fill="rgb(114,155,177)"/>
<path d="M24 18h4v2h-4v-2z" fill="rgb(84,97,126)"/>
<path d="M32 18h2v2h-2v-2z" fill="rgb(104,127,146)"/>
<path d="M34 18h6v2h-6v-2z" fill="rgb(62,66,96)"/>
<path d="M40 18h6v2h-6v-2z" fill="rgb(84,97,126)"/>
<path d="M46 18h2v2h-2v-2z" fill="rgb(104,127,146)"/>
<path d="M48 18h2v2h-2v-2z" fill="rgb(46,46,46)"/>
<path d="M50 18h2v16h-44v-2h2v-2h2v-2h2v-2h4v-4h30v-2h2v-2z" fill="rgb(255,255,255)"/>
<path d="M0 20h2v6h-2v-6z" fill="rgb(158,73,0)"/>
<path d="M2 20h2v2h-2v-2z" fill="rgb(240,168,3)"/>
<path d="M4 20h2v2h-2v-2z" fill="rgb(255,255,129)"/>
<path d="M6 20h2v8h-2v-8z" fill="rgb(158,73,0)"/>
<path d="M22 20h2v2h-2v-2z" fill="rgb(104,127,146)"/>
<path d="M24 20h4v2h-4v-2z" fill="rgb(62,66,96)"/>
<path d="M28 20h20v2h-20v-2z" fill="rgb(46,46,46)"/>
<path d="M2 22h2v2h-2v-2z" fill="rgb(255,255,129)"/>
<path d="M4 22h2v6h-2v-2h-2v-2h2v-2z" fill="rgb(255,255,211)"/>
<path d="M8 22h2v4h-2v-4z" fill="rgb(114,155,177)"/>
<path d="M14 24h2v2h-2v-2z" fill="rgb(62,66,96)"/>
<path d="M16 24h2v2h-2v-2z" fill="rgb(0,79,2)"/>
<path d="M0 26h2v4h-2v-4z" fill="rgb(46,46,46)"/>
<path d="M2 26h2v2h-2v-2z" fill="rgb(158,73,0)"/>
<path d="M8 26h2v2h-2v-2z" fill="rgb(104,127,146)"/>
<path d="M10 26h2v2h-2v-2z" fill="rgb(62,66,96)"/>
<path d="M12 26h2v2h-2v-2z" fill="rgb(46,46,46)"/>
<path d="M2 28h2v2h-2v-2z" fill="rgb(84,97,126)"/>
<path d="M4 28h2v2h-2v-2z" fill="rgb(158,73,0)"/>
<path d="M6 28h2v2h-2v-2z" fill="rgb(114,155,177)"/>
<path d="M8 28h2v2h-2v-2z" fill="rgb(62,66,96)"/>
<path d="M10 28h2v2h-2v-2z" fill="rgb(46,46,46)"/>
<path d="M0 30h2v2h2v2h-4v-4z" fill="rgb(255,255,255)"/>
<path d="M2 30h2v2h-2v-2z" fill="rgb(46,46,46)"/>
<path d="M4 30h2v2h-2v-2z" fill="rgb(114,155,177)"/>
<path d="M6 30h2v2h-2v-2z" fill="rgb(62,66,96)"/>
<path d="M8 30h2v2h-2v-2z" fill="rgb(46,46,46)"/>
<path d="M4 32h4v2h-4v-2z" fill="rgb(46,46,46)"/>
</svg>