<?xml version="1.0" encoding="utf-8"?>
<!-- generated at drububu.com  -->
<!DOCTYPE svg PUBLIC "-//W3C//DTD SVG 1.1//EN" "http://www.w3.org/Graphics/SVG/1.1/DTD/svg11.dtd">
<svg version="1.1" preserveAspectRatio="xMinYMin meet" xmlns="http://www.w3.org/2000/svg" xmlns:xlink="http://www.w3.org/1999/xlink" x="0px" y="0px" width="146px" height="126px" viewBox="0 0 146 126">
<path d="M0 0h70v2h-4v2h-2v6h-2v6h-2v6h-2v-2h-2v2h-2v4h2v2h-2v4h-2v2h-2v2h2v2
	h-2v2h2v2h2v2h2v2h2v-2h2v2h2v-2h2v2h14v2h-2v2h-2v2h-2v2h-2v4h-2v4h-2v4h-2v14h2v2
	h-8v2h-4v-2h-6v-2h-6v-2h-6v-2h-4v-2h-4v-2h-8v-2h-4v-2h-10v2h-2v10h-2v8h-2v-88z" fill="rgb(255,255,255)"/>
<path d="M70 0h12v2h-12v-2z" fill="rgb(77,45,32)"/>
<path d="M82 0h2v2h-2v-2z" fill="rgb(41,23,8)"/>
<path d="M84 0h62v82h-2v-2h-2v-10h2v-10h-2v-2h-2v-4h2v-4h-4v-2h2v-2h2v-4h-2v-2
	h-4v2h-2v-6h-2v-6h-2v-6h-2v-4h-2v-2h-2v-2h-4v-2h-4v-2h-4v-2h-12v-2h-4v-2h-4v-2
	h-4v-2h-4v-2z" fill="rgb(255,255,255)"/>
<path d="M66 2h4v2h-4v-2z" fill="rgb(77,45,32)"/>
<path d="M70 2h6v2h-6v-2z" fill="rgb(121,84,57)"/>
<path d="M76 2h4v2h2v2h-4v2h-2v-2h-6v-2h6v-2z" fill="rgb(152,107,74)"/>
<path d="M80 2h4v2h2v2h2v2h-6v-4h-2v-2z" fill="rgb(121,84,57)"/>
<path d="M84 2h2v2h-2v-2z" fill="rgb(77,45,32)"/>
<path d="M86 2h2v2h-2v-2z" fill="rgb(41,23,8)"/>
<path d="M64 4h2v2h10v2h-10v2h-2v-6z" fill="rgb(77,45,32)"/>
<path d="M66 4h4v2h-4v-2z" fill="rgb(121,84,57)"/>
<path d="M86 4h2v2h-2v-2z" fill="rgb(77,45,32)"/>
<path d="M88 4h4v2h-4v-2z" fill="rgb(41,23,8)"/>
<path d="M78 6h4v2h-4v-2z" fill="rgb(77,45,32)"/>
<path d="M88 6h4v2h-2v2h-2v16h-6v-2h4v-12h-2v-2h-2v-2h6v-2z" fill="rgb(77,45,32)"/>
<path d="M92 6h4v2h4v2h-2v2h2v2h-2v4h-2v-8h-2v-2h-2v-2z" fill="rgb(41,23,8)"/>
<path d="M66 8h6v2h-6v-2z" fill="rgb(141,201,200)"/>
<path d="M72 8h2v2h-2v-2z" fill="rgb(87,145,165)"/>
<path d="M74 8h2v2h-2v-2z" fill="rgb(58,55,96)"/>
<path d="M76 8h2v2h-2v-2z" fill="rgb(77,45,32)"/>
<path d="M78 8h2v2h-2v-2z" fill="rgb(152,107,74)"/>
<path d="M80 8h2v2h-2v-2z" fill="rgb(121,84,57)"/>
<path d="M90 8h4v2h-4v-2z" fill="rgb(18,10,53)"/>
<path d="M62 10h2v2h-2v-2z" fill="rgb(83,101,144)"/>
<path d="M64 10h2v2h-2v-2z" fill="rgb(141,201,200)"/>
<path d="M66 10h6v2h-6v-2z" fill="rgb(58,55,96)"/>
<path d="M72 10h4v2h-2v2h-2v-4z" fill="rgb(18,10,53)"/>
<path d="M76 10h2v2h-2v-2z" fill="rgb(58,55,96)"/>
<path d="M78 10h2v4h-2v-4z" fill="rgb(77,45,32)"/>
<path d="M80 10h4v2h2v8h-2v-2h-2v-6h-2v-2z" fill="rgb(152,107,74)"/>
<path d="M88 10h2v2h-2v-2z" fill="rgb(18,10,53)"/>
<path d="M90 10h2v2h-2v-2z" fill="rgb(141,201,200)"/>
<path d="M92 10h2v2h-2v-2z" fill="rgb(87,145,165)"/>
<path d="M94 10h2v6h-2v-6z" fill="rgb(18,10,53)"/>
<path d="M98 10h4v2h-4v-2z" fill="rgb(18,10,53)"/>
<path d="M102 10h8v2h-8v-2z" fill="rgb(83,101,144)"/>
<path d="M110 10h2v2h-2v-2z" fill="rgb(58,55,96)"/>
<path d="M62 12h4v2h-2v2h-2v-4z" fill="rgb(18,10,53)"/>
<path d="M66 12h2v2h-2v-2z" fill="rgb(148,133,123)"/>
<path d="M68 12h2v2h-2v-2z" fill="rgb(212,195,183)"/>
<path d="M70 12h2v2h-2v-2z" fill="rgb(148,133,123)"/>
<path d="M74 12h4v4h2v2h-8v-2h4v-2h-2v-2z" fill="rgb(83,101,144)"/>
<path d="M80 12h2v2h-2v-2z" fill="rgb(121,84,57)"/>
<path d="M88 12h2v4h-2v-4z" fill="rgb(141,201,200)"/>
<path d="M90 12h2v2h-2v-2z" fill="rgb(87,145,165)"/>
<path d="M92 12h2v2h-2v-2z" fill="rgb(83,101,144)"/>
<path d="M100 12h2v2h-2v-2z" fill="rgb(83,101,144)"/>
<path d="M102 12h2v2h-2v-2z" fill="rgb(87,145,165)"/>
<path d="M104 12h6v2h4v2h4v2h2v2h2v2h2v4h2v2h2v6h-2v2h-2v2h-8v2h-6v-2h-2v-2h-2
	v-4h-2v-4h-2v-2h-2v-2h-2v-6h2v-2h2v-2h2v-2z" fill="rgb(141,201,200)"/>
<path d="M110 12h2v2h-2v-2z" fill="rgb(87,145,165)"/>
<path d="M112 12h2v2h-2v-2z" fill="rgb(58,55,96)"/>
<path d="M114 12h2v2h-2v-2z" fill="rgb(18,10,53)"/>
<path d="M64 14h2v2h-2v-2z" fill="rgb(148,133,123)"/>
<path d="M66 14h4v2h-4v-2z" fill="rgb(235,231,227)"/>
<path d="M70 14h2v2h-2v-2z" fill="rgb(58,55,96)"/>
<path d="M72 14h4v2h-4v-2z" fill="rgb(87,145,165)"/>
<path d="M78 14h2v2h-2v-2z" fill="rgb(58,55,96)"/>
<path d="M80 14h2v10h-2v-10z" fill="rgb(77,45,32)"/>
<path d="M90 14h2v4h-2v-4z" fill="rgb(83,101,144)"/>
<path d="M92 14h2v2h-2v-2z" fill="rgb(58,55,96)"/>
<path d="M98 14h2v2h-2v-2z" fill="rgb(58,55,96)"/>
<path d="M100 14h2v2h-2v-2z" fill="rgb(87,145,165)"/>
<path d="M114 14h2v2h-2v-2z" fill="rgb(87,145,165)"/>
<path d="M116 14h2v2h-2v-2z" fill="rgb(83,101,144)"/>
<path d="M118 14h2v2h-2v-2z" fill="rgb(58,55,96)"/>
<path d="M60 16h10v2h-2v2h-2v-2h-4v2h-2v-4z" fill="rgb(58,55,96)"/>
<path d="M70 16h2v4h-2v-4z" fill="rgb(87,145,165)"/>
<path d="M88 16h2v2h-2v-2z" fill="rgb(87,145,165)"/>
<path d="M92 16h2v2h-2v-2z" fill="rgb(18,10,53)"/>
<path d="M94 16h2v2h-2v-2z" fill="rgb(58,55,96)"/>
<path d="M98 16h2v2h-2v-2z" fill="rgb(87,145,165)"/>
<path d="M118 16h2v2h-2v-2z" fill="rgb(83,101,144)"/>
<path d="M120 16h2v2h-2v-2z" fill="rgb(58,55,96)"/>
<path d="M122 16h2v2h-2v-2z" fill="rgb(18,10,53)"/>
<path d="M62 18h2v2h-2v-2z" fill="rgb(141,201,200)"/>
<path d="M64 18h2v2h-2v-2z" fill="rgb(87,145,165)"/>
<path d="M68 18h2v2h-2v-2z" fill="rgb(83,101,144)"/>
<path d="M72 18h6v2h2v2h-2v2h-4v2h-4v-6h2v-2z" fill="rgb(141,201,200)"/>
<path d="M78 18h2v2h-2v-2z" fill="rgb(87,145,165)"/>
<path d="M82 18h2v2h2v4h-4v-6z" fill="rgb(121,84,57)"/>
<path d="M88 18h2v2h-2v-2z" fill="rgb(18,10,53)"/>
<path d="M90 18h4v4h-2v-2h-2v-2z" fill="rgb(58,55,96)"/>
<path d="M94 18h4v2h-4v-2z" fill="rgb(83,101,144)"/>
<path d="M106 18h4v2h-2v2h-2v-4z" fill="rgb(83,101,144)"/>
<path d="M110 18h2v2h-2v-2z" fill="rgb(87,145,165)"/>
<path d="M120 18h2v2h-2v-2z" fill="rgb(87,145,165)"/>
<path d="M122 18h2v2h-2v-2z" fill="rgb(83,101,144)"/>
<path d="M124 18h2v2h-2v-2z" fill="rgb(18,10,53)"/>
<path d="M56 20h2v2h-2v-2z" fill="rgb(77,45,32)"/>
<path d="M60 20h2v4h-2v-4z" fill="rgb(83,101,144)"/>
<path d="M62 20h4v2h-4v-2z" fill="rgb(58,55,96)"/>
<path d="M66 20h2v2h-2v-2z" fill="rgb(83,101,144)"/>
<path d="M68 20h2v6h4v6h-2v-2h-2v-2h-2v-4h-2v-2h2v-2z" fill="rgb(87,145,165)"/>
<path d="M88 20h2v6h-2v-6z" fill="rgb(41,23,8)"/>
<path d="M90 20h2v2h-2v-2z" fill="rgb(18,10,53)"/>
<path d="M94 20h4v4h2v2h2v2h-6v-4h-2v-4z" fill="rgb(87,145,165)"/>
<path d="M104 20h2v2h-2v-2z" fill="rgb(87,145,165)"/>
<path d="M108 20h2v2h-2v-2z" fill="rgb(87,145,165)"/>
<path d="M122 20h2v2h-2v-2z" fill="rgb(87,145,165)"/>
<path d="M124 20h2v2h-2v-2z" fill="rgb(58,55,96)"/>
<path d="M126 20h2v2h-2v-2z" fill="rgb(18,10,53)"/>
<path d="M54 22h2v4h-2v-4z" fill="rgb(77,45,32)"/>
<path d="M56 22h2v2h-2v-2z" fill="rgb(232,230,212)"/>
<path d="M58 22h2v2h-2v-2z" fill="rgb(121,84,57)"/>
<path d="M62 22h4v2h2v4h-2v-2h-4v-4z" fill="rgb(141,201,200)"/>
<path d="M78 22h2v2h-2v-2z" fill="rgb(87,145,165)"/>
<path d="M90 22h2v4h-2v-4z" fill="rgb(58,55,96)"/>
<path d="M92 22h2v2h2v4h4v2h-6v-2h-2v6h-2v2h-2v2h-4v2h-4v2h-6v2h-10v-2h6v-2h4
	v-2h8v-2h2v-2h4v-4h-6v-2h8v-2h2v-4z" fill="rgb(83,101,144)"/>
<path d="M110 22h2v2h-2v-2z" fill="rgb(87,145,165)"/>
<path d="M112 22h4v2h2v2h-4v-2h-2v-2z" fill="rgb(83,101,144)"/>
<path d="M116 22h2v2h-2v-2z" fill="rgb(87,145,165)"/>
<path d="M124 22h2v2h-2v-2z" fill="rgb(83,101,144)"/>
<path d="M126 22h2v2h-2v-2z" fill="rgb(58,55,96)"/>
<path d="M56 24h2v2h-2v-2z" fill="rgb(212,195,183)"/>
<path d="M58 24h2v2h-2v-2z" fill="rgb(192,144,112)"/>
<path d="M60 24h2v2h-2v-2z" fill="rgb(77,45,32)"/>
<path d="M74 24h2v2h-2v-2z" fill="rgb(87,145,165)"/>
<path d="M76 24h4v2h-2v2h-2v2h4v2h-2v2h-2v2h-2v-10h2v-2z" fill="rgb(83,101,144)"/>
<path d="M80 24h2v2h-2v-2z" fill="rgb(41,23,8)"/>
<path d="M112 24h2v2h4v-2h2v4h-8v-4z" fill="rgb(87,145,165)"/>
<path d="M124 24h2v2h-2v-2z" fill="rgb(87,145,165)"/>
<path d="M126 24h2v2h-2v-2z" fill="rgb(83,101,144)"/>
<path d="M128 24h2v4h-2v-4z" fill="rgb(18,10,53)"/>
<path d="M56 26h2v2h-2v-2z" fill="rgb(121,84,57)"/>
<path d="M58 26h2v2h-2v-2z" fill="rgb(212,195,183)"/>
<path d="M60 26h2v2h-2v-2z" fill="rgb(192,144,112)"/>
<path d="M62 26h2v2h-2v-2z" fill="rgb(77,45,32)"/>
<path d="M64 26h2v2h-2v-2z" fill="rgb(83,101,144)"/>
<path d="M78 26h4v4h-6v-2h2v-2z" fill="rgb(58,55,96)"/>
<path d="M82 26h6v2h-6v-2z" fill="rgb(41,23,8)"/>
<path d="M88 26h2v2h-2v-2z" fill="rgb(58,55,96)"/>
<path d="M104 26h2v2h-2v-2z" fill="rgb(87,145,165)"/>
<path d="M126 26h2v2h-2v-2z" fill="rgb(87,145,165)"/>
<path d="M54 28h4v2h-4v-2z" fill="rgb(18,10,53)"/>
<path d="M58 28h10v2h-10v-2z" fill="rgb(58,55,96)"/>
<path d="M68 28h2v2h-2v-2z" fill="rgb(83,101,144)"/>
<path d="M92 28h2v2h6v-2h2v4h-2v2h-2v2h-2v2h-4v-2h2v-4h-2v-4z" fill="rgb(58,55,96)"/>
<path d="M102 28h2v4h2v4h-2v-2h-4v-2h2v-4z" fill="rgb(87,145,165)"/>
<path d="M128 28h2v2h-2v-2z" fill="rgb(58,55,96)"/>
<path d="M54 30h2v2h-2v-2z" fill="rgb(83,101,144)"/>
<path d="M56 30h2v2h-2v-2z" fill="rgb(87,145,165)"/>
<path d="M58 30h10v2h-10v-2z" fill="rgb(141,201,200)"/>
<path d="M68 30h2v2h-2v-2z" fill="rgb(87,145,165)"/>
<path d="M70 30h2v2h-2v-2z" fill="rgb(83,101,144)"/>
<path d="M80 30h8v4h-2v-2h-6v-2z" fill="rgb(87,145,165)"/>
<path d="M128 30h2v4h-2v-4z" fill="rgb(87,145,165)"/>
<path d="M130 30h2v4h-2v-4z" fill="rgb(18,10,53)"/>
<path d="M52 32h6v2h-2v2h-2v-2h-2v-2z" fill="rgb(58,55,96)"/>
<path d="M58 32h8v2h-6v2h-4v-2h2v-2z" fill="rgb(83,101,144)"/>
<path d="M66 32h2v2h-2v-2z" fill="rgb(87,145,165)"/>
<path d="M68 32h6v2h-6v-2z" fill="rgb(141,201,200)"/>
<path d="M78 32h2v2h-2v-2z" fill="rgb(87,145,165)"/>
<path d="M80 32h6v2h-4v2h-4v-2h2v-2z" fill="rgb(141,201,200)"/>
<path d="M92 32h2v4h-2v-4z" fill="rgb(18,10,53)"/>
<path d="M116 32h2v2h-2v-2z" fill="rgb(83,101,144)"/>
<path d="M118 32h2v2h-2v-2z" fill="rgb(87,145,165)"/>
<path d="M50 34h2v2h-2v-2z" fill="rgb(58,55,96)"/>
<path d="M52 34h2v2h-2v-2z" fill="rgb(87,145,165)"/>
<path d="M60 34h6v2h-6v-2z" fill="rgb(87,145,165)"/>
<path d="M66 34h6v2h-6v-2z" fill="rgb(83,101,144)"/>
<path d="M72 34h2v2h2v-2h2v2h4v2h-8v2h-4v-2h2v-4z" fill="rgb(87,145,165)"/>
<path d="M82 34h2v2h-2v-2z" fill="rgb(87,145,165)"/>
<path d="M90 34h2v2h-2v-2z" fill="rgb(58,55,96)"/>
<path d="M98 34h6v2h-6v-2z" fill="rgb(83,101,144)"/>
<path d="M116 34h2v2h-2v-2z" fill="rgb(87,145,165)"/>
<path d="M118 34h2v2h-2v-2z" fill="rgb(83,101,144)"/>
<path d="M126 34h2v6h-2v-2h-2v-2h2v-2z" fill="rgb(87,145,165)"/>
<path d="M128 34h2v2h-2v-2z" fill="rgb(83,101,144)"/>
<path d="M130 34h2v4h-2v-4z" fill="rgb(58,55,96)"/>
<path d="M52 36h2v2h-2v-2z" fill="rgb(58,55,96)"/>
<path d="M54 36h2v2h-2v-2z" fill="rgb(87,145,165)"/>
<path d="M56 36h16v2h-2v2h-4v2h-2v-2h-2v-2h-2v2h-2v-2h-2v-2z" fill="rgb(141,201,200)"/>
<path d="M88 36h2v2h-2v-2z" fill="rgb(58,55,96)"/>
<path d="M90 36h2v2h-2v-2z" fill="rgb(18,10,53)"/>
<path d="M96 36h2v2h-2v-2z" fill="rgb(83,101,144)"/>
<path d="M98 36h2v2h2v2h-8v-2h4v-2z" fill="rgb(87,145,165)"/>
<path d="M100 36h2v2h-2v-2z" fill="rgb(141,201,200)"/>
<path d="M102 36h2v4h-2v-4z" fill="rgb(58,55,96)"/>
<path d="M104 36h2v2h2v2h2v2h2v2h2v2h-4v-2h-2v-2h-2v-2h-2v-4z" fill="rgb(83,101,144)"/>
<path d="M106 36h2v2h-2v-2z" fill="rgb(87,145,165)"/>
<path d="M128 36h2v2h-2v-2z" fill="rgb(18,10,53)"/>
<path d="M132 36h2v6h-2v-6z" fill="rgb(18,10,53)"/>
<path d="M50 38h2v2h-2v-2z" fill="rgb(58,55,96)"/>
<path d="M52 38h2v2h-2v-2z" fill="rgb(87,145,165)"/>
<path d="M54 38h2v2h-2v-2z" fill="rgb(141,201,200)"/>
<path d="M56 38h2v2h-2v-2z" fill="rgb(87,145,165)"/>
<path d="M60 38h2v2h-2v-2z" fill="rgb(87,145,165)"/>
<path d="M84 38h2v2h-2v-2z" fill="rgb(58,55,96)"/>
<path d="M86 38h4v2h-4v-2z" fill="rgb(18,10,53)"/>
<path d="M90 38h2v2h-2v-2z" fill="rgb(58,55,96)"/>
<path d="M92 38h2v2h-2v-2z" fill="rgb(83,101,144)"/>
<path d="M108 38h2v2h-2v-2z" fill="rgb(87,145,165)"/>
<path d="M116 38h8v2h-2v4h-2v-2h-2v-2h-2v-2z" fill="rgb(87,145,165)"/>
<path d="M124 38h2v2h2v4h2v4h-2v2h-2v2h-4v2h-2v-2h-2v-6h2v-2h2v-4h2v-2z" fill="rgb(141,201,200)"/>
<path d="M128 38h2v2h-2v-2z" fill="rgb(58,55,96)"/>
<path d="M130 38h2v4h2v4h-2v-2h-2v-6z" fill="rgb(83,101,144)"/>
<path d="M52 40h2v2h-2v-2z" fill="rgb(58,55,96)"/>
<path d="M54 40h2v2h-2v-2z" fill="rgb(87,145,165)"/>
<path d="M56 40h2v2h-2v-2z" fill="rgb(141,201,200)"/>
<path d="M58 40h2v2h-2v-2z" fill="rgb(87,145,165)"/>
<path d="M60 40h2v2h-2v-2z" fill="rgb(141,201,200)"/>
<path d="M62 40h2v2h-2v-2z" fill="rgb(87,145,165)"/>
<path d="M66 40h4v2h-4v-2z" fill="rgb(87,145,165)"/>
<path d="M80 40h2v2h-2v-2z" fill="rgb(58,55,96)"/>
<path d="M82 40h4v2h-4v-2z" fill="rgb(18,10,53)"/>
<path d="M86 40h2v2h-2v-2z" fill="rgb(58,55,96)"/>
<path d="M88 40h2v2h-2v-2z" fill="rgb(83,101,144)"/>
<path d="M90 40h4v2h-2v2h-2v2h-2v2h-2v-4h2v-2h2v-2z" fill="rgb(87,145,165)"/>
<path d="M94 40h8v2h2v4h-2v2h-2v2h-12v-4h2v-2h2v-2h2v-2z" fill="rgb(141,201,200)"/>
<path d="M102 40h2v2h-2v-2z" fill="rgb(18,10,53)"/>
<path d="M104 40h2v2h-2v-2z" fill="rgb(58,55,96)"/>
<path d="M110 40h6v2h-2v2h-2v-2h-2v-2z" fill="rgb(87,145,165)"/>
<path d="M116 40h2v4h-2v-4z" fill="rgb(58,55,96)"/>
<path d="M128 40h2v4h-2v-4z" fill="rgb(87,145,165)"/>
<path d="M136 40h4v2h-2v4h2v2h-2v4h-2v-4h-2v-2h2v-6z" fill="rgb(41,23,8)"/>
<path d="M54 42h2v2h-2v-2z" fill="rgb(58,55,96)"/>
<path d="M56 42h2v2h-2v-2z" fill="rgb(87,145,165)"/>
<path d="M58 42h2v2h-2v-2z" fill="rgb(58,55,96)"/>
<path d="M60 42h2v2h-2v-2z" fill="rgb(87,145,165)"/>
<path d="M62 42h2v2h-2v-2z" fill="rgb(58,55,96)"/>
<path d="M74 42h4v2h-4v-2z" fill="rgb(58,55,96)"/>
<path d="M78 42h4v2h-4v-2z" fill="rgb(18,10,53)"/>
<path d="M82 42h2v4h-6v-2h4v-2z" fill="rgb(58,55,96)"/>
<path d="M84 42h4v2h-2v2h-2v-4z" fill="rgb(83,101,144)"/>
<path d="M104 42h2v6h-2v-6z" fill="rgb(83,101,144)"/>
<path d="M106 42h2v2h-2v-2z" fill="rgb(58,55,96)"/>
<path d="M114 42h2v2h-2v-2z" fill="rgb(83,101,144)"/>
<path d="M118 42h2v2h-2v-2z" fill="rgb(83,101,144)"/>
<path d="M134 42h2v4h-2v-4z" fill="rgb(58,55,96)"/>
<path d="M138 42h2v2h-2v-2z" fill="rgb(77,45,32)"/>
<path d="M140 42h2v4h-2v-4z" fill="rgb(41,23,8)"/>
<path d="M56 44h2v2h-2v-2z" fill="rgb(58,55,96)"/>
<path d="M60 44h2v2h-2v-2z" fill="rgb(58,55,96)"/>
<path d="M64 44h6v2h-6v-2z" fill="rgb(58,55,96)"/>
<path d="M70 44h8v2h-8v-2z" fill="rgb(18,10,53)"/>
<path d="M106 44h2v2h-2v-2z" fill="rgb(18,10,53)"/>
<path d="M108 44h2v2h-2v-2z" fill="rgb(58,55,96)"/>
<path d="M114 44h2v4h-2v2h-2v-2h-2v-2h4v-2z" fill="rgb(58,55,96)"/>
<path d="M116 44h2v2h-2v-2z" fill="rgb(83,101,144)"/>
<path d="M118 44h2v2h-2v-2z" fill="rgb(87,145,165)"/>
<path d="M130 44h2v4h-2v-4z" fill="rgb(87,145,165)"/>
<path d="M138 44h2v2h-2v-2z" fill="rgb(169,127,79)"/>
<path d="M78 46h2v2h-2v-2z" fill="rgb(41,23,8)"/>
<path d="M80 46h2v2h-2v-2z" fill="rgb(77,45,32)"/>
<path d="M82 46h2v6h-2v-6z" fill="rgb(41,23,8)"/>
<path d="M84 46h2v2h-2v-2z" fill="rgb(58,55,96)"/>
<path d="M102 46h2v2h-2v-2z" fill="rgb(87,145,165)"/>
<path d="M106 46h2v2h2v2h2v6h-2v4h-2v2h-6v-2h2v-2h2v-2h2v-4h-6v-2h2v-2h2v-2z" fill="rgb(87,145,165)"/>
<path d="M108 46h2v2h-2v-2z" fill="rgb(18,10,53)"/>
<path d="M116 46h2v6h-2v-6z" fill="rgb(87,145,165)"/>
<path d="M132 46h2v2h-2v-2z" fill="rgb(58,55,96)"/>
<path d="M76 48h2v2h-2v-2z" fill="rgb(41,23,8)"/>
<path d="M78 48h2v2h-2v-2z" fill="rgb(77,45,32)"/>
<path d="M80 48h2v8h-2v-2h-2v-4h2v-2z" fill="rgb(152,107,74)"/>
<path d="M84 48h2v2h-2v-2z" fill="rgb(83,101,144)"/>
<path d="M86 48h2v2h-2v-2z" fill="rgb(58,55,96)"/>
<path d="M100 48h2v2h-2v-2z" fill="rgb(87,145,165)"/>
<path d="M102 48h2v2h-2v-2z" fill="rgb(83,101,144)"/>
<path d="M110 48h2v2h-2v-2z" fill="rgb(18,10,53)"/>
<path d="M114 48h2v2h-2v-2z" fill="rgb(18,10,53)"/>
<path d="M128 48h2v2h-2v-2z" fill="rgb(83,101,144)"/>
<path d="M130 48h4v2h-4v-2z" fill="rgb(77,45,32)"/>
<path d="M134 48h2v2h-2v-2z" fill="rgb(152,107,74)"/>
<path d="M74 50h2v2h-2v-2z" fill="rgb(18,10,53)"/>
<path d="M76 50h2v4h-2v-4z" fill="rgb(77,45,32)"/>
<path d="M84 50h2v2h-2v-2z" fill="rgb(58,55,96)"/>
<path d="M86 50h2v2h-2v-2z" fill="rgb(83,101,144)"/>
<path d="M88 50h10v2h-10v-2z" fill="rgb(58,55,96)"/>
<path d="M98 50h4v2h-4v-2z" fill="rgb(83,101,144)"/>
<path d="M112 50h2v4h-2v-4z" fill="rgb(18,10,53)"/>
<path d="M114 50h2v2h2v2h-4v-4z" fill="rgb(58,55,96)"/>
<path d="M126 50h2v2h-2v-2z" fill="rgb(83,101,144)"/>
<path d="M128 50h2v2h-2v-2z" fill="rgb(77,45,32)"/>
<path d="M130 50h2v2h-2v-2z" fill="rgb(121,84,57)"/>
<path d="M132 50h4v2h-4v-2z" fill="rgb(192,144,112)"/>
<path d="M138 50h2v4h-2v-4z" fill="rgb(77,45,32)"/>
<path d="M140 50h2v4h-2v-4z" fill="rgb(41,23,8)"/>
<path d="M72 52h2v4h-2v2h-2v-4h2v-2z" fill="rgb(77,45,32)"/>
<path d="M74 52h2v2h-2v-2z" fill="rgb(58,55,96)"/>
<path d="M82 52h2v2h-2v-2z" fill="rgb(77,45,32)"/>
<path d="M84 52h2v2h-2v-2z" fill="rgb(41,23,8)"/>
<path d="M86 52h2v2h-2v-2z" fill="rgb(58,55,96)"/>
<path d="M88 52h6v2h-6v-2z" fill="rgb(83,101,144)"/>
<path d="M94 52h8v2h-4v2h-2v-2h-2v-2z" fill="rgb(87,145,165)"/>
<path d="M102 52h6v4h-2v2h-2v2h-2v-2h-2v-2h-2v-2h4v-2z" fill="rgb(141,201,200)"/>
<path d="M118 52h2v2h-2v-2z" fill="rgb(87,145,165)"/>
<path d="M122 52h2v2h-2v-2z" fill="rgb(83,101,144)"/>
<path d="M124 52h2v2h-2v-2z" fill="rgb(41,23,8)"/>
<path d="M126 52h2v4h-2v-4z" fill="rgb(121,84,57)"/>
<path d="M128 52h4v2h-4v-2z" fill="rgb(192,144,112)"/>
<path d="M132 52h2v2h-2v-2z" fill="rgb(121,84,57)"/>
<path d="M134 52h2v2h-2v-2z" fill="rgb(77,45,32)"/>
<path d="M136 52h2v2h-2v-2z" fill="rgb(152,107,74)"/>
<path d="M74 54h2v2h-2v-2z" fill="rgb(83,101,144)"/>
<path d="M76 54h2v2h-2v-2z" fill="rgb(58,55,96)"/>
<path d="M78 54h2v2h-2v-2z" fill="rgb(77,45,32)"/>
<path d="M82 54h2v2h2v2h-4v-4z" fill="rgb(121,84,57)"/>
<path d="M84 54h2v2h-2v-2z" fill="rgb(77,45,32)"/>
<path d="M86 54h2v2h-2v-2z" fill="rgb(41,23,8)"/>
<path d="M88 54h8v2h-8v-2z" fill="rgb(46,46,46)"/>
<path d="M112 54h8v2h-6v4h-2v-6z" fill="rgb(41,23,8)"/>
<path d="M120 54h4v2h-4v-2z" fill="rgb(77,45,32)"/>
<path d="M124 54h2v2h-2v-2z" fill="rgb(152,107,74)"/>
<path d="M128 54h2v4h-2v-4z" fill="rgb(77,45,32)"/>
<path d="M130 54h4v2h-4v-2z" fill="rgb(41,23,8)"/>
<path d="M134 54h2v2h-2v-2z" fill="rgb(121,84,57)"/>
<path d="M136 54h4v2h-4v-2z" fill="rgb(41,23,8)"/>
<path d="M72 56h2v4h2v4h-2v-2h-2v-6z" fill="rgb(152,107,74)"/>
<path d="M74 56h2v4h-2v-4z" fill="rgb(77,45,32)"/>
<path d="M76 56h2v2h-2v-2z" fill="rgb(83,101,144)"/>
<path d="M78 56h2v2h2v2h10v2h-6v8h-6v-2h4v-6h-4v-2h-4v-2h2v-2z" fill="rgb(41,23,8)"/>
<path d="M80 56h2v2h-2v-2z" fill="rgb(77,45,32)"/>
<path d="M86 56h2v2h4v2h-10v-2h4v-2z" fill="rgb(77,45,32)"/>
<path d="M88 56h4v2h-4v-2z" fill="rgb(41,23,8)"/>
<path d="M92 56h2v2h-2v-2z" fill="rgb(148,133,123)"/>
<path d="M94 56h2v2h-2v-2z" fill="rgb(212,195,183)"/>
<path d="M96 56h2v2h-2v-2z" fill="rgb(46,46,46)"/>
<path d="M98 56h2v2h-2v-2z" fill="rgb(87,145,165)"/>
<path d="M110 56h2v6h-2v2h-4v2h-4v-4h6v-2h2v-4z" fill="rgb(83,101,144)"/>
<path d="M114 56h2v2h-2v-2z" fill="rgb(121,84,57)"/>
<path d="M116 56h4v2h-4v-2z" fill="rgb(152,107,74)"/>
<path d="M120 56h2v2h-2v-2z" fill="rgb(121,84,57)"/>
<path d="M122 56h4v2h-4v-2z" fill="rgb(192,144,112)"/>
<path d="M126 56h2v2h-2v-2z" fill="rgb(41,23,8)"/>
<path d="M130 56h2v2h-2v-2z" fill="rgb(152,107,74)"/>
<path d="M132 56h4v2h-4v-2z" fill="rgb(192,144,112)"/>
<path d="M136 56h2v2h-2v-2z" fill="rgb(58,55,96)"/>
<path d="M138 56h2v2h-2v-2z" fill="rgb(18,10,53)"/>
<path d="M68 58h2v4h-2v-4z" fill="rgb(77,45,32)"/>
<path d="M70 58h2v4h-2v-4z" fill="rgb(121,84,57)"/>
<path d="M92 58h2v2h-2v-2z" fill="rgb(41,23,8)"/>
<path d="M94 58h2v2h-2v-2z" fill="rgb(148,133,123)"/>
<path d="M96 58h2v2h-2v-2z" fill="rgb(212,195,183)"/>
<path d="M98 58h2v2h-2v-2z" fill="rgb(46,46,46)"/>
<path d="M100 58h2v2h-2v-2z" fill="rgb(87,145,165)"/>
<path d="M114 58h2v2h-2v-2z" fill="rgb(77,45,32)"/>
<path d="M116 58h10v2h-8v2h-4v-2h2v-2z" fill="rgb(41,23,8)"/>
<path d="M126 58h2v2h-2v-2z" fill="rgb(192,144,112)"/>
<path d="M128 58h2v2h-2v-2z" fill="rgb(152,107,74)"/>
<path d="M130 58h2v2h-2v-2z" fill="rgb(121,84,57)"/>
<path d="M132 58h2v2h-2v-2z" fill="rgb(77,45,32)"/>
<path d="M134 58h2v2h-2v-2z" fill="rgb(41,23,8)"/>
<path d="M136 58h2v2h2v2h2v4h-2v10h-2v-14h-2v-4z" fill="rgb(83,101,144)"/>
<path d="M138 58h2v2h-2v-2z" fill="rgb(58,55,96)"/>
<path d="M140 58h2v2h-2v-2z" fill="rgb(18,10,53)"/>
<path d="M76 60h2v2h2v4h-4v-6z" fill="rgb(121,84,57)"/>
<path d="M78 60h2v2h-2v-2z" fill="rgb(77,45,32)"/>
<path d="M92 60h2v2h-2v-2z" fill="rgb(46,46,46)"/>
<path d="M94 60h2v2h-2v-2z" fill="rgb(77,77,77)"/>
<path d="M96 60h2v2h-2v-2z" fill="rgb(148,133,123)"/>
<path d="M98 60h2v4h-2v-4z" fill="rgb(77,77,77)"/>
<path d="M100 60h2v4h-2v-4z" fill="rgb(46,46,46)"/>
<path d="M112 60h2v2h4v4h-2v2h-8v-2h-2v-2h4v-2h2v-2z" fill="rgb(58,55,96)"/>
<path d="M118 60h2v2h-2v-2z" fill="rgb(77,45,32)"/>
<path d="M120 60h2v2h-2v-2z" fill="rgb(121,84,57)"/>
<path d="M122 60h2v2h-2v-2z" fill="rgb(152,107,74)"/>
<path d="M124 60h2v2h-2v-2z" fill="rgb(192,144,112)"/>
<path d="M126 60h2v4h-2v-4z" fill="rgb(77,45,32)"/>
<path d="M128 60h4v2h-4v-2z" fill="rgb(41,23,8)"/>
<path d="M132 60h4v2h2v2h-4v-2h-2v-2z" fill="rgb(87,145,165)"/>
<path d="M140 60h2v2h-2v-2z" fill="rgb(58,55,96)"/>
<path d="M142 60h2v10h-2v-10z" fill="rgb(18,10,53)"/>
<path d="M66 62h2v2h-2v-2z" fill="rgb(58,55,96)"/>
<path d="M68 62h2v2h-2v-2z" fill="rgb(87,145,165)"/>
<path d="M70 62h2v2h-2v-2z" fill="rgb(41,23,8)"/>
<path d="M72 62h2v2h-2v-2z" fill="rgb(77,45,32)"/>
<path d="M80 62h4v6h-6v-2h2v-4z" fill="rgb(77,45,32)"/>
<path d="M86 62h4v2h-4v-2z" fill="rgb(83,101,144)"/>
<path d="M90 62h4v6h-2v-4h-2v-2z" fill="rgb(58,55,96)"/>
<path d="M94 62h4v2h-2v6h-2v-8z" fill="rgb(41,23,8)"/>
<path d="M118 62h2v2h2v4h-6v-2h2v-4z" fill="rgb(18,10,53)"/>
<path d="M120 62h6v2h-6v-2z" fill="rgb(41,23,8)"/>
<path d="M128 62h2v2h-2v-2z" fill="rgb(87,145,165)"/>
<path d="M130 62h4v2h4v12h-2v4h-2v-2h-2v-2h-2v-4h-2v-2h-2v-4h2v-2h2v-2z" fill="rgb(141,201,200)"/>
<path d="M66 64h2v2h-2v-2z" fill="rgb(83,101,144)"/>
<path d="M68 64h4v2h2v2h2v2h2v2h2v2h2v2h2v2h4v2h-4v2h-12v-2h-4v-4h-2v-8h2v-4z" fill="rgb(141,201,200)"/>
<path d="M72 64h2v2h-2v-2z" fill="rgb(41,23,8)"/>
<path d="M74 64h2v2h-2v-2z" fill="rgb(77,45,32)"/>
<path d="M86 64h4v2h2v4h-4v-2h-2v-4z" fill="rgb(87,145,165)"/>
<path d="M90 64h2v2h-2v-2z" fill="rgb(83,101,144)"/>
<path d="M96 64h2v6h-2v-6z" fill="rgb(121,84,57)"/>
<path d="M98 64h4v2h-4v-2z" fill="rgb(41,23,8)"/>
<path d="M122 64h2v2h-2v-2z" fill="rgb(58,55,96)"/>
<path d="M124 64h2v2h-2v-2z" fill="rgb(83,101,144)"/>
<path d="M126 64h2v2h-2v-2z" fill="rgb(87,145,165)"/>
<path d="M64 66h2v2h-2v-2z" fill="rgb(58,55,96)"/>
<path d="M66 66h2v2h-2v-2z" fill="rgb(87,145,165)"/>
<path d="M74 66h4v2h-4v-2z" fill="rgb(41,23,8)"/>
<path d="M98 66h2v2h2v4h-2v-2h-2v-4z" fill="rgb(152,107,74)"/>
<path d="M100 66h2v2h-2v-2z" fill="rgb(77,45,32)"/>
<path d="M102 66h6v2h-6v-2z" fill="rgb(41,23,8)"/>
<path d="M122 66h2v2h-2v-2z" fill="rgb(83,101,144)"/>
<path d="M124 66h2v4h-2v-4z" fill="rgb(87,145,165)"/>
<path d="M140 66h2v4h-2v-4z" fill="rgb(58,55,96)"/>
<path d="M6 68h10v2h-10v-2z" fill="rgb(77,45,32)"/>
<path d="M64 68h2v10h-2v-10z" fill="rgb(83,101,144)"/>
<path d="M76 68h2v2h-2v-2z" fill="rgb(83,101,144)"/>
<path d="M78 68h2v2h-2v-2z" fill="rgb(0,0,0)"/>
<path d="M86 68h2v2h-2v-2z" fill="rgb(83,101,144)"/>
<path d="M92 68h2v2h-2v-2z" fill="rgb(83,101,144)"/>
<path d="M102 68h2v2h2v2h-4v-4z" fill="rgb(121,84,57)"/>
<path d="M104 68h4v2h12v2h-2v4h-8v-2h-8v-2h4v-2h-2v-2z" fill="rgb(77,45,32)"/>
<path d="M108 68h14v4h-2v-2h-12v-2z" fill="rgb(41,23,8)"/>
<path d="M122 68h2v2h-2v-2z" fill="rgb(58,55,96)"/>
<path d="M4 70h2v10h-2v-10z" fill="rgb(77,45,32)"/>
<path d="M6 70h2v2h-2v-2z" fill="rgb(121,84,57)"/>
<path d="M8 70h6v2h4v2h-2v2h-2v-2h-4v-2h-2v-2z" fill="rgb(192,144,112)"/>
<path d="M14 70h2v2h-2v-2z" fill="rgb(152,107,74)"/>
<path d="M16 70h4v2h-4v-2z" fill="rgb(77,45,32)"/>
<path d="M78 70h2v2h-2v-2z" fill="rgb(46,46,46)"/>
<path d="M80 70h2v2h-2v-2z" fill="rgb(77,77,77)"/>
<path d="M82 70h2v4h-2v-4z" fill="rgb(148,133,123)"/>
<path d="M84 70h2v2h-2v-2z" fill="rgb(77,77,77)"/>
<path d="M86 70h10v2h-10v-2z" fill="rgb(46,46,46)"/>
<path d="M96 70h2v2h-2v-2z" fill="rgb(41,23,8)"/>
<path d="M98 70h2v2h-2v-2z" fill="rgb(77,45,32)"/>
<path d="M122 70h2v2h-2v-2z" fill="rgb(18,10,53)"/>
<path d="M124 70h2v2h-2v-2z" fill="rgb(58,55,96)"/>
<path d="M126 70h2v2h-2v-2z" fill="rgb(87,145,165)"/>
<path d="M140 70h2v10h-2v-10z" fill="rgb(18,10,53)"/>
<path d="M6 72h2v2h2v8h-2v4h-2v-14z" fill="rgb(192,144,112)"/>
<path d="M8 72h2v2h-2v-2z" fill="rgb(152,107,74)"/>
<path d="M18 72h2v2h-2v-2z" fill="rgb(121,84,57)"/>
<path d="M20 72h4v2h-4v-2z" fill="rgb(77,45,32)"/>
<path d="M24 72h4v2h-4v-2z" fill="rgb(41,23,8)"/>
<path d="M80 72h2v2h-2v-2z" fill="rgb(46,46,46)"/>
<path d="M84 72h2v2h-2v-2z" fill="rgb(235,231,227)"/>
<path d="M86 72h2v2h-2v-2z" fill="rgb(212,195,183)"/>
<path d="M88 72h2v2h-2v-2z" fill="rgb(148,133,123)"/>
<path d="M90 72h8v2h-2v2h-2v-2h-4v-2z" fill="rgb(77,77,77)"/>
<path d="M98 72h4v2h-4v-2z" fill="rgb(41,23,8)"/>
<path d="M118 72h2v4h-2v-4z" fill="rgb(41,23,8)"/>
<path d="M120 72h4v2h2v4h-2v4h-2v4h-2v4h-2v2h-2v-4h-2v-4h2v-2h2v-6h2v-4z" fill="rgb(255,255,255)"/>
<path d="M124 72h2v2h-2v-2z" fill="rgb(18,10,53)"/>
<path d="M126 72h2v2h-2v-2z" fill="rgb(83,101,144)"/>
<path d="M128 72h2v4h-2v-4z" fill="rgb(87,145,165)"/>
<path d="M10 74h2v2h2v2h-4v-4z" fill="rgb(121,84,57)"/>
<path d="M12 74h2v2h-2v-2z" fill="rgb(152,107,74)"/>
<path d="M16 74h2v4h-2v-4z" fill="rgb(121,84,57)"/>
<path d="M18 74h2v2h-2v-2z" fill="rgb(152,107,74)"/>
<path d="M20 74h6v2h6v2h4v2h4v2h4v2h-6v-2h-6v-2h-6v-2h-8v-2h2v-2z" fill="rgb(192,144,112)"/>
<path d="M26 74h2v2h-2v-2z" fill="rgb(152,107,74)"/>
<path d="M28 74h4v2h-4v-2z" fill="rgb(41,23,8)"/>
<path d="M82 74h2v2h-2v-2z" fill="rgb(46,46,46)"/>
<path d="M84 74h2v2h-2v-2z" fill="rgb(148,133,123)"/>
<path d="M86 74h2v2h-2v-2z" fill="rgb(235,231,227)"/>
<path d="M88 74h2v2h-2v-2z" fill="rgb(212,195,183)"/>
<path d="M90 74h4v2h-4v-2z" fill="rgb(148,133,123)"/>
<path d="M96 74h2v2h-2v-2z" fill="rgb(46,46,46)"/>
<path d="M98 74h2v2h6v2h-2v2h-4v-2h-2v-4z" fill="rgb(58,55,96)"/>
<path d="M100 74h2v2h-2v-2z" fill="rgb(18,10,53)"/>
<path d="M102 74h8v2h-8v-2z" fill="rgb(41,23,8)"/>
<path d="M126 74h2v4h-2v-4z" fill="rgb(18,10,53)"/>
<path d="M14 76h2v2h-2v-2z" fill="rgb(152,107,74)"/>
<path d="M32 76h2v2h-2v-2z" fill="rgb(77,45,32)"/>
<path d="M34 76h2v2h-2v-2z" fill="rgb(41,23,8)"/>
<path d="M66 76h2v2h-2v-2z" fill="rgb(87,145,165)"/>
<path d="M84 76h4v2h-4v-2z" fill="rgb(77,77,77)"/>
<path d="M88 76h8v2h-8v-2z" fill="rgb(46,46,46)"/>
<path d="M96 76h2v2h2v2h-2v2h-2v2h-6v-2h4v-2h2v-4z" fill="rgb(83,101,144)"/>
<path d="M106 76h4v2h-4v-2z" fill="rgb(18,10,53)"/>
<path d="M110 76h8v6h-2v-4h-6v-2z" fill="rgb(41,23,8)"/>
<path d="M128 76h2v2h-2v-2z" fill="rgb(83,101,144)"/>
<path d="M130 76h2v2h2v2h4v2h-2v4h-2v-4h-2v-2h-2v8h-2v4h4v2h-4v2h-2v-12h2v-6h2
	v-2z" fill="rgb(87,145,165)"/>
<path d="M136 76h2v4h-2v-4z" fill="rgb(83,101,144)"/>
<path d="M138 76h2v4h-2v-4z" fill="rgb(58,55,96)"/>
<path d="M10 78h4v2h-2v4h-2v-6z" fill="rgb(77,45,32)"/>
<path d="M14 78h2v2h-2v-2z" fill="rgb(121,84,57)"/>
<path d="M16 78h6v2h-6v-2z" fill="rgb(77,45,32)"/>
<path d="M22 78h2v2h-2v-2z" fill="rgb(121,84,57)"/>
<path d="M24 78h2v2h-2v-2z" fill="rgb(152,107,74)"/>
<path d="M36 78h4v2h-4v-2z" fill="rgb(77,45,32)"/>
<path d="M40 78h2v2h-2v-2z" fill="rgb(41,23,8)"/>
<path d="M64 78h2v2h-2v-2z" fill="rgb(58,55,96)"/>
<path d="M66 78h2v2h-2v-2z" fill="rgb(83,101,144)"/>
<path d="M88 78h8v2h-2v2h-4v2h-4v2h-10v-2h-4v-2h12v-2h4v-2z" fill="rgb(87,145,165)"/>
<path d="M104 78h2v2h-2v-2z" fill="rgb(18,10,53)"/>
<path d="M106 78h4v2h-4v-2z" fill="rgb(41,23,8)"/>
<path d="M110 78h2v2h-2v-2z" fill="rgb(121,84,57)"/>
<path d="M112 78h4v4h-2v-2h-2v-2z" fill="rgb(77,45,32)"/>
<path d="M124 78h2v2h-2v-2z" fill="rgb(18,10,53)"/>
<path d="M126 78h2v2h-2v-2z" fill="rgb(58,55,96)"/>
<path d="M2 80h2v8h-2v-8z" fill="rgb(77,45,32)"/>
<path d="M4 80h2v2h-2v-2z" fill="rgb(121,84,57)"/>
<path d="M12 80h2v2h-2v-2z" fill="rgb(121,84,57)"/>
<path d="M14 80h6v2h-6v-2z" fill="rgb(152,107,74)"/>
<path d="M20 80h2v2h-2v-2z" fill="rgb(121,84,57)"/>
<path d="M22 80h6v2h-6v-2z" fill="rgb(77,45,32)"/>
<path d="M28 80h2v2h-2v-2z" fill="rgb(121,84,57)"/>
<path d="M30 80h2v2h-2v-2z" fill="rgb(152,107,74)"/>
<path d="M40 80h2v2h-2v-2z" fill="rgb(152,107,74)"/>
<path d="M42 80h4v2h-4v-2z" fill="rgb(77,45,32)"/>
<path d="M46 80h2v2h-2v-2z" fill="rgb(41,23,8)"/>
<path d="M66 80h2v2h-2v-2z" fill="rgb(58,55,96)"/>
<path d="M68 80h2v2h-2v-2z" fill="rgb(83,101,144)"/>
<path d="M70 80h2v2h-2v-2z" fill="rgb(87,145,165)"/>
<path d="M98 80h2v2h-2v-2z" fill="rgb(58,55,96)"/>
<path d="M100 80h6v2h-6v-2z" fill="rgb(41,23,8)"/>
<path d="M106 80h2v2h-2v-2z" fill="rgb(77,45,32)"/>
<path d="M108 80h4v2h-2v2h-2v-4z" fill="rgb(152,107,74)"/>
<path d="M112 80h2v2h-2v-2z" fill="rgb(121,84,57)"/>
<path d="M124 80h2v4h-2v-4z" fill="rgb(58,55,96)"/>
<path d="M126 80h2v4h-2v-4z" fill="rgb(83,101,144)"/>
<path d="M130 80h2v2h2v8h-2v2h-4v-4h2v-8z" fill="rgb(141,201,200)"/>
<path d="M138 80h2v2h-2v-2z" fill="rgb(83,101,144)"/>
<path d="M140 80h2v2h-2v-2z" fill="rgb(58,55,96)"/>
<path d="M142 80h2v2h-2v-2z" fill="rgb(18,10,53)"/>
<path d="M4 82h2v4h2v4h-2v2h-2v-10z" fill="rgb(152,107,74)"/>
<path d="M8 82h2v4h-2v-4z" fill="rgb(152,107,74)"/>
<path d="M12 82h10v2h4v2h-2v2h-10v-2h-2v-4z" fill="rgb(192,144,112)"/>
<path d="M22 82h4v2h-4v-2z" fill="rgb(152,107,74)"/>
<path d="M26 82h2v6h-2v-6z" fill="rgb(121,84,57)"/>
<path d="M28 82h8v2h-8v-2z" fill="rgb(77,45,32)"/>
<path d="M36 82h2v2h-2v-2z" fill="rgb(152,107,74)"/>
<path d="M44 82h4v2h2v2h-4v-2h-2v-2z" fill="rgb(121,84,57)"/>
<path d="M48 82h2v2h-2v-2z" fill="rgb(77,45,32)"/>
<path d="M50 82h4v2h-4v-2z" fill="rgb(41,23,8)"/>
<path d="M58 82h6v2h-6v-2z" fill="rgb(58,55,96)"/>
<path d="M64 82h2v2h-2v-2z" fill="rgb(18,10,53)"/>
<path d="M66 82h2v2h2v2h-6v-2h2v-2z" fill="rgb(83,101,144)"/>
<path d="M68 82h2v2h-2v-2z" fill="rgb(58,55,96)"/>
<path d="M70 82h2v2h-2v-2z" fill="rgb(83,101,144)"/>
<path d="M96 82h2v2h-2v-2z" fill="rgb(58,55,96)"/>
<path d="M98 82h2v2h-2v-2z" fill="rgb(41,23,8)"/>
<path d="M100 82h2v2h-2v-2z" fill="rgb(77,45,32)"/>
<path d="M102 82h2v2h-2v-2z" fill="rgb(152,107,74)"/>
<path d="M104 82h2v2h-2v-2z" fill="rgb(192,144,112)"/>
<path d="M106 82h2v2h-2v-2z" fill="rgb(121,84,57)"/>
<path d="M110 82h2v2h-2v-2z" fill="rgb(121,84,57)"/>
<path d="M112 82h2v2h-2v-2z" fill="rgb(77,45,32)"/>
<path d="M114 82h2v2h-2v-2z" fill="rgb(41,23,8)"/>
<path d="M122 82h2v4h-2v-4z" fill="rgb(18,10,53)"/>
<path d="M136 82h4v4h-2v2h-2v-6z" fill="rgb(141,201,200)"/>
<path d="M140 82h2v4h-2v-4z" fill="rgb(18,10,53)"/>
<path d="M142 82h2v2h-2v-2z" fill="rgb(58,55,96)"/>
<path d="M144 82h2v8h-2v-8z" fill="rgb(18,10,53)"/>
<path d="M10 84h2v2h-2v-2z" fill="rgb(121,84,57)"/>
<path d="M28 84h2v2h6v2h6v2h-16v-2h2v-4z" fill="rgb(192,144,112)"/>
<path d="M30 84h2v2h-2v-2z" fill="rgb(152,107,74)"/>
<path d="M32 84h4v2h-4v-2z" fill="rgb(121,84,57)"/>
<path d="M36 84h6v2h-6v-2z" fill="rgb(77,45,32)"/>
<path d="M42 84h2v2h-2v-2z" fill="rgb(121,84,57)"/>
<path d="M44 84h2v2h-2v-2z" fill="rgb(152,107,74)"/>
<path d="M50 84h4v2h2v2h-4v-2h-2v-2z" fill="rgb(77,45,32)"/>
<path d="M54 84h2v2h-2v-2z" fill="rgb(41,23,8)"/>
<path d="M56 84h2v4h-2v-4z" fill="rgb(58,55,96)"/>
<path d="M58 84h6v2h-4v2h-2v-4z" fill="rgb(87,145,165)"/>
<path d="M70 84h2v2h2v2h-4v-4z" fill="rgb(58,55,96)"/>
<path d="M72 84h4v2h-4v-2z" fill="rgb(83,101,144)"/>
<path d="M86 84h4v2h-4v-2z" fill="rgb(83,101,144)"/>
<path d="M90 84h2v2h-2v-2z" fill="rgb(58,55,96)"/>
<path d="M92 84h6v2h-6v-2z" fill="rgb(41,23,8)"/>
<path d="M98 84h2v2h-2v-2z" fill="rgb(77,45,32)"/>
<path d="M100 84h2v2h-2v-2z" fill="rgb(152,107,74)"/>
<path d="M102 84h2v2h-2v-2z" fill="rgb(192,144,112)"/>
<path d="M104 84h2v2h-2v-2z" fill="rgb(152,107,74)"/>
<path d="M106 84h2v2h-2v-2z" fill="rgb(77,45,32)"/>
<path d="M108 84h6v2h-6v-2z" fill="rgb(41,23,8)"/>
<path d="M124 84h2v4h-2v-4z" fill="rgb(83,101,144)"/>
<path d="M142 84h2v4h-2v-4z" fill="rgb(83,101,144)"/>
<path d="M8 86h2v4h-2v-4z" fill="rgb(121,84,57)"/>
<path d="M10 86h4v2h10v4h-2v-2h-2v2h-6v-2h-4v-4z" fill="rgb(152,107,74)"/>
<path d="M24 86h2v2h-2v-2z" fill="rgb(152,107,74)"/>
<path d="M36 86h4v2h-4v-2z" fill="rgb(152,107,74)"/>
<path d="M40 86h2v2h-2v-2z" fill="rgb(121,84,57)"/>
<path d="M42 86h8v2h-8v-2z" fill="rgb(77,45,32)"/>
<path d="M50 86h2v2h-2v-2z" fill="rgb(41,23,8)"/>
<path d="M60 86h4v2h4v2h2v2h-6v-2h-2v-2h-2v-2z" fill="rgb(141,201,200)"/>
<path d="M64 86h4v2h-4v-2z" fill="rgb(58,55,96)"/>
<path d="M68 86h2v2h-2v-2z" fill="rgb(18,10,53)"/>
<path d="M74 86h4v2h-4v-2z" fill="rgb(18,10,53)"/>
<path d="M78 86h14v2h-14v-2z" fill="rgb(41,23,8)"/>
<path d="M92 86h2v2h-2v-2z" fill="rgb(77,45,32)"/>
<path d="M94 86h2v2h-2v-2z" fill="rgb(152,107,74)"/>
<path d="M96 86h2v2h-2v-2z" fill="rgb(192,144,112)"/>
<path d="M98 86h2v2h-2v-2z" fill="rgb(121,84,57)"/>
<path d="M100 86h4v2h-4v-2z" fill="rgb(77,45,32)"/>
<path d="M104 86h4v2h-4v-2z" fill="rgb(41,23,8)"/>
<path d="M108 86h2v2h-2v-2z" fill="rgb(31,41,11)"/>
<path d="M110 86h2v4h-2v-4z" fill="rgb(45,84,0)"/>
<path d="M112 86h2v2h2v14h-2v-12h-2v-4z" fill="rgb(31,41,11)"/>
<path d="M120 86h2v4h-2v-4z" fill="rgb(18,10,53)"/>
<path d="M122 86h2v2h-2v-2z" fill="rgb(58,55,96)"/>
<path d="M134 86h2v8h-2v-8z" fill="rgb(58,55,96)"/>
<path d="M138 86h2v2h-2v-2z" fill="rgb(87,145,165)"/>
<path d="M140 86h2v2h2v2h-2v2h-2v-6z" fill="rgb(58,55,96)"/>
<path d="M0 88h2v6h2v2h-2v2h-2v-10z" fill="rgb(77,45,32)"/>
<path d="M2 88h2v6h-2v-6z" fill="rgb(121,84,57)"/>
<path d="M24 88h2v4h10v2h-18v-2h2v-2h2v2h2v-4z" fill="rgb(121,84,57)"/>
<path d="M42 88h4v2h-4v-2z" fill="rgb(152,107,74)"/>
<path d="M46 88h4v2h4v2h4v2h-8v-2h-2v-2h-2v-2z" fill="rgb(121,84,57)"/>
<path d="M50 88h2v2h-2v-2z" fill="rgb(77,45,32)"/>
<path d="M52 88h6v2h-6v-2z" fill="rgb(41,23,8)"/>
<path d="M58 88h2v2h-2v-2z" fill="rgb(58,55,96)"/>
<path d="M60 88h2v2h-2v-2z" fill="rgb(83,101,144)"/>
<path d="M68 88h2v2h-2v-2z" fill="rgb(87,145,165)"/>
<path d="M70 88h4v2h-2v2h-2v-4z" fill="rgb(18,10,53)"/>
<path d="M74 88h2v4h-2v-4z" fill="rgb(31,41,11)"/>
<path d="M76 88h2v2h-2v-2z" fill="rgb(41,23,8)"/>
<path d="M78 88h2v2h-2v-2z" fill="rgb(77,45,32)"/>
<path d="M80 88h2v2h-2v-2z" fill="rgb(121,84,57)"/>
<path d="M82 88h2v2h-2v-2z" fill="rgb(152,107,74)"/>
<path d="M84 88h2v2h-2v-2z" fill="rgb(192,144,112)"/>
<path d="M86 88h2v2h-2v-2z" fill="rgb(77,45,32)"/>
<path d="M88 88h2v2h-2v-2z" fill="rgb(152,107,74)"/>
<path d="M90 88h2v2h-2v-2z" fill="rgb(192,144,112)"/>
<path d="M92 88h2v2h-2v-2z" fill="rgb(121,84,57)"/>
<path d="M94 88h4v2h-4v-2z" fill="rgb(77,45,32)"/>
<path d="M98 88h4v2h-4v-2z" fill="rgb(41,23,8)"/>
<path d="M102 88h2v2h-2v-2z" fill="rgb(31,41,11)"/>
<path d="M104 88h2v2h4v2h-14v-2h8v-2z" fill="rgb(45,84,0)"/>
<path d="M106 88h4v2h-4v-2z" fill="rgb(64,109,2)"/>
<path d="M122 88h2v4h-2v4h-4v-4h2v-2h2v-2z" fill="rgb(83,101,144)"/>
<path d="M124 88h2v2h-2v-2z" fill="rgb(58,55,96)"/>
<path d="M136 88h2v6h-2v-6z" fill="rgb(87,145,165)"/>
<path d="M138 88h2v4h-2v-4z" fill="rgb(18,10,53)"/>
<path d="M6 90h4v2h-4v-2z" fill="rgb(77,45,32)"/>
<path d="M10 90h4v2h-4v-2z" fill="rgb(121,84,57)"/>
<path d="M26 90h16v2h-2v2h-4v-2h-10v-2z" fill="rgb(152,107,74)"/>
<path d="M42 90h4v2h-4v-2z" fill="rgb(192,144,112)"/>
<path d="M46 90h2v2h2v2h-6v-2h2v-2z" fill="rgb(152,107,74)"/>
<path d="M54 90h4v2h-4v-2z" fill="rgb(77,45,32)"/>
<path d="M58 90h2v2h-2v-2z" fill="rgb(41,23,8)"/>
<path d="M60 90h2v2h-2v-2z" fill="rgb(58,55,96)"/>
<path d="M62 90h2v2h-2v-2z" fill="rgb(83,101,144)"/>
<path d="M72 90h2v2h-2v-2z" fill="rgb(83,101,144)"/>
<path d="M76 90h2v2h2v2h-4v2h-2v-4h2v-2z" fill="rgb(45,84,0)"/>
<path d="M78 90h16v2h-16v-2z" fill="rgb(41,23,8)"/>
<path d="M94 90h2v2h-2v-2z" fill="rgb(31,41,11)"/>
<path d="M110 90h2v2h2v6h-2v-4h-2v-4z" fill="rgb(64,109,2)"/>
<path d="M112 90h2v2h-2v-2z" fill="rgb(45,84,0)"/>
<path d="M118 90h2v2h-2v-2z" fill="rgb(18,10,53)"/>
<path d="M124 90h2v14h-2v-2h-2v-2h2v-10z" fill="rgb(18,10,53)"/>
<path d="M132 90h2v2h-2v-2z" fill="rgb(87,145,165)"/>
<path d="M142 90h2v4h-2v2h-2v-4h2v-2z" fill="rgb(18,10,53)"/>
<path d="M144 90h2v36h-34v-2h4v-2h2v-2h4v-2h2v-2h2v-4h-2v-6h-2v-2h-2v-4h2v2h2v2
	h2v2h2v2h4v-4h2v-4h4v-2h2v-2h2v-2h2v-4z" fill="rgb(255,255,255)"/>
<path d="M4 92h2v2h-2v-2z" fill="rgb(77,45,32)"/>
<path d="M6 92h2v4h-2v2h-4v-2h2v-2h2v-2z" fill="rgb(121,84,57)"/>
<path d="M8 92h2v4h-2v-4z" fill="rgb(41,23,8)"/>
<path d="M10 92h8v2h-8v-2z" fill="rgb(77,45,32)"/>
<path d="M40 92h4v2h-4v-2z" fill="rgb(121,84,57)"/>
<path d="M58 92h2v2h-2v-2z" fill="rgb(77,45,32)"/>
<path d="M60 92h2v2h-2v-2z" fill="rgb(41,23,8)"/>
<path d="M62 92h6v2h-6v-2z" fill="rgb(58,55,96)"/>
<path d="M68 92h2v6h-2v-6z" fill="rgb(18,10,53)"/>
<path d="M70 92h2v2h-2v-2z" fill="rgb(83,101,144)"/>
<path d="M72 92h2v6h-2v-6z" fill="rgb(31,41,11)"/>
<path d="M80 92h10v2h-10v-2z" fill="rgb(64,109,2)"/>
<path d="M90 92h6v2h-6v-2z" fill="rgb(45,84,0)"/>
<path d="M96 92h14v8h-2v-6h-12v-2z" fill="rgb(31,41,11)"/>
<path d="M116 92h2v4h-2v-4z" fill="rgb(18,10,53)"/>
<path d="M122 92h2v4h-2v-4z" fill="rgb(58,55,96)"/>
<path d="M132 92h2v4h-2v-4z" fill="rgb(83,101,144)"/>
<path d="M138 92h2v2h-2v-2z" fill="rgb(83,101,144)"/>
<path d="M10 94h8v4h-10v-2h2v-2z" fill="rgb(121,84,57)"/>
<path d="M18 94h10v2h-2v2h-2v2h-16v-2h10v-4z" fill="rgb(77,45,32)"/>
<path d="M28 94h12v2h-12v-2z" fill="rgb(41,23,8)"/>
<path d="M40 94h4v2h-4v-2z" fill="rgb(77,45,32)"/>
<path d="M44 94h6v2h-6v-2z" fill="rgb(121,84,57)"/>
<path d="M50 94h8v2h-8v-2z" fill="rgb(77,45,32)"/>
<path d="M58 94h2v4h-2v2h-2v-2h-16v-2h18v-2z" fill="rgb(41,23,8)"/>
<path d="M60 94h2v2h-2v-2z" fill="rgb(18,10,53)"/>
<path d="M62 94h6v2h-6v-2z" fill="rgb(87,145,165)"/>
<path d="M70 94h2v6h-2v-6z" fill="rgb(87,145,165)"/>
<path d="M76 94h20v2h-20v-2z" fill="rgb(31,41,11)"/>
<path d="M96 94h2v2h-2v-2z" fill="rgb(58,55,96)"/>
<path d="M98 94h6v2h-4v2h-2v2h-2v-4h2v-2z" fill="rgb(18,10,53)"/>
<path d="M104 94h4v6h-2v-2h-6v-2h4v-2z" fill="rgb(58,55,96)"/>
<path d="M110 94h2v4h2v4h-2v-2h-2v-6z" fill="rgb(45,84,0)"/>
<path d="M128 94h4v4h-2v4h-4v-6h2v-2z" fill="rgb(141,201,200)"/>
<path d="M134 94h2v4h2v2h-4v4h-2v-6h2v-4z" fill="rgb(18,10,53)"/>
<path d="M136 94h2v2h-2v-2z" fill="rgb(83,101,144)"/>
<path d="M138 94h2v2h-2v-2z" fill="rgb(58,55,96)"/>
<path d="M6 96h2v2h-2v-2z" fill="rgb(77,45,32)"/>
<path d="M26 96h2v2h-2v-2z" fill="rgb(41,23,8)"/>
<path d="M28 96h12v2h-2v2h-12v-2h2v-2z" fill="rgb(77,45,32)"/>
<path d="M60 96h2v2h-2v-2z" fill="rgb(58,55,96)"/>
<path d="M62 96h4v2h-2v2h-2v-4z" fill="rgb(141,201,200)"/>
<path d="M66 96h2v2h-2v-2z" fill="rgb(83,101,144)"/>
<path d="M74 96h2v2h-2v-2z" fill="rgb(18,10,53)"/>
<path d="M76 96h2v2h-2v-2z" fill="rgb(87,145,165)"/>
<path d="M78 96h4v2h2v4h-2v2h-4v2h-2v-2h-2v-4h2v-2h2v-2z" fill="rgb(141,201,200)"/>
<path d="M82 96h6v4h-2v2h-2v-4h-2v-2z" fill="rgb(87,145,165)"/>
<path d="M88 96h4v4h-2v2h-4v-2h2v-4z" fill="rgb(83,101,144)"/>
<path d="M92 96h4v4h-2v2h-4v-2h2v-4z" fill="rgb(58,55,96)"/>
<path d="M116 96h2v2h-2v-2z" fill="rgb(255,255,255)"/>
<path d="M118 96h2v2h-2v-2z" fill="rgb(18,10,53)"/>
<path d="M120 96h2v2h-2v-2z" fill="rgb(58,55,96)"/>
<path d="M122 96h2v2h-2v-2z" fill="rgb(83,101,144)"/>
<path d="M132 96h2v2h-2v-2z" fill="rgb(58,55,96)"/>
<path d="M136 96h2v2h-2v-2z" fill="rgb(58,55,96)"/>
<path d="M138 96h2v2h-2v-2z" fill="rgb(18,10,53)"/>
<path d="M0 98h2v2h2v2h52v-2h2v4h8v-2h2v2h4v2h2v2h2v6h-10v-2h-4v2h-2v10h10v2
	h-70v-28z" fill="rgb(255,255,255)"/>
<path d="M2 98h2v2h-2v-2z" fill="rgb(41,23,8)"/>
<path d="M4 98h2v2h-2v-2z" fill="rgb(77,45,32)"/>
<path d="M6 98h2v2h16v-2h2v2h12v-2h2v2h16v2h-52v-2h2v-2z" fill="rgb(41,23,8)"/>
<path d="M40 98h16v2h-16v-2z" fill="rgb(77,45,32)"/>
<path d="M58 98h2v4h6v2h-8v-6z" fill="rgb(18,10,53)"/>
<path d="M60 98h2v2h2v2h-4v-4z" fill="rgb(87,145,165)"/>
<path d="M64 98h2v2h-2v-2z" fill="rgb(87,145,165)"/>
<path d="M66 98h2v2h2v2h2v2h-4v-2h-2v-4z" fill="rgb(18,10,53)"/>
<path d="M68 98h2v2h-2v-2z" fill="rgb(83,101,144)"/>
<path d="M72 98h2v2h-2v-2z" fill="rgb(18,10,53)"/>
<path d="M74 98h2v2h-2v-2z" fill="rgb(83,101,144)"/>
<path d="M98 98h2v2h-2v-2z" fill="rgb(58,55,96)"/>
<path d="M100 98h2v2h2v4h-4v-6z" fill="rgb(87,145,165)"/>
<path d="M102 98h4v2h2v2h-2v2h-2v-4h-2v-2z" fill="rgb(83,101,144)"/>
<path d="M116 98h2v2h-2v-2z" fill="rgb(41,23,8)"/>
<path d="M118 98h2v2h-2v-2z" fill="rgb(255,255,255)"/>
<path d="M120 98h2v2h-2v-2z" fill="rgb(18,10,53)"/>
<path d="M122 98h2v2h-2v-2z" fill="rgb(58,55,96)"/>
<path d="M130 98h2v2h-2v-2z" fill="rgb(83,101,144)"/>
<path d="M64 100h2v2h-2v-2z" fill="rgb(58,55,96)"/>
<path d="M70 100h2v2h-2v-2z" fill="rgb(83,101,144)"/>
<path d="M72 100h2v4h-2v-4z" fill="rgb(58,55,96)"/>
<path d="M94 100h2v2h2v2h2v4h-2v-2h-2v-2h-2v-4z" fill="rgb(18,10,53)"/>
<path d="M96 100h2v2h-2v-2z" fill="rgb(58,55,96)"/>
<path d="M98 100h2v4h-2v-4z" fill="rgb(83,101,144)"/>
<path d="M108 100h2v2h-2v-2z" fill="rgb(58,55,96)"/>
<path d="M110 100h2v2h-2v-2z" fill="rgb(31,41,11)"/>
<path d="M116 100h2v4h-4v-2h2v-2z" fill="rgb(77,45,32)"/>
<path d="M118 100h2v4h-2v-4z" fill="rgb(41,23,8)"/>
<path d="M130 100h2v6h-4v-2h2v-4z" fill="rgb(58,55,96)"/>
<path d="M82 102h2v2h-2v-2z" fill="rgb(87,145,165)"/>
<path d="M84 102h2v2h-2v-2z" fill="rgb(83,101,144)"/>
<path d="M86 102h8v6h-2v-4h-6v-2z" fill="rgb(41,23,8)"/>
<path d="M106 102h2v2h-2v-2z" fill="rgb(58,55,96)"/>
<path d="M108 102h2v2h-2v-2z" fill="rgb(41,23,8)"/>
<path d="M110 102h2v2h-2v-2z" fill="rgb(77,45,32)"/>
<path d="M112 102h2v2h-2v-2z" fill="rgb(31,41,11)"/>
<path d="M126 102h4v2h-4v-2z" fill="rgb(83,101,144)"/>
<path d="M72 104h2v2h-2v-2z" fill="rgb(18,10,53)"/>
<path d="M74 104h2v2h-2v-2z" fill="rgb(83,101,144)"/>
<path d="M78 104h2v2h-2v-2z" fill="rgb(83,101,144)"/>
<path d="M80 104h6v2h-6v-2z" fill="rgb(41,23,8)"/>
<path d="M86 104h2v4h-4v2h-2v-4h4v-2z" fill="rgb(152,107,74)"/>
<path d="M88 104h2v2h-2v-2z" fill="rgb(121,84,57)"/>
<path d="M90 104h2v4h-4v-2h2v-2z" fill="rgb(77,45,32)"/>
<path d="M94 104h2v2h2v2h6v4h2v4h-4v2h-2v-2h-4v2h-2v-14z" fill="rgb(255,255,255)"/>
<path d="M100 104h4v2h-4v-2z" fill="rgb(58,55,96)"/>
<path d="M104 104h2v2h-2v-2z" fill="rgb(41,23,8)"/>
<path d="M106 104h2v2h-2v-2z" fill="rgb(77,45,32)"/>
<path d="M108 104h4v2h-2v2h-4v-2h2v-2z" fill="rgb(121,84,57)"/>
<path d="M112 104h2v2h-2v-2z" fill="rgb(77,45,32)"/>
<path d="M114 104h4v2h-2v2h-2v2h-6v-2h4v-2h2v-2z" fill="rgb(41,23,8)"/>
<path d="M118 104h2v4h2v2h-8v-2h2v-2h2v-2z" fill="rgb(58,55,96)"/>
<path d="M120 104h2v2h2v2h-4v-4z" fill="rgb(18,10,53)"/>
<path d="M126 104h2v2h-2v-2z" fill="rgb(18,10,53)"/>
<path d="M74 106h2v2h-2v-2z" fill="rgb(18,10,53)"/>
<path d="M76 106h4v2h-2v2h8v2h-2v2h-2v-2h-4v4h-2v-10z" fill="rgb(41,23,8)"/>
<path d="M80 106h2v2h-2v-2z" fill="rgb(77,45,32)"/>
<path d="M100 106h4v2h-4v-2z" fill="rgb(41,23,8)"/>
<path d="M104 106h2v2h-2v-2z" fill="rgb(77,45,32)"/>
<path d="M110 106h2v2h-2v-2z" fill="rgb(77,45,32)"/>
<path d="M128 106h4v2h-4v-2z" fill="rgb(18,10,53)"/>
<path d="M78 108h2v2h-2v-2z" fill="rgb(77,45,32)"/>
<path d="M80 108h2v2h-2v-2z" fill="rgb(121,84,57)"/>
<path d="M84 108h2v2h-2v-2z" fill="rgb(77,45,32)"/>
<path d="M86 108h6v2h-6v-2z" fill="rgb(41,23,8)"/>
<path d="M92 108h2v8h-2v-8z" fill="rgb(18,10,53)"/>
<path d="M104 108h2v2h2v6h-2v-4h-2v-4z" fill="rgb(41,23,8)"/>
<path d="M106 108h2v2h-2v-2z" fill="rgb(77,45,32)"/>
<path d="M122 108h2v4h-2v2h-4v-2h-2v-2h6v-2z" fill="rgb(41,23,8)"/>
<path d="M86 110h6v6h-4v-4h-2v-2z" fill="rgb(58,55,96)"/>
<path d="M108 110h2v2h2v2h-4v-4z" fill="rgb(77,45,32)"/>
<path d="M110 110h2v2h-2v-2z" fill="rgb(121,84,57)"/>
<path d="M112 110h4v2h-4v-2z" fill="rgb(77,45,32)"/>
<path d="M62 112h4v2h-4v-2z" fill="rgb(58,55,96)"/>
<path d="M78 112h2v2h-2v-2z" fill="rgb(121,84,57)"/>
<path d="M80 112h2v2h-2v-2z" fill="rgb(77,45,32)"/>
<path d="M84 112h4v2h-4v-2z" fill="rgb(83,101,144)"/>
<path d="M112 112h4v2h-4v-2z" fill="rgb(121,84,57)"/>
<path d="M116 112h2v2h-2v-2z" fill="rgb(77,45,32)"/>
<path d="M122 112h2v4h-2v2h-4v2h-2v2h-4v-2h-2v-2h6v-2h2v-2h4v-2z" fill="rgb(77,45,32)"/>
<path d="M124 112h2v4h-2v-4z" fill="rgb(41,23,8)"/>
<path d="M60 114h2v4h-2v-4z" fill="rgb(58,55,96)"/>
<path d="M62 114h4v2h2v2h-6v-4z" fill="rgb(141,201,200)"/>
<path d="M66 114h6v2h-6v-2z" fill="rgb(58,55,96)"/>
<path d="M72 114h4v2h-4v-2z" fill="rgb(18,10,53)"/>
<path d="M78 114h2v2h-2v-2z" fill="rgb(77,45,32)"/>
<path d="M80 114h4v2h2v2h-4v-2h-2v-2z" fill="rgb(152,107,74)"/>
<path d="M84 114h4v2h-4v-2z" fill="rgb(41,23,8)"/>
<path d="M108 114h2v6h-6v-2h2v-2h2v-2z" fill="rgb(58,55,96)"/>
<path d="M110 114h2v2h4v2h-6v-4z" fill="rgb(41,23,8)"/>
<path d="M112 114h4v2h-4v-2z" fill="rgb(77,45,32)"/>
<path d="M116 114h2v2h-2v-2z" fill="rgb(41,23,8)"/>
<path d="M68 116h6v2h-6v-2z" fill="rgb(87,145,165)"/>
<path d="M74 116h4v2h-2v2h-4v-2h2v-2z" fill="rgb(83,101,144)"/>
<path d="M78 116h2v2h-2v-2z" fill="rgb(41,23,8)"/>
<path d="M80 116h2v2h-2v-2z" fill="rgb(77,45,32)"/>
<path d="M86 116h2v2h-2v-2z" fill="rgb(77,45,32)"/>
<path d="M88 116h6v10h-24v-2h22v-6h-4v-2z" fill="rgb(41,23,8)"/>
<path d="M96 116h4v2h-4v-2z" fill="rgb(58,55,96)"/>
<path d="M102 116h2v2h-2v-2z" fill="rgb(58,55,96)"/>
<path d="M104 116h2v2h-2v-2z" fill="rgb(18,10,53)"/>
<path d="M122 116h2v2h-2v-2z" fill="rgb(41,23,8)"/>
<path d="M60 118h10v2h-10v-2z" fill="rgb(18,10,53)"/>
<path d="M70 118h2v2h-2v-2z" fill="rgb(77,45,32)"/>
<path d="M76 118h4v2h-4v-2z" fill="rgb(58,55,96)"/>
<path d="M80 118h4v2h-4v-2z" fill="rgb(41,23,8)"/>
<path d="M84 118h4v2h-4v-2z" fill="rgb(121,84,57)"/>
<path d="M88 118h4v6h-10v-2h4v-2h2v-2z" fill="rgb(77,45,32)"/>
<path d="M94 118h2v4h-2v-4z" fill="rgb(58,55,96)"/>
<path d="M96 118h4v2h2v2h-6v-4z" fill="rgb(87,145,165)"/>
<path d="M100 118h2v2h-2v-2z" fill="rgb(58,55,96)"/>
<path d="M102 118h2v2h-2v-2z" fill="rgb(83,101,144)"/>
<path d="M118 118h4v2h-4v-2z" fill="rgb(41,23,8)"/>
<path d="M60 120h2v2h8v2h-10v-4z" fill="rgb(41,23,8)"/>
<path d="M62 120h4v2h-4v-2z" fill="rgb(77,45,32)"/>
<path d="M66 120h2v2h-2v-2z" fill="rgb(121,84,57)"/>
<path d="M68 120h4v2h-4v-2z" fill="rgb(152,107,74)"/>
<path d="M72 120h2v2h-2v-2z" fill="rgb(77,45,32)"/>
<path d="M74 120h10v2h-10v-2z" fill="rgb(18,10,53)"/>
<path d="M84 120h2v2h-2v-2z" fill="rgb(41,23,8)"/>
<path d="M102 120h6v2h-6v-2z" fill="rgb(18,10,53)"/>
<path d="M108 120h2v2h-2v-2z" fill="rgb(77,45,32)"/>
<path d="M110 120h2v2h-2v-2z" fill="rgb(121,84,57)"/>
<path d="M116 120h2v2h-2v-2z" fill="rgb(41,23,8)"/>
<path d="M70 122h4v2h-4v-2z" fill="rgb(121,84,57)"/>
<path d="M74 122h6v2h-6v-2z" fill="rgb(152,107,74)"/>
<path d="M80 122h2v2h-2v-2z" fill="rgb(121,84,57)"/>
<path d="M94 122h8v2h-6v2h-2v-4z" fill="rgb(18,10,53)"/>
<path d="M102 122h2v4h-6v-2h4v-2z" fill="rgb(77,45,32)"/>
<path d="M104 122h6v2h-6v-2z" fill="rgb(121,84,57)"/>
<path d="M110 122h2v2h-2v-2z" fill="rgb(77,45,32)"/>
<path d="M112 122h4v2h-4v-2z" fill="rgb(41,23,8)"/>
<path d="M96 124h2v2h-2v-2z" fill="rgb(41,23,8)"/>
<path d="M104 124h8v2h-8v-2z" fill="rgb(41,23,8)"/>
</svg>