<?xml version="1.0" encoding="utf-8"?>
<!-- generated at drububu.com  -->
<!DOCTYPE svg PUBLIC "-//W3C//DTD SVG 1.1//EN" "http://www.w3.org/Graphics/SVG/1.1/DTD/svg11.dtd">
<svg version="1.1" preserveAspectRatio="xMinYMin meet" xmlns="http://www.w3.org/2000/svg" xmlns:xlink="http://www.w3.org/1999/xlink" x="0px" y="0px" width="114px" height="152px" viewBox="0 0 114 152">
<path d="M0 0h56v2h-2v2h-2v2h-2v-2h-4v-2h-4v2h-2v2h-2v4h-2v8h2v2h2v-2h2v-2h4v4
	h-2v4h-2v4h-2v2h-2v2h-2v2h-2v2h-2v2h-2v2h-2v2h-2v2h-4v-6h-4v6h2v2h2v6h-4v-4h-4
	v-6h-4v4h2v4h2v2h2v4h2v8h-2v-4h-2v-2h-2v-2h-6v-2h-6v-54z" fill="rgb(255,255,255)"/>
<path d="M56 0h2v2h-2v-2z" fill="rgb(84,11,53)"/>
<path d="M58 0h56v60h-4v2h-2v-2h-8v2h-2v-4h2v-2h2v-8h-2v-4h2v-6h-6v6h2v6h2v2h-2
	v2h-4v-6h-2v-2h2v-8h-4v4h2v2h-4v-2h-2v-2h-2v-2h-2v-2h-2v-2h-2v-2h-2v-2h-2v-2
	h-2v-4h-2v-4h-2v-4h4v2h2v2h2v-2h2v-8h-2v-4h-2v-2h-2v-2h-4v2h-4v2h-2v-2h-2v-2h-2
	v-2z" fill="rgb(255,255,255)"/>
<path d="M42 2h4v2h-4v-2z" fill="rgb(84,11,53)"/>
<path d="M54 2h2v2h-2v-2z" fill="rgb(84,11,53)"/>
<path d="M56 2h2v4h-2v-4z" fill="rgb(235,170,222)"/>
<path d="M58 2h2v2h-2v-2z" fill="rgb(84,11,53)"/>
<path d="M68 2h4v2h-4v-2z" fill="rgb(84,11,53)"/>
<path d="M40 4h2v2h-2v-2z" fill="rgb(84,11,53)"/>
<path d="M42 4h4v2h-4v-2z" fill="rgb(209,100,164)"/>
<path d="M46 4h4v2h-4v-2z" fill="rgb(84,11,53)"/>
<path d="M52 4h2v2h-2v-2z" fill="rgb(84,11,53)"/>
<path d="M54 4h2v4h-2v-4z" fill="rgb(226,129,207)"/>
<path d="M58 4h2v4h-2v-4z" fill="rgb(226,129,207)"/>
<path d="M60 4h2v2h-2v-2z" fill="rgb(84,11,53)"/>
<path d="M64 4h4v2h-4v-2z" fill="rgb(84,11,53)"/>
<path d="M68 4h4v6h-4v-6z" fill="rgb(235,170,222)"/>
<path d="M72 4h2v2h-2v-2z" fill="rgb(84,11,53)"/>
<path d="M38 6h2v4h-2v-4z" fill="rgb(84,11,53)"/>
<path d="M40 6h2v2h-2v-2z" fill="rgb(204,83,153)"/>
<path d="M42 6h6v2h-2v2h-4v2h-2v-4h2v-2z" fill="rgb(235,170,222)"/>
<path d="M48 6h2v2h-2v-2z" fill="rgb(204,83,153)"/>
<path d="M50 6h2v2h-2v-2z" fill="rgb(84,11,53)"/>
<path d="M52 6h2v2h-2v-2z" fill="rgb(204,83,153)"/>
<path d="M56 6h2v2h-2v-2z" fill="rgb(141,43,98)"/>
<path d="M60 6h2v2h-2v-2z" fill="rgb(204,83,153)"/>
<path d="M62 6h2v2h-2v-2z" fill="rgb(84,11,53)"/>
<path d="M64 6h2v2h-2v-2z" fill="rgb(204,83,153)"/>
<path d="M66 6h2v2h-2v-2z" fill="rgb(209,100,164)"/>
<path d="M72 6h2v2h-2v-2z" fill="rgb(204,83,153)"/>
<path d="M74 6h2v4h-2v-4z" fill="rgb(84,11,53)"/>
<path d="M46 8h4v4h-8v-2h4v-2z" fill="rgb(226,129,207)"/>
<path d="M50 8h2v4h-2v-4z" fill="rgb(209,100,164)"/>
<path d="M52 8h4v2h-4v-2z" fill="rgb(141,43,98)"/>
<path d="M56 8h2v2h2v2h-2v2h-2v-2h-2v-2h2v-2z" fill="rgb(84,11,53)"/>
<path d="M58 8h4v2h-4v-2z" fill="rgb(141,43,98)"/>
<path d="M62 8h2v2h-2v-2z" fill="rgb(204,83,153)"/>
<path d="M64 8h2v2h-2v-2z" fill="rgb(209,100,164)"/>
<path d="M66 8h2v2h-2v-2z" fill="rgb(226,129,207)"/>
<path d="M72 8h2v2h-2v-2z" fill="rgb(226,129,207)"/>
<path d="M36 10h2v8h-2v-8z" fill="rgb(84,11,53)"/>
<path d="M38 10h2v2h-2v-2z" fill="rgb(209,100,164)"/>
<path d="M52 10h2v4h-2v-4z" fill="rgb(181,51,127)"/>
<path d="M60 10h2v2h-2v-2z" fill="rgb(204,83,153)"/>
<path d="M62 10h2v4h-4v-2h2v-2z" fill="rgb(209,100,164)"/>
<path d="M64 10h2v2h2v2h-4v-4z" fill="rgb(226,129,207)"/>
<path d="M66 10h2v2h-2v-2z" fill="rgb(235,170,222)"/>
<path d="M68 10h4v2h-4v-2z" fill="rgb(226,129,207)"/>
<path d="M72 10h2v2h-2v-2z" fill="rgb(235,170,222)"/>
<path d="M74 10h2v2h-2v-2z" fill="rgb(209,100,164)"/>
<path d="M76 10h2v8h-2v-8z" fill="rgb(84,11,53)"/>
<path d="M38 12h2v2h-2v-2z" fill="rgb(235,170,222)"/>
<path d="M40 12h2v2h-2v-2z" fill="rgb(226,129,207)"/>
<path d="M42 12h4v2h-4v-2z" fill="rgb(204,83,153)"/>
<path d="M46 12h4v4h-2v-2h-2v-2z" fill="rgb(209,100,164)"/>
<path d="M50 12h2v2h2v4h-2v-2h-2v-4z" fill="rgb(204,83,153)"/>
<path d="M54 12h2v2h-2v-2z" fill="rgb(141,43,98)"/>
<path d="M58 12h2v2h-2v-2z" fill="rgb(181,51,127)"/>
<path d="M68 12h4v2h-4v-2z" fill="rgb(204,83,153)"/>
<path d="M72 12h4v4h-2v-2h-2v-2z" fill="rgb(226,129,207)"/>
<path d="M38 14h2v2h-2v-2z" fill="rgb(226,129,207)"/>
<path d="M40 14h2v2h-2v-2z" fill="rgb(204,83,153)"/>
<path d="M42 14h4v2h-4v-2z" fill="rgb(84,11,53)"/>
<path d="M46 14h2v2h-2v-2z" fill="rgb(204,83,153)"/>
<path d="M54 14h4v2h-4v-2z" fill="rgb(181,51,127)"/>
<path d="M58 14h6v2h-2v2h-2v-2h-2v-2z" fill="rgb(204,83,153)"/>
<path d="M64 14h2v2h-2v-2z" fill="rgb(209,100,164)"/>
<path d="M66 14h2v2h-2v-2z" fill="rgb(204,83,153)"/>
<path d="M68 14h4v2h-4v-2z" fill="rgb(84,11,53)"/>
<path d="M72 14h2v2h-2v-2z" fill="rgb(204,83,153)"/>
<path d="M38 16h2v2h-2v-2z" fill="rgb(204,83,153)"/>
<path d="M40 16h2v2h-2v-2z" fill="rgb(84,11,53)"/>
<path d="M46 16h2v4h-2v-4z" fill="rgb(84,11,53)"/>
<path d="M48 16h2v2h2v2h2v2h-4v-2h-2v-4z" fill="rgb(204,83,153)"/>
<path d="M50 16h2v2h-2v-2z" fill="rgb(181,51,127)"/>
<path d="M54 16h2v6h-2v-6z" fill="rgb(141,43,98)"/>
<path d="M56 16h2v6h-2v-6z" fill="rgb(204,83,153)"/>
<path d="M58 16h2v6h-2v-6z" fill="rgb(141,43,98)"/>
<path d="M62 16h2v2h-2v-2z" fill="rgb(181,51,127)"/>
<path d="M64 16h2v4h2v2h-4v4h-2v-4h-2v-2h2v-2h2v-2z" fill="rgb(204,83,153)"/>
<path d="M66 16h2v4h-2v-4z" fill="rgb(84,11,53)"/>
<path d="M72 16h2v2h-2v-2z" fill="rgb(84,11,53)"/>
<path d="M74 16h2v2h-2v-2z" fill="rgb(204,83,153)"/>
<path d="M38 18h2v2h-2v-2z" fill="rgb(84,11,53)"/>
<path d="M52 18h2v2h-2v-2z" fill="rgb(181,51,127)"/>
<path d="M60 18h2v2h-2v-2z" fill="rgb(181,51,127)"/>
<path d="M74 18h2v2h-2v-2z" fill="rgb(84,11,53)"/>
<path d="M44 20h2v4h-2v-4z" fill="rgb(84,11,53)"/>
<path d="M46 20h2v2h-2v-2z" fill="rgb(204,83,153)"/>
<path d="M48 20h2v2h2v2h-2v2h-2v-2h-2v-2h2v-2z" fill="rgb(209,100,164)"/>
<path d="M68 20h2v4h-2v-4z" fill="rgb(84,11,53)"/>
<path d="M52 22h2v4h-2v-4z" fill="rgb(141,43,98)"/>
<path d="M54 22h2v2h-2v-2z" fill="rgb(204,83,153)"/>
<path d="M56 22h2v2h2v2h-2v2h-2v-2h-2v-2h2v-2z" fill="rgb(209,100,164)"/>
<path d="M58 22h2v2h-2v-2z" fill="rgb(204,83,153)"/>
<path d="M60 22h2v4h-2v-4z" fill="rgb(141,43,98)"/>
<path d="M64 22h4v6h-2v-2h-2v-4z" fill="rgb(209,100,164)"/>
<path d="M42 24h2v4h-2v-4z" fill="rgb(84,11,53)"/>
<path d="M44 24h2v2h-2v-2z" fill="rgb(204,83,153)"/>
<path d="M46 24h2v2h-2v-2z" fill="rgb(226,129,207)"/>
<path d="M50 24h2v2h-2v-2z" fill="rgb(204,83,153)"/>
<path d="M68 24h2v2h-2v-2z" fill="rgb(204,83,153)"/>
<path d="M70 24h2v4h-2v-4z" fill="rgb(84,11,53)"/>
<path d="M44 26h2v2h-2v-2z" fill="rgb(209,100,164)"/>
<path d="M46 26h2v4h-2v-4z" fill="rgb(235,170,222)"/>
<path d="M48 26h2v4h-2v-4z" fill="rgb(226,129,207)"/>
<path d="M50 26h2v6h-2v-6z" fill="rgb(141,43,98)"/>
<path d="M52 26h2v2h-2v-2z" fill="rgb(204,83,153)"/>
<path d="M54 26h2v4h-2v4h-2v-6h2v-2z" fill="rgb(226,129,207)"/>
<path d="M58 26h2v2h2v6h2v4h2v4h2v8h2v12h-4v2h-2v-2h-2v4h-4v-2h-2v2h-4v-4h-2v2
	h-4v-2h-2v-2h-2v-8h2v-6h2v-4h2v6h2v4h2v2h2v2h2v-4h2v4h2v-6h2v4h4v-4h-2v-8h-2v-4
	h-2v-4h-2v-8z" fill="rgb(226,129,207)"/>
<path d="M60 26h2v2h-2v-2z" fill="rgb(204,83,153)"/>
<path d="M62 26h2v6h-2v-6z" fill="rgb(141,43,98)"/>
<path d="M64 26h2v2h2v-2h2v4h-2v4h-2v-4h-2v-4z" fill="rgb(226,129,207)"/>
<path d="M40 28h2v2h-2v-2z" fill="rgb(84,11,53)"/>
<path d="M42 28h2v2h-2v-2z" fill="rgb(204,83,153)"/>
<path d="M44 28h2v2h-2v-2z" fill="rgb(226,129,207)"/>
<path d="M56 28h2v6h2v4h2v4h2v8h2v4h-4v-4h-2v6h-2v-4h-2v4h-2v-2h-2v-2h-2v-4h-2
	v-6h2v-4h2v-4h2v-4h2v-2z" fill="rgb(235,170,222)"/>
<path d="M70 28h2v2h-2v-2z" fill="rgb(204,83,153)"/>
<path d="M72 28h2v2h-2v-2z" fill="rgb(84,11,53)"/>
<path d="M38 30h2v2h-2v-2z" fill="rgb(84,11,53)"/>
<path d="M40 30h2v2h-2v-2z" fill="rgb(204,83,153)"/>
<path d="M42 30h2v4h-2v-4z" fill="rgb(226,129,207)"/>
<path d="M44 30h2v6h-2v2h-2v2h-2v4h-2v2h-4v-6h2v-2h4v-2h2v-2h2v-4z" fill="rgb(235,170,222)"/>
<path d="M46 30h2v4h-2v-4z" fill="rgb(226,129,207)"/>
<path d="M48 30h2v2h-2v-2z" fill="rgb(204,83,153)"/>
<path d="M64 30h2v2h-2v-2z" fill="rgb(204,83,153)"/>
<path d="M68 30h2v2h2v2h2v2h2v2h2v4h-4v-2h-2v-2h-2v-4h-2v-4z" fill="rgb(235,170,222)"/>
<path d="M70 30h2v2h-2v-2z" fill="rgb(226,129,207)"/>
<path d="M72 30h2v2h-2v-2z" fill="rgb(204,83,153)"/>
<path d="M74 30h2v2h-2v-2z" fill="rgb(84,11,53)"/>
<path d="M36 32h2v2h-2v-2z" fill="rgb(84,11,53)"/>
<path d="M38 32h2v2h-2v-2z" fill="rgb(204,83,153)"/>
<path d="M40 32h2v2h-2v-2z" fill="rgb(235,170,222)"/>
<path d="M48 32h2v4h-2v-4z" fill="rgb(141,43,98)"/>
<path d="M50 32h2v2h-2v-2z" fill="rgb(204,83,153)"/>
<path d="M62 32h2v2h-2v-2z" fill="rgb(204,83,153)"/>
<path d="M64 32h2v4h-2v-4z" fill="rgb(141,43,98)"/>
<path d="M72 32h2v2h-2v-2z" fill="rgb(226,129,207)"/>
<path d="M74 32h2v2h-2v-2z" fill="rgb(204,83,153)"/>
<path d="M76 32h2v2h-2v-2z" fill="rgb(84,11,53)"/>
<path d="M34 34h2v2h-2v-2z" fill="rgb(84,11,53)"/>
<path d="M36 34h2v2h-2v-2z" fill="rgb(204,83,153)"/>
<path d="M38 34h4v2h-2v2h-4v-2h2v-2z" fill="rgb(226,129,207)"/>
<path d="M46 34h2v2h-2v-2z" fill="rgb(204,83,153)"/>
<path d="M50 34h2v4h-2v-4z" fill="rgb(226,129,207)"/>
<path d="M66 34h2v2h-2v-2z" fill="rgb(204,83,153)"/>
<path d="M68 34h2v4h-2v-4z" fill="rgb(226,129,207)"/>
<path d="M74 34h2v2h-2v-2z" fill="rgb(226,129,207)"/>
<path d="M76 34h2v2h-2v-2z" fill="rgb(204,83,153)"/>
<path d="M78 34h2v2h-2v-2z" fill="rgb(84,11,53)"/>
<path d="M32 36h2v2h-2v-2z" fill="rgb(84,11,53)"/>
<path d="M34 36h2v2h-2v-2z" fill="rgb(204,83,153)"/>
<path d="M44 36h2v2h-2v-2z" fill="rgb(226,129,207)"/>
<path d="M46 36h2v4h-2v-4z" fill="rgb(141,43,98)"/>
<path d="M48 36h2v2h-2v-2z" fill="rgb(204,83,153)"/>
<path d="M64 36h2v2h-2v-2z" fill="rgb(204,83,153)"/>
<path d="M66 36h2v4h-2v-4z" fill="rgb(141,43,98)"/>
<path d="M76 36h2v2h-2v-2z" fill="rgb(226,129,207)"/>
<path d="M78 36h2v2h-2v-2z" fill="rgb(204,83,153)"/>
<path d="M80 36h2v2h-2v-2z" fill="rgb(84,11,53)"/>
<path d="M18 38h2v2h-2v-2z" fill="rgb(206,240,87)"/>
<path d="M20 38h2v2h-2v-2z" fill="rgb(232,199,83)"/>
<path d="M30 38h2v2h-2v-2z" fill="rgb(84,11,53)"/>
<path d="M32 38h2v2h-2v-2z" fill="rgb(204,83,153)"/>
<path d="M34 38h2v2h-2v-2z" fill="rgb(226,129,207)"/>
<path d="M42 38h2v4h-2v4h-2v4h-2v4h-2v2h-2v2h-2v-2h-2v2h-2v-2h-2v-4h2v-6h2v2h4
	v-2h4v-2h2v-4h2v-2z" fill="rgb(226,129,207)"/>
<path d="M44 38h2v2h-2v-2z" fill="rgb(204,83,153)"/>
<path d="M48 38h2v4h-2v-4z" fill="rgb(226,129,207)"/>
<path d="M68 38h2v2h-2v-2z" fill="rgb(204,83,153)"/>
<path d="M70 38h2v2h2v2h4v2h-2v2h2v2h4v-4h-2v-2h-2v-4h2v2h2v2h2v2h2v4h2v4h-2v-2
	h-2v4h-2v-2h-2v2h-2v-2h-2v-2h-2v-4h-2v-4h-2v-4z" fill="rgb(226,129,207)"/>
<path d="M80 38h2v2h-2v-2z" fill="rgb(204,83,153)"/>
<path d="M82 38h2v2h-2v-2z" fill="rgb(84,11,53)"/>
<path d="M90 38h4v2h-4v-2z" fill="rgb(206,240,87)"/>
<path d="M96 38h2v2h-2v-2z" fill="rgb(212,173,25)"/>
<path d="M98 38h4v2h-2v2h-2v-4z" fill="rgb(206,240,87)"/>
<path d="M18 40h2v2h-2v-2z" fill="rgb(232,199,83)"/>
<path d="M20 40h2v2h-2v-2z" fill="rgb(212,173,25)"/>
<path d="M28 40h2v2h-2v-2z" fill="rgb(84,11,53)"/>
<path d="M30 40h2v2h-2v-2z" fill="rgb(204,83,153)"/>
<path d="M32 40h2v6h-4v-4h2v-2z" fill="rgb(226,129,207)"/>
<path d="M44 40h2v4h-2v-4z" fill="rgb(141,43,98)"/>
<path d="M46 40h2v2h-2v-2z" fill="rgb(204,83,153)"/>
<path d="M66 40h2v2h-2v-2z" fill="rgb(204,83,153)"/>
<path d="M68 40h2v4h-2v-4z" fill="rgb(141,43,98)"/>
<path d="M82 40h2v2h-2v-2z" fill="rgb(209,100,164)"/>
<path d="M84 40h2v2h-2v-2z" fill="rgb(84,11,53)"/>
<path d="M90 40h2v2h-2v-2z" fill="rgb(232,199,83)"/>
<path d="M92 40h2v2h-2v-2z" fill="rgb(212,173,25)"/>
<path d="M96 40h2v2h-2v-2z" fill="rgb(232,199,83)"/>
<path d="M100 40h2v2h-2v-2z" fill="rgb(232,199,83)"/>
<path d="M10 42h4v2h-4v-2z" fill="rgb(206,240,87)"/>
<path d="M18 42h2v2h-2v-2z" fill="rgb(24,151,70)"/>
<path d="M20 42h2v2h-2v-2z" fill="rgb(21,217,94)"/>
<path d="M26 42h2v2h-2v-2z" fill="rgb(84,11,53)"/>
<path d="M28 42h2v2h-2v-2z" fill="rgb(204,83,153)"/>
<path d="M42 42h2v2h-2v-2z" fill="rgb(204,83,153)"/>
<path d="M70 42h2v2h-2v-2z" fill="rgb(204,83,153)"/>
<path d="M78 42h2v2h2v4h-4v-2h-2v-2h2v-2z" fill="rgb(235,170,222)"/>
<path d="M84 42h2v2h-2v-2z" fill="rgb(204,83,153)"/>
<path d="M86 42h2v2h-2v-2z" fill="rgb(84,11,53)"/>
<path d="M92 42h2v2h-2v-2z" fill="rgb(24,151,70)"/>
<path d="M96 42h2v2h-2v-2z" fill="rgb(212,173,25)"/>
<path d="M98 42h2v2h-2v-2z" fill="rgb(232,199,83)"/>
<path d="M100 42h2v2h-2v-2z" fill="rgb(212,173,25)"/>
<path d="M10 44h2v2h-2v-2z" fill="rgb(232,199,83)"/>
<path d="M12 44h2v2h-2v-2z" fill="rgb(212,173,25)"/>
<path d="M20 44h4v2h-4v-2z" fill="rgb(5,101,31)"/>
<path d="M24 44h2v4h-2v-4z" fill="rgb(84,11,53)"/>
<path d="M26 44h2v2h-2v-2z" fill="rgb(204,83,153)"/>
<path d="M28 44h2v2h-2v-2z" fill="rgb(209,100,164)"/>
<path d="M42 44h2v6h-2v-6z" fill="rgb(141,43,98)"/>
<path d="M44 44h2v2h-2v-2z" fill="rgb(204,83,153)"/>
<path d="M68 44h2v2h-2v-2z" fill="rgb(204,83,153)"/>
<path d="M70 44h2v6h-2v-6z" fill="rgb(141,43,98)"/>
<path d="M86 44h2v2h-2v-2z" fill="rgb(204,83,153)"/>
<path d="M88 44h2v4h-2v-4z" fill="rgb(84,11,53)"/>
<path d="M90 44h2v4h-2v-4z" fill="rgb(5,101,31)"/>
<path d="M92 44h2v2h-2v-2z" fill="rgb(21,217,94)"/>
<path d="M98 44h2v6h-2v-6z" fill="rgb(24,151,70)"/>
<path d="M12 46h2v4h-2v-4z" fill="rgb(24,151,70)"/>
<path d="M22 46h2v2h-2v-2z" fill="rgb(24,151,70)"/>
<path d="M26 46h2v6h-2v4h2v2h2v-2h2v2h2v-2h2v4h-4v4h-4v-4h-2v-2h-2v-8h2v-4z" fill="rgb(209,100,164)"/>
<path d="M30 46h4v2h-4v-2z" fill="rgb(235,170,222)"/>
<path d="M40 46h2v2h-2v-2z" fill="rgb(209,100,164)"/>
<path d="M68 46h2v4h-2v-4z" fill="rgb(209,100,164)"/>
<path d="M72 46h2v2h-2v-2z" fill="rgb(209,100,164)"/>
<path d="M86 46h2v2h-2v-2z" fill="rgb(209,100,164)"/>
<path d="M14 48h2v2h-2v-2z" fill="rgb(21,217,94)"/>
<path d="M16 48h2v2h-2v-2z" fill="rgb(5,101,31)"/>
<path d="M22 48h2v4h-2v-4z" fill="rgb(84,11,53)"/>
<path d="M24 48h2v2h-2v-2z" fill="rgb(204,83,153)"/>
<path d="M40 48h2v2h-2v-2z" fill="rgb(204,83,153)"/>
<path d="M72 48h2v2h-2v-2z" fill="rgb(204,83,153)"/>
<path d="M88 48h2v2h-2v-2z" fill="rgb(204,83,153)"/>
<path d="M90 48h2v4h-2v-4z" fill="rgb(84,11,53)"/>
<path d="M92 48h2v2h-2v-2z" fill="rgb(24,151,70)"/>
<path d="M100 48h2v2h-2v-2z" fill="rgb(5,101,31)"/>
<path d="M14 50h2v2h-2v-2z" fill="rgb(5,101,31)"/>
<path d="M16 50h2v2h-2v-2z" fill="rgb(21,217,94)"/>
<path d="M38 50h2v2h-2v-2z" fill="rgb(209,100,164)"/>
<path d="M40 50h2v4h-2v-4z" fill="rgb(141,43,98)"/>
<path d="M42 50h2v2h-2v-2z" fill="rgb(209,100,164)"/>
<path d="M70 50h2v4h-2v-4z" fill="rgb(204,83,153)"/>
<path d="M72 50h2v4h-2v-4z" fill="rgb(141,43,98)"/>
<path d="M74 50h2v2h2v2h2v-2h2v2h2v-4h2v2h2v-2h2v6h-2v2h-4v2h-4v-2h-2v-2h-2v-2
	h-2v-4z" fill="rgb(209,100,164)"/>
<path d="M92 50h2v2h-2v-2z" fill="rgb(5,101,31)"/>
<path d="M100 50h2v2h-2v-2z" fill="rgb(21,217,94)"/>
<path d="M16 52h2v2h-2v-2z" fill="rgb(24,151,70)"/>
<path d="M18 52h2v2h-2v-2z" fill="rgb(21,217,94)"/>
<path d="M20 52h2v6h-2v-6z" fill="rgb(84,11,53)"/>
<path d="M22 52h2v2h-2v-2z" fill="rgb(141,43,98)"/>
<path d="M38 52h2v2h-2v-2z" fill="rgb(204,83,153)"/>
<path d="M90 52h2v10h-2v2h-2v2h-8v-4h-2v-2h-2v-4h2v2h2v2h4v-2h4v-2h2v-4z" fill="rgb(204,83,153)"/>
<path d="M92 52h2v6h-2v-6z" fill="rgb(84,11,53)"/>
<path d="M98 52h2v2h-2v-2z" fill="rgb(5,101,31)"/>
<path d="M100 52h2v2h-2v-2z" fill="rgb(24,151,70)"/>
<path d="M0 54h4v4h-2v-2h-2v-2z" fill="rgb(206,240,87)"/>
<path d="M4 54h2v2h-2v-2z" fill="rgb(212,173,25)"/>
<path d="M16 54h2v2h-2v-2z" fill="rgb(5,101,31)"/>
<path d="M18 54h2v2h-2v-2z" fill="rgb(24,151,70)"/>
<path d="M22 54h2v4h2v2h2v4h4v-4h4v8h-2v2h2v4h-2v-2h-2v2h-2v-2h-2v-6h-4v-4h-2
	v-8z" fill="rgb(204,83,153)"/>
<path d="M36 54h2v2h-2v-2z" fill="rgb(209,100,164)"/>
<path d="M38 54h2v6h-2v-6z" fill="rgb(141,43,98)"/>
<path d="M40 54h2v4h-2v-4z" fill="rgb(204,83,153)"/>
<path d="M70 54h2v2h2v6h-2v2h-2v2h-4v2h-4v2h-10v-2h-6v-2h-4v-4h-2v-4h2v2h2v2h2
	v2h4v-2h2v4h4v-2h2v2h4v-4h2v2h2v-2h4v-8z" fill="rgb(209,100,164)"/>
<path d="M72 54h2v2h-2v-2z" fill="rgb(204,83,153)"/>
<path d="M74 54h2v6h-2v-6z" fill="rgb(141,43,98)"/>
<path d="M94 54h4v2h-2v2h-2v-4z" fill="rgb(5,101,31)"/>
<path d="M98 54h2v2h-2v-2z" fill="rgb(21,217,94)"/>
<path d="M100 54h2v2h-2v-2z" fill="rgb(5,101,31)"/>
<path d="M0 56h2v2h-2v-2z" fill="rgb(232,199,83)"/>
<path d="M4 56h2v2h-2v-2z" fill="rgb(232,199,83)"/>
<path d="M6 56h2v2h-2v-2z" fill="rgb(24,151,70)"/>
<path d="M8 56h2v2h-2v-2z" fill="rgb(21,217,94)"/>
<path d="M10 56h2v2h-2v-2z" fill="rgb(5,101,31)"/>
<path d="M18 56h2v2h-2v-2z" fill="rgb(5,101,31)"/>
<path d="M36 56h2v4h-2v-4z" fill="rgb(204,83,153)"/>
<path d="M96 56h2v2h-2v-2z" fill="rgb(21,217,94)"/>
<path d="M98 56h2v2h-2v-2z" fill="rgb(5,101,31)"/>
<path d="M0 58h2v2h-2v-2z" fill="rgb(212,173,25)"/>
<path d="M2 58h2v2h-2v-2z" fill="rgb(232,199,83)"/>
<path d="M4 58h2v2h-2v-2z" fill="rgb(212,173,25)"/>
<path d="M6 58h4v2h2v4h2v2h-6v2h-4v2h4v2h2v4h2v6h2v6h2v2h4v2h4v2h2v6h-2v2h-2v2
	h4v2h-4v2h-2v2h-2v2h-2v2h2v2h4v2h4v-2h4v-2h4v4h2v2h6v2h-2v8h2v4h-4v2h-2v2h4v2h2
	v4h2v4h2v-4h2v-16h-2v-4h2v-10h2v4h2v6h-2v6h2v4h2v-4h2v-4h2v8h-2v6h-2v2h-2v2h6
	v8h-58v-92h6v-2z" fill="rgb(255,255,255)"/>
<path d="M10 58h2v2h-2v-2z" fill="rgb(24,151,70)"/>
<path d="M12 58h2v2h-2v-2z" fill="rgb(5,101,31)"/>
<path d="M18 58h2v16h-2v-2h-2v-2h2v-12z" fill="rgb(84,11,53)"/>
<path d="M20 58h2v4h2v8h-2v-2h-2v-10z" fill="rgb(181,51,127)"/>
<path d="M58 58h2v2h-2v-2z" fill="rgb(235,170,222)"/>
<path d="M92 58h2v6h-2v2h-4v-2h2v-2h2v-4z" fill="rgb(181,51,127)"/>
<path d="M94 58h2v12h2v2h-2v2h-2v6h-2v-10h2v-12z" fill="rgb(84,11,53)"/>
<path d="M96 58h2v2h-2v-2z" fill="rgb(24,151,70)"/>
<path d="M12 60h2v2h-2v-2z" fill="rgb(24,151,70)"/>
<path d="M14 60h2v2h-2v-2z" fill="rgb(5,101,31)"/>
<path d="M36 60h2v6h-2v-6z" fill="rgb(141,43,98)"/>
<path d="M38 60h2v2h2v4h4v2h6v2h10v-2h4v-2h4v-2h2v-2h2v-2h2v6h-2v4h-2v2h-2v2h-6
	v2h-4v-2h-2v4h-2v-2h-2v2h-2v-4h-4v2h-2v-4h-4v-2h-2v-4h-2v-6z" fill="rgb(204,83,153)"/>
<path d="M76 60h2v2h-2v-2z" fill="rgb(141,43,98)"/>
<path d="M96 60h2v2h-2v-2z" fill="rgb(5,101,31)"/>
<path d="M100 60h2v2h-2v-2z" fill="rgb(5,101,31)"/>
<path d="M102 60h2v2h-2v-2z" fill="rgb(21,217,94)"/>
<path d="M104 60h2v2h-2v-2z" fill="rgb(24,151,70)"/>
<path d="M106 60h2v2h-2v-2z" fill="rgb(5,101,31)"/>
<path d="M110 60h2v2h-2v-2z" fill="rgb(232,199,83)"/>
<path d="M112 60h2v2h-2v-2z" fill="rgb(206,240,87)"/>
<path d="M12 62h2v2h-2v-2z" fill="rgb(5,101,31)"/>
<path d="M14 62h2v2h-2v-2z" fill="rgb(21,217,94)"/>
<path d="M76 62h2v8h-2v-8z" fill="rgb(84,11,53)"/>
<path d="M78 62h2v4h4v2h-4v2h-2v-8z" fill="rgb(181,51,127)"/>
<path d="M96 62h2v2h-2v-2z" fill="rgb(255,255,255)"/>
<path d="M98 62h2v2h-2v-2z" fill="rgb(5,101,31)"/>
<path d="M100 62h2v2h-2v-2z" fill="rgb(24,151,70)"/>
<path d="M102 62h4v2h8v88h-54v-8h2v-2h6v-2h-2v-2h-2v-14h6v4h-2v6h2v4h2v-4h2v-4
	h8v-2h-2v-2h-2v-2h-2v-6h-2v-6h2v2h2v4h2v-4h2v-2h2v2h4v2h6v-2h2v-2h-2v-4h-2v-2
	h-2v-2h2v-2h-2v-2h-2v-6h2v-2h4v-2h4v-2h2v-6h2v-6h2v-4h2v-2h4v-2h-4v-2h-4v-4z" fill="rgb(255,255,255)"/>
<path d="M106 62h4v2h-4v-2z" fill="rgb(24,151,70)"/>
<path d="M110 62h2v2h-2v-2z" fill="rgb(212,173,25)"/>
<path d="M112 62h2v2h-2v-2z" fill="rgb(232,199,83)"/>
<path d="M14 64h2v2h-2v-2z" fill="rgb(24,151,70)"/>
<path d="M16 64h2v2h-2v-2z" fill="rgb(5,101,31)"/>
<path d="M92 64h2v6h-2v-2h-2v-2h2v-2z" fill="rgb(141,43,98)"/>
<path d="M96 64h2v2h-2v-2z" fill="rgb(5,101,31)"/>
<path d="M98 64h2v2h-2v-2z" fill="rgb(21,217,94)"/>
<path d="M100 64h2v2h-2v-2z" fill="rgb(5,101,31)"/>
<path d="M8 66h6v2h-6v-2z" fill="rgb(84,11,53)"/>
<path d="M14 66h2v2h-2v-2z" fill="rgb(5,101,31)"/>
<path d="M16 66h2v4h-2v-4z" fill="rgb(24,151,70)"/>
<path d="M24 66h2v4h-2v-4z" fill="rgb(84,11,53)"/>
<path d="M26 66h2v2h-2v-2z" fill="rgb(181,51,127)"/>
<path d="M36 66h2v4h-2v-4z" fill="rgb(84,11,53)"/>
<path d="M38 66h2v4h-2v-4z" fill="rgb(181,51,127)"/>
<path d="M74 66h2v2h-2v-2z" fill="rgb(181,51,127)"/>
<path d="M84 66h6v2h-6v-2z" fill="rgb(84,11,53)"/>
<path d="M96 66h2v2h-2v-2z" fill="rgb(24,151,70)"/>
<path d="M98 66h2v2h-2v-2z" fill="rgb(5,101,31)"/>
<path d="M100 66h6v2h-6v-2z" fill="rgb(84,11,53)"/>
<path d="M4 68h4v2h-4v-2z" fill="rgb(84,11,53)"/>
<path d="M8 68h6v4h-2v-2h-4v-2z" fill="rgb(235,170,222)"/>
<path d="M14 68h2v2h-2v-2z" fill="rgb(84,11,53)"/>
<path d="M20 68h2v6h-2v-6z" fill="rgb(141,43,98)"/>
<path d="M26 68h2v2h-2v-2z" fill="rgb(141,43,98)"/>
<path d="M34 68h2v2h-2v-2z" fill="rgb(181,51,127)"/>
<path d="M74 68h2v2h-2v-2z" fill="rgb(141,43,98)"/>
<path d="M80 68h4v2h-4v-2z" fill="rgb(84,11,53)"/>
<path d="M84 68h4v4h-2v-2h-2v-2z" fill="rgb(226,129,207)"/>
<path d="M88 68h2v2h-2v-2z" fill="rgb(209,100,164)"/>
<path d="M90 68h2v2h-2v-2z" fill="rgb(84,11,53)"/>
<path d="M96 68h2v2h-2v-2z" fill="rgb(5,101,31)"/>
<path d="M98 68h2v2h-2v-2z" fill="rgb(84,11,53)"/>
<path d="M100 68h2v2h-2v-2z" fill="rgb(226,129,207)"/>
<path d="M102 68h2v2h-2v-2z" fill="rgb(235,170,222)"/>
<path d="M104 68h2v2h-2v-2z" fill="rgb(226,129,207)"/>
<path d="M106 68h4v2h-4v-2z" fill="rgb(84,11,53)"/>
<path d="M8 70h2v2h-2v-2z" fill="rgb(84,11,53)"/>
<path d="M10 70h2v2h-2v-2z" fill="rgb(226,129,207)"/>
<path d="M14 70h2v2h-2v-2z" fill="rgb(209,100,164)"/>
<path d="M22 70h2v4h-2v-4z" fill="rgb(84,11,53)"/>
<path d="M24 70h2v2h-2v-2z" fill="rgb(226,129,207)"/>
<path d="M26 70h2v4h-2v-4z" fill="rgb(84,11,53)"/>
<path d="M36 70h2v6h-4v2h-4v-4h2v-2h2v2h2v-4z" fill="rgb(181,51,127)"/>
<path d="M38 70h2v4h-2v-4z" fill="rgb(84,11,53)"/>
<path d="M40 70h2v2h-2v-2z" fill="rgb(181,51,127)"/>
<path d="M72 70h2v2h-2v-2z" fill="rgb(181,51,127)"/>
<path d="M74 70h2v4h-2v-4z" fill="rgb(84,11,53)"/>
<path d="M76 70h4v2h-2v2h2v2h2v-2h2v-2h2v4h-2v2h-4v2h-2v2h-2v2h-2v-4h-2v-4h2v-2
	h2v-4z" fill="rgb(141,43,98)"/>
<path d="M80 70h2v2h2v2h-2v2h-2v-2h-2v-2h2v-2z" fill="rgb(181,51,127)"/>
<path d="M82 70h2v2h-2v-2z" fill="rgb(141,43,98)"/>
<path d="M84 70h2v2h-2v-2z" fill="rgb(84,11,53)"/>
<path d="M88 70h2v10h-2v2h-4v-2h2v-4h2v-6z" fill="rgb(235,170,222)"/>
<path d="M90 70h2v2h-2v-2z" fill="rgb(204,83,153)"/>
<path d="M98 70h2v2h-2v-2z" fill="rgb(226,129,207)"/>
<path d="M100 70h2v2h-2v-2z" fill="rgb(235,170,222)"/>
<path d="M102 70h2v2h-2v-2z" fill="rgb(226,129,207)"/>
<path d="M104 70h2v2h-2v-2z" fill="rgb(84,11,53)"/>
<path d="M10 72h2v4h-2v-4z" fill="rgb(84,11,53)"/>
<path d="M12 72h2v2h-2v-2z" fill="rgb(226,129,207)"/>
<path d="M14 72h2v4h-2v-4z" fill="rgb(235,170,222)"/>
<path d="M16 72h2v2h-2v-2z" fill="rgb(209,100,164)"/>
<path d="M24 72h2v4h2v4h2v6h-2v-4h-2v-4h-2v-6z" fill="rgb(235,170,222)"/>
<path d="M28 72h2v2h-2v-2z" fill="rgb(141,43,98)"/>
<path d="M40 72h2v2h-2v-2z" fill="rgb(141,43,98)"/>
<path d="M42 72h4v2h-4v-2z" fill="rgb(181,51,127)"/>
<path d="M70 72h2v2h-2v-2z" fill="rgb(181,51,127)"/>
<path d="M72 72h2v2h-2v-2z" fill="rgb(141,43,98)"/>
<path d="M86 72h2v4h-2v-4z" fill="rgb(84,11,53)"/>
<path d="M90 72h2v4h-2v-4z" fill="rgb(226,129,207)"/>
<path d="M96 72h2v2h-2v-2z" fill="rgb(204,83,153)"/>
<path d="M98 72h2v6h-2v2h-2v-6h2v-2z" fill="rgb(235,170,222)"/>
<path d="M100 72h2v2h-2v-2z" fill="rgb(226,129,207)"/>
<path d="M102 72h2v4h-2v-4z" fill="rgb(84,11,53)"/>
<path d="M12 74h2v2h-2v-2z" fill="rgb(209,100,164)"/>
<path d="M16 74h2v2h-2v-2z" fill="rgb(226,129,207)"/>
<path d="M18 74h2v2h-2v-2z" fill="rgb(204,83,153)"/>
<path d="M20 74h2v6h-2v-6z" fill="rgb(84,11,53)"/>
<path d="M22 74h2v2h-2v-2z" fill="rgb(209,100,164)"/>
<path d="M26 74h2v2h-2v-2z" fill="rgb(209,100,164)"/>
<path d="M28 74h2v4h-2v-4z" fill="rgb(84,11,53)"/>
<path d="M38 74h2v2h-2v-2z" fill="rgb(141,43,98)"/>
<path d="M40 74h2v2h-2v-2z" fill="rgb(84,11,53)"/>
<path d="M42 74h2v2h-2v-2z" fill="rgb(141,43,98)"/>
<path d="M44 74h2v2h-2v-2z" fill="rgb(84,11,53)"/>
<path d="M48 74h4v4h2v-2h2v2h2v-4h2v2h2v6h-2v8h-2v-4h-2v-4h2v-2h-4v2h-2v-2h-2
	v-4h-2v-2z" fill="rgb(181,51,127)"/>
<path d="M64 74h4v2h-4v-2z" fill="rgb(181,51,127)"/>
<path d="M68 74h4v2h-4v-2z" fill="rgb(141,43,98)"/>
<path d="M72 74h2v2h-2v-2z" fill="rgb(84,11,53)"/>
<path d="M94 74h2v4h-2v-4z" fill="rgb(204,83,153)"/>
<path d="M100 74h2v2h-2v-2z" fill="rgb(204,83,153)"/>
<path d="M12 76h2v6h-2v-6z" fill="rgb(84,11,53)"/>
<path d="M14 76h2v4h-2v-4z" fill="rgb(226,129,207)"/>
<path d="M16 76h2v4h-2v-4z" fill="rgb(235,170,222)"/>
<path d="M18 76h2v4h-2v-4z" fill="rgb(209,100,164)"/>
<path d="M22 76h2v2h-2v-2z" fill="rgb(226,129,207)"/>
<path d="M34 76h4v2h-2v2h-2v-4z" fill="rgb(141,43,98)"/>
<path d="M38 76h2v2h-2v-2z" fill="rgb(181,51,127)"/>
<path d="M40 76h2v4h-2v4h-2v-2h-2v-2h2v-2h2v-2z" fill="rgb(141,43,98)"/>
<path d="M42 76h2v4h-2v-4z" fill="rgb(84,11,53)"/>
<path d="M44 76h2v2h-2v-2z" fill="rgb(226,129,207)"/>
<path d="M46 76h2v4h-2v-4z" fill="rgb(84,11,53)"/>
<path d="M48 76h2v4h-2v-4z" fill="rgb(141,43,98)"/>
<path d="M62 76h2v2h-2v-2z" fill="rgb(141,43,98)"/>
<path d="M64 76h8v4h-2v-2h-6v-2z" fill="rgb(84,11,53)"/>
<path d="M76 76h2v2h-2v-2z" fill="rgb(181,51,127)"/>
<path d="M84 76h2v2h-2v-2z" fill="rgb(84,11,53)"/>
<path d="M90 76h2v2h-2v-2z" fill="rgb(209,100,164)"/>
<path d="M100 76h2v6h-2v-6z" fill="rgb(84,11,53)"/>
<path d="M22 78h2v2h-2v-2z" fill="rgb(209,100,164)"/>
<path d="M24 78h2v4h-2v-4z" fill="rgb(226,129,207)"/>
<path d="M28 78h2v2h-2v-2z" fill="rgb(204,83,153)"/>
<path d="M30 78h4v2h-4v-2z" fill="rgb(84,11,53)"/>
<path d="M36 78h2v2h-2v-2z" fill="rgb(181,51,127)"/>
<path d="M44 78h2v4h-2v-4z" fill="rgb(235,170,222)"/>
<path d="M62 78h2v2h-2v-2z" fill="rgb(84,11,53)"/>
<path d="M64 78h4v2h2v4h-2v-2h-2v-2h-2v-2z" fill="rgb(226,129,207)"/>
<path d="M68 78h2v2h-2v-2z" fill="rgb(209,100,164)"/>
<path d="M80 78h4v2h-4v-2z" fill="rgb(84,11,53)"/>
<path d="M84 78h2v2h-2v-2z" fill="rgb(226,129,207)"/>
<path d="M90 78h2v2h-2v-2z" fill="rgb(204,83,153)"/>
<path d="M94 78h2v2h-2v-2z" fill="rgb(226,129,207)"/>
<path d="M98 78h2v2h-2v-2z" fill="rgb(226,129,207)"/>
<path d="M14 80h2v2h-2v-2z" fill="rgb(204,83,153)"/>
<path d="M16 80h4v4h-2v-2h-2v-2z" fill="rgb(226,129,207)"/>
<path d="M20 80h2v4h2v4h2v2h2v2h-4v-2h-4v-2h-4v-4h2v2h2v-6z" fill="rgb(204,83,153)"/>
<path d="M22 80h2v4h-2v-4z" fill="rgb(84,11,53)"/>
<path d="M30 80h2v2h2v2h-2v2h-2v-6z" fill="rgb(226,129,207)"/>
<path d="M32 80h2v2h-2v-2z" fill="rgb(204,83,153)"/>
<path d="M34 80h2v2h-2v-2z" fill="rgb(84,11,53)"/>
<path d="M40 80h2v4h-2v-4z" fill="rgb(84,11,53)"/>
<path d="M42 80h2v2h-2v-2z" fill="rgb(226,129,207)"/>
<path d="M46 80h2v4h-4v-2h2v-2z" fill="rgb(226,129,207)"/>
<path d="M48 80h2v4h2v2h-2v2h-2v-8z" fill="rgb(84,11,53)"/>
<path d="M50 80h2v2h2v-2h4v2h-2v4h2v4h2v2h-2v2h-2v2h-2v-2h-2v-2h2v-6h-2v-2h-2
	v-4z" fill="rgb(141,43,98)"/>
<path d="M62 80h2v2h-2v-2z" fill="rgb(141,43,98)"/>
<path d="M64 80h2v2h-2v-2z" fill="rgb(84,11,53)"/>
<path d="M70 80h2v2h-2v-2z" fill="rgb(209,100,164)"/>
<path d="M72 80h2v4h-2v-4z" fill="rgb(84,11,53)"/>
<path d="M78 80h2v2h-2v-2z" fill="rgb(84,11,53)"/>
<path d="M80 80h2v2h-2v-2z" fill="rgb(204,83,153)"/>
<path d="M82 80h2v2h-2v-2z" fill="rgb(209,100,164)"/>
<path d="M88 80h2v2h-2v-2z" fill="rgb(226,129,207)"/>
<path d="M90 80h2v4h-2v-4z" fill="rgb(84,11,53)"/>
<path d="M92 80h2v4h-2v-4z" fill="rgb(204,83,153)"/>
<path d="M94 80h2v2h-2v-2z" fill="rgb(235,170,222)"/>
<path d="M96 80h2v2h-2v-2z" fill="rgb(226,129,207)"/>
<path d="M98 80h2v2h-2v-2z" fill="rgb(204,83,153)"/>
<path d="M14 82h2v6h-2v-6z" fill="rgb(84,11,53)"/>
<path d="M16 82h2v2h-2v-2z" fill="rgb(209,100,164)"/>
<path d="M24 82h2v2h-2v-2z" fill="rgb(204,83,153)"/>
<path d="M26 82h2v2h-2v-2z" fill="rgb(226,129,207)"/>
<path d="M34 82h2v4h2v4h-6v2h-2v-2h-2v-2h6v-6z" fill="rgb(204,83,153)"/>
<path d="M36 82h2v4h-2v-4z" fill="rgb(84,11,53)"/>
<path d="M42 82h2v2h-2v-2z" fill="rgb(209,100,164)"/>
<path d="M60 82h2v4h2v-4h2v8h-6v-8z" fill="rgb(141,43,98)"/>
<path d="M62 82h2v4h-2v-4z" fill="rgb(181,51,127)"/>
<path d="M66 82h2v6h-2v-6z" fill="rgb(84,11,53)"/>
<path d="M70 82h2v2h-2v-2z" fill="rgb(204,83,153)"/>
<path d="M76 82h2v2h-2v-2z" fill="rgb(84,11,53)"/>
<path d="M78 82h2v4h-2v-4z" fill="rgb(209,100,164)"/>
<path d="M80 82h2v2h2v-2h4v2h-2v2h-4v2h-4v-2h2v-4z" fill="rgb(226,129,207)"/>
<path d="M82 82h2v2h-2v-2z" fill="rgb(235,170,222)"/>
<path d="M88 82h2v2h-2v-2z" fill="rgb(204,83,153)"/>
<path d="M94 82h2v2h-2v-2z" fill="rgb(226,129,207)"/>
<path d="M96 82h2v2h-2v-2z" fill="rgb(209,100,164)"/>
<path d="M98 82h2v6h-2v-6z" fill="rgb(84,11,53)"/>
<path d="M18 84h2v2h-2v-2z" fill="rgb(209,100,164)"/>
<path d="M24 84h2v4h-2v-4z" fill="rgb(84,11,53)"/>
<path d="M26 84h2v2h-2v-2z" fill="rgb(209,100,164)"/>
<path d="M32 84h2v4h-4v-2h2v-2z" fill="rgb(209,100,164)"/>
<path d="M38 84h4v2h-2v6h-4v-2h2v-6z" fill="rgb(6,50,23)"/>
<path d="M42 84h4v2h-4v-2z" fill="rgb(204,83,153)"/>
<path d="M46 84h2v2h-2v-2z" fill="rgb(209,100,164)"/>
<path d="M68 84h2v2h-2v-2z" fill="rgb(204,83,153)"/>
<path d="M70 84h4v6h-2v-4h-2v-2z" fill="rgb(6,50,23)"/>
<path d="M74 84h2v2h-2v-2z" fill="rgb(84,11,53)"/>
<path d="M76 84h2v2h-2v-2z" fill="rgb(204,83,153)"/>
<path d="M86 84h2v2h-2v-2z" fill="rgb(209,100,164)"/>
<path d="M88 84h2v4h-2v-4z" fill="rgb(84,11,53)"/>
<path d="M90 84h2v4h2v2h-4v2h-4v-2h2v-2h2v-4z" fill="rgb(204,83,153)"/>
<path d="M92 84h4v2h-2v2h-2v-4z" fill="rgb(209,100,164)"/>
<path d="M96 84h2v4h-4v-2h2v-2z" fill="rgb(204,83,153)"/>
<path d="M26 86h2v2h-2v-2z" fill="rgb(204,83,153)"/>
<path d="M28 86h2v2h-2v-2z" fill="rgb(226,129,207)"/>
<path d="M40 86h2v2h-2v-2z" fill="rgb(144,216,23)"/>
<path d="M42 86h2v2h-2v-2z" fill="rgb(6,50,23)"/>
<path d="M44 86h2v2h-2v-2z" fill="rgb(49,83,0)"/>
<path d="M46 86h2v2h-2v-2z" fill="rgb(204,83,153)"/>
<path d="M50 86h2v4h-2v-4z" fill="rgb(226,129,207)"/>
<path d="M52 86h2v6h-2v-6z" fill="rgb(84,11,53)"/>
<path d="M68 86h2v2h-2v-2z" fill="rgb(6,50,23)"/>
<path d="M70 86h2v2h-2v-2z" fill="rgb(144,216,23)"/>
<path d="M74 86h2v2h4v2h-6v-4z" fill="rgb(204,83,153)"/>
<path d="M76 86h2v2h-2v-2z" fill="rgb(209,100,164)"/>
<path d="M82 86h2v4h-4v-2h2v-2z" fill="rgb(209,100,164)"/>
<path d="M84 86h4v2h-2v2h-2v-4z" fill="rgb(204,83,153)"/>
<path d="M16 88h4v2h-4v-2z" fill="rgb(84,11,53)"/>
<path d="M26 88h2v2h-2v-2z" fill="rgb(84,11,53)"/>
<path d="M40 88h4v2h-4v-2z" fill="rgb(107,183,0)"/>
<path d="M44 88h2v2h-2v-2z" fill="rgb(144,216,23)"/>
<path d="M46 88h2v2h-2v-2z" fill="rgb(49,83,0)"/>
<path d="M48 88h2v2h-2v-2z" fill="rgb(204,83,153)"/>
<path d="M66 88h2v2h-2v-2z" fill="rgb(6,50,23)"/>
<path d="M68 88h2v2h-2v-2z" fill="rgb(107,183,0)"/>
<path d="M70 88h2v4h-2v-4z" fill="rgb(96,149,6)"/>
<path d="M86 88h2v2h-2v-2z" fill="rgb(84,11,53)"/>
<path d="M94 88h4v2h-4v-2z" fill="rgb(84,11,53)"/>
<path d="M20 90h4v2h-4v-2z" fill="rgb(84,11,53)"/>
<path d="M28 90h2v2h-2v-2z" fill="rgb(84,11,53)"/>
<path d="M32 90h2v2h-2v-2z" fill="rgb(6,50,23)"/>
<path d="M34 90h2v2h-2v-2z" fill="rgb(49,83,0)"/>
<path d="M40 90h2v2h-2v-2z" fill="rgb(81,126,2)"/>
<path d="M42 90h2v2h-2v-2z" fill="rgb(96,149,6)"/>
<path d="M44 90h2v2h-2v-2z" fill="rgb(107,183,0)"/>
<path d="M46 90h2v2h-2v-2z" fill="rgb(144,216,23)"/>
<path d="M48 90h2v2h-2v-2z" fill="rgb(49,83,0)"/>
<path d="M50 90h2v2h-2v-2z" fill="rgb(204,83,153)"/>
<path d="M60 90h2v2h-2v-2z" fill="rgb(6,50,23)"/>
<path d="M62 90h2v2h-2v-2z" fill="rgb(49,83,0)"/>
<path d="M64 90h2v2h-2v-2z" fill="rgb(6,50,23)"/>
<path d="M66 90h2v2h-2v-2z" fill="rgb(107,183,0)"/>
<path d="M68 90h2v4h-2v2h-2v2h-2v-2h-2v-2h4v-2h2v-2z" fill="rgb(49,83,0)"/>
<path d="M72 90h2v2h-2v-2z" fill="rgb(107,183,0)"/>
<path d="M74 90h8v2h-8v-2z" fill="rgb(49,83,0)"/>
<path d="M82 90h2v2h-2v-2z" fill="rgb(204,83,153)"/>
<path d="M84 90h2v2h-2v-2z" fill="rgb(84,11,53)"/>
<path d="M90 90h4v2h-4v-2z" fill="rgb(84,11,53)"/>
<path d="M24 92h4v2h-4v-2z" fill="rgb(84,11,53)"/>
<path d="M28 92h4v2h-4v-2z" fill="rgb(6,50,23)"/>
<path d="M32 92h2v2h-2v-2z" fill="rgb(144,216,23)"/>
<path d="M34 92h2v2h-2v-2z" fill="rgb(107,183,0)"/>
<path d="M36 92h2v2h-2v-2z" fill="rgb(144,216,23)"/>
<path d="M38 92h2v2h-2v-2z" fill="rgb(107,183,0)"/>
<path d="M40 92h2v2h-2v-2z" fill="rgb(6,50,23)"/>
<path d="M42 92h2v2h-2v-2z" fill="rgb(81,126,2)"/>
<path d="M44 92h2v4h-2v-4z" fill="rgb(49,83,0)"/>
<path d="M46 92h2v2h-2v-2z" fill="rgb(107,183,0)"/>
<path d="M48 92h4v4h-4v-4z" fill="rgb(6,50,23)"/>
<path d="M58 92h2v2h-2v-2z" fill="rgb(6,50,23)"/>
<path d="M60 92h2v2h-2v-2z" fill="rgb(144,216,23)"/>
<path d="M62 92h4v2h-4v-2z" fill="rgb(107,183,0)"/>
<path d="M70 92h2v2h-2v-2z" fill="rgb(107,183,0)"/>
<path d="M72 92h2v2h-2v-2z" fill="rgb(6,50,23)"/>
<path d="M74 92h8v2h-8v-2z" fill="rgb(144,216,23)"/>
<path d="M82 92h4v2h-4v-2z" fill="rgb(6,50,23)"/>
<path d="M86 92h4v2h-2v2h-2v-4z" fill="rgb(84,11,53)"/>
<path d="M26 94h4v2h-4v-2z" fill="rgb(49,83,0)"/>
<path d="M30 94h2v2h-2v-2z" fill="rgb(144,216,23)"/>
<path d="M32 94h2v2h-2v-2z" fill="rgb(107,183,0)"/>
<path d="M34 94h6v2h-6v-2z" fill="rgb(49,83,0)"/>
<path d="M40 94h2v2h-2v-2z" fill="rgb(96,149,6)"/>
<path d="M42 94h2v2h2v2h-4v-4z" fill="rgb(6,50,23)"/>
<path d="M46 94h2v2h-2v-2z" fill="rgb(35,63,0)"/>
<path d="M52 94h2v2h-2v-2z" fill="rgb(49,83,0)"/>
<path d="M56 94h2v8h-2v-4h-2v-2h2v-2z" fill="rgb(49,83,0)"/>
<path d="M58 94h2v2h-2v-2z" fill="rgb(144,216,23)"/>
<path d="M60 94h2v2h-2v-2z" fill="rgb(96,149,6)"/>
<path d="M68 94h2v2h-2v-2z" fill="rgb(96,149,6)"/>
<path d="M70 94h2v2h-2v-2z" fill="rgb(6,50,23)"/>
<path d="M72 94h2v2h-2v-2z" fill="rgb(107,183,0)"/>
<path d="M74 94h4v2h-4v-2z" fill="rgb(49,83,0)"/>
<path d="M78 94h4v2h-4v-2z" fill="rgb(96,149,6)"/>
<path d="M82 94h2v2h-2v-2z" fill="rgb(107,183,0)"/>
<path d="M84 94h2v2h-2v-2z" fill="rgb(49,83,0)"/>
<path d="M26 96h2v2h-2v-2z" fill="rgb(6,50,23)"/>
<path d="M28 96h2v2h-2v-2z" fill="rgb(144,216,23)"/>
<path d="M30 96h2v2h-2v-2z" fill="rgb(107,183,0)"/>
<path d="M32 96h2v2h-2v-2z" fill="rgb(49,83,0)"/>
<path d="M34 96h4v2h-4v-2z" fill="rgb(96,149,6)"/>
<path d="M38 96h2v2h-2v-2z" fill="rgb(81,126,2)"/>
<path d="M40 96h2v2h-2v-2z" fill="rgb(35,63,0)"/>
<path d="M46 96h4v2h-4v-2z" fill="rgb(49,83,0)"/>
<path d="M50 96h2v2h2v2h2v2h-4v-2h-2v-4z" fill="rgb(96,149,6)"/>
<path d="M52 96h2v2h-2v-2z" fill="rgb(107,183,0)"/>
<path d="M58 96h2v4h-2v-4z" fill="rgb(107,183,0)"/>
<path d="M60 96h2v2h-2v-2z" fill="rgb(49,83,0)"/>
<path d="M62 96h2v4h-2v-4z" fill="rgb(107,183,0)"/>
<path d="M66 96h2v2h-2v-2z" fill="rgb(6,50,23)"/>
<path d="M68 96h4v2h-4v-2z" fill="rgb(49,83,0)"/>
<path d="M72 96h4v2h-4v-2z" fill="rgb(81,126,2)"/>
<path d="M76 96h2v2h-2v-2z" fill="rgb(96,149,6)"/>
<path d="M78 96h4v2h-4v-2z" fill="rgb(49,83,0)"/>
<path d="M82 96h2v2h-2v-2z" fill="rgb(96,149,6)"/>
<path d="M84 96h2v2h-2v-2z" fill="rgb(144,216,23)"/>
<path d="M86 96h2v4h-2v-4z" fill="rgb(49,83,0)"/>
<path d="M26 98h2v2h-2v-2z" fill="rgb(49,83,0)"/>
<path d="M28 98h2v4h-2v-4z" fill="rgb(107,183,0)"/>
<path d="M30 98h4v2h-4v-2z" fill="rgb(96,149,6)"/>
<path d="M34 98h2v2h-2v-2z" fill="rgb(81,126,2)"/>
<path d="M36 98h2v2h-2v-2z" fill="rgb(35,63,0)"/>
<path d="M38 98h4v2h-4v-2z" fill="rgb(49,83,0)"/>
<path d="M42 98h2v2h-2v-2z" fill="rgb(144,216,23)"/>
<path d="M44 98h2v2h-2v-2z" fill="rgb(107,183,0)"/>
<path d="M46 98h2v2h-2v-2z" fill="rgb(35,63,0)"/>
<path d="M48 98h2v4h2v2h-2v4h-2v-2h-2v-2h2v-6z" fill="rgb(6,50,23)"/>
<path d="M54 98h2v2h-2v-2z" fill="rgb(144,216,23)"/>
<path d="M60 98h2v2h-2v-2z" fill="rgb(96,149,6)"/>
<path d="M64 98h2v6h-2v-2h-2v-2h2v-2z" fill="rgb(6,50,23)"/>
<path d="M66 98h4v2h-4v-2z" fill="rgb(107,183,0)"/>
<path d="M70 98h2v2h-2v-2z" fill="rgb(144,216,23)"/>
<path d="M72 98h2v2h-2v-2z" fill="rgb(6,50,23)"/>
<path d="M74 98h2v2h-2v-2z" fill="rgb(49,83,0)"/>
<path d="M76 98h2v2h-2v-2z" fill="rgb(81,126,2)"/>
<path d="M78 98h4v2h2v2h-4v-2h-2v-2z" fill="rgb(96,149,6)"/>
<path d="M82 98h2v2h-2v-2z" fill="rgb(81,126,2)"/>
<path d="M84 98h2v2h-2v-2z" fill="rgb(96,149,6)"/>
<path d="M24 100h2v2h-2v-2z" fill="rgb(6,50,23)"/>
<path d="M26 100h2v2h-2v-2z" fill="rgb(144,216,23)"/>
<path d="M30 100h4v2h-4v-2z" fill="rgb(81,126,2)"/>
<path d="M34 100h2v2h-2v-2z" fill="rgb(35,63,0)"/>
<path d="M36 100h2v2h-2v-2z" fill="rgb(49,83,0)"/>
<path d="M38 100h2v2h-2v-2z" fill="rgb(144,216,23)"/>
<path d="M40 100h2v2h-2v-2z" fill="rgb(107,183,0)"/>
<path d="M42 100h4v2h-4v-2z" fill="rgb(49,83,0)"/>
<path d="M46 100h2v2h-2v-2z" fill="rgb(96,149,6)"/>
<path d="M50 100h2v2h-2v-2z" fill="rgb(107,183,0)"/>
<path d="M58 100h2v4h-2v-4z" fill="rgb(144,216,23)"/>
<path d="M60 100h2v2h-2v-2z" fill="rgb(107,183,0)"/>
<path d="M66 100h6v2h-6v-2z" fill="rgb(49,83,0)"/>
<path d="M72 100h2v2h-2v-2z" fill="rgb(107,183,0)"/>
<path d="M74 100h2v2h-2v-2z" fill="rgb(144,216,23)"/>
<path d="M76 100h2v2h-2v-2z" fill="rgb(49,83,0)"/>
<path d="M78 100h2v2h-2v-2z" fill="rgb(81,126,2)"/>
<path d="M84 100h2v2h-2v-2z" fill="rgb(107,183,0)"/>
<path d="M86 100h2v2h-2v-2z" fill="rgb(144,216,23)"/>
<path d="M88 100h2v6h-2v-6z" fill="rgb(49,83,0)"/>
<path d="M22 102h4v2h-4v-2z" fill="rgb(49,83,0)"/>
<path d="M26 102h8v2h-8v-2z" fill="rgb(6,50,23)"/>
<path d="M34 102h2v2h-2v-2z" fill="rgb(49,83,0)"/>
<path d="M36 102h4v2h-4v-2z" fill="rgb(107,183,0)"/>
<path d="M40 102h2v2h-2v-2z" fill="rgb(49,83,0)"/>
<path d="M42 102h4v4h-2v-2h-2v-2z" fill="rgb(81,126,2)"/>
<path d="M46 102h2v2h-2v-2z" fill="rgb(35,63,0)"/>
<path d="M52 102h2v2h-2v-2z" fill="rgb(144,216,23)"/>
<path d="M54 102h2v2h-2v-2z" fill="rgb(107,183,0)"/>
<path d="M56 102h2v2h2v2h-2v4h-2v-2h-2v-2h2v-4z" fill="rgb(6,50,23)"/>
<path d="M60 102h2v2h-2v-2z" fill="rgb(6,50,23)"/>
<path d="M62 102h2v2h2v2h-4v-4z" fill="rgb(5,101,31)"/>
<path d="M66 102h6v2h-2v2h-2v-2h-2v-2z" fill="rgb(81,126,2)"/>
<path d="M72 102h2v2h-2v-2z" fill="rgb(49,83,0)"/>
<path d="M74 102h2v4h-2v-4z" fill="rgb(81,126,2)"/>
<path d="M76 102h2v2h-2v-2z" fill="rgb(107,183,0)"/>
<path d="M78 102h2v2h-2v-2z" fill="rgb(6,50,23)"/>
<path d="M80 102h4v2h-2v8h-2v-10z" fill="rgb(49,83,0)"/>
<path d="M84 102h4v2h-4v-2z" fill="rgb(6,50,23)"/>
<path d="M90 102h2v2h-2v-2z" fill="rgb(6,50,23)"/>
<path d="M26 104h2v2h-2v-2z" fill="rgb(49,83,0)"/>
<path d="M28 104h6v2h-6v-2z" fill="rgb(35,63,0)"/>
<path d="M34 104h4v2h-2v4h2v2h-2v2h-2v-10z" fill="rgb(144,216,23)"/>
<path d="M38 104h2v2h-2v-2z" fill="rgb(49,83,0)"/>
<path d="M40 104h4v2h-2v2h-4v-2h2v-2z" fill="rgb(96,149,6)"/>
<path d="M50 104h2v2h2v2h-4v-4z" fill="rgb(255,255,255)"/>
<path d="M52 104h2v2h-2v-2z" fill="rgb(6,50,23)"/>
<path d="M54 104h2v2h-2v-2z" fill="rgb(144,216,23)"/>
<path d="M60 104h2v2h-2v-2z" fill="rgb(24,151,70)"/>
<path d="M66 104h2v2h2v2h-6v-2h2v-2z" fill="rgb(6,50,23)"/>
<path d="M70 104h4v2h2v2h-4v-2h-2v-2z" fill="rgb(96,149,6)"/>
<path d="M76 104h2v2h-2v-2z" fill="rgb(49,83,0)"/>
<path d="M78 104h2v4h-2v-4z" fill="rgb(144,216,23)"/>
<path d="M82 104h2v2h-2v-2z" fill="rgb(6,50,23)"/>
<path d="M84 104h2v2h-2v-2z" fill="rgb(107,183,0)"/>
<path d="M86 104h2v2h-2v-2z" fill="rgb(144,216,23)"/>
<path d="M22 106h2v2h-2v-2z" fill="rgb(6,50,23)"/>
<path d="M24 106h2v2h-2v-2z" fill="rgb(49,83,0)"/>
<path d="M26 106h2v2h-2v-2z" fill="rgb(144,216,23)"/>
<path d="M28 106h2v2h-2v-2z" fill="rgb(107,183,0)"/>
<path d="M30 106h4v6h-2v2h-2v-2h-6v-2h8v-2h-2v-2z" fill="rgb(49,83,0)"/>
<path d="M36 106h2v2h2v2h-4v-4z" fill="rgb(107,183,0)"/>
<path d="M42 106h2v2h-2v-2z" fill="rgb(81,126,2)"/>
<path d="M44 106h2v2h-2v-2z" fill="rgb(6,50,23)"/>
<path d="M46 106h2v2h2v4h-2v-2h-4v-2h2v-2z" fill="rgb(24,151,70)"/>
<path d="M58 106h2v6h-2v-6z" fill="rgb(24,151,70)"/>
<path d="M60 106h2v4h-2v-4z" fill="rgb(21,217,94)"/>
<path d="M62 106h2v2h-2v-2z" fill="rgb(24,151,70)"/>
<path d="M70 106h2v2h-2v-2z" fill="rgb(107,183,0)"/>
<path d="M76 106h2v2h-2v-2z" fill="rgb(81,126,2)"/>
<path d="M82 106h2v4h-2v-4z" fill="rgb(107,183,0)"/>
<path d="M84 106h2v2h-2v-2z" fill="rgb(81,126,2)"/>
<path d="M86 106h2v2h-2v-2z" fill="rgb(96,149,6)"/>
<path d="M88 106h2v2h-2v-2z" fill="rgb(107,183,0)"/>
<path d="M90 106h2v2h-2v-2z" fill="rgb(49,83,0)"/>
<path d="M20 108h2v2h-2v-2z" fill="rgb(49,83,0)"/>
<path d="M22 108h2v2h-2v-2z" fill="rgb(144,216,23)"/>
<path d="M24 108h2v2h-2v-2z" fill="rgb(107,183,0)"/>
<path d="M26 108h2v2h-2v-2z" fill="rgb(96,149,6)"/>
<path d="M28 108h2v2h-2v-2z" fill="rgb(81,126,2)"/>
<path d="M30 108h2v2h-2v-2z" fill="rgb(107,183,0)"/>
<path d="M40 108h4v2h-4v-2z" fill="rgb(6,50,23)"/>
<path d="M50 108h4v2h-4v-2z" fill="rgb(6,50,23)"/>
<path d="M54 108h2v4h-2v-4z" fill="rgb(24,151,70)"/>
<path d="M62 108h2v2h-2v-2z" fill="rgb(6,50,23)"/>
<path d="M64 108h6v2h-4v2h-4v-2h2v-2z" fill="rgb(255,255,255)"/>
<path d="M70 108h4v2h2v2h-2v6h-2v-4h-2v-2h2v-2h-2v-2z" fill="rgb(6,50,23)"/>
<path d="M74 108h2v2h-2v-2z" fill="rgb(107,183,0)"/>
<path d="M76 108h2v2h-2v-2z" fill="rgb(96,149,6)"/>
<path d="M78 108h2v2h-2v-2z" fill="rgb(107,183,0)"/>
<path d="M84 108h2v2h-2v-2z" fill="rgb(96,149,6)"/>
<path d="M86 108h2v2h-2v-2z" fill="rgb(49,83,0)"/>
<path d="M88 108h2v2h-2v-2z" fill="rgb(96,149,6)"/>
<path d="M90 108h2v2h-2v-2z" fill="rgb(144,216,23)"/>
<path d="M92 108h2v4h-2v-4z" fill="rgb(49,83,0)"/>
<path d="M18 110h2v2h-2v-2z" fill="rgb(49,83,0)"/>
<path d="M20 110h2v2h-2v-2z" fill="rgb(144,216,23)"/>
<path d="M22 110h2v2h2v2h-4v-4z" fill="rgb(96,149,6)"/>
<path d="M38 110h2v2h-2v-2z" fill="rgb(6,50,23)"/>
<path d="M40 110h4v2h-4v-2z" fill="rgb(255,255,255)"/>
<path d="M44 110h4v2h12v2h-2v2h8v2h-4v4h-2v-4h-2v6h2v10h-2v-8h-2v-10h-2v-2h-2v4
	h-2v-4h-2v10h-2v-12h-2v-2z" fill="rgb(6,50,23)"/>
<path d="M50 110h4v2h-4v-2z" fill="rgb(21,217,94)"/>
<path d="M56 110h2v2h-2v-2z" fill="rgb(5,101,31)"/>
<path d="M60 110h2v2h-2v-2z" fill="rgb(6,50,23)"/>
<path d="M66 110h4v2h-4v-2z" fill="rgb(6,50,23)"/>
<path d="M70 110h2v2h-2v-2z" fill="rgb(24,151,70)"/>
<path d="M76 110h2v2h-2v-2z" fill="rgb(107,183,0)"/>
<path d="M78 110h2v2h-2v-2z" fill="rgb(144,216,23)"/>
<path d="M82 110h2v2h-2v-2z" fill="rgb(6,50,23)"/>
<path d="M84 110h2v2h-2v-2z" fill="rgb(81,126,2)"/>
<path d="M86 110h2v2h-2v-2z" fill="rgb(96,149,6)"/>
<path d="M88 110h2v2h-2v-2z" fill="rgb(49,83,0)"/>
<path d="M90 110h2v4h-2v-4z" fill="rgb(96,149,6)"/>
<path d="M16 112h2v2h-2v-2z" fill="rgb(49,83,0)"/>
<path d="M18 112h2v2h-2v-2z" fill="rgb(144,216,23)"/>
<path d="M20 112h2v2h-2v-2z" fill="rgb(107,183,0)"/>
<path d="M26 112h4v2h-4v-2z" fill="rgb(81,126,2)"/>
<path d="M32 112h2v2h-2v-2z" fill="rgb(6,50,23)"/>
<path d="M36 112h2v2h-2v-2z" fill="rgb(6,50,23)"/>
<path d="M38 112h2v2h-2v-2z" fill="rgb(255,255,255)"/>
<path d="M40 112h4v2h-4v-2z" fill="rgb(6,50,23)"/>
<path d="M44 112h2v4h-2v-4z" fill="rgb(24,151,70)"/>
<path d="M60 112h2v2h2v2h-4v-4z" fill="rgb(21,217,94)"/>
<path d="M62 112h4v2h-4v-2z" fill="rgb(6,50,23)"/>
<path d="M66 112h4v2h-4v-2z" fill="rgb(24,151,70)"/>
<path d="M76 112h2v2h-2v-2z" fill="rgb(6,50,23)"/>
<path d="M78 112h2v2h-2v-2z" fill="rgb(107,183,0)"/>
<path d="M80 112h2v2h-2v-2z" fill="rgb(6,50,23)"/>
<path d="M84 112h4v2h-4v-2z" fill="rgb(6,50,23)"/>
<path d="M88 112h2v2h-2v-2z" fill="rgb(81,126,2)"/>
<path d="M92 112h2v2h-2v-2z" fill="rgb(144,216,23)"/>
<path d="M94 112h2v2h-2v-2z" fill="rgb(49,83,0)"/>
<path d="M18 114h4v2h-4v-2z" fill="rgb(49,83,0)"/>
<path d="M22 114h4v2h-4v-2z" fill="rgb(107,183,0)"/>
<path d="M26 114h4v2h-4v-2z" fill="rgb(49,83,0)"/>
<path d="M34 114h2v4h-2v-4z" fill="rgb(49,83,0)"/>
<path d="M36 114h2v4h-2v-4z" fill="rgb(255,255,255)"/>
<path d="M38 114h2v2h-2v-2z" fill="rgb(21,217,94)"/>
<path d="M40 114h2v2h2v2h-4v-4z" fill="rgb(24,151,70)"/>
<path d="M42 114h2v2h-2v-2z" fill="rgb(21,217,94)"/>
<path d="M52 114h2v4h-2v-4z" fill="rgb(24,151,70)"/>
<path d="M58 114h2v2h-2v-2z" fill="rgb(24,151,70)"/>
<path d="M64 114h2v2h-2v-2z" fill="rgb(24,151,70)"/>
<path d="M66 114h4v6h-2v-4h-2v-2z" fill="rgb(6,50,23)"/>
<path d="M70 114h2v2h-2v-2z" fill="rgb(24,151,70)"/>
<path d="M78 114h2v4h-2v-4z" fill="rgb(6,50,23)"/>
<path d="M88 114h2v2h-2v-2z" fill="rgb(6,50,23)"/>
<path d="M90 114h4v2h-4v-2z" fill="rgb(49,83,0)"/>
<path d="M22 116h4v2h-4v-2z" fill="rgb(49,83,0)"/>
<path d="M38 116h2v2h-2v-2z" fill="rgb(5,101,31)"/>
<path d="M44 116h2v4h-2v-4z" fill="rgb(21,217,94)"/>
<path d="M54 116h2v4h-2v-4z" fill="rgb(5,101,31)"/>
<path d="M66 116h2v4h-2v2h-4v-4h4v-2z" fill="rgb(255,255,255)"/>
<path d="M70 116h2v2h-2v-2z" fill="rgb(21,217,94)"/>
<path d="M36 118h2v2h-2v-2z" fill="rgb(21,217,94)"/>
<path d="M38 118h2v2h-2v-2z" fill="rgb(24,151,70)"/>
<path d="M40 118h2v2h-2v-2z" fill="rgb(5,101,31)"/>
<path d="M42 118h2v4h-2v-4z" fill="rgb(6,50,23)"/>
<path d="M52 118h2v6h-2v-6z" fill="rgb(6,50,23)"/>
<path d="M58 118h2v4h-2v-4z" fill="rgb(24,151,70)"/>
<path d="M70 118h4v2h-2v2h-4v-2h2v-2z" fill="rgb(24,151,70)"/>
<path d="M74 118h2v6h2v2h-4v-8z" fill="rgb(6,50,23)"/>
<path d="M44 120h2v4h-2v2h-2v-4h2v-2z" fill="rgb(24,151,70)"/>
<path d="M54 120h2v2h-2v-2z" fill="rgb(24,151,70)"/>
<path d="M66 120h2v2h-2v-2z" fill="rgb(5,101,31)"/>
<path d="M72 120h2v2h-2v-2z" fill="rgb(5,101,31)"/>
<path d="M40 122h2v8h-2v-8z" fill="rgb(6,50,23)"/>
<path d="M54 122h2v4h-4v-2h2v-2z" fill="rgb(21,217,94)"/>
<path d="M58 122h4v4h-2v-2h-2v-2z" fill="rgb(21,217,94)"/>
<path d="M62 122h2v16h-4v-2h2v-14z" fill="rgb(6,50,23)"/>
<path d="M64 122h2v2h-2v-2z" fill="rgb(21,217,94)"/>
<path d="M66 122h2v2h-2v-2z" fill="rgb(24,151,70)"/>
<path d="M68 122h2v2h-2v-2z" fill="rgb(21,217,94)"/>
<path d="M70 122h2v6h-2v-6z" fill="rgb(6,50,23)"/>
<path d="M72 122h2v4h-2v-4z" fill="rgb(24,151,70)"/>
<path d="M44 124h2v4h-2v-4z" fill="rgb(6,50,23)"/>
<path d="M50 124h2v6h-2v-6z" fill="rgb(6,50,23)"/>
<path d="M42 126h2v4h-2v-4z" fill="rgb(21,217,94)"/>
<path d="M52 126h2v4h-2v-4z" fill="rgb(24,151,70)"/>
<path d="M54 126h2v4h-2v-4z" fill="rgb(6,50,23)"/>
<path d="M60 126h2v2h-2v-2z" fill="rgb(24,151,70)"/>
<path d="M72 126h2v4h-2v-4z" fill="rgb(21,217,94)"/>
<path d="M74 126h2v2h-2v-2z" fill="rgb(24,151,70)"/>
<path d="M76 126h4v2h-4v-2z" fill="rgb(5,101,31)"/>
<path d="M44 128h2v2h-2v-2z" fill="rgb(24,151,70)"/>
<path d="M46 128h2v16h-2v-16z" fill="rgb(6,50,23)"/>
<path d="M60 128h2v4h-2v-4z" fill="rgb(5,101,31)"/>
<path d="M68 128h2v6h-2v-6z" fill="rgb(6,50,23)"/>
<path d="M70 128h2v6h-2v-6z" fill="rgb(24,151,70)"/>
<path d="M74 128h2v2h-2v-2z" fill="rgb(6,50,23)"/>
<path d="M76 128h2v2h-2v-2z" fill="rgb(21,217,94)"/>
<path d="M78 128h2v2h-2v-2z" fill="rgb(24,151,70)"/>
<path d="M80 128h2v2h-2v-2z" fill="rgb(21,217,94)"/>
<path d="M42 130h2v6h-2v-6z" fill="rgb(6,50,23)"/>
<path d="M44 130h2v4h-2v-4z" fill="rgb(5,101,31)"/>
<path d="M52 130h2v4h-2v-4z" fill="rgb(6,50,23)"/>
<path d="M72 130h2v4h-2v-4z" fill="rgb(6,50,23)"/>
<path d="M60 132h2v4h-4v-2h2v-2z" fill="rgb(24,151,70)"/>
<path d="M38 134h2v2h-2v-2z" fill="rgb(21,217,94)"/>
<path d="M40 134h2v2h2v2h-6v-2h2v-2z" fill="rgb(24,151,70)"/>
<path d="M44 134h2v2h-2v-2z" fill="rgb(24,151,70)"/>
<path d="M56 134h2v10h-2v-10z" fill="rgb(6,50,23)"/>
<path d="M70 134h2v4h-2v-4z" fill="rgb(6,50,23)"/>
<path d="M36 136h2v2h-2v-2z" fill="rgb(21,217,94)"/>
<path d="M44 136h2v2h-2v-2z" fill="rgb(21,217,94)"/>
<path d="M58 136h2v4h-2v-4z" fill="rgb(21,217,94)"/>
<path d="M40 138h2v2h-2v-2z" fill="rgb(5,101,31)"/>
<path d="M42 138h2v6h-2v-6z" fill="rgb(6,50,23)"/>
<path d="M44 138h2v2h-2v-2z" fill="rgb(24,151,70)"/>
<path d="M60 138h4v2h-4v-2z" fill="rgb(24,151,70)"/>
<path d="M64 138h2v2h-2v-2z" fill="rgb(21,217,94)"/>
<path d="M44 140h2v2h-2v-2z" fill="rgb(5,101,31)"/>
<path d="M54 140h2v2h-2v-2z" fill="rgb(21,217,94)"/>
<path d="M58 140h2v4h-2v-4z" fill="rgb(24,151,70)"/>
<path d="M60 140h2v4h-2v-4z" fill="rgb(6,50,23)"/>
<path d="M62 140h2v2h-2v-2z" fill="rgb(5,101,31)"/>
<path d="M64 140h2v2h-2v-2z" fill="rgb(24,151,70)"/>
<path d="M66 140h2v2h-2v-2z" fill="rgb(21,217,94)"/>
<path d="M44 142h2v2h-2v-2z" fill="rgb(24,151,70)"/>
<path d="M52 142h2v2h-2v-2z" fill="rgb(21,217,94)"/>
<path d="M54 142h2v2h-2v-2z" fill="rgb(24,151,70)"/>
<path d="M44 144h2v4h-2v-4z" fill="rgb(6,50,23)"/>
<path d="M58 144h2v8h-2v-8z" fill="rgb(6,50,23)"/>
</svg>