<?xml version="1.0" encoding="utf-8"?>
<!-- generated at drububu.com  -->
<!DOCTYPE svg PUBLIC "-//W3C//DTD SVG 1.1//EN" "http://www.w3.org/Graphics/SVG/1.1/DTD/svg11.dtd">
<svg version="1.1" preserveAspectRatio="xMinYMin meet" xmlns="http://www.w3.org/2000/svg" xmlns:xlink="http://www.w3.org/1999/xlink" x="0px" y="0px" width="38px" height="68px" viewBox="0 0 38 68">
<path d="M0 0h10v2h-4v2h-2v2h-2v2h-2v-8z" fill="rgb(255,255,255)"/>
<path d="M10 0h10v2h-10v-2z" fill="rgb(40,40,40)"/>
<path d="M20 0h18v8h-2v-2h-4v-2h-4v-2h-8v-2z" fill="rgb(255,255,255)"/>
<path d="M6 2h4v2h-4v-2z" fill="rgb(40,40,40)"/>
<path d="M10 2h2v4h-2v-4z" fill="rgb(166,167,166)"/>
<path d="M12 2h2v2h-2v-2z" fill="rgb(233,233,233)"/>
<path d="M14 2h4v2h-4v-2z" fill="rgb(246,246,246)"/>
<path d="M18 2h2v2h-2v-2z" fill="rgb(166,167,166)"/>
<path d="M20 2h8v2h-8v-2z" fill="rgb(40,40,40)"/>
<path d="M4 4h2v2h-2v-2z" fill="rgb(40,40,40)"/>
<path d="M6 4h2v2h-2v-2z" fill="rgb(166,167,166)"/>
<path d="M8 4h2v2h-2v-2z" fill="rgb(211,211,211)"/>
<path d="M12 4h4v2h-4v-2z" fill="rgb(211,211,211)"/>
<path d="M16 4h6v2h-6v-2z" fill="rgb(233,233,233)"/>
<path d="M22 4h2v2h-2v-2z" fill="rgb(246,246,246)"/>
<path d="M24 4h2v2h-2v-2z" fill="rgb(233,233,233)"/>
<path d="M26 4h2v2h-2v-2z" fill="rgb(166,167,166)"/>
<path d="M28 4h4v2h-4v-2z" fill="rgb(40,40,40)"/>
<path d="M2 6h2v2h-2v-2z" fill="rgb(40,40,40)"/>
<path d="M4 6h2v2h-2v-2z" fill="rgb(166,167,166)"/>
<path d="M6 6h2v2h-2v-2z" fill="rgb(233,233,233)"/>
<path d="M8 6h2v2h-2v-2z" fill="rgb(166,167,166)"/>
<path d="M10 6h2v2h-2v-2z" fill="rgb(211,211,211)"/>
<path d="M12 6h4v2h-2v4h-2v2h-2v-6h2v-2z" fill="rgb(166,167,166)"/>
<path d="M16 6h4v2h-2v2h-2v-4z" fill="rgb(211,211,211)"/>
<path d="M20 6h6v2h-2v2h-2v-2h-2v-2z" fill="rgb(166,167,166)"/>
<path d="M26 6h6v2h-4v4h2v2h-4v-4h-2v-2h2v-2z" fill="rgb(124,124,124)"/>
<path d="M32 6h4v2h-4v-2z" fill="rgb(40,40,40)"/>
<path d="M0 8h2v8h-2v-8z" fill="rgb(40,40,40)"/>
<path d="M2 8h2v2h-2v-2z" fill="rgb(166,167,166)"/>
<path d="M4 8h2v2h-2v-2z" fill="rgb(246,246,246)"/>
<path d="M6 8h4v2h-4v-2z" fill="rgb(211,211,211)"/>
<path d="M14 8h2v2h-2v-2z" fill="rgb(233,233,233)"/>
<path d="M18 8h2v6h2v2h2v2h-4v-2h-2v-2h-2v-4h2v-2z" fill="rgb(166,167,166)"/>
<path d="M20 8h2v2h2v6h-2v-2h-2v-6z" fill="rgb(124,124,124)"/>
<path d="M28 8h4v2h-2v2h-2v-4z" fill="rgb(166,167,166)"/>
<path d="M32 8h2v2h-2v-2z" fill="rgb(211,211,211)"/>
<path d="M34 8h2v2h-2v-2z" fill="rgb(124,124,124)"/>
<path d="M36 8h2v8h-2v-8z" fill="rgb(40,40,40)"/>
<path d="M2 10h2v4h-2v-4z" fill="rgb(233,233,233)"/>
<path d="M4 10h2v2h-2v-2z" fill="rgb(211,211,211)"/>
<path d="M6 10h2v2h-2v-2z" fill="rgb(166,167,166)"/>
<path d="M8 10h2v6h-2v-6z" fill="rgb(124,124,124)"/>
<path d="M14 10h2v4h-2v2h6v2h-8v-2h-2v-2h2v-2h2v-2z" fill="rgb(211,211,211)"/>
<path d="M24 10h2v4h2v2h-4v-6z" fill="rgb(166,167,166)"/>
<path d="M30 10h2v2h-2v-2z" fill="rgb(211,211,211)"/>
<path d="M32 10h2v2h-2v-2z" fill="rgb(246,246,246)"/>
<path d="M34 10h2v2h-2v-2z" fill="rgb(166,167,166)"/>
<path d="M4 12h2v4h-4v-2h2v-2z" fill="rgb(166,167,166)"/>
<path d="M6 12h2v2h-2v-2z" fill="rgb(211,211,211)"/>
<path d="M30 12h2v2h-2v-2z" fill="rgb(246,246,246)"/>
<path d="M32 12h4v2h-2v2h-2v-4z" fill="rgb(124,124,124)"/>
<path d="M6 14h2v2h-2v-2z" fill="rgb(86,86,86)"/>
<path d="M14 14h2v2h-2v-2z" fill="rgb(233,233,233)"/>
<path d="M16 14h2v2h-2v-2z" fill="rgb(246,246,246)"/>
<path d="M28 14h4v4h-2v2h-2v-2h-4v-2h4v-2z" fill="rgb(86,86,86)"/>
<path d="M34 14h2v2h-2v-2z" fill="rgb(166,167,166)"/>
<path d="M0 16h2v2h2v2h-2v12h2v10h-2v2h-2v-28z" fill="rgb(255,255,255)"/>
<path d="M2 16h2v2h-2v-2z" fill="rgb(40,40,40)"/>
<path d="M4 16h2v2h-2v-2z" fill="rgb(86,86,86)"/>
<path d="M6 16h2v2h-2v-2z" fill="rgb(124,124,124)"/>
<path d="M8 16h4v2h-4v-2z" fill="rgb(166,167,166)"/>
<path d="M32 16h4v2h-4v-2z" fill="rgb(40,40,40)"/>
<path d="M36 16h2v52h-14v-2h4v-2h2v-2h2v-2h2v-4h2v-12h-2v-2h-2v-10h2v-12h-2v-2
	h4v-2z" fill="rgb(255,255,255)"/>
<path d="M4 18h2v2h24v-2h2v2h2v12h-2v-10h-28v10h-2v-12h2v-2z" fill="rgb(40,40,40)"/>
<path d="M6 18h4v2h-4v-2z" fill="rgb(86,86,86)"/>
<path d="M10 18h10v2h-10v-2z" fill="rgb(124,124,124)"/>
<path d="M20 18h4v2h-4v-2z" fill="rgb(86,86,86)"/>
<path d="M24 18h4v2h-4v-2z" fill="rgb(124,124,124)"/>
<path d="M4 22h2v2h-2v-2z" fill="rgb(166,167,166)"/>
<path d="M6 22h4v2h-4v-2z" fill="rgb(211,211,211)"/>
<path d="M10 22h6v2h-6v-2z" fill="rgb(233,233,233)"/>
<path d="M16 22h4v2h-4v-2z" fill="rgb(246,246,246)"/>
<path d="M20 22h6v2h-4v2h-2v2h-2v-2h-2v-2h4v-2z" fill="rgb(233,233,233)"/>
<path d="M26 22h4v2h-4v-2z" fill="rgb(211,211,211)"/>
<path d="M30 22h2v2h-2v-2z" fill="rgb(166,167,166)"/>
<path d="M4 24h2v4h2v2h-4v-6z" fill="rgb(124,124,124)"/>
<path d="M6 24h6v2h-2v2h2v2h-4v-2h-2v-4z" fill="rgb(166,167,166)"/>
<path d="M12 24h2v2h2v2h-2v2h-2v-2h-2v-2h2v-2z" fill="rgb(211,211,211)"/>
<path d="M14 24h2v2h-2v-2z" fill="rgb(246,246,246)"/>
<path d="M22 24h2v2h2v2h-2v2h-2v-2h-2v-2h2v-2z" fill="rgb(211,211,211)"/>
<path d="M24 24h6v4h-2v2h-4v-2h2v-2h-2v-2z" fill="rgb(166,167,166)"/>
<path d="M30 24h2v6h-4v-2h2v-4z" fill="rgb(124,124,124)"/>
<path d="M16 26h2v2h-2v-2z" fill="rgb(246,246,246)"/>
<path d="M14 28h2v2h-2v-2z" fill="rgb(233,233,233)"/>
<path d="M16 28h4v2h-4v-2z" fill="rgb(211,211,211)"/>
<path d="M20 28h2v2h-2v-2z" fill="rgb(233,233,233)"/>
<path d="M4 30h2v2h-2v-2z" fill="rgb(62,62,62)"/>
<path d="M6 30h2v2h-2v-2z" fill="rgb(91,91,91)"/>
<path d="M8 30h20v2h-20v-2z" fill="rgb(62,62,62)"/>
<path d="M28 30h2v2h-2v-2z" fill="rgb(91,91,91)"/>
<path d="M30 30h2v2h-2v-2z" fill="rgb(62,62,62)"/>
<path d="M4 32h2v8h-2v-8z" fill="rgb(40,40,40)"/>
<path d="M6 32h2v6h-2v-6z" fill="rgb(124,124,124)"/>
<path d="M8 32h2v2h16v-2h2v4h-8v4h-2v-4h-10v-4z" fill="rgb(40,40,40)"/>
<path d="M10 32h2v2h-2v-2z" fill="rgb(82,82,82)"/>
<path d="M12 32h4v2h-4v-2z" fill="rgb(124,124,124)"/>
<path d="M16 32h2v2h-2v-2z" fill="rgb(166,167,166)"/>
<path d="M18 32h2v2h-2v-2z" fill="rgb(124,124,124)"/>
<path d="M20 32h2v2h-2v-2z" fill="rgb(166,167,166)"/>
<path d="M22 32h2v2h-2v-2z" fill="rgb(124,124,124)"/>
<path d="M24 32h2v2h-2v-2z" fill="rgb(82,82,82)"/>
<path d="M28 32h2v6h-2v-6z" fill="rgb(124,124,124)"/>
<path d="M30 32h2v8h-2v-8z" fill="rgb(40,40,40)"/>
<path d="M8 36h2v2h-2v-2z" fill="rgb(86,86,86)"/>
<path d="M10 36h6v2h-2v2h-2v-2h-2v-2z" fill="rgb(124,124,124)"/>
<path d="M16 36h2v4h-2v-4z" fill="rgb(62,62,62)"/>
<path d="M20 36h6v2h-2v2h-2v-2h-2v-2z" fill="rgb(124,124,124)"/>
<path d="M26 36h2v2h-2v-2z" fill="rgb(86,86,86)"/>
<path d="M6 38h2v2h-2v-2z" fill="rgb(86,86,86)"/>
<path d="M8 38h2v2h-2v-2z" fill="rgb(246,246,246)"/>
<path d="M10 38h2v2h-2v-2z" fill="rgb(166,167,166)"/>
<path d="M14 38h2v2h-2v-2z" fill="rgb(166,167,166)"/>
<path d="M20 38h2v2h-2v-2z" fill="rgb(166,167,166)"/>
<path d="M24 38h2v2h-2v-2z" fill="rgb(166,167,166)"/>
<path d="M26 38h2v2h-2v-2z" fill="rgb(246,246,246)"/>
<path d="M28 38h2v2h-2v-2z" fill="rgb(86,86,86)"/>
<path d="M4 40h2v2h-2v-2z" fill="rgb(86,86,86)"/>
<path d="M6 40h2v2h-2v-2z" fill="rgb(246,246,246)"/>
<path d="M8 40h2v2h2v2h-4v-4z" fill="rgb(166,167,166)"/>
<path d="M10 40h2v2h-2v-2z" fill="rgb(124,124,124)"/>
<path d="M12 40h2v2h-2v-2z" fill="rgb(166,167,166)"/>
<path d="M14 40h2v2h-2v-2z" fill="rgb(62,62,62)"/>
<path d="M16 40h4v2h2v2h2v2h2v2h2v10h-2v2h-6v8h-4v-8h-6v-2h-2v-10h2v-2h2v-2h2
	v-2h2v-2z" fill="rgb(255,255,255)"/>
<path d="M20 40h2v2h-2v-2z" fill="rgb(62,62,62)"/>
<path d="M22 40h2v2h-2v-2z" fill="rgb(166,167,166)"/>
<path d="M24 40h2v2h-2v-2z" fill="rgb(124,124,124)"/>
<path d="M26 40h2v4h-4v-2h2v-2z" fill="rgb(166,167,166)"/>
<path d="M28 40h2v2h-2v-2z" fill="rgb(246,246,246)"/>
<path d="M30 40h2v2h-2v-2z" fill="rgb(86,86,86)"/>
<path d="M2 42h2v2h-2v-2z" fill="rgb(40,40,40)"/>
<path d="M4 42h2v2h-2v-2z" fill="rgb(246,246,246)"/>
<path d="M6 42h2v2h2v2h-2v2h-4v-4h2v-2z" fill="rgb(211,211,211)"/>
<path d="M12 42h2v2h-2v-2z" fill="rgb(62,62,62)"/>
<path d="M22 42h2v2h-2v-2z" fill="rgb(62,62,62)"/>
<path d="M28 42h2v2h2v4h-4v-2h-2v-2h2v-2z" fill="rgb(211,211,211)"/>
<path d="M30 42h2v2h-2v-2z" fill="rgb(246,246,246)"/>
<path d="M32 42h2v2h-2v-2z" fill="rgb(40,40,40)"/>
<path d="M0 44h2v12h-2v-12z" fill="rgb(40,40,40)"/>
<path d="M2 44h2v6h-2v-6z" fill="rgb(246,246,246)"/>
<path d="M10 44h2v2h-2v-2z" fill="rgb(62,62,62)"/>
<path d="M24 44h2v2h-2v-2z" fill="rgb(40,40,40)"/>
<path d="M32 44h2v6h-2v-6z" fill="rgb(246,246,246)"/>
<path d="M34 44h2v12h-2v-12z" fill="rgb(40,40,40)"/>
<path d="M8 46h2v2h-2v-2z" fill="rgb(62,62,62)"/>
<path d="M26 46h2v2h-2v-2z" fill="rgb(62,62,62)"/>
<path d="M4 48h2v4h-2v-4z" fill="rgb(166,167,166)"/>
<path d="M6 48h2v10h-2v-10z" fill="rgb(40,40,40)"/>
<path d="M28 48h2v10h-2v-10z" fill="rgb(40,40,40)"/>
<path d="M30 48h2v4h-2v-4z" fill="rgb(166,167,166)"/>
<path d="M2 50h2v2h-2v-2z" fill="rgb(124,124,124)"/>
<path d="M32 50h2v2h-2v-2z" fill="rgb(124,124,124)"/>
<path d="M2 52h2v4h-2v-4z" fill="rgb(246,246,246)"/>
<path d="M4 52h2v2h-2v-2z" fill="rgb(124,124,124)"/>
<path d="M30 52h2v2h-2v-2z" fill="rgb(124,124,124)"/>
<path d="M32 52h2v4h-2v-4z" fill="rgb(246,246,246)"/>
<path d="M4 54h2v2h-2v-2z" fill="rgb(166,167,166)"/>
<path d="M30 54h2v2h-2v-2z" fill="rgb(166,167,166)"/>
<path d="M0 56h2v4h2v2h2v2h2v2h4v2h-12v-12z" fill="rgb(255,255,255)"/>
<path d="M2 56h2v4h-2v-4z" fill="rgb(40,40,40)"/>
<path d="M4 56h2v2h-2v-2z" fill="rgb(211,211,211)"/>
<path d="M30 56h2v2h-2v-2z" fill="rgb(211,211,211)"/>
<path d="M32 56h2v4h-2v-4z" fill="rgb(40,40,40)"/>
<path d="M4 58h2v2h-2v-2z" fill="rgb(124,124,124)"/>
<path d="M6 58h2v2h-2v-2z" fill="rgb(211,211,211)"/>
<path d="M8 58h2v2h-2v-2z" fill="rgb(40,40,40)"/>
<path d="M26 58h2v2h-2v-2z" fill="rgb(40,40,40)"/>
<path d="M28 58h2v2h-2v-2z" fill="rgb(211,211,211)"/>
<path d="M30 58h2v2h-2v-2z" fill="rgb(124,124,124)"/>
<path d="M4 60h2v2h-2v-2z" fill="rgb(40,40,40)"/>
<path d="M6 60h2v2h-2v-2z" fill="rgb(124,124,124)"/>
<path d="M8 60h2v2h-2v-2z" fill="rgb(246,246,246)"/>
<path d="M10 60h6v8h-4v-2h2v-4h-4v-2z" fill="rgb(40,40,40)"/>
<path d="M20 60h6v2h-4v4h2v2h-4v-8z" fill="rgb(40,40,40)"/>
<path d="M26 60h2v2h-2v-2z" fill="rgb(246,246,246)"/>
<path d="M28 60h2v2h-2v-2z" fill="rgb(124,124,124)"/>
<path d="M30 60h2v2h-2v-2z" fill="rgb(40,40,40)"/>
<path d="M6 62h2v2h-2v-2z" fill="rgb(40,40,40)"/>
<path d="M8 62h2v2h-2v-2z" fill="rgb(124,124,124)"/>
<path d="M10 62h2v2h-2v-2z" fill="rgb(211,211,211)"/>
<path d="M12 62h2v4h-2v-4z" fill="rgb(246,246,246)"/>
<path d="M22 62h2v4h-2v-4z" fill="rgb(246,246,246)"/>
<path d="M24 62h2v2h-2v-2z" fill="rgb(211,211,211)"/>
<path d="M26 62h2v2h-2v-2z" fill="rgb(124,124,124)"/>
<path d="M28 62h2v2h-2v-2z" fill="rgb(40,40,40)"/>
<path d="M8 64h4v2h-4v-2z" fill="rgb(40,40,40)"/>
<path d="M24 64h4v2h-4v-2z" fill="rgb(40,40,40)"/>
</svg>