<?xml version="1.0" encoding="utf-8"?>
<!-- generated at drububu.com  -->
<!DOCTYPE svg PUBLIC "-//W3C//DTD SVG 1.1//EN" "http://www.w3.org/Graphics/SVG/1.1/DTD/svg11.dtd">
<svg version="1.1" preserveAspectRatio="xMinYMin meet" xmlns="http://www.w3.org/2000/svg" xmlns:xlink="http://www.w3.org/1999/xlink" x="0px" y="0px" width="38px" height="76px" viewBox="0 0 38 76">
<path d="M0 0h10v2h-4v2h-2v2h-2v2h-2v-8z" fill="rgb(255,255,255)"/>
<path d="M10 0h10v2h-10v-2z" fill="rgb(40,40,40)"/>
<path d="M20 0h18v8h-2v-2h-4v-2h-4v-2h-8v-2z" fill="rgb(255,255,255)"/>
<path d="M6 2h4v2h-4v-2z" fill="rgb(40,40,40)"/>
<path d="M10 2h2v4h-2v-4z" fill="rgb(166,167,166)"/>
<path d="M12 2h2v2h-2v-2z" fill="rgb(233,233,233)"/>
<path d="M14 2h4v2h-4v-2z" fill="rgb(246,246,246)"/>
<path d="M18 2h2v2h-2v-2z" fill="rgb(166,167,166)"/>
<path d="M20 2h8v2h-8v-2z" fill="rgb(40,40,40)"/>
<path d="M4 4h2v2h-2v-2z" fill="rgb(40,40,40)"/>
<path d="M6 4h2v2h-2v-2z" fill="rgb(166,167,166)"/>
<path d="M8 4h2v2h-2v-2z" fill="rgb(211,211,211)"/>
<path d="M12 4h4v2h-4v-2z" fill="rgb(211,211,211)"/>
<path d="M16 4h6v2h-6v-2z" fill="rgb(233,233,233)"/>
<path d="M22 4h2v2h-2v-2z" fill="rgb(246,246,246)"/>
<path d="M24 4h2v2h-2v-2z" fill="rgb(233,233,233)"/>
<path d="M26 4h2v2h-2v-2z" fill="rgb(166,167,166)"/>
<path d="M28 4h4v2h-4v-2z" fill="rgb(40,40,40)"/>
<path d="M2 6h2v2h-2v-2z" fill="rgb(40,40,40)"/>
<path d="M4 6h2v2h-2v-2z" fill="rgb(166,167,166)"/>
<path d="M6 6h2v2h-2v-2z" fill="rgb(233,233,233)"/>
<path d="M8 6h2v2h-2v-2z" fill="rgb(166,167,166)"/>
<path d="M10 6h2v2h-2v-2z" fill="rgb(211,211,211)"/>
<path d="M12 6h4v2h-2v4h-2v2h-2v-6h2v-2z" fill="rgb(166,167,166)"/>
<path d="M16 6h4v2h-2v2h-2v-4z" fill="rgb(211,211,211)"/>
<path d="M20 6h6v2h-2v2h-2v-2h-2v-2z" fill="rgb(166,167,166)"/>
<path d="M26 6h6v2h-4v4h2v2h-4v-4h-2v-2h2v-2z" fill="rgb(124,124,124)"/>
<path d="M32 6h4v2h-4v-2z" fill="rgb(40,40,40)"/>
<path d="M0 8h2v8h-2v-8z" fill="rgb(40,40,40)"/>
<path d="M2 8h2v2h-2v-2z" fill="rgb(166,167,166)"/>
<path d="M4 8h2v2h-2v-2z" fill="rgb(246,246,246)"/>
<path d="M6 8h4v2h-4v-2z" fill="rgb(211,211,211)"/>
<path d="M14 8h2v2h-2v-2z" fill="rgb(233,233,233)"/>
<path d="M18 8h2v6h2v2h2v2h-4v-2h-2v-2h-2v-4h2v-2z" fill="rgb(166,167,166)"/>
<path d="M20 8h2v2h2v6h-2v-2h-2v-6z" fill="rgb(124,124,124)"/>
<path d="M28 8h4v2h-2v2h-2v-4z" fill="rgb(166,167,166)"/>
<path d="M32 8h2v2h-2v-2z" fill="rgb(211,211,211)"/>
<path d="M34 8h2v2h-2v-2z" fill="rgb(124,124,124)"/>
<path d="M36 8h2v8h-2v-8z" fill="rgb(40,40,40)"/>
<path d="M2 10h2v4h-2v-4z" fill="rgb(233,233,233)"/>
<path d="M4 10h2v2h-2v-2z" fill="rgb(211,211,211)"/>
<path d="M6 10h2v2h-2v-2z" fill="rgb(166,167,166)"/>
<path d="M8 10h2v6h-2v-6z" fill="rgb(124,124,124)"/>
<path d="M14 10h2v4h-2v2h6v2h-8v-2h-2v-2h2v-2h2v-2z" fill="rgb(211,211,211)"/>
<path d="M24 10h2v4h2v2h-4v-6z" fill="rgb(166,167,166)"/>
<path d="M30 10h2v2h-2v-2z" fill="rgb(211,211,211)"/>
<path d="M32 10h2v2h-2v-2z" fill="rgb(246,246,246)"/>
<path d="M34 10h2v2h-2v-2z" fill="rgb(166,167,166)"/>
<path d="M4 12h2v4h-4v-2h2v-2z" fill="rgb(166,167,166)"/>
<path d="M6 12h2v2h-2v-2z" fill="rgb(211,211,211)"/>
<path d="M30 12h2v2h-2v-2z" fill="rgb(246,246,246)"/>
<path d="M32 12h4v2h-2v2h-2v-4z" fill="rgb(124,124,124)"/>
<path d="M6 14h2v2h-2v-2z" fill="rgb(86,86,86)"/>
<path d="M14 14h2v2h-2v-2z" fill="rgb(233,233,233)"/>
<path d="M16 14h2v2h-2v-2z" fill="rgb(246,246,246)"/>
<path d="M28 14h4v4h-2v2h-2v-2h-4v-2h4v-2z" fill="rgb(86,86,86)"/>
<path d="M34 14h2v2h-2v-2z" fill="rgb(166,167,166)"/>
<path d="M0 16h2v2h2v2h-2v12h6v44h-8v-60z" fill="rgb(255,255,255)"/>
<path d="M2 16h2v2h-2v-2z" fill="rgb(40,40,40)"/>
<path d="M4 16h2v2h-2v-2z" fill="rgb(86,86,86)"/>
<path d="M6 16h2v2h-2v-2z" fill="rgb(124,124,124)"/>
<path d="M8 16h4v2h-4v-2z" fill="rgb(166,167,166)"/>
<path d="M32 16h4v2h-4v-2z" fill="rgb(40,40,40)"/>
<path d="M36 16h2v60h-10v-6h2v-2h2v-6h-4v-30h6v-12h-2v-2h4v-2z" fill="rgb(255,255,255)"/>
<path d="M4 18h2v2h24v-2h2v2h2v12h-6v30h-2v-26h-16v38h16v-4h2v6h-20v-44h-6v-12
	h2v-2z" fill="rgb(40,40,40)"/>
<path d="M6 18h4v2h-4v-2z" fill="rgb(86,86,86)"/>
<path d="M10 18h10v2h-10v-2z" fill="rgb(124,124,124)"/>
<path d="M20 18h4v2h-4v-2z" fill="rgb(86,86,86)"/>
<path d="M24 18h4v2h-4v-2z" fill="rgb(124,124,124)"/>
<path d="M4 22h2v2h-2v-2z" fill="rgb(166,167,166)"/>
<path d="M6 22h4v2h-4v-2z" fill="rgb(211,211,211)"/>
<path d="M10 22h6v2h-6v-2z" fill="rgb(233,233,233)"/>
<path d="M16 22h4v2h-4v-2z" fill="rgb(246,246,246)"/>
<path d="M20 22h6v2h-4v2h-2v2h-2v-2h-2v-2h4v-2z" fill="rgb(233,233,233)"/>
<path d="M26 22h4v2h-4v-2z" fill="rgb(211,211,211)"/>
<path d="M30 22h2v2h-2v-2z" fill="rgb(166,167,166)"/>
<path d="M4 24h2v4h2v2h-4v-6z" fill="rgb(124,124,124)"/>
<path d="M6 24h6v2h-2v2h2v2h-4v-2h-2v-4z" fill="rgb(166,167,166)"/>
<path d="M12 24h2v2h2v2h-2v2h-2v-2h-2v-2h2v-2z" fill="rgb(211,211,211)"/>
<path d="M14 24h2v2h-2v-2z" fill="rgb(246,246,246)"/>
<path d="M22 24h2v2h2v2h-2v2h-2v-2h-2v-2h2v-2z" fill="rgb(211,211,211)"/>
<path d="M24 24h6v4h-2v2h-4v-2h2v-2h-2v-2z" fill="rgb(166,167,166)"/>
<path d="M30 24h2v6h-4v-2h2v-4z" fill="rgb(124,124,124)"/>
<path d="M16 26h2v2h-2v-2z" fill="rgb(246,246,246)"/>
<path d="M14 28h2v2h-2v-2z" fill="rgb(233,233,233)"/>
<path d="M16 28h4v2h-4v-2z" fill="rgb(211,211,211)"/>
<path d="M20 28h2v2h-2v-2z" fill="rgb(233,233,233)"/>
<path d="M10 32h2v2h-2v-2z" fill="rgb(82,82,82)"/>
<path d="M12 32h2v2h-2v-2z" fill="rgb(124,124,124)"/>
<path d="M14 32h4v2h-4v-2z" fill="rgb(166,167,166)"/>
<path d="M18 32h2v2h-2v-2z" fill="rgb(124,124,124)"/>
<path d="M20 32h2v2h-2v-2z" fill="rgb(166,167,166)"/>
<path d="M22 32h2v2h-2v-2z" fill="rgb(124,124,124)"/>
<path d="M24 32h2v2h-2v-2z" fill="rgb(82,82,82)"/>
<path d="M10 36h16v34h-2v-32h-12v32h-2v-34z" fill="rgb(124,124,124)"/>
<path d="M12 38h2v12h-2v-12z" fill="rgb(211,211,211)"/>
<path d="M14 38h4v30h-2v-2h-2v-2h2v-2h-2v-2h2v-2h-2v-2h2v-2h-2v-2h2v-2h-2v-12z" fill="rgb(164,165,164)"/>
<path d="M18 38h2v22h2v4h-2v2h2v2h-2v2h-4v-2h2v-30z" fill="rgb(211,211,211)"/>
<path d="M20 38h2v8h-2v-8z" fill="rgb(233,233,233)"/>
<path d="M22 38h2v32h-2v-32z" fill="rgb(164,165,164)"/>
<path d="M20 46h2v10h-2v-10z" fill="rgb(246,246,246)"/>
<path d="M12 50h2v2h-2v-2z" fill="rgb(62,62,62)"/>
<path d="M14 50h2v2h-2v-2z" fill="rgb(124,124,124)"/>
<path d="M12 52h2v2h-2v-2z" fill="rgb(211,211,211)"/>
<path d="M12 54h2v2h-2v-2z" fill="rgb(62,62,62)"/>
<path d="M14 54h2v2h-2v-2z" fill="rgb(124,124,124)"/>
<path d="M12 56h2v2h-2v-2z" fill="rgb(211,211,211)"/>
<path d="M20 56h2v4h-2v-4z" fill="rgb(233,233,233)"/>
<path d="M12 58h2v2h-2v-2z" fill="rgb(62,62,62)"/>
<path d="M14 58h2v2h-2v-2z" fill="rgb(124,124,124)"/>
<path d="M12 60h2v2h-2v-2z" fill="rgb(211,211,211)"/>
<path d="M12 62h2v2h-2v-2z" fill="rgb(62,62,62)"/>
<path d="M14 62h2v2h-2v-2z" fill="rgb(124,124,124)"/>
<path d="M26 62h2v8h-2v-8z" fill="rgb(86,86,86)"/>
<path d="M28 62h4v6h-2v-4h-2v-2z" fill="rgb(40,40,40)"/>
<path d="M12 64h2v2h-2v-2z" fill="rgb(211,211,211)"/>
<path d="M20 64h2v2h-2v-2z" fill="rgb(233,233,233)"/>
<path d="M28 64h2v2h-2v-2z" fill="rgb(211,211,211)"/>
<path d="M12 66h2v2h-2v-2z" fill="rgb(62,62,62)"/>
<path d="M14 66h2v2h-2v-2z" fill="rgb(124,124,124)"/>
<path d="M28 66h2v2h-2v-2z" fill="rgb(124,124,124)"/>
<path d="M12 68h2v2h-2v-2z" fill="rgb(164,165,164)"/>
<path d="M14 68h2v2h-2v-2z" fill="rgb(166,167,166)"/>
<path d="M20 68h2v2h-2v-2z" fill="rgb(166,167,166)"/>
<path d="M28 68h2v2h-2v-2z" fill="rgb(40,40,40)"/>
<path d="M10 70h16v2h-16v-2z" fill="rgb(86,86,86)"/>
<path d="M10 72h4v2h-4v-2z" fill="rgb(164,165,164)"/>
<path d="M14 72h4v2h-4v-2z" fill="rgb(211,211,211)"/>
<path d="M18 72h4v2h-4v-2z" fill="rgb(246,246,246)"/>
<path d="M22 72h2v2h-2v-2z" fill="rgb(211,211,211)"/>
<path d="M24 72h2v2h-2v-2z" fill="rgb(124,124,124)"/>
</svg>