<?xml version="1.0" encoding="utf-8"?>
<!-- generated at drububu.com  -->
<!DOCTYPE svg PUBLIC "-//W3C//DTD SVG 1.1//EN" "http://www.w3.org/Graphics/SVG/1.1/DTD/svg11.dtd">
<svg version="1.1" preserveAspectRatio="xMinYMin meet" xmlns="http://www.w3.org/2000/svg" xmlns:xlink="http://www.w3.org/1999/xlink" x="0px" y="0px" width="40px" height="62px" viewBox="0 0 40 62">
<path d="M0 0h12v2h-4v2h-2v2h-2v2h-2v8h2v2h2v2h-2v12h2v10h-2v2h-2v2h-2v-46z" fill="rgb(255,255,255)"/>
<path d="M12 0h10v2h-10v-2z" fill="rgb(40,40,40)"/>
<path d="M22 0h18v8h-2v-2h-4v-2h-4v-2h-8v-2z" fill="rgb(255,255,255)"/>
<path d="M8 2h4v2h-4v-2z" fill="rgb(40,40,40)"/>
<path d="M12 2h2v4h-2v-4z" fill="rgb(166,167,166)"/>
<path d="M14 2h2v2h-2v-2z" fill="rgb(233,233,233)"/>
<path d="M16 2h4v2h-4v-2z" fill="rgb(246,246,246)"/>
<path d="M20 2h2v2h-2v-2z" fill="rgb(166,167,166)"/>
<path d="M22 2h8v2h-8v-2z" fill="rgb(40,40,40)"/>
<path d="M6 4h2v2h-2v-2z" fill="rgb(40,40,40)"/>
<path d="M8 4h2v2h-2v-2z" fill="rgb(166,167,166)"/>
<path d="M10 4h2v2h-2v-2z" fill="rgb(211,211,211)"/>
<path d="M14 4h4v2h-4v-2z" fill="rgb(211,211,211)"/>
<path d="M18 4h6v2h-6v-2z" fill="rgb(233,233,233)"/>
<path d="M24 4h2v2h-2v-2z" fill="rgb(246,246,246)"/>
<path d="M26 4h2v2h-2v-2z" fill="rgb(233,233,233)"/>
<path d="M28 4h2v2h-2v-2z" fill="rgb(166,167,166)"/>
<path d="M30 4h4v2h-4v-2z" fill="rgb(40,40,40)"/>
<path d="M4 6h2v2h-2v-2z" fill="rgb(40,40,40)"/>
<path d="M6 6h2v2h-2v-2z" fill="rgb(166,167,166)"/>
<path d="M8 6h2v2h-2v-2z" fill="rgb(233,233,233)"/>
<path d="M10 6h2v2h-2v-2z" fill="rgb(166,167,166)"/>
<path d="M12 6h2v2h-2v-2z" fill="rgb(211,211,211)"/>
<path d="M14 6h4v2h-2v4h-2v2h-2v-6h2v-2z" fill="rgb(166,167,166)"/>
<path d="M18 6h4v2h-2v2h-2v-4z" fill="rgb(211,211,211)"/>
<path d="M22 6h6v2h-2v2h-2v-2h-2v-2z" fill="rgb(166,167,166)"/>
<path d="M28 6h6v2h-4v4h2v2h-4v-4h-2v-2h2v-2z" fill="rgb(124,124,124)"/>
<path d="M34 6h4v2h-4v-2z" fill="rgb(40,40,40)"/>
<path d="M2 8h2v8h-2v-8z" fill="rgb(40,40,40)"/>
<path d="M4 8h2v2h-2v-2z" fill="rgb(166,167,166)"/>
<path d="M6 8h2v2h-2v-2z" fill="rgb(246,246,246)"/>
<path d="M8 8h4v2h-4v-2z" fill="rgb(211,211,211)"/>
<path d="M16 8h2v2h-2v-2z" fill="rgb(233,233,233)"/>
<path d="M20 8h2v6h2v2h2v2h-4v-2h-2v-2h-2v-4h2v-2z" fill="rgb(166,167,166)"/>
<path d="M22 8h2v2h2v6h-2v-2h-2v-6z" fill="rgb(124,124,124)"/>
<path d="M30 8h4v2h-2v2h-2v-4z" fill="rgb(166,167,166)"/>
<path d="M34 8h2v2h-2v-2z" fill="rgb(211,211,211)"/>
<path d="M36 8h2v2h-2v-2z" fill="rgb(124,124,124)"/>
<path d="M38 8h2v8h-2v-8z" fill="rgb(40,40,40)"/>
<path d="M4 10h2v4h-2v-4z" fill="rgb(233,233,233)"/>
<path d="M6 10h2v2h-2v-2z" fill="rgb(211,211,211)"/>
<path d="M8 10h2v2h-2v-2z" fill="rgb(166,167,166)"/>
<path d="M10 10h2v6h-2v-6z" fill="rgb(124,124,124)"/>
<path d="M16 10h2v4h-2v2h6v2h-8v-2h-2v-2h2v-2h2v-2z" fill="rgb(211,211,211)"/>
<path d="M26 10h2v4h2v2h-4v-6z" fill="rgb(166,167,166)"/>
<path d="M32 10h2v2h-2v-2z" fill="rgb(211,211,211)"/>
<path d="M34 10h2v2h-2v-2z" fill="rgb(246,246,246)"/>
<path d="M36 10h2v2h-2v-2z" fill="rgb(166,167,166)"/>
<path d="M6 12h2v4h-4v-2h2v-2z" fill="rgb(166,167,166)"/>
<path d="M8 12h2v2h-2v-2z" fill="rgb(211,211,211)"/>
<path d="M32 12h2v2h-2v-2z" fill="rgb(246,246,246)"/>
<path d="M34 12h4v2h-2v2h-2v-4z" fill="rgb(124,124,124)"/>
<path d="M8 14h2v2h-2v-2z" fill="rgb(86,86,86)"/>
<path d="M16 14h2v2h-2v-2z" fill="rgb(233,233,233)"/>
<path d="M18 14h2v2h-2v-2z" fill="rgb(246,246,246)"/>
<path d="M30 14h4v4h-2v2h-2v-2h-4v-2h4v-2z" fill="rgb(86,86,86)"/>
<path d="M36 14h2v2h-2v-2z" fill="rgb(166,167,166)"/>
<path d="M4 16h2v2h-2v-2z" fill="rgb(40,40,40)"/>
<path d="M6 16h2v2h-2v-2z" fill="rgb(86,86,86)"/>
<path d="M8 16h2v2h-2v-2z" fill="rgb(124,124,124)"/>
<path d="M10 16h4v2h-4v-2z" fill="rgb(166,167,166)"/>
<path d="M34 16h4v2h-4v-2z" fill="rgb(40,40,40)"/>
<path d="M38 16h2v30h-2v-2h-2v-2h-2v-10h2v-12h-2v-2h4v-2z" fill="rgb(255,255,255)"/>
<path d="M6 18h2v2h24v-2h2v2h2v12h-2v-10h-28v10h-2v-12h2v-2z" fill="rgb(40,40,40)"/>
<path d="M8 18h4v2h-4v-2z" fill="rgb(86,86,86)"/>
<path d="M12 18h10v2h-10v-2z" fill="rgb(124,124,124)"/>
<path d="M22 18h4v2h-4v-2z" fill="rgb(86,86,86)"/>
<path d="M26 18h4v2h-4v-2z" fill="rgb(124,124,124)"/>
<path d="M6 22h2v2h-2v-2z" fill="rgb(166,167,166)"/>
<path d="M8 22h4v2h-4v-2z" fill="rgb(211,211,211)"/>
<path d="M12 22h6v2h-6v-2z" fill="rgb(233,233,233)"/>
<path d="M18 22h4v2h-4v-2z" fill="rgb(246,246,246)"/>
<path d="M22 22h6v2h-4v2h-2v2h-2v-2h-2v-2h4v-2z" fill="rgb(233,233,233)"/>
<path d="M28 22h4v2h-4v-2z" fill="rgb(211,211,211)"/>
<path d="M32 22h2v2h-2v-2z" fill="rgb(166,167,166)"/>
<path d="M6 24h2v4h2v2h-4v-6z" fill="rgb(124,124,124)"/>
<path d="M8 24h6v2h-2v2h2v2h-4v-2h-2v-4z" fill="rgb(166,167,166)"/>
<path d="M14 24h2v2h2v2h-2v2h-2v-2h-2v-2h2v-2z" fill="rgb(211,211,211)"/>
<path d="M16 24h2v2h-2v-2z" fill="rgb(246,246,246)"/>
<path d="M24 24h2v2h2v2h-2v2h-2v-2h-2v-2h2v-2z" fill="rgb(211,211,211)"/>
<path d="M26 24h6v4h-2v2h-4v-2h2v-2h-2v-2z" fill="rgb(166,167,166)"/>
<path d="M32 24h2v6h-4v-2h2v-4z" fill="rgb(124,124,124)"/>
<path d="M18 26h2v2h-2v-2z" fill="rgb(246,246,246)"/>
<path d="M16 28h2v2h-2v-2z" fill="rgb(233,233,233)"/>
<path d="M18 28h4v2h-4v-2z" fill="rgb(211,211,211)"/>
<path d="M22 28h2v2h-2v-2z" fill="rgb(233,233,233)"/>
<path d="M6 30h2v2h-2v-2z" fill="rgb(62,62,62)"/>
<path d="M8 30h2v2h-2v-2z" fill="rgb(91,91,91)"/>
<path d="M10 30h20v2h-20v-2z" fill="rgb(62,62,62)"/>
<path d="M30 30h2v2h-2v-2z" fill="rgb(91,91,91)"/>
<path d="M32 30h2v2h-2v-2z" fill="rgb(62,62,62)"/>
<path d="M6 32h2v8h-2v-8z" fill="rgb(40,40,40)"/>
<path d="M8 32h2v6h-2v-6z" fill="rgb(124,124,124)"/>
<path d="M10 32h2v2h16v-2h2v4h-8v4h-2v-4h-10v-4z" fill="rgb(40,40,40)"/>
<path d="M12 32h2v2h-2v-2z" fill="rgb(82,82,82)"/>
<path d="M14 32h4v2h-4v-2z" fill="rgb(124,124,124)"/>
<path d="M18 32h2v2h-2v-2z" fill="rgb(166,167,166)"/>
<path d="M20 32h2v2h-2v-2z" fill="rgb(124,124,124)"/>
<path d="M22 32h2v2h-2v-2z" fill="rgb(166,167,166)"/>
<path d="M24 32h2v2h-2v-2z" fill="rgb(124,124,124)"/>
<path d="M26 32h2v2h-2v-2z" fill="rgb(82,82,82)"/>
<path d="M30 32h2v6h-2v-6z" fill="rgb(124,124,124)"/>
<path d="M32 32h2v8h-2v-8z" fill="rgb(40,40,40)"/>
<path d="M10 36h2v2h-2v-2z" fill="rgb(86,86,86)"/>
<path d="M12 36h6v2h-2v2h-2v-2h-2v-2z" fill="rgb(124,124,124)"/>
<path d="M18 36h2v4h-2v-4z" fill="rgb(62,62,62)"/>
<path d="M22 36h6v2h-2v2h-2v-2h-2v-2z" fill="rgb(124,124,124)"/>
<path d="M28 36h2v2h-2v-2z" fill="rgb(86,86,86)"/>
<path d="M8 38h2v2h-2v-2z" fill="rgb(86,86,86)"/>
<path d="M10 38h2v2h-2v-2z" fill="rgb(246,246,246)"/>
<path d="M12 38h2v2h-2v-2z" fill="rgb(166,167,166)"/>
<path d="M16 38h2v2h-2v-2z" fill="rgb(166,167,166)"/>
<path d="M22 38h2v2h-2v-2z" fill="rgb(166,167,166)"/>
<path d="M26 38h2v2h-2v-2z" fill="rgb(166,167,166)"/>
<path d="M28 38h2v2h-2v-2z" fill="rgb(246,246,246)"/>
<path d="M30 38h2v2h-2v-2z" fill="rgb(86,86,86)"/>
<path d="M6 40h2v2h-2v-2z" fill="rgb(86,86,86)"/>
<path d="M8 40h2v2h-2v-2z" fill="rgb(246,246,246)"/>
<path d="M10 40h2v2h2v2h-4v-4z" fill="rgb(166,167,166)"/>
<path d="M12 40h2v2h-2v-2z" fill="rgb(124,124,124)"/>
<path d="M14 40h2v2h-2v-2z" fill="rgb(166,167,166)"/>
<path d="M16 40h2v2h-2v-2z" fill="rgb(62,62,62)"/>
<path d="M18 40h4v2h-4v-2z" fill="rgb(91,91,91)"/>
<path d="M22 40h2v2h-2v-2z" fill="rgb(62,62,62)"/>
<path d="M24 40h2v2h-2v-2z" fill="rgb(166,167,166)"/>
<path d="M26 40h2v2h-2v-2z" fill="rgb(124,124,124)"/>
<path d="M28 40h2v4h-4v-2h2v-2z" fill="rgb(166,167,166)"/>
<path d="M30 40h2v2h-2v-2z" fill="rgb(246,246,246)"/>
<path d="M32 40h2v2h-2v-2z" fill="rgb(86,86,86)"/>
<path d="M4 42h2v2h-2v-2z" fill="rgb(40,40,40)"/>
<path d="M6 42h2v2h-2v-2z" fill="rgb(246,246,246)"/>
<path d="M8 42h2v2h2v2h-2v2h-2v-2h-2v-2h2v-2z" fill="rgb(211,211,211)"/>
<path d="M14 42h2v2h-2v-2z" fill="rgb(62,62,62)"/>
<path d="M16 42h2v2h-2v-2z" fill="rgb(124,124,124)"/>
<path d="M18 42h4v2h-4v-2z" fill="rgb(166,167,166)"/>
<path d="M22 42h2v2h-2v-2z" fill="rgb(124,124,124)"/>
<path d="M24 42h2v2h-2v-2z" fill="rgb(62,62,62)"/>
<path d="M30 42h2v2h2v2h-2v2h-2v-2h-2v-2h2v-2z" fill="rgb(211,211,211)"/>
<path d="M32 42h2v2h-2v-2z" fill="rgb(246,246,246)"/>
<path d="M34 42h2v2h-2v-2z" fill="rgb(40,40,40)"/>
<path d="M2 44h2v2h-2v-2z" fill="rgb(40,40,40)"/>
<path d="M4 44h2v2h2v2h-6v-2h2v-2z" fill="rgb(246,246,246)"/>
<path d="M12 44h2v2h-2v-2z" fill="rgb(62,62,62)"/>
<path d="M14 44h2v2h-2v-2z" fill="rgb(124,124,124)"/>
<path d="M16 44h8v2h-8v-2z" fill="rgb(40,40,40)"/>
<path d="M24 44h2v2h-2v-2z" fill="rgb(124,124,124)"/>
<path d="M26 44h2v2h-2v-2z" fill="rgb(62,62,62)"/>
<path d="M34 44h2v2h2v2h-6v-2h2v-2z" fill="rgb(246,246,246)"/>
<path d="M36 44h2v2h-2v-2z" fill="rgb(40,40,40)"/>
<path d="M0 46h2v4h-2v-4z" fill="rgb(40,40,40)"/>
<path d="M10 46h2v2h-2v-2z" fill="rgb(62,62,62)"/>
<path d="M12 46h4v2h-4v-2z" fill="rgb(40,40,40)"/>
<path d="M16 46h2v2h-2v-2z" fill="rgb(194,41,41)"/>
<path d="M18 46h4v2h-4v-2z" fill="rgb(245,123,123)"/>
<path d="M22 46h2v2h-2v-2z" fill="rgb(194,41,41)"/>
<path d="M24 46h4v2h-4v-2z" fill="rgb(40,40,40)"/>
<path d="M28 46h2v2h-2v-2z" fill="rgb(62,62,62)"/>
<path d="M38 46h2v4h-2v-4z" fill="rgb(40,40,40)"/>
<path d="M2 48h8v2h-8v-2z" fill="rgb(62,62,62)"/>
<path d="M10 48h2v2h-2v-2z" fill="rgb(212,77,77)"/>
<path d="M12 48h16v2h-16v-2z" fill="rgb(109,0,0)"/>
<path d="M28 48h2v2h-2v-2z" fill="rgb(212,77,77)"/>
<path d="M30 48h8v2h-8v-2z" fill="rgb(62,62,62)"/>
<path d="M0 50h2v8h2v2h2v2h-6v-12z" fill="rgb(255,255,255)"/>
<path d="M2 50h2v8h-2v-8z" fill="rgb(40,40,40)"/>
<path d="M4 50h4v2h-4v-2z" fill="rgb(124,124,124)"/>
<path d="M8 50h2v4h-2v-4z" fill="rgb(40,40,40)"/>
<path d="M10 50h2v2h-2v-2z" fill="rgb(42,0,0)"/>
<path d="M12 50h2v2h-2v-2z" fill="rgb(224,48,48)"/>
<path d="M14 50h2v2h-2v-2z" fill="rgb(245,123,123)"/>
<path d="M16 50h8v2h-8v-2z" fill="rgb(174,0,0)"/>
<path d="M24 50h2v2h-2v-2z" fill="rgb(245,123,123)"/>
<path d="M26 50h2v2h-2v-2z" fill="rgb(224,48,48)"/>
<path d="M28 50h2v2h-2v-2z" fill="rgb(42,0,0)"/>
<path d="M30 50h2v4h-2v-4z" fill="rgb(40,40,40)"/>
<path d="M32 50h4v2h-4v-2z" fill="rgb(124,124,124)"/>
<path d="M36 50h2v8h-2v-8z" fill="rgb(40,40,40)"/>
<path d="M38 50h2v12h-6v-2h2v-2h2v-8z" fill="rgb(255,255,255)"/>
<path d="M4 52h4v2h-4v-2z" fill="rgb(62,62,62)"/>
<path d="M10 52h2v2h-2v-2z" fill="rgb(255,255,255)"/>
<path d="M12 52h2v2h-2v-2z" fill="rgb(42,0,0)"/>
<path d="M14 52h2v2h-2v-2z" fill="rgb(224,48,48)"/>
<path d="M16 52h2v2h-2v-2z" fill="rgb(239,230,230)"/>
<path d="M18 52h4v2h-4v-2z" fill="rgb(254,176,177)"/>
<path d="M22 52h2v2h-2v-2z" fill="rgb(239,230,230)"/>
<path d="M24 52h2v2h-2v-2z" fill="rgb(224,48,48)"/>
<path d="M26 52h2v2h-2v-2z" fill="rgb(42,0,0)"/>
<path d="M28 52h2v2h-2v-2z" fill="rgb(255,255,255)"/>
<path d="M32 52h4v2h-4v-2z" fill="rgb(62,62,62)"/>
<path d="M4 54h2v2h-2v-2z" fill="rgb(166,167,166)"/>
<path d="M6 54h4v2h-2v2h-2v-4z" fill="rgb(117,117,117)"/>
<path d="M10 54h2v8h-6v-2h4v-6z" fill="rgb(40,40,40)"/>
<path d="M12 54h2v2h12v-2h2v8h-16v-8z" fill="rgb(255,255,255)"/>
<path d="M14 54h2v2h-2v-2z" fill="rgb(42,0,0)"/>
<path d="M16 54h8v2h-8v-2z" fill="rgb(109,0,0)"/>
<path d="M24 54h2v2h-2v-2z" fill="rgb(42,0,0)"/>
<path d="M28 54h2v6h4v2h-6v-8z" fill="rgb(40,40,40)"/>
<path d="M30 54h4v4h-2v-2h-2v-2z" fill="rgb(117,117,117)"/>
<path d="M34 54h2v2h-2v-2z" fill="rgb(166,167,166)"/>
<path d="M4 56h2v2h-2v-2z" fill="rgb(246,246,246)"/>
<path d="M8 56h2v2h-2v-2z" fill="rgb(166,167,166)"/>
<path d="M30 56h2v2h-2v-2z" fill="rgb(166,167,166)"/>
<path d="M34 56h2v2h-2v-2z" fill="rgb(246,246,246)"/>
<path d="M4 58h2v2h-2v-2z" fill="rgb(40,40,40)"/>
<path d="M6 58h2v2h-2v-2z" fill="rgb(246,246,246)"/>
<path d="M8 58h2v2h-2v-2z" fill="rgb(211,211,211)"/>
<path d="M30 58h2v2h-2v-2z" fill="rgb(211,211,211)"/>
<path d="M32 58h2v2h-2v-2z" fill="rgb(246,246,246)"/>
<path d="M34 58h2v2h-2v-2z" fill="rgb(40,40,40)"/>
</svg>