<?xml version="1.0" encoding="utf-8"?>
<!-- generated at drububu.com  -->
<!DOCTYPE svg PUBLIC "-//W3C//DTD SVG 1.1//EN" "http://www.w3.org/Graphics/SVG/1.1/DTD/svg11.dtd">
<svg version="1.1" preserveAspectRatio="xMinYMin meet" xmlns="http://www.w3.org/2000/svg" xmlns:xlink="http://www.w3.org/1999/xlink" x="0px" y="0px" width="106px" height="86px" viewBox="0 0 106 86">
<path d="M0 0h72v2h-2v2h-2v4h2v2h-2v2h-2v4h-20v2h-12v2h-6v2h-6v2h-4v2h-4v2h-2v2
	h-2v2h-2v2h-2v4h-2v4h-2v4h-2v-46z" fill="rgb(255,255,255)"/>
<path d="M72 0h2v2h-2v-2z" fill="rgb(0,0,0)"/>
<path d="M74 0h32v12h-2v-6h-2v-4h-2v4h-2v6h-2v6h-4v2h-6v-2h-4v-2h-2v-4h-2v-2h-2
	v-2h2v-4h-2v-2h-2v-2z" fill="rgb(255,255,255)"/>
<path d="M70 2h2v2h-2v-2z" fill="rgb(48,13,1)"/>
<path d="M72 2h2v2h-2v-2z" fill="rgb(252,203,82)"/>
<path d="M74 2h2v2h-2v-2z" fill="rgb(48,13,1)"/>
<path d="M100 2h2v4h-2v-4z" fill="rgb(46,46,46)"/>
<path d="M68 4h2v4h-2v-4z" fill="rgb(48,13,1)"/>
<path d="M70 4h2v2h-2v-2z" fill="rgb(236,141,16)"/>
<path d="M72 4h2v2h-2v-2z" fill="rgb(235,175,82)"/>
<path d="M74 4h2v2h-2v-2z" fill="rgb(236,141,16)"/>
<path d="M76 4h2v4h-2v-4z" fill="rgb(48,13,1)"/>
<path d="M70 6h2v2h-2v-2z" fill="rgb(151,61,10)"/>
<path d="M72 6h2v2h-2v-2z" fill="rgb(236,141,16)"/>
<path d="M74 6h2v2h-2v-2z" fill="rgb(151,61,10)"/>
<path d="M98 6h2v6h-2v-6z" fill="rgb(46,46,46)"/>
<path d="M100 6h2v12h-2v-12z" fill="rgb(129,129,129)"/>
<path d="M102 6h2v6h-2v-6z" fill="rgb(46,46,46)"/>
<path d="M70 8h2v2h-2v-2z" fill="rgb(48,13,1)"/>
<path d="M72 8h2v2h-2v-2z" fill="rgb(208,110,8)"/>
<path d="M74 8h2v2h-2v-2z" fill="rgb(48,13,1)"/>
<path d="M68 10h2v2h-2v-2z" fill="rgb(48,13,1)"/>
<path d="M70 10h2v2h-2v-2z" fill="rgb(208,110,8)"/>
<path d="M72 10h2v2h-2v-2z" fill="rgb(151,61,10)"/>
<path d="M74 10h2v2h-2v-2z" fill="rgb(208,110,8)"/>
<path d="M76 10h2v2h-2v-2z" fill="rgb(48,13,1)"/>
<path d="M66 12h2v4h-2v-4z" fill="rgb(48,13,1)"/>
<path d="M68 12h2v2h-2v-2z" fill="rgb(208,110,8)"/>
<path d="M70 12h2v2h-2v-2z" fill="rgb(236,141,16)"/>
<path d="M72 12h2v2h2v2h-2v2h-2v-2h-2v-2h2v-2z" fill="rgb(252,203,82)"/>
<path d="M74 12h2v2h-2v-2z" fill="rgb(236,141,16)"/>
<path d="M76 12h2v2h-2v-2z" fill="rgb(175,70,13)"/>
<path d="M78 12h2v4h-2v-4z" fill="rgb(48,13,1)"/>
<path d="M96 12h2v6h-2v-6z" fill="rgb(46,46,46)"/>
<path d="M98 12h2v4h-2v-4z" fill="rgb(188,188,188)"/>
<path d="M102 12h2v6h-2v-6z" fill="rgb(188,188,188)"/>
<path d="M104 12h2v8h-2v-8z" fill="rgb(46,46,46)"/>
<path d="M68 14h2v6h-2v-6z" fill="rgb(236,141,16)"/>
<path d="M76 14h2v6h-2v-6z" fill="rgb(208,110,8)"/>
<path d="M46 16h18v2h-18v-2z" fill="rgb(46,46,46)"/>
<path d="M64 16h2v6h-2v-6z" fill="rgb(48,13,1)"/>
<path d="M66 16h2v4h-2v-4z" fill="rgb(208,110,8)"/>
<path d="M70 16h2v2h2v2h-4v-4z" fill="rgb(235,175,82)"/>
<path d="M74 16h2v2h-2v-2z" fill="rgb(235,175,82)"/>
<path d="M78 16h2v4h-2v-4z" fill="rgb(175,70,13)"/>
<path d="M80 16h2v8h-2v-8z" fill="rgb(48,13,1)"/>
<path d="M98 16h2v2h-2v-2z" fill="rgb(212,212,212)"/>
<path d="M34 18h12v2h-12v-2z" fill="rgb(46,46,46)"/>
<path d="M46 18h2v2h-2v-2z" fill="rgb(129,129,129)"/>
<path d="M48 18h10v2h2v2h2v6h-2v2h-6v-2h2v-2h2v-2h-2v-2h-2v-2h-6v-2z" fill="rgb(166,167,166)"/>
<path d="M58 18h2v2h-2v-2z" fill="rgb(129,129,129)"/>
<path d="M60 18h4v4h-2v-2h-2v-2z" fill="rgb(82,82,82)"/>
<path d="M74 18h2v2h-2v-2z" fill="rgb(250,161,6)"/>
<path d="M82 18h4v2h-4v-2z" fill="rgb(46,46,46)"/>
<path d="M92 18h4v2h-4v-2z" fill="rgb(46,46,46)"/>
<path d="M96 18h2v4h-2v2h-2v2h-4v-2h2v-2h2v-2h2v-2z" fill="rgb(212,212,212)"/>
<path d="M98 18h2v4h-2v-4z" fill="rgb(129,129,129)"/>
<path d="M100 18h2v4h-2v-4z" fill="rgb(188,188,188)"/>
<path d="M102 18h2v2h-2v-2z" fill="rgb(166,167,166)"/>
<path d="M28 20h6v2h-6v-2z" fill="rgb(46,46,46)"/>
<path d="M34 20h2v2h-2v-2z" fill="rgb(129,129,129)"/>
<path d="M36 20h10v2h-10v-2z" fill="rgb(166,167,166)"/>
<path d="M46 20h8v2h2v2h2v2h-2v2h-2v2h-16v-2h-6v-2h8v-2h8v-2h-2v-2z" fill="rgb(188,188,188)"/>
<path d="M60 20h2v2h-2v-2z" fill="rgb(129,129,129)"/>
<path d="M66 20h2v2h-2v-2z" fill="rgb(151,61,10)"/>
<path d="M68 20h2v2h-2v-2z" fill="rgb(208,110,8)"/>
<path d="M70 20h6v2h-6v-2z" fill="rgb(236,141,16)"/>
<path d="M76 20h2v2h-2v-2z" fill="rgb(175,70,13)"/>
<path d="M78 20h2v4h-4v-2h2v-2z" fill="rgb(91,12,0)"/>
<path d="M82 20h2v2h-2v-2z" fill="rgb(82,82,82)"/>
<path d="M84 20h2v2h-2v-2z" fill="rgb(129,129,129)"/>
<path d="M86 20h6v2h-6v-2z" fill="rgb(46,46,46)"/>
<path d="M92 20h2v2h-2v-2z" fill="rgb(166,167,166)"/>
<path d="M102 20h2v4h-2v-4z" fill="rgb(46,46,46)"/>
<path d="M104 20h2v66h-98v-4h2v-8h2v-12h2v-8h2v-4h2v-4h2v-2h2v-2h4v-2h6v-2h6v-2
	h10v-2h10v2h6v2h2v2h2v2h-6v2h-4v2h-2v2h-2v2h-2v6h2v2h2v-2h4v-2h4v-2h4v4h2v4h2
	v2h2v-2h2v-4h2v-4h4v2h4v2h4v2h2v-2h2v-6h-2v-2h-2v-2h-2v-2h-4v-2h-6v-2h2v-2h2v-2
	h6v-2h6v-2h4v-2h2v-2h2v-4h2v-4z" fill="rgb(255,255,255)"/>
<path d="M22 22h6v2h-6v-2z" fill="rgb(46,46,46)"/>
<path d="M28 22h2v2h-2v-2z" fill="rgb(129,129,129)"/>
<path d="M30 22h4v2h-4v-2z" fill="rgb(166,167,166)"/>
<path d="M34 22h2v2h-2v-2z" fill="rgb(188,188,188)"/>
<path d="M36 22h12v2h-8v2h-8v2h-8v2h-4v2h-4v2h-2v2h-2v2h-2v2h-2v-4h2v-2h2v-2h2
	v-2h4v-2h2v-2h8v-2h8v-2z" fill="rgb(231,231,231)"/>
<path d="M62 22h2v8h-2v2h-18v2h-8v2h-6v2h-6v2h-4v-2h2v-2h4v-2h6v-2h8v-2h20v-2h2
	v-6z" fill="rgb(129,129,129)"/>
<path d="M64 22h2v8h-2v-8z" fill="rgb(82,82,82)"/>
<path d="M66 22h2v8h-2v-8z" fill="rgb(48,13,1)"/>
<path d="M68 22h2v2h-2v-2z" fill="rgb(151,61,10)"/>
<path d="M70 22h4v2h-4v-2z" fill="rgb(208,110,8)"/>
<path d="M74 22h2v2h-2v-2z" fill="rgb(175,70,13)"/>
<path d="M82 22h2v2h-2v-2z" fill="rgb(129,129,129)"/>
<path d="M84 22h4v2h-2v2h-4v-2h2v-2z" fill="rgb(166,167,166)"/>
<path d="M88 22h4v2h-2v2h-4v-2h2v-2z" fill="rgb(188,188,188)"/>
<path d="M96 22h2v2h-2v-2z" fill="rgb(166,167,166)"/>
<path d="M98 22h2v4h-2v2h-2v2h-6v-2h4v-2h2v-2h2v-2z" fill="rgb(212,212,212)"/>
<path d="M100 22h2v2h-2v-2z" fill="rgb(166,167,166)"/>
<path d="M18 24h4v2h-4v-2z" fill="rgb(46,46,46)"/>
<path d="M22 24h2v2h-2v-2z" fill="rgb(129,129,129)"/>
<path d="M24 24h4v2h-4v-2z" fill="rgb(166,167,166)"/>
<path d="M68 24h2v2h-2v-2z" fill="rgb(235,175,82)"/>
<path d="M70 24h4v2h-4v-2z" fill="rgb(151,61,10)"/>
<path d="M74 24h2v2h-2v-2z" fill="rgb(91,12,0)"/>
<path d="M76 24h2v6h-2v-6z" fill="rgb(175,70,13)"/>
<path d="M78 24h2v6h-2v-6z" fill="rgb(48,13,1)"/>
<path d="M80 24h2v2h-2v-2z" fill="rgb(129,129,129)"/>
<path d="M94 24h2v2h-2v-2z" fill="rgb(166,167,166)"/>
<path d="M100 24h2v4h-2v-4z" fill="rgb(46,46,46)"/>
<path d="M14 26h4v2h-4v-2z" fill="rgb(46,46,46)"/>
<path d="M18 26h2v2h-2v-2z" fill="rgb(129,129,129)"/>
<path d="M40 26h12v2h-12v-2z" fill="rgb(212,212,212)"/>
<path d="M68 26h2v2h-2v-2z" fill="rgb(236,141,16)"/>
<path d="M70 26h4v2h-4v-2z" fill="rgb(235,175,82)"/>
<path d="M74 26h2v4h-6v-2h4v-2z" fill="rgb(236,141,16)"/>
<path d="M80 26h4v2h-4v-2z" fill="rgb(82,82,82)"/>
<path d="M84 26h8v2h-8v-2z" fill="rgb(129,129,129)"/>
<path d="M92 26h2v2h-2v-2z" fill="rgb(166,167,166)"/>
<path d="M98 26h2v2h-2v-2z" fill="rgb(166,167,166)"/>
<path d="M12 28h2v2h-2v-2z" fill="rgb(46,46,46)"/>
<path d="M14 28h2v2h-2v-2z" fill="rgb(129,129,129)"/>
<path d="M16 28h2v2h-2v-2z" fill="rgb(166,167,166)"/>
<path d="M24 28h6v2h-6v-2z" fill="rgb(188,188,188)"/>
<path d="M30 28h8v2h-6v2h-6v2h-4v2h-4v2h-2v2h-2v4h-2v4h-2v10h-2v22h-2v-32h2v-6
	h2v-2h2v-2h2v-2h2v-2h2v-2h4v-2h8v-2z" fill="rgb(212,212,212)"/>
<path d="M68 28h2v2h-2v-2z" fill="rgb(208,110,8)"/>
<path d="M80 28h2v2h-2v-2z" fill="rgb(129,129,129)"/>
<path d="M82 28h4v2h2v4h-2v-2h-2v-2h-2v-2z" fill="rgb(166,167,166)"/>
<path d="M86 28h4v2h2v2h-4v-2h-2v-2z" fill="rgb(188,188,188)"/>
<path d="M96 28h2v2h-2v-2z" fill="rgb(166,167,166)"/>
<path d="M98 28h2v2h-2v-2z" fill="rgb(46,46,46)"/>
<path d="M10 30h2v2h-2v-2z" fill="rgb(46,46,46)"/>
<path d="M12 30h2v2h-2v-2z" fill="rgb(129,129,129)"/>
<path d="M20 30h2v2h-2v-2z" fill="rgb(188,188,188)"/>
<path d="M32 30h4v2h-4v-2z" fill="rgb(188,188,188)"/>
<path d="M36 30h4v2h-4v-2z" fill="rgb(166,167,166)"/>
<path d="M62 30h2v4h-6v-2h4v-2z" fill="rgb(82,82,82)"/>
<path d="M64 30h2v8h-2v-8z" fill="rgb(48,13,1)"/>
<path d="M66 30h2v6h-2v-6z" fill="rgb(208,110,8)"/>
<path d="M68 30h2v2h-2v-2z" fill="rgb(151,61,10)"/>
<path d="M70 30h4v2h-4v-2z" fill="rgb(208,110,8)"/>
<path d="M74 30h2v2h-2v-2z" fill="rgb(175,70,13)"/>
<path d="M76 30h4v2h-4v-2z" fill="rgb(91,12,0)"/>
<path d="M80 30h2v8h-2v-8z" fill="rgb(48,13,1)"/>
<path d="M82 30h2v2h-2v-2z" fill="rgb(129,129,129)"/>
<path d="M92 30h2v2h-2v-2z" fill="rgb(166,167,166)"/>
<path d="M94 30h4v2h-4v-2z" fill="rgb(46,46,46)"/>
<path d="M8 32h2v2h-2v-2z" fill="rgb(46,46,46)"/>
<path d="M10 32h2v2h-2v-2z" fill="rgb(129,129,129)"/>
<path d="M16 32h2v2h-2v-2z" fill="rgb(188,188,188)"/>
<path d="M26 32h2v2h-2v-2z" fill="rgb(188,188,188)"/>
<path d="M28 32h4v2h-4v-2z" fill="rgb(166,167,166)"/>
<path d="M44 32h4v2h-4v-2z" fill="rgb(82,82,82)"/>
<path d="M48 32h10v2h-10v-2z" fill="rgb(46,46,46)"/>
<path d="M68 32h2v2h-2v-2z" fill="rgb(250,161,6)"/>
<path d="M70 32h4v2h-4v-2z" fill="rgb(151,61,10)"/>
<path d="M74 32h2v2h-2v-2z" fill="rgb(91,12,0)"/>
<path d="M76 32h4v4h-2v-2h-2v-2z" fill="rgb(175,70,13)"/>
<path d="M82 32h2v2h-2v-2z" fill="rgb(82,82,82)"/>
<path d="M84 32h2v2h-2v-2z" fill="rgb(129,129,129)"/>
<path d="M88 32h6v2h-6v-2z" fill="rgb(46,46,46)"/>
<path d="M6 34h2v4h-2v-4z" fill="rgb(46,46,46)"/>
<path d="M8 34h2v2h-2v-2z" fill="rgb(129,129,129)"/>
<path d="M14 34h2v2h-2v-2z" fill="rgb(188,188,188)"/>
<path d="M22 34h2v2h-2v-2z" fill="rgb(188,188,188)"/>
<path d="M24 34h2v2h-2v-2z" fill="rgb(166,167,166)"/>
<path d="M36 34h2v2h-2v-2z" fill="rgb(82,82,82)"/>
<path d="M38 34h10v2h-10v-2z" fill="rgb(46,46,46)"/>
<path d="M58 34h6v2h-6v-2z" fill="rgb(46,46,46)"/>
<path d="M68 34h2v2h-2v-2z" fill="rgb(236,141,16)"/>
<path d="M70 34h6v2h-6v-2z" fill="rgb(250,161,6)"/>
<path d="M76 34h2v4h-2v-4z" fill="rgb(208,110,8)"/>
<path d="M82 34h6v2h-6v-2z" fill="rgb(46,46,46)"/>
<path d="M12 36h2v2h-2v-2z" fill="rgb(188,188,188)"/>
<path d="M18 36h2v2h-2v-2z" fill="rgb(188,188,188)"/>
<path d="M20 36h2v2h-2v-2z" fill="rgb(166,167,166)"/>
<path d="M30 36h2v2h-2v-2z" fill="rgb(82,82,82)"/>
<path d="M32 36h6v2h-6v-2z" fill="rgb(46,46,46)"/>
<path d="M66 36h2v2h-2v-2z" fill="rgb(151,61,10)"/>
<path d="M68 36h2v2h-2v-2z" fill="rgb(208,110,8)"/>
<path d="M70 36h6v2h-6v-2z" fill="rgb(236,141,16)"/>
<path d="M78 36h2v2h-2v-2z" fill="rgb(91,12,0)"/>
<path d="M4 38h2v4h-2v-4z" fill="rgb(46,46,46)"/>
<path d="M6 38h2v2h-2v-2z" fill="rgb(129,129,129)"/>
<path d="M10 38h2v2h-2v-2z" fill="rgb(188,188,188)"/>
<path d="M16 38h2v2h-2v-2z" fill="rgb(188,188,188)"/>
<path d="M18 38h2v2h-2v-2z" fill="rgb(166,167,166)"/>
<path d="M24 38h2v2h-2v-2z" fill="rgb(82,82,82)"/>
<path d="M26 38h6v2h-6v-2z" fill="rgb(46,46,46)"/>
<path d="M66 38h2v2h-2v-2z" fill="rgb(48,13,1)"/>
<path d="M68 38h2v2h-2v-2z" fill="rgb(151,61,10)"/>
<path d="M70 38h2v2h-2v-2z" fill="rgb(208,110,8)"/>
<path d="M72 38h2v2h-2v-2z" fill="rgb(151,61,10)"/>
<path d="M74 38h2v2h-2v-2z" fill="rgb(208,110,8)"/>
<path d="M76 38h2v2h-2v-2z" fill="rgb(151,61,10)"/>
<path d="M78 38h2v2h-2v-2z" fill="rgb(48,13,1)"/>
<path d="M6 40h2v4h-2v-4z" fill="rgb(231,231,231)"/>
<path d="M8 40h2v2h-2v-2z" fill="rgb(188,188,188)"/>
<path d="M14 40h2v2h-2v-2z" fill="rgb(188,188,188)"/>
<path d="M16 40h2v2h-2v-2z" fill="rgb(166,167,166)"/>
<path d="M18 40h2v2h-2v-2z" fill="rgb(129,129,129)"/>
<path d="M20 40h2v2h-2v-2z" fill="rgb(82,82,82)"/>
<path d="M22 40h4v2h-4v-2z" fill="rgb(46,46,46)"/>
<path d="M68 40h2v2h-2v-2z" fill="rgb(48,13,1)"/>
<path d="M70 40h2v2h-2v-2z" fill="rgb(151,61,10)"/>
<path d="M72 40h2v2h-2v-2z" fill="rgb(48,13,1)"/>
<path d="M74 40h2v2h-2v-2z" fill="rgb(151,61,10)"/>
<path d="M76 40h2v2h-2v-2z" fill="rgb(48,13,1)"/>
<path d="M2 42h2v4h-2v-4z" fill="rgb(46,46,46)"/>
<path d="M4 42h2v2h-2v-2z" fill="rgb(129,129,129)"/>
<path d="M14 42h2v2h-2v-2z" fill="rgb(166,167,166)"/>
<path d="M16 42h2v2h-2v-2z" fill="rgb(129,129,129)"/>
<path d="M18 42h2v2h-2v-2z" fill="rgb(82,82,82)"/>
<path d="M20 42h2v2h-2v-2z" fill="rgb(46,46,46)"/>
<path d="M62 42h6v2h-6v-2z" fill="rgb(48,13,1)"/>
<path d="M68 42h2v2h-2v-2z" fill="rgb(11,70,0)"/>
<path d="M70 42h2v2h-2v-2z" fill="rgb(48,13,1)"/>
<path d="M72 42h2v2h-2v-2z" fill="rgb(11,70,0)"/>
<path d="M74 42h2v2h-2v-2z" fill="rgb(48,13,1)"/>
<path d="M76 42h2v2h-2v-2z" fill="rgb(11,70,0)"/>
<path d="M78 42h6v2h-6v-2z" fill="rgb(48,13,1)"/>
<path d="M4 44h2v28h-2v-28z" fill="rgb(231,231,231)"/>
<path d="M6 44h2v4h-2v-4z" fill="rgb(188,188,188)"/>
<path d="M12 44h2v2h-2v-2z" fill="rgb(188,188,188)"/>
<path d="M14 44h2v4h-2v-4z" fill="rgb(129,129,129)"/>
<path d="M16 44h2v2h-2v-2z" fill="rgb(82,82,82)"/>
<path d="M18 44h2v2h-2v-2z" fill="rgb(46,46,46)"/>
<path d="M58 44h4v2h-4v-2z" fill="rgb(48,13,1)"/>
<path d="M62 44h2v2h-2v-2z" fill="rgb(24,151,70)"/>
<path d="M64 44h4v4h-2v-2h-2v-2z" fill="rgb(11,70,0)"/>
<path d="M68 44h2v4h-2v-4z" fill="rgb(48,13,1)"/>
<path d="M70 44h2v4h-2v-4z" fill="rgb(11,70,0)"/>
<path d="M72 44h2v2h-2v-2z" fill="rgb(24,151,70)"/>
<path d="M74 44h2v4h-2v-4z" fill="rgb(11,70,0)"/>
<path d="M76 44h2v4h-2v-4z" fill="rgb(48,13,1)"/>
<path d="M78 44h4v2h-2v2h-2v-4z" fill="rgb(11,70,0)"/>
<path d="M82 44h2v4h-2v-4z" fill="rgb(24,151,70)"/>
<path d="M84 44h4v2h-4v-2z" fill="rgb(48,13,1)"/>
<path d="M0 46h2v18h-2v-18z" fill="rgb(46,46,46)"/>
<path d="M2 46h2v2h-2v-2z" fill="rgb(129,129,129)"/>
<path d="M12 46h2v2h-2v-2z" fill="rgb(166,167,166)"/>
<path d="M16 46h2v4h-2v-4z" fill="rgb(46,46,46)"/>
<path d="M56 46h2v2h-2v-2z" fill="rgb(48,13,1)"/>
<path d="M58 46h2v2h-2v-2z" fill="rgb(21,217,94)"/>
<path d="M60 46h2v2h-2v-2z" fill="rgb(24,151,70)"/>
<path d="M62 46h4v2h-2v2h-2v2h-4v-2h2v-2h2v-2z" fill="rgb(5,101,31)"/>
<path d="M72 46h2v10h-2v-4h-2v-2h2v-4z" fill="rgb(21,217,94)"/>
<path d="M80 46h2v2h-2v-2z" fill="rgb(5,101,31)"/>
<path d="M84 46h2v2h-2v-2z" fill="rgb(21,217,94)"/>
<path d="M86 46h2v2h-2v-2z" fill="rgb(24,151,70)"/>
<path d="M88 46h2v2h-2v-2z" fill="rgb(48,13,1)"/>
<path d="M2 48h2v14h-2v-14z" fill="rgb(166,167,166)"/>
<path d="M10 48h2v2h-2v-2z" fill="rgb(188,188,188)"/>
<path d="M12 48h2v4h-2v-4z" fill="rgb(129,129,129)"/>
<path d="M14 48h2v2h-2v-2z" fill="rgb(82,82,82)"/>
<path d="M54 48h2v2h-2v-2z" fill="rgb(48,13,1)"/>
<path d="M56 48h2v2h-2v-2z" fill="rgb(21,217,94)"/>
<path d="M58 48h2v2h-2v-2z" fill="rgb(24,151,70)"/>
<path d="M64 48h2v2h-2v-2z" fill="rgb(11,70,0)"/>
<path d="M66 48h2v4h-4v-2h2v-2z" fill="rgb(48,13,1)"/>
<path d="M68 48h2v4h-2v-4z" fill="rgb(5,101,31)"/>
<path d="M70 48h2v2h-2v-2z" fill="rgb(24,151,70)"/>
<path d="M74 48h2v8h-2v-8z" fill="rgb(5,101,31)"/>
<path d="M76 48h2v4h-2v-4z" fill="rgb(11,70,0)"/>
<path d="M78 48h2v2h2v2h-4v-4z" fill="rgb(48,13,1)"/>
<path d="M80 48h2v2h-2v-2z" fill="rgb(11,70,0)"/>
<path d="M82 48h4v2h2v2h-4v-2h-2v-2z" fill="rgb(5,101,31)"/>
<path d="M86 48h2v2h-2v-2z" fill="rgb(21,217,94)"/>
<path d="M88 48h2v4h-2v-4z" fill="rgb(24,151,70)"/>
<path d="M90 48h2v2h-2v-2z" fill="rgb(48,13,1)"/>
<path d="M10 50h2v2h-2v-2z" fill="rgb(166,167,166)"/>
<path d="M14 50h2v4h-2v-4z" fill="rgb(46,46,46)"/>
<path d="M52 50h2v6h-2v-6z" fill="rgb(48,13,1)"/>
<path d="M54 50h4v2h-4v-2z" fill="rgb(24,151,70)"/>
<path d="M62 50h2v2h-2v-2z" fill="rgb(11,70,0)"/>
<path d="M82 50h2v2h-2v-2z" fill="rgb(11,70,0)"/>
<path d="M90 50h2v2h-2v-2z" fill="rgb(5,101,31)"/>
<path d="M92 50h2v6h-2v-6z" fill="rgb(48,13,1)"/>
<path d="M10 52h2v8h-2v-8z" fill="rgb(129,129,129)"/>
<path d="M12 52h2v2h-2v-2z" fill="rgb(82,82,82)"/>
<path d="M54 52h4v2h-2v2h-2v-4z" fill="rgb(5,101,31)"/>
<path d="M58 52h2v2h-2v-2z" fill="rgb(11,70,0)"/>
<path d="M60 52h4v2h-4v-2z" fill="rgb(48,13,1)"/>
<path d="M68 52h2v4h-2v-4z" fill="rgb(48,13,1)"/>
<path d="M70 52h2v2h-2v-2z" fill="rgb(24,151,70)"/>
<path d="M76 52h2v4h-2v-4z" fill="rgb(48,13,1)"/>
<path d="M82 52h4v2h-4v-2z" fill="rgb(48,13,1)"/>
<path d="M86 52h2v2h-2v-2z" fill="rgb(11,70,0)"/>
<path d="M88 52h2v2h-2v-2z" fill="rgb(5,101,31)"/>
<path d="M90 52h2v2h-2v-2z" fill="rgb(24,151,70)"/>
<path d="M12 54h2v8h-2v-8z" fill="rgb(46,46,46)"/>
<path d="M56 54h4v2h-4v-2z" fill="rgb(48,13,1)"/>
<path d="M70 54h2v2h-2v-2z" fill="rgb(5,101,31)"/>
<path d="M86 54h4v2h-4v-2z" fill="rgb(48,13,1)"/>
<path d="M90 54h2v2h-2v-2z" fill="rgb(5,101,31)"/>
<path d="M54 56h2v2h-2v-2z" fill="rgb(48,13,1)"/>
<path d="M70 56h2v4h-2v-4z" fill="rgb(48,13,1)"/>
<path d="M72 56h2v2h-2v-2z" fill="rgb(24,151,70)"/>
<path d="M74 56h2v4h-2v-4z" fill="rgb(48,13,1)"/>
<path d="M90 56h2v2h-2v-2z" fill="rgb(48,13,1)"/>
<path d="M8 58h2v2h-2v-2z" fill="rgb(166,167,166)"/>
<path d="M72 58h2v2h-2v-2z" fill="rgb(5,101,31)"/>
<path d="M8 60h2v12h-2v-12z" fill="rgb(129,129,129)"/>
<path d="M10 60h2v2h-2v-2z" fill="rgb(82,82,82)"/>
<path d="M72 60h2v2h-2v-2z" fill="rgb(48,13,1)"/>
<path d="M2 62h2v2h-2v-2z" fill="rgb(129,129,129)"/>
<path d="M10 62h2v12h-2v-12z" fill="rgb(46,46,46)"/>
<path d="M0 64h2v10h2v8h2v4h-6v-22z" fill="rgb(255,255,255)"/>
<path d="M2 64h2v10h-2v-10z" fill="rgb(46,46,46)"/>
<path d="M4 72h2v2h-2v-2z" fill="rgb(129,129,129)"/>
<path d="M8 72h2v2h-2v-2z" fill="rgb(82,82,82)"/>
<path d="M4 74h2v8h-2v-8z" fill="rgb(46,46,46)"/>
<path d="M8 74h2v8h-2v-8z" fill="rgb(46,46,46)"/>
<path d="M6 80h2v2h-2v-2z" fill="rgb(129,129,129)"/>
<path d="M6 82h2v4h-2v-4z" fill="rgb(46,46,46)"/>
</svg>