<?xml version="1.0" encoding="utf-8"?>
<!-- generated at drububu.com  -->
<!DOCTYPE svg PUBLIC "-//W3C//DTD SVG 1.1//EN" "http://www.w3.org/Graphics/SVG/1.1/DTD/svg11.dtd">
<svg version="1.1" preserveAspectRatio="xMinYMin meet" xmlns="http://www.w3.org/2000/svg" xmlns:xlink="http://www.w3.org/1999/xlink" x="0px" y="0px" width="168px" height="134px" viewBox="0 0 168 134">
<path d="M0 0h168v10h-12v2h-8v2h-6v2h-4v2h-4v2h-4v2h-4v2h-4v2h-4v2h-2v2h-2v2h-2
	v2h-2v2h-2v2h-2v2h-2v2h-2v2h-2v2h-2v2h-2v2h-2v-4h2v-10h-2v-4h-2v-2h-2v-2h-2v-2
	h-4v-2h-6v-2h2v-4h2v-2h2v-2h6v2h2v6h2v2h6v-2h2v-6h-2v-2h-4v-2h-2v-2h-2v-2h-8v2
	h-4v2h-2v2h-2v2h-2v4h-2v4h-10v-2h-2v-2h-4v-2h-10v-2h-2v-2h-2v-2h-2v-2h-4v-2h-4
	v-2h-2v-2h-4v-2h-6v4h-2v8h2v8h2v6h2v4h2v2h2v4h2v2h2v2h2v2h2v2h2v2h2v2h2v2h2v2
	h2v2h2v2h-2v8h2v2h2v2h6v2h-2v2h-2v2h-2v2h-2v4h-2v2h-2v2h-2v6h2v8h-2v14h2v8h2v2
	h4v4h2v2h8v2h4v2h-64v-134z" fill="rgb(255,255,255)"/>
<path d="M20 2h6v2h-4v2h-2v-4z" fill="rgb(129,151,189)"/>
<path d="M22 4h4v2h4v2h2v2h4v2h4v2h2v2h2v2h2v2h-4v2h-2v4h-2v-2h-2v6h-4v-4h-2v-2
	h-2v4h2v2h2v2h2v2h2v4h2v4h-2v-2h-2v-2h-2v-4h-2v-2h-2v-2h-2v-4h-2v-4h-2v-8h-2
	v-8h2v-2z" fill="rgb(181,213,219)"/>
<path d="M26 4h4v2h-4v-2z" fill="rgb(129,151,189)"/>
<path d="M18 6h2v8h-2v-8z" fill="rgb(129,151,189)"/>
<path d="M30 6h2v2h-2v-2z" fill="rgb(129,151,189)"/>
<path d="M32 8h4v2h-4v-2z" fill="rgb(129,151,189)"/>
<path d="M84 8h8v2h-8v-2z" fill="rgb(12,6,23)"/>
<path d="M36 10h4v2h-4v-2z" fill="rgb(129,151,189)"/>
<path d="M80 10h4v2h-4v-2z" fill="rgb(12,6,23)"/>
<path d="M84 10h8v2h-8v-2z" fill="rgb(63,39,105)"/>
<path d="M92 10h2v2h-2v-2z" fill="rgb(12,6,23)"/>
<path d="M156 10h12v10h-2v-8h-10v-2z" fill="rgb(129,151,189)"/>
<path d="M40 12h2v2h-2v-2z" fill="rgb(129,151,189)"/>
<path d="M78 12h2v2h-2v-2z" fill="rgb(12,6,23)"/>
<path d="M80 12h2v2h-2v-2z" fill="rgb(63,39,105)"/>
<path d="M82 12h2v2h-2v-2z" fill="rgb(38,25,66)"/>
<path d="M84 12h6v2h-6v-2z" fill="rgb(12,6,23)"/>
<path d="M90 12h2v2h-2v-2z" fill="rgb(38,25,66)"/>
<path d="M92 12h2v2h-2v-2z" fill="rgb(63,39,105)"/>
<path d="M94 12h2v2h-2v-2z" fill="rgb(12,6,23)"/>
<path d="M148 12h8v2h-8v-2z" fill="rgb(129,151,189)"/>
<path d="M156 12h10v8h-2v2h-2v4h-2v2h-2v2h-2v2h-2v2h-2v2h-2v2h-4v2h-4v2h-4v-2h2
	v-2h2v-2h2v-2h4v-2h-6v-2h-4v2h-4v2h-4v2h-4v2h-2v-4h2v-8h2v-2h4v-2h2v-2h4v-2h4
	v-2h6v-2h8v-2z" fill="rgb(181,213,219)"/>
<path d="M20 14h2v6h-2v-6z" fill="rgb(129,151,189)"/>
<path d="M42 14h2v2h-2v-2z" fill="rgb(129,151,189)"/>
<path d="M76 14h2v2h-2v-2z" fill="rgb(12,6,23)"/>
<path d="M78 14h2v2h-2v-2z" fill="rgb(63,39,105)"/>
<path d="M80 14h2v2h-2v-2z" fill="rgb(38,25,66)"/>
<path d="M82 14h2v2h-2v-2z" fill="rgb(12,6,23)"/>
<path d="M90 14h2v2h-2v-2z" fill="rgb(12,6,23)"/>
<path d="M92 14h4v6h4v2h-6v-6h-2v-2z" fill="rgb(38,25,66)"/>
<path d="M96 14h4v2h-4v-2z" fill="rgb(12,6,23)"/>
<path d="M142 14h6v2h-6v-2z" fill="rgb(129,151,189)"/>
<path d="M44 16h2v2h-2v-2z" fill="rgb(129,151,189)"/>
<path d="M74 16h2v4h-2v-4z" fill="rgb(12,6,23)"/>
<path d="M76 16h2v4h-2v-4z" fill="rgb(63,39,105)"/>
<path d="M78 16h2v2h-2v-2z" fill="rgb(38,25,66)"/>
<path d="M80 16h2v2h-2v-2z" fill="rgb(12,6,23)"/>
<path d="M92 16h2v6h-2v-6z" fill="rgb(12,6,23)"/>
<path d="M96 16h2v2h2v2h-4v-4z" fill="rgb(63,39,105)"/>
<path d="M98 16h2v2h-2v-2z" fill="rgb(120,134,172)"/>
<path d="M100 16h2v6h-2v-6z" fill="rgb(12,6,23)"/>
<path d="M138 16h4v2h-4v-2z" fill="rgb(129,151,189)"/>
<path d="M46 18h10v2h-10v-2z" fill="rgb(12,6,23)"/>
<path d="M78 18h2v4h-2v-4z" fill="rgb(12,6,23)"/>
<path d="M134 18h2v2h-2v-2z" fill="rgb(95,122,171)"/>
<path d="M136 18h2v2h-2v-2z" fill="rgb(129,151,189)"/>
<path d="M20 20h2v2h-2v-2z" fill="rgb(95,122,171)"/>
<path d="M42 20h4v2h-4v-2z" fill="rgb(12,6,23)"/>
<path d="M46 20h10v2h-10v-2z" fill="rgb(63,39,105)"/>
<path d="M56 20h4v2h-4v-2z" fill="rgb(12,6,23)"/>
<path d="M72 20h2v4h-2v-4z" fill="rgb(12,6,23)"/>
<path d="M74 20h2v6h-2v-6z" fill="rgb(63,39,105)"/>
<path d="M76 20h2v2h-2v-2z" fill="rgb(38,25,66)"/>
<path d="M130 20h2v2h-2v-2z" fill="rgb(95,122,171)"/>
<path d="M132 20h2v2h-2v-2z" fill="rgb(129,151,189)"/>
<path d="M164 20h2v2h-2v-2z" fill="rgb(129,151,189)"/>
<path d="M166 20h2v114h-88v-2h8v-2h4v-2h2v-2h2v-2h2v-2h2v-2h2v-2h2v-4h2v-4h2
	v-10h2v-2h2v-4h2v-6h2v-2h2v-6h-2v-6h-2v-2h-2v-4h-2v-2h-2v-4h-2v-4h2v-2h6v-2h8v-2
	h6v-2h4v-2h4v-2h4v-2h4v-2h4v-2h2v-2h4v-2h2v-2h2v-2h2v-2h2v-4h2v-4h2v-2z" fill="rgb(255,255,255)"/>
<path d="M22 22h2v2h-2v-2z" fill="rgb(129,151,189)"/>
<path d="M40 22h2v4h-2v-4z" fill="rgb(12,6,23)"/>
<path d="M42 22h2v2h-2v-2z" fill="rgb(38,25,66)"/>
<path d="M44 22h2v2h-2v-2z" fill="rgb(63,39,105)"/>
<path d="M46 22h2v2h-2v-2z" fill="rgb(38,25,66)"/>
<path d="M48 22h6v2h-6v-2z" fill="rgb(12,6,23)"/>
<path d="M54 22h2v2h-2v-2z" fill="rgb(38,25,66)"/>
<path d="M56 22h4v2h-4v-2z" fill="rgb(63,39,105)"/>
<path d="M60 22h2v2h-2v-2z" fill="rgb(12,6,23)"/>
<path d="M76 22h2v6h-2v-6z" fill="rgb(12,6,23)"/>
<path d="M94 22h6v2h-6v-2z" fill="rgb(12,6,23)"/>
<path d="M126 22h4v2h-4v-2z" fill="rgb(95,122,171)"/>
<path d="M130 22h2v2h-2v-2z" fill="rgb(129,151,189)"/>
<path d="M162 22h2v4h-2v-4z" fill="rgb(129,151,189)"/>
<path d="M22 24h2v4h-2v-4z" fill="rgb(95,122,171)"/>
<path d="M28 24h2v2h2v4h-2v-2h-2v-4z" fill="rgb(147,184,205)"/>
<path d="M36 24h2v4h-2v-4z" fill="rgb(147,184,205)"/>
<path d="M42 24h2v2h-2v-2z" fill="rgb(63,39,105)"/>
<path d="M44 24h2v2h-2v-2z" fill="rgb(38,25,66)"/>
<path d="M46 24h2v2h-2v-2z" fill="rgb(12,6,23)"/>
<path d="M48 24h2v2h2v2h2v2h-2v2h-2v2h-2v2h-2v-10h2v-2z" fill="rgb(181,213,219)"/>
<path d="M50 24h2v2h-2v-2z" fill="rgb(129,151,189)"/>
<path d="M52 24h2v2h-2v-2z" fill="rgb(255,255,255)"/>
<path d="M54 24h4v4h-2v-2h-2v-2z" fill="rgb(12,6,23)"/>
<path d="M58 24h2v2h4v2h-2v2h-4v-6z" fill="rgb(38,25,66)"/>
<path d="M60 24h2v2h-2v-2z" fill="rgb(63,39,105)"/>
<path d="M62 24h2v2h-2v-2z" fill="rgb(12,6,23)"/>
<path d="M64 24h6v2h-6v-2z" fill="rgb(150,67,22)"/>
<path d="M70 24h2v4h-2v-4z" fill="rgb(12,6,23)"/>
<path d="M72 24h2v2h2v4h-4v-6z" fill="rgb(38,25,66)"/>
<path d="M78 24h6v2h-6v-2z" fill="rgb(68,15,9)"/>
<path d="M122 24h4v2h-4v-2z" fill="rgb(95,122,171)"/>
<path d="M126 24h2v2h-2v-2z" fill="rgb(129,151,189)"/>
<path d="M24 26h2v2h-2v-2z" fill="rgb(129,151,189)"/>
<path d="M38 26h2v2h-2v-2z" fill="rgb(12,6,23)"/>
<path d="M40 26h4v2h-4v-2z" fill="rgb(38,25,66)"/>
<path d="M44 26h2v8h-2v-8z" fill="rgb(12,6,23)"/>
<path d="M52 26h2v2h-2v-2z" fill="rgb(95,122,171)"/>
<path d="M54 26h2v2h-2v-2z" fill="rgb(255,255,255)"/>
<path d="M64 26h6v2h2v2h4v-2h8v2h2v2h2v2h2v4h-2v2h-4v-6h-2v-2h-10v2h-2v-2h-2v-2
	h-6v-2h2v-2z" fill="rgb(228,215,70)"/>
<path d="M78 26h4v2h-4v-2z" fill="rgb(214,178,36)"/>
<path d="M82 26h2v2h-2v-2z" fill="rgb(186,132,22)"/>
<path d="M84 26h4v2h-4v-2z" fill="rgb(68,15,9)"/>
<path d="M118 26h4v2h-4v-2z" fill="rgb(95,122,171)"/>
<path d="M122 26h4v2h-4v-2z" fill="rgb(129,151,189)"/>
<path d="M144 26h2v2h-2v-2z" fill="rgb(147,184,205)"/>
<path d="M160 26h2v2h-2v-2z" fill="rgb(129,151,189)"/>
<path d="M24 28h2v4h-2v-4z" fill="rgb(95,122,171)"/>
<path d="M36 28h2v6h-2v-6z" fill="rgb(12,6,23)"/>
<path d="M38 28h2v4h4v2h-6v-6z" fill="rgb(38,25,66)"/>
<path d="M40 28h2v2h2v2h-4v-4z" fill="rgb(63,39,105)"/>
<path d="M42 28h2v2h-2v-2z" fill="rgb(120,134,172)"/>
<path d="M54 28h2v2h-2v-2z" fill="rgb(150,67,22)"/>
<path d="M56 28h2v2h-2v-2z" fill="rgb(214,178,36)"/>
<path d="M84 28h2v2h-2v-2z" fill="rgb(214,178,36)"/>
<path d="M86 28h2v2h-2v-2z" fill="rgb(186,132,22)"/>
<path d="M88 28h2v2h-2v-2z" fill="rgb(68,15,9)"/>
<path d="M116 28h2v2h-2v-2z" fill="rgb(95,122,171)"/>
<path d="M118 28h2v2h-2v-2z" fill="rgb(129,151,189)"/>
<path d="M120 28h4v6h-2v4h-6v-2h-2v-2h2v-2h2v-2h2v-2z" fill="rgb(181,213,219)"/>
<path d="M124 28h2v6h-2v-6z" fill="rgb(147,184,205)"/>
<path d="M142 28h2v2h-2v-2z" fill="rgb(147,184,205)"/>
<path d="M152 28h2v2h-2v-2z" fill="rgb(147,184,205)"/>
<path d="M158 28h2v2h-2v-2z" fill="rgb(129,151,189)"/>
<path d="M160 28h2v2h-2v-2z" fill="rgb(95,122,171)"/>
<path d="M26 30h2v2h-2v-2z" fill="rgb(129,151,189)"/>
<path d="M32 30h4v4h-2v-2h-2v-2z" fill="rgb(147,184,205)"/>
<path d="M52 30h2v2h-2v-2z" fill="rgb(150,67,22)"/>
<path d="M54 30h2v2h-2v-2z" fill="rgb(214,178,36)"/>
<path d="M56 30h6v2h-2v2h-2v-2h-2v-2z" fill="rgb(228,215,70)"/>
<path d="M62 30h6v2h2v6h-2v2h-2v2h-4v-2h-2v-8h2v-2z" fill="rgb(242,241,145)"/>
<path d="M86 30h2v2h-2v-2z" fill="rgb(214,178,36)"/>
<path d="M88 30h2v2h-2v-2z" fill="rgb(186,132,22)"/>
<path d="M90 30h2v2h-2v-2z" fill="rgb(68,15,9)"/>
<path d="M114 30h2v2h-2v-2z" fill="rgb(95,122,171)"/>
<path d="M116 30h2v2h-2v-2z" fill="rgb(129,151,189)"/>
<path d="M138 30h4v2h-4v-2z" fill="rgb(147,184,205)"/>
<path d="M148 30h4v2h-4v-2z" fill="rgb(147,184,205)"/>
<path d="M156 30h2v2h-2v-2z" fill="rgb(129,151,189)"/>
<path d="M158 30h2v2h-2v-2z" fill="rgb(95,122,171)"/>
<path d="M26 32h2v2h-2v-2z" fill="rgb(95,122,171)"/>
<path d="M28 32h2v2h-2v-2z" fill="rgb(147,184,205)"/>
<path d="M50 32h4v2h-4v-2z" fill="rgb(12,6,23)"/>
<path d="M54 32h2v2h2v2h-4v-4z" fill="rgb(38,25,66)"/>
<path d="M56 32h2v2h-2v-2z" fill="rgb(150,67,22)"/>
<path d="M72 32h2v2h-2v-2z" fill="rgb(150,67,22)"/>
<path d="M74 32h2v2h-2v-2z" fill="rgb(38,25,66)"/>
<path d="M76 32h2v2h-2v-2z" fill="rgb(63,39,105)"/>
<path d="M78 32h2v2h-2v-2z" fill="rgb(12,6,23)"/>
<path d="M80 32h2v2h-2v-2z" fill="rgb(150,67,22)"/>
<path d="M88 32h2v2h-2v-2z" fill="rgb(214,178,36)"/>
<path d="M90 32h2v2h-2v-2z" fill="rgb(150,67,22)"/>
<path d="M92 32h2v4h-2v-4z" fill="rgb(68,15,9)"/>
<path d="M112 32h2v2h-2v-2z" fill="rgb(95,122,171)"/>
<path d="M114 32h2v2h-2v-2z" fill="rgb(129,151,189)"/>
<path d="M134 32h4v2h-4v-2z" fill="rgb(147,184,205)"/>
<path d="M138 32h4v2h-4v-2z" fill="rgb(129,151,189)"/>
<path d="M142 32h6v2h-4v2h-2v-4z" fill="rgb(147,184,205)"/>
<path d="M154 32h2v2h-2v-2z" fill="rgb(129,151,189)"/>
<path d="M156 32h2v2h-2v-2z" fill="rgb(95,122,171)"/>
<path d="M28 34h2v4h-2v-4z" fill="rgb(95,122,171)"/>
<path d="M30 34h2v2h-2v-2z" fill="rgb(147,184,205)"/>
<path d="M36 34h2v4h-2v-4z" fill="rgb(147,184,205)"/>
<path d="M38 34h6v2h-6v-2z" fill="rgb(12,6,23)"/>
<path d="M44 34h2v2h-2v-2z" fill="rgb(147,184,205)"/>
<path d="M48 34h2v2h-2v-2z" fill="rgb(12,6,23)"/>
<path d="M50 34h2v2h-2v-2z" fill="rgb(63,39,105)"/>
<path d="M52 34h2v2h-2v-2z" fill="rgb(120,134,172)"/>
<path d="M58 34h2v2h-2v-2z" fill="rgb(150,67,22)"/>
<path d="M70 34h2v2h-2v-2z" fill="rgb(150,67,22)"/>
<path d="M72 34h2v2h-2v-2z" fill="rgb(63,39,105)"/>
<path d="M74 34h4v2h-4v-2z" fill="rgb(12,6,23)"/>
<path d="M78 34h2v2h-2v-2z" fill="rgb(63,39,105)"/>
<path d="M80 34h2v2h-2v-2z" fill="rgb(120,134,172)"/>
<path d="M82 34h2v2h-2v-2z" fill="rgb(150,67,22)"/>
<path d="M90 34h2v2h-2v-2z" fill="rgb(186,132,22)"/>
<path d="M110 34h2v2h-2v-2z" fill="rgb(95,122,171)"/>
<path d="M112 34h2v2h2v2h-6v-2h2v-2z" fill="rgb(147,184,205)"/>
<path d="M122 34h2v4h2v2h-4v-6z" fill="rgb(147,184,205)"/>
<path d="M130 34h4v2h-4v-2z" fill="rgb(147,184,205)"/>
<path d="M134 34h8v2h-2v2h-2v2h-4v2h-4v2h-4v2h-8v-2h4v-2h2v-2h2v-2h4v-2h4v-2z" fill="rgb(181,213,219)"/>
<path d="M152 34h2v2h-2v-2z" fill="rgb(129,151,189)"/>
<path d="M154 34h2v2h-2v-2z" fill="rgb(95,122,171)"/>
<path d="M30 36h2v2h-2v-2z" fill="rgb(129,151,189)"/>
<path d="M38 36h8v8h-2v-2h-2v-2h-2v-2h-2v-2z" fill="rgb(181,213,219)"/>
<path d="M46 36h2v2h2v2h-4v-4z" fill="rgb(38,25,66)"/>
<path d="M48 36h2v2h-2v-2z" fill="rgb(63,39,105)"/>
<path d="M50 36h2v2h-2v-2z" fill="rgb(38,25,66)"/>
<path d="M52 36h2v2h-2v-2z" fill="rgb(63,39,105)"/>
<path d="M54 36h4v2h-4v-2z" fill="rgb(12,6,23)"/>
<path d="M58 36h2v4h-2v-4z" fill="rgb(38,25,66)"/>
<path d="M70 36h4v2h-4v-2z" fill="rgb(12,6,23)"/>
<path d="M74 36h2v2h-2v-2z" fill="rgb(63,39,105)"/>
<path d="M76 36h2v2h-2v-2z" fill="rgb(120,134,172)"/>
<path d="M78 36h2v2h-2v-2z" fill="rgb(38,25,66)"/>
<path d="M80 36h2v2h-2v-2z" fill="rgb(63,39,105)"/>
<path d="M82 36h2v10h-2v-2h-4v-4h2v2h2v-6z" fill="rgb(38,25,66)"/>
<path d="M90 36h2v10h-2v2h-2v2h-2v2h-4v2h-4v-2h2v-2h2v-2h2v-8h4v-2h2v-2z" fill="rgb(214,178,36)"/>
<path d="M92 36h2v2h-2v-2z" fill="rgb(150,67,22)"/>
<path d="M94 36h2v10h-2v-10z" fill="rgb(68,15,9)"/>
<path d="M108 36h2v2h-2v-2z" fill="rgb(95,122,171)"/>
<path d="M126 36h4v2h-4v-2z" fill="rgb(147,184,205)"/>
<path d="M140 36h2v2h-2v-2z" fill="rgb(147,184,205)"/>
<path d="M150 36h2v2h-2v-2z" fill="rgb(129,151,189)"/>
<path d="M152 36h2v2h-2v-2z" fill="rgb(95,122,171)"/>
<path d="M30 38h2v2h-2v-2z" fill="rgb(95,122,171)"/>
<path d="M32 38h2v2h-2v-2z" fill="rgb(129,151,189)"/>
<path d="M38 38h2v2h2v2h-2v2h-2v-6z" fill="rgb(147,184,205)"/>
<path d="M50 38h4v2h-4v-2z" fill="rgb(12,6,23)"/>
<path d="M54 38h2v2h-2v-2z" fill="rgb(63,39,105)"/>
<path d="M56 38h2v2h-2v-2z" fill="rgb(120,134,172)"/>
<path d="M68 38h2v2h-2v-2z" fill="rgb(12,6,23)"/>
<path d="M70 38h2v2h-2v-2z" fill="rgb(63,39,105)"/>
<path d="M72 38h2v2h-2v-2z" fill="rgb(120,134,172)"/>
<path d="M74 38h2v2h-2v-2z" fill="rgb(38,25,66)"/>
<path d="M76 38h2v2h-2v-2z" fill="rgb(63,39,105)"/>
<path d="M78 38h4v2h-4v-2z" fill="rgb(12,6,23)"/>
<path d="M92 38h2v6h-2v-6z" fill="rgb(186,132,22)"/>
<path d="M106 38h2v2h-2v-2z" fill="rgb(95,122,171)"/>
<path d="M108 38h2v2h-2v-2z" fill="rgb(147,184,205)"/>
<path d="M110 38h12v2h2v2h-4v-2h-10v-2z" fill="rgb(129,151,189)"/>
<path d="M138 38h2v2h-2v-2z" fill="rgb(147,184,205)"/>
<path d="M146 38h2v2h-2v-2z" fill="rgb(129,151,189)"/>
<path d="M148 38h2v2h-2v-2z" fill="rgb(95,122,171)"/>
<path d="M32 40h2v2h-2v-2z" fill="rgb(95,122,171)"/>
<path d="M34 40h2v2h-2v-2z" fill="rgb(129,151,189)"/>
<path d="M46 40h4v2h-4v-2z" fill="rgb(12,6,23)"/>
<path d="M50 40h2v2h-2v-2z" fill="rgb(63,39,105)"/>
<path d="M52 40h2v2h-2v-2z" fill="rgb(120,134,172)"/>
<path d="M54 40h2v2h-2v-2z" fill="rgb(38,25,66)"/>
<path d="M56 40h2v2h-2v-2z" fill="rgb(63,39,105)"/>
<path d="M58 40h2v2h-2v-2z" fill="rgb(12,6,23)"/>
<path d="M60 40h2v2h4v-2h2v6h-2v6h-2v2h-2v-2h-2v-12z" fill="rgb(228,215,70)"/>
<path d="M68 40h2v2h-2v-2z" fill="rgb(63,39,105)"/>
<path d="M70 40h2v2h-2v-2z" fill="rgb(38,25,66)"/>
<path d="M72 40h2v2h-2v-2z" fill="rgb(63,39,105)"/>
<path d="M74 40h4v2h-4v-2z" fill="rgb(12,6,23)"/>
<path d="M80 40h2v2h-2v-2z" fill="rgb(63,39,105)"/>
<path d="M104 40h2v2h-2v-2z" fill="rgb(95,122,171)"/>
<path d="M106 40h4v2h-4v-2z" fill="rgb(129,151,189)"/>
<path d="M110 40h2v2h-2v-2z" fill="rgb(147,184,205)"/>
<path d="M112 40h8v2h-2v2h-8v-2h2v-2z" fill="rgb(181,213,219)"/>
<path d="M134 40h4v2h-4v-2z" fill="rgb(147,184,205)"/>
<path d="M142 40h2v2h-2v-2z" fill="rgb(129,151,189)"/>
<path d="M144 40h4v2h-4v-2z" fill="rgb(95,122,171)"/>
<path d="M34 42h2v2h-2v-2z" fill="rgb(95,122,171)"/>
<path d="M36 42h2v2h-2v-2z" fill="rgb(129,151,189)"/>
<path d="M40 42h2v4h-2v-4z" fill="rgb(181,213,219)"/>
<path d="M42 42h2v2h-2v-2z" fill="rgb(147,184,205)"/>
<path d="M46 42h2v2h2v2h-4v-4z" fill="rgb(38,25,66)"/>
<path d="M48 42h2v2h-2v-2z" fill="rgb(63,39,105)"/>
<path d="M50 42h2v2h-2v-2z" fill="rgb(38,25,66)"/>
<path d="M52 42h2v2h-2v-2z" fill="rgb(63,39,105)"/>
<path d="M54 42h4v2h-4v-2z" fill="rgb(12,6,23)"/>
<path d="M58 42h2v4h-2v-4z" fill="rgb(38,25,66)"/>
<path d="M68 42h2v2h-2v-2z" fill="rgb(38,25,66)"/>
<path d="M70 42h4v2h-4v-2z" fill="rgb(12,6,23)"/>
<path d="M74 42h2v2h2v2h-4v-4z" fill="rgb(38,25,66)"/>
<path d="M76 42h2v2h-2v-2z" fill="rgb(63,39,105)"/>
<path d="M102 42h2v2h-2v-2z" fill="rgb(95,122,171)"/>
<path d="M104 42h2v2h-2v-2z" fill="rgb(129,151,189)"/>
<path d="M106 42h4v2h6v2h-4v2h-10v-2h2v-2h2v-2z" fill="rgb(147,184,205)"/>
<path d="M118 42h2v2h-2v-2z" fill="rgb(129,151,189)"/>
<path d="M120 42h2v2h-2v-2z" fill="rgb(147,184,205)"/>
<path d="M130 42h2v2h-2v-2z" fill="rgb(147,184,205)"/>
<path d="M132 42h2v2h-2v-2z" fill="rgb(129,151,189)"/>
<path d="M134 42h2v2h-2v-2z" fill="rgb(181,213,219)"/>
<path d="M136 42h4v2h-4v-2z" fill="rgb(129,151,189)"/>
<path d="M140 42h4v2h-4v-2z" fill="rgb(95,122,171)"/>
<path d="M36 44h2v2h-2v-2z" fill="rgb(95,122,171)"/>
<path d="M38 44h2v2h-2v-2z" fill="rgb(129,151,189)"/>
<path d="M42 44h2v2h2v2h-2v2h-2v-6z" fill="rgb(129,151,189)"/>
<path d="M44 44h2v2h-2v-2z" fill="rgb(147,184,205)"/>
<path d="M50 44h4v2h-4v-2z" fill="rgb(12,6,23)"/>
<path d="M54 44h2v2h2v2h-4v-4z" fill="rgb(38,25,66)"/>
<path d="M56 44h2v2h-2v-2z" fill="rgb(63,39,105)"/>
<path d="M68 44h2v4h-2v-4z" fill="rgb(12,6,23)"/>
<path d="M70 44h2v2h2v2h-4v-4z" fill="rgb(38,25,66)"/>
<path d="M72 44h2v2h-2v-2z" fill="rgb(63,39,105)"/>
<path d="M78 44h4v2h-2v2h-6v-2h4v-2z" fill="rgb(12,6,23)"/>
<path d="M92 44h2v2h-2v-2z" fill="rgb(150,67,22)"/>
<path d="M100 44h2v2h-2v-2z" fill="rgb(95,122,171)"/>
<path d="M102 44h2v2h-2v-2z" fill="rgb(129,151,189)"/>
<path d="M116 44h2v2h10v4h-2v-2h-14v-2h4v-2z" fill="rgb(129,151,189)"/>
<path d="M126 44h2v2h-2v-2z" fill="rgb(147,184,205)"/>
<path d="M128 44h4v4h-2v-2h-2v-2z" fill="rgb(129,151,189)"/>
<path d="M132 44h2v2h-2v-2z" fill="rgb(147,184,205)"/>
<path d="M134 44h2v2h-2v-2z" fill="rgb(129,151,189)"/>
<path d="M136 44h4v2h-4v-2z" fill="rgb(95,122,171)"/>
<path d="M38 46h2v2h-2v-2z" fill="rgb(95,122,171)"/>
<path d="M40 46h2v2h-2v-2z" fill="rgb(147,184,205)"/>
<path d="M46 46h4v2h-4v-2z" fill="rgb(12,6,23)"/>
<path d="M50 46h2v2h2v2h-4v-4z" fill="rgb(38,25,66)"/>
<path d="M52 46h2v2h-2v-2z" fill="rgb(63,39,105)"/>
<path d="M58 46h2v2h-2v-2z" fill="rgb(150,67,22)"/>
<path d="M66 46h2v4h-2v-4z" fill="rgb(186,132,22)"/>
<path d="M80 46h2v2h-2v-2z" fill="rgb(38,25,66)"/>
<path d="M82 46h2v2h-2v-2z" fill="rgb(186,132,22)"/>
<path d="M90 46h2v2h-2v-2z" fill="rgb(186,132,22)"/>
<path d="M92 46h2v4h-2v-4z" fill="rgb(68,15,9)"/>
<path d="M98 46h2v2h-2v-2z" fill="rgb(95,122,171)"/>
<path d="M100 46h2v2h10v2h-8v2h4v4h-6v-2h-6v-4h2v-2h2v-2z" fill="rgb(129,151,189)"/>
<path d="M128 46h2v2h-2v-2z" fill="rgb(147,184,205)"/>
<path d="M132 46h4v2h-4v-2z" fill="rgb(95,122,171)"/>
<path d="M40 48h2v2h-2v-2z" fill="rgb(95,122,171)"/>
<path d="M44 48h2v2h-2v-2z" fill="rgb(147,184,205)"/>
<path d="M46 48h2v2h-2v-2z" fill="rgb(68,15,9)"/>
<path d="M48 48h2v2h-2v-2z" fill="rgb(63,39,105)"/>
<path d="M54 48h4v2h-4v-2z" fill="rgb(12,6,23)"/>
<path d="M58 48h2v2h-2v-2z" fill="rgb(186,132,22)"/>
<path d="M68 48h2v2h-2v-2z" fill="rgb(150,67,22)"/>
<path d="M70 48h4v2h-4v-2z" fill="rgb(12,6,23)"/>
<path d="M74 48h6v2h-2v2h-6v-2h2v-2z" fill="rgb(38,25,66)"/>
<path d="M80 48h2v2h-2v-2z" fill="rgb(186,132,22)"/>
<path d="M88 48h2v4h-2v2h-2v2h-2v2h-4v-2h-2v-2h4v-2h4v-2h2v-2z" fill="rgb(186,132,22)"/>
<path d="M90 48h2v2h-2v-2z" fill="rgb(150,67,22)"/>
<path d="M96 48h2v2h-2v-2z" fill="rgb(95,122,171)"/>
<path d="M112 48h14v2h-6v2h-8v2h-4v-2h-4v-2h8v-2z" fill="rgb(147,184,205)"/>
<path d="M128 48h4v2h-4v-2z" fill="rgb(95,122,171)"/>
<path d="M42 50h2v2h-2v-2z" fill="rgb(95,122,171)"/>
<path d="M44 50h4v2h-4v-2z" fill="rgb(129,151,189)"/>
<path d="M48 50h2v8h-2v-8z" fill="rgb(68,15,9)"/>
<path d="M50 50h4v2h-4v-2z" fill="rgb(12,6,23)"/>
<path d="M54 50h2v2h-2v-2z" fill="rgb(38,25,66)"/>
<path d="M56 50h2v2h-2v-2z" fill="rgb(150,67,22)"/>
<path d="M58 50h2v2h2v2h-4v-4z" fill="rgb(214,178,36)"/>
<path d="M66 50h2v4h-4v-2h2v-2z" fill="rgb(214,178,36)"/>
<path d="M68 50h2v4h-2v-4z" fill="rgb(186,132,22)"/>
<path d="M70 50h2v2h-2v-2z" fill="rgb(150,67,22)"/>
<path d="M78 50h2v2h-2v-2z" fill="rgb(186,132,22)"/>
<path d="M90 50h2v4h-2v-4z" fill="rgb(20,13,37)"/>
<path d="M92 50h2v2h-2v-2z" fill="rgb(255,255,255)"/>
<path d="M94 50h2v4h-2v-4z" fill="rgb(95,122,171)"/>
<path d="M120 50h2v2h-2v-2z" fill="rgb(129,151,189)"/>
<path d="M122 50h6v2h-6v-2z" fill="rgb(95,122,171)"/>
<path d="M44 52h2v2h-2v-2z" fill="rgb(95,122,171)"/>
<path d="M46 52h2v2h-2v-2z" fill="rgb(147,184,205)"/>
<path d="M50 52h2v2h-2v-2z" fill="rgb(186,132,22)"/>
<path d="M52 52h4v2h-4v-2z" fill="rgb(117,52,18)"/>
<path d="M56 52h2v2h-2v-2z" fill="rgb(186,132,22)"/>
<path d="M70 52h6v2h-6v-2z" fill="rgb(117,52,18)"/>
<path d="M76 52h2v2h-2v-2z" fill="rgb(186,132,22)"/>
<path d="M88 52h2v2h-2v-2z" fill="rgb(150,67,22)"/>
<path d="M92 52h2v2h-2v-2z" fill="rgb(68,15,9)"/>
<path d="M112 52h2v2h-2v-2z" fill="rgb(129,151,189)"/>
<path d="M114 52h8v2h-8v-2z" fill="rgb(95,122,171)"/>
<path d="M46 54h2v2h-2v-2z" fill="rgb(95,122,171)"/>
<path d="M50 54h2v2h-2v-2z" fill="rgb(117,52,18)"/>
<path d="M52 54h4v4h-2v-2h-2v-2z" fill="rgb(228,215,70)"/>
<path d="M56 54h2v2h-2v-2z" fill="rgb(117,52,18)"/>
<path d="M58 54h2v2h-2v-2z" fill="rgb(150,67,22)"/>
<path d="M60 54h6v2h-6v-2z" fill="rgb(186,132,22)"/>
<path d="M66 54h2v2h-2v-2z" fill="rgb(150,67,22)"/>
<path d="M68 54h2v2h-2v-2z" fill="rgb(117,52,18)"/>
<path d="M70 54h4v2h2v6h-2v-4h-2v-2h-2v-2z" fill="rgb(228,215,70)"/>
<path d="M74 54h2v2h-2v-2z" fill="rgb(214,178,36)"/>
<path d="M76 54h2v2h-2v-2z" fill="rgb(117,52,18)"/>
<path d="M86 54h2v2h-2v-2z" fill="rgb(150,67,22)"/>
<path d="M88 54h2v2h-2v-2z" fill="rgb(20,13,37)"/>
<path d="M90 54h4v2h-4v-2z" fill="rgb(90,37,8)"/>
<path d="M94 54h8v2h-8v-2z" fill="rgb(68,15,9)"/>
<path d="M108 54h6v2h-6v-2z" fill="rgb(95,122,171)"/>
<path d="M50 56h2v2h-2v-2z" fill="rgb(228,215,70)"/>
<path d="M52 56h2v2h-2v-2z" fill="rgb(242,241,145)"/>
<path d="M56 56h2v2h-2v-2z" fill="rgb(214,178,36)"/>
<path d="M58 56h2v2h-2v-2z" fill="rgb(117,52,18)"/>
<path d="M60 56h6v4h-2v-2h-4v-2z" fill="rgb(68,15,9)"/>
<path d="M66 56h2v4h-2v-4z" fill="rgb(117,52,18)"/>
<path d="M68 56h2v2h-2v-2z" fill="rgb(214,178,36)"/>
<path d="M70 56h2v2h-2v-2z" fill="rgb(242,241,145)"/>
<path d="M76 56h2v6h-2v-6z" fill="rgb(214,178,36)"/>
<path d="M78 56h2v2h-2v-2z" fill="rgb(117,52,18)"/>
<path d="M84 56h2v2h-2v-2z" fill="rgb(150,67,22)"/>
<path d="M86 56h2v2h-2v-2z" fill="rgb(20,13,37)"/>
<path d="M88 56h2v2h-2v-2z" fill="rgb(90,37,8)"/>
<path d="M90 56h4v2h-4v-2z" fill="rgb(150,67,22)"/>
<path d="M94 56h2v2h-2v-2z" fill="rgb(90,37,8)"/>
<path d="M96 56h4v2h-4v-2z" fill="rgb(186,132,22)"/>
<path d="M100 56h2v2h-2v-2z" fill="rgb(150,67,22)"/>
<path d="M102 56h2v2h-2v-2z" fill="rgb(68,15,9)"/>
<path d="M104 56h4v2h-4v-2z" fill="rgb(95,122,171)"/>
<path d="M46 58h2v6h-2v-6z" fill="rgb(68,15,9)"/>
<path d="M48 58h2v4h-2v-4z" fill="rgb(228,215,70)"/>
<path d="M50 58h2v4h-2v-4z" fill="rgb(242,241,145)"/>
<path d="M52 58h2v2h-2v-2z" fill="rgb(228,215,70)"/>
<path d="M54 58h2v2h-2v-2z" fill="rgb(214,178,36)"/>
<path d="M56 58h2v2h-2v-2z" fill="rgb(117,52,18)"/>
<path d="M58 58h2v2h-2v-2z" fill="rgb(68,15,9)"/>
<path d="M60 58h4v2h2v2h-2v2h-2v2h2v2h-8v-2h2v-2h-2v-2h2v-2h2v-2z" fill="rgb(12,6,23)"/>
<path d="M68 58h4v4h-4v-4z" fill="rgb(228,215,70)"/>
<path d="M72 58h2v4h-2v-4z" fill="rgb(242,241,145)"/>
<path d="M78 58h2v4h-2v-4z" fill="rgb(68,15,9)"/>
<path d="M80 58h4v2h-4v-2z" fill="rgb(150,67,22)"/>
<path d="M84 58h2v2h-2v-2z" fill="rgb(20,13,37)"/>
<path d="M86 58h2v2h-2v-2z" fill="rgb(150,67,22)"/>
<path d="M88 58h4v6h-2v-2h-4v-2h2v-2z" fill="rgb(186,132,22)"/>
<path d="M92 58h2v6h-2v-6z" fill="rgb(90,37,8)"/>
<path d="M94 58h2v4h-2v-4z" fill="rgb(186,132,22)"/>
<path d="M96 58h4v2h2v4h-4v-2h-2v-4z" fill="rgb(242,241,145)"/>
<path d="M100 58h2v2h-2v-2z" fill="rgb(214,178,36)"/>
<path d="M102 58h2v2h-2v-2z" fill="rgb(150,67,22)"/>
<path d="M104 58h2v4h-2v-4z" fill="rgb(68,15,9)"/>
<path d="M52 60h2v2h-2v-2z" fill="rgb(214,178,36)"/>
<path d="M54 60h2v2h-2v-2z" fill="rgb(117,52,18)"/>
<path d="M56 60h2v2h-2v-2z" fill="rgb(68,15,9)"/>
<path d="M66 60h2v4h-4v-2h2v-2z" fill="rgb(68,15,9)"/>
<path d="M80 60h4v2h-4v-2z" fill="rgb(20,13,37)"/>
<path d="M84 60h2v2h-2v-2z" fill="rgb(150,67,22)"/>
<path d="M102 60h2v2h-2v-2z" fill="rgb(214,178,36)"/>
<path d="M48 62h2v2h-2v-2z" fill="rgb(214,178,36)"/>
<path d="M50 62h2v2h-2v-2z" fill="rgb(228,215,70)"/>
<path d="M52 62h2v2h-2v-2z" fill="rgb(117,52,18)"/>
<path d="M54 62h2v2h-2v-2z" fill="rgb(68,15,9)"/>
<path d="M68 62h2v2h-2v-2z" fill="rgb(117,52,18)"/>
<path d="M70 62h2v2h-2v-2z" fill="rgb(242,241,145)"/>
<path d="M72 62h2v2h-2v-2z" fill="rgb(228,215,70)"/>
<path d="M74 62h2v2h-2v-2z" fill="rgb(214,178,36)"/>
<path d="M76 62h2v2h-2v-2z" fill="rgb(150,67,22)"/>
<path d="M78 62h2v2h-2v-2z" fill="rgb(20,13,37)"/>
<path d="M80 62h4v2h-2v2h-2v2h-2v4h-4v2h-4v-2h2v-2h2v-2h2v-2h2v-2h2v-2z" fill="rgb(150,67,22)"/>
<path d="M84 62h2v2h-2v-2z" fill="rgb(186,132,22)"/>
<path d="M86 62h4v2h2v6h-2v2h-8v-2h-2v-2h2v-2h2v-2h2v-2z" fill="rgb(214,178,36)"/>
<path d="M94 62h2v2h-2v-2z" fill="rgb(150,67,22)"/>
<path d="M96 62h2v2h-2v-2z" fill="rgb(228,215,70)"/>
<path d="M102 62h2v4h-2v2h-2v-2h-2v-2h4v-2z" fill="rgb(228,215,70)"/>
<path d="M104 62h2v4h-2v-4z" fill="rgb(150,67,22)"/>
<path d="M106 62h2v4h-2v-4z" fill="rgb(68,15,9)"/>
<path d="M46 64h2v2h-2v-2z" fill="rgb(20,13,37)"/>
<path d="M48 64h2v2h-2v-2z" fill="rgb(150,67,22)"/>
<path d="M50 64h2v2h-2v-2z" fill="rgb(214,178,36)"/>
<path d="M52 64h2v2h-2v-2z" fill="rgb(228,215,70)"/>
<path d="M54 64h2v2h-2v-2z" fill="rgb(117,52,18)"/>
<path d="M56 64h2v2h-2v-2z" fill="rgb(68,15,9)"/>
<path d="M62 64h2v2h-2v-2z" fill="rgb(68,15,9)"/>
<path d="M64 64h2v2h-2v-2z" fill="rgb(117,52,18)"/>
<path d="M66 64h6v2h-6v-2z" fill="rgb(228,215,70)"/>
<path d="M72 64h2v2h-2v-2z" fill="rgb(214,178,36)"/>
<path d="M74 64h2v2h-2v-2z" fill="rgb(150,67,22)"/>
<path d="M76 64h2v2h-2v-2z" fill="rgb(20,13,37)"/>
<path d="M82 64h2v2h-2v-2z" fill="rgb(186,132,22)"/>
<path d="M92 64h2v4h-2v-4z" fill="rgb(150,67,22)"/>
<path d="M94 64h2v4h-2v-4z" fill="rgb(68,15,9)"/>
<path d="M96 64h2v2h-2v-2z" fill="rgb(186,132,22)"/>
<path d="M48 66h2v2h-2v-2z" fill="rgb(20,13,37)"/>
<path d="M50 66h4v2h-4v-2z" fill="rgb(186,132,22)"/>
<path d="M54 66h2v2h-2v-2z" fill="rgb(68,15,9)"/>
<path d="M64 66h2v2h-2v-2z" fill="rgb(68,15,9)"/>
<path d="M66 66h2v2h-2v-2z" fill="rgb(117,52,18)"/>
<path d="M68 66h4v2h-4v-2z" fill="rgb(186,132,22)"/>
<path d="M72 66h2v2h-2v-2z" fill="rgb(150,67,22)"/>
<path d="M74 66h2v2h-2v-2z" fill="rgb(20,13,37)"/>
<path d="M80 66h2v2h-2v-2z" fill="rgb(186,132,22)"/>
<path d="M96 66h2v2h-2v-2z" fill="rgb(150,67,22)"/>
<path d="M98 66h2v2h-2v-2z" fill="rgb(214,178,36)"/>
<path d="M102 66h2v2h-2v-2z" fill="rgb(214,178,36)"/>
<path d="M104 66h2v2h-2v-2z" fill="rgb(68,15,9)"/>
<path d="M106 66h2v2h-2v-2z" fill="rgb(186,132,22)"/>
<path d="M108 66h2v2h-2v-2z" fill="rgb(68,15,9)"/>
<path d="M50 68h4v2h-4v-2z" fill="rgb(20,13,37)"/>
<path d="M54 68h2v2h-2v-2z" fill="rgb(12,6,23)"/>
<path d="M56 68h4v2h-4v-2z" fill="rgb(255,255,255)"/>
<path d="M60 68h4v4h-2v-2h-2v-2z" fill="rgb(68,15,9)"/>
<path d="M64 68h2v6h-2v-6z" fill="rgb(12,6,23)"/>
<path d="M66 68h8v2h-8v-2z" fill="rgb(20,13,37)"/>
<path d="M78 68h2v2h2v2h-4v-4z" fill="rgb(186,132,22)"/>
<path d="M92 68h2v2h2v2h-2v2h-10v-2h6v-2h2v-2z" fill="rgb(186,132,22)"/>
<path d="M94 68h2v2h-2v-2z" fill="rgb(150,67,22)"/>
<path d="M96 68h2v2h-2v-2z" fill="rgb(68,15,9)"/>
<path d="M98 68h2v2h-2v-2z" fill="rgb(150,67,22)"/>
<path d="M100 68h2v2h-2v-2z" fill="rgb(90,37,8)"/>
<path d="M102 68h4v2h-4v-2z" fill="rgb(150,67,22)"/>
<path d="M106 68h2v6h-2v-6z" fill="rgb(68,15,9)"/>
<path d="M108 68h2v6h-2v-6z" fill="rgb(186,132,22)"/>
<path d="M110 68h2v4h2v2h2v6h-4v-6h-2v-6z" fill="rgb(68,15,9)"/>
<path d="M56 70h4v2h-4v-2z" fill="rgb(68,15,9)"/>
<path d="M60 70h2v2h-2v-2z" fill="rgb(90,37,8)"/>
<path d="M66 70h2v2h-2v-2z" fill="rgb(68,15,9)"/>
<path d="M68 70h4v2h-2v2h-4v-2h2v-2z" fill="rgb(90,37,8)"/>
<path d="M96 70h2v2h-2v-2z" fill="rgb(150,67,22)"/>
<path d="M98 70h2v2h-2v-2z" fill="rgb(68,15,9)"/>
<path d="M100 70h6v2h-2v4h-2v-4h-2v-2z" fill="rgb(186,132,22)"/>
<path d="M54 72h2v2h-2v-2z" fill="rgb(68,15,9)"/>
<path d="M56 72h6v4h-2v-2h-4v-2z" fill="rgb(150,67,22)"/>
<path d="M62 72h2v2h-2v-2z" fill="rgb(90,37,8)"/>
<path d="M74 72h8v2h8v2h2v2h-2v2h-4v-2h-16v-2h2v-2h2v-2z" fill="rgb(34,23,60)"/>
<path d="M82 72h2v2h-2v-2z" fill="rgb(150,67,22)"/>
<path d="M94 72h2v2h-2v-2z" fill="rgb(150,67,22)"/>
<path d="M96 72h2v2h-2v-2z" fill="rgb(68,15,9)"/>
<path d="M98 72h2v2h-2v-2z" fill="rgb(186,132,22)"/>
<path d="M100 72h2v4h-2v2h-2v2h-2v4h-2v2h-2v-4h2v-4h2v-2h2v-2h2v-2z" fill="rgb(228,215,70)"/>
<path d="M104 72h2v2h-2v-2z" fill="rgb(150,67,22)"/>
<path d="M52 74h2v2h-2v-2z" fill="rgb(68,15,9)"/>
<path d="M54 74h2v2h-2v-2z" fill="rgb(150,67,22)"/>
<path d="M56 74h2v2h-2v-2z" fill="rgb(186,132,22)"/>
<path d="M58 74h2v2h-2v-2z" fill="rgb(214,178,36)"/>
<path d="M62 74h2v2h-2v-2z" fill="rgb(12,6,23)"/>
<path d="M64 74h8v2h-2v2h-6v2h-4v-2h2v-2h2v-2z" fill="rgb(20,13,37)"/>
<path d="M90 74h4v2h-4v-2z" fill="rgb(150,67,22)"/>
<path d="M94 74h2v2h-2v-2z" fill="rgb(68,15,9)"/>
<path d="M96 74h2v2h-2v-2z" fill="rgb(186,132,22)"/>
<path d="M104 74h2v4h-2v-4z" fill="rgb(68,15,9)"/>
<path d="M106 74h2v2h-2v-2z" fill="rgb(90,37,8)"/>
<path d="M108 74h4v2h-4v-2z" fill="rgb(150,67,22)"/>
<path d="M50 76h2v2h-2v-2z" fill="rgb(68,15,9)"/>
<path d="M52 76h2v2h-2v-2z" fill="rgb(150,67,22)"/>
<path d="M54 76h2v2h-2v-2z" fill="rgb(186,132,22)"/>
<path d="M56 76h2v4h-4v-2h2v-2z" fill="rgb(214,178,36)"/>
<path d="M58 76h2v2h-2v-2z" fill="rgb(186,132,22)"/>
<path d="M60 76h2v2h-2v-2z" fill="rgb(12,6,23)"/>
<path d="M92 76h2v2h-2v-2z" fill="rgb(68,15,9)"/>
<path d="M94 76h2v2h-2v-2z" fill="rgb(186,132,22)"/>
<path d="M100 76h2v2h-2v-2z" fill="rgb(214,178,36)"/>
<path d="M102 76h2v2h-2v-2z" fill="rgb(150,67,22)"/>
<path d="M106 76h6v2h-2v4h-2v-4h-2v-2z" fill="rgb(186,132,22)"/>
<path d="M48 78h2v4h-2v-4z" fill="rgb(68,15,9)"/>
<path d="M50 78h2v2h-2v-2z" fill="rgb(150,67,22)"/>
<path d="M52 78h2v2h-2v-2z" fill="rgb(186,132,22)"/>
<path d="M58 78h2v2h-2v-2z" fill="rgb(12,6,23)"/>
<path d="M64 78h4v2h-4v-2z" fill="rgb(179,80,27)"/>
<path d="M68 78h8v2h-6v2h-8v-2h6v-2z" fill="rgb(186,132,22)"/>
<path d="M76 78h4v4h-10v-2h6v-2z" fill="rgb(214,178,36)"/>
<path d="M80 78h4v2h-4v-2z" fill="rgb(186,132,22)"/>
<path d="M84 78h2v2h-2v-2z" fill="rgb(150,67,22)"/>
<path d="M90 78h2v2h-2v-2z" fill="rgb(68,15,9)"/>
<path d="M92 78h2v2h-2v-2z" fill="rgb(186,132,22)"/>
<path d="M98 78h2v2h-2v-2z" fill="rgb(179,80,27)"/>
<path d="M100 78h2v2h-2v-2z" fill="rgb(186,132,22)"/>
<path d="M102 78h2v4h-2v-4z" fill="rgb(68,15,9)"/>
<path d="M104 78h2v2h-2v-2z" fill="rgb(150,67,22)"/>
<path d="M106 78h2v4h-2v2h-2v-4h2v-2z" fill="rgb(214,178,36)"/>
<path d="M110 78h2v2h-2v-2z" fill="rgb(150,67,22)"/>
<path d="M50 80h2v2h-2v-2z" fill="rgb(186,132,22)"/>
<path d="M52 80h2v2h-2v-2z" fill="rgb(214,178,36)"/>
<path d="M54 80h2v2h-2v-2z" fill="rgb(179,80,27)"/>
<path d="M56 80h2v2h-2v-2z" fill="rgb(12,6,23)"/>
<path d="M58 80h2v2h-2v-2z" fill="rgb(68,15,9)"/>
<path d="M60 80h2v2h-2v-2z" fill="rgb(179,80,27)"/>
<path d="M80 80h8v2h-2v2h-2v-2h-4v-2z" fill="rgb(228,215,70)"/>
<path d="M88 80h2v2h-2v-2z" fill="rgb(68,15,9)"/>
<path d="M90 80h4v2h-4v-2z" fill="rgb(179,80,27)"/>
<path d="M96 80h4v4h-2v-2h-2v-2z" fill="rgb(186,132,22)"/>
<path d="M100 80h2v2h-2v-2z" fill="rgb(179,80,27)"/>
<path d="M110 80h2v2h-2v-2z" fill="rgb(68,15,9)"/>
<path d="M112 80h4v2h-4v-2z" fill="rgb(150,67,22)"/>
<path d="M116 80h2v6h-2v-6z" fill="rgb(68,15,9)"/>
<path d="M46 82h2v2h-2v-2z" fill="rgb(68,15,9)"/>
<path d="M48 82h2v2h-2v-2z" fill="rgb(179,80,27)"/>
<path d="M50 82h2v2h-2v-2z" fill="rgb(214,178,36)"/>
<path d="M52 82h4v2h-4v-2z" fill="rgb(12,6,23)"/>
<path d="M56 82h4v2h-4v-2z" fill="rgb(90,37,8)"/>
<path d="M60 82h2v2h-2v-2z" fill="rgb(20,13,37)"/>
<path d="M62 82h16v2h8v2h-10v2h-4v2h-16v-2h2v-2h2v-2h2v-2z" fill="rgb(34,23,60)"/>
<path d="M78 82h2v2h-2v-2z" fill="rgb(117,52,18)"/>
<path d="M80 82h2v2h-2v-2z" fill="rgb(186,132,22)"/>
<path d="M82 82h2v2h-2v-2z" fill="rgb(214,178,36)"/>
<path d="M86 82h2v6h6v2h2v2h-2v2h6v2h-2v4h6v2h-2v2h-2v-2h-4v-6h-4v-4h-2v-2h-4
	v-8z" fill="rgb(68,15,9)"/>
<path d="M88 82h2v2h-2v-2z" fill="rgb(179,80,27)"/>
<path d="M90 82h2v4h-4v-2h2v-2z" fill="rgb(186,132,22)"/>
<path d="M96 82h2v2h-2v-2z" fill="rgb(179,80,27)"/>
<path d="M100 82h2v4h-2v-4z" fill="rgb(68,15,9)"/>
<path d="M102 82h2v2h-2v-2z" fill="rgb(150,67,22)"/>
<path d="M106 82h2v4h-2v-4z" fill="rgb(186,132,22)"/>
<path d="M108 82h2v6h-2v-6z" fill="rgb(68,15,9)"/>
<path d="M110 82h2v2h-2v-2z" fill="rgb(150,67,22)"/>
<path d="M112 82h4v2h-2v2h-2v-4z" fill="rgb(186,132,22)"/>
<path d="M44 84h2v2h-2v-2z" fill="rgb(68,15,9)"/>
<path d="M46 84h2v2h-2v-2z" fill="rgb(179,80,27)"/>
<path d="M48 84h2v2h-2v-2z" fill="rgb(186,132,22)"/>
<path d="M50 84h2v2h-2v-2z" fill="rgb(12,6,23)"/>
<path d="M52 84h2v2h-2v-2z" fill="rgb(68,15,9)"/>
<path d="M54 84h6v2h-2v2h-2v2h-2v2h-4v2h-2v2h-2v-4h2v-2h2v-2h2v-2h2v-2z" fill="rgb(20,13,37)"/>
<path d="M94 84h2v2h-2v-2z" fill="rgb(186,132,22)"/>
<path d="M96 84h2v2h2v2h-2v2h-2v-6z" fill="rgb(68,15,9)"/>
<path d="M98 84h2v2h-2v-2z" fill="rgb(179,80,27)"/>
<path d="M102 84h2v4h-2v2h-2v-4h2v-2z" fill="rgb(228,215,70)"/>
<path d="M104 84h2v2h-2v-2z" fill="rgb(179,80,27)"/>
<path d="M110 84h2v6h-2v-6z" fill="rgb(214,178,36)"/>
<path d="M114 84h2v2h-2v-2z" fill="rgb(150,67,22)"/>
<path d="M42 86h2v4h2v2h-4v-6z" fill="rgb(68,15,9)"/>
<path d="M44 86h2v4h-2v-4z" fill="rgb(179,80,27)"/>
<path d="M46 86h2v2h-2v-2z" fill="rgb(186,132,22)"/>
<path d="M48 86h2v2h-2v-2z" fill="rgb(12,6,23)"/>
<path d="M50 86h2v2h-2v-2z" fill="rgb(68,15,9)"/>
<path d="M76 86h10v4h4v2h2v4h4v4h-2v2h-2v-2h-2v-2h-2v-2h-2v-2h-4v-2h-4v-2h-6v-2
	h4v-2z" fill="rgb(63,39,105)"/>
<path d="M88 86h4v2h-4v-2z" fill="rgb(179,80,27)"/>
<path d="M92 86h2v2h-2v-2z" fill="rgb(186,132,22)"/>
<path d="M94 86h2v4h-2v-4z" fill="rgb(179,80,27)"/>
<path d="M104 86h2v4h-2v-4z" fill="rgb(186,132,22)"/>
<path d="M106 86h2v2h-2v-2z" fill="rgb(179,80,27)"/>
<path d="M112 86h2v2h-2v-2z" fill="rgb(150,67,22)"/>
<path d="M114 86h2v2h-2v-2z" fill="rgb(68,15,9)"/>
<path d="M46 88h2v4h-2v-4z" fill="rgb(12,6,23)"/>
<path d="M48 88h2v2h-2v-2z" fill="rgb(68,15,9)"/>
<path d="M98 88h2v2h-2v-2z" fill="rgb(186,132,22)"/>
<path d="M102 88h2v2h-2v-2z" fill="rgb(179,80,27)"/>
<path d="M106 88h2v4h-2v-4z" fill="rgb(68,15,9)"/>
<path d="M108 88h2v2h-2v-2z" fill="rgb(228,215,70)"/>
<path d="M112 88h2v6h-2v-6z" fill="rgb(68,15,9)"/>
<path d="M54 90h2v2h-2v-2z" fill="rgb(117,52,18)"/>
<path d="M56 90h2v2h-2v-2z" fill="rgb(186,132,22)"/>
<path d="M58 90h2v2h-2v-2z" fill="rgb(186,136,22)"/>
<path d="M60 90h8v2h-2v4h2v2h2v4h-6v-2h-4v2h-2v2h-4v-2h-2v-6h2v-2h2v-2h4v-2z" fill="rgb(214,178,36)"/>
<path d="M68 90h6v2h-2v4h2v2h4v-2h2v-2h4v2h2v4h-2v2h-10v-2h-4v-2h-2v-2h-2v-4h2
	v-2z" fill="rgb(228,215,70)"/>
<path d="M74 90h2v2h4v4h-2v2h-4v-2h-2v-4h2v-2z" fill="rgb(242,241,145)"/>
<path d="M76 90h2v2h-2v-2z" fill="rgb(181,103,18)"/>
<path d="M96 90h2v2h-2v-2z" fill="rgb(186,132,22)"/>
<path d="M98 90h2v2h-2v-2z" fill="rgb(214,178,36)"/>
<path d="M100 90h2v2h-2v-2z" fill="rgb(186,132,22)"/>
<path d="M102 90h2v2h2v2h-2v2h-2v-6z" fill="rgb(68,15,9)"/>
<path d="M104 90h2v2h-2v-2z" fill="rgb(179,80,27)"/>
<path d="M108 90h2v2h-2v-2z" fill="rgb(179,80,27)"/>
<path d="M110 90h2v2h-2v-2z" fill="rgb(186,132,22)"/>
<path d="M44 92h2v4h-2v-4z" fill="rgb(12,6,23)"/>
<path d="M50 92h2v2h-2v-2z" fill="rgb(117,52,18)"/>
<path d="M52 92h2v2h-2v-2z" fill="rgb(186,135,22)"/>
<path d="M54 92h2v2h-2v-2z" fill="rgb(186,136,22)"/>
<path d="M80 92h2v2h-2v-2z" fill="rgb(186,132,22)"/>
<path d="M94 92h4v2h-4v-2z" fill="rgb(179,80,27)"/>
<path d="M98 92h2v2h-2v-2z" fill="rgb(186,132,22)"/>
<path d="M100 92h2v4h-2v-4z" fill="rgb(179,80,27)"/>
<path d="M106 92h4v4h-2v-2h-2v-2z" fill="rgb(186,132,22)"/>
<path d="M110 92h2v2h-2v-2z" fill="rgb(179,80,27)"/>
<path d="M48 94h2v2h-2v-2z" fill="rgb(179,80,27)"/>
<path d="M50 94h2v4h-2v-4z" fill="rgb(186,135,22)"/>
<path d="M52 94h2v2h-2v-2z" fill="rgb(186,136,22)"/>
<path d="M84 94h2v2h-2v-2z" fill="rgb(186,132,22)"/>
<path d="M104 94h2v2h-2v-2z" fill="rgb(186,132,22)"/>
<path d="M106 94h2v2h-2v-2z" fill="rgb(179,80,27)"/>
<path d="M110 94h2v4h-2v-4z" fill="rgb(68,15,9)"/>
<path d="M44 96h2v4h-2v-4z" fill="rgb(68,15,9)"/>
<path d="M46 96h2v2h-2v-2z" fill="rgb(179,80,27)"/>
<path d="M48 96h2v6h2v2h-2v2h-2v-2h-2v-2h2v-6z" fill="rgb(186,132,22)"/>
<path d="M86 96h2v2h-2v-2z" fill="rgb(186,132,22)"/>
<path d="M98 96h2v2h-2v-2z" fill="rgb(186,132,22)"/>
<path d="M100 96h2v2h-2v-2z" fill="rgb(68,15,9)"/>
<path d="M102 96h2v4h-2v-4z" fill="rgb(186,132,22)"/>
<path d="M104 96h2v2h-2v-2z" fill="rgb(214,178,36)"/>
<path d="M106 96h2v2h2v2h-2v10h-4v-2h2v-4h-2v-2h2v-6z" fill="rgb(68,15,9)"/>
<path d="M108 96h2v2h-2v-2z" fill="rgb(179,80,27)"/>
<path d="M46 98h2v2h-2v-2z" fill="rgb(186,136,22)"/>
<path d="M50 98h2v4h-2v-4z" fill="rgb(186,136,22)"/>
<path d="M86 98h2v2h2v2h2v4h2v6h-2v2h-2v-4h-2v-4h-2v-2h-2v-4h2v-2z" fill="rgb(214,178,36)"/>
<path d="M88 98h2v2h-2v-2z" fill="rgb(186,132,22)"/>
<path d="M98 98h4v2h-4v-2z" fill="rgb(179,80,27)"/>
<path d="M104 98h2v4h-2v-4z" fill="rgb(179,80,27)"/>
<path d="M42 100h2v14h-2v-14z" fill="rgb(68,15,9)"/>
<path d="M44 100h2v2h-2v-2z" fill="rgb(179,80,27)"/>
<path d="M46 100h2v2h-2v-2z" fill="rgb(186,135,22)"/>
<path d="M60 100h4v2h-4v-2z" fill="rgb(186,132,22)"/>
<path d="M70 100h4v2h-4v-2z" fill="rgb(186,132,22)"/>
<path d="M90 100h2v2h-2v-2z" fill="rgb(186,132,22)"/>
<path d="M94 100h2v2h4v6h-2v2h-2v-4h-2v-2h-2v-2h2v-2z" fill="rgb(34,23,60)"/>
<path d="M44 102h2v2h-2v-2z" fill="rgb(186,135,23)"/>
<path d="M52 102h2v2h-2v-2z" fill="rgb(186,136,22)"/>
<path d="M58 102h2v2h-2v-2z" fill="rgb(186,136,22)"/>
<path d="M60 102h4v2h-4v-2z" fill="rgb(150,67,22)"/>
<path d="M64 102h4v2h-4v-2z" fill="rgb(186,132,22)"/>
<path d="M68 102h4v2h2v2h-4v-2h-2v-2z" fill="rgb(179,80,27)"/>
<path d="M72 102h2v2h-2v-2z" fill="rgb(150,67,22)"/>
<path d="M74 102h2v2h-2v-2z" fill="rgb(186,132,22)"/>
<path d="M76 102h4v2h-4v-2z" fill="rgb(214,178,36)"/>
<path d="M80 102h4v2h-4v-2z" fill="rgb(186,132,22)"/>
<path d="M102 102h2v2h-2v-2z" fill="rgb(150,67,22)"/>
<path d="M44 104h2v4h-2v-4z" fill="rgb(186,132,22)"/>
<path d="M46 104h2v2h-2v-2z" fill="rgb(186,135,23)"/>
<path d="M50 104h4v2h-4v-2z" fill="rgb(179,80,27)"/>
<path d="M54 104h2v2h-2v-2z" fill="rgb(186,132,22)"/>
<path d="M56 104h2v2h-2v-2z" fill="rgb(150,67,22)"/>
<path d="M58 104h2v2h-2v-2z" fill="rgb(117,52,18)"/>
<path d="M60 104h4v2h-4v-2z" fill="rgb(179,80,27)"/>
<path d="M64 104h2v2h-2v-2z" fill="rgb(150,67,22)"/>
<path d="M66 104h2v4h-2v-4z" fill="rgb(117,52,18)"/>
<path d="M68 104h2v2h-2v-2z" fill="rgb(150,67,22)"/>
<path d="M74 104h2v2h-2v-2z" fill="rgb(117,52,18)"/>
<path d="M76 104h4v2h-4v-2z" fill="rgb(179,80,27)"/>
<path d="M80 104h2v2h-2v-2z" fill="rgb(117,52,18)"/>
<path d="M82 104h2v2h-2v-2z" fill="rgb(90,37,8)"/>
<path d="M84 104h2v2h-2v-2z" fill="rgb(186,132,22)"/>
<path d="M92 104h2v2h-2v-2z" fill="rgb(186,132,22)"/>
<path d="M100 104h2v2h2v8h-2v4h-2v2h-2v-12h2v-4z" fill="rgb(20,13,37)"/>
<path d="M102 104h2v2h-2v-2z" fill="rgb(68,15,9)"/>
<path d="M104 104h2v4h-2v-4z" fill="rgb(150,67,22)"/>
<path d="M46 106h2v2h-2v-2z" fill="rgb(179,80,27)"/>
<path d="M48 106h2v2h-2v-2z" fill="rgb(117,52,18)"/>
<path d="M50 106h2v2h-2v-2z" fill="rgb(20,13,37)"/>
<path d="M52 106h2v2h-2v-2z" fill="rgb(68,15,9)"/>
<path d="M54 106h2v2h-2v-2z" fill="rgb(179,80,27)"/>
<path d="M56 106h2v4h-2v-4z" fill="rgb(117,52,18)"/>
<path d="M58 106h4v2h2v2h-6v-4z" fill="rgb(20,13,37)"/>
<path d="M62 106h2v2h-2v-2z" fill="rgb(68,15,9)"/>
<path d="M64 106h2v2h-2v-2z" fill="rgb(179,80,27)"/>
<path d="M68 106h4v2h2v2h-6v-4z" fill="rgb(20,13,37)"/>
<path d="M72 106h2v2h-2v-2z" fill="rgb(68,15,9)"/>
<path d="M74 106h2v2h-2v-2z" fill="rgb(150,67,22)"/>
<path d="M76 106h2v2h-2v-2z" fill="rgb(117,52,18)"/>
<path d="M78 106h2v2h-2v-2z" fill="rgb(90,37,8)"/>
<path d="M80 106h2v2h-2v-2z" fill="rgb(179,80,27)"/>
<path d="M82 106h2v4h-2v-4z" fill="rgb(150,67,22)"/>
<path d="M84 106h2v2h-2v-2z" fill="rgb(90,37,8)"/>
<path d="M86 106h2v2h-2v-2z" fill="rgb(186,132,22)"/>
<path d="M94 106h2v2h-2v-2z" fill="rgb(49,34,56)"/>
<path d="M44 108h2v4h-2v-4z" fill="rgb(179,80,27)"/>
<path d="M46 108h2v2h2v2h-2v2h-4v-2h2v-4z" fill="rgb(117,52,18)"/>
<path d="M48 108h2v2h-2v-2z" fill="rgb(68,15,9)"/>
<path d="M50 108h4v2h-4v-2z" fill="rgb(34,23,60)"/>
<path d="M54 108h2v2h-2v-2z" fill="rgb(150,67,22)"/>
<path d="M64 108h2v2h-2v-2z" fill="rgb(150,67,22)"/>
<path d="M66 108h2v2h-2v-2z" fill="rgb(90,37,8)"/>
<path d="M74 108h2v4h-2v-4z" fill="rgb(90,37,8)"/>
<path d="M76 108h2v2h-2v-2z" fill="rgb(20,13,37)"/>
<path d="M78 108h2v2h-2v-2z" fill="rgb(68,15,9)"/>
<path d="M80 108h2v2h-2v-2z" fill="rgb(117,52,18)"/>
<path d="M84 108h2v2h-2v-2z" fill="rgb(117,52,18)"/>
<path d="M86 108h2v2h-2v-2z" fill="rgb(90,37,8)"/>
<path d="M94 108h2v8h-2v2h-2v-6h2v-4z" fill="rgb(186,132,22)"/>
<path d="M50 110h4v2h-4v-2z" fill="rgb(179,80,27)"/>
<path d="M54 110h4v2h-4v-2z" fill="rgb(90,37,8)"/>
<path d="M58 110h2v2h-2v-2z" fill="rgb(68,15,9)"/>
<path d="M60 110h4v2h-4v-2z" fill="rgb(34,23,60)"/>
<path d="M64 110h2v2h-2v-2z" fill="rgb(90,37,8)"/>
<path d="M66 110h2v2h-2v-2z" fill="rgb(117,52,18)"/>
<path d="M68 110h2v2h-2v-2z" fill="rgb(68,15,9)"/>
<path d="M70 110h4v2h-4v-2z" fill="rgb(34,23,60)"/>
<path d="M76 110h4v2h-4v-2z" fill="rgb(34,23,60)"/>
<path d="M80 110h6v2h-6v-2z" fill="rgb(90,37,8)"/>
<path d="M86 110h2v2h-2v-2z" fill="rgb(117,52,18)"/>
<path d="M88 110h2v2h-2v-2z" fill="rgb(90,37,8)"/>
<path d="M96 110h2v2h-2v-2z" fill="rgb(49,34,56)"/>
<path d="M104 110h2v4h-2v-4z" fill="rgb(12,6,23)"/>
<path d="M48 112h4v2h2v2h-6v-4z" fill="rgb(20,13,37)"/>
<path d="M52 112h2v2h-2v-2z" fill="rgb(68,15,9)"/>
<path d="M54 112h2v4h-2v-4z" fill="rgb(150,67,22)"/>
<path d="M56 112h2v2h-2v-2z" fill="rgb(117,52,18)"/>
<path d="M58 112h2v2h-2v-2z" fill="rgb(150,67,22)"/>
<path d="M60 112h2v2h-2v-2z" fill="rgb(179,80,27)"/>
<path d="M62 112h2v2h-2v-2z" fill="rgb(150,67,22)"/>
<path d="M64 112h2v2h-2v-2z" fill="rgb(117,52,18)"/>
<path d="M66 112h4v2h-4v-2z" fill="rgb(90,37,8)"/>
<path d="M70 112h2v2h-2v-2z" fill="rgb(117,52,18)"/>
<path d="M72 112h2v2h-2v-2z" fill="rgb(90,37,8)"/>
<path d="M74 112h2v2h-2v-2z" fill="rgb(117,52,18)"/>
<path d="M76 112h2v2h-2v-2z" fill="rgb(150,67,22)"/>
<path d="M78 112h4v2h-4v-2z" fill="rgb(179,80,27)"/>
<path d="M82 112h2v4h-2v-4z" fill="rgb(117,52,18)"/>
<path d="M84 112h4v2h-4v-2z" fill="rgb(179,80,27)"/>
<path d="M88 112h2v2h-2v-2z" fill="rgb(117,52,18)"/>
<path d="M96 112h2v6h-2v2h-2v2h-2v-2h-2v-2h4v-2h2v-4z" fill="rgb(181,103,18)"/>
<path d="M44 114h4v2h-2v6h-2v-8z" fill="rgb(68,15,9)"/>
<path d="M56 114h4v2h2v2h-6v-4z" fill="rgb(20,13,37)"/>
<path d="M60 114h2v2h-2v-2z" fill="rgb(68,15,9)"/>
<path d="M62 114h2v2h-2v-2z" fill="rgb(179,80,27)"/>
<path d="M64 114h2v2h-2v-2z" fill="rgb(90,37,8)"/>
<path d="M66 114h2v2h-2v-2z" fill="rgb(117,52,18)"/>
<path d="M68 114h4v2h-4v-2z" fill="rgb(179,80,27)"/>
<path d="M72 114h2v2h-2v-2z" fill="rgb(117,52,18)"/>
<path d="M74 114h2v2h-2v-2z" fill="rgb(90,37,8)"/>
<path d="M76 114h4v2h2v2h-6v-4z" fill="rgb(20,13,37)"/>
<path d="M80 114h2v2h-2v-2z" fill="rgb(68,15,9)"/>
<path d="M84 114h2v2h2v2h-4v-4z" fill="rgb(20,13,37)"/>
<path d="M86 114h2v2h-2v-2z" fill="rgb(68,15,9)"/>
<path d="M88 114h2v4h-2v-4z" fill="rgb(179,80,27)"/>
<path d="M90 114h2v4h-2v-4z" fill="rgb(150,67,22)"/>
<path d="M102 114h2v4h-2v-4z" fill="rgb(12,6,23)"/>
<path d="M46 116h2v2h-2v-2z" fill="rgb(117,52,18)"/>
<path d="M48 116h2v2h-2v-2z" fill="rgb(68,15,9)"/>
<path d="M50 116h4v2h-4v-2z" fill="rgb(34,23,60)"/>
<path d="M54 116h2v2h-2v-2z" fill="rgb(117,52,18)"/>
<path d="M62 116h2v2h-2v-2z" fill="rgb(150,67,22)"/>
<path d="M64 116h2v4h-2v-4z" fill="rgb(117,52,18)"/>
<path d="M66 116h4v2h2v2h-6v-4z" fill="rgb(20,13,37)"/>
<path d="M70 116h2v2h-2v-2z" fill="rgb(68,15,9)"/>
<path d="M72 116h2v2h-2v-2z" fill="rgb(179,80,27)"/>
<path d="M74 116h2v2h-2v-2z" fill="rgb(117,52,18)"/>
<path d="M82 116h2v4h-2v-4z" fill="rgb(90,37,8)"/>
<path d="M46 118h2v2h6v2h-8v-4z" fill="rgb(90,37,8)"/>
<path d="M48 118h6v2h-6v-2z" fill="rgb(117,52,18)"/>
<path d="M54 118h2v2h-2v-2z" fill="rgb(90,37,8)"/>
<path d="M56 118h2v2h-2v-2z" fill="rgb(68,15,9)"/>
<path d="M58 118h4v2h-4v-2z" fill="rgb(34,23,60)"/>
<path d="M62 118h2v2h-2v-2z" fill="rgb(90,37,8)"/>
<path d="M72 118h2v2h-2v-2z" fill="rgb(150,67,22)"/>
<path d="M74 118h2v2h-2v-2z" fill="rgb(90,37,8)"/>
<path d="M76 118h2v2h-2v-2z" fill="rgb(68,15,9)"/>
<path d="M78 118h4v2h-4v-2z" fill="rgb(34,23,60)"/>
<path d="M84 118h4v2h-4v-2z" fill="rgb(117,52,18)"/>
<path d="M88 118h2v2h-2v-2z" fill="rgb(90,37,8)"/>
<path d="M96 118h2v4h-2v2h-2v2h-2v-4h2v-2h2v-2z" fill="rgb(150,67,22)"/>
<path d="M100 118h2v2h-2v-2z" fill="rgb(12,6,23)"/>
<path d="M54 120h4v2h-4v-2z" fill="rgb(150,67,22)"/>
<path d="M58 120h2v2h-2v-2z" fill="rgb(117,52,18)"/>
<path d="M60 120h2v2h2v2h-2v2h-2v-6z" fill="rgb(90,37,8)"/>
<path d="M62 120h2v2h-2v-2z" fill="rgb(117,52,18)"/>
<path d="M64 120h2v2h-2v-2z" fill="rgb(90,37,8)"/>
<path d="M66 120h2v2h-2v-2z" fill="rgb(68,15,9)"/>
<path d="M68 120h4v2h-4v-2z" fill="rgb(34,23,60)"/>
<path d="M72 120h2v2h-2v-2z" fill="rgb(90,37,8)"/>
<path d="M74 120h2v2h-2v-2z" fill="rgb(68,15,9)"/>
<path d="M76 120h2v2h-2v-2z" fill="rgb(117,52,18)"/>
<path d="M78 120h4v4h-2v-2h-2v-2z" fill="rgb(90,37,8)"/>
<path d="M82 120h2v2h-2v-2z" fill="rgb(68,15,9)"/>
<path d="M84 120h4v2h-4v-2z" fill="rgb(90,37,8)"/>
<path d="M88 120h2v2h-2v-2z" fill="rgb(179,80,27)"/>
<path d="M90 120h2v2h-2v-2z" fill="rgb(150,67,22)"/>
<path d="M98 120h2v2h-2v-2z" fill="rgb(12,6,23)"/>
<path d="M46 122h6v6h-2v-4h-4v-2z" fill="rgb(68,15,9)"/>
<path d="M52 122h2v2h-2v-2z" fill="rgb(117,52,18)"/>
<path d="M54 122h2v2h-2v-2z" fill="rgb(20,13,37)"/>
<path d="M56 122h2v2h-2v-2z" fill="rgb(68,15,9)"/>
<path d="M58 122h2v2h-2v-2z" fill="rgb(150,67,22)"/>
<path d="M64 122h2v2h-2v-2z" fill="rgb(117,52,18)"/>
<path d="M66 122h4v2h-4v-2z" fill="rgb(150,67,22)"/>
<path d="M70 122h2v2h-2v-2z" fill="rgb(90,37,8)"/>
<path d="M72 122h2v2h-2v-2z" fill="rgb(117,52,18)"/>
<path d="M74 122h4v2h-4v-2z" fill="rgb(150,67,22)"/>
<path d="M78 122h2v2h-2v-2z" fill="rgb(117,52,18)"/>
<path d="M82 122h2v2h-2v-2z" fill="rgb(117,52,18)"/>
<path d="M84 122h2v2h-2v-2z" fill="rgb(150,67,22)"/>
<path d="M86 122h2v2h-2v-2z" fill="rgb(117,52,18)"/>
<path d="M88 122h2v2h2v4h-4v-6z" fill="rgb(90,37,8)"/>
<path d="M90 122h2v2h-2v-2z" fill="rgb(117,52,18)"/>
<path d="M96 122h2v2h-2v-2z" fill="rgb(68,15,9)"/>
<path d="M52 124h2v2h6v2h-8v-4z" fill="rgb(90,37,8)"/>
<path d="M54 124h4v2h-4v-2z" fill="rgb(34,23,60)"/>
<path d="M58 124h2v2h-2v-2z" fill="rgb(117,52,18)"/>
<path d="M62 124h2v2h-2v-2z" fill="rgb(117,52,18)"/>
<path d="M64 124h4v2h2v2h-6v-4z" fill="rgb(20,13,37)"/>
<path d="M68 124h2v2h-2v-2z" fill="rgb(68,15,9)"/>
<path d="M70 124h2v2h-2v-2z" fill="rgb(150,67,22)"/>
<path d="M72 124h4v2h2v2h-6v-4z" fill="rgb(20,13,37)"/>
<path d="M76 124h2v2h-2v-2z" fill="rgb(68,15,9)"/>
<path d="M78 124h2v2h-2v-2z" fill="rgb(150,67,22)"/>
<path d="M80 124h2v2h-2v-2z" fill="rgb(117,52,18)"/>
<path d="M82 124h2v2h-2v-2z" fill="rgb(20,13,37)"/>
<path d="M84 124h2v2h-2v-2z" fill="rgb(68,15,9)"/>
<path d="M86 124h2v2h-2v-2z" fill="rgb(150,67,22)"/>
<path d="M94 124h2v2h-2v-2z" fill="rgb(68,15,9)"/>
<path d="M60 126h2v2h-2v-2z" fill="rgb(68,15,9)"/>
<path d="M62 126h2v4h-4v-2h2v-2z" fill="rgb(90,37,8)"/>
<path d="M70 126h2v2h-2v-2z" fill="rgb(117,52,18)"/>
<path d="M78 126h2v2h-2v-2z" fill="rgb(117,52,18)"/>
<path d="M80 126h2v2h-2v-2z" fill="rgb(90,37,8)"/>
<path d="M82 126h4v2h-4v-2z" fill="rgb(34,23,60)"/>
<path d="M86 126h2v2h-2v-2z" fill="rgb(117,52,18)"/>
<path d="M92 126h2v2h-2v-2z" fill="rgb(68,15,9)"/>
<path d="M52 128h8v2h-8v-2z" fill="rgb(68,15,9)"/>
<path d="M64 128h2v2h-2v-2z" fill="rgb(68,15,9)"/>
<path d="M66 128h4v2h-4v-2z" fill="rgb(34,23,60)"/>
<path d="M70 128h2v2h-2v-2z" fill="rgb(90,37,8)"/>
<path d="M72 128h2v2h-2v-2z" fill="rgb(68,15,9)"/>
<path d="M74 128h4v2h-4v-2z" fill="rgb(34,23,60)"/>
<path d="M78 128h2v2h-2v-2z" fill="rgb(90,37,8)"/>
<path d="M80 128h2v2h6v2h-8v2h-8v-2h6v-2h2v-2z" fill="rgb(68,15,9)"/>
<path d="M82 128h6v2h-6v-2z" fill="rgb(90,37,8)"/>
<path d="M88 128h4v2h-4v-2z" fill="rgb(68,15,9)"/>
<path d="M60 130h4v2h-4v-2z" fill="rgb(68,15,9)"/>
<path d="M64 130h6v2h-6v-2z" fill="rgb(90,37,8)"/>
<path d="M70 130h2v2h-2v-2z" fill="rgb(68,15,9)"/>
<path d="M72 130h6v2h-6v-2z" fill="rgb(90,37,8)"/>
<path d="M64 132h6v2h-6v-2z" fill="rgb(68,15,9)"/>
<path d="M70 132h2v2h-2v-2z" fill="rgb(255,255,255)"/>
</svg>