<?xml version="1.0" encoding="utf-8"?>
<!-- generated at drububu.com  -->
<!DOCTYPE svg PUBLIC "-//W3C//DTD SVG 1.1//EN" "http://www.w3.org/Graphics/SVG/1.1/DTD/svg11.dtd">
<svg version="1.1" preserveAspectRatio="xMinYMin meet" xmlns="http://www.w3.org/2000/svg" xmlns:xlink="http://www.w3.org/1999/xlink" x="0px" y="0px" width="110px" height="172px" viewBox="0 0 110 172">
<path d="M0 0h54v2h-2v2h-2v4h-2v6h2v2h2v2h2v4h2v4h-2v6h-2v4h-2v2h-4v-2h-2v2h2v2
	h-4v-4h-2v-6h2v-8h2v-4h-2v-2h-2v-4h-2v-2h-4v-2h-4v2h4v2h2v2h2v2h2v8h-2v6h-2v8
	h2v4h-4v-2h-2v-4h-4v2h2v4h2v2h-4v2h-4v-2h-2v-4h-2v-2h-2v-2h-4v-4h-2v-2h-2v-2h2
	v-2h-2v-4h-2v-6h-2v-2h-2v-2h-2v4h2v2h2v2h-2v2h2v2h2v8h2v2h2v6h4v2h2v12h-2v2h-2
	v-10h-2v-2h-2v4h2v14h-2v2h-2v2h-2v4h-2v6h-2v4h-2v-80z" fill="rgb(255,255,255)"/>
<path d="M54 0h2v2h-2v-2z" fill="rgb(236,95,95)"/>
<path d="M56 0h54v82h-2v-4h-2v-8h-2v-2h-2v-4h-2v-2h-2v-2h-2v-12h-2v6h-2v-12h2
	v-2h2v-4h2v-14h2v-4h-2v2h-2v12h-2v2h-2v4h-2v6h-4v2h-4v-6h-2v2h-6v-6h2v-2h2v-8h-2
	v-2h-2v-8h-2v-4h-2v6h2v8h2v2h2v4h-2v2h-2v4h-2v2h-6v-2h-2v2h-2v-2h-2v-2h-2v-6h2
	v-4h2v-6h-2v-2h-2v-2h-2v-2h-2v-2h-2v-2h2v-2h2v-4h2v-4z" fill="rgb(255,255,255)"/>
<path d="M52 2h2v2h-2v-2z" fill="rgb(236,95,95)"/>
<path d="M54 2h2v2h-2v-2z" fill="rgb(221,22,22)"/>
<path d="M50 4h2v2h-2v-2z" fill="rgb(236,95,95)"/>
<path d="M52 4h2v4h-2v-4z" fill="rgb(221,22,22)"/>
<path d="M72 4h2v2h-2v-2z" fill="rgb(236,95,95)"/>
<path d="M50 6h2v2h-2v-2z" fill="rgb(182,32,32)"/>
<path d="M70 6h2v2h-2v-2z" fill="rgb(236,95,95)"/>
<path d="M30 8h2v2h-2v-2z" fill="rgb(182,32,32)"/>
<path d="M32 8h2v2h-2v-2z" fill="rgb(236,95,95)"/>
<path d="M48 8h2v2h-2v-2z" fill="rgb(236,95,95)"/>
<path d="M50 8h2v2h-2v-2z" fill="rgb(221,22,22)"/>
<path d="M68 8h2v2h-2v-2z" fill="rgb(182,32,32)"/>
<path d="M70 8h2v2h-2v-2z" fill="rgb(221,22,22)"/>
<path d="M34 10h2v2h-2v-2z" fill="rgb(182,32,32)"/>
<path d="M36 10h2v2h-2v-2z" fill="rgb(236,95,95)"/>
<path d="M48 10h2v4h-2v-4z" fill="rgb(182,32,32)"/>
<path d="M68 10h2v2h-2v-2z" fill="rgb(221,22,22)"/>
<path d="M2 12h2v2h-2v-2z" fill="rgb(236,95,95)"/>
<path d="M36 12h4v4h-2v-2h-2v-2z" fill="rgb(221,22,22)"/>
<path d="M50 12h2v2h-2v-2z" fill="rgb(221,22,22)"/>
<path d="M70 12h2v4h-2v-4z" fill="rgb(221,22,22)"/>
<path d="M2 14h2v2h-2v-2z" fill="rgb(221,22,22)"/>
<path d="M4 14h2v2h-2v-2z" fill="rgb(236,95,95)"/>
<path d="M50 14h2v2h-2v-2z" fill="rgb(182,32,32)"/>
<path d="M52 14h2v2h-2v-2z" fill="rgb(236,95,95)"/>
<path d="M4 16h2v2h-2v-2z" fill="rgb(182,32,32)"/>
<path d="M6 16h2v2h-2v-2z" fill="rgb(236,95,95)"/>
<path d="M40 16h2v2h-2v-2z" fill="rgb(236,95,95)"/>
<path d="M52 16h2v2h-2v-2z" fill="rgb(141,24,24)"/>
<path d="M54 16h2v2h-2v-2z" fill="rgb(221,22,22)"/>
<path d="M70 16h2v2h-2v-2z" fill="rgb(182,32,32)"/>
<path d="M72 16h2v4h-2v-4z" fill="rgb(236,95,95)"/>
<path d="M6 18h2v6h-2v-6z" fill="rgb(182,32,32)"/>
<path d="M40 18h2v2h-2v-2z" fill="rgb(221,22,22)"/>
<path d="M42 18h2v2h-2v-2z" fill="rgb(236,95,95)"/>
<path d="M54 18h2v4h-2v-4z" fill="rgb(182,32,32)"/>
<path d="M56 18h2v2h-2v-2z" fill="rgb(236,95,95)"/>
<path d="M98 18h2v2h-2v-2z" fill="rgb(236,95,95)"/>
<path d="M4 20h2v2h-2v-2z" fill="rgb(221,22,22)"/>
<path d="M40 20h2v6h-2v-6z" fill="rgb(182,32,32)"/>
<path d="M42 20h2v2h-2v-2z" fill="rgb(221,22,22)"/>
<path d="M56 20h4v4h-2v-2h-2v-2z" fill="rgb(221,22,22)"/>
<path d="M72 20h2v2h-2v-2z" fill="rgb(182,32,32)"/>
<path d="M96 20h2v6h-2v-6z" fill="rgb(221,22,22)"/>
<path d="M98 20h2v2h-2v-2z" fill="rgb(182,32,32)"/>
<path d="M8 22h2v2h-2v-2z" fill="rgb(236,95,95)"/>
<path d="M56 22h2v2h-2v-2z" fill="rgb(182,32,32)"/>
<path d="M72 22h2v4h-2v-4z" fill="rgb(221,22,22)"/>
<path d="M8 24h2v6h-2v-6z" fill="rgb(182,32,32)"/>
<path d="M38 24h2v2h-2v-2z" fill="rgb(221,22,22)"/>
<path d="M56 24h2v2h-2v-2z" fill="rgb(221,22,22)"/>
<path d="M58 24h2v2h-2v-2z" fill="rgb(182,32,32)"/>
<path d="M74 24h2v2h-2v-2z" fill="rgb(182,32,32)"/>
<path d="M10 26h2v2h-2v-2z" fill="rgb(236,95,95)"/>
<path d="M38 26h2v12h-2v-6h-2v-2h2v-4z" fill="rgb(182,32,32)"/>
<path d="M40 26h2v2h-2v-2z" fill="rgb(221,22,22)"/>
<path d="M54 26h2v2h-2v-2z" fill="rgb(126,30,30)"/>
<path d="M56 26h2v4h-2v-4z" fill="rgb(141,24,24)"/>
<path d="M74 26h2v2h-2v-2z" fill="rgb(221,22,22)"/>
<path d="M76 26h2v4h-2v-4z" fill="rgb(236,95,95)"/>
<path d="M96 26h2v8h-2v-8z" fill="rgb(182,32,32)"/>
<path d="M40 28h2v2h-2v-2z" fill="rgb(126,30,30)"/>
<path d="M54 28h2v4h-2v-4z" fill="rgb(182,32,32)"/>
<path d="M8 30h2v2h-2v-2z" fill="rgb(126,30,30)"/>
<path d="M10 30h2v2h-2v-2z" fill="rgb(236,95,95)"/>
<path d="M76 30h2v2h-2v-2z" fill="rgb(182,32,32)"/>
<path d="M10 32h2v2h-2v-2z" fill="rgb(126,30,30)"/>
<path d="M12 32h2v2h-2v-2z" fill="rgb(236,95,95)"/>
<path d="M36 32h2v2h-2v-2z" fill="rgb(221,22,22)"/>
<path d="M52 32h2v4h-2v-4z" fill="rgb(126,30,30)"/>
<path d="M54 32h2v4h2v2h2v2h-6v-8z" fill="rgb(141,24,24)"/>
<path d="M64 32h2v2h-2v-2z" fill="rgb(236,95,95)"/>
<path d="M74 32h2v4h-2v-4z" fill="rgb(182,32,32)"/>
<path d="M76 32h2v2h-2v-2z" fill="rgb(221,22,22)"/>
<path d="M94 32h2v2h-2v-2z" fill="rgb(236,95,95)"/>
<path d="M12 34h2v2h2v2h2v2h-4v-2h-2v-4z" fill="rgb(182,32,32)"/>
<path d="M36 34h2v4h-2v-4z" fill="rgb(126,30,30)"/>
<path d="M64 34h2v4h-2v-4z" fill="rgb(182,32,32)"/>
<path d="M72 34h2v4h-2v-4z" fill="rgb(141,24,24)"/>
<path d="M92 34h2v2h-2v-2z" fill="rgb(236,95,95)"/>
<path d="M94 34h2v4h-2v2h-2v-4h2v-2z" fill="rgb(182,32,32)"/>
<path d="M96 34h2v2h-2v-2z" fill="rgb(221,22,22)"/>
<path d="M16 36h2v2h-2v-2z" fill="rgb(221,22,22)"/>
<path d="M28 36h2v2h-2v-2z" fill="rgb(221,22,22)"/>
<path d="M30 36h2v2h-2v-2z" fill="rgb(236,95,95)"/>
<path d="M40 36h2v2h-2v-2z" fill="rgb(221,22,22)"/>
<path d="M44 36h2v2h-2v-2z" fill="rgb(221,22,22)"/>
<path d="M50 36h2v2h-2v-2z" fill="rgb(126,30,30)"/>
<path d="M52 36h2v6h-2v-6z" fill="rgb(182,32,32)"/>
<path d="M12 38h2v2h-2v-2z" fill="rgb(126,30,30)"/>
<path d="M18 38h2v2h-2v-2z" fill="rgb(221,22,22)"/>
<path d="M30 38h2v2h-2v-2z" fill="rgb(221,22,22)"/>
<path d="M38 38h2v2h-2v-2z" fill="rgb(126,30,30)"/>
<path d="M40 38h2v2h-2v-2z" fill="rgb(141,24,24)"/>
<path d="M46 38h2v2h2v2h-4v-4z" fill="rgb(182,32,32)"/>
<path d="M48 38h2v2h-2v-2z" fill="rgb(126,30,30)"/>
<path d="M50 38h2v4h-2v-4z" fill="rgb(141,24,24)"/>
<path d="M62 38h2v2h-2v-2z" fill="rgb(126,30,30)"/>
<path d="M70 38h2v4h-4v-2h2v-2z" fill="rgb(141,24,24)"/>
<path d="M72 38h2v6h-2v2h-2v-2h-2v-2h4v-4z" fill="rgb(182,32,32)"/>
<path d="M82 38h2v2h-2v-2z" fill="rgb(236,95,95)"/>
<path d="M90 38h2v2h-2v-2z" fill="rgb(141,24,24)"/>
<path d="M94 38h2v2h-2v-2z" fill="rgb(126,30,30)"/>
<path d="M16 40h2v2h-2v-2z" fill="rgb(126,30,30)"/>
<path d="M18 40h2v2h2v4h2v6h2v-2h2v2h2v6h-2v-4h-2v2h-2v-2h-2v-4h-2v-6h-2v-4z" fill="rgb(182,32,32)"/>
<path d="M20 40h2v2h-2v-2z" fill="rgb(221,22,22)"/>
<path d="M30 40h2v2h-2v-2z" fill="rgb(182,32,32)"/>
<path d="M32 40h2v2h-2v-2z" fill="rgb(221,22,22)"/>
<path d="M38 40h2v2h-2v-2z" fill="rgb(141,24,24)"/>
<path d="M40 40h2v2h4v2h-4v2h-2v2h-2v-2h-2v-2h4v-4z" fill="rgb(182,32,32)"/>
<path d="M42 40h4v2h-4v-2z" fill="rgb(141,24,24)"/>
<path d="M54 40h4v2h-2v2h-2v2h-4v2h-2v2h-2v-2h-2v-2h-2v-2h4v2h2v-2h2v-2h4v-2z" fill="rgb(221,22,22)"/>
<path d="M58 40h2v2h-2v-2z" fill="rgb(182,32,32)"/>
<path d="M60 40h2v2h2v2h-4v2h-2v-4h2v-2z" fill="rgb(221,22,22)"/>
<path d="M62 40h2v2h-2v-2z" fill="rgb(182,32,32)"/>
<path d="M64 40h4v2h-4v-2z" fill="rgb(101,23,23)"/>
<path d="M80 40h2v2h-2v-2z" fill="rgb(141,24,24)"/>
<path d="M90 40h2v4h-2v-4z" fill="rgb(182,32,32)"/>
<path d="M92 40h2v2h-2v-2z" fill="rgb(126,30,30)"/>
<path d="M32 42h2v6h-2v-6z" fill="rgb(182,32,32)"/>
<path d="M34 42h2v2h-2v-2z" fill="rgb(221,22,22)"/>
<path d="M36 42h4v2h-4v-2z" fill="rgb(101,23,23)"/>
<path d="M46 42h4v2h-4v-2z" fill="rgb(141,24,24)"/>
<path d="M56 42h2v2h-2v-2z" fill="rgb(182,32,32)"/>
<path d="M64 42h2v2h-2v-2z" fill="rgb(182,32,32)"/>
<path d="M66 42h2v2h-2v-2z" fill="rgb(221,22,22)"/>
<path d="M74 42h6v2h-6v-2z" fill="rgb(141,24,24)"/>
<path d="M80 42h2v2h-2v-2z" fill="rgb(182,32,32)"/>
<path d="M10 44h2v4h-2v-4z" fill="rgb(221,22,22)"/>
<path d="M18 44h2v2h-2v-2z" fill="rgb(126,30,30)"/>
<path d="M22 44h2v2h-2v-2z" fill="rgb(141,24,24)"/>
<path d="M28 44h2v2h-2v-2z" fill="rgb(101,23,23)"/>
<path d="M30 44h2v2h-2v-2z" fill="rgb(221,22,22)"/>
<path d="M34 44h2v2h-2v-2z" fill="rgb(141,24,24)"/>
<path d="M46 44h2v2h-2v-2z" fill="rgb(182,32,32)"/>
<path d="M54 44h4v2h6v2h-4v2h-2v-2h-2v-2h-2v-2z" fill="rgb(236,95,95)"/>
<path d="M60 44h4v2h-4v-2z" fill="rgb(182,32,32)"/>
<path d="M64 44h2v2h-2v-2z" fill="rgb(221,22,22)"/>
<path d="M66 44h4v2h-4v-2z" fill="rgb(236,95,95)"/>
<path d="M72 44h4v2h-4v-2z" fill="rgb(236,95,95)"/>
<path d="M76 44h4v2h-4v-2z" fill="rgb(182,32,32)"/>
<path d="M80 44h2v4h-2v-4z" fill="rgb(141,24,24)"/>
<path d="M86 44h2v2h-2v-2z" fill="rgb(182,32,32)"/>
<path d="M88 44h4v2h-2v6h-4v-2h2v-2h-2v-2h2v-2z" fill="rgb(141,24,24)"/>
<path d="M12 46h2v2h-2v-2z" fill="rgb(182,32,32)"/>
<path d="M18 46h2v4h2v2h-2v2h-2v-8z" fill="rgb(101,23,23)"/>
<path d="M24 46h2v2h2v2h-2v2h-2v-6z" fill="rgb(141,24,24)"/>
<path d="M26 46h2v2h-2v-2z" fill="rgb(101,23,23)"/>
<path d="M28 46h4v2h-4v-2z" fill="rgb(141,24,24)"/>
<path d="M34 46h4v2h-2v2h-4v2h-2v-4h4v-2z" fill="rgb(221,22,22)"/>
<path d="M40 46h2v2h2v2h-2v2h-2v-2h-2v-2h2v-2z" fill="rgb(221,22,22)"/>
<path d="M42 46h2v2h-2v-2z" fill="rgb(182,32,32)"/>
<path d="M50 46h4v2h-4v-2z" fill="rgb(236,95,95)"/>
<path d="M54 46h2v2h-2v-2z" fill="rgb(221,22,22)"/>
<path d="M64 46h2v2h-2v-2z" fill="rgb(182,32,32)"/>
<path d="M66 46h4v2h-2v2h-2v-4z" fill="rgb(221,22,22)"/>
<path d="M70 46h2v2h-2v-2z" fill="rgb(236,95,95)"/>
<path d="M72 46h2v2h-2v-2z" fill="rgb(182,32,32)"/>
<path d="M74 46h4v2h4v2h-6v-2h-2v-2z" fill="rgb(221,22,22)"/>
<path d="M78 46h2v2h-2v-2z" fill="rgb(236,95,95)"/>
<path d="M82 46h4v2h-4v-2z" fill="rgb(101,23,23)"/>
<path d="M90 46h2v4h-2v-4z" fill="rgb(182,32,32)"/>
<path d="M12 48h2v2h-2v-2z" fill="rgb(221,22,22)"/>
<path d="M28 48h2v2h-2v-2z" fill="rgb(182,32,32)"/>
<path d="M36 48h2v2h-2v-2z" fill="rgb(182,32,32)"/>
<path d="M44 48h2v2h-2v-2z" fill="rgb(182,32,32)"/>
<path d="M48 48h2v2h-2v-2z" fill="rgb(236,95,95)"/>
<path d="M50 48h4v2h-4v-2z" fill="rgb(141,24,24)"/>
<path d="M54 48h2v2h-2v-2z" fill="rgb(182,32,32)"/>
<path d="M56 48h2v2h-2v-2z" fill="rgb(221,22,22)"/>
<path d="M60 48h4v4h-2v-2h-2v-2z" fill="rgb(221,22,22)"/>
<path d="M64 48h2v4h-2v-4z" fill="rgb(236,95,95)"/>
<path d="M68 48h2v2h-2v-2z" fill="rgb(182,32,32)"/>
<path d="M70 48h2v2h-2v-2z" fill="rgb(221,22,22)"/>
<path d="M72 48h4v2h-4v-2z" fill="rgb(236,95,95)"/>
<path d="M82 48h2v2h-2v-2z" fill="rgb(182,32,32)"/>
<path d="M84 48h2v2h-2v-2z" fill="rgb(141,24,24)"/>
<path d="M86 48h2v2h-2v-2z" fill="rgb(182,32,32)"/>
<path d="M94 48h2v2h-2v-2z" fill="rgb(236,95,95)"/>
<path d="M12 50h2v2h-2v-2z" fill="rgb(182,32,32)"/>
<path d="M28 50h2v2h-2v-2z" fill="rgb(126,30,30)"/>
<path d="M32 50h2v2h-2v-2z" fill="rgb(126,30,30)"/>
<path d="M34 50h2v2h-2v-2z" fill="rgb(182,32,32)"/>
<path d="M36 50h2v2h-2v-2z" fill="rgb(90,14,14)"/>
<path d="M38 50h2v2h-2v-2z" fill="rgb(182,32,32)"/>
<path d="M42 50h2v2h-2v-2z" fill="rgb(182,32,32)"/>
<path d="M44 50h2v2h-2v-2z" fill="rgb(141,24,24)"/>
<path d="M46 50h2v4h-2v-4z" fill="rgb(236,95,95)"/>
<path d="M48 50h2v4h-2v-4z" fill="rgb(141,24,24)"/>
<path d="M50 50h2v2h-2v-2z" fill="rgb(166,167,166)"/>
<path d="M52 50h2v2h-2v-2z" fill="rgb(211,211,211)"/>
<path d="M54 50h2v2h-2v-2z" fill="rgb(141,24,24)"/>
<path d="M56 50h4v2h-4v-2z" fill="rgb(182,32,32)"/>
<path d="M60 50h2v2h-2v-2z" fill="rgb(236,95,95)"/>
<path d="M66 50h2v2h-2v-2z" fill="rgb(182,32,32)"/>
<path d="M68 50h2v2h-2v-2z" fill="rgb(221,22,22)"/>
<path d="M70 50h2v2h-2v-2z" fill="rgb(236,95,95)"/>
<path d="M72 50h4v2h-4v-2z" fill="rgb(182,32,32)"/>
<path d="M76 50h6v2h6v4h-2v-2h-2v2h-2v-2h-4v-2h-2v-2z" fill="rgb(236,95,95)"/>
<path d="M82 50h2v2h-2v-2z" fill="rgb(221,22,22)"/>
<path d="M84 50h2v2h-2v-2z" fill="rgb(182,32,32)"/>
<path d="M90 50h2v2h-2v-2z" fill="rgb(101,23,23)"/>
<path d="M94 50h2v2h-2v-2z" fill="rgb(182,32,32)"/>
<path d="M12 52h2v4h-2v-4z" fill="rgb(126,30,30)"/>
<path d="M20 52h2v2h-2v-2z" fill="rgb(141,24,24)"/>
<path d="M30 52h2v2h-2v-2z" fill="rgb(236,95,95)"/>
<path d="M32 52h2v2h-2v-2z" fill="rgb(141,24,24)"/>
<path d="M34 52h2v2h-2v-2z" fill="rgb(90,14,14)"/>
<path d="M36 52h2v2h-2v-2z" fill="rgb(124,124,124)"/>
<path d="M38 52h2v2h-2v-2z" fill="rgb(90,14,14)"/>
<path d="M40 52h4v2h-4v-2z" fill="rgb(141,24,24)"/>
<path d="M44 52h2v2h-2v-2z" fill="rgb(182,32,32)"/>
<path d="M50 52h2v2h-2v-2z" fill="rgb(211,211,211)"/>
<path d="M52 52h2v2h2v2h-2v4h-2v14h2v4h2v4h2v2h2v2h2v2h2v2h2v2h4v2h6v2h10v-2h4
	v-2h2v-2h2v-2h2v-4h2v-6h2v2h2v4h2v2h2v2h2v8h-2v4h-4v6h-2v2h-6v2h-6v2h-18v-2h-4
	v-2h-6v-2h-4v-2h-2v-2h-2v-2h-2v-2h-2v-2h-2v-2h-2v-4h-2v-4h-2v-4h-2v-4h-2v-16h2
	v-4h2v-2h10v-2h2v-2z" fill="rgb(233,233,233)"/>
<path d="M54 52h2v2h-2v-2z" fill="rgb(211,211,211)"/>
<path d="M56 52h2v2h-2v-2z" fill="rgb(141,24,24)"/>
<path d="M58 52h4v2h-4v-2z" fill="rgb(101,23,23)"/>
<path d="M62 52h2v2h-2v-2z" fill="rgb(236,95,95)"/>
<path d="M64 52h2v4h-2v-4z" fill="rgb(141,24,24)"/>
<path d="M66 52h2v2h-2v-2z" fill="rgb(101,23,23)"/>
<path d="M68 52h2v2h-2v-2z" fill="rgb(236,95,95)"/>
<path d="M70 52h4v2h-4v-2z" fill="rgb(141,24,24)"/>
<path d="M74 52h2v2h-2v-2z" fill="rgb(101,23,23)"/>
<path d="M76 52h2v2h-2v-2z" fill="rgb(141,24,24)"/>
<path d="M88 52h2v2h-2v-2z" fill="rgb(182,32,32)"/>
<path d="M90 52h2v4h-2v-4z" fill="rgb(141,24,24)"/>
<path d="M94 52h2v2h-2v-2z" fill="rgb(141,24,24)"/>
<path d="M16 54h2v2h-2v-2z" fill="rgb(101,23,23)"/>
<path d="M18 54h2v2h-2v-2z" fill="rgb(141,24,24)"/>
<path d="M20 54h2v2h-2v-2z" fill="rgb(182,32,32)"/>
<path d="M22 54h2v2h-2v-2z" fill="rgb(221,22,22)"/>
<path d="M26 54h2v2h-2v-2z" fill="rgb(157,28,28)"/>
<path d="M30 54h2v2h-2v-2z" fill="rgb(141,24,24)"/>
<path d="M32 54h2v2h-2v-2z" fill="rgb(124,124,124)"/>
<path d="M34 54h4v2h-4v-2z" fill="rgb(166,167,166)"/>
<path d="M38 54h8v2h-6v2h-2v4h-2v16h2v4h2v4h2v4h2v4h2v2h2v2h2v2h2v2h2v2h2v2h4v2
	h6v2h4v2h18v-2h6v-2h6v-2h2v4h-2v4h-2v2h-2v2h-4v2h-6v2h-2v-2h-4v-2h-6v-2h-6v-2
	h-24v-2h-4v-2h-2v-2h-2v-2h-2v-2h-2v-4h-2v-4h-2v-4h-2v-6h-2v-20h2v-4h2v-2h4v-2h2
	v-2h4v-2z" fill="rgb(211,211,211)"/>
<path d="M46 54h2v2h-2v-2z" fill="rgb(141,24,24)"/>
<path d="M48 54h2v2h-2v-2z" fill="rgb(211,211,211)"/>
<path d="M56 54h4v2h-4v-2z" fill="rgb(211,211,211)"/>
<path d="M60 54h2v2h-2v-2z" fill="rgb(141,24,24)"/>
<path d="M62 54h2v2h-2v-2z" fill="rgb(221,22,22)"/>
<path d="M66 54h2v2h-2v-2z" fill="rgb(211,211,211)"/>
<path d="M68 54h2v2h-2v-2z" fill="rgb(141,24,24)"/>
<path d="M70 54h4v2h-4v-2z" fill="rgb(211,211,211)"/>
<path d="M74 54h4v2h2v2h-4v-2h-2v-2z" fill="rgb(233,233,233)"/>
<path d="M78 54h4v2h-4v-2z" fill="rgb(141,24,24)"/>
<path d="M84 54h2v2h-2v-2z" fill="rgb(221,22,22)"/>
<path d="M88 54h2v2h2v2h-6v-2h2v-2z" fill="rgb(221,22,22)"/>
<path d="M92 54h4v2h-4v-2z" fill="rgb(182,32,32)"/>
<path d="M12 56h2v4h2v2h-2v2h-2v-8z" fill="rgb(101,23,23)"/>
<path d="M14 56h4v4h-2v-2h-2v-2z" fill="rgb(141,24,24)"/>
<path d="M18 56h2v4h2v2h-2v2h-2v-8z" fill="rgb(182,32,32)"/>
<path d="M20 56h2v4h-2v-4z" fill="rgb(141,24,24)"/>
<path d="M22 56h2v4h-2v-4z" fill="rgb(182,32,32)"/>
<path d="M24 56h2v2h-2v-2z" fill="rgb(141,24,24)"/>
<path d="M26 56h2v2h-2v-2z" fill="rgb(90,14,14)"/>
<path d="M30 56h2v2h-2v-2z" fill="rgb(90,14,14)"/>
<path d="M32 56h2v2h-2v-2z" fill="rgb(166,167,166)"/>
<path d="M54 56h4v2h4v2h2v-2h6v-2h6v2h4v2h4v2h2v2h2v4h2v2h2v4h2v2h2v2h2v6h-2v4
	h-2v2h-2v2h-2v2h-4v2h-10v-2h-6v-2h-4v-2h-2v-2h-2v-2h-2v-2h-2v-2h-2v-4h-2v-4h-2
	v-14h2v-4z" fill="rgb(246,246,246)"/>
<path d="M58 56h4v2h-4v-2z" fill="rgb(233,233,233)"/>
<path d="M62 56h2v2h-2v-2z" fill="rgb(141,24,24)"/>
<path d="M64 56h6v2h-6v-2z" fill="rgb(233,233,233)"/>
<path d="M80 56h2v2h-2v-2z" fill="rgb(211,211,211)"/>
<path d="M82 56h4v2h-4v-2z" fill="rgb(141,24,24)"/>
<path d="M92 56h2v2h-2v-2z" fill="rgb(236,95,95)"/>
<path d="M94 56h2v8h2v2h-2v2h-2v-8h-2v-2h2v-2z" fill="rgb(221,22,22)"/>
<path d="M14 58h2v2h-2v-2z" fill="rgb(182,32,32)"/>
<path d="M24 58h2v2h-2v-2z" fill="rgb(90,14,14)"/>
<path d="M26 58h2v4h-2v4h-2v20h2v6h2v4h2v4h2v4h2v2h2v2h2v2h2v2h4v2h-2v2h-6v2h-6
	v-2h-4v-2h-2v-2h-2v-2h-2v-2h-2v-4h-2v-4h-2v-6h-2v-12h2v-4h2v-6h2v-4h2v-2h2v-2
	h2v-4h2v-2z" fill="rgb(166,167,166)"/>
<path d="M28 58h2v2h-2v-2z" fill="rgb(90,14,14)"/>
<path d="M30 58h2v2h-2v-2z" fill="rgb(166,167,166)"/>
<path d="M62 58h2v2h-2v-2z" fill="rgb(233,233,233)"/>
<path d="M80 58h4v2h-4v-2z" fill="rgb(233,233,233)"/>
<path d="M84 58h2v2h-2v-2z" fill="rgb(166,167,166)"/>
<path d="M86 58h2v2h-2v-2z" fill="rgb(101,23,23)"/>
<path d="M88 58h4v2h-2v2h-2v-4z" fill="rgb(236,95,95)"/>
<path d="M16 60h2v2h-2v-2z" fill="rgb(157,28,28)"/>
<path d="M22 60h2v2h-2v-2z" fill="rgb(90,14,14)"/>
<path d="M84 60h2v2h-2v-2z" fill="rgb(233,233,233)"/>
<path d="M86 60h2v2h-2v-2z" fill="rgb(141,24,24)"/>
<path d="M90 60h2v2h-2v-2z" fill="rgb(221,22,22)"/>
<path d="M92 60h2v6h-2v-2h-2v-2h2v-2z" fill="rgb(236,95,95)"/>
<path d="M96 60h2v2h-2v-2z" fill="rgb(51,2,2)"/>
<path d="M10 62h2v2h-2v-2z" fill="rgb(51,2,2)"/>
<path d="M14 62h4v4h-2v-2h-2v-2z" fill="rgb(126,30,30)"/>
<path d="M20 62h2v2h-2v-2z" fill="rgb(90,14,14)"/>
<path d="M22 62h2v2h-2v-2z" fill="rgb(124,124,124)"/>
<path d="M86 62h2v2h-2v-2z" fill="rgb(233,233,233)"/>
<path d="M88 62h2v2h-2v-2z" fill="rgb(141,24,24)"/>
<path d="M96 62h2v2h-2v-2z" fill="rgb(182,32,32)"/>
<path d="M98 62h2v2h-2v-2z" fill="rgb(51,2,2)"/>
<path d="M8 64h2v2h-2v-2z" fill="rgb(51,2,2)"/>
<path d="M10 64h2v6h-2v-2h-2v-2h2v-2z" fill="rgb(101,23,23)"/>
<path d="M12 64h2v6h-2v-6z" fill="rgb(126,30,30)"/>
<path d="M14 64h2v4h-2v-4z" fill="rgb(157,28,28)"/>
<path d="M18 64h2v2h-2v-2z" fill="rgb(51,2,2)"/>
<path d="M20 64h2v2h-2v-2z" fill="rgb(124,124,124)"/>
<path d="M88 64h2v2h-2v-2z" fill="rgb(211,211,211)"/>
<path d="M90 64h2v2h-2v-2z" fill="rgb(141,24,24)"/>
<path d="M98 64h2v2h-2v-2z" fill="rgb(182,32,32)"/>
<path d="M100 64h2v4h-2v-4z" fill="rgb(51,2,2)"/>
<path d="M6 66h2v4h-2v-4z" fill="rgb(51,2,2)"/>
<path d="M16 66h2v2h-2v-2z" fill="rgb(51,2,2)"/>
<path d="M18 66h2v2h-2v-2z" fill="rgb(124,124,124)"/>
<path d="M88 66h2v2h-2v-2z" fill="rgb(233,233,233)"/>
<path d="M90 66h2v2h-2v-2z" fill="rgb(211,211,211)"/>
<path d="M92 66h2v2h-2v-2z" fill="rgb(141,24,24)"/>
<path d="M96 66h2v2h-2v-2z" fill="rgb(182,32,32)"/>
<path d="M98 66h2v2h-2v-2z" fill="rgb(221,22,22)"/>
<path d="M8 68h2v2h-2v-2z" fill="rgb(126,30,30)"/>
<path d="M14 68h2v10h-2v-10z" fill="rgb(51,2,2)"/>
<path d="M16 68h2v4h-2v-4z" fill="rgb(124,124,124)"/>
<path d="M90 68h2v2h-2v-2z" fill="rgb(233,233,233)"/>
<path d="M92 68h2v6h-2v-6z" fill="rgb(101,23,23)"/>
<path d="M94 68h2v2h-2v-2z" fill="rgb(182,32,32)"/>
<path d="M96 68h2v4h-2v-4z" fill="rgb(141,24,24)"/>
<path d="M98 68h4v4h2v6h-2v-4h-2v-4h-2v-2z" fill="rgb(236,95,95)"/>
<path d="M102 68h2v2h-2v-2z" fill="rgb(51,2,2)"/>
<path d="M4 70h2v6h-2v-6z" fill="rgb(51,2,2)"/>
<path d="M6 70h4v2h-2v2h2v2h-2v2h-2v4h-2v2h-2v-4h2v-4h2v-6z" fill="rgb(101,23,23)"/>
<path d="M10 70h2v2h-2v-2z" fill="rgb(126,30,30)"/>
<path d="M12 70h2v8h-2v-4h-2v-2h2v-2z" fill="rgb(101,23,23)"/>
<path d="M94 70h2v4h-2v-4z" fill="rgb(221,22,22)"/>
<path d="M98 70h2v2h-2v-2z" fill="rgb(221,22,22)"/>
<path d="M102 70h2v2h-2v-2z" fill="rgb(182,32,32)"/>
<path d="M104 70h2v8h-2v-8z" fill="rgb(51,2,2)"/>
<path d="M8 72h2v2h-2v-2z" fill="rgb(126,30,30)"/>
<path d="M96 72h2v2h-2v-2z" fill="rgb(101,23,23)"/>
<path d="M98 72h2v2h-2v-2z" fill="rgb(90,14,14)"/>
<path d="M10 74h2v4h-4v-2h2v-2z" fill="rgb(51,2,2)"/>
<path d="M94 74h2v2h-2v-2z" fill="rgb(101,23,23)"/>
<path d="M96 74h2v4h-2v-4z" fill="rgb(233,233,233)"/>
<path d="M98 74h2v2h-2v-2z" fill="rgb(166,167,166)"/>
<path d="M100 74h2v4h-2v-4z" fill="rgb(90,14,14)"/>
<path d="M2 76h2v4h-2v-4z" fill="rgb(51,2,2)"/>
<path d="M98 76h2v2h-2v-2z" fill="rgb(211,211,211)"/>
<path d="M6 78h2v4h-2v-4z" fill="rgb(51,2,2)"/>
<path d="M8 78h2v4h-2v-4z" fill="rgb(86,86,86)"/>
<path d="M10 78h2v2h2v2h-2v12h2v6h2v4h2v4h2v2h2v2h2v2h2v2h4v2h2v2h-4v2h-6v-2h-2
	v-2h-2v-2h-2v-4h-2v-4h-2v-4h-2v-10h-2v-4h-2v16h2v6h2v4h2v4h2v2h2v4h-2v-2h-2v-2
	h-2v-4h-2v-4h-2v-6h-2v-10h-2v-8h2v-4h4v-4h2v-4z" fill="rgb(124,124,124)"/>
<path d="M12 78h2v2h-2v-2z" fill="rgb(51,2,2)"/>
<path d="M100 78h2v2h-2v-2z" fill="rgb(211,211,211)"/>
<path d="M102 78h2v6h-2v-6z" fill="rgb(90,14,14)"/>
<path d="M104 78h2v2h-2v-2z" fill="rgb(230,43,43)"/>
<path d="M106 78h2v4h-2v-4z" fill="rgb(51,2,2)"/>
<path d="M0 80h2v6h-2v-6z" fill="rgb(51,2,2)"/>
<path d="M104 80h2v4h-2v-4z" fill="rgb(182,32,32)"/>
<path d="M4 82h2v2h-2v-2z" fill="rgb(51,2,2)"/>
<path d="M6 82h2v4h-4v-2h2v-2z" fill="rgb(86,86,86)"/>
<path d="M106 82h2v4h-2v-4z" fill="rgb(141,24,24)"/>
<path d="M108 82h2v4h-2v-4z" fill="rgb(51,2,2)"/>
<path d="M2 84h2v4h-2v-4z" fill="rgb(37,37,37)"/>
<path d="M104 84h2v2h-2v-2z" fill="rgb(90,14,14)"/>
<path d="M0 86h2v2h-2v-2z" fill="rgb(255,255,255)"/>
<path d="M106 86h2v2h-2v-2z" fill="rgb(37,37,37)"/>
<path d="M108 86h2v2h-2v-2z" fill="rgb(255,255,255)"/>
<path d="M0 88h2v12h-2v-12z" fill="rgb(37,37,37)"/>
<path d="M2 88h2v2h-2v-2z" fill="rgb(86,86,86)"/>
<path d="M108 88h2v12h-2v-12z" fill="rgb(37,37,37)"/>
<path d="M6 90h2v4h2v10h-2v2h-2v-16z" fill="rgb(86,86,86)"/>
<path d="M106 96h2v4h-2v-4z" fill="rgb(211,211,211)"/>
<path d="M2 98h2v2h-2v-2z" fill="rgb(86,86,86)"/>
<path d="M0 100h2v10h2v6h2v4h2v4h2v2h2v2h2v2h2v2h2v2h4v2h2v2h2v2h2v2h6v2h10v4h2
	v4h2v4h-2v2h-2v8h2v4h2v2h-48v-72z" fill="rgb(255,255,255)"/>
<path d="M2 100h2v10h-2v-10z" fill="rgb(37,37,37)"/>
<path d="M102 100h2v6h-2v-6z" fill="rgb(211,211,211)"/>
<path d="M104 100h2v8h-2v6h-2v4h-2v2h-2v2h-2v2h-4v2h-4v-2h-4v-2h2v-2h6v-2h4v-2
	h2v-2h2v-4h2v-4h2v-6z" fill="rgb(166,167,166)"/>
<path d="M106 100h2v8h-2v-8z" fill="rgb(37,37,37)"/>
<path d="M108 100h2v72h-48v-2h2v-4h2v-8h-2v-2h-2v-4h2v-4h2v-4h8v-2h6v-2h2v-2h4
	v-2h2v-2h2v-2h2v-2h2v-2h2v-2h2v-2h2v-2h2v-4h2v-4h2v-6h2v-8z" fill="rgb(255,255,255)"/>
<path d="M8 104h2v2h-2v-2z" fill="rgb(37,37,37)"/>
<path d="M10 104h2v2h-2v-2z" fill="rgb(166,167,166)"/>
<path d="M8 106h4v2h-4v-2z" fill="rgb(63,63,63)"/>
<path d="M4 108h2v2h-2v-2z" fill="rgb(86,86,86)"/>
<path d="M8 108h6v4h-2v4h-2v-4h-2v-4z" fill="rgb(86,86,86)"/>
<path d="M104 108h2v6h-2v-6z" fill="rgb(37,37,37)"/>
<path d="M4 110h2v6h-2v-6z" fill="rgb(37,37,37)"/>
<path d="M12 112h2v2h-2v-2z" fill="rgb(37,37,37)"/>
<path d="M14 112h2v2h-2v-2z" fill="rgb(166,167,166)"/>
<path d="M6 114h2v2h-2v-2z" fill="rgb(86,86,86)"/>
<path d="M12 114h4v2h-4v-2z" fill="rgb(63,63,63)"/>
<path d="M42 114h2v2h-2v-2z" fill="rgb(124,124,124)"/>
<path d="M44 114h22v2h-22v-2z" fill="rgb(86,86,86)"/>
<path d="M66 114h2v2h-2v-2z" fill="rgb(166,167,166)"/>
<path d="M102 114h2v4h-2v-4z" fill="rgb(37,37,37)"/>
<path d="M6 116h2v4h-2v-4z" fill="rgb(37,37,37)"/>
<path d="M12 116h6v2h-2v4h-2v-2h-2v-4z" fill="rgb(86,86,86)"/>
<path d="M36 116h2v2h-2v-2z" fill="rgb(124,124,124)"/>
<path d="M38 116h2v2h-2v-2z" fill="rgb(62,62,62)"/>
<path d="M40 116h4v2h-4v-2z" fill="rgb(86,86,86)"/>
<path d="M44 116h2v2h-2v-2z" fill="rgb(233,233,233)"/>
<path d="M46 116h18v2h-18v-2z" fill="rgb(246,246,246)"/>
<path d="M64 116h2v2h2v2h-4v-4z" fill="rgb(233,233,233)"/>
<path d="M66 116h4v2h-4v-2z" fill="rgb(86,86,86)"/>
<path d="M70 116h2v2h-2v-2z" fill="rgb(62,62,62)"/>
<path d="M72 116h2v2h-2v-2z" fill="rgb(166,167,166)"/>
<path d="M8 118h2v2h-2v-2z" fill="rgb(86,86,86)"/>
<path d="M16 118h2v2h-2v-2z" fill="rgb(37,37,37)"/>
<path d="M18 118h2v2h-2v-2z" fill="rgb(166,167,166)"/>
<path d="M32 118h6v2h-6v-2z" fill="rgb(62,62,62)"/>
<path d="M38 118h2v2h-2v-2z" fill="rgb(211,211,211)"/>
<path d="M40 118h4v2h-4v-2z" fill="rgb(233,233,233)"/>
<path d="M44 118h4v2h-4v-2z" fill="rgb(124,124,124)"/>
<path d="M48 118h4v2h8v2h6v4h-2v2h-2v-2h-6v-2h-4v2h-2v-2h-2v-2h-2v2h2v2h-2v2h-8
	v2h-6v-4h2v-2h4v-2h6v-2h4v-2z" fill="rgb(166,167,166)"/>
<path d="M52 118h12v2h8v2h6v2h6v2h2v2h-2v2h-2v2h-2v2h-2v-4h-2v-2h-2v-2h-2v-2h-4
	v-2h-8v-2h-8v-2z" fill="rgb(211,211,211)"/>
<path d="M68 118h4v2h-4v-2z" fill="rgb(246,246,246)"/>
<path d="M72 118h6v2h-6v-2z" fill="rgb(62,62,62)"/>
<path d="M78 118h2v2h-2v-2z" fill="rgb(166,167,166)"/>
<path d="M100 118h2v4h-2v-4z" fill="rgb(37,37,37)"/>
<path d="M8 120h2v4h-2v-4z" fill="rgb(37,37,37)"/>
<path d="M16 120h4v2h-4v-2z" fill="rgb(63,63,63)"/>
<path d="M20 120h2v2h4v2h-2v2h-2v2h-4v-2h-2v-4h4v-2z" fill="rgb(86,86,86)"/>
<path d="M28 120h4v2h-4v-2z" fill="rgb(62,62,62)"/>
<path d="M32 120h2v2h-2v-2z" fill="rgb(166,167,166)"/>
<path d="M34 120h4v2h-4v-2z" fill="rgb(211,211,211)"/>
<path d="M38 120h6v2h-6v-2z" fill="rgb(124,124,124)"/>
<path d="M72 120h2v2h-2v-2z" fill="rgb(233,233,233)"/>
<path d="M74 120h4v2h-4v-2z" fill="rgb(246,246,246)"/>
<path d="M78 120h4v2h-4v-2z" fill="rgb(62,62,62)"/>
<path d="M82 120h2v2h-2v-2z" fill="rgb(166,167,166)"/>
<path d="M98 120h2v2h-2v-2z" fill="rgb(124,124,124)"/>
<path d="M10 122h2v2h-2v-2z" fill="rgb(86,86,86)"/>
<path d="M26 122h2v2h-2v-2z" fill="rgb(62,62,62)"/>
<path d="M28 122h4v2h-4v-2z" fill="rgb(166,167,166)"/>
<path d="M32 122h6v2h-4v2h-2v4h-2v2h2v2h-4v2h2v2h-4v-2h-2v-8h2v-2h2v-2h4v-2z" fill="rgb(124,124,124)"/>
<path d="M46 122h2v2h-2v-2z" fill="rgb(126,30,30)"/>
<path d="M66 122h2v4h-2v-4z" fill="rgb(221,22,22)"/>
<path d="M78 122h4v2h-4v-2z" fill="rgb(233,233,233)"/>
<path d="M82 122h2v2h-2v-2z" fill="rgb(62,62,62)"/>
<path d="M96 122h2v2h-2v-2z" fill="rgb(124,124,124)"/>
<path d="M98 122h2v2h-2v-2z" fill="rgb(37,37,37)"/>
<path d="M10 124h2v2h-2v-2z" fill="rgb(37,37,37)"/>
<path d="M12 124h2v2h-2v-2z" fill="rgb(86,86,86)"/>
<path d="M24 124h2v2h-2v-2z" fill="rgb(62,62,62)"/>
<path d="M26 124h2v2h-2v-2z" fill="rgb(166,167,166)"/>
<path d="M48 124h2v4h-4v-2h2v-2z" fill="rgb(126,30,30)"/>
<path d="M52 124h4v2h-4v-2z" fill="rgb(126,30,30)"/>
<path d="M68 124h4v2h2v2h2v2h-2v2h-2v-2h-2v-2h-4v-2h2v-2z" fill="rgb(166,167,166)"/>
<path d="M84 124h2v2h-2v-2z" fill="rgb(62,62,62)"/>
<path d="M86 124h2v2h-2v-2z" fill="rgb(124,124,124)"/>
<path d="M92 124h4v2h-2v2h-2v2h-2v-2h-2v-2h4v-2z" fill="rgb(124,124,124)"/>
<path d="M96 124h2v2h-2v-2z" fill="rgb(37,37,37)"/>
<path d="M12 126h2v2h-2v-2z" fill="rgb(37,37,37)"/>
<path d="M14 126h2v2h-2v-2z" fill="rgb(86,86,86)"/>
<path d="M16 126h2v2h-2v-2z" fill="rgb(124,124,124)"/>
<path d="M22 126h2v2h-2v-2z" fill="rgb(62,62,62)"/>
<path d="M24 126h2v2h-2v-2z" fill="rgb(166,167,166)"/>
<path d="M50 126h12v2h-12v-2z" fill="rgb(124,124,124)"/>
<path d="M64 126h2v2h-2v-2z" fill="rgb(126,30,30)"/>
<path d="M86 126h2v2h-2v-2z" fill="rgb(62,62,62)"/>
<path d="M94 126h2v2h-2v-2z" fill="rgb(37,37,37)"/>
<path d="M14 128h2v2h-2v-2z" fill="rgb(37,37,37)"/>
<path d="M16 128h2v2h-2v-2z" fill="rgb(86,86,86)"/>
<path d="M18 128h2v2h-2v-2z" fill="rgb(124,124,124)"/>
<path d="M20 128h2v4h-2v-4z" fill="rgb(62,62,62)"/>
<path d="M22 128h2v6h-2v-6z" fill="rgb(166,167,166)"/>
<path d="M38 128h2v2h-2v-2z" fill="rgb(124,124,124)"/>
<path d="M40 128h4v2h-4v-2z" fill="rgb(101,23,23)"/>
<path d="M44 128h2v2h-2v-2z" fill="rgb(86,86,86)"/>
<path d="M46 128h4v2h-4v-2z" fill="rgb(51,2,2)"/>
<path d="M50 128h14v2h-14v-2z" fill="rgb(37,37,37)"/>
<path d="M64 128h2v2h-2v-2z" fill="rgb(86,86,86)"/>
<path d="M66 128h4v2h-4v-2z" fill="rgb(126,30,30)"/>
<path d="M78 128h2v2h-2v-2z" fill="rgb(126,30,30)"/>
<path d="M84 128h4v2h-4v-2z" fill="rgb(166,167,166)"/>
<path d="M88 128h2v4h-2v-4z" fill="rgb(62,62,62)"/>
<path d="M92 128h2v2h-2v-2z" fill="rgb(37,37,37)"/>
<path d="M16 130h2v2h-2v-2z" fill="rgb(37,37,37)"/>
<path d="M18 130h2v2h-2v-2z" fill="rgb(86,86,86)"/>
<path d="M30 130h4v4h-2v-2h-2v-2z" fill="rgb(101,23,23)"/>
<path d="M34 130h2v4h-2v-4z" fill="rgb(124,124,124)"/>
<path d="M36 130h2v2h-2v-2z" fill="rgb(101,23,23)"/>
<path d="M38 130h2v2h-2v-2z" fill="rgb(86,86,86)"/>
<path d="M40 130h2v2h-2v-2z" fill="rgb(51,2,2)"/>
<path d="M42 130h4v2h-4v-2z" fill="rgb(37,37,37)"/>
<path d="M46 130h18v2h-18v-2z" fill="rgb(3,3,3)"/>
<path d="M64 130h2v2h-2v-2z" fill="rgb(37,37,37)"/>
<path d="M66 130h4v2h-4v-2z" fill="rgb(51,2,2)"/>
<path d="M70 130h2v2h-2v-2z" fill="rgb(124,124,124)"/>
<path d="M74 130h4v4h-2v-2h-2v-2z" fill="rgb(126,30,30)"/>
<path d="M82 130h2v2h-2v-2z" fill="rgb(166,167,166)"/>
<path d="M84 130h4v2h-2v2h-2v-4z" fill="rgb(124,124,124)"/>
<path d="M90 130h2v2h-2v-2z" fill="rgb(37,37,37)"/>
<path d="M18 132h4v2h-4v-2z" fill="rgb(37,37,37)"/>
<path d="M36 132h2v2h-2v-2z" fill="rgb(51,2,2)"/>
<path d="M38 132h2v2h-2v-2z" fill="rgb(37,37,37)"/>
<path d="M40 132h6v2h-2v2h-4v-4z" fill="rgb(3,3,3)"/>
<path d="M46 132h18v2h2v2h4v-2h4v2h-2v2h-4v2h-2v8h-2v-12h-2v-2h-14v2h-2v12h-2
	v-8h-2v-2h-4v-2h-2v-2h4v2h4v-2h2v-2z" fill="rgb(17,17,17)"/>
<path d="M64 132h6v4h-4v-2h-2v-2z" fill="rgb(3,3,3)"/>
<path d="M70 132h2v2h-2v-2z" fill="rgb(37,37,37)"/>
<path d="M72 132h2v2h-2v-2z" fill="rgb(51,2,2)"/>
<path d="M74 132h2v2h-2v-2z" fill="rgb(86,86,86)"/>
<path d="M80 132h2v2h-2v-2z" fill="rgb(166,167,166)"/>
<path d="M82 132h2v2h-2v-2z" fill="rgb(126,30,30)"/>
<path d="M86 132h2v2h-2v-2z" fill="rgb(166,167,166)"/>
<path d="M88 132h2v2h-2v-2z" fill="rgb(37,37,37)"/>
<path d="M22 134h2v2h-2v-2z" fill="rgb(37,37,37)"/>
<path d="M28 134h4v2h-4v-2z" fill="rgb(101,23,23)"/>
<path d="M32 134h2v2h-2v-2z" fill="rgb(63,63,63)"/>
<path d="M34 134h2v2h-2v-2z" fill="rgb(51,2,2)"/>
<path d="M48 134h8v2h-4v2h-4v2h-2v-4h2v-2z" fill="rgb(40,40,40)"/>
<path d="M56 134h2v2h-2v-2z" fill="rgb(62,62,62)"/>
<path d="M58 134h4v2h-4v-2z" fill="rgb(40,40,40)"/>
<path d="M74 134h2v2h-2v-2z" fill="rgb(51,2,2)"/>
<path d="M76 134h2v2h-2v-2z" fill="rgb(86,86,86)"/>
<path d="M78 134h2v2h-2v-2z" fill="rgb(124,124,124)"/>
<path d="M80 134h4v2h-2v2h-2v-4z" fill="rgb(101,23,23)"/>
<path d="M84 134h2v2h-2v-2z" fill="rgb(166,167,166)"/>
<path d="M86 134h2v2h-2v-2z" fill="rgb(37,37,37)"/>
<path d="M24 136h2v2h-2v-2z" fill="rgb(37,37,37)"/>
<path d="M30 136h2v2h-2v-2z" fill="rgb(63,63,63)"/>
<path d="M32 136h2v2h-2v-2z" fill="rgb(51,2,2)"/>
<path d="M34 136h4v2h4v2h-8v-4z" fill="rgb(27,27,27)"/>
<path d="M52 136h4v2h-4v-2z" fill="rgb(62,62,62)"/>
<path d="M56 136h2v2h-2v-2z" fill="rgb(94,94,94)"/>
<path d="M58 136h4v4h-2v-2h-2v-2z" fill="rgb(62,62,62)"/>
<path d="M62 136h2v2h-2v-2z" fill="rgb(40,40,40)"/>
<path d="M72 136h4v2h-2v2h-6v-2h4v-2z" fill="rgb(27,27,27)"/>
<path d="M76 136h2v2h-2v-2z" fill="rgb(37,37,37)"/>
<path d="M78 136h2v2h-2v-2z" fill="rgb(63,63,63)"/>
<path d="M82 136h2v2h-2v-2z" fill="rgb(51,2,2)"/>
<path d="M84 136h2v2h-2v-2z" fill="rgb(37,37,37)"/>
<path d="M26 138h6v2h-6v-2z" fill="rgb(37,37,37)"/>
<path d="M32 138h2v2h-2v-2z" fill="rgb(63,63,63)"/>
<path d="M48 138h4v2h-4v-2z" fill="rgb(62,62,62)"/>
<path d="M52 138h4v2h-4v-2z" fill="rgb(124,124,124)"/>
<path d="M56 138h2v2h-2v-2z" fill="rgb(149,149,149)"/>
<path d="M58 138h2v2h-2v-2z" fill="rgb(124,124,124)"/>
<path d="M62 138h2v2h-2v-2z" fill="rgb(63,63,63)"/>
<path d="M74 138h2v2h-2v-2z" fill="rgb(86,86,86)"/>
<path d="M76 138h2v2h-2v-2z" fill="rgb(63,63,63)"/>
<path d="M78 138h2v2h-2v-2z" fill="rgb(37,37,37)"/>
<path d="M80 138h2v2h-2v-2z" fill="rgb(51,2,2)"/>
<path d="M28 140h6v2h-6v-2z" fill="rgb(27,27,27)"/>
<path d="M34 140h2v2h-2v-2z" fill="rgb(63,63,63)"/>
<path d="M36 140h6v2h-6v-2z" fill="rgb(86,86,86)"/>
<path d="M42 140h2v2h-2v-2z" fill="rgb(63,63,63)"/>
<path d="M46 140h2v8h-2v-8z" fill="rgb(62,62,62)"/>
<path d="M48 140h4v14h-2v-6h-2v-8z" fill="rgb(94,94,94)"/>
<path d="M52 140h2v2h-2v-2z" fill="rgb(149,149,149)"/>
<path d="M54 140h2v12h-2v-2h-2v-8h2v-2z" fill="rgb(166,167,166)"/>
<path d="M56 140h2v2h-2v-2z" fill="rgb(190,190,190)"/>
<path d="M58 140h2v2h-2v-2z" fill="rgb(149,149,149)"/>
<path d="M60 140h2v2h-2v-2z" fill="rgb(94,94,94)"/>
<path d="M62 140h2v8h-2v-8z" fill="rgb(62,62,62)"/>
<path d="M66 140h2v2h-2v-2z" fill="rgb(63,63,63)"/>
<path d="M68 140h6v2h-6v-2z" fill="rgb(86,86,86)"/>
<path d="M74 140h6v2h-6v-2z" fill="rgb(27,27,27)"/>
<path d="M34 142h10v2h-10v-2z" fill="rgb(27,27,27)"/>
<path d="M56 142h2v8h-2v-8z" fill="rgb(220,220,220)"/>
<path d="M58 142h4v4h-2v4h-2v-8z" fill="rgb(166,167,166)"/>
<path d="M66 142h8v2h-8v-2z" fill="rgb(27,27,27)"/>
<path d="M60 146h2v2h-2v-2z" fill="rgb(149,149,149)"/>
<path d="M46 148h2v4h-2v-4z" fill="rgb(17,17,17)"/>
<path d="M48 148h2v4h-2v-4z" fill="rgb(62,62,62)"/>
<path d="M60 148h2v2h-2v-2z" fill="rgb(94,94,94)"/>
<path d="M62 148h2v4h-2v-4z" fill="rgb(17,17,17)"/>
<path d="M52 150h2v2h-2v-2z" fill="rgb(149,149,149)"/>
<path d="M56 150h2v2h-2v-2z" fill="rgb(190,190,190)"/>
<path d="M58 150h2v2h-2v-2z" fill="rgb(149,149,149)"/>
<path d="M60 150h2v2h-2v-2z" fill="rgb(62,62,62)"/>
<path d="M48 152h2v2h-2v-2z" fill="rgb(17,17,17)"/>
<path d="M52 152h2v2h-2v-2z" fill="rgb(124,124,124)"/>
<path d="M54 152h4v2h-4v-2z" fill="rgb(149,149,149)"/>
<path d="M58 152h2v2h-2v-2z" fill="rgb(94,94,94)"/>
<path d="M60 152h2v2h-2v-2z" fill="rgb(17,17,17)"/>
<path d="M48 154h2v2h-2v-2z" fill="rgb(40,40,40)"/>
<path d="M50 154h10v2h-10v-2z" fill="rgb(62,62,62)"/>
<path d="M60 154h2v2h-2v-2z" fill="rgb(40,40,40)"/>
<path d="M46 156h2v2h-2v-2z" fill="rgb(40,40,40)"/>
<path d="M48 156h14v2h-14v-2z" fill="rgb(102,102,102)"/>
<path d="M62 156h2v2h-2v-2z" fill="rgb(40,40,40)"/>
<path d="M44 158h2v6h-2v-6z" fill="rgb(40,40,40)"/>
<path d="M46 158h2v2h-2v-2z" fill="rgb(102,102,102)"/>
<path d="M48 158h2v2h-2v-2z" fill="rgb(190,190,190)"/>
<path d="M50 158h8v2h-8v-2z" fill="rgb(220,220,220)"/>
<path d="M58 158h2v2h-2v-2z" fill="rgb(190,190,190)"/>
<path d="M60 158h2v2h-2v-2z" fill="rgb(149,149,149)"/>
<path d="M62 158h2v2h-2v-2z" fill="rgb(102,102,102)"/>
<path d="M64 158h2v6h-2v-6z" fill="rgb(40,40,40)"/>
<path d="M46 160h2v2h-2v-2z" fill="rgb(149,149,149)"/>
<path d="M48 160h14v2h-14v-2z" fill="rgb(27,27,27)"/>
<path d="M62 160h2v2h-2v-2z" fill="rgb(149,149,149)"/>
<path d="M46 162h2v2h-2v-2z" fill="rgb(27,27,27)"/>
<path d="M48 162h2v2h-2v-2z" fill="rgb(174,0,0)"/>
<path d="M50 162h10v2h-10v-2z" fill="rgb(109,0,0)"/>
<path d="M60 162h2v2h-2v-2z" fill="rgb(174,0,0)"/>
<path d="M62 162h2v2h-2v-2z" fill="rgb(27,27,27)"/>
<path d="M44 164h2v2h-2v-2z" fill="rgb(42,0,0)"/>
<path d="M46 164h2v2h-2v-2z" fill="rgb(174,0,0)"/>
<path d="M48 164h2v2h-2v-2z" fill="rgb(224,48,48)"/>
<path d="M50 164h10v2h-2v2h-6v-2h-2v-2z" fill="rgb(174,0,0)"/>
<path d="M60 164h2v2h-2v-2z" fill="rgb(224,48,48)"/>
<path d="M62 164h2v2h-2v-2z" fill="rgb(174,0,0)"/>
<path d="M64 164h2v2h-2v-2z" fill="rgb(42,0,0)"/>
<path d="M46 166h2v4h-2v-4z" fill="rgb(42,0,0)"/>
<path d="M48 166h2v2h-2v-2z" fill="rgb(245,123,123)"/>
<path d="M50 166h2v2h-2v-2z" fill="rgb(224,48,48)"/>
<path d="M58 166h2v2h-2v-2z" fill="rgb(224,48,48)"/>
<path d="M60 166h2v2h-2v-2z" fill="rgb(245,123,123)"/>
<path d="M62 166h2v4h-2v-4z" fill="rgb(42,0,0)"/>
<path d="M48 168h2v2h-2v-2z" fill="rgb(224,48,48)"/>
<path d="M50 168h2v2h-2v-2z" fill="rgb(239,230,230)"/>
<path d="M52 168h6v2h-6v-2z" fill="rgb(254,176,177)"/>
<path d="M58 168h2v2h-2v-2z" fill="rgb(239,230,230)"/>
<path d="M60 168h2v2h-2v-2z" fill="rgb(224,48,48)"/>
<path d="M48 170h14v2h-14v-2z" fill="rgb(42,0,0)"/>
</svg>