<?xml version="1.0" encoding="utf-8"?>
<!-- generated at drububu.com  -->
<!DOCTYPE svg PUBLIC "-//W3C//DTD SVG 1.1//EN" "http://www.w3.org/Graphics/SVG/1.1/DTD/svg11.dtd">
<svg version="1.1" preserveAspectRatio="xMinYMin meet" xmlns="http://www.w3.org/2000/svg" xmlns:xlink="http://www.w3.org/1999/xlink" x="0px" y="0px" width="110px" height="154px" viewBox="0 0 110 154">
<path d="M0 0h54v4h-2v2h-2v4h-2v6h2v2h2v2h2v4h2v4h-2v6h-2v4h-2v2h-4v-2h-2v2h2v2
	h-4v-4h-2v-6h2v-8h2v-4h-2v-2h-2v-4h-2v-2h-4v-2h-4v2h4v2h2v2h2v2h2v8h-2v6h-2v8
	h2v4h-4v-2h-2v-4h-4v2h2v4h2v2h-4v2h-4v-2h-2v-4h-2v-2h-2v-2h-4v-4h-2v-2h-2v-2h2
	v-2h-2v-4h-2v-6h-2v-2h-2v-2h-2v4h2v2h2v2h-2v2h2v2h2v8h2v2h2v6h4v2h2v12h-2v2h-2
	v-10h-2v-2h-2v4h2v14h-2v2h-2v2h-2v4h-2v6h-2v12h-2v-90z" fill="rgb(255,255,255)"/>
<path d="M54 0h2v4h-2v-4z" fill="rgb(236,95,95)"/>
<path d="M56 0h54v90h-2v-10h-2v-8h-2v-2h-2v-4h-2v-2h-2v-2h-2v-12h-2v6h-2v-12h2
	v-2h2v-4h2v-14h2v-4h-2v2h-2v12h-2v2h-2v4h-2v6h-4v2h-4v-6h-2v2h-6v-6h2v-2h2v-8
	h-2v-2h-2v-8h-2v-4h-2v6h2v8h2v2h2v4h-2v2h-2v4h-2v2h-6v-2h-2v2h-2v-2h-2v-2h-2v-6
	h2v-4h2v-6h-2v-2h-2v-2h-2v-2h-2v-2h-2v-2h2v-2h2v-4h2v-6z" fill="rgb(255,255,255)"/>
<path d="M52 4h2v2h-2v-2z" fill="rgb(236,95,95)"/>
<path d="M54 4h2v2h-2v-2z" fill="rgb(221,22,22)"/>
<path d="M50 6h2v2h-2v-2z" fill="rgb(236,95,95)"/>
<path d="M52 6h2v4h-2v-4z" fill="rgb(221,22,22)"/>
<path d="M72 6h2v2h-2v-2z" fill="rgb(236,95,95)"/>
<path d="M50 8h2v2h-2v-2z" fill="rgb(182,32,32)"/>
<path d="M70 8h2v2h-2v-2z" fill="rgb(236,95,95)"/>
<path d="M30 10h2v2h-2v-2z" fill="rgb(182,32,32)"/>
<path d="M32 10h2v2h-2v-2z" fill="rgb(236,95,95)"/>
<path d="M48 10h2v2h-2v-2z" fill="rgb(236,95,95)"/>
<path d="M50 10h2v2h-2v-2z" fill="rgb(221,22,22)"/>
<path d="M68 10h2v2h-2v-2z" fill="rgb(182,32,32)"/>
<path d="M70 10h2v2h-2v-2z" fill="rgb(221,22,22)"/>
<path d="M34 12h2v2h-2v-2z" fill="rgb(182,32,32)"/>
<path d="M36 12h2v2h-2v-2z" fill="rgb(236,95,95)"/>
<path d="M48 12h2v4h-2v-4z" fill="rgb(182,32,32)"/>
<path d="M68 12h2v2h-2v-2z" fill="rgb(221,22,22)"/>
<path d="M2 14h2v2h-2v-2z" fill="rgb(236,95,95)"/>
<path d="M36 14h4v4h-2v-2h-2v-2z" fill="rgb(221,22,22)"/>
<path d="M50 14h2v2h-2v-2z" fill="rgb(221,22,22)"/>
<path d="M70 14h2v4h-2v-4z" fill="rgb(221,22,22)"/>
<path d="M2 16h2v2h-2v-2z" fill="rgb(221,22,22)"/>
<path d="M4 16h2v2h-2v-2z" fill="rgb(236,95,95)"/>
<path d="M50 16h2v2h-2v-2z" fill="rgb(182,32,32)"/>
<path d="M52 16h2v2h-2v-2z" fill="rgb(236,95,95)"/>
<path d="M4 18h2v2h-2v-2z" fill="rgb(182,32,32)"/>
<path d="M6 18h2v2h-2v-2z" fill="rgb(236,95,95)"/>
<path d="M40 18h2v2h-2v-2z" fill="rgb(236,95,95)"/>
<path d="M52 18h2v2h-2v-2z" fill="rgb(141,24,24)"/>
<path d="M54 18h2v2h-2v-2z" fill="rgb(221,22,22)"/>
<path d="M70 18h2v2h-2v-2z" fill="rgb(182,32,32)"/>
<path d="M72 18h2v4h-2v-4z" fill="rgb(236,95,95)"/>
<path d="M6 20h2v6h-2v-6z" fill="rgb(182,32,32)"/>
<path d="M40 20h2v2h-2v-2z" fill="rgb(221,22,22)"/>
<path d="M42 20h2v2h-2v-2z" fill="rgb(236,95,95)"/>
<path d="M54 20h2v4h-2v-4z" fill="rgb(182,32,32)"/>
<path d="M56 20h2v2h-2v-2z" fill="rgb(236,95,95)"/>
<path d="M98 20h2v2h-2v-2z" fill="rgb(236,95,95)"/>
<path d="M4 22h2v2h-2v-2z" fill="rgb(221,22,22)"/>
<path d="M40 22h2v6h-2v-6z" fill="rgb(182,32,32)"/>
<path d="M42 22h2v2h-2v-2z" fill="rgb(221,22,22)"/>
<path d="M56 22h4v4h-2v-2h-2v-2z" fill="rgb(221,22,22)"/>
<path d="M72 22h2v2h-2v-2z" fill="rgb(182,32,32)"/>
<path d="M96 22h2v6h-2v-6z" fill="rgb(221,22,22)"/>
<path d="M98 22h2v2h-2v-2z" fill="rgb(182,32,32)"/>
<path d="M8 24h2v2h-2v-2z" fill="rgb(236,95,95)"/>
<path d="M56 24h2v2h-2v-2z" fill="rgb(182,32,32)"/>
<path d="M72 24h2v4h-2v-4z" fill="rgb(221,22,22)"/>
<path d="M8 26h2v6h-2v-6z" fill="rgb(182,32,32)"/>
<path d="M38 26h2v2h-2v-2z" fill="rgb(221,22,22)"/>
<path d="M56 26h2v2h-2v-2z" fill="rgb(221,22,22)"/>
<path d="M58 26h2v2h-2v-2z" fill="rgb(182,32,32)"/>
<path d="M74 26h2v2h-2v-2z" fill="rgb(182,32,32)"/>
<path d="M10 28h2v2h-2v-2z" fill="rgb(236,95,95)"/>
<path d="M38 28h2v12h-2v-6h-2v-2h2v-4z" fill="rgb(182,32,32)"/>
<path d="M40 28h2v2h-2v-2z" fill="rgb(221,22,22)"/>
<path d="M54 28h2v2h-2v-2z" fill="rgb(126,30,30)"/>
<path d="M56 28h2v4h-2v-4z" fill="rgb(141,24,24)"/>
<path d="M74 28h2v2h-2v-2z" fill="rgb(221,22,22)"/>
<path d="M76 28h2v4h-2v-4z" fill="rgb(236,95,95)"/>
<path d="M96 28h2v8h-2v-8z" fill="rgb(182,32,32)"/>
<path d="M40 30h2v2h-2v-2z" fill="rgb(126,30,30)"/>
<path d="M54 30h2v4h-2v-4z" fill="rgb(182,32,32)"/>
<path d="M8 32h2v2h-2v-2z" fill="rgb(126,30,30)"/>
<path d="M10 32h2v2h-2v-2z" fill="rgb(236,95,95)"/>
<path d="M76 32h2v2h-2v-2z" fill="rgb(182,32,32)"/>
<path d="M10 34h2v2h-2v-2z" fill="rgb(126,30,30)"/>
<path d="M12 34h2v2h-2v-2z" fill="rgb(236,95,95)"/>
<path d="M36 34h2v2h-2v-2z" fill="rgb(221,22,22)"/>
<path d="M52 34h2v4h-2v-4z" fill="rgb(126,30,30)"/>
<path d="M54 34h2v4h2v2h2v2h-6v-8z" fill="rgb(141,24,24)"/>
<path d="M64 34h2v2h-2v-2z" fill="rgb(236,95,95)"/>
<path d="M74 34h2v4h-2v-4z" fill="rgb(182,32,32)"/>
<path d="M76 34h2v2h-2v-2z" fill="rgb(221,22,22)"/>
<path d="M94 34h2v2h-2v-2z" fill="rgb(236,95,95)"/>
<path d="M12 36h2v2h2v2h2v2h-4v-2h-2v-4z" fill="rgb(182,32,32)"/>
<path d="M36 36h2v4h-2v-4z" fill="rgb(126,30,30)"/>
<path d="M64 36h2v4h-2v-4z" fill="rgb(182,32,32)"/>
<path d="M72 36h2v4h-2v-4z" fill="rgb(141,24,24)"/>
<path d="M92 36h2v2h-2v-2z" fill="rgb(236,95,95)"/>
<path d="M94 36h2v4h-2v2h-2v-4h2v-2z" fill="rgb(182,32,32)"/>
<path d="M96 36h2v2h-2v-2z" fill="rgb(221,22,22)"/>
<path d="M16 38h2v2h-2v-2z" fill="rgb(221,22,22)"/>
<path d="M28 38h2v2h-2v-2z" fill="rgb(221,22,22)"/>
<path d="M30 38h2v2h-2v-2z" fill="rgb(236,95,95)"/>
<path d="M40 38h2v2h-2v-2z" fill="rgb(221,22,22)"/>
<path d="M44 38h2v2h-2v-2z" fill="rgb(221,22,22)"/>
<path d="M50 38h2v2h-2v-2z" fill="rgb(126,30,30)"/>
<path d="M52 38h2v6h-2v-6z" fill="rgb(182,32,32)"/>
<path d="M12 40h2v2h-2v-2z" fill="rgb(126,30,30)"/>
<path d="M18 40h2v2h-2v-2z" fill="rgb(221,22,22)"/>
<path d="M30 40h2v2h-2v-2z" fill="rgb(221,22,22)"/>
<path d="M38 40h2v2h-2v-2z" fill="rgb(126,30,30)"/>
<path d="M40 40h2v2h-2v-2z" fill="rgb(141,24,24)"/>
<path d="M46 40h2v2h2v2h-4v-4z" fill="rgb(182,32,32)"/>
<path d="M48 40h2v2h-2v-2z" fill="rgb(126,30,30)"/>
<path d="M50 40h2v4h-2v-4z" fill="rgb(141,24,24)"/>
<path d="M62 40h2v2h-2v-2z" fill="rgb(126,30,30)"/>
<path d="M70 40h2v4h-4v-2h2v-2z" fill="rgb(141,24,24)"/>
<path d="M72 40h2v6h-2v2h-2v-2h-2v-2h4v-4z" fill="rgb(182,32,32)"/>
<path d="M82 40h2v2h-2v-2z" fill="rgb(236,95,95)"/>
<path d="M90 40h2v2h-2v-2z" fill="rgb(141,24,24)"/>
<path d="M94 40h2v2h-2v-2z" fill="rgb(126,30,30)"/>
<path d="M16 42h2v2h-2v-2z" fill="rgb(126,30,30)"/>
<path d="M18 42h2v2h2v4h2v6h2v-2h2v2h2v6h-2v-4h-2v2h-2v-2h-2v-4h-2v-6h-2v-4z" fill="rgb(182,32,32)"/>
<path d="M20 42h2v2h-2v-2z" fill="rgb(221,22,22)"/>
<path d="M30 42h2v2h-2v-2z" fill="rgb(182,32,32)"/>
<path d="M32 42h2v2h-2v-2z" fill="rgb(221,22,22)"/>
<path d="M38 42h2v2h-2v-2z" fill="rgb(141,24,24)"/>
<path d="M40 42h2v2h4v2h-4v2h-2v2h-2v-2h-2v-2h4v-4z" fill="rgb(182,32,32)"/>
<path d="M42 42h4v2h-4v-2z" fill="rgb(141,24,24)"/>
<path d="M54 42h4v2h-2v2h-2v2h-4v2h-2v2h-2v-2h-2v-2h-2v-2h4v2h2v-2h2v-2h4v-2z" fill="rgb(221,22,22)"/>
<path d="M58 42h2v2h-2v-2z" fill="rgb(182,32,32)"/>
<path d="M60 42h2v2h2v2h-4v2h-2v-4h2v-2z" fill="rgb(221,22,22)"/>
<path d="M62 42h2v2h-2v-2z" fill="rgb(182,32,32)"/>
<path d="M64 42h4v2h-4v-2z" fill="rgb(101,23,23)"/>
<path d="M80 42h2v2h-2v-2z" fill="rgb(141,24,24)"/>
<path d="M90 42h2v4h-2v-4z" fill="rgb(182,32,32)"/>
<path d="M92 42h2v2h-2v-2z" fill="rgb(126,30,30)"/>
<path d="M32 44h2v6h-2v-6z" fill="rgb(182,32,32)"/>
<path d="M34 44h2v2h-2v-2z" fill="rgb(221,22,22)"/>
<path d="M36 44h4v2h-4v-2z" fill="rgb(101,23,23)"/>
<path d="M46 44h4v2h-4v-2z" fill="rgb(141,24,24)"/>
<path d="M56 44h2v2h-2v-2z" fill="rgb(182,32,32)"/>
<path d="M64 44h2v2h-2v-2z" fill="rgb(182,32,32)"/>
<path d="M66 44h2v2h-2v-2z" fill="rgb(221,22,22)"/>
<path d="M74 44h6v2h-6v-2z" fill="rgb(141,24,24)"/>
<path d="M80 44h2v2h-2v-2z" fill="rgb(182,32,32)"/>
<path d="M10 46h2v4h-2v-4z" fill="rgb(221,22,22)"/>
<path d="M18 46h2v2h-2v-2z" fill="rgb(126,30,30)"/>
<path d="M22 46h2v2h-2v-2z" fill="rgb(141,24,24)"/>
<path d="M28 46h2v2h-2v-2z" fill="rgb(101,23,23)"/>
<path d="M30 46h2v2h-2v-2z" fill="rgb(221,22,22)"/>
<path d="M34 46h2v2h-2v-2z" fill="rgb(141,24,24)"/>
<path d="M46 46h2v2h-2v-2z" fill="rgb(182,32,32)"/>
<path d="M54 46h4v2h6v2h-4v2h-2v-2h-2v-2h-2v-2z" fill="rgb(236,95,95)"/>
<path d="M60 46h4v2h-4v-2z" fill="rgb(182,32,32)"/>
<path d="M64 46h2v2h-2v-2z" fill="rgb(221,22,22)"/>
<path d="M66 46h4v2h-4v-2z" fill="rgb(236,95,95)"/>
<path d="M72 46h4v2h-4v-2z" fill="rgb(236,95,95)"/>
<path d="M76 46h4v2h-4v-2z" fill="rgb(182,32,32)"/>
<path d="M80 46h2v4h-2v-4z" fill="rgb(141,24,24)"/>
<path d="M86 46h2v2h-2v-2z" fill="rgb(182,32,32)"/>
<path d="M88 46h4v2h-2v6h-4v-2h2v-2h-2v-2h2v-2z" fill="rgb(141,24,24)"/>
<path d="M12 48h2v2h-2v-2z" fill="rgb(182,32,32)"/>
<path d="M18 48h2v4h2v2h-2v2h-2v-8z" fill="rgb(101,23,23)"/>
<path d="M24 48h2v2h2v2h-2v2h-2v-6z" fill="rgb(141,24,24)"/>
<path d="M26 48h2v2h-2v-2z" fill="rgb(101,23,23)"/>
<path d="M28 48h4v2h-4v-2z" fill="rgb(141,24,24)"/>
<path d="M34 48h4v2h-2v2h-4v2h-2v-4h4v-2z" fill="rgb(221,22,22)"/>
<path d="M40 48h2v2h2v2h-2v2h-2v-2h-2v-2h2v-2z" fill="rgb(221,22,22)"/>
<path d="M42 48h2v2h-2v-2z" fill="rgb(182,32,32)"/>
<path d="M50 48h4v2h-4v-2z" fill="rgb(236,95,95)"/>
<path d="M54 48h2v2h-2v-2z" fill="rgb(221,22,22)"/>
<path d="M64 48h2v2h-2v-2z" fill="rgb(182,32,32)"/>
<path d="M66 48h4v2h-2v2h-2v-4z" fill="rgb(221,22,22)"/>
<path d="M70 48h2v2h-2v-2z" fill="rgb(236,95,95)"/>
<path d="M72 48h2v2h-2v-2z" fill="rgb(182,32,32)"/>
<path d="M74 48h4v2h4v2h-6v-2h-2v-2z" fill="rgb(221,22,22)"/>
<path d="M78 48h2v2h-2v-2z" fill="rgb(236,95,95)"/>
<path d="M82 48h4v2h-4v-2z" fill="rgb(101,23,23)"/>
<path d="M90 48h2v4h-2v-4z" fill="rgb(182,32,32)"/>
<path d="M12 50h2v2h-2v-2z" fill="rgb(221,22,22)"/>
<path d="M28 50h2v2h-2v-2z" fill="rgb(182,32,32)"/>
<path d="M36 50h2v2h-2v-2z" fill="rgb(182,32,32)"/>
<path d="M44 50h2v14h-2v-10h-2v-2h2v-2z" fill="rgb(182,32,32)"/>
<path d="M48 50h2v2h-2v-2z" fill="rgb(236,95,95)"/>
<path d="M50 50h4v2h2v2h4v2h-2v2h-2v2h-2v4h-2v4h-4v-8h-2v-6h2v-2h2v-2z" fill="rgb(231,231,231)"/>
<path d="M54 50h2v2h-2v-2z" fill="rgb(182,32,32)"/>
<path d="M56 50h2v2h-2v-2z" fill="rgb(221,22,22)"/>
<path d="M60 50h4v4h-2v-2h-2v-2z" fill="rgb(221,22,22)"/>
<path d="M64 50h2v6h-2v2h-2v-4h2v-4z" fill="rgb(236,95,95)"/>
<path d="M68 50h2v2h-2v-2z" fill="rgb(182,32,32)"/>
<path d="M70 50h2v2h-2v-2z" fill="rgb(221,22,22)"/>
<path d="M72 50h4v2h-4v-2z" fill="rgb(236,95,95)"/>
<path d="M82 50h2v2h-2v-2z" fill="rgb(182,32,32)"/>
<path d="M84 50h2v2h-2v-2z" fill="rgb(141,24,24)"/>
<path d="M86 50h2v2h-2v-2z" fill="rgb(182,32,32)"/>
<path d="M94 50h2v2h-2v-2z" fill="rgb(236,95,95)"/>
<path d="M12 52h2v2h-2v-2z" fill="rgb(182,32,32)"/>
<path d="M28 52h2v2h-2v-2z" fill="rgb(126,30,30)"/>
<path d="M32 52h2v2h-2v-2z" fill="rgb(126,30,30)"/>
<path d="M34 52h2v2h-2v-2z" fill="rgb(182,32,32)"/>
<path d="M36 52h2v2h4v4h-2v4h-2v4h-2v2h-2v-2h-2v-6h-2v-4h2v-2h4v-2z" fill="rgb(216,216,216)"/>
<path d="M38 52h2v2h-2v-2z" fill="rgb(182,32,32)"/>
<path d="M46 52h2v2h-2v-2z" fill="rgb(236,95,95)"/>
<path d="M56 52h4v2h-4v-2z" fill="rgb(182,32,32)"/>
<path d="M60 52h2v2h-2v-2z" fill="rgb(236,95,95)"/>
<path d="M66 52h2v2h-2v-2z" fill="rgb(182,32,32)"/>
<path d="M68 52h2v2h-2v-2z" fill="rgb(221,22,22)"/>
<path d="M70 52h2v2h-2v-2z" fill="rgb(236,95,95)"/>
<path d="M72 52h4v2h-4v-2z" fill="rgb(182,32,32)"/>
<path d="M76 52h6v2h6v4h-2v-2h-2v2h-2v-2h-4v-2h-2v-2z" fill="rgb(236,95,95)"/>
<path d="M82 52h2v2h-2v-2z" fill="rgb(221,22,22)"/>
<path d="M84 52h2v2h-2v-2z" fill="rgb(182,32,32)"/>
<path d="M90 52h2v2h-2v-2z" fill="rgb(101,23,23)"/>
<path d="M94 52h2v2h-2v-2z" fill="rgb(182,32,32)"/>
<path d="M12 54h2v4h-2v-4z" fill="rgb(126,30,30)"/>
<path d="M20 54h2v2h-2v-2z" fill="rgb(141,24,24)"/>
<path d="M30 54h2v2h-2v-2z" fill="rgb(236,95,95)"/>
<path d="M42 54h2v2h-2v-2z" fill="rgb(157,28,28)"/>
<path d="M60 54h2v2h-2v-2z" fill="rgb(182,32,32)"/>
<path d="M66 54h2v2h-2v-2z" fill="rgb(221,22,22)"/>
<path d="M68 54h2v2h-2v-2z" fill="rgb(236,95,95)"/>
<path d="M70 54h8v2h4v2h4v2h2v4h2v2h2v6h-2v-2h-2v-4h-2v-2h-2v-2h-4v-2h-2v-2h-4
	v-2h-4v-2z" fill="rgb(231,231,231)"/>
<path d="M88 54h2v2h-2v-2z" fill="rgb(182,32,32)"/>
<path d="M90 54h2v4h-2v-4z" fill="rgb(141,24,24)"/>
<path d="M94 54h2v2h-2v-2z" fill="rgb(141,24,24)"/>
<path d="M16 56h2v2h-2v-2z" fill="rgb(101,23,23)"/>
<path d="M18 56h2v2h-2v-2z" fill="rgb(141,24,24)"/>
<path d="M20 56h2v2h-2v-2z" fill="rgb(182,32,32)"/>
<path d="M22 56h2v2h-2v-2z" fill="rgb(221,22,22)"/>
<path d="M26 56h2v2h-2v-2z" fill="rgb(157,28,28)"/>
<path d="M42 56h2v4h-2v-4z" fill="rgb(221,22,22)"/>
<path d="M58 56h4v4h2v4h2v8h-4v2h-4v-4h-2v-2h-4v-4h2v-4h2v-2h2v-2z" fill="rgb(245,245,245)"/>
<path d="M64 56h4v6h-2v-4h-2v-2z" fill="rgb(182,32,32)"/>
<path d="M68 56h6v2h4v2h2v2h4v2h2v2h2v4h2v2h2v2h2v8h2v4h-2v6h-2v2h-2v2h-4v2h-10
	v-2h-2v-2h-2v-4h2v-4h-2v-2h-2v-8h4v2h6v-2h-4v-2h-6v-8h2v-2h-2v-2h-2v-6z" fill="rgb(245,245,245)"/>
<path d="M84 56h2v2h-2v-2z" fill="rgb(221,22,22)"/>
<path d="M88 56h2v2h2v2h-6v-2h2v-2z" fill="rgb(221,22,22)"/>
<path d="M92 56h4v2h-4v-2z" fill="rgb(182,32,32)"/>
<path d="M12 58h2v4h2v2h-2v2h-2v-8z" fill="rgb(101,23,23)"/>
<path d="M14 58h4v4h-2v-2h-2v-2z" fill="rgb(141,24,24)"/>
<path d="M18 58h2v4h-2v-4z" fill="rgb(182,32,32)"/>
<path d="M20 58h2v2h2v2h-4v-4z" fill="rgb(141,24,24)"/>
<path d="M22 58h2v2h-2v-2z" fill="rgb(182,32,32)"/>
<path d="M24 58h2v2h-2v-2z" fill="rgb(141,24,24)"/>
<path d="M26 58h2v2h2v6h2v2h-2v2h-2v4h2v-4h2v-2h2v2h2v8h-2v4h-2v4h2v-4h2v-2h2v2
	h2v6h2v4h2v2h2v4h2v4h-2v4h-2v6h2v2h2v-2h-2v-4h2v-4h2v-2h2v2h2v2h2v4h2v2h2v2h2
	v6h-2v2h2v-2h2v-6h-2v-4h4v2h4v2h18v-2h6v-2h6v-2h2v-2h2v-4h2v8h-2v8h-2v2h-4v2h-2
	v2h-4v2h-8v2h-16v-4h-2v2h-4v-2h-6v-2h-4v-2h-4v-2h-2v-2h-6v-2h-2v-2h-2v-4h-2v-2
	h-2v-4h-2v-2h-2v-2h-2v-4h2v2h4v-2h-2v-2h-4v-2h-4v-8h2v-14h2v-2h-2v-6h2v-2z" fill="rgb(216,216,216)"/>
<path d="M40 58h2v2h2v4h2v6h-2v2h-4v2h-2v2h-2v-10h2v-4h2v-4z" fill="rgb(231,231,231)"/>
<path d="M62 58h2v2h-2v-2z" fill="rgb(182,32,32)"/>
<path d="M64 58h2v6h-2v-6z" fill="rgb(236,95,95)"/>
<path d="M92 58h2v2h-2v-2z" fill="rgb(236,95,95)"/>
<path d="M94 58h2v8h2v2h-2v4h-2v-10h-2v-2h2v-2z" fill="rgb(221,22,22)"/>
<path d="M14 60h2v2h-2v-2z" fill="rgb(182,32,32)"/>
<path d="M30 60h2v6h-2v-6z" fill="rgb(182,32,32)"/>
<path d="M46 60h2v2h-2v-2z" fill="rgb(157,28,28)"/>
<path d="M88 60h4v2h-2v2h-2v-4z" fill="rgb(236,95,95)"/>
<path d="M16 62h2v2h-2v-2z" fill="rgb(157,28,28)"/>
<path d="M18 62h2v2h-2v-2z" fill="rgb(141,24,24)"/>
<path d="M20 62h2v12h-2v-12z" fill="rgb(182,32,32)"/>
<path d="M22 62h2v10h-2v-10z" fill="rgb(221,22,22)"/>
<path d="M46 62h2v2h-2v-2z" fill="rgb(221,22,22)"/>
<path d="M66 62h2v2h-2v-2z" fill="rgb(221,22,22)"/>
<path d="M68 62h2v2h2v2h-4v-4z" fill="rgb(236,95,95)"/>
<path d="M90 62h2v2h-2v-2z" fill="rgb(221,22,22)"/>
<path d="M92 62h2v10h2v6h-2v-4h-2v-8h-2v-2h2v-2z" fill="rgb(236,95,95)"/>
<path d="M96 62h2v2h-2v-2z" fill="rgb(51,2,2)"/>
<path d="M10 64h2v2h-2v-2z" fill="rgb(51,2,2)"/>
<path d="M14 64h4v4h-2v-2h-2v-2z" fill="rgb(126,30,30)"/>
<path d="M18 64h2v2h-2v-2z" fill="rgb(157,28,28)"/>
<path d="M46 64h2v2h-2v-2z" fill="rgb(182,32,32)"/>
<path d="M66 64h2v2h-2v-2z" fill="rgb(182,32,32)"/>
<path d="M76 64h2v2h-2v-2z" fill="rgb(236,95,95)"/>
<path d="M96 64h2v2h-2v-2z" fill="rgb(182,32,32)"/>
<path d="M98 64h2v2h-2v-2z" fill="rgb(51,2,2)"/>
<path d="M8 66h2v2h-2v-2z" fill="rgb(51,2,2)"/>
<path d="M10 66h2v6h-2v-2h-2v-2h2v-2z" fill="rgb(101,23,23)"/>
<path d="M12 66h2v8h-4v-2h2v-6z" fill="rgb(126,30,30)"/>
<path d="M14 66h2v4h-2v-4z" fill="rgb(157,28,28)"/>
<path d="M18 66h2v2h-2v-2z" fill="rgb(141,24,24)"/>
<path d="M24 66h2v2h-2v-2z" fill="rgb(141,24,24)"/>
<path d="M32 66h2v2h-2v-2z" fill="rgb(182,32,32)"/>
<path d="M46 66h2v2h-2v-2z" fill="rgb(221,22,22)"/>
<path d="M66 66h4v2h-4v-2z" fill="rgb(221,22,22)"/>
<path d="M72 66h4v2h-4v-2z" fill="rgb(236,95,95)"/>
<path d="M98 66h2v2h-2v-2z" fill="rgb(182,32,32)"/>
<path d="M100 66h2v4h-2v-4z" fill="rgb(51,2,2)"/>
<path d="M6 68h2v4h-2v-4z" fill="rgb(51,2,2)"/>
<path d="M16 68h2v4h2v18h-2v10h2v-8h4v2h2v4h2v2h2v2h2v4h2v2h2v4h2v2h2v2h6v2h2v2
	h4v2h4v2h6v2h4v2h-2v2h-4v-2h-4v-2h-4v2h-2v-2h-2v-2h-2v2h2v2h-2v2h-4v-2h-4v-2
	h-4v-2h-4v-2h-2v-2h-2v-2h-4v-4h-2v-4h-4v-4h-2v-10h-2v-4h-2v-4h2v-8h-2v-6h4v-4h2
	v-2z" fill="rgb(161,162,161)"/>
<path d="M18 68h2v4h-2v-4z" fill="rgb(126,30,30)"/>
<path d="M30 68h2v2h-2v-2z" fill="rgb(182,32,32)"/>
<path d="M34 68h2v2h-2v-2z" fill="rgb(182,32,32)"/>
<path d="M46 68h2v2h-2v-2z" fill="rgb(182,32,32)"/>
<path d="M48 68h2v4h-2v-4z" fill="rgb(221,22,22)"/>
<path d="M50 68h2v2h-2v-2z" fill="rgb(157,28,28)"/>
<path d="M52 68h2v2h-2v-2z" fill="rgb(221,22,22)"/>
<path d="M54 68h2v2h-2v-2z" fill="rgb(236,95,95)"/>
<path d="M66 68h2v4h2v2h6v2h4v2h-6v-2h-4v4h-2v-6h-6v-2h4v-4z" fill="rgb(236,95,95)"/>
<path d="M68 68h2v2h-2v-2z" fill="rgb(182,32,32)"/>
<path d="M76 68h2v2h-2v-2z" fill="rgb(236,95,95)"/>
<path d="M96 68h2v6h-2v-6z" fill="rgb(182,32,32)"/>
<path d="M98 68h2v2h-2v-2z" fill="rgb(221,22,22)"/>
<path d="M8 70h2v2h-2v-2z" fill="rgb(126,30,30)"/>
<path d="M28 70h2v4h-2v-4z" fill="rgb(182,32,32)"/>
<path d="M44 70h2v2h-2v-2z" fill="rgb(221,22,22)"/>
<path d="M46 70h2v2h-2v-2z" fill="rgb(141,24,24)"/>
<path d="M50 70h2v6h2v4h2v4h2v2h-4v2h-2v-10h-2v-8z" fill="rgb(231,231,231)"/>
<path d="M52 70h4v4h2v2h2v2h-2v4h2v2h2v-2h-2v-4h2v-4h4v4h2v8h2v8h-4v-2h-2v-2h-2
	v-2h-2v-2h-2v-2h-2v-4h-2v-4h-2v-6z" fill="rgb(245,245,245)"/>
<path d="M56 70h2v2h-2v-2z" fill="rgb(236,95,95)"/>
<path d="M68 70h2v2h-2v-2z" fill="rgb(221,22,22)"/>
<path d="M78 70h2v2h-2v-2z" fill="rgb(236,95,95)"/>
<path d="M98 70h4v4h2v6h-2v-4h-2v-4h-2v-2z" fill="rgb(236,95,95)"/>
<path d="M102 70h2v2h-2v-2z" fill="rgb(51,2,2)"/>
<path d="M4 72h2v6h-2v-6z" fill="rgb(51,2,2)"/>
<path d="M6 72h4v2h-2v2h2v8h2v4h-2v6h-2v-14h-2v4h-2v-6h2v-6z" fill="rgb(101,23,23)"/>
<path d="M22 72h2v4h-2v-4z" fill="rgb(236,95,95)"/>
<path d="M40 72h2v2h-2v-2z" fill="rgb(221,22,22)"/>
<path d="M42 72h6v2h-6v-2z" fill="rgb(182,32,32)"/>
<path d="M48 72h2v2h-2v-2z" fill="rgb(236,95,95)"/>
<path d="M56 72h2v2h-2v-2z" fill="rgb(221,22,22)"/>
<path d="M98 72h2v2h-2v-2z" fill="rgb(221,22,22)"/>
<path d="M102 72h2v2h-2v-2z" fill="rgb(182,32,32)"/>
<path d="M104 72h2v8h-2v-8z" fill="rgb(51,2,2)"/>
<path d="M8 74h2v2h-2v-2z" fill="rgb(126,30,30)"/>
<path d="M14 74h2v4h-2v-4z" fill="rgb(126,30,30)"/>
<path d="M20 74h2v8h-2v-8z" fill="rgb(221,22,22)"/>
<path d="M38 74h2v2h-2v-2z" fill="rgb(221,22,22)"/>
<path d="M40 74h8v8h-2v2h-2v2h-2v2h-2v-6h-2v-2h-2v-2h2v-2h2v-2z" fill="rgb(231,231,231)"/>
<path d="M48 74h2v8h-2v-8z" fill="rgb(182,32,32)"/>
<path d="M58 74h2v2h-2v-2z" fill="rgb(221,22,22)"/>
<path d="M60 74h2v4h-2v-4z" fill="rgb(236,95,95)"/>
<path d="M66 74h2v4h-2v-4z" fill="rgb(182,32,32)"/>
<path d="M96 74h2v4h-2v-4z" fill="rgb(221,22,22)"/>
<path d="M98 74h2v4h-2v-4z" fill="rgb(182,32,32)"/>
<path d="M22 76h2v6h-2v-6z" fill="rgb(141,24,24)"/>
<path d="M36 76h2v2h-2v-2z" fill="rgb(221,22,22)"/>
<path d="M100 76h2v4h2v8h-2v8h2v10h-2v2h-2v2h-6v2h-6v-6h2v-2h2v-4h2v-4h2v-6h2
	v-10h2v-4z" fill="rgb(231,231,231)"/>
<path d="M2 78h2v6h-2v-6z" fill="rgb(51,2,2)"/>
<path d="M16 78h2v4h-2v-4z" fill="rgb(126,30,30)"/>
<path d="M34 78h2v2h-2v-2z" fill="rgb(221,22,22)"/>
<path d="M50 78h2v8h-2v-8z" fill="rgb(221,22,22)"/>
<path d="M58 78h2v2h-2v-2z" fill="rgb(236,95,95)"/>
<path d="M80 78h2v2h-2v-2z" fill="rgb(236,95,95)"/>
<path d="M94 78h4v4h-2v-2h-2v-2z" fill="rgb(182,32,32)"/>
<path d="M98 78h2v2h-2v-2z" fill="rgb(236,95,95)"/>
<path d="M6 80h2v14h-4v2h-2v-6h2v-6h2v-4z" fill="rgb(119,119,119)"/>
<path d="M10 80h2v4h-2v-4z" fill="rgb(126,30,30)"/>
<path d="M34 80h2v2h-2v-2z" fill="rgb(182,32,32)"/>
<path d="M58 80h2v2h-2v-2z" fill="rgb(221,22,22)"/>
<path d="M68 80h2v6h-2v-6z" fill="rgb(221,22,22)"/>
<path d="M82 80h2v2h-2v-2z" fill="rgb(236,95,95)"/>
<path d="M94 80h2v2h-2v-2z" fill="rgb(236,95,95)"/>
<path d="M104 80h2v2h-2v-2z" fill="rgb(230,43,43)"/>
<path d="M106 80h2v10h-2v-10z" fill="rgb(51,2,2)"/>
<path d="M20 82h2v6h-2v-6z" fill="rgb(182,32,32)"/>
<path d="M32 82h2v4h-2v-4z" fill="rgb(182,32,32)"/>
<path d="M46 82h2v2h-2v-2z" fill="rgb(221,22,22)"/>
<path d="M48 82h2v2h-2v-2z" fill="rgb(236,95,95)"/>
<path d="M60 82h2v2h-2v-2z" fill="rgb(221,22,22)"/>
<path d="M84 82h2v2h-2v-2z" fill="rgb(182,32,32)"/>
<path d="M96 82h2v6h-2v-6z" fill="rgb(221,22,22)"/>
<path d="M104 82h2v8h-2v-8z" fill="rgb(236,95,95)"/>
<path d="M2 84h2v6h-2v-6z" fill="rgb(46,46,46)"/>
<path d="M44 84h2v2h-2v-2z" fill="rgb(221,22,22)"/>
<path d="M46 84h4v14h-4v-4h-2v-2h-2v-2h2v-4h2v-2z" fill="rgb(231,231,231)"/>
<path d="M70 84h2v2h-2v-2z" fill="rgb(182,32,32)"/>
<path d="M84 84h2v4h-2v-4z" fill="rgb(236,95,95)"/>
<path d="M42 86h2v4h-2v-4z" fill="rgb(221,22,22)"/>
<path d="M50 86h2v4h-2v-4z" fill="rgb(182,32,32)"/>
<path d="M54 86h4v2h-4v-2z" fill="rgb(236,95,95)"/>
<path d="M58 86h2v2h2v2h2v2h2v2h4v2h6v2h10v-2h4v-2h2v6h-2v2h-2v-2h-4v2h-2v2h2
	v-2h4v2h-2v6h-2v2h-2v2h-12v-2h-4v-2h-6v-2h-2v-6h-2v-2h-2v-4h-2v-2h2v-6h4v-2z" fill="rgb(231,231,231)"/>
<path d="M70 86h2v2h-2v-2z" fill="rgb(221,22,22)"/>
<path d="M72 86h2v4h-2v4h-2v-6h2v-2z" fill="rgb(236,95,95)"/>
<path d="M82 86h2v2h-2v-2z" fill="rgb(182,32,32)"/>
<path d="M94 86h2v2h-2v-2z" fill="rgb(182,32,32)"/>
<path d="M20 88h2v2h2v2h-4v-4z" fill="rgb(126,30,30)"/>
<path d="M52 88h2v4h-2v-4z" fill="rgb(141,24,24)"/>
<path d="M82 88h2v4h-2v-4z" fill="rgb(236,95,95)"/>
<path d="M94 88h2v4h-2v-4z" fill="rgb(221,22,22)"/>
<path d="M96 88h2v2h-2v-2z" fill="rgb(236,95,95)"/>
<path d="M102 88h2v2h-2v-2z" fill="rgb(182,32,32)"/>
<path d="M0 90h2v6h-2v-6z" fill="rgb(46,46,46)"/>
<path d="M18 90h2v2h-2v-2z" fill="rgb(141,24,24)"/>
<path d="M24 90h2v2h-2v-2z" fill="rgb(182,32,32)"/>
<path d="M50 90h2v2h-2v-2z" fill="rgb(221,22,22)"/>
<path d="M102 90h2v4h-2v-4z" fill="rgb(236,95,95)"/>
<path d="M104 90h4v8h-2v-4h-2v-4z" fill="rgb(231,231,231)"/>
<path d="M108 90h2v10h-2v-10z" fill="rgb(46,46,46)"/>
<path d="M10 92h2v2h-2v-2z" fill="rgb(119,119,119)"/>
<path d="M18 92h2v4h-2v-4z" fill="rgb(126,30,30)"/>
<path d="M24 92h2v2h-2v-2z" fill="rgb(216,216,216)"/>
<path d="M26 92h2v2h-2v-2z" fill="rgb(221,22,22)"/>
<path d="M28 92h2v2h-2v-2z" fill="rgb(141,24,24)"/>
<path d="M50 92h2v4h-2v-4z" fill="rgb(182,32,32)"/>
<path d="M52 92h2v2h-2v-2z" fill="rgb(236,95,95)"/>
<path d="M92 92h2v2h-2v-2z" fill="rgb(221,22,22)"/>
<path d="M94 92h2v2h-2v-2z" fill="rgb(182,32,32)"/>
<path d="M4 94h4v2h-4v-2z" fill="rgb(101,23,23)"/>
<path d="M8 94h4v2h2v6h-2v-4h-2v-2h-2v-2z" fill="rgb(126,30,30)"/>
<path d="M28 94h2v2h-2v-2z" fill="rgb(221,22,22)"/>
<path d="M30 94h2v2h-2v-2z" fill="rgb(236,95,95)"/>
<path d="M70 94h2v2h-2v-2z" fill="rgb(245,245,245)"/>
<path d="M72 94h2v2h-2v-2z" fill="rgb(236,95,95)"/>
<path d="M92 94h2v2h-2v-2z" fill="rgb(182,32,32)"/>
<path d="M94 94h2v2h-2v-2z" fill="rgb(236,95,95)"/>
<path d="M102 94h2v2h-2v-2z" fill="rgb(182,32,32)"/>
<path d="M104 94h2v8h-2v-8z" fill="rgb(236,95,95)"/>
<path d="M0 96h2v4h-2v-4z" fill="rgb(51,2,2)"/>
<path d="M2 96h2v4h-2v-4z" fill="rgb(101,23,23)"/>
<path d="M4 96h4v4h2v8h-2v2h-2v2h-2v-16z" fill="rgb(119,119,119)"/>
<path d="M8 96h2v2h2v4h2v2h-2v4h2v4h-2v-2h-2v2h-2v4h-2v-6h2v-2h2v-8h-2v-4z" fill="rgb(101,23,23)"/>
<path d="M18 96h2v4h-2v-4z" fill="rgb(101,23,23)"/>
<path d="M32 96h2v2h-2v-2z" fill="rgb(221,22,22)"/>
<path d="M50 96h2v2h2v4h-2v-2h-2v-4z" fill="rgb(221,22,22)"/>
<path d="M52 96h2v2h-2v-2z" fill="rgb(141,24,24)"/>
<path d="M92 96h2v2h-2v-2z" fill="rgb(221,22,22)"/>
<path d="M32 98h2v2h-2v-2z" fill="rgb(182,32,32)"/>
<path d="M34 98h2v2h-2v-2z" fill="rgb(141,24,24)"/>
<path d="M48 98h2v2h-2v-2z" fill="rgb(141,24,24)"/>
<path d="M60 98h4v2h-4v-2z" fill="rgb(236,95,95)"/>
<path d="M92 98h2v2h-2v-2z" fill="rgb(236,95,95)"/>
<path d="M106 98h2v2h-2v-2z" fill="rgb(216,216,216)"/>
<path d="M0 100h2v12h2v6h2v4h2v2h2v2h2v4h2v2h2v2h2v2h4v2h2v2h2v2h4v2h2v2h2v2h4
	v2h4v2h6v2h-48v-54z" fill="rgb(255,255,255)"/>
<path d="M2 100h2v2h-2v-2z" fill="rgb(51,2,2)"/>
<path d="M34 100h2v2h-2v-2z" fill="rgb(182,32,32)"/>
<path d="M48 100h2v2h-2v-2z" fill="rgb(221,22,22)"/>
<path d="M50 100h2v2h-2v-2z" fill="rgb(231,231,231)"/>
<path d="M54 100h2v2h-2v-2z" fill="rgb(236,95,95)"/>
<path d="M58 100h2v2h-2v-2z" fill="rgb(236,95,95)"/>
<path d="M64 100h2v2h-2v-2z" fill="rgb(236,95,95)"/>
<path d="M84 100h4v2h-4v-2z" fill="rgb(236,95,95)"/>
<path d="M90 100h2v2h-2v-2z" fill="rgb(221,22,22)"/>
<path d="M94 100h2v2h-2v-2z" fill="rgb(236,95,95)"/>
<path d="M106 100h2v2h-2v-2z" fill="rgb(51,2,2)"/>
<path d="M108 100h2v54h-48v-2h6v-2h4v-2h4v-2h2v-2h2v-2h4v-2h2v-2h2v-2h4v-2h2v-2
	h2v-4h2v-2h2v-2h2v-4h2v-2h2v-8h2v-10z" fill="rgb(255,255,255)"/>
<path d="M2 102h2v10h-2v-10z" fill="rgb(46,46,46)"/>
<path d="M46 102h2v2h-2v-2z" fill="rgb(236,95,95)"/>
<path d="M48 102h2v2h-2v-2z" fill="rgb(182,32,32)"/>
<path d="M52 102h2v2h-2v-2z" fill="rgb(231,231,231)"/>
<path d="M54 102h2v2h-2v-2z" fill="rgb(182,32,32)"/>
<path d="M56 102h2v2h-2v-2z" fill="rgb(236,95,95)"/>
<path d="M66 102h2v2h-2v-2z" fill="rgb(236,95,95)"/>
<path d="M82 102h2v2h-2v-2z" fill="rgb(236,95,95)"/>
<path d="M88 102h4v2h-4v-2z" fill="rgb(236,95,95)"/>
<path d="M96 102h2v4h-2v-4z" fill="rgb(236,95,95)"/>
<path d="M106 102h2v8h-2v-8z" fill="rgb(46,46,46)"/>
<path d="M12 104h2v2h2v4h4v4h2v4h-2v-2h-2v-2h-2v-2h-2v-4h-2v-4z" fill="rgb(119,119,119)"/>
<path d="M46 104h2v4h-2v-4z" fill="rgb(221,22,22)"/>
<path d="M54 104h2v2h-2v-2z" fill="rgb(231,231,231)"/>
<path d="M56 104h2v2h-2v-2z" fill="rgb(221,22,22)"/>
<path d="M86 104h2v2h-2v-2z" fill="rgb(182,32,32)"/>
<path d="M88 104h2v2h-2v-2z" fill="rgb(221,22,22)"/>
<path d="M44 106h2v2h-2v-2z" fill="rgb(141,24,24)"/>
<path d="M56 106h2v2h-2v-2z" fill="rgb(182,32,32)"/>
<path d="M86 106h2v2h-2v-2z" fill="rgb(221,22,22)"/>
<path d="M44 108h2v2h-2v-2z" fill="rgb(221,22,22)"/>
<path d="M56 108h2v2h-2v-2z" fill="rgb(141,24,24)"/>
<path d="M58 108h2v2h-2v-2z" fill="rgb(221,22,22)"/>
<path d="M86 108h2v2h-2v-2z" fill="rgb(182,32,32)"/>
<path d="M10 110h2v2h2v4h-2v4h2v-4h2v2h4v6h2v4h2v-2h4v-2h-4v-2h-2v-4h4v2h2v2h2
	v2h4v2h4v2h4v2h-2v2h-4v2h-2v-2h-4v2h2v2h-4v2h2v2h-4v-2h-2v-2h-2v-2h-4v-2h-2v-2
	h-2v-4h-2v-2h-2v-2h-2v-4h-2v-2h2v-4h2v-2z" fill="rgb(119,119,119)"/>
<path d="M44 110h2v2h-2v-2z" fill="rgb(182,32,32)"/>
<path d="M58 110h2v2h-2v-2z" fill="rgb(141,24,24)"/>
<path d="M60 110h2v2h-2v-2z" fill="rgb(221,22,22)"/>
<path d="M84 110h2v2h-2v-2z" fill="rgb(182,32,32)"/>
<path d="M86 110h2v2h-2v-2z" fill="rgb(236,95,95)"/>
<path d="M104 110h2v8h-2v-8z" fill="rgb(46,46,46)"/>
<path d="M4 112h2v4h-2v-4z" fill="rgb(51,2,2)"/>
<path d="M14 112h2v2h2v2h2v2h-4v-2h-2v-4z" fill="rgb(101,23,23)"/>
<path d="M46 112h2v2h-2v-2z" fill="rgb(221,22,22)"/>
<path d="M60 112h2v2h-2v-2z" fill="rgb(182,32,32)"/>
<path d="M82 112h4v2h-4v-2z" fill="rgb(236,95,95)"/>
<path d="M86 112h2v2h-2v-2z" fill="rgb(231,231,231)"/>
<path d="M62 114h2v2h-2v-2z" fill="rgb(221,22,22)"/>
<path d="M4 116h2v2h-2v-2z" fill="rgb(46,46,46)"/>
<path d="M12 116h2v4h-2v-4z" fill="rgb(101,23,23)"/>
<path d="M62 116h2v4h-2v-4z" fill="rgb(182,32,32)"/>
<path d="M6 118h2v4h-2v-4z" fill="rgb(46,46,46)"/>
<path d="M20 118h2v4h2v2h4v2h-4v2h-2v-4h-2v-6z" fill="rgb(101,23,23)"/>
<path d="M102 118h2v2h-2v-2z" fill="rgb(46,46,46)"/>
<path d="M60 120h2v2h-2v-2z" fill="rgb(221,22,22)"/>
<path d="M98 120h2v4h-2v2h-2v2h-2v2h-2v2h-2v2h-4v2h-2v-2h-2v2h-4v-4h-4v2h-2v-2
	h-2v-2h-4v-2h18v-2h8v-2h4v-2h2v-2z" fill="rgb(161,162,161)"/>
<path d="M100 120h2v4h-2v-4z" fill="rgb(46,46,46)"/>
<path d="M8 122h2v2h-2v-2z" fill="rgb(46,46,46)"/>
<path d="M10 124h2v2h-2v-2z" fill="rgb(46,46,46)"/>
<path d="M46 124h2v2h-2v-2z" fill="rgb(126,30,30)"/>
<path d="M66 124h2v4h-2v-4z" fill="rgb(221,22,22)"/>
<path d="M98 124h2v2h-2v-2z" fill="rgb(46,46,46)"/>
<path d="M12 126h2v4h-2v-4z" fill="rgb(46,46,46)"/>
<path d="M48 126h2v4h-4v-2h2v-2z" fill="rgb(126,30,30)"/>
<path d="M52 126h4v2h-4v-2z" fill="rgb(126,30,30)"/>
<path d="M96 126h2v2h-2v-2z" fill="rgb(46,46,46)"/>
<path d="M50 128h10v2h-10v-2z" fill="rgb(92,3,3)"/>
<path d="M64 128h2v2h-2v-2z" fill="rgb(126,30,30)"/>
<path d="M94 128h2v4h-2v-4z" fill="rgb(46,46,46)"/>
<path d="M14 130h2v2h-2v-2z" fill="rgb(46,46,46)"/>
<path d="M40 130h4v2h-4v-2z" fill="rgb(101,23,23)"/>
<path d="M44 130h6v2h-6v-2z" fill="rgb(92,3,3)"/>
<path d="M50 130h10v2h-10v-2z" fill="rgb(220,90,13)"/>
<path d="M60 130h6v2h-6v-2z" fill="rgb(92,3,3)"/>
<path d="M66 130h4v2h-4v-2z" fill="rgb(126,30,30)"/>
<path d="M78 130h2v2h-2v-2z" fill="rgb(126,30,30)"/>
<path d="M92 130h2v2h-2v-2z" fill="rgb(119,119,119)"/>
<path d="M16 132h2v2h-2v-2z" fill="rgb(46,46,46)"/>
<path d="M30 132h4v4h-2v-2h-2v-2z" fill="rgb(101,23,23)"/>
<path d="M36 132h2v2h-2v-2z" fill="rgb(101,23,23)"/>
<path d="M38 132h6v2h-6v-2z" fill="rgb(92,3,3)"/>
<path d="M44 132h4v2h-4v-2z" fill="rgb(220,90,13)"/>
<path d="M48 132h14v2h-14v-2z" fill="rgb(185,63,17)"/>
<path d="M62 132h4v2h-4v-2z" fill="rgb(220,90,13)"/>
<path d="M66 132h6v2h-6v-2z" fill="rgb(92,3,3)"/>
<path d="M74 132h4v4h-2v-2h-2v-2z" fill="rgb(126,30,30)"/>
<path d="M90 132h2v2h-2v-2z" fill="rgb(119,119,119)"/>
<path d="M92 132h2v2h-2v-2z" fill="rgb(46,46,46)"/>
<path d="M18 134h4v2h-4v-2z" fill="rgb(46,46,46)"/>
<path d="M34 134h4v2h-4v-2z" fill="rgb(92,3,3)"/>
<path d="M38 134h4v2h-4v-2z" fill="rgb(220,90,13)"/>
<path d="M42 134h4v2h-4v-2z" fill="rgb(185,63,17)"/>
<path d="M46 134h18v2h6v2h4v4h2v4h-2v-2h-2v-4h-4v-2h-6v-2h-14v2h-6v2h-2v2h-4v-4
	h4v-2h6v-2z" fill="rgb(163,33,19)"/>
<path d="M64 134h4v2h-4v-2z" fill="rgb(185,63,17)"/>
<path d="M68 134h4v2h-4v-2z" fill="rgb(220,90,13)"/>
<path d="M72 134h4v2h-4v-2z" fill="rgb(92,3,3)"/>
<path d="M82 134h2v2h-2v-2z" fill="rgb(126,30,30)"/>
<path d="M86 134h2v2h-2v-2z" fill="rgb(119,119,119)"/>
<path d="M88 134h4v2h-4v-2z" fill="rgb(46,46,46)"/>
<path d="M22 136h2v2h-2v-2z" fill="rgb(46,46,46)"/>
<path d="M28 136h4v2h-4v-2z" fill="rgb(101,23,23)"/>
<path d="M32 136h2v2h-2v-2z" fill="rgb(92,3,3)"/>
<path d="M34 136h2v2h-2v-2z" fill="rgb(220,90,13)"/>
<path d="M36 136h4v2h-4v-2z" fill="rgb(185,63,17)"/>
<path d="M48 136h2v2h-2v-2z" fill="rgb(62,42,106)"/>
<path d="M50 136h6v2h-6v-2z" fill="rgb(124,11,12)"/>
<path d="M56 136h2v4h-2v-4z" fill="rgb(62,42,106)"/>
<path d="M58 136h4v2h-4v-2z" fill="rgb(124,11,12)"/>
<path d="M70 136h2v2h-2v-2z" fill="rgb(185,63,17)"/>
<path d="M72 136h4v2h-4v-2z" fill="rgb(220,90,13)"/>
<path d="M76 136h2v2h-2v-2z" fill="rgb(92,3,3)"/>
<path d="M78 136h2v2h-2v-2z" fill="rgb(119,119,119)"/>
<path d="M80 136h4v2h-2v2h-2v-4z" fill="rgb(101,23,23)"/>
<path d="M84 136h2v2h-2v-2z" fill="rgb(119,119,119)"/>
<path d="M86 136h2v2h-2v-2z" fill="rgb(46,46,46)"/>
<path d="M24 138h2v2h-2v-2z" fill="rgb(46,46,46)"/>
<path d="M30 138h2v4h-2v-4z" fill="rgb(92,3,3)"/>
<path d="M32 138h2v2h-2v-2z" fill="rgb(124,11,12)"/>
<path d="M34 138h2v2h-2v-2z" fill="rgb(200,65,58)"/>
<path d="M42 138h2v2h2v2h-4v-4z" fill="rgb(62,42,106)"/>
<path d="M44 138h4v2h-4v-2z" fill="rgb(124,11,12)"/>
<path d="M48 138h2v2h-2v-2z" fill="rgb(27,8,70)"/>
<path d="M50 138h2v2h-2v-2z" fill="rgb(62,42,106)"/>
<path d="M52 138h4v2h-4v-2z" fill="rgb(27,8,70)"/>
<path d="M58 138h4v2h-4v-2z" fill="rgb(27,8,70)"/>
<path d="M62 138h2v2h-2v-2z" fill="rgb(62,42,106)"/>
<path d="M64 138h4v2h-4v-2z" fill="rgb(124,11,12)"/>
<path d="M74 138h2v2h2v4h-2v-2h-2v-4z" fill="rgb(185,63,17)"/>
<path d="M76 138h2v2h-2v-2z" fill="rgb(220,90,13)"/>
<path d="M78 138h2v4h-2v-4z" fill="rgb(92,3,3)"/>
<path d="M82 138h2v2h-2v-2z" fill="rgb(119,119,119)"/>
<path d="M84 138h2v2h-2v-2z" fill="rgb(46,46,46)"/>
<path d="M26 140h4v2h-4v-2z" fill="rgb(46,46,46)"/>
<path d="M32 140h2v2h-2v-2z" fill="rgb(220,90,13)"/>
<path d="M34 140h2v2h-2v-2z" fill="rgb(185,63,17)"/>
<path d="M40 140h2v2h-2v-2z" fill="rgb(124,11,12)"/>
<path d="M46 140h2v2h-2v-2z" fill="rgb(34,26,66)"/>
<path d="M48 140h2v2h-2v-2z" fill="rgb(62,42,106)"/>
<path d="M50 140h2v2h-2v-2z" fill="rgb(51,25,128)"/>
<path d="M52 140h4v2h-4v-2z" fill="rgb(62,42,106)"/>
<path d="M56 140h4v2h-4v-2z" fill="rgb(51,25,128)"/>
<path d="M60 140h2v2h-2v-2z" fill="rgb(62,42,106)"/>
<path d="M62 140h2v2h-2v-2z" fill="rgb(27,8,70)"/>
<path d="M64 140h2v2h-2v-2z" fill="rgb(34,26,66)"/>
<path d="M66 140h2v2h-2v-2z" fill="rgb(149,40,17)"/>
<path d="M68 140h4v2h-4v-2z" fill="rgb(62,42,106)"/>
<path d="M80 140h4v2h-4v-2z" fill="rgb(46,46,46)"/>
<path d="M30 142h2v2h-2v-2z" fill="rgb(63,1,1)"/>
<path d="M32 142h2v2h-2v-2z" fill="rgb(185,63,17)"/>
<path d="M34 142h2v4h-2v-4z" fill="rgb(163,33,19)"/>
<path d="M36 142h4v2h-4v-2z" fill="rgb(62,42,106)"/>
<path d="M40 142h2v2h-2v-2z" fill="rgb(34,26,66)"/>
<path d="M42 142h2v2h-2v-2z" fill="rgb(27,8,70)"/>
<path d="M44 142h2v2h-2v-2z" fill="rgb(51,25,128)"/>
<path d="M46 142h2v2h-2v-2z" fill="rgb(62,42,106)"/>
<path d="M48 142h2v2h-2v-2z" fill="rgb(27,8,70)"/>
<path d="M50 142h10v2h-2v2h-2v-2h-2v2h-2v-2h-2v-2z" fill="rgb(34,26,66)"/>
<path d="M60 142h2v2h-2v-2z" fill="rgb(27,8,70)"/>
<path d="M62 142h2v2h-2v-2z" fill="rgb(51,25,128)"/>
<path d="M64 142h2v2h-2v-2z" fill="rgb(62,42,106)"/>
<path d="M66 142h2v2h-2v-2z" fill="rgb(27,8,70)"/>
<path d="M68 142h2v2h-2v-2z" fill="rgb(34,26,66)"/>
<path d="M70 142h2v2h-2v-2z" fill="rgb(124,11,12)"/>
<path d="M78 142h2v2h-2v-2z" fill="rgb(63,1,1)"/>
<path d="M32 144h2v2h-2v-2z" fill="rgb(63,1,1)"/>
<path d="M36 144h2v2h-2v-2z" fill="rgb(124,11,12)"/>
<path d="M38 144h2v2h-2v-2z" fill="rgb(27,8,70)"/>
<path d="M40 144h2v2h-2v-2z" fill="rgb(62,42,106)"/>
<path d="M42 144h2v2h-2v-2z" fill="rgb(51,25,128)"/>
<path d="M44 144h2v2h-2v-2z" fill="rgb(27,8,70)"/>
<path d="M46 144h2v2h-2v-2z" fill="rgb(34,26,66)"/>
<path d="M48 144h4v4h-2v-2h-2v-2z" fill="rgb(20,19,31)"/>
<path d="M54 144h2v2h-2v-2z" fill="rgb(20,19,31)"/>
<path d="M58 144h4v2h-2v2h-2v-4z" fill="rgb(20,19,31)"/>
<path d="M62 144h2v2h-2v-2z" fill="rgb(34,26,66)"/>
<path d="M64 144h2v2h-2v-2z" fill="rgb(27,8,70)"/>
<path d="M66 144h2v2h-2v-2z" fill="rgb(51,25,128)"/>
<path d="M68 144h4v2h-4v-2z" fill="rgb(27,8,70)"/>
<path d="M72 144h2v2h-2v-2z" fill="rgb(124,11,12)"/>
<path d="M76 144h2v2h-2v-2z" fill="rgb(63,1,1)"/>
<path d="M34 146h2v2h-2v-2z" fill="rgb(63,1,1)"/>
<path d="M36 146h2v2h-2v-2z" fill="rgb(8,4,50)"/>
<path d="M38 146h2v2h-2v-2z" fill="rgb(34,26,66)"/>
<path d="M40 146h2v2h-2v-2z" fill="rgb(51,25,128)"/>
<path d="M42 146h2v2h-2v-2z" fill="rgb(27,8,70)"/>
<path d="M44 146h4v2h-2v2h-4v-2h2v-2z" fill="rgb(20,19,31)"/>
<path d="M48 146h2v2h-2v-2z" fill="rgb(34,26,66)"/>
<path d="M52 146h6v2h-6v-2z" fill="rgb(12,12,12)"/>
<path d="M60 146h2v2h-2v-2z" fill="rgb(34,26,66)"/>
<path d="M62 146h4v2h2v2h-4v-2h-2v-2z" fill="rgb(20,19,31)"/>
<path d="M66 146h2v2h-2v-2z" fill="rgb(27,8,70)"/>
<path d="M68 146h2v2h-2v-2z" fill="rgb(62,42,106)"/>
<path d="M70 146h2v2h-2v-2z" fill="rgb(34,26,66)"/>
<path d="M72 146h2v2h-2v-2z" fill="rgb(8,4,50)"/>
<path d="M74 146h2v2h-2v-2z" fill="rgb(63,1,1)"/>
<path d="M38 148h4v2h-4v-2z" fill="rgb(8,4,50)"/>
<path d="M46 148h2v2h-2v-2z" fill="rgb(34,26,66)"/>
<path d="M48 148h2v2h-2v-2z" fill="rgb(20,19,31)"/>
<path d="M50 148h2v2h-2v-2z" fill="rgb(12,12,12)"/>
<path d="M52 148h6v2h2v2h2v2h-14v-2h2v-2h2v-2z" fill="rgb(6,6,6)"/>
<path d="M58 148h2v2h-2v-2z" fill="rgb(12,12,12)"/>
<path d="M60 148h2v2h-2v-2z" fill="rgb(20,19,31)"/>
<path d="M62 148h2v2h-2v-2z" fill="rgb(34,26,66)"/>
<path d="M68 148h4v2h-4v-2z" fill="rgb(8,4,50)"/>
<path d="M42 150h4v2h-4v-2z" fill="rgb(6,6,6)"/>
<path d="M46 150h4v2h-4v-2z" fill="rgb(12,12,12)"/>
<path d="M60 150h4v2h-4v-2z" fill="rgb(12,12,12)"/>
<path d="M64 150h4v2h-4v-2z" fill="rgb(6,6,6)"/>
</svg>