<?xml version="1.0" encoding="utf-8"?>
<!-- generated at drububu.com  -->
<!DOCTYPE svg PUBLIC "-//W3C//DTD SVG 1.1//EN" "http://www.w3.org/Graphics/SVG/1.1/DTD/svg11.dtd">
<svg version="1.1" preserveAspectRatio="xMinYMin meet" xmlns="http://www.w3.org/2000/svg" xmlns:xlink="http://www.w3.org/1999/xlink" x="0px" y="0px" width="50px" height="40px" viewBox="0 0 50 40">
<path d="M0 0h22v2h-2v2h-2v2h-2v2h-8v2h-6v2h-2v-12z" fill="rgb(255,255,255)"/>
<path d="M22 0h18v2h-18v-2z" fill="rgb(11,0,22)"/>
<path d="M40 0h10v8h-2v-2h-2v-2h-4v-2h-2v-2z" fill="rgb(255,255,255)"/>
<path d="M20 2h2v2h-2v-2z" fill="rgb(11,0,22)"/>
<path d="M22 2h2v2h-2v-2z" fill="rgb(142,53,0)"/>
<path d="M24 2h2v4h-2v-4z" fill="rgb(195,96,13)"/>
<path d="M26 2h2v2h-2v-2z" fill="rgb(142,53,0)"/>
<path d="M28 2h2v6h-2v-6z" fill="rgb(19,1,25)"/>
<path d="M30 2h2v2h-2v-2z" fill="rgb(151,73,8)"/>
<path d="M32 2h6v2h-4v2h-4v-2h2v-2z" fill="rgb(195,96,13)"/>
<path d="M38 2h2v2h-2v-2z" fill="rgb(151,73,8)"/>
<path d="M40 2h2v2h4v2h-6v-4z" fill="rgb(11,0,22)"/>
<path d="M18 4h2v2h-2v-2z" fill="rgb(11,0,22)"/>
<path d="M20 4h2v2h-2v-2z" fill="rgb(95,25,0)"/>
<path d="M22 4h2v4h-2v-4z" fill="rgb(151,73,8)"/>
<path d="M26 4h2v2h-2v-2z" fill="rgb(151,73,8)"/>
<path d="M34 4h2v2h-2v-2z" fill="rgb(151,73,8)"/>
<path d="M36 4h2v2h-2v-2z" fill="rgb(142,53,0)"/>
<path d="M38 4h2v2h-2v-2z" fill="rgb(95,25,0)"/>
<path d="M16 6h2v2h-2v-2z" fill="rgb(11,0,22)"/>
<path d="M18 6h2v4h2v2h2v4h-2v-2h-2v-2h-2v-6z" fill="rgb(95,25,0)"/>
<path d="M20 6h2v4h-2v-4z" fill="rgb(142,53,0)"/>
<path d="M24 6h2v2h-2v-2z" fill="rgb(142,53,0)"/>
<path d="M26 6h2v2h-2v-2z" fill="rgb(95,25,0)"/>
<path d="M30 6h8v2h-8v-2z" fill="rgb(95,25,0)"/>
<path d="M38 6h2v6h-2v-2h-4v-2h4v-2z" fill="rgb(48,8,0)"/>
<path d="M40 6h2v2h-2v-2z" fill="rgb(151,73,8)"/>
<path d="M42 6h2v4h-2v2h-2v-4h2v-2z" fill="rgb(195,96,13)"/>
<path d="M44 6h2v2h-2v-2z" fill="rgb(95,25,0)"/>
<path d="M46 6h2v2h-2v-2z" fill="rgb(11,0,22)"/>
<path d="M8 8h8v2h-8v-2z" fill="rgb(11,0,22)"/>
<path d="M16 8h2v2h-2v-2z" fill="rgb(19,1,25)"/>
<path d="M22 8h4v2h-4v-2z" fill="rgb(95,25,0)"/>
<path d="M26 8h4v2h-4v-2z" fill="rgb(48,8,0)"/>
<path d="M30 8h4v2h-4v-2z" fill="rgb(19,1,25)"/>
<path d="M44 8h2v4h-4v-2h2v-2z" fill="rgb(151,73,8)"/>
<path d="M46 8h2v6h-2v-6z" fill="rgb(95,25,0)"/>
<path d="M48 8h2v8h-2v-8z" fill="rgb(11,0,22)"/>
<path d="M2 10h6v2h-6v-2z" fill="rgb(11,0,22)"/>
<path d="M8 10h2v2h-2v-2z" fill="rgb(142,53,0)"/>
<path d="M10 10h2v8h-2v-8z" fill="rgb(19,1,25)"/>
<path d="M12 10h2v2h-2v-2z" fill="rgb(142,53,0)"/>
<path d="M14 10h2v2h-2v-2z" fill="rgb(151,73,8)"/>
<path d="M16 10h2v4h-2v-4z" fill="rgb(142,53,0)"/>
<path d="M22 10h2v2h-2v-2z" fill="rgb(48,8,0)"/>
<path d="M24 10h6v2h-2v8h-2v-2h-6v4h-2v-10h2v4h6v-4h-2v-2z" fill="rgb(19,1,25)"/>
<path d="M30 10h2v6h6v2h-8v-2h-2v-4h2v-2z" fill="rgb(95,25,0)"/>
<path d="M32 10h2v2h2v4h-2v-2h-2v-4z" fill="rgb(195,96,13)"/>
<path d="M34 10h2v2h-2v-2z" fill="rgb(151,73,8)"/>
<path d="M36 10h2v2h-2v-2z" fill="rgb(142,53,0)"/>
<path d="M0 12h2v12h8v2h-6v4h-2v-4h-2v-14z" fill="rgb(19,1,25)"/>
<path d="M2 12h6v2h-6v-2z" fill="rgb(142,53,0)"/>
<path d="M8 12h2v2h-2v-2z" fill="rgb(151,73,8)"/>
<path d="M12 12h2v4h-2v-4z" fill="rgb(151,73,8)"/>
<path d="M14 12h2v2h-2v-2z" fill="rgb(195,96,13)"/>
<path d="M24 12h2v4h-2v-4z" fill="rgb(48,8,0)"/>
<path d="M36 12h2v4h-2v-4z" fill="rgb(151,73,8)"/>
<path d="M38 12h2v2h-2v-2z" fill="rgb(95,25,0)"/>
<path d="M40 12h6v2h-2v2h-2v-2h-2v-2z" fill="rgb(142,53,0)"/>
<path d="M2 14h2v2h2v2h-4v-4z" fill="rgb(95,25,0)"/>
<path d="M4 14h4v2h-4v-2z" fill="rgb(151,73,8)"/>
<path d="M8 14h2v4h-4v-2h2v-2z" fill="rgb(142,53,0)"/>
<path d="M14 14h4v8h-2v-2h-2v2h-2v-6h2v-2z" fill="rgb(95,25,0)"/>
<path d="M20 14h2v2h-2v-2z" fill="rgb(48,8,0)"/>
<path d="M32 14h2v2h-2v-2z" fill="rgb(151,73,8)"/>
<path d="M38 14h2v4h6v2h-4v4h-2v-4h-8v-2h6v-4z" fill="rgb(19,1,25)"/>
<path d="M40 14h2v2h-2v-2z" fill="rgb(95,25,0)"/>
<path d="M44 14h2v2h-2v-2z" fill="rgb(95,25,0)"/>
<path d="M46 14h2v2h-2v-2z" fill="rgb(48,8,0)"/>
<path d="M14 16h2v2h-2v-2z" fill="rgb(142,53,0)"/>
<path d="M28 16h2v2h2v2h-4v-4z" fill="rgb(48,8,0)"/>
<path d="M40 16h2v2h-2v-2z" fill="rgb(48,8,0)"/>
<path d="M42 16h2v2h-2v-2z" fill="rgb(95,25,0)"/>
<path d="M44 16h2v2h-2v-2z" fill="rgb(48,8,0)"/>
<path d="M46 16h2v4h-2v-4z" fill="rgb(11,0,22)"/>
<path d="M48 16h2v4h-2v-4z" fill="rgb(255,255,255)"/>
<path d="M2 18h4v2h-2v2h2v2h-4v-6z" fill="rgb(48,8,0)"/>
<path d="M6 18h4v2h-2v4h-2v-2h-2v-2h2v-2z" fill="rgb(95,25,0)"/>
<path d="M10 18h2v4h-2v-4z" fill="rgb(48,8,0)"/>
<path d="M20 18h2v4h-2v-4z" fill="rgb(95,25,0)"/>
<path d="M22 18h4v2h-2v2h-2v-4z" fill="rgb(48,8,0)"/>
<path d="M8 20h2v2h-2v-2z" fill="rgb(142,53,0)"/>
<path d="M14 20h2v2h-2v-2z" fill="rgb(142,53,0)"/>
<path d="M24 20h2v8h-2v-4h-4v-2h4v-2z" fill="rgb(19,1,25)"/>
<path d="M26 20h6v6h6v2h-8v-2h-2v-2h-2v-4z" fill="rgb(95,25,0)"/>
<path d="M32 20h4v2h2v2h-4v-2h-2v-2z" fill="rgb(195,96,13)"/>
<path d="M36 20h2v2h-2v-2z" fill="rgb(151,73,8)"/>
<path d="M38 20h2v2h-2v-2z" fill="rgb(142,53,0)"/>
<path d="M42 20h2v2h-2v-2z" fill="rgb(195,96,13)"/>
<path d="M44 20h2v2h-2v-2z" fill="rgb(151,73,8)"/>
<path d="M46 20h2v2h-2v-2z" fill="rgb(95,25,0)"/>
<path d="M48 20h2v10h-2v-10z" fill="rgb(11,0,22)"/>
<path d="M8 22h2v2h-2v-2z" fill="rgb(48,8,0)"/>
<path d="M10 22h2v2h-2v-2z" fill="rgb(19,1,25)"/>
<path d="M12 22h4v2h-4v-2z" fill="rgb(48,8,0)"/>
<path d="M16 22h2v6h-2v-6z" fill="rgb(19,1,25)"/>
<path d="M18 22h2v2h-2v-2z" fill="rgb(48,8,0)"/>
<path d="M32 22h2v4h-2v-4z" fill="rgb(151,73,8)"/>
<path d="M38 22h2v2h-2v-2z" fill="rgb(151,73,8)"/>
<path d="M42 22h2v2h-2v-2z" fill="rgb(151,73,8)"/>
<path d="M44 22h2v2h-2v-2z" fill="rgb(195,96,13)"/>
<path d="M46 22h2v2h-2v-2z" fill="rgb(142,53,0)"/>
<path d="M10 24h6v10h-2v-2h-2v-2h-4v-2h2v-4z" fill="rgb(95,25,0)"/>
<path d="M18 24h2v2h2v2h-2v2h2v2h2v4h-2v-2h-2v-2h-2v-8z" fill="rgb(95,25,0)"/>
<path d="M20 24h4v4h2v2h2v2h-2v4h-2v-4h-2v-2h-2v-2h2v-2h-2v-2z" fill="rgb(48,8,0)"/>
<path d="M26 24h2v2h2v2h-4v-4z" fill="rgb(48,8,0)"/>
<path d="M34 24h2v2h-2v-2z" fill="rgb(142,53,0)"/>
<path d="M36 24h2v2h-2v-2z" fill="rgb(151,73,8)"/>
<path d="M38 24h2v2h-2v-2z" fill="rgb(142,53,0)"/>
<path d="M40 24h2v2h-2v-2z" fill="rgb(95,25,0)"/>
<path d="M42 24h4v2h-4v-2z" fill="rgb(142,53,0)"/>
<path d="M46 24h2v4h-6v-2h4v-2z" fill="rgb(95,25,0)"/>
<path d="M0 26h2v4h2v2h2v2h2v2h8v-2h2v2h2v2h8v2h-28v-14z" fill="rgb(255,255,255)"/>
<path d="M4 26h6v2h-2v2h4v2h2v2h-4v-2h-4v-2h-2v-4z" fill="rgb(48,8,0)"/>
<path d="M38 26h4v2h-4v-2z" fill="rgb(48,8,0)"/>
<path d="M12 28h2v2h-2v-2z" fill="rgb(48,8,0)"/>
<path d="M16 28h2v4h-2v-4z" fill="rgb(48,8,0)"/>
<path d="M26 28h4v2h-4v-2z" fill="rgb(19,1,25)"/>
<path d="M30 28h4v2h-4v-2z" fill="rgb(48,8,0)"/>
<path d="M34 28h6v6h-2v-4h-4v-2z" fill="rgb(19,1,25)"/>
<path d="M40 28h2v2h-2v-2z" fill="rgb(95,25,0)"/>
<path d="M42 28h4v2h-4v-2z" fill="rgb(19,1,25)"/>
<path d="M46 28h2v2h-2v-2z" fill="rgb(48,8,0)"/>
<path d="M4 30h2v2h-2v-2z" fill="rgb(19,1,25)"/>
<path d="M28 30h4v4h2v2h-4v-2h-2v-4z" fill="rgb(95,25,0)"/>
<path d="M32 30h6v4h-2v-2h-4v-2z" fill="rgb(151,73,8)"/>
<path d="M40 30h2v2h-2v-2z" fill="rgb(142,53,0)"/>
<path d="M42 30h2v2h-2v-2z" fill="rgb(151,73,8)"/>
<path d="M44 30h2v2h-2v-2z" fill="rgb(95,25,0)"/>
<path d="M46 30h2v6h-2v-6z" fill="rgb(11,0,22)"/>
<path d="M48 30h2v10h-6v-2h2v-2h2v-6z" fill="rgb(255,255,255)"/>
<path d="M6 32h2v2h-2v-2z" fill="rgb(11,0,22)"/>
<path d="M8 32h2v2h-2v-2z" fill="rgb(95,25,0)"/>
<path d="M16 32h2v2h-2v-2z" fill="rgb(11,0,22)"/>
<path d="M18 32h2v2h-2v-2z" fill="rgb(48,8,0)"/>
<path d="M26 32h2v4h-2v-4z" fill="rgb(19,1,25)"/>
<path d="M32 32h2v2h-2v-2z" fill="rgb(142,53,0)"/>
<path d="M34 32h2v2h-2v-2z" fill="rgb(195,96,13)"/>
<path d="M40 32h2v4h-2v-4z" fill="rgb(95,25,0)"/>
<path d="M42 32h2v4h-2v-4z" fill="rgb(142,53,0)"/>
<path d="M44 32h2v2h-2v-2z" fill="rgb(151,73,8)"/>
<path d="M8 34h8v2h-8v-2z" fill="rgb(11,0,22)"/>
<path d="M18 34h2v2h-2v-2z" fill="rgb(11,0,22)"/>
<path d="M20 34h2v2h-2v-2z" fill="rgb(48,8,0)"/>
<path d="M28 34h2v2h-2v-2z" fill="rgb(48,8,0)"/>
<path d="M34 34h4v2h-4v-2z" fill="rgb(142,53,0)"/>
<path d="M38 34h2v2h-2v-2z" fill="rgb(48,8,0)"/>
<path d="M44 34h2v2h-2v-2z" fill="rgb(95,25,0)"/>
<path d="M20 36h8v2h-8v-2z" fill="rgb(11,0,22)"/>
<path d="M28 36h8v2h-8v-2z" fill="rgb(19,1,25)"/>
<path d="M36 36h2v2h-2v-2z" fill="rgb(48,8,0)"/>
<path d="M38 36h2v2h-2v-2z" fill="rgb(19,1,25)"/>
<path d="M40 36h2v2h-2v-2z" fill="rgb(48,8,0)"/>
<path d="M42 36h2v2h-2v-2z" fill="rgb(95,25,0)"/>
<path d="M44 36h2v2h-2v-2z" fill="rgb(11,0,22)"/>
<path d="M28 38h16v2h-16v-2z" fill="rgb(11,0,22)"/>
</svg>