<?xml version="1.0" encoding="utf-8"?>
<!-- generated at drububu.com  -->
<!DOCTYPE svg PUBLIC "-//W3C//DTD SVG 1.1//EN" "http://www.w3.org/Graphics/SVG/1.1/DTD/svg11.dtd">
<svg version="1.1" preserveAspectRatio="xMinYMin meet" xmlns="http://www.w3.org/2000/svg" xmlns:xlink="http://www.w3.org/1999/xlink" x="0px" y="0px" width="82px" height="102px" viewBox="0 0 82 102">
<path d="M0 0h32v2h-4v2h-4v2h-4v2h-2v2h-2v2h-2v2h-2v2h-2v2h-2v2h-2v2h-2v6h-2v12
	h-2v-40z" fill="rgb(255,255,255)"/>
<path d="M32 0h18v2h-18v-2z" fill="rgb(40,40,40)"/>
<path d="M50 0h32v40h-2v-12h-2v-6h-2v-2h-2v-2h-2v-2h-2v-2h-2v-2h-2v-2h-2v-2h-2
	v-2h-4v-2h-2v-2h-6v-2z" fill="rgb(255,255,255)"/>
<path d="M28 2h4v2h-4v-2z" fill="rgb(40,40,40)"/>
<path d="M32 2h2v2h-2v-2z" fill="rgb(166,167,166)"/>
<path d="M34 2h2v2h-2v-2z" fill="rgb(211,211,211)"/>
<path d="M36 2h8v2h-2v2h-2v4h2v2h2v2h4v2h2v4h-2v2h-2v2h-4v2h-4v-2h-2v-2h-6v-2
	h-2v-2h-4v-4h-2v-2h2v-2h2v-2h4v-2h4v-2h2v-2z" fill="rgb(233,233,233)"/>
<path d="M44 2h2v2h6v2h-8v4h2v2h8v2h2v2h4v-4h4v2h-2v2h2v4h-4v-2h-4v4h2v2h-2v2
	h-2v-2h-2v-2h-4v-2h2v-4h-2v-2h-4v-2h-2v-2h-2v-4h2v-2h2v-2z" fill="rgb(211,211,211)"/>
<path d="M46 2h2v2h-2v-2z" fill="rgb(166,167,166)"/>
<path d="M48 2h2v2h-2v-2z" fill="rgb(86,86,86)"/>
<path d="M50 2h6v2h-6v-2z" fill="rgb(40,40,40)"/>
<path d="M24 4h4v2h-4v-2z" fill="rgb(40,40,40)"/>
<path d="M28 4h2v2h-2v-2z" fill="rgb(211,211,211)"/>
<path d="M30 4h4v2h-4v-2z" fill="rgb(246,246,246)"/>
<path d="M52 4h2v2h-2v-2z" fill="rgb(166,167,166)"/>
<path d="M54 4h2v2h-2v-2z" fill="rgb(124,124,124)"/>
<path d="M56 4h2v2h-2v-2z" fill="rgb(40,40,40)"/>
<path d="M20 6h4v2h-4v-2z" fill="rgb(40,40,40)"/>
<path d="M24 6h2v2h-2v-2z" fill="rgb(211,211,211)"/>
<path d="M26 6h4v2h-4v-2z" fill="rgb(246,246,246)"/>
<path d="M44 6h8v2h2v2h2v2h4v4h-4v-2h-2v-2h-8v-2h-2v-4z" fill="rgb(166,167,166)"/>
<path d="M52 6h4v2h2v2h2v2h-4v-2h-2v-2h-2v-2z" fill="rgb(211,211,211)"/>
<path d="M56 6h2v2h-2v-2z" fill="rgb(124,124,124)"/>
<path d="M58 6h4v2h-4v-2z" fill="rgb(40,40,40)"/>
<path d="M18 8h2v2h-2v-2z" fill="rgb(40,40,40)"/>
<path d="M20 8h2v2h-2v-2z" fill="rgb(211,211,211)"/>
<path d="M22 8h4v2h-2v2h-4v-2h2v-2z" fill="rgb(246,246,246)"/>
<path d="M58 8h2v2h-2v-2z" fill="rgb(166,167,166)"/>
<path d="M60 8h2v2h2v2h-4v-4z" fill="rgb(124,124,124)"/>
<path d="M62 8h2v2h-2v-2z" fill="rgb(40,40,40)"/>
<path d="M16 10h2v2h-2v-2z" fill="rgb(40,40,40)"/>
<path d="M18 10h2v2h-2v-2z" fill="rgb(211,211,211)"/>
<path d="M30 10h6v2h2v2h-2v2h-10v-4h4v-2z" fill="rgb(246,246,246)"/>
<path d="M64 10h2v2h-2v-2z" fill="rgb(40,40,40)"/>
<path d="M14 12h2v2h-2v-2z" fill="rgb(40,40,40)"/>
<path d="M16 12h2v2h-2v-2z" fill="rgb(246,246,246)"/>
<path d="M18 12h2v2h-2v-2z" fill="rgb(166,167,166)"/>
<path d="M20 12h2v2h-2v-2z" fill="rgb(211,211,211)"/>
<path d="M64 12h2v2h-2v-2z" fill="rgb(166,167,166)"/>
<path d="M66 12h2v2h-2v-2z" fill="rgb(40,40,40)"/>
<path d="M12 14h2v2h-2v-2z" fill="rgb(40,40,40)"/>
<path d="M14 14h2v4h-2v-4z" fill="rgb(211,211,211)"/>
<path d="M16 14h2v2h-2v-2z" fill="rgb(166,167,166)"/>
<path d="M18 14h2v2h-2v-2z" fill="rgb(211,211,211)"/>
<path d="M20 14h2v2h-2v-2z" fill="rgb(124,124,124)"/>
<path d="M22 14h2v2h-2v-2z" fill="rgb(166,167,166)"/>
<path d="M62 14h2v2h-2v-2z" fill="rgb(166,167,166)"/>
<path d="M64 14h2v2h-2v-2z" fill="rgb(211,211,211)"/>
<path d="M66 14h2v2h-2v-2z" fill="rgb(86,86,86)"/>
<path d="M68 14h2v2h-2v-2z" fill="rgb(40,40,40)"/>
<path d="M10 16h2v2h-2v-2z" fill="rgb(40,40,40)"/>
<path d="M12 16h2v2h-2v-2z" fill="rgb(124,124,124)"/>
<path d="M16 16h2v2h-2v-2z" fill="rgb(233,233,233)"/>
<path d="M18 16h2v2h-2v-2z" fill="rgb(124,124,124)"/>
<path d="M20 16h2v2h-2v-2z" fill="rgb(166,167,166)"/>
<path d="M22 16h2v2h-2v-2z" fill="rgb(211,211,211)"/>
<path d="M64 16h2v2h-2v-2z" fill="rgb(86,86,86)"/>
<path d="M66 16h2v2h-2v-2z" fill="rgb(166,167,166)"/>
<path d="M68 16h2v2h-2v-2z" fill="rgb(124,124,124)"/>
<path d="M70 16h2v2h-2v-2z" fill="rgb(40,40,40)"/>
<path d="M8 18h2v2h-2v-2z" fill="rgb(40,40,40)"/>
<path d="M10 18h2v2h2v2h2v2h-2v2h-2v6h-2v-8h-2v-4h2v-2z" fill="rgb(166,167,166)"/>
<path d="M12 18h2v2h-2v-2z" fill="rgb(211,211,211)"/>
<path d="M14 18h2v2h-2v-2z" fill="rgb(124,124,124)"/>
<path d="M16 18h2v2h-2v-2z" fill="rgb(211,211,211)"/>
<path d="M18 18h2v2h-2v-2z" fill="rgb(166,167,166)"/>
<path d="M20 18h2v2h-2v-2z" fill="rgb(211,211,211)"/>
<path d="M22 18h2v2h-2v-2z" fill="rgb(246,246,246)"/>
<path d="M24 18h2v2h-2v-2z" fill="rgb(166,167,166)"/>
<path d="M26 18h2v2h-2v-2z" fill="rgb(211,211,211)"/>
<path d="M56 18h2v2h-2v-2z" fill="rgb(246,246,246)"/>
<path d="M58 18h2v2h-2v-2z" fill="rgb(166,167,166)"/>
<path d="M64 18h2v2h-2v-2z" fill="rgb(166,167,166)"/>
<path d="M66 18h2v2h-2v-2z" fill="rgb(124,124,124)"/>
<path d="M68 18h2v2h-2v-2z" fill="rgb(211,211,211)"/>
<path d="M70 18h2v2h2v4h-2v-2h-2v2h2v8h-2v-6h-2v-2h-2v-2h2v-2h2v-2z" fill="rgb(166,167,166)"/>
<path d="M72 18h2v2h-2v-2z" fill="rgb(40,40,40)"/>
<path d="M6 20h2v2h-2v-2z" fill="rgb(40,40,40)"/>
<path d="M14 20h2v2h-2v-2z" fill="rgb(211,211,211)"/>
<path d="M16 20h2v2h-2v-2z" fill="rgb(124,124,124)"/>
<path d="M18 20h2v2h-2v-2z" fill="rgb(211,211,211)"/>
<path d="M20 20h2v2h-2v-2z" fill="rgb(246,246,246)"/>
<path d="M22 20h2v2h-2v-2z" fill="rgb(166,167,166)"/>
<path d="M24 20h2v2h-2v-2z" fill="rgb(211,211,211)"/>
<path d="M26 20h2v2h-2v-2z" fill="rgb(124,124,124)"/>
<path d="M28 20h2v6h-2v-6z" fill="rgb(211,211,211)"/>
<path d="M56 20h2v2h-2v-2z" fill="rgb(166,167,166)"/>
<path d="M58 20h2v2h-2v-2z" fill="rgb(211,211,211)"/>
<path d="M60 20h2v2h-2v-2z" fill="rgb(124,124,124)"/>
<path d="M62 20h2v2h-2v-2z" fill="rgb(166,167,166)"/>
<path d="M64 20h2v2h-2v-2z" fill="rgb(124,124,124)"/>
<path d="M66 20h2v2h-2v-2z" fill="rgb(211,211,211)"/>
<path d="M74 20h2v2h-2v-2z" fill="rgb(40,40,40)"/>
<path d="M4 22h2v6h-2v-6z" fill="rgb(40,40,40)"/>
<path d="M6 22h2v6h-2v-6z" fill="rgb(211,211,211)"/>
<path d="M10 22h2v2h-2v-2z" fill="rgb(124,124,124)"/>
<path d="M16 22h2v2h-2v-2z" fill="rgb(211,211,211)"/>
<path d="M18 22h2v2h-2v-2z" fill="rgb(124,124,124)"/>
<path d="M20 22h2v2h-2v-2z" fill="rgb(211,211,211)"/>
<path d="M22 22h2v2h-2v-2z" fill="rgb(233,233,233)"/>
<path d="M24 22h2v2h-2v-2z" fill="rgb(124,124,124)"/>
<path d="M26 22h2v4h-4v-2h2v-2z" fill="rgb(166,167,166)"/>
<path d="M30 22h2v2h-2v-2z" fill="rgb(246,246,246)"/>
<path d="M32 22h2v2h-2v-2z" fill="rgb(166,167,166)"/>
<path d="M34 22h2v2h-2v-2z" fill="rgb(211,211,211)"/>
<path d="M46 22h2v4h-2v6h-2v-2h-6v-4h4v-2h4v-2z" fill="rgb(211,211,211)"/>
<path d="M48 22h2v2h-2v-2z" fill="rgb(246,246,246)"/>
<path d="M50 22h2v2h-2v-2z" fill="rgb(166,167,166)"/>
<path d="M58 22h2v2h2v2h-4v-4z" fill="rgb(124,124,124)"/>
<path d="M60 22h2v2h-2v-2z" fill="rgb(166,167,166)"/>
<path d="M62 22h2v2h-2v-2z" fill="rgb(124,124,124)"/>
<path d="M64 22h2v2h-2v-2z" fill="rgb(211,211,211)"/>
<path d="M70 22h2v2h-2v-2z" fill="rgb(124,124,124)"/>
<path d="M74 22h2v6h-2v-6z" fill="rgb(211,211,211)"/>
<path d="M76 22h2v6h-2v-6z" fill="rgb(40,40,40)"/>
<path d="M8 24h2v8h-2v4h-2v-6h2v-6z" fill="rgb(124,124,124)"/>
<path d="M14 24h2v2h2v2h4v2h-8v4h-2v-6h2v-4z" fill="rgb(40,40,40)"/>
<path d="M16 24h2v2h-2v-2z" fill="rgb(166,167,166)"/>
<path d="M18 24h2v2h-2v-2z" fill="rgb(211,211,211)"/>
<path d="M20 24h4v2h-4v-2z" fill="rgb(124,124,124)"/>
<path d="M30 24h2v2h-2v-2z" fill="rgb(166,167,166)"/>
<path d="M32 24h2v2h-2v-2z" fill="rgb(211,211,211)"/>
<path d="M34 24h2v2h-2v-2z" fill="rgb(124,124,124)"/>
<path d="M36 24h2v6h-2v2h-2v-2h-2v-2h2v-2h2v-2z" fill="rgb(166,167,166)"/>
<path d="M48 24h2v6h-2v2h-2v-6h2v-2z" fill="rgb(166,167,166)"/>
<path d="M50 24h2v2h-2v-2z" fill="rgb(211,211,211)"/>
<path d="M52 24h2v2h-2v-2z" fill="rgb(124,124,124)"/>
<path d="M56 24h2v2h-2v-2z" fill="rgb(166,167,166)"/>
<path d="M62 24h2v2h-2v-2z" fill="rgb(211,211,211)"/>
<path d="M64 24h2v2h-2v-2z" fill="rgb(166,167,166)"/>
<path d="M66 24h2v4h2v6h-2v-4h-4v-4h2v-2z" fill="rgb(40,40,40)"/>
<path d="M72 24h2v6h2v6h-2v-4h-2v-8z" fill="rgb(124,124,124)"/>
<path d="M12 26h2v2h-2v-2z" fill="rgb(211,211,211)"/>
<path d="M18 26h2v2h-2v-2z" fill="rgb(124,124,124)"/>
<path d="M20 26h2v2h-2v-2z" fill="rgb(211,211,211)"/>
<path d="M22 26h2v2h-2v-2z" fill="rgb(246,246,246)"/>
<path d="M24 26h4v2h-4v-2z" fill="rgb(124,124,124)"/>
<path d="M28 26h2v2h-2v-2z" fill="rgb(166,167,166)"/>
<path d="M30 26h2v2h-2v-2z" fill="rgb(211,211,211)"/>
<path d="M32 26h2v2h-2v-2z" fill="rgb(124,124,124)"/>
<path d="M50 26h2v2h-2v-2z" fill="rgb(124,124,124)"/>
<path d="M52 26h2v2h-2v-2z" fill="rgb(166,167,166)"/>
<path d="M54 26h4v2h-4v-2z" fill="rgb(124,124,124)"/>
<path d="M58 26h2v2h-2v-2z" fill="rgb(246,246,246)"/>
<path d="M60 26h2v2h-2v-2z" fill="rgb(211,211,211)"/>
<path d="M62 26h2v2h-2v-2z" fill="rgb(124,124,124)"/>
<path d="M68 26h2v2h-2v-2z" fill="rgb(211,211,211)"/>
<path d="M2 28h2v12h-2v-12z" fill="rgb(40,40,40)"/>
<path d="M4 28h2v10h-2v-10z" fill="rgb(211,211,211)"/>
<path d="M6 28h2v2h-2v-2z" fill="rgb(166,167,166)"/>
<path d="M22 28h2v2h-2v-2z" fill="rgb(124,124,124)"/>
<path d="M24 28h4v2h-4v-2z" fill="rgb(246,246,246)"/>
<path d="M28 28h2v2h-2v-2z" fill="rgb(124,124,124)"/>
<path d="M30 28h2v2h-2v-2z" fill="rgb(86,86,86)"/>
<path d="M50 28h2v2h-2v-2z" fill="rgb(86,86,86)"/>
<path d="M52 28h2v2h-2v-2z" fill="rgb(124,124,124)"/>
<path d="M54 28h4v2h-4v-2z" fill="rgb(246,246,246)"/>
<path d="M58 28h2v2h-2v-2z" fill="rgb(124,124,124)"/>
<path d="M60 28h2v2h-2v-2z" fill="rgb(40,40,40)"/>
<path d="M62 28h2v2h-2v-2z" fill="rgb(28,27,27)"/>
<path d="M74 28h2v2h-2v-2z" fill="rgb(166,167,166)"/>
<path d="M76 28h2v10h-2v-10z" fill="rgb(211,211,211)"/>
<path d="M78 28h2v12h-2v-12z" fill="rgb(40,40,40)"/>
<path d="M14 30h6v2h-2v2h-2v2h-2v2h-2v-4h2v-4z" fill="rgb(17,17,17)"/>
<path d="M20 30h2v2h-2v-2z" fill="rgb(28,17,17)"/>
<path d="M22 30h4v2h-4v-2z" fill="rgb(51,40,40)"/>
<path d="M26 30h2v2h-2v-2z" fill="rgb(124,124,124)"/>
<path d="M28 30h2v2h-2v-2z" fill="rgb(246,246,246)"/>
<path d="M30 30h2v2h-2v-2z" fill="rgb(211,211,211)"/>
<path d="M32 30h2v2h-2v-2z" fill="rgb(86,86,86)"/>
<path d="M36 30h2v2h-2v-2z" fill="rgb(211,211,211)"/>
<path d="M38 30h6v2h-6v-2z" fill="rgb(166,167,166)"/>
<path d="M48 30h2v2h-2v-2z" fill="rgb(86,86,86)"/>
<path d="M50 30h2v2h-2v-2z" fill="rgb(211,211,211)"/>
<path d="M52 30h2v2h-2v-2z" fill="rgb(246,246,246)"/>
<path d="M54 30h2v2h-2v-2z" fill="rgb(124,124,124)"/>
<path d="M56 30h4v2h-4v-2z" fill="rgb(51,40,40)"/>
<path d="M60 30h2v2h-2v-2z" fill="rgb(28,17,17)"/>
<path d="M62 30h6v4h2v4h-2v-2h-2v-2h-2v-2h-2v-2z" fill="rgb(17,17,17)"/>
<path d="M8 32h2v2h-2v-2z" fill="rgb(166,167,166)"/>
<path d="M10 32h2v2h-2v-2z" fill="rgb(211,211,211)"/>
<path d="M18 32h2v2h-2v-2z" fill="rgb(44,17,17)"/>
<path d="M20 32h2v2h-2v-2z" fill="rgb(73,17,17)"/>
<path d="M22 32h2v2h-2v-2z" fill="rgb(83,17,17)"/>
<path d="M24 32h2v2h-2v-2z" fill="rgb(73,17,17)"/>
<path d="M26 32h2v2h-2v-2z" fill="rgb(62,40,40)"/>
<path d="M28 32h4v2h2v2h2v2h-4v-2h-2v-2h-2v-2z" fill="rgb(124,124,124)"/>
<path d="M32 32h2v2h-2v-2z" fill="rgb(211,211,211)"/>
<path d="M34 32h2v2h-2v-2z" fill="rgb(86,86,86)"/>
<path d="M36 32h2v2h-2v-2z" fill="rgb(166,167,166)"/>
<path d="M38 32h6v2h-2v2h-2v-2h-2v-2z" fill="rgb(211,211,211)"/>
<path d="M44 32h2v2h-2v-2z" fill="rgb(166,167,166)"/>
<path d="M46 32h2v2h-2v-2z" fill="rgb(86,86,86)"/>
<path d="M48 32h2v2h-2v-2z" fill="rgb(211,211,211)"/>
<path d="M50 32h4v2h-4v-2z" fill="rgb(124,124,124)"/>
<path d="M54 32h2v2h-2v-2z" fill="rgb(62,40,40)"/>
<path d="M56 32h2v2h-2v-2z" fill="rgb(73,17,17)"/>
<path d="M58 32h2v2h-2v-2z" fill="rgb(83,17,17)"/>
<path d="M60 32h2v2h-2v-2z" fill="rgb(73,17,17)"/>
<path d="M62 32h2v2h-2v-2z" fill="rgb(44,17,17)"/>
<path d="M70 32h2v2h-2v-2z" fill="rgb(211,211,211)"/>
<path d="M72 32h2v2h-2v-2z" fill="rgb(166,167,166)"/>
<path d="M8 34h2v6h-2v2h2v4h-2v-2h-2v-2h-2v-2h2v-2h2v-4z" fill="rgb(211,211,211)"/>
<path d="M10 34h2v8h-2v-8z" fill="rgb(40,40,40)"/>
<path d="M16 34h2v2h-2v-2z" fill="rgb(48,17,17)"/>
<path d="M18 34h2v2h-2v-2z" fill="rgb(76,17,17)"/>
<path d="M20 34h2v2h-2v-2z" fill="rgb(134,0,0)"/>
<path d="M22 34h2v2h-2v-2z" fill="rgb(120,0,0)"/>
<path d="M24 34h2v2h-2v-2z" fill="rgb(130,0,0)"/>
<path d="M26 34h2v2h-2v-2z" fill="rgb(62,17,17)"/>
<path d="M28 34h2v2h-2v-2z" fill="rgb(62,40,40)"/>
<path d="M34 34h2v2h-2v-2z" fill="rgb(211,211,211)"/>
<path d="M36 34h2v2h-2v-2z" fill="rgb(86,86,86)"/>
<path d="M38 34h2v2h-2v-2z" fill="rgb(124,124,124)"/>
<path d="M42 34h2v2h-2v-2z" fill="rgb(166,167,166)"/>
<path d="M44 34h2v2h-2v-2z" fill="rgb(86,86,86)"/>
<path d="M46 34h2v2h-2v-2z" fill="rgb(211,211,211)"/>
<path d="M48 34h2v2h-2v-2z" fill="rgb(124,124,124)"/>
<path d="M50 34h2v2h-2v-2z" fill="rgb(130,124,124)"/>
<path d="M52 34h2v2h-2v-2z" fill="rgb(62,40,40)"/>
<path d="M54 34h2v2h-2v-2z" fill="rgb(62,17,17)"/>
<path d="M56 34h2v2h-2v-2z" fill="rgb(130,0,0)"/>
<path d="M58 34h2v2h-2v-2z" fill="rgb(120,0,0)"/>
<path d="M60 34h2v2h-2v-2z" fill="rgb(134,0,0)"/>
<path d="M62 34h2v2h-2v-2z" fill="rgb(76,17,17)"/>
<path d="M64 34h2v2h-2v-2z" fill="rgb(48,17,17)"/>
<path d="M70 34h2v8h-2v-8z" fill="rgb(40,40,40)"/>
<path d="M72 34h2v4h2v2h2v2h-2v4h-2v4h-2v2h-2v4h-4v-2h-10v-2h8v-2h4v-2h2v-2h2
	v-4h2v-2h-2v-6z" fill="rgb(211,211,211)"/>
<path d="M6 36h2v2h-2v-2z" fill="rgb(166,167,166)"/>
<path d="M14 36h2v2h-2v-2z" fill="rgb(48,17,17)"/>
<path d="M16 36h2v2h-2v-2z" fill="rgb(76,17,17)"/>
<path d="M18 36h2v2h-2v-2z" fill="rgb(137,0,0)"/>
<path d="M20 36h6v2h-6v-2z" fill="rgb(255,131,131)"/>
<path d="M26 36h2v2h-2v-2z" fill="rgb(130,0,0)"/>
<path d="M28 36h2v2h-2v-2z" fill="rgb(62,17,17)"/>
<path d="M30 36h2v2h-2v-2z" fill="rgb(62,40,40)"/>
<path d="M36 36h2v2h2v-2h2v2h2v-2h2v4h-4v4h-2v-4h-6v-2h2v-2z" fill="rgb(166,167,166)"/>
<path d="M38 36h2v2h-2v-2z" fill="rgb(86,86,86)"/>
<path d="M42 36h2v2h-2v-2z" fill="rgb(86,86,86)"/>
<path d="M46 36h2v4h-2v-4z" fill="rgb(124,124,124)"/>
<path d="M48 36h2v2h-2v-2z" fill="rgb(130,124,124)"/>
<path d="M50 36h2v2h-2v-2z" fill="rgb(87,40,40)"/>
<path d="M52 36h2v2h-2v-2z" fill="rgb(68,17,17)"/>
<path d="M54 36h2v2h-2v-2z" fill="rgb(130,0,0)"/>
<path d="M56 36h6v2h-6v-2z" fill="rgb(255,131,131)"/>
<path d="M62 36h2v2h-2v-2z" fill="rgb(137,0,0)"/>
<path d="M64 36h2v2h-2v-2z" fill="rgb(76,17,17)"/>
<path d="M66 36h2v2h-2v-2z" fill="rgb(48,17,17)"/>
<path d="M74 36h2v2h-2v-2z" fill="rgb(166,167,166)"/>
<path d="M4 38h2v2h-2v-2z" fill="rgb(166,167,166)"/>
<path d="M12 38h2v4h-2v-4z" fill="rgb(32,17,17)"/>
<path d="M14 38h2v2h-2v-2z" fill="rgb(90,17,17)"/>
<path d="M16 38h2v2h-2v-2z" fill="rgb(137,0,0)"/>
<path d="M18 38h2v6h-2v-6z" fill="rgb(255,131,131)"/>
<path d="M20 38h6v6h-6v-6z" fill="rgb(255,239,239)"/>
<path d="M26 38h2v6h-2v-6z" fill="rgb(255,131,131)"/>
<path d="M28 38h2v2h-2v-2z" fill="rgb(130,0,0)"/>
<path d="M30 38h2v2h-2v-2z" fill="rgb(77,17,17)"/>
<path d="M32 38h2v2h-2v-2z" fill="rgb(51,40,40)"/>
<path d="M48 38h2v2h-2v-2z" fill="rgb(51,40,40)"/>
<path d="M50 38h2v2h-2v-2z" fill="rgb(82,17,17)"/>
<path d="M52 38h2v2h-2v-2z" fill="rgb(130,0,0)"/>
<path d="M54 38h2v6h-2v-6z" fill="rgb(255,131,131)"/>
<path d="M56 38h6v6h-6v-6z" fill="rgb(255,239,239)"/>
<path d="M62 38h2v6h-2v-6z" fill="rgb(255,131,131)"/>
<path d="M64 38h2v2h-2v-2z" fill="rgb(137,0,0)"/>
<path d="M66 38h2v2h-2v-2z" fill="rgb(90,17,17)"/>
<path d="M68 38h2v4h-2v-4z" fill="rgb(32,17,17)"/>
<path d="M76 38h2v2h-2v-2z" fill="rgb(166,167,166)"/>
<path d="M0 40h2v14h-2v-14z" fill="rgb(40,40,40)"/>
<path d="M2 40h2v2h-2v-2z" fill="rgb(166,167,166)"/>
<path d="M8 40h2v2h-2v-2z" fill="rgb(233,233,233)"/>
<path d="M14 40h2v2h-2v-2z" fill="rgb(103,17,17)"/>
<path d="M16 40h2v2h-2v-2z" fill="rgb(123,0,0)"/>
<path d="M28 40h2v2h-2v-2z" fill="rgb(123,0,0)"/>
<path d="M30 40h2v2h-2v-2z" fill="rgb(100,17,17)"/>
<path d="M32 40h2v4h-2v-4z" fill="rgb(32,17,17)"/>
<path d="M34 40h2v4h-2v-4z" fill="rgb(40,40,40)"/>
<path d="M36 40h2v2h2v2h-2v2h-2v-6z" fill="rgb(211,211,211)"/>
<path d="M38 40h2v2h-2v-2z" fill="rgb(233,233,233)"/>
<path d="M42 40h4v4h2v4h-2v-2h-2v-2h-2v-4z" fill="rgb(211,211,211)"/>
<path d="M46 40h2v4h-2v-4z" fill="rgb(40,40,40)"/>
<path d="M48 40h2v4h-2v-4z" fill="rgb(32,17,17)"/>
<path d="M50 40h2v2h-2v-2z" fill="rgb(100,17,17)"/>
<path d="M52 40h2v2h-2v-2z" fill="rgb(123,0,0)"/>
<path d="M64 40h2v2h-2v-2z" fill="rgb(123,0,0)"/>
<path d="M66 40h2v2h-2v-2z" fill="rgb(103,17,17)"/>
<path d="M72 40h2v2h-2v-2z" fill="rgb(233,233,233)"/>
<path d="M78 40h2v2h-2v-2z" fill="rgb(166,167,166)"/>
<path d="M80 40h2v14h-2v-14z" fill="rgb(40,40,40)"/>
<path d="M2 42h2v8h-2v-8z" fill="rgb(211,211,211)"/>
<path d="M4 42h2v2h2v2h2v2h2v6h-2v-4h-2v-2h-2v6h-2v-12z" fill="rgb(233,233,233)"/>
<path d="M10 42h2v4h-2v-4z" fill="rgb(233,233,233)"/>
<path d="M12 42h2v2h-2v-2z" fill="rgb(54,40,40)"/>
<path d="M14 42h2v2h-2v-2z" fill="rgb(90,17,17)"/>
<path d="M16 42h2v2h-2v-2z" fill="rgb(137,0,0)"/>
<path d="M28 42h2v2h-2v-2z" fill="rgb(137,0,0)"/>
<path d="M30 42h2v2h-2v-2z" fill="rgb(90,17,17)"/>
<path d="M50 42h2v2h-2v-2z" fill="rgb(90,17,17)"/>
<path d="M52 42h2v2h-2v-2z" fill="rgb(137,0,0)"/>
<path d="M64 42h2v2h-2v-2z" fill="rgb(137,0,0)"/>
<path d="M66 42h2v2h-2v-2z" fill="rgb(90,17,17)"/>
<path d="M68 42h2v2h-2v-2z" fill="rgb(54,40,40)"/>
<path d="M70 42h2v4h-2v-4z" fill="rgb(246,246,246)"/>
<path d="M76 42h2v4h-2v-4z" fill="rgb(233,233,233)"/>
<path d="M78 42h2v8h-2v-8z" fill="rgb(211,211,211)"/>
<path d="M12 44h2v2h-2v-2z" fill="rgb(40,40,40)"/>
<path d="M14 44h2v2h-2v-2z" fill="rgb(48,17,17)"/>
<path d="M16 44h2v2h-2v-2z" fill="rgb(76,17,17)"/>
<path d="M18 44h2v2h-2v-2z" fill="rgb(137,0,0)"/>
<path d="M20 44h6v2h-6v-2z" fill="rgb(255,131,131)"/>
<path d="M26 44h2v2h-2v-2z" fill="rgb(137,0,0)"/>
<path d="M28 44h2v2h-2v-2z" fill="rgb(76,17,17)"/>
<path d="M30 44h2v2h-2v-2z" fill="rgb(48,17,17)"/>
<path d="M32 44h2v2h-2v-2z" fill="rgb(40,40,40)"/>
<path d="M34 44h2v2h-2v-2z" fill="rgb(183,179,178)"/>
<path d="M38 44h2v4h-2v-4z" fill="rgb(166,167,166)"/>
<path d="M40 44h2v2h-2v-2z" fill="rgb(124,124,124)"/>
<path d="M42 44h2v4h-2v-4z" fill="rgb(166,167,166)"/>
<path d="M48 44h2v2h-2v-2z" fill="rgb(40,40,40)"/>
<path d="M50 44h2v2h-2v-2z" fill="rgb(48,17,17)"/>
<path d="M52 44h2v2h-2v-2z" fill="rgb(76,17,17)"/>
<path d="M54 44h2v2h-2v-2z" fill="rgb(137,0,0)"/>
<path d="M56 44h6v2h-6v-2z" fill="rgb(255,131,131)"/>
<path d="M62 44h2v2h-2v-2z" fill="rgb(137,0,0)"/>
<path d="M64 44h2v2h-2v-2z" fill="rgb(76,17,17)"/>
<path d="M66 44h2v2h-2v-2z" fill="rgb(48,17,17)"/>
<path d="M68 44h2v2h-2v-2z" fill="rgb(40,40,40)"/>
<path d="M10 46h2v2h-2v-2z" fill="rgb(211,211,211)"/>
<path d="M12 46h2v2h-2v-2z" fill="rgb(233,233,233)"/>
<path d="M14 46h2v2h-2v-2z" fill="rgb(40,40,40)"/>
<path d="M16 46h2v2h-2v-2z" fill="rgb(69,40,40)"/>
<path d="M18 46h2v2h-2v-2z" fill="rgb(76,17,17)"/>
<path d="M20 46h2v2h-2v-2z" fill="rgb(137,0,0)"/>
<path d="M22 46h2v2h-2v-2z" fill="rgb(123,0,0)"/>
<path d="M24 46h2v2h-2v-2z" fill="rgb(137,0,0)"/>
<path d="M26 46h2v2h-2v-2z" fill="rgb(76,17,17)"/>
<path d="M28 46h2v2h-2v-2z" fill="rgb(48,17,17)"/>
<path d="M30 46h2v2h-2v-2z" fill="rgb(40,40,40)"/>
<path d="M32 46h2v2h-2v-2z" fill="rgb(166,167,166)"/>
<path d="M34 46h2v2h-2v-2z" fill="rgb(211,211,211)"/>
<path d="M36 46h2v2h-2v-2z" fill="rgb(124,124,124)"/>
<path d="M40 46h2v2h-2v-2z" fill="rgb(62,62,62)"/>
<path d="M44 46h2v2h-2v-2z" fill="rgb(124,124,124)"/>
<path d="M48 46h2v2h-2v-2z" fill="rgb(124,124,124)"/>
<path d="M50 46h2v2h-2v-2z" fill="rgb(40,40,40)"/>
<path d="M52 46h2v2h-2v-2z" fill="rgb(48,17,17)"/>
<path d="M54 46h2v2h-2v-2z" fill="rgb(76,17,17)"/>
<path d="M56 46h2v2h-2v-2z" fill="rgb(137,0,0)"/>
<path d="M58 46h2v2h-2v-2z" fill="rgb(123,0,0)"/>
<path d="M60 46h2v2h-2v-2z" fill="rgb(137,0,0)"/>
<path d="M62 46h2v2h-2v-2z" fill="rgb(76,17,17)"/>
<path d="M64 46h2v2h-2v-2z" fill="rgb(69,40,40)"/>
<path d="M66 46h2v2h-2v-2z" fill="rgb(40,40,40)"/>
<path d="M68 46h2v2h-2v-2z" fill="rgb(246,246,246)"/>
<path d="M74 46h2v4h-2v-4z" fill="rgb(233,233,233)"/>
<path d="M76 46h2v6h-2v2h-2v2h-2v-4h2v-2h2v-4z" fill="rgb(246,246,246)"/>
<path d="M6 48h2v2h2v6h-4v-8z" fill="rgb(246,246,246)"/>
<path d="M12 48h2v2h4v2h2v2h-4v2h-4v2h-2v-4h2v-6z" fill="rgb(211,211,211)"/>
<path d="M14 48h2v2h-2v-2z" fill="rgb(233,233,233)"/>
<path d="M16 48h2v2h-2v-2z" fill="rgb(246,246,246)"/>
<path d="M18 48h2v2h-2v-2z" fill="rgb(69,40,40)"/>
<path d="M20 48h2v2h-2v-2z" fill="rgb(110,40,40)"/>
<path d="M22 48h2v2h-2v-2z" fill="rgb(124,40,40)"/>
<path d="M24 48h2v2h-2v-2z" fill="rgb(110,40,40)"/>
<path d="M26 48h2v2h-2v-2z" fill="rgb(69,40,40)"/>
<path d="M28 48h2v2h-2v-2z" fill="rgb(40,40,40)"/>
<path d="M30 48h4v2h-4v-2z" fill="rgb(211,211,211)"/>
<path d="M34 48h2v4h-4v-2h2v-2z" fill="rgb(124,124,124)"/>
<path d="M36 48h2v6h-2v-6z" fill="rgb(166,167,166)"/>
<path d="M38 48h2v6h-2v-6z" fill="rgb(62,62,62)"/>
<path d="M40 48h2v2h-2v-2z" fill="rgb(17,17,17)"/>
<path d="M42 48h2v6h-2v-6z" fill="rgb(62,62,62)"/>
<path d="M44 48h2v6h-2v-6z" fill="rgb(166,167,166)"/>
<path d="M46 48h2v2h2v2h-4v-4z" fill="rgb(124,124,124)"/>
<path d="M48 48h2v2h-2v-2z" fill="rgb(211,211,211)"/>
<path d="M50 48h2v2h-2v-2z" fill="rgb(233,233,233)"/>
<path d="M52 48h2v2h-2v-2z" fill="rgb(40,40,40)"/>
<path d="M54 48h2v2h-2v-2z" fill="rgb(69,40,40)"/>
<path d="M56 48h2v2h-2v-2z" fill="rgb(110,40,40)"/>
<path d="M58 48h2v2h-2v-2z" fill="rgb(124,40,40)"/>
<path d="M60 48h2v2h-2v-2z" fill="rgb(110,40,40)"/>
<path d="M62 48h2v2h-2v-2z" fill="rgb(69,40,40)"/>
<path d="M64 48h4v2h-4v-2z" fill="rgb(246,246,246)"/>
<path d="M2 50h2v4h-2v-4z" fill="rgb(166,167,166)"/>
<path d="M18 50h2v2h-2v-2z" fill="rgb(246,246,246)"/>
<path d="M20 50h6v2h-6v-2z" fill="rgb(247,246,246)"/>
<path d="M26 50h2v2h-2v-2z" fill="rgb(233,233,233)"/>
<path d="M28 50h2v4h2v2h2v2h-4v2h-4v-4h-2v-2h2v-2h2v-2z" fill="rgb(211,211,211)"/>
<path d="M30 50h2v2h2v4h-2v-2h-2v-4z" fill="rgb(166,167,166)"/>
<path d="M40 50h2v8h-2v-8z" fill="rgb(40,40,40)"/>
<path d="M50 50h2v2h-2v-2z" fill="rgb(211,211,211)"/>
<path d="M52 50h4v2h-4v-2z" fill="rgb(233,233,233)"/>
<path d="M56 50h6v2h-6v-2z" fill="rgb(247,246,246)"/>
<path d="M62 50h2v2h-2v-2z" fill="rgb(246,246,246)"/>
<path d="M72 50h2v2h-2v-2z" fill="rgb(233,233,233)"/>
<path d="M78 50h2v4h-2v-4z" fill="rgb(166,167,166)"/>
<path d="M20 52h6v2h-6v-2z" fill="rgb(233,233,233)"/>
<path d="M34 52h2v4h-2v-4z" fill="rgb(211,211,211)"/>
<path d="M46 52h2v4h-2v-4z" fill="rgb(211,211,211)"/>
<path d="M48 52h8v2h10v2h-2v2h-2v-2h-4v2h-2v2h-2v-2h-2v-2h-4v-4z" fill="rgb(166,167,166)"/>
<path d="M70 52h2v4h-2v-4z" fill="rgb(233,233,233)"/>
<path d="M76 52h2v6h-2v2h-4v-2h2v-2h2v-4z" fill="rgb(211,211,211)"/>
<path d="M0 54h2v6h2v2h4v2h2v2h2v4h2v10h2v4h2v8h2v2h2v2h4v2h4v2h4v2h-34v-48z" fill="rgb(255,255,255)"/>
<path d="M2 54h2v6h-2v-6z" fill="rgb(40,40,40)"/>
<path d="M4 54h2v4h-2v-4z" fill="rgb(211,211,211)"/>
<path d="M16 54h8v2h2v4h-4v-4h-6v-2z" fill="rgb(166,167,166)"/>
<path d="M36 54h2v2h-2v-2z" fill="rgb(62,62,62)"/>
<path d="M38 54h2v10h-2v-4h-2v-4h2v-2z" fill="rgb(17,17,17)"/>
<path d="M42 54h2v2h2v4h-2v4h-2v-10z" fill="rgb(17,17,17)"/>
<path d="M44 54h2v2h-2v-2z" fill="rgb(62,62,62)"/>
<path d="M74 54h2v2h-2v-2z" fill="rgb(233,233,233)"/>
<path d="M78 54h2v6h-2v-6z" fill="rgb(40,40,40)"/>
<path d="M80 54h2v48h-34v-2h4v-2h4v-2h4v-2h2v-2h2v-8h2v-4h2v-10h2v-4h2v-2h4v-2
	h2v-2h2v-6z" fill="rgb(255,255,255)"/>
<path d="M6 56h4v2h-4v-2z" fill="rgb(233,233,233)"/>
<path d="M12 56h2v2h-2v-2z" fill="rgb(166,167,166)"/>
<path d="M14 56h8v4h-2v-2h-4v2h-2v2h-4v-2h2v-2h2v-2z" fill="rgb(124,124,124)"/>
<path d="M34 56h2v2h-2v-2z" fill="rgb(62,62,62)"/>
<path d="M46 56h2v2h-2v-2z" fill="rgb(62,62,62)"/>
<path d="M48 56h2v2h-2v-2z" fill="rgb(246,246,246)"/>
<path d="M50 56h2v2h-2v-2z" fill="rgb(211,211,211)"/>
<path d="M58 56h4v2h2v2h-8v-2h2v-2z" fill="rgb(124,124,124)"/>
<path d="M64 56h4v2h2v2h2v2h-4v-2h-2v-2h-2v-2z" fill="rgb(124,124,124)"/>
<path d="M68 56h2v2h-2v-2z" fill="rgb(166,167,166)"/>
<path d="M70 56h2v2h-2v-2z" fill="rgb(211,211,211)"/>
<path d="M72 56h2v2h-2v-2z" fill="rgb(233,233,233)"/>
<path d="M4 58h2v2h-2v-2z" fill="rgb(166,167,166)"/>
<path d="M6 58h4v2h-4v-2z" fill="rgb(211,211,211)"/>
<path d="M10 58h2v2h-2v-2z" fill="rgb(166,167,166)"/>
<path d="M16 58h4v2h-2v2h-2v4h-4v-2h-2v-2h4v-2h2v-2z" fill="rgb(86,86,86)"/>
<path d="M30 58h4v2h-4v-2z" fill="rgb(62,62,62)"/>
<path d="M34 58h2v2h2v4h-2v-2h-2v-4z" fill="rgb(40,40,40)"/>
<path d="M40 58h2v4h-2v-4z" fill="rgb(124,124,124)"/>
<path d="M46 58h2v4h-2v2h-2v-4h2v-2z" fill="rgb(40,40,40)"/>
<path d="M48 58h4v2h-4v-2z" fill="rgb(62,62,62)"/>
<path d="M52 58h2v2h-2v-2z" fill="rgb(211,211,211)"/>
<path d="M64 58h2v2h2v2h4v2h-2v2h-4v-2h-2v-2h-4v-2h4v-2z" fill="rgb(86,86,86)"/>
<path d="M70 58h2v2h-2v-2z" fill="rgb(166,167,166)"/>
<path d="M76 58h2v2h-2v-2z" fill="rgb(166,167,166)"/>
<path d="M4 60h4v2h-4v-2z" fill="rgb(40,40,40)"/>
<path d="M8 60h2v2h-2v-2z" fill="rgb(166,167,166)"/>
<path d="M18 60h2v2h-2v-2z" fill="rgb(124,124,124)"/>
<path d="M20 60h2v4h-4v-2h2v-2z" fill="rgb(166,167,166)"/>
<path d="M22 60h4v2h-4v-2z" fill="rgb(211,211,211)"/>
<path d="M26 60h4v2h-4v-2z" fill="rgb(62,62,62)"/>
<path d="M30 60h4v4h-4v2h-4v2h-2v-4h2v-2h4v-2z" fill="rgb(124,124,124)"/>
<path d="M48 60h4v2h4v2h2v4h-4v-2h-2v-2h-4v-4z" fill="rgb(124,124,124)"/>
<path d="M52 60h4v2h-4v-2z" fill="rgb(62,62,62)"/>
<path d="M56 60h2v2h-2v-2z" fill="rgb(211,211,211)"/>
<path d="M58 60h2v2h-2v-2z" fill="rgb(166,167,166)"/>
<path d="M72 60h2v2h-2v-2z" fill="rgb(166,167,166)"/>
<path d="M74 60h4v2h-2v2h-4v-2h2v-2z" fill="rgb(40,40,40)"/>
<path d="M8 62h2v2h-2v-2z" fill="rgb(40,40,40)"/>
<path d="M16 62h2v2h-2v-2z" fill="rgb(124,124,124)"/>
<path d="M22 62h4v2h-4v-2z" fill="rgb(62,62,62)"/>
<path d="M34 62h2v2h-2v-2z" fill="rgb(166,167,166)"/>
<path d="M40 62h2v2h-2v-2z" fill="rgb(211,211,211)"/>
<path d="M46 62h2v2h-2v-2z" fill="rgb(166,167,166)"/>
<path d="M56 62h4v2h-4v-2z" fill="rgb(62,62,62)"/>
<path d="M60 62h2v2h-2v-2z" fill="rgb(166,167,166)"/>
<path d="M62 62h2v2h-2v-2z" fill="rgb(124,124,124)"/>
<path d="M10 64h2v2h-2v-2z" fill="rgb(40,40,40)"/>
<path d="M16 64h2v2h-2v-2z" fill="rgb(166,167,166)"/>
<path d="M18 64h2v2h-2v-2z" fill="rgb(86,86,86)"/>
<path d="M20 64h2v2h-2v-2z" fill="rgb(62,62,62)"/>
<path d="M22 64h2v6h-2v-2h-2v-2h2v-2z" fill="rgb(86,86,86)"/>
<path d="M30 64h4v2h-2v2h-6v-2h4v-2z" fill="rgb(166,167,166)"/>
<path d="M34 64h4v2h-2v2h-2v2h-2v2h-6v-4h6v-2h2v-2z" fill="rgb(211,211,211)"/>
<path d="M38 64h6v2h-6v-2z" fill="rgb(124,124,124)"/>
<path d="M44 64h4v2h2v2h4v2h2v2h-6v-2h-2v-2h-2v-2h-2v-2z" fill="rgb(211,211,211)"/>
<path d="M48 64h4v2h2v2h-4v-2h-2v-2z" fill="rgb(166,167,166)"/>
<path d="M58 64h2v2h2v2h-2v2h-2v-6z" fill="rgb(86,86,86)"/>
<path d="M60 64h2v2h-2v-2z" fill="rgb(62,62,62)"/>
<path d="M62 64h2v2h-2v-2z" fill="rgb(86,86,86)"/>
<path d="M64 64h2v2h-2v-2z" fill="rgb(166,167,166)"/>
<path d="M70 64h2v2h-2v-2z" fill="rgb(40,40,40)"/>
<path d="M12 66h2v4h-2v-4z" fill="rgb(40,40,40)"/>
<path d="M14 66h2v2h-2v-2z" fill="rgb(166,167,166)"/>
<path d="M16 66h2v2h-2v-2z" fill="rgb(124,124,124)"/>
<path d="M18 66h2v2h-2v-2z" fill="rgb(62,62,62)"/>
<path d="M36 66h10v2h-10v-2z" fill="rgb(246,246,246)"/>
<path d="M62 66h2v2h-2v-2z" fill="rgb(62,62,62)"/>
<path d="M64 66h2v2h-2v-2z" fill="rgb(124,124,124)"/>
<path d="M66 66h2v2h-2v-2z" fill="rgb(166,167,166)"/>
<path d="M68 66h2v4h-2v-4z" fill="rgb(40,40,40)"/>
<path d="M14 68h4v2h-4v-2z" fill="rgb(86,86,86)"/>
<path d="M18 68h2v2h-2v-2z" fill="rgb(40,40,40)"/>
<path d="M20 68h2v2h2v4h2v2h-2v2h-2v-4h-2v-2h-2v-2h2v-2z" fill="rgb(62,62,62)"/>
<path d="M24 68h2v4h-2v-4z" fill="rgb(166,167,166)"/>
<path d="M34 68h14v2h2v2h-2v4h-2v-6h-4v6h-2v-6h-4v6h-2v-4h-2v-2h2v-2z" fill="rgb(40,40,40)"/>
<path d="M54 68h4v4h-2v-2h-2v-2z" fill="rgb(166,167,166)"/>
<path d="M60 68h2v2h2v2h-2v2h-2v4h-2v-2h-2v-2h2v-4h2v-2z" fill="rgb(62,62,62)"/>
<path d="M62 68h2v2h-2v-2z" fill="rgb(40,40,40)"/>
<path d="M64 68h4v2h-4v-2z" fill="rgb(86,86,86)"/>
<path d="M14 70h4v2h-4v-2z" fill="rgb(40,40,40)"/>
<path d="M36 70h4v2h-2v2h-2v-4z" fill="rgb(86,86,86)"/>
<path d="M42 70h4v4h-2v-2h-2v-2z" fill="rgb(86,86,86)"/>
<path d="M64 70h4v2h-4v-2z" fill="rgb(40,40,40)"/>
<path d="M14 72h2v8h-2v-8z" fill="rgb(27,27,27)"/>
<path d="M16 72h4v2h2v8h2v4h-2v4h-2v-6h-2v-4h-2v-8z" fill="rgb(86,86,86)"/>
<path d="M24 72h2v2h-2v-2z" fill="rgb(124,124,124)"/>
<path d="M26 72h2v2h-2v-2z" fill="rgb(86,86,86)"/>
<path d="M28 72h2v2h-2v-2z" fill="rgb(40,40,40)"/>
<path d="M30 72h2v2h-2v-2z" fill="rgb(27,27,27)"/>
<path d="M32 72h2v2h-2v-2z" fill="rgb(86,86,86)"/>
<path d="M38 72h2v2h-2v-2z" fill="rgb(166,167,166)"/>
<path d="M42 72h2v2h-2v-2z" fill="rgb(166,167,166)"/>
<path d="M48 72h2v2h-2v-2z" fill="rgb(86,86,86)"/>
<path d="M50 72h2v2h-2v-2z" fill="rgb(27,27,27)"/>
<path d="M52 72h2v2h-2v-2z" fill="rgb(40,40,40)"/>
<path d="M54 72h2v2h-2v-2z" fill="rgb(86,86,86)"/>
<path d="M56 72h2v2h-2v-2z" fill="rgb(124,124,124)"/>
<path d="M62 72h4v8h-2v4h-2v6h-2v-4h-2v-4h2v-8h2v-2z" fill="rgb(86,86,86)"/>
<path d="M66 72h2v8h-2v-8z" fill="rgb(27,27,27)"/>
<path d="M26 74h4v2h-4v-2z" fill="rgb(27,27,27)"/>
<path d="M30 74h2v2h-2v-2z" fill="rgb(86,86,86)"/>
<path d="M32 74h2v2h-2v-2z" fill="rgb(166,167,166)"/>
<path d="M36 74h2v2h-2v-2z" fill="rgb(166,167,166)"/>
<path d="M38 74h2v4h-2v2h-2v-4h2v-2z" fill="rgb(211,211,211)"/>
<path d="M42 74h2v2h2v4h-2v-2h-2v-4z" fill="rgb(211,211,211)"/>
<path d="M44 74h2v2h-2v-2z" fill="rgb(166,167,166)"/>
<path d="M48 74h2v2h-2v-2z" fill="rgb(166,167,166)"/>
<path d="M50 74h2v2h-2v-2z" fill="rgb(86,86,86)"/>
<path d="M52 74h4v2h-4v-2z" fill="rgb(27,27,27)"/>
<path d="M24 76h2v4h4v2h-4v2h2v2h-4v-4h-2v-4h2v-2z" fill="rgb(27,27,27)"/>
<path d="M26 76h4v4h-2v-2h-2v-2z" fill="rgb(86,86,86)"/>
<path d="M30 76h2v4h-2v-4z" fill="rgb(166,167,166)"/>
<path d="M32 76h2v4h-2v-4z" fill="rgb(211,211,211)"/>
<path d="M34 76h2v4h-2v-4z" fill="rgb(86,86,86)"/>
<path d="M40 76h2v4h-2v-4z" fill="rgb(86,86,86)"/>
<path d="M46 76h2v4h-2v-4z" fill="rgb(86,86,86)"/>
<path d="M48 76h2v4h-2v-4z" fill="rgb(211,211,211)"/>
<path d="M50 76h2v4h-2v-4z" fill="rgb(166,167,166)"/>
<path d="M52 76h4v2h-2v2h-2v-4z" fill="rgb(86,86,86)"/>
<path d="M56 76h2v2h2v4h-2v4h-2v-4h-4v-2h4v-4z" fill="rgb(27,27,27)"/>
<path d="M26 78h2v2h-2v-2z" fill="rgb(166,167,166)"/>
<path d="M38 78h2v2h-2v-2z" fill="rgb(246,246,246)"/>
<path d="M42 78h2v2h-2v-2z" fill="rgb(246,246,246)"/>
<path d="M54 78h2v2h-2v-2z" fill="rgb(166,167,166)"/>
<path d="M16 80h2v4h-2v-4z" fill="rgb(27,27,27)"/>
<path d="M30 80h4v2h-4v-2z" fill="rgb(86,86,86)"/>
<path d="M34 80h2v2h-2v-2z" fill="rgb(27,27,27)"/>
<path d="M36 80h4v2h-4v-2z" fill="rgb(86,86,86)"/>
<path d="M40 80h2v2h-2v-2z" fill="rgb(27,27,27)"/>
<path d="M42 80h4v2h-4v-2z" fill="rgb(86,86,86)"/>
<path d="M46 80h2v2h-2v-2z" fill="rgb(27,27,27)"/>
<path d="M48 80h4v2h-4v-2z" fill="rgb(86,86,86)"/>
<path d="M64 80h2v4h-2v-4z" fill="rgb(27,27,27)"/>
<path d="M26 82h2v2h-2v-2z" fill="rgb(40,40,40)"/>
<path d="M28 82h2v2h-2v-2z" fill="rgb(211,211,211)"/>
<path d="M30 82h2v2h-2v-2z" fill="rgb(40,40,40)"/>
<path d="M32 82h2v2h-2v-2z" fill="rgb(211,211,211)"/>
<path d="M34 82h2v2h-2v-2z" fill="rgb(40,40,40)"/>
<path d="M36 82h2v2h-2v-2z" fill="rgb(246,246,246)"/>
<path d="M38 82h2v2h-2v-2z" fill="rgb(40,40,40)"/>
<path d="M40 82h2v2h-2v-2z" fill="rgb(246,246,246)"/>
<path d="M42 82h2v2h-2v-2z" fill="rgb(211,211,211)"/>
<path d="M44 82h2v2h-2v-2z" fill="rgb(40,40,40)"/>
<path d="M46 82h2v2h-2v-2z" fill="rgb(246,246,246)"/>
<path d="M48 82h2v2h-2v-2z" fill="rgb(211,211,211)"/>
<path d="M50 82h2v4h2v2h-26v-2h2v-2h2v2h2v-2h2v2h2v-2h2v2h4v-2h2v2h4v-4z" fill="rgb(27,27,27)"/>
<path d="M52 82h2v2h-2v-2z" fill="rgb(211,211,211)"/>
<path d="M54 82h2v2h-2v-2z" fill="rgb(40,40,40)"/>
<path d="M18 84h2v4h-2v-4z" fill="rgb(27,27,27)"/>
<path d="M28 84h2v2h-2v-2z" fill="rgb(124,124,124)"/>
<path d="M32 84h2v2h-2v-2z" fill="rgb(124,124,124)"/>
<path d="M36 84h2v2h-2v-2z" fill="rgb(166,167,166)"/>
<path d="M40 84h4v2h-4v-2z" fill="rgb(166,167,166)"/>
<path d="M46 84h2v2h-2v-2z" fill="rgb(166,167,166)"/>
<path d="M48 84h2v2h-2v-2z" fill="rgb(124,124,124)"/>
<path d="M52 84h4v2h-4v-2z" fill="rgb(124,124,124)"/>
<path d="M62 84h2v4h-2v-4z" fill="rgb(27,27,27)"/>
<path d="M22 86h2v4h-2v-4z" fill="rgb(124,124,124)"/>
<path d="M24 86h2v2h2v2h8v2h-4v2h-2v2h-2v-2h-2v-2h-2v-6z" fill="rgb(166,167,166)"/>
<path d="M26 86h2v2h-2v-2z" fill="rgb(55,55,55)"/>
<path d="M54 86h2v2h-2v-2z" fill="rgb(55,55,55)"/>
<path d="M56 86h2v6h-2v2h-2v2h-2v-2h-2v-2h-4v-2h8v-2h2v-2z" fill="rgb(166,167,166)"/>
<path d="M58 86h2v4h-2v-4z" fill="rgb(124,124,124)"/>
<path d="M18 88h2v4h-2v-4z" fill="rgb(40,40,40)"/>
<path d="M28 88h4v2h-4v-2z" fill="rgb(55,55,55)"/>
<path d="M32 88h18v2h-18v-2z" fill="rgb(124,124,124)"/>
<path d="M50 88h2v2h-2v-2z" fill="rgb(55,55,55)"/>
<path d="M52 88h2v2h-2v-2z" fill="rgb(124,124,124)"/>
<path d="M62 88h2v4h-2v-4z" fill="rgb(40,40,40)"/>
<path d="M20 90h2v2h-2v-2z" fill="rgb(124,124,124)"/>
<path d="M22 90h2v2h-2v-2z" fill="rgb(86,86,86)"/>
<path d="M36 90h2v2h-2v-2z" fill="rgb(233,233,233)"/>
<path d="M38 90h6v2h-6v-2z" fill="rgb(246,246,246)"/>
<path d="M44 90h2v2h-2v-2z" fill="rgb(233,233,233)"/>
<path d="M58 90h2v2h-2v-2z" fill="rgb(86,86,86)"/>
<path d="M60 90h2v2h-2v-2z" fill="rgb(124,124,124)"/>
<path d="M20 92h2v2h-2v-2z" fill="rgb(40,40,40)"/>
<path d="M22 92h2v2h-2v-2z" fill="rgb(124,124,124)"/>
<path d="M24 92h2v2h-2v-2z" fill="rgb(86,86,86)"/>
<path d="M32 92h4v2h10v-2h4v4h-18v-4z" fill="rgb(211,211,211)"/>
<path d="M36 92h10v2h-10v-2z" fill="rgb(166,167,166)"/>
<path d="M56 92h2v2h-2v-2z" fill="rgb(86,86,86)"/>
<path d="M58 92h2v2h-2v-2z" fill="rgb(124,124,124)"/>
<path d="M60 92h2v2h-2v-2z" fill="rgb(40,40,40)"/>
<path d="M22 94h4v2h-4v-2z" fill="rgb(40,40,40)"/>
<path d="M26 94h2v2h-2v-2z" fill="rgb(124,124,124)"/>
<path d="M30 94h2v2h-2v-2z" fill="rgb(233,233,233)"/>
<path d="M50 94h2v2h-2v-2z" fill="rgb(233,233,233)"/>
<path d="M54 94h2v2h-2v-2z" fill="rgb(55,55,55)"/>
<path d="M56 94h4v2h-4v-2z" fill="rgb(40,40,40)"/>
<path d="M26 96h4v2h-4v-2z" fill="rgb(40,40,40)"/>
<path d="M30 96h2v2h-2v-2z" fill="rgb(211,211,211)"/>
<path d="M32 96h4v2h-4v-2z" fill="rgb(233,233,233)"/>
<path d="M36 96h10v2h-10v-2z" fill="rgb(246,246,246)"/>
<path d="M46 96h4v2h-4v-2z" fill="rgb(233,233,233)"/>
<path d="M50 96h2v2h-2v-2z" fill="rgb(166,167,166)"/>
<path d="M52 96h4v2h-4v-2z" fill="rgb(40,40,40)"/>
<path d="M30 98h4v2h-4v-2z" fill="rgb(40,40,40)"/>
<path d="M34 98h14v2h-14v-2z" fill="rgb(211,211,211)"/>
<path d="M48 98h4v2h-4v-2z" fill="rgb(40,40,40)"/>
<path d="M34 100h14v2h-14v-2z" fill="rgb(40,40,40)"/>
</svg>