<?xml version="1.0" encoding="utf-8"?>
<!-- generated at drububu.com  -->
<!DOCTYPE svg PUBLIC "-//W3C//DTD SVG 1.1//EN" "http://www.w3.org/Graphics/SVG/1.1/DTD/svg11.dtd">
<svg version="1.1" preserveAspectRatio="xMinYMin meet" xmlns="http://www.w3.org/2000/svg" xmlns:xlink="http://www.w3.org/1999/xlink" x="0px" y="0px" width="56px" height="76px" viewBox="0 0 56 76">
<path d="M0 0h16v2h-4v2h-2v2h-2v2h-2v8h2v2h2v2h-2v2h-2v4h-2v8h-2v12h-2v-46z" fill="rgb(255,255,255)"/>
<path d="M16 0h10v2h-10v-2z" fill="rgb(30,28,12)"/>
<path d="M26 0h30v30h-2v-6h-2v-4h-2v-4h-2v-2h-2v-2h-2v-4h-2v-2h-4v-2h-4v-2h-8
	v-2z" fill="rgb(255,255,255)"/>
<path d="M12 2h4v2h-4v-2z" fill="rgb(30,28,12)"/>
<path d="M16 2h2v2h4v2h10v-2h2v4h-14v-2h-4v-4z" fill="rgb(151,151,112)"/>
<path d="M18 2h2v2h-2v-2z" fill="rgb(179,180,139)"/>
<path d="M20 2h4v2h-4v-2z" fill="rgb(205,205,160)"/>
<path d="M24 2h2v2h-2v-2z" fill="rgb(151,151,112)"/>
<path d="M26 2h8v2h-8v-2z" fill="rgb(30,28,12)"/>
<path d="M10 4h2v2h-2v-2z" fill="rgb(30,28,12)"/>
<path d="M12 4h2v2h2v2h4v2h8v2h2v2h-4v-2h-8v-2h-4v-2h-2v-4z" fill="rgb(91,91,58)"/>
<path d="M14 4h2v2h-2v-2z" fill="rgb(130,130,95)"/>
<path d="M22 4h6v2h-6v-2z" fill="rgb(179,180,139)"/>
<path d="M28 4h2v2h-2v-2z" fill="rgb(205,205,160)"/>
<path d="M30 4h2v2h-2v-2z" fill="rgb(179,180,139)"/>
<path d="M34 4h4v2h-4v-2z" fill="rgb(30,28,12)"/>
<path d="M8 6h2v2h-2v-2z" fill="rgb(30,28,12)"/>
<path d="M10 6h2v2h-2v-2z" fill="rgb(130,130,95)"/>
<path d="M16 6h4v2h-4v-2z" fill="rgb(130,130,95)"/>
<path d="M34 6h2v2h-2v-2z" fill="rgb(130,130,95)"/>
<path d="M36 6h2v2h4v2h-6v2h-2v2h-2v-2h-2v-2h2v-2h4v-2z" fill="rgb(91,91,58)"/>
<path d="M38 6h4v2h-4v-2z" fill="rgb(30,28,12)"/>
<path d="M6 8h2v8h-2v-8z" fill="rgb(30,28,12)"/>
<path d="M8 8h2v2h-2v-2z" fill="rgb(130,130,95)"/>
<path d="M10 8h2v2h-2v-2z" fill="rgb(151,151,112)"/>
<path d="M12 8h2v2h-2v-2z" fill="rgb(130,130,95)"/>
<path d="M20 8h12v2h-2v2h-2v-2h-8v-2z" fill="rgb(130,130,95)"/>
<path d="M42 8h2v4h-2v-4z" fill="rgb(30,28,12)"/>
<path d="M8 10h2v2h-2v-2z" fill="rgb(151,151,112)"/>
<path d="M10 10h2v2h-2v-2z" fill="rgb(205,205,160)"/>
<path d="M12 10h2v2h-2v-2z" fill="rgb(151,151,112)"/>
<path d="M14 10h4v2h-2v2h-2v2h-6v-2h4v-2h2v-2z" fill="rgb(130,130,95)"/>
<path d="M36 10h2v2h-2v-2z" fill="rgb(205,205,160)"/>
<path d="M38 10h2v4h-4v-2h2v-2z" fill="rgb(151,151,112)"/>
<path d="M40 10h2v6h-6v-2h4v-4z" fill="rgb(130,130,95)"/>
<path d="M8 12h2v2h-2v-2z" fill="rgb(179,180,139)"/>
<path d="M10 12h2v2h-2v-2z" fill="rgb(151,151,112)"/>
<path d="M16 12h2v4h-2v2h-2v2h-2v-2h-2v-2h4v-2h2v-2z" fill="rgb(91,91,58)"/>
<path d="M18 12h2v2h6v2h-8v-4z" fill="rgb(179,180,139)"/>
<path d="M20 12h2v2h-2v-2z" fill="rgb(205,205,160)"/>
<path d="M22 12h4v2h-4v-2z" fill="rgb(151,151,112)"/>
<path d="M30 12h2v2h-2v-2z" fill="rgb(130,130,95)"/>
<path d="M34 12h2v2h-2v-2z" fill="rgb(130,130,95)"/>
<path d="M42 12h2v4h-2v-4z" fill="rgb(91,91,58)"/>
<path d="M44 12h2v2h-2v-2z" fill="rgb(30,28,12)"/>
<path d="M26 14h2v2h-2v-2z" fill="rgb(205,205,160)"/>
<path d="M28 14h4v2h2v2h-18v-2h12v-2z" fill="rgb(151,151,112)"/>
<path d="M32 14h2v2h-2v-2z" fill="rgb(130,130,95)"/>
<path d="M34 14h2v2h-2v-2z" fill="rgb(91,91,58)"/>
<path d="M44 14h2v2h-2v-2z" fill="rgb(130,130,95)"/>
<path d="M46 14h2v2h-2v-2z" fill="rgb(30,28,12)"/>
<path d="M8 16h2v2h-2v-2z" fill="rgb(30,28,12)"/>
<path d="M34 16h2v2h-2v-2z" fill="rgb(130,130,95)"/>
<path d="M36 16h2v2h-2v-2z" fill="rgb(91,91,58)"/>
<path d="M38 16h2v2h-2v-2z" fill="rgb(30,28,12)"/>
<path d="M40 16h2v2h-2v-2z" fill="rgb(91,91,58)"/>
<path d="M42 16h2v2h-2v-2z" fill="rgb(179,180,139)"/>
<path d="M44 16h2v4h-4v-2h2v-2z" fill="rgb(151,151,112)"/>
<path d="M46 16h2v4h-2v-4z" fill="rgb(130,130,95)"/>
<path d="M48 16h2v4h-2v-4z" fill="rgb(30,28,12)"/>
<path d="M10 18h2v2h-2v-2z" fill="rgb(30,28,12)"/>
<path d="M14 18h20v2h-20v-2z" fill="rgb(130,130,95)"/>
<path d="M34 18h2v4h-22v-2h20v-2z" fill="rgb(91,91,58)"/>
<path d="M36 18h2v4h-2v-4z" fill="rgb(30,28,12)"/>
<path d="M38 18h2v2h2v2h2v4h2v4h2v8h2v6h4v-2h2v34h-12v-2h2v-8h-2v-2h2v-16h-2
	v-14h-2v-10h-2v-2h-2v-4z" fill="rgb(255,255,255)"/>
<path d="M40 18h2v2h-2v-2z" fill="rgb(30,28,12)"/>
<path d="M8 20h2v2h-2v-2z" fill="rgb(30,28,12)"/>
<path d="M10 20h4v2h-4v-2z" fill="rgb(130,130,95)"/>
<path d="M42 20h2v2h-2v-2z" fill="rgb(30,28,12)"/>
<path d="M44 20h2v2h-2v-2z" fill="rgb(130,130,95)"/>
<path d="M46 20h2v2h-2v-2z" fill="rgb(151,151,112)"/>
<path d="M48 20h2v2h-2v-2z" fill="rgb(130,130,95)"/>
<path d="M50 20h2v4h-2v-4z" fill="rgb(30,28,12)"/>
<path d="M6 22h2v4h-2v-4z" fill="rgb(30,28,12)"/>
<path d="M8 22h2v2h-2v-2z" fill="rgb(130,130,95)"/>
<path d="M10 22h6v2h-6v-2z" fill="rgb(151,151,112)"/>
<path d="M16 22h6v2h-2v2h-2v2h-2v-2h-2v-2h2v-2z" fill="rgb(205,205,160)"/>
<path d="M22 22h2v2h-2v-2z" fill="rgb(179,180,139)"/>
<path d="M24 22h8v2h-2v4h-2v-2h-2v-2h-2v-2z" fill="rgb(205,205,160)"/>
<path d="M32 22h2v4h-4v-2h2v-2z" fill="rgb(179,180,139)"/>
<path d="M34 22h2v2h2v2h-2v2h-2v-6z" fill="rgb(151,151,112)"/>
<path d="M36 22h2v2h-2v-2z" fill="rgb(130,130,95)"/>
<path d="M38 22h2v2h-2v-2z" fill="rgb(30,28,12)"/>
<path d="M44 22h2v4h-2v-4z" fill="rgb(30,28,12)"/>
<path d="M46 22h2v2h-2v-2z" fill="rgb(130,130,95)"/>
<path d="M48 22h2v2h-2v-2z" fill="rgb(91,91,58)"/>
<path d="M8 24h2v2h-2v-2z" fill="rgb(151,151,112)"/>
<path d="M10 24h2v2h-2v-2z" fill="rgb(205,205,160)"/>
<path d="M12 24h2v2h-2v-2z" fill="rgb(179,180,139)"/>
<path d="M20 24h2v2h-2v-2z" fill="rgb(179,180,139)"/>
<path d="M22 24h2v2h-2v-2z" fill="rgb(151,151,112)"/>
<path d="M24 24h2v2h-2v-2z" fill="rgb(179,180,139)"/>
<path d="M38 24h2v2h-2v-2z" fill="rgb(130,130,95)"/>
<path d="M40 24h2v10h-2v-10z" fill="rgb(30,28,12)"/>
<path d="M46 24h2v2h-2v-2z" fill="rgb(91,91,58)"/>
<path d="M48 24h2v2h-2v-2z" fill="rgb(179,180,139)"/>
<path d="M50 24h2v2h-2v-2z" fill="rgb(151,151,112)"/>
<path d="M52 24h2v6h-2v-6z" fill="rgb(30,28,12)"/>
<path d="M4 26h2v8h-2v-8z" fill="rgb(30,28,12)"/>
<path d="M6 26h2v2h-2v-2z" fill="rgb(205,205,160)"/>
<path d="M8 26h2v2h-2v-2z" fill="rgb(179,180,139)"/>
<path d="M10 26h4v2h-4v-2z" fill="rgb(151,151,112)"/>
<path d="M14 26h2v2h-2v-2z" fill="rgb(179,180,139)"/>
<path d="M18 26h2v2h-2v-2z" fill="rgb(179,180,139)"/>
<path d="M20 26h2v2h-2v-2z" fill="rgb(151,151,112)"/>
<path d="M22 26h2v2h-2v-2z" fill="rgb(130,130,95)"/>
<path d="M24 26h2v2h-2v-2z" fill="rgb(151,151,112)"/>
<path d="M26 26h2v2h2v2h-2v2h-2v-6z" fill="rgb(179,180,139)"/>
<path d="M30 26h2v2h-2v-2z" fill="rgb(151,151,112)"/>
<path d="M32 26h2v2h-2v-2z" fill="rgb(30,28,12)"/>
<path d="M36 26h2v2h-2v-2z" fill="rgb(205,205,160)"/>
<path d="M38 26h2v2h-2v-2z" fill="rgb(151,151,112)"/>
<path d="M46 26h2v4h-2v-4z" fill="rgb(30,28,12)"/>
<path d="M48 26h2v2h-2v-2z" fill="rgb(151,151,112)"/>
<path d="M50 26h2v6h-2v-2h-2v-2h2v-2z" fill="rgb(130,130,95)"/>
<path d="M6 28h2v2h-2v-2z" fill="rgb(179,180,139)"/>
<path d="M8 28h2v2h-2v-2z" fill="rgb(151,151,112)"/>
<path d="M10 28h4v2h-4v-2z" fill="rgb(130,130,95)"/>
<path d="M14 28h2v2h2v6h-2v-4h-2v-4z" fill="rgb(151,151,112)"/>
<path d="M16 28h2v2h-2v-2z" fill="rgb(179,180,139)"/>
<path d="M18 28h2v2h-2v-2z" fill="rgb(151,151,112)"/>
<path d="M20 28h4v2h-2v10h-2v-12z" fill="rgb(30,28,12)"/>
<path d="M24 28h2v2h-2v-2z" fill="rgb(130,130,95)"/>
<path d="M30 28h2v28h-2v-28z" fill="rgb(30,28,12)"/>
<path d="M32 28h2v6h2v6h2v2h-2v6h2v6h2v2h-2v8h2v2h-2v6h2v2h2v2h-14v-2h2v-2h2v-4
	h-2v-2h2v-8h-2v-2h2v-28z" fill="rgb(255,255,255)"/>
<path d="M34 28h2v6h-2v-6z" fill="rgb(30,28,12)"/>
<path d="M36 28h2v4h-2v-4z" fill="rgb(151,151,112)"/>
<path d="M38 28h2v6h-4v-2h2v-4z" fill="rgb(130,130,95)"/>
<path d="M6 30h2v6h-2v-6z" fill="rgb(151,151,112)"/>
<path d="M8 30h2v4h-2v-4z" fill="rgb(130,130,95)"/>
<path d="M10 30h4v2h-2v2h-2v-4z" fill="rgb(30,28,12)"/>
<path d="M18 30h2v10h-4v-4h2v-6z" fill="rgb(130,130,95)"/>
<path d="M22 30h2v12h2v2h-2v12h2v2h-2v16h2v2h-26v-6h2v2h4v-4h2v-4h-2v-2h2v-8h-2
	v-2h2v-6h2v-12h2v-2h2v8h2v2h-2v6h-2v16h2v2h-2v6h2v2h4v-4h2v-4h-2v-2h2v-8h-2v-2
	h2v-6h2v-6h-2v-2h2v-10z" fill="rgb(255,255,255)"/>
<path d="M24 30h2v12h-2v-12z" fill="rgb(30,28,12)"/>
<path d="M28 30h2v4h-2v6h-2v-8h2v-2z" fill="rgb(151,151,112)"/>
<path d="M48 30h2v8h-2v-8z" fill="rgb(30,28,12)"/>
<path d="M52 30h2v2h-2v-2z" fill="rgb(91,91,58)"/>
<path d="M54 30h2v12h-2v-12z" fill="rgb(30,28,12)"/>
<path d="M14 32h2v8h-2v-8z" fill="rgb(30,28,12)"/>
<path d="M50 32h2v2h-2v-2z" fill="rgb(91,91,58)"/>
<path d="M52 32h2v4h-4v-2h2v-2z" fill="rgb(151,151,112)"/>
<path d="M2 34h2v12h-2v-12z" fill="rgb(30,28,12)"/>
<path d="M4 34h2v2h-2v-2z" fill="rgb(130,130,95)"/>
<path d="M8 34h2v12h-2v-12z" fill="rgb(30,28,12)"/>
<path d="M28 34h2v8h-4v-2h2v-6z" fill="rgb(130,130,95)"/>
<path d="M36 34h2v6h-2v-6z" fill="rgb(30,28,12)"/>
<path d="M38 34h2v2h-2v-2z" fill="rgb(179,180,139)"/>
<path d="M40 34h2v4h-2v-4z" fill="rgb(130,130,95)"/>
<path d="M42 34h2v14h-2v-14z" fill="rgb(30,28,12)"/>
<path d="M4 36h2v2h-2v-2z" fill="rgb(91,91,58)"/>
<path d="M6 36h2v2h-2v-2z" fill="rgb(130,130,95)"/>
<path d="M38 36h2v2h-2v-2z" fill="rgb(151,151,112)"/>
<path d="M50 36h4v6h-2v-4h-2v-2z" fill="rgb(130,130,95)"/>
<path d="M4 38h2v2h-2v-2z" fill="rgb(130,130,95)"/>
<path d="M6 38h2v2h-2v-2z" fill="rgb(91,91,58)"/>
<path d="M38 38h2v2h-2v-2z" fill="rgb(130,130,95)"/>
<path d="M40 38h2v2h-2v-2z" fill="rgb(91,91,58)"/>
<path d="M50 38h2v4h2v2h-4v-6z" fill="rgb(30,28,12)"/>
<path d="M4 40h4v2h-4v-2z" fill="rgb(151,151,112)"/>
<path d="M16 40h4v2h-4v-2z" fill="rgb(91,91,58)"/>
<path d="M38 40h2v2h-2v-2z" fill="rgb(91,91,58)"/>
<path d="M40 40h2v2h-2v-2z" fill="rgb(151,151,112)"/>
<path d="M4 42h2v2h-2v-2z" fill="rgb(179,180,139)"/>
<path d="M6 42h2v2h-2v-2z" fill="rgb(205,205,160)"/>
<path d="M14 42h2v6h-2v-6z" fill="rgb(30,28,12)"/>
<path d="M16 42h2v2h-2v-2z" fill="rgb(179,180,139)"/>
<path d="M18 42h2v2h-2v-2z" fill="rgb(151,151,112)"/>
<path d="M20 42h2v6h-2v-6z" fill="rgb(30,28,12)"/>
<path d="M26 42h4v2h-4v-2z" fill="rgb(91,91,58)"/>
<path d="M36 42h2v6h-2v-6z" fill="rgb(30,28,12)"/>
<path d="M38 42h2v2h-2v-2z" fill="rgb(179,180,139)"/>
<path d="M40 42h2v4h-2v-4z" fill="rgb(205,205,160)"/>
<path d="M4 44h2v2h-2v-2z" fill="rgb(151,151,112)"/>
<path d="M6 44h2v2h-2v-2z" fill="rgb(179,180,139)"/>
<path d="M16 44h2v2h-2v-2z" fill="rgb(205,205,160)"/>
<path d="M18 44h2v2h-2v-2z" fill="rgb(179,180,139)"/>
<path d="M24 44h2v12h-2v-12z" fill="rgb(30,28,12)"/>
<path d="M26 44h2v2h-2v-2z" fill="rgb(151,151,112)"/>
<path d="M28 44h2v2h-2v-2z" fill="rgb(205,205,160)"/>
<path d="M38 44h2v2h-2v-2z" fill="rgb(151,151,112)"/>
<path d="M0 46h2v4h-2v-4z" fill="rgb(30,28,12)"/>
<path d="M2 46h2v2h-2v-2z" fill="rgb(151,151,112)"/>
<path d="M4 46h2v2h-2v-2z" fill="rgb(179,180,139)"/>
<path d="M6 46h2v6h-2v-6z" fill="rgb(30,28,12)"/>
<path d="M16 46h2v2h-2v-2z" fill="rgb(179,180,139)"/>
<path d="M18 46h2v2h-2v-2z" fill="rgb(151,151,112)"/>
<path d="M26 46h2v2h-2v-2z" fill="rgb(205,205,160)"/>
<path d="M28 46h2v2h-2v-2z" fill="rgb(179,180,139)"/>
<path d="M38 46h2v2h-2v-2z" fill="rgb(130,130,95)"/>
<path d="M40 46h2v2h-2v-2z" fill="rgb(179,180,139)"/>
<path d="M2 48h2v2h-2v-2z" fill="rgb(130,130,95)"/>
<path d="M4 48h2v2h-2v-2z" fill="rgb(151,151,112)"/>
<path d="M12 48h2v16h-2v-16z" fill="rgb(30,28,12)"/>
<path d="M14 48h2v2h-2v-2z" fill="rgb(179,180,139)"/>
<path d="M16 48h2v2h-2v-2z" fill="rgb(151,151,112)"/>
<path d="M18 48h2v6h-2v-6z" fill="rgb(30,28,12)"/>
<path d="M26 48h2v2h-2v-2z" fill="rgb(179,180,139)"/>
<path d="M28 48h2v4h-2v2h-2v-4h2v-2z" fill="rgb(151,151,112)"/>
<path d="M38 48h2v6h-2v-6z" fill="rgb(30,28,12)"/>
<path d="M40 48h2v4h-2v-4z" fill="rgb(151,151,112)"/>
<path d="M42 48h2v4h-2v-4z" fill="rgb(130,130,95)"/>
<path d="M44 48h2v16h-2v-16z" fill="rgb(30,28,12)"/>
<path d="M0 50h2v2h-2v-2z" fill="rgb(255,255,255)"/>
<path d="M2 50h2v2h-2v-2z" fill="rgb(91,91,58)"/>
<path d="M4 50h2v2h-2v-2z" fill="rgb(130,130,95)"/>
<path d="M14 50h2v2h-2v-2z" fill="rgb(151,151,112)"/>
<path d="M16 50h2v4h-4v-2h2v-2z" fill="rgb(130,130,95)"/>
<path d="M0 52h2v8h-2v-8z" fill="rgb(30,28,12)"/>
<path d="M2 52h2v2h-2v-2z" fill="rgb(205,205,160)"/>
<path d="M4 52h2v2h-2v-2z" fill="rgb(91,91,58)"/>
<path d="M28 52h2v4h-4v-2h2v-2z" fill="rgb(130,130,95)"/>
<path d="M40 52h2v2h-2v-2z" fill="rgb(130,130,95)"/>
<path d="M42 52h2v2h-2v-2z" fill="rgb(91,91,58)"/>
<path d="M2 54h2v2h-2v-2z" fill="rgb(179,180,139)"/>
<path d="M4 54h2v2h-2v-2z" fill="rgb(205,205,160)"/>
<path d="M6 54h2v8h-2v-8z" fill="rgb(30,28,12)"/>
<path d="M14 54h4v2h-4v-2z" fill="rgb(91,91,58)"/>
<path d="M40 54h2v2h-2v-2z" fill="rgb(91,91,58)"/>
<path d="M42 54h2v2h-2v-2z" fill="rgb(205,205,160)"/>
<path d="M2 56h2v2h-2v-2z" fill="rgb(151,151,112)"/>
<path d="M4 56h2v2h-2v-2z" fill="rgb(179,180,139)"/>
<path d="M14 56h2v2h-2v-2z" fill="rgb(205,205,160)"/>
<path d="M16 56h2v2h-2v-2z" fill="rgb(179,180,139)"/>
<path d="M18 56h2v8h-2v-8z" fill="rgb(30,28,12)"/>
<path d="M26 56h4v2h-4v-2z" fill="rgb(91,91,58)"/>
<path d="M38 56h2v8h-2v-8z" fill="rgb(30,28,12)"/>
<path d="M40 56h2v4h-2v-4z" fill="rgb(205,205,160)"/>
<path d="M42 56h2v2h-2v-2z" fill="rgb(151,151,112)"/>
<path d="M2 58h2v2h-2v-2z" fill="rgb(130,130,95)"/>
<path d="M4 58h2v2h-2v-2z" fill="rgb(151,151,112)"/>
<path d="M14 58h2v2h-2v-2z" fill="rgb(179,180,139)"/>
<path d="M16 58h2v2h-2v-2z" fill="rgb(151,151,112)"/>
<path d="M24 58h2v16h-2v-16z" fill="rgb(30,28,12)"/>
<path d="M26 58h2v2h-2v-2z" fill="rgb(205,205,160)"/>
<path d="M28 58h2v2h-2v-2z" fill="rgb(179,180,139)"/>
<path d="M30 58h2v8h-2v-8z" fill="rgb(30,28,12)"/>
<path d="M42 58h2v2h-2v-2z" fill="rgb(130,130,95)"/>
<path d="M0 60h2v2h-2v-2z" fill="rgb(255,255,255)"/>
<path d="M2 60h2v2h-2v-2z" fill="rgb(91,91,58)"/>
<path d="M4 60h2v2h-2v-2z" fill="rgb(130,130,95)"/>
<path d="M14 60h2v2h-2v-2z" fill="rgb(151,151,112)"/>
<path d="M16 60h2v4h-4v-2h2v-2z" fill="rgb(130,130,95)"/>
<path d="M26 60h2v2h-2v-2z" fill="rgb(179,180,139)"/>
<path d="M28 60h2v2h-2v-2z" fill="rgb(151,151,112)"/>
<path d="M40 60h4v2h-4v-2z" fill="rgb(151,151,112)"/>
<path d="M0 62h2v8h-2v-8z" fill="rgb(30,28,12)"/>
<path d="M2 62h2v2h-2v-2z" fill="rgb(205,205,160)"/>
<path d="M4 62h2v2h-2v-2z" fill="rgb(91,91,58)"/>
<path d="M26 62h2v2h-2v-2z" fill="rgb(151,151,112)"/>
<path d="M28 62h2v4h-4v-2h2v-2z" fill="rgb(130,130,95)"/>
<path d="M40 62h4v2h-4v-2z" fill="rgb(130,130,95)"/>
<path d="M2 64h4v2h-4v-2z" fill="rgb(179,180,139)"/>
<path d="M6 64h2v4h-2v-4z" fill="rgb(30,28,12)"/>
<path d="M14 64h4v2h-4v-2z" fill="rgb(91,91,58)"/>
<path d="M40 64h4v2h-4v-2z" fill="rgb(91,91,58)"/>
<path d="M2 66h4v2h-4v-2z" fill="rgb(151,151,112)"/>
<path d="M12 66h2v6h-2v-6z" fill="rgb(30,28,12)"/>
<path d="M14 66h2v2h-2v-2z" fill="rgb(205,205,160)"/>
<path d="M16 66h2v2h-2v-2z" fill="rgb(179,180,139)"/>
<path d="M18 66h2v4h-2v-4z" fill="rgb(30,28,12)"/>
<path d="M26 66h4v2h-4v-2z" fill="rgb(91,91,58)"/>
<path d="M38 66h2v6h-2v-6z" fill="rgb(30,28,12)"/>
<path d="M40 66h2v2h-2v-2z" fill="rgb(179,180,139)"/>
<path d="M42 66h2v2h-2v-2z" fill="rgb(205,205,160)"/>
<path d="M44 66h2v8h-2v-8z" fill="rgb(30,28,12)"/>
<path d="M2 68h2v2h-2v-2z" fill="rgb(130,130,95)"/>
<path d="M4 68h2v4h-4v-2h2v-2z" fill="rgb(30,28,12)"/>
<path d="M14 68h2v2h-2v-2z" fill="rgb(179,180,139)"/>
<path d="M16 68h2v2h-2v-2z" fill="rgb(151,151,112)"/>
<path d="M26 68h2v2h-2v-2z" fill="rgb(205,205,160)"/>
<path d="M28 68h2v2h-2v-2z" fill="rgb(179,180,139)"/>
<path d="M30 68h2v4h-2v-4z" fill="rgb(30,28,12)"/>
<path d="M40 68h2v2h-2v-2z" fill="rgb(151,151,112)"/>
<path d="M42 68h2v2h-2v-2z" fill="rgb(179,180,139)"/>
<path d="M14 70h2v2h-2v-2z" fill="rgb(130,130,95)"/>
<path d="M16 70h2v4h-4v-2h2v-2z" fill="rgb(30,28,12)"/>
<path d="M26 70h4v2h-4v-2z" fill="rgb(151,151,112)"/>
<path d="M40 70h2v2h-2v-2z" fill="rgb(130,130,95)"/>
<path d="M42 70h2v2h-2v-2z" fill="rgb(151,151,112)"/>
<path d="M26 72h2v2h-2v-2z" fill="rgb(130,130,95)"/>
<path d="M28 72h2v2h-2v-2z" fill="rgb(30,28,12)"/>
<path d="M40 72h2v2h-2v-2z" fill="rgb(30,28,12)"/>
<path d="M42 72h2v2h-2v-2z" fill="rgb(130,130,95)"/>
<path d="M26 74h2v2h-2v-2z" fill="rgb(30,28,12)"/>
<path d="M42 74h2v2h-2v-2z" fill="rgb(30,28,12)"/>
</svg>