<?xml version="1.0" encoding="utf-8"?>
<!-- generated at drububu.com  -->
<!DOCTYPE svg PUBLIC "-//W3C//DTD SVG 1.1//EN" "http://www.w3.org/Graphics/SVG/1.1/DTD/svg11.dtd">
<svg version="1.1" preserveAspectRatio="xMinYMin meet" xmlns="http://www.w3.org/2000/svg" xmlns:xlink="http://www.w3.org/1999/xlink" x="0px" y="0px" width="80px" height="102px" viewBox="0 0 80 102">
<path d="M0 0h32v2h-4v2h-4v2h-4v2h-2v2h-2v2h-2v2h-2v2h-2v2h-2v2h-2v2h-2v6h-2v12
	h-2v-40z" fill="rgb(255,255,255)"/>
<path d="M32 0h18v2h-18v-2z" fill="rgb(30,28,12)"/>
<path d="M50 0h30v40h-2v-12h-2v-6h-2v-4h-2v-2h-2v-2h-2v-2h-2v-2h-2v-2h-2v-2h-4
	v-2h-2v-2h-6v-2z" fill="rgb(255,255,255)"/>
<path d="M28 2h4v2h-4v-2z" fill="rgb(30,28,12)"/>
<path d="M32 2h2v2h-2v-2z" fill="rgb(130,130,95)"/>
<path d="M34 2h4v2h-4v-2z" fill="rgb(151,151,112)"/>
<path d="M38 2h4v2h6v2h4v2h4v2h-2v2h2v-2h2v2h4v2h2v2h4v2h2v2h-2v2h-4v2h-2v-4h-2
	v-2h-4v-2h-6v-2h-4v-2h2v-2h-6v2h-2v2h-2v-4h-2v-2h-2v2h-2v2h-2v2h-4v-2h-2v-2h-4
	v-2h4v-2h2v2h4v-2h4v-2h4v-2z" fill="rgb(179,180,139)"/>
<path d="M42 2h4v2h-4v-2z" fill="rgb(151,151,112)"/>
<path d="M46 2h2v2h-2v-2z" fill="rgb(130,130,95)"/>
<path d="M48 2h2v2h-2v-2z" fill="rgb(113,113,82)"/>
<path d="M50 2h6v2h-6v-2z" fill="rgb(30,28,12)"/>
<path d="M24 4h4v2h-4v-2z" fill="rgb(30,28,12)"/>
<path d="M28 4h2v2h-2v-2z" fill="rgb(130,130,95)"/>
<path d="M30 4h4v2h-4v-2z" fill="rgb(151,151,112)"/>
<path d="M48 4h4v2h-4v-2z" fill="rgb(151,151,112)"/>
<path d="M52 4h4v2h-4v-2z" fill="rgb(130,130,95)"/>
<path d="M56 4h2v2h-2v-2z" fill="rgb(30,28,12)"/>
<path d="M20 6h4v2h-4v-2z" fill="rgb(30,28,12)"/>
<path d="M26 6h4v2h-4v-2z" fill="rgb(151,151,112)"/>
<path d="M36 6h2v2h-2v-2z" fill="rgb(205,205,160)"/>
<path d="M52 6h4v2h-4v-2z" fill="rgb(151,151,112)"/>
<path d="M56 6h2v2h-2v-2z" fill="rgb(130,130,95)"/>
<path d="M58 6h4v2h-4v-2z" fill="rgb(30,28,12)"/>
<path d="M18 8h2v2h-2v-2z" fill="rgb(30,28,12)"/>
<path d="M34 8h2v2h2v4h2v-2h2v-2h6v2h-2v2h4v2h6v2h4v2h2v4h-2v2h-4v2h-2v2h-4v-2
	h-2v-2h-2v-2h-2v2h-2v2h-6v-2h-8v-2h-4v2h-4v-2h2v-2h6v-2h2v2h2v-2h2v4h4v-2h4v-2
	h4v-2h-2v-2h-4v2h-2v-2h-4v2h-4v-2h-4v-2h4v-2h2v-2h2v-2z" fill="rgb(205,205,160)"/>
<path d="M56 8h4v2h2v2h-4v-2h-2v-2z" fill="rgb(151,151,112)"/>
<path d="M60 8h2v2h-2v-2z" fill="rgb(130,130,95)"/>
<path d="M62 8h2v2h-2v-2z" fill="rgb(30,28,12)"/>
<path d="M16 10h2v2h-2v-2z" fill="rgb(30,28,12)"/>
<path d="M18 10h2v4h-2v2h-2v2h2v4h-6v-6h2v-2h2v-2h2v-2z" fill="rgb(179,180,139)"/>
<path d="M20 10h4v2h2v2h-2v2h-2v2h2v2h-4v4h-4v-2h2v-4h2v-2h-2v-2h2v-4z" fill="rgb(205,205,160)"/>
<path d="M54 10h2v2h-2v-2z" fill="rgb(151,151,112)"/>
<path d="M62 10h2v2h-2v-2z" fill="rgb(130,130,95)"/>
<path d="M64 10h2v2h-2v-2z" fill="rgb(30,28,12)"/>
<path d="M14 12h2v2h-2v-2z" fill="rgb(30,28,12)"/>
<path d="M62 12h4v2h2v2h-4v-2h-2v-2z" fill="rgb(151,151,112)"/>
<path d="M66 12h2v2h-2v-2z" fill="rgb(30,28,12)"/>
<path d="M12 14h2v2h-2v-2z" fill="rgb(30,28,12)"/>
<path d="M24 14h2v2h4v2h4v-2h4v2h2v-2h4v2h2v2h-4v2h-4v2h-4v-4h-2v2h-2v-2h-2v2
	h-6v2h-2v-4h4v-2h-2v-2h2v-2z" fill="rgb(222,222,189)"/>
<path d="M68 14h2v2h-2v-2z" fill="rgb(30,28,12)"/>
<path d="M10 16h2v2h-2v-2z" fill="rgb(30,28,12)"/>
<path d="M16 16h2v2h-2v-2z" fill="rgb(205,205,160)"/>
<path d="M18 16h2v2h-2v-2z" fill="rgb(179,180,139)"/>
<path d="M68 16h2v2h-2v-2z" fill="rgb(151,151,112)"/>
<path d="M70 16h2v2h-2v-2z" fill="rgb(30,28,12)"/>
<path d="M8 18h2v2h-2v-2z" fill="rgb(30,28,12)"/>
<path d="M10 18h2v4h-2v-4z" fill="rgb(151,151,112)"/>
<path d="M70 18h2v6h-2v4h-2v-4h-2v2h-4v-2h2v-2h4v-2h2v-2z" fill="rgb(151,151,112)"/>
<path d="M72 18h2v4h-2v-4z" fill="rgb(30,28,12)"/>
<path d="M6 20h2v2h-2v-2z" fill="rgb(30,28,12)"/>
<path d="M8 20h2v2h2v2h-2v4h-2v4h-2v-6h2v-6z" fill="rgb(130,130,95)"/>
<path d="M4 22h2v6h-2v-6z" fill="rgb(30,28,12)"/>
<path d="M6 22h2v4h-2v-4z" fill="rgb(113,113,82)"/>
<path d="M12 22h4v2h-2v2h-2v6h-2v2h-2v6h-2v-8h2v-4h2v-4h2v-2z" fill="rgb(151,151,112)"/>
<path d="M72 22h2v2h-2v-2z" fill="rgb(130,130,95)"/>
<path d="M74 22h2v6h-2v-6z" fill="rgb(30,28,12)"/>
<path d="M14 24h2v2h-2v-2z" fill="rgb(71,71,46)"/>
<path d="M16 24h4v2h-4v-2z" fill="rgb(151,151,112)"/>
<path d="M24 24h4v2h8v2h6v-2h2v-2h2v2h2v4h-2v2h-2v2h-6v-2h-2v-2h-4v-2h-2v4h-2
	v-2h-2v-2h-2v-4z" fill="rgb(179,180,139)"/>
<path d="M60 24h2v2h-2v-2z" fill="rgb(179,180,139)"/>
<path d="M66 24h2v2h-2v-2z" fill="rgb(71,71,46)"/>
<path d="M70 24h2v2h2v4h-2v-2h-2v-4z" fill="rgb(130,130,95)"/>
<path d="M72 24h2v2h-2v-2z" fill="rgb(113,113,82)"/>
<path d="M12 26h2v2h-2v-2z" fill="rgb(179,180,139)"/>
<path d="M14 26h2v2h4v2h-6v-4z" fill="rgb(55,55,35)"/>
<path d="M16 26h2v2h-2v-2z" fill="rgb(71,71,46)"/>
<path d="M18 26h2v2h-2v-2z" fill="rgb(130,130,95)"/>
<path d="M20 26h4v2h-4v-2z" fill="rgb(151,151,112)"/>
<path d="M56 26h2v2h-2v-2z" fill="rgb(179,180,139)"/>
<path d="M58 26h4v2h-4v-2z" fill="rgb(151,151,112)"/>
<path d="M62 26h2v2h-2v-2z" fill="rgb(130,130,95)"/>
<path d="M64 26h2v2h-2v-2z" fill="rgb(71,71,46)"/>
<path d="M66 26h2v4h-6v-2h4v-2z" fill="rgb(55,55,35)"/>
<path d="M2 28h2v12h-2v-12z" fill="rgb(30,28,12)"/>
<path d="M4 28h2v4h-2v-4z" fill="rgb(113,113,82)"/>
<path d="M12 28h2v4h-2v-4z" fill="rgb(71,71,46)"/>
<path d="M20 28h2v2h-2v-2z" fill="rgb(71,71,46)"/>
<path d="M22 28h2v2h-2v-2z" fill="rgb(130,130,95)"/>
<path d="M24 28h2v2h-2v-2z" fill="rgb(151,151,112)"/>
<path d="M30 28h2v2h-2v-2z" fill="rgb(151,151,112)"/>
<path d="M48 28h2v2h-2v-2z" fill="rgb(151,151,112)"/>
<path d="M54 28h4v2h-2v2h-4v-2h2v-2z" fill="rgb(151,151,112)"/>
<path d="M58 28h2v2h-2v-2z" fill="rgb(130,130,95)"/>
<path d="M60 28h2v2h-2v-2z" fill="rgb(71,71,46)"/>
<path d="M68 28h2v4h-2v-4z" fill="rgb(71,71,46)"/>
<path d="M70 28h2v2h2v4h2v12h2v4h-2v-2h-2v-12h-2v-2h-2v-6z" fill="rgb(151,151,112)"/>
<path d="M74 28h2v2h-2v-2z" fill="rgb(113,113,82)"/>
<path d="M76 28h2v12h-2v-12z" fill="rgb(30,28,12)"/>
<path d="M14 30h6v4h-6v-4z" fill="rgb(41,41,23)"/>
<path d="M20 30h2v2h4v2h-6v-4z" fill="rgb(55,55,35)"/>
<path d="M22 30h2v2h-2v-2z" fill="rgb(71,71,46)"/>
<path d="M24 30h2v2h-2v-2z" fill="rgb(130,130,95)"/>
<path d="M26 30h2v2h-2v-2z" fill="rgb(151,151,112)"/>
<path d="M30 30h2v2h-2v-2z" fill="rgb(130,130,95)"/>
<path d="M32 30h4v2h-4v-2z" fill="rgb(151,151,112)"/>
<path d="M46 30h2v2h-2v-2z" fill="rgb(151,151,112)"/>
<path d="M48 30h2v2h-2v-2z" fill="rgb(130,130,95)"/>
<path d="M50 30h2v2h-2v-2z" fill="rgb(179,180,139)"/>
<path d="M56 30h4v2h-4v-2z" fill="rgb(71,71,46)"/>
<path d="M60 30h2v4h-6v-2h4v-2z" fill="rgb(55,55,35)"/>
<path d="M62 30h6v4h-6v-4z" fill="rgb(41,41,23)"/>
<path d="M74 30h2v4h-2v-4z" fill="rgb(130,130,95)"/>
<path d="M4 32h2v8h-2v-8z" fill="rgb(130,130,95)"/>
<path d="M10 32h2v2h-2v-2z" fill="rgb(179,180,139)"/>
<path d="M12 32h2v2h-2v-2z" fill="rgb(55,55,35)"/>
<path d="M26 32h2v2h-2v-2z" fill="rgb(130,130,95)"/>
<path d="M28 32h4v2h-4v-2z" fill="rgb(151,151,112)"/>
<path d="M32 32h2v2h-2v-2z" fill="rgb(179,180,139)"/>
<path d="M34 32h2v2h-2v-2z" fill="rgb(130,130,95)"/>
<path d="M36 32h2v2h-2v-2z" fill="rgb(151,151,112)"/>
<path d="M44 32h2v2h-2v-2z" fill="rgb(151,151,112)"/>
<path d="M46 32h2v2h-2v-2z" fill="rgb(130,130,95)"/>
<path d="M48 32h2v2h-2v-2z" fill="rgb(179,180,139)"/>
<path d="M50 32h2v4h-4v-2h2v-2z" fill="rgb(151,151,112)"/>
<path d="M52 32h2v2h-2v-2z" fill="rgb(130,130,95)"/>
<path d="M54 32h2v2h-2v-2z" fill="rgb(71,71,46)"/>
<path d="M68 32h2v2h-2v-2z" fill="rgb(55,55,35)"/>
<path d="M8 34h2v8h2v2h2v4h4v2h-4v2h-2v-4h-2v-2h-2v-4h-2v-2h2v-6z" fill="rgb(179,180,139)"/>
<path d="M10 34h2v2h-2v-2z" fill="rgb(55,55,35)"/>
<path d="M12 34h2v2h-2v-2z" fill="rgb(41,41,23)"/>
<path d="M14 34h6v2h2v2h-4v-2h-2v4h-2v-2h-2v-2h2v-2z" fill="rgb(55,55,35)"/>
<path d="M20 34h6v2h-2v4h2v-4h2v2h2v2h-2v2h2v2h-2v2h-2v2h-4v-2h2v-2h-2v-2h-2v-4
	h2v-2h-2v-2z" fill="rgb(41,41,23)"/>
<path d="M26 34h2v2h-2v-2z" fill="rgb(55,55,35)"/>
<path d="M28 34h4v2h-4v-2z" fill="rgb(130,130,95)"/>
<path d="M32 34h2v2h-2v-2z" fill="rgb(151,151,112)"/>
<path d="M34 34h2v2h-2v-2z" fill="rgb(179,180,139)"/>
<path d="M36 34h2v2h-2v-2z" fill="rgb(130,130,95)"/>
<path d="M38 34h2v2h-2v-2z" fill="rgb(151,151,112)"/>
<path d="M40 34h2v2h-2v-2z" fill="rgb(205,205,160)"/>
<path d="M42 34h2v2h-2v-2z" fill="rgb(151,151,112)"/>
<path d="M44 34h2v2h-2v-2z" fill="rgb(130,130,95)"/>
<path d="M46 34h2v2h-2v-2z" fill="rgb(179,180,139)"/>
<path d="M52 34h2v2h-2v-2z" fill="rgb(71,71,46)"/>
<path d="M54 34h2v2h-2v-2z" fill="rgb(55,55,35)"/>
<path d="M56 34h6v2h-2v2h2v4h-2v2h-2v2h2v2h-4v-2h-2v-2h-2v-2h2v-2h-2v-2h2v-2h2
	v-2z" fill="rgb(41,41,23)"/>
<path d="M62 34h6v2h2v2h-2v2h-2v-4h-2v2h-4v-2h2v-2z" fill="rgb(55,55,35)"/>
<path d="M68 34h2v2h-2v-2z" fill="rgb(41,41,23)"/>
<path d="M70 34h2v2h-2v-2z" fill="rgb(55,55,35)"/>
<path d="M10 36h2v2h2v2h-2v2h-2v-6z" fill="rgb(71,71,46)"/>
<path d="M16 36h2v2h2v2h-2v2h-4v-2h2v-4z" fill="rgb(71,71,46)"/>
<path d="M24 36h2v4h-2v-4z" fill="rgb(55,55,35)"/>
<path d="M28 36h2v2h-2v-2z" fill="rgb(55,55,35)"/>
<path d="M30 36h2v2h-2v-2z" fill="rgb(71,71,46)"/>
<path d="M32 36h2v2h-2v-2z" fill="rgb(130,130,95)"/>
<path d="M34 36h2v2h-2v-2z" fill="rgb(151,151,112)"/>
<path d="M36 36h2v2h-2v-2z" fill="rgb(179,180,139)"/>
<path d="M38 36h2v2h-2v-2z" fill="rgb(130,130,95)"/>
<path d="M40 36h2v2h4v2h-4v4h-2v-4h-4v-2h4v-2z" fill="rgb(151,151,112)"/>
<path d="M42 36h2v2h-2v-2z" fill="rgb(130,130,95)"/>
<path d="M44 36h2v2h-2v-2z" fill="rgb(179,180,139)"/>
<path d="M46 36h2v2h-2v-2z" fill="rgb(151,151,112)"/>
<path d="M48 36h2v2h-2v-2z" fill="rgb(130,130,95)"/>
<path d="M50 36h2v2h-2v-2z" fill="rgb(71,71,46)"/>
<path d="M52 36h2v2h-2v-2z" fill="rgb(55,55,35)"/>
<path d="M56 36h2v4h-2v-4z" fill="rgb(55,55,35)"/>
<path d="M64 36h2v4h2v2h-4v-2h-2v-2h2v-2z" fill="rgb(71,71,46)"/>
<path d="M70 36h2v6h-2v-2h-2v-2h2v-2z" fill="rgb(71,71,46)"/>
<path d="M72 36h2v10h-2v2h-2v2h-2v2h-2v-2h-2v-2h4v-4h2v-2h2v-6z" fill="rgb(179,180,139)"/>
<path d="M30 38h2v2h-2v-2z" fill="rgb(55,55,35)"/>
<path d="M32 38h2v2h-2v-2z" fill="rgb(71,71,46)"/>
<path d="M34 38h2v2h-2v-2z" fill="rgb(130,130,95)"/>
<path d="M46 38h2v2h-2v-2z" fill="rgb(130,130,95)"/>
<path d="M48 38h2v2h-2v-2z" fill="rgb(71,71,46)"/>
<path d="M50 38h2v2h-2v-2z" fill="rgb(55,55,35)"/>
<path d="M0 40h2v14h-2v-14z" fill="rgb(30,28,12)"/>
<path d="M2 40h2v4h-2v-4z" fill="rgb(130,130,95)"/>
<path d="M4 40h2v2h2v4h-2v-2h-2v-4z" fill="rgb(151,151,112)"/>
<path d="M12 40h2v2h-2v-2z" fill="rgb(55,55,35)"/>
<path d="M18 40h2v2h2v2h-2v2h-2v-2h-4v-2h4v-2z" fill="rgb(55,55,35)"/>
<path d="M28 40h2v2h-2v-2z" fill="rgb(55,55,35)"/>
<path d="M30 40h2v2h-2v-2z" fill="rgb(41,41,23)"/>
<path d="M32 40h4v2h-2v2h-4v-2h2v-2z" fill="rgb(55,55,35)"/>
<path d="M36 40h2v4h-2v-4z" fill="rgb(179,180,139)"/>
<path d="M38 40h2v2h-2v-2z" fill="rgb(222,222,189)"/>
<path d="M42 40h2v4h-2v-4z" fill="rgb(205,205,160)"/>
<path d="M44 40h2v4h-2v-4z" fill="rgb(179,180,139)"/>
<path d="M46 40h4v2h2v2h-4v-2h-2v-2z" fill="rgb(55,55,35)"/>
<path d="M50 40h2v2h-2v-2z" fill="rgb(41,41,23)"/>
<path d="M52 40h2v2h-2v-2z" fill="rgb(55,55,35)"/>
<path d="M62 40h2v2h4v2h-4v2h-2v-2h-2v-2h2v-2z" fill="rgb(55,55,35)"/>
<path d="M68 40h2v2h-2v-2z" fill="rgb(55,55,35)"/>
<path d="M76 40h2v6h-2v-6z" fill="rgb(130,130,95)"/>
<path d="M78 40h2v10h-2v-10z" fill="rgb(30,28,12)"/>
<path d="M12 42h2v2h-2v-2z" fill="rgb(71,71,46)"/>
<path d="M34 42h2v2h-2v-2z" fill="rgb(71,71,46)"/>
<path d="M38 42h2v2h-2v-2z" fill="rgb(205,205,160)"/>
<path d="M46 42h2v2h-2v-2z" fill="rgb(71,71,46)"/>
<path d="M68 42h2v2h-2v-2z" fill="rgb(71,71,46)"/>
<path d="M2 44h2v2h-2v-2z" fill="rgb(113,113,82)"/>
<path d="M4 44h2v2h-2v-2z" fill="rgb(130,130,95)"/>
<path d="M14 44h2v4h-2v-4z" fill="rgb(71,71,46)"/>
<path d="M16 44h2v2h-2v-2z" fill="rgb(41,41,23)"/>
<path d="M20 44h2v2h-2v-2z" fill="rgb(41,41,23)"/>
<path d="M22 44h2v2h-2v-2z" fill="rgb(55,55,35)"/>
<path d="M28 44h2v4h-4v-2h2v-2z" fill="rgb(55,55,35)"/>
<path d="M30 44h2v2h-2v-2z" fill="rgb(41,41,23)"/>
<path d="M32 44h2v2h-2v-2z" fill="rgb(71,71,46)"/>
<path d="M34 44h2v4h-2v4h-2v-2h-2v2h2v6h-2v2h-2v-2h-2v-2h-2v-2h-8v-2h4v-2h8v-2
	h4v-2h2v-2z" fill="rgb(179,180,139)"/>
<path d="M36 44h2v2h-2v-2z" fill="rgb(205,205,160)"/>
<path d="M38 44h2v2h-2v-2z" fill="rgb(151,151,112)"/>
<path d="M40 44h2v2h-2v-2z" fill="rgb(130,130,95)"/>
<path d="M42 44h2v4h-2v-4z" fill="rgb(151,151,112)"/>
<path d="M44 44h2v4h-2v-4z" fill="rgb(205,205,160)"/>
<path d="M46 44h2v2h2v2h4v2h-2v2h2v2h-2v2h2v-2h2v-2h6v2h-4v2h-2v2h-2v4h2v8h-2
	v-6h-2v-2h-2v-2h-2v-2h-2v-4h2v2h2v-4h-2v-2h-2v-6z" fill="rgb(179,180,139)"/>
<path d="M48 44h2v2h-2v-2z" fill="rgb(71,71,46)"/>
<path d="M50 44h2v2h-2v-2z" fill="rgb(41,41,23)"/>
<path d="M52 44h2v2h2v2h-4v-4z" fill="rgb(55,55,35)"/>
<path d="M58 44h2v2h-2v-2z" fill="rgb(55,55,35)"/>
<path d="M60 44h2v2h-2v-2z" fill="rgb(41,41,23)"/>
<path d="M64 44h2v2h-2v-2z" fill="rgb(41,41,23)"/>
<path d="M66 44h2v4h-2v-4z" fill="rgb(71,71,46)"/>
<path d="M2 46h2v6h-2v-6z" fill="rgb(130,130,95)"/>
<path d="M4 46h2v6h-2v-6z" fill="rgb(151,151,112)"/>
<path d="M6 46h2v2h-2v-2z" fill="rgb(179,180,139)"/>
<path d="M8 46h2v2h-2v-2z" fill="rgb(222,222,189)"/>
<path d="M16 46h2v2h-2v-2z" fill="rgb(55,55,35)"/>
<path d="M18 46h2v2h-2v-2z" fill="rgb(41,41,23)"/>
<path d="M20 46h2v2h-2v-2z" fill="rgb(55,55,35)"/>
<path d="M30 46h2v2h-2v-2z" fill="rgb(71,71,46)"/>
<path d="M36 46h2v2h-2v-2z" fill="rgb(151,151,112)"/>
<path d="M38 46h2v2h-2v-2z" fill="rgb(130,130,95)"/>
<path d="M40 46h2v4h-2v-4z" fill="rgb(41,41,23)"/>
<path d="M50 46h2v2h-2v-2z" fill="rgb(71,71,46)"/>
<path d="M60 46h2v2h-2v-2z" fill="rgb(55,55,35)"/>
<path d="M62 46h2v2h-2v-2z" fill="rgb(41,41,23)"/>
<path d="M64 46h2v2h-2v-2z" fill="rgb(55,55,35)"/>
<path d="M72 46h2v4h-4v-2h2v-2z" fill="rgb(205,205,160)"/>
<path d="M6 48h6v4h-2v2h-2v-4h-2v-2z" fill="rgb(205,205,160)"/>
<path d="M18 48h4v2h-4v-2z" fill="rgb(71,71,46)"/>
<path d="M22 48h4v2h-4v-2z" fill="rgb(55,55,35)"/>
<path d="M26 48h2v2h-2v-2z" fill="rgb(71,71,46)"/>
<path d="M34 48h2v4h-2v-4z" fill="rgb(151,151,112)"/>
<path d="M36 48h2v6h-2v-6z" fill="rgb(130,130,95)"/>
<path d="M38 48h2v4h-2v-4z" fill="rgb(55,55,35)"/>
<path d="M42 48h2v2h-2v-2z" fill="rgb(130,130,95)"/>
<path d="M44 48h2v2h-2v-2z" fill="rgb(151,151,112)"/>
<path d="M54 48h2v2h-2v-2z" fill="rgb(71,71,46)"/>
<path d="M56 48h4v2h-4v-2z" fill="rgb(55,55,35)"/>
<path d="M60 48h4v2h-4v-2z" fill="rgb(71,71,46)"/>
<path d="M74 48h2v2h-2v-2z" fill="rgb(179,180,139)"/>
<path d="M6 50h2v2h-2v-2z" fill="rgb(222,222,189)"/>
<path d="M14 50h6v2h-4v2h-2v-4z" fill="rgb(205,205,160)"/>
<path d="M30 50h2v2h-2v-2z" fill="rgb(205,205,160)"/>
<path d="M40 50h2v2h2v2h-2v2h-2v-6z" fill="rgb(91,91,58)"/>
<path d="M42 50h2v2h-2v-2z" fill="rgb(55,55,35)"/>
<path d="M44 50h2v2h-2v-2z" fill="rgb(130,130,95)"/>
<path d="M46 50h2v2h-2v-2z" fill="rgb(151,151,112)"/>
<path d="M52 50h8v2h-4v2h-2v-2h-2v-2z" fill="rgb(205,205,160)"/>
<path d="M60 50h2v2h-2v-2z" fill="rgb(222,222,189)"/>
<path d="M62 50h4v2h-4v-2z" fill="rgb(205,205,160)"/>
<path d="M68 50h2v2h-2v-2z" fill="rgb(205,205,160)"/>
<path d="M70 50h4v4h-4v2h-4v-2h2v-2h2v-2z" fill="rgb(179,180,139)"/>
<path d="M74 50h2v6h-2v2h-12v-2h-2v2h-4v-2h2v-2h8v2h4v-2h4v-4z" fill="rgb(151,151,112)"/>
<path d="M76 50h2v12h-2v-12z" fill="rgb(30,28,12)"/>
<path d="M78 50h2v52h-32v-2h4v-2h4v-2h4v-2h2v-4h-2v-4h2v-4h2v-8h2v-6h2v-4h8v-2
	h2v-12z" fill="rgb(255,255,255)"/>
<path d="M2 52h2v2h-2v-2z" fill="rgb(151,151,112)"/>
<path d="M4 52h4v2h-4v-2z" fill="rgb(179,180,139)"/>
<path d="M10 52h4v2h-4v-2z" fill="rgb(222,222,189)"/>
<path d="M32 52h2v2h-2v-2z" fill="rgb(205,205,160)"/>
<path d="M34 52h2v2h-2v-2z" fill="rgb(179,180,139)"/>
<path d="M38 52h2v2h-2v-2z" fill="rgb(41,41,23)"/>
<path d="M44 52h2v2h-2v-2z" fill="rgb(55,55,35)"/>
<path d="M46 52h2v2h-2v-2z" fill="rgb(130,130,95)"/>
<path d="M48 52h2v2h-2v-2z" fill="rgb(151,151,112)"/>
<path d="M62 52h4v2h-4v-2z" fill="rgb(222,222,189)"/>
<path d="M66 52h2v2h-2v-2z" fill="rgb(205,205,160)"/>
<path d="M0 54h2v6h2v2h4v2h2v2h2v4h2v10h2v4h2v4h-2v2h2v2h2v2h2v2h4v2h4v2h4v2
	h-34v-48z" fill="rgb(255,255,255)"/>
<path d="M2 54h2v6h-2v-6z" fill="rgb(30,28,12)"/>
<path d="M4 54h4v2h6v2h-10v-4z" fill="rgb(151,151,112)"/>
<path d="M8 54h8v2h-8v-2z" fill="rgb(179,180,139)"/>
<path d="M16 54h8v2h-8v-2z" fill="rgb(151,151,112)"/>
<path d="M32 54h2v2h-2v-2z" fill="rgb(222,222,189)"/>
<path d="M34 54h2v2h-2v-2z" fill="rgb(130,130,95)"/>
<path d="M36 54h2v2h-2v-2z" fill="rgb(71,71,46)"/>
<path d="M38 54h2v4h-2v-4z" fill="rgb(55,55,35)"/>
<path d="M42 54h4v2h-4v-2z" fill="rgb(71,71,46)"/>
<path d="M48 54h2v2h-2v-2z" fill="rgb(130,130,95)"/>
<path d="M52 54h2v2h-2v-2z" fill="rgb(205,205,160)"/>
<path d="M14 56h10v2h2v2h-4v-2h-6v2h-2v2h-2v-4h2v-2z" fill="rgb(130,130,95)"/>
<path d="M24 56h2v2h-2v-2z" fill="rgb(151,151,112)"/>
<path d="M32 56h2v2h-2v-2z" fill="rgb(205,205,160)"/>
<path d="M34 56h2v2h-2v-2z" fill="rgb(179,180,139)"/>
<path d="M36 56h2v2h-2v-2z" fill="rgb(41,41,23)"/>
<path d="M40 56h2v4h-4v-2h2v-2z" fill="rgb(71,71,46)"/>
<path d="M42 56h2v4h2v2h-4v-6z" fill="rgb(55,55,35)"/>
<path d="M44 56h2v2h-2v-2z" fill="rgb(41,41,23)"/>
<path d="M60 56h2v2h12v2h-4v2h-4v-2h-6v2h4v2h-6v-4h-2v-2h4v-2z" fill="rgb(130,130,95)"/>
<path d="M74 56h2v2h-2v-2z" fill="rgb(130,130,95)"/>
<path d="M4 58h2v2h-2v-2z" fill="rgb(130,130,95)"/>
<path d="M6 58h6v4h-2v-2h-4v-2z" fill="rgb(113,113,82)"/>
<path d="M16 58h6v2h-4v2h-2v2h-4v-2h2v-2h2v-2z" fill="rgb(113,113,82)"/>
<path d="M26 58h2v2h-2v-2z" fill="rgb(151,151,112)"/>
<path d="M30 58h2v4h-2v-4z" fill="rgb(205,205,160)"/>
<path d="M32 58h2v4h-2v-4z" fill="rgb(179,180,139)"/>
<path d="M34 58h2v2h-2v-2z" fill="rgb(55,55,35)"/>
<path d="M36 58h2v2h-2v-2z" fill="rgb(91,91,58)"/>
<path d="M44 58h2v2h-2v-2z" fill="rgb(91,91,58)"/>
<path d="M46 58h2v2h-2v-2z" fill="rgb(55,55,35)"/>
<path d="M54 58h2v2h2v4h2v2h-2v2h-2v-6h-2v-4z" fill="rgb(151,151,112)"/>
<path d="M74 58h2v4h-4v-2h2v-2z" fill="rgb(113,113,82)"/>
<path d="M4 60h4v2h-4v-2z" fill="rgb(30,28,12)"/>
<path d="M8 60h2v2h-2v-2z" fill="rgb(91,91,58)"/>
<path d="M18 60h2v2h-2v-2z" fill="rgb(130,130,95)"/>
<path d="M20 60h2v6h-2v-2h-2v-2h2v-2z" fill="rgb(151,151,112)"/>
<path d="M22 60h4v2h-2v6h-2v-8z" fill="rgb(179,180,139)"/>
<path d="M26 60h2v2h-2v-2z" fill="rgb(205,205,160)"/>
<path d="M28 60h2v2h-2v-2z" fill="rgb(222,222,189)"/>
<path d="M34 60h2v2h-2v-2z" fill="rgb(71,71,46)"/>
<path d="M36 60h4v2h-4v-2z" fill="rgb(55,55,35)"/>
<path d="M40 60h2v2h-2v-2z" fill="rgb(41,41,23)"/>
<path d="M46 60h2v2h-2v-2z" fill="rgb(41,41,23)"/>
<path d="M48 60h2v2h-2v-2z" fill="rgb(205,205,160)"/>
<path d="M60 60h6v2h2v2h-4v-2h-4v-2z" fill="rgb(113,113,82)"/>
<path d="M70 60h2v2h4v2h-8v-2h2v-2z" fill="rgb(30,28,12)"/>
<path d="M8 62h4v4h-2v-2h-2v-2z" fill="rgb(30,28,12)"/>
<path d="M16 62h2v4h2v2h2v6h2v7h2v-1h2v-2h4v2h2v-6h2v2h4v-4h2v4h4v-2h2v6h2v-2h4
	v-2h2v-6h2v-2h2v-2h4v2h-2v2h-2v6h-2v4h-2v4h-2v-4h-2v2h-6v2h-2v-2h-4v2h-2v-2h-2
	v2h-2v-2h-2v2h-2v-2h-4v2h-2v-2h-2v-4h-2v-8h-2v-2h-2v-2h-2v-2h2v-2z" fill="rgb(30,28,12)"/>
<path d="M24 62h2v4h2v2h-2v2h-2v-8z" fill="rgb(205,205,160)"/>
<path d="M26 62h2v4h-2v-4z" fill="rgb(222,222,189)"/>
<path d="M28 62h2v2h2v-2h2v4h-2v4h-2v-4h-2v-4z" fill="rgb(205,205,160)"/>
<path d="M30 62h2v2h-2v-2z" fill="rgb(222,222,189)"/>
<path d="M34 62h2v2h-2v-2z" fill="rgb(179,180,139)"/>
<path d="M36 62h2v2h-2v-2z" fill="rgb(71,71,46)"/>
<path d="M38 62h2v2h-2v-2z" fill="rgb(41,41,23)"/>
<path d="M40 62h2v2h-2v-2z" fill="rgb(179,180,139)"/>
<path d="M42 62h2v2h-2v-2z" fill="rgb(41,41,23)"/>
<path d="M44 62h2v2h-2v-2z" fill="rgb(71,71,46)"/>
<path d="M46 62h2v2h-2v-2z" fill="rgb(179,180,139)"/>
<path d="M48 62h2v2h-2v-2z" fill="rgb(222,222,189)"/>
<path d="M50 62h2v2h-2v-2z" fill="rgb(205,205,160)"/>
<path d="M12 64h2v2h-2v-2z" fill="rgb(55,55,35)"/>
<path d="M18 64h2v2h-2v-2z" fill="rgb(55,55,35)"/>
<path d="M34 64h2v2h-2v-2z" fill="rgb(222,222,189)"/>
<path d="M36 64h4v2h-4v-2z" fill="rgb(179,180,139)"/>
<path d="M40 64h2v4h-2v-4z" fill="rgb(222,222,189)"/>
<path d="M42 64h4v2h-4v-2z" fill="rgb(179,180,139)"/>
<path d="M46 64h4v4h-8v-2h4v-2z" fill="rgb(205,205,160)"/>
<path d="M50 64h2v4h-2v-4z" fill="rgb(222,222,189)"/>
<path d="M52 64h2v8h-2v-2h-2v-2h2v-4z" fill="rgb(205,205,160)"/>
<path d="M60 64h4v2h-4v-2z" fill="rgb(113,113,82)"/>
<path d="M64 64h4v4h-2v-2h-2v-2z" fill="rgb(30,28,12)"/>
<path d="M12 66h2v4h-2v-4z" fill="rgb(30,28,12)"/>
<path d="M14 66h2v2h-2v-2z" fill="rgb(55,55,35)"/>
<path d="M20 66h2v2h-2v-2z" fill="rgb(55,55,35)"/>
<path d="M28 66h2v6h-2v2h-2v-2h-2v2h-2v-4h4v-2h2v-2z" fill="rgb(179,180,139)"/>
<path d="M32 66h2v2h-2v-2z" fill="rgb(222,222,189)"/>
<path d="M34 66h6v2h-6v-2z" fill="rgb(205,205,160)"/>
<path d="M58 66h2v2h-2v-2z" fill="rgb(55,55,35)"/>
<path d="M64 66h2v2h-2v-2z" fill="rgb(55,55,35)"/>
<path d="M14 68h4v2h-4v-2z" fill="rgb(71,71,46)"/>
<path d="M22 68h2v2h-2v-2z" fill="rgb(55,55,35)"/>
<path d="M32 68h2v2h-2v-2z" fill="rgb(179,180,139)"/>
<path d="M34 68h14v2h4v2h-4v2h-2v-4h-4v2h-2v-2h-4v4h-2v-2h-4v-2h4v-2z" fill="rgb(55,55,35)"/>
<path d="M48 68h2v2h-2v-2z" fill="rgb(179,180,139)"/>
<path d="M56 68h2v2h-2v-2z" fill="rgb(55,55,35)"/>
<path d="M62 68h2v2h-2v-2z" fill="rgb(91,91,58)"/>
<path d="M64 68h2v6h-2v-6z" fill="rgb(30,28,12)"/>
<path d="M14 70h2v10h-2v-10z" fill="rgb(30,28,12)"/>
<path d="M16 70h2v2h2v4h-2v-2h-2v-4z" fill="rgb(55,55,35)"/>
<path d="M18 70h2v2h-2v-2z" fill="rgb(130,130,95)"/>
<path d="M36 70h4v2h-4v-2z" fill="rgb(222,222,189)"/>
<path d="M42 70h4v2h-2v2h-2v-4z" fill="rgb(222,222,189)"/>
<path d="M54 70h2v2h-2v-2z" fill="rgb(55,55,35)"/>
<path d="M60 70h2v2h-2v-2z" fill="rgb(71,71,46)"/>
<path d="M62 70h2v2h-2v-2z" fill="rgb(55,55,35)"/>
<path d="M24 72h2v9h-2v-9z" fill="rgb(55,55,35)"/>
<path d="M28 72h2v2h-2v-2z" fill="rgb(55,55,35)"/>
<path d="M30 72h2v2h-2v-2z" fill="rgb(30,28,12)"/>
<path d="M32 72h2v2h-2v-2z" fill="rgb(222,222,189)"/>
<path d="M36 72h4v4h-2v-2h-2v-2z" fill="rgb(205,205,160)"/>
<path d="M44 72h2v2h-2v-2z" fill="rgb(205,205,160)"/>
<path d="M48 72h2v2h-2v-2z" fill="rgb(222,222,189)"/>
<path d="M50 72h2v2h-2v-2z" fill="rgb(30,28,12)"/>
<path d="M52 72h2v2h-2v-2z" fill="rgb(55,55,35)"/>
<path d="M54 72h2v2h-2v-2z" fill="rgb(205,205,160)"/>
<path d="M60 72h2v4h-2v-4z" fill="rgb(55,55,35)"/>
<path d="M62 72h2v2h-2v-2z" fill="rgb(71,71,46)"/>
<path d="M16 74h2v2h2v4h-2v-2h-2v-4z" fill="rgb(71,71,46)"/>
<path d="M26 74h4v2h-4v-2z" fill="rgb(30,28,12)"/>
<path d="M30 74h2v2h-2v-2z" fill="rgb(222,222,189)"/>
<path d="M32 74h2v4h-4v-2h2v-2z" fill="rgb(205,205,160)"/>
<path d="M36 74h2v2h-2v-2z" fill="rgb(179,180,139)"/>
<path d="M42 74h2v2h-2v-2z" fill="rgb(205,205,160)"/>
<path d="M44 74h2v2h-2v-2z" fill="rgb(179,180,139)"/>
<path d="M48 74h2v2h2v2h-4v-4z" fill="rgb(205,205,160)"/>
<path d="M50 74h2v2h-2v-2z" fill="rgb(222,222,189)"/>
<path d="M52 74h2v2h-2v-2z" fill="rgb(30,28,12)"/>
<path d="M54 74h2v2h-2v-2z" fill="rgb(179,180,139)"/>
<path d="M62 74h2v8h-2v-8z" fill="rgb(30,28,12)"/>
<path d="M26 76h2v2h-2v-2z" fill="rgb(222,222,189)"/>
<path d="M28 76h2v2h-2v-2z" fill="rgb(55,55,35)"/>
<path d="M52 76h2v2h-2v-2z" fill="rgb(55,55,35)"/>
<path d="M58 76h2v2h-2v-2z" fill="rgb(91,91,58)"/>
<path d="M60 76h2v4h-2v-4z" fill="rgb(71,71,46)"/>
<path d="M16 78h2v2h-2v-2z" fill="rgb(91,91,58)"/>
<path d="M20 78h2v2h-2v-2z" fill="rgb(130,130,95)"/>
<path d="M26 78h2v2h-2v-2z" fill="rgb(205,205,160)"/>
<path d="M32 78h2v2h-2v-2z" fill="rgb(179,180,139)"/>
<path d="M48 78h2v2h-2v-2z" fill="rgb(179,180,139)"/>
<path d="M58 78h2v2h-2v-2z" fill="rgb(55,55,35)"/>
<path d="M16 80h2v4h-2v-4z" fill="rgb(30,28,12)"/>
<path d="M18 80h2v2h-2v-2z" fill="rgb(91,91,58)"/>
<path d="M20 80h2v2h-2v-2z" fill="rgb(71,71,46)"/>
<path d="M52 80h2v2h-2v-2z" fill="rgb(222,222,189)"/>
<path d="M56 80h2v2h-2v-2z" fill="rgb(130,130,95)"/>
<path d="M58 80h2v4h-4v-2h2v-2z" fill="rgb(71,71,46)"/>
<path d="M60 80h2v2h-2v-2z" fill="rgb(91,91,58)"/>
<path d="M18 82h2v2h-2v-2z" fill="rgb(71,71,46)"/>
<path d="M20 82h2v6h-2v-6z" fill="rgb(55,55,35)"/>
<path d="M22 82h2v2h-2v-2z" fill="rgb(130,130,95)"/>
<path d="M26 82h2v2h-2v-2z" fill="rgb(55,55,35)"/>
<path d="M28 82h2v2h-2v-2z" fill="rgb(222,222,189)"/>
<path d="M32 82h2v2h-2v-2z" fill="rgb(205,205,160)"/>
<path d="M36 82h2v2h-2v-2z" fill="rgb(222,222,189)"/>
<path d="M40 82h2v2h-2v-2z" fill="rgb(222,222,189)"/>
<path d="M42 82h2v2h-2v-2z" fill="rgb(205,205,160)"/>
<path d="M46 82h2v2h-2v-2z" fill="rgb(222,222,189)"/>
<path d="M48 82h2v2h-2v-2z" fill="rgb(205,205,160)"/>
<path d="M50 82h2v2h-2v-2z" fill="rgb(55,55,35)"/>
<path d="M52 82h2v2h-2v-2z" fill="rgb(205,205,160)"/>
<path d="M60 82h2v4h-2v-4z" fill="rgb(30,28,12)"/>
<path d="M18 84h2v4h-2v-4z" fill="rgb(30,28,12)"/>
<path d="M22 84h2v4h-2v-4z" fill="rgb(91,91,58)"/>
<path d="M24 84h2v2h-2v-2z" fill="rgb(179,180,139)"/>
<path d="M26 84h2v2h-2v-2z" fill="rgb(30,28,12)"/>
<path d="M28 84h2v2h-2v-2z" fill="rgb(205,205,160)"/>
<path d="M30 84h2v2h2v-2h2v2h2v-2h2v2h4v-2h2v2h2v-2h2v6h-2v-2h-16v2h-2v-2h-2v-2
	h2v-2z" fill="rgb(55,55,35)"/>
<path d="M32 84h2v2h-2v-2z" fill="rgb(179,180,139)"/>
<path d="M36 84h2v2h-2v-2z" fill="rgb(205,205,160)"/>
<path d="M40 84h2v2h-2v-2z" fill="rgb(205,205,160)"/>
<path d="M42 84h2v2h-2v-2z" fill="rgb(179,180,139)"/>
<path d="M46 84h2v2h-2v-2z" fill="rgb(205,205,160)"/>
<path d="M50 84h4v4h-2v-2h-2v-2z" fill="rgb(30,28,12)"/>
<path d="M54 84h2v2h-2v-2z" fill="rgb(130,130,95)"/>
<path d="M56 84h2v6h-2v-6z" fill="rgb(55,55,35)"/>
<path d="M58 84h2v2h-2v-2z" fill="rgb(91,91,58)"/>
<path d="M24 86h2v4h2v4h-2v-2h-2v-6z" fill="rgb(151,151,112)"/>
<path d="M26 86h2v2h-2v-2z" fill="rgb(205,205,160)"/>
<path d="M50 86h2v2h-2v-2z" fill="rgb(151,151,112)"/>
<path d="M54 86h2v4h-2v-4z" fill="rgb(91,91,58)"/>
<path d="M58 86h2v4h-2v-4z" fill="rgb(30,28,12)"/>
<path d="M16 88h2v2h-2v-2z" fill="rgb(30,28,12)"/>
<path d="M18 88h2v2h-2v-2z" fill="rgb(71,71,46)"/>
<path d="M20 88h2v4h-2v-4z" fill="rgb(91,91,58)"/>
<path d="M22 88h2v4h-2v-4z" fill="rgb(130,130,95)"/>
<path d="M26 88h4v2h-4v-2z" fill="rgb(179,180,139)"/>
<path d="M32 88h16v2h4v2h-4v2h-6v-4h-2v2h-2v-2h-2v2h2v2h-4v-2h-4v-2h2v-2z" fill="rgb(179,180,139)"/>
<path d="M50 88h2v2h-2v-2z" fill="rgb(205,205,160)"/>
<path d="M52 88h2v2h-2v-2z" fill="rgb(130,130,95)"/>
<path d="M18 90h2v2h-2v-2z" fill="rgb(30,28,12)"/>
<path d="M28 90h2v2h-2v-2z" fill="rgb(222,222,189)"/>
<path d="M36 90h2v2h-2v-2z" fill="rgb(205,205,160)"/>
<path d="M40 90h2v4h-2v2h-2v2h-2v-2h-6v-2h-2v-2h4v2h6v-2h2v-2z" fill="rgb(205,205,160)"/>
<path d="M52 90h2v4h-2v2h-2v-4h2v-2z" fill="rgb(151,151,112)"/>
<path d="M54 90h2v4h-2v-4z" fill="rgb(130,130,95)"/>
<path d="M56 90h4v2h-2v2h-2v-4z" fill="rgb(91,91,58)"/>
<path d="M60 90h2v4h-2v-4z" fill="rgb(30,28,12)"/>
<path d="M20 92h2v2h-2v-2z" fill="rgb(30,28,12)"/>
<path d="M22 92h2v2h-2v-2z" fill="rgb(91,91,58)"/>
<path d="M24 92h2v2h-2v-2z" fill="rgb(130,130,95)"/>
<path d="M32 92h2v2h-2v-2z" fill="rgb(222,222,189)"/>
<path d="M48 92h2v2h-2v-2z" fill="rgb(222,222,189)"/>
<path d="M58 92h2v2h-2v-2z" fill="rgb(71,71,46)"/>
<path d="M22 94h4v2h-4v-2z" fill="rgb(30,28,12)"/>
<path d="M26 94h2v2h-2v-2z" fill="rgb(130,130,95)"/>
<path d="M28 94h2v2h-2v-2z" fill="rgb(151,151,112)"/>
<path d="M40 94h2v2h-2v-2z" fill="rgb(179,180,139)"/>
<path d="M42 94h2v2h-2v-2z" fill="rgb(222,222,189)"/>
<path d="M44 94h2v2h2v2h-8v-2h4v-2z" fill="rgb(205,205,160)"/>
<path d="M46 94h2v2h-2v-2z" fill="rgb(222,222,189)"/>
<path d="M48 94h2v2h-2v-2z" fill="rgb(205,205,160)"/>
<path d="M52 94h2v2h-2v-2z" fill="rgb(130,130,95)"/>
<path d="M54 94h2v2h-2v-2z" fill="rgb(91,91,58)"/>
<path d="M56 94h4v2h-4v-2z" fill="rgb(30,28,12)"/>
<path d="M26 96h4v2h-4v-2z" fill="rgb(30,28,12)"/>
<path d="M30 96h2v2h-2v-2z" fill="rgb(179,180,139)"/>
<path d="M32 96h4v2h-4v-2z" fill="rgb(222,222,189)"/>
<path d="M38 96h2v2h-2v-2z" fill="rgb(222,222,189)"/>
<path d="M48 96h2v2h-2v-2z" fill="rgb(151,151,112)"/>
<path d="M50 96h2v2h-2v-2z" fill="rgb(130,130,95)"/>
<path d="M52 96h4v2h-4v-2z" fill="rgb(30,28,12)"/>
<path d="M30 98h4v2h-4v-2z" fill="rgb(30,28,12)"/>
<path d="M34 98h14v2h-14v-2z" fill="rgb(179,180,139)"/>
<path d="M48 98h4v2h-4v-2z" fill="rgb(30,28,12)"/>
<path d="M34 100h14v2h-14v-2z" fill="rgb(30,28,12)"/>
</svg>