<?xml version="1.0" encoding="utf-8"?>
<!-- generated at drububu.com  -->
<!DOCTYPE svg PUBLIC "-//W3C//DTD SVG 1.1//EN" "http://www.w3.org/Graphics/SVG/1.1/DTD/svg11.dtd">
<svg version="1.1" preserveAspectRatio="xMinYMin meet" xmlns="http://www.w3.org/2000/svg" xmlns:xlink="http://www.w3.org/1999/xlink" x="0px" y="0px" width="110px" height="152px" viewBox="0 0 110 152">
<path d="M0 0h54v2h-2v2h-2v4h-2v6h2v2h2v2h2v4h2v4h-2v6h-2v4h-2v2h-4v-2h-2v2h2v2
	h-4v-4h-2v-6h2v-8h2v-4h-2v-2h-2v-4h-2v-2h-4v-2h-4v2h4v2h2v2h2v2h2v8h-2v6h-2v8
	h2v4h-4v-2h-2v-4h-4v2h2v4h2v2h-4v2h-4v-2h-2v-4h-2v-2h-2v-2h-4v-4h-2v-2h-2v-2h2
	v-2h-2v-4h-2v-6h-2v-2h-2v-2h-2v4h2v2h2v2h-2v2h2v2h2v8h2v2h2v6h4v2h2v12h-2v2h-2
	v-10h-2v-2h-2v4h2v14h-2v2h-2v2h-2v4h-2v6h-2v12h-2v-88z" fill="rgb(255,255,255)"/>
<path d="M54 0h2v2h-2v-2z" fill="rgb(236,95,95)"/>
<path d="M56 0h54v88h-2v-10h-2v-8h-2v-2h-2v-4h-2v-2h-2v-2h-2v-12h-2v6h-2v-12h2
	v-2h2v-4h2v-14h2v-4h-2v2h-2v12h-2v2h-2v4h-2v6h-4v2h-4v-6h-2v2h-6v-6h2v-2h2v-8
	h-2v-2h-2v-8h-2v-4h-2v6h2v8h2v2h2v4h-2v2h-2v4h-2v2h-6v-2h-2v2h-2v-2h-2v-2h-2v-6
	h2v-4h2v-6h-2v-2h-2v-2h-2v-2h-2v-2h-2v-2h2v-2h2v-4h2v-4z" fill="rgb(255,255,255)"/>
<path d="M52 2h2v2h-2v-2z" fill="rgb(236,95,95)"/>
<path d="M54 2h2v2h-2v-2z" fill="rgb(221,22,22)"/>
<path d="M50 4h2v2h-2v-2z" fill="rgb(236,95,95)"/>
<path d="M52 4h2v4h-2v-4z" fill="rgb(221,22,22)"/>
<path d="M72 4h2v2h-2v-2z" fill="rgb(236,95,95)"/>
<path d="M50 6h2v2h-2v-2z" fill="rgb(182,32,32)"/>
<path d="M70 6h2v2h-2v-2z" fill="rgb(236,95,95)"/>
<path d="M30 8h2v2h-2v-2z" fill="rgb(182,32,32)"/>
<path d="M32 8h2v2h-2v-2z" fill="rgb(236,95,95)"/>
<path d="M48 8h2v2h-2v-2z" fill="rgb(236,95,95)"/>
<path d="M50 8h2v2h-2v-2z" fill="rgb(221,22,22)"/>
<path d="M68 8h2v2h-2v-2z" fill="rgb(182,32,32)"/>
<path d="M70 8h2v2h-2v-2z" fill="rgb(221,22,22)"/>
<path d="M34 10h2v2h-2v-2z" fill="rgb(182,32,32)"/>
<path d="M36 10h2v2h-2v-2z" fill="rgb(236,95,95)"/>
<path d="M48 10h2v4h-2v-4z" fill="rgb(182,32,32)"/>
<path d="M68 10h2v2h-2v-2z" fill="rgb(221,22,22)"/>
<path d="M2 12h2v2h-2v-2z" fill="rgb(236,95,95)"/>
<path d="M36 12h4v4h-2v-2h-2v-2z" fill="rgb(221,22,22)"/>
<path d="M50 12h2v2h-2v-2z" fill="rgb(221,22,22)"/>
<path d="M70 12h2v4h-2v-4z" fill="rgb(221,22,22)"/>
<path d="M2 14h2v2h-2v-2z" fill="rgb(221,22,22)"/>
<path d="M4 14h2v2h-2v-2z" fill="rgb(236,95,95)"/>
<path d="M50 14h2v2h-2v-2z" fill="rgb(182,32,32)"/>
<path d="M52 14h2v2h-2v-2z" fill="rgb(236,95,95)"/>
<path d="M4 16h2v2h-2v-2z" fill="rgb(182,32,32)"/>
<path d="M6 16h2v2h-2v-2z" fill="rgb(236,95,95)"/>
<path d="M40 16h2v2h-2v-2z" fill="rgb(236,95,95)"/>
<path d="M52 16h2v2h-2v-2z" fill="rgb(141,24,24)"/>
<path d="M54 16h2v2h-2v-2z" fill="rgb(221,22,22)"/>
<path d="M70 16h2v2h-2v-2z" fill="rgb(182,32,32)"/>
<path d="M72 16h2v4h-2v-4z" fill="rgb(236,95,95)"/>
<path d="M6 18h2v6h-2v-6z" fill="rgb(182,32,32)"/>
<path d="M40 18h2v2h-2v-2z" fill="rgb(221,22,22)"/>
<path d="M42 18h2v2h-2v-2z" fill="rgb(236,95,95)"/>
<path d="M54 18h2v4h-2v-4z" fill="rgb(182,32,32)"/>
<path d="M56 18h2v2h-2v-2z" fill="rgb(236,95,95)"/>
<path d="M98 18h2v2h-2v-2z" fill="rgb(236,95,95)"/>
<path d="M4 20h2v2h-2v-2z" fill="rgb(221,22,22)"/>
<path d="M40 20h2v6h-2v-6z" fill="rgb(182,32,32)"/>
<path d="M42 20h2v2h-2v-2z" fill="rgb(221,22,22)"/>
<path d="M56 20h4v4h-2v-2h-2v-2z" fill="rgb(221,22,22)"/>
<path d="M72 20h2v2h-2v-2z" fill="rgb(182,32,32)"/>
<path d="M96 20h2v6h-2v-6z" fill="rgb(221,22,22)"/>
<path d="M98 20h2v2h-2v-2z" fill="rgb(182,32,32)"/>
<path d="M8 22h2v2h-2v-2z" fill="rgb(236,95,95)"/>
<path d="M56 22h2v2h-2v-2z" fill="rgb(182,32,32)"/>
<path d="M72 22h2v4h-2v-4z" fill="rgb(221,22,22)"/>
<path d="M8 24h2v6h-2v-6z" fill="rgb(182,32,32)"/>
<path d="M38 24h2v2h-2v-2z" fill="rgb(221,22,22)"/>
<path d="M56 24h2v2h-2v-2z" fill="rgb(221,22,22)"/>
<path d="M58 24h2v2h-2v-2z" fill="rgb(182,32,32)"/>
<path d="M74 24h2v2h-2v-2z" fill="rgb(182,32,32)"/>
<path d="M10 26h2v2h-2v-2z" fill="rgb(236,95,95)"/>
<path d="M38 26h2v12h-2v-6h-2v-2h2v-4z" fill="rgb(182,32,32)"/>
<path d="M40 26h2v2h-2v-2z" fill="rgb(221,22,22)"/>
<path d="M54 26h2v2h-2v-2z" fill="rgb(126,30,30)"/>
<path d="M56 26h2v4h-2v-4z" fill="rgb(141,24,24)"/>
<path d="M74 26h2v2h-2v-2z" fill="rgb(221,22,22)"/>
<path d="M76 26h2v4h-2v-4z" fill="rgb(236,95,95)"/>
<path d="M96 26h2v8h-2v-8z" fill="rgb(182,32,32)"/>
<path d="M40 28h2v2h-2v-2z" fill="rgb(126,30,30)"/>
<path d="M54 28h2v4h-2v-4z" fill="rgb(182,32,32)"/>
<path d="M8 30h2v2h-2v-2z" fill="rgb(126,30,30)"/>
<path d="M10 30h2v2h-2v-2z" fill="rgb(236,95,95)"/>
<path d="M76 30h2v2h-2v-2z" fill="rgb(182,32,32)"/>
<path d="M10 32h2v2h-2v-2z" fill="rgb(126,30,30)"/>
<path d="M12 32h2v2h-2v-2z" fill="rgb(236,95,95)"/>
<path d="M36 32h2v2h-2v-2z" fill="rgb(221,22,22)"/>
<path d="M52 32h2v4h-2v-4z" fill="rgb(126,30,30)"/>
<path d="M54 32h2v4h2v2h2v2h-6v-8z" fill="rgb(141,24,24)"/>
<path d="M64 32h2v2h-2v-2z" fill="rgb(236,95,95)"/>
<path d="M74 32h2v4h-2v-4z" fill="rgb(182,32,32)"/>
<path d="M76 32h2v2h-2v-2z" fill="rgb(221,22,22)"/>
<path d="M94 32h2v2h-2v-2z" fill="rgb(236,95,95)"/>
<path d="M12 34h2v2h2v2h2v2h-4v-2h-2v-4z" fill="rgb(182,32,32)"/>
<path d="M36 34h2v4h-2v-4z" fill="rgb(126,30,30)"/>
<path d="M64 34h2v4h-2v-4z" fill="rgb(182,32,32)"/>
<path d="M72 34h2v4h-2v-4z" fill="rgb(141,24,24)"/>
<path d="M92 34h2v2h-2v-2z" fill="rgb(236,95,95)"/>
<path d="M94 34h2v4h-2v2h-2v-4h2v-2z" fill="rgb(182,32,32)"/>
<path d="M96 34h2v2h-2v-2z" fill="rgb(221,22,22)"/>
<path d="M16 36h2v2h-2v-2z" fill="rgb(221,22,22)"/>
<path d="M28 36h2v2h-2v-2z" fill="rgb(221,22,22)"/>
<path d="M30 36h2v2h-2v-2z" fill="rgb(236,95,95)"/>
<path d="M40 36h2v2h-2v-2z" fill="rgb(221,22,22)"/>
<path d="M44 36h2v2h-2v-2z" fill="rgb(221,22,22)"/>
<path d="M50 36h2v2h-2v-2z" fill="rgb(126,30,30)"/>
<path d="M52 36h2v6h-2v-6z" fill="rgb(182,32,32)"/>
<path d="M12 38h2v2h-2v-2z" fill="rgb(126,30,30)"/>
<path d="M18 38h2v2h-2v-2z" fill="rgb(221,22,22)"/>
<path d="M30 38h2v2h-2v-2z" fill="rgb(221,22,22)"/>
<path d="M38 38h2v2h-2v-2z" fill="rgb(126,30,30)"/>
<path d="M40 38h2v2h-2v-2z" fill="rgb(141,24,24)"/>
<path d="M46 38h2v2h2v2h-4v-4z" fill="rgb(182,32,32)"/>
<path d="M48 38h2v2h-2v-2z" fill="rgb(126,30,30)"/>
<path d="M50 38h2v4h-2v-4z" fill="rgb(141,24,24)"/>
<path d="M62 38h2v2h-2v-2z" fill="rgb(126,30,30)"/>
<path d="M70 38h2v4h-4v-2h2v-2z" fill="rgb(141,24,24)"/>
<path d="M72 38h2v6h-2v2h-2v-2h-2v-2h4v-4z" fill="rgb(182,32,32)"/>
<path d="M82 38h2v2h-2v-2z" fill="rgb(236,95,95)"/>
<path d="M90 38h2v2h-2v-2z" fill="rgb(141,24,24)"/>
<path d="M94 38h2v2h-2v-2z" fill="rgb(126,30,30)"/>
<path d="M16 40h2v2h-2v-2z" fill="rgb(126,30,30)"/>
<path d="M18 40h2v2h2v4h2v6h2v-2h2v2h2v6h-2v-4h-2v2h-2v-2h-2v-4h-2v-6h-2v-4z" fill="rgb(182,32,32)"/>
<path d="M20 40h2v2h-2v-2z" fill="rgb(221,22,22)"/>
<path d="M30 40h2v2h-2v-2z" fill="rgb(182,32,32)"/>
<path d="M32 40h2v2h-2v-2z" fill="rgb(221,22,22)"/>
<path d="M38 40h2v2h-2v-2z" fill="rgb(141,24,24)"/>
<path d="M40 40h2v2h4v2h-4v2h-2v2h-2v-2h-2v-2h4v-4z" fill="rgb(182,32,32)"/>
<path d="M42 40h4v2h-4v-2z" fill="rgb(141,24,24)"/>
<path d="M54 40h4v2h-2v2h-2v2h-4v2h-2v2h-2v-2h-2v-2h-2v-2h4v2h2v-2h2v-2h4v-2z" fill="rgb(221,22,22)"/>
<path d="M58 40h2v2h-2v-2z" fill="rgb(182,32,32)"/>
<path d="M60 40h2v2h2v2h-4v2h-2v-4h2v-2z" fill="rgb(221,22,22)"/>
<path d="M62 40h2v2h-2v-2z" fill="rgb(182,32,32)"/>
<path d="M64 40h4v2h-4v-2z" fill="rgb(101,23,23)"/>
<path d="M80 40h2v2h-2v-2z" fill="rgb(141,24,24)"/>
<path d="M90 40h2v4h-2v-4z" fill="rgb(182,32,32)"/>
<path d="M92 40h2v2h-2v-2z" fill="rgb(126,30,30)"/>
<path d="M32 42h2v6h-2v-6z" fill="rgb(182,32,32)"/>
<path d="M34 42h2v2h-2v-2z" fill="rgb(221,22,22)"/>
<path d="M36 42h4v2h-4v-2z" fill="rgb(101,23,23)"/>
<path d="M46 42h4v2h-4v-2z" fill="rgb(141,24,24)"/>
<path d="M56 42h2v2h-2v-2z" fill="rgb(182,32,32)"/>
<path d="M64 42h2v2h-2v-2z" fill="rgb(182,32,32)"/>
<path d="M66 42h2v2h-2v-2z" fill="rgb(221,22,22)"/>
<path d="M74 42h6v2h-6v-2z" fill="rgb(141,24,24)"/>
<path d="M80 42h2v2h-2v-2z" fill="rgb(182,32,32)"/>
<path d="M10 44h2v4h-2v-4z" fill="rgb(221,22,22)"/>
<path d="M18 44h2v2h-2v-2z" fill="rgb(126,30,30)"/>
<path d="M22 44h2v2h-2v-2z" fill="rgb(141,24,24)"/>
<path d="M28 44h2v2h-2v-2z" fill="rgb(101,23,23)"/>
<path d="M30 44h2v2h-2v-2z" fill="rgb(221,22,22)"/>
<path d="M34 44h2v2h-2v-2z" fill="rgb(141,24,24)"/>
<path d="M46 44h2v2h-2v-2z" fill="rgb(182,32,32)"/>
<path d="M54 44h4v2h6v2h-4v2h-2v-2h-2v-2h-2v-2z" fill="rgb(236,95,95)"/>
<path d="M60 44h4v2h-4v-2z" fill="rgb(182,32,32)"/>
<path d="M64 44h2v2h-2v-2z" fill="rgb(221,22,22)"/>
<path d="M66 44h4v2h-4v-2z" fill="rgb(236,95,95)"/>
<path d="M72 44h4v2h-4v-2z" fill="rgb(236,95,95)"/>
<path d="M76 44h4v2h-4v-2z" fill="rgb(182,32,32)"/>
<path d="M80 44h2v4h-2v-4z" fill="rgb(141,24,24)"/>
<path d="M86 44h2v2h-2v-2z" fill="rgb(182,32,32)"/>
<path d="M88 44h4v2h-2v6h-4v-2h2v-2h-2v-2h2v-2z" fill="rgb(141,24,24)"/>
<path d="M12 46h2v2h-2v-2z" fill="rgb(182,32,32)"/>
<path d="M18 46h2v4h2v2h-2v2h-2v-8z" fill="rgb(101,23,23)"/>
<path d="M24 46h2v2h2v2h-2v2h-2v-6z" fill="rgb(141,24,24)"/>
<path d="M26 46h2v2h-2v-2z" fill="rgb(101,23,23)"/>
<path d="M28 46h4v2h-4v-2z" fill="rgb(141,24,24)"/>
<path d="M34 46h4v2h-2v2h-4v2h-2v-4h4v-2z" fill="rgb(221,22,22)"/>
<path d="M40 46h2v2h2v2h-2v2h-2v-2h-2v-2h2v-2z" fill="rgb(221,22,22)"/>
<path d="M42 46h2v2h-2v-2z" fill="rgb(182,32,32)"/>
<path d="M50 46h4v2h-4v-2z" fill="rgb(236,95,95)"/>
<path d="M54 46h2v2h-2v-2z" fill="rgb(221,22,22)"/>
<path d="M64 46h2v2h-2v-2z" fill="rgb(182,32,32)"/>
<path d="M66 46h4v2h-2v2h-2v-4z" fill="rgb(221,22,22)"/>
<path d="M70 46h2v2h-2v-2z" fill="rgb(236,95,95)"/>
<path d="M72 46h2v2h-2v-2z" fill="rgb(182,32,32)"/>
<path d="M74 46h4v2h4v2h-6v-2h-2v-2z" fill="rgb(221,22,22)"/>
<path d="M78 46h2v2h-2v-2z" fill="rgb(236,95,95)"/>
<path d="M82 46h4v2h-4v-2z" fill="rgb(101,23,23)"/>
<path d="M90 46h2v4h-2v-4z" fill="rgb(182,32,32)"/>
<path d="M12 48h2v2h-2v-2z" fill="rgb(221,22,22)"/>
<path d="M28 48h2v2h-2v-2z" fill="rgb(182,32,32)"/>
<path d="M36 48h2v2h-2v-2z" fill="rgb(182,32,32)"/>
<path d="M44 48h2v14h-2v-10h-2v-2h2v-2z" fill="rgb(182,32,32)"/>
<path d="M48 48h2v2h-2v-2z" fill="rgb(236,95,95)"/>
<path d="M50 48h4v2h2v2h4v2h-2v2h-2v2h-2v4h-2v4h-4v-8h-2v-6h2v-2h2v-2z" fill="rgb(231,231,231)"/>
<path d="M54 48h2v2h-2v-2z" fill="rgb(182,32,32)"/>
<path d="M56 48h2v2h-2v-2z" fill="rgb(221,22,22)"/>
<path d="M60 48h4v4h-2v-2h-2v-2z" fill="rgb(221,22,22)"/>
<path d="M64 48h2v6h-2v2h-2v-4h2v-4z" fill="rgb(236,95,95)"/>
<path d="M68 48h2v2h-2v-2z" fill="rgb(182,32,32)"/>
<path d="M70 48h2v2h-2v-2z" fill="rgb(221,22,22)"/>
<path d="M72 48h4v2h-4v-2z" fill="rgb(236,95,95)"/>
<path d="M82 48h2v2h-2v-2z" fill="rgb(182,32,32)"/>
<path d="M84 48h2v2h-2v-2z" fill="rgb(141,24,24)"/>
<path d="M86 48h2v2h-2v-2z" fill="rgb(182,32,32)"/>
<path d="M94 48h2v2h-2v-2z" fill="rgb(236,95,95)"/>
<path d="M12 50h2v2h-2v-2z" fill="rgb(182,32,32)"/>
<path d="M28 50h2v2h-2v-2z" fill="rgb(126,30,30)"/>
<path d="M32 50h2v2h-2v-2z" fill="rgb(126,30,30)"/>
<path d="M34 50h2v2h-2v-2z" fill="rgb(182,32,32)"/>
<path d="M36 50h2v2h4v4h-2v4h-2v4h-2v2h-2v-2h-2v-6h-2v-4h2v-2h4v-2z" fill="rgb(216,216,216)"/>
<path d="M38 50h2v2h-2v-2z" fill="rgb(182,32,32)"/>
<path d="M46 50h2v2h-2v-2z" fill="rgb(236,95,95)"/>
<path d="M56 50h4v2h-4v-2z" fill="rgb(182,32,32)"/>
<path d="M60 50h2v2h-2v-2z" fill="rgb(236,95,95)"/>
<path d="M66 50h2v2h-2v-2z" fill="rgb(182,32,32)"/>
<path d="M68 50h2v2h-2v-2z" fill="rgb(221,22,22)"/>
<path d="M70 50h2v2h-2v-2z" fill="rgb(236,95,95)"/>
<path d="M72 50h4v2h-4v-2z" fill="rgb(182,32,32)"/>
<path d="M76 50h6v2h6v4h-2v-2h-2v2h-2v-2h-4v-2h-2v-2z" fill="rgb(236,95,95)"/>
<path d="M82 50h2v2h-2v-2z" fill="rgb(221,22,22)"/>
<path d="M84 50h2v2h-2v-2z" fill="rgb(182,32,32)"/>
<path d="M90 50h2v2h-2v-2z" fill="rgb(101,23,23)"/>
<path d="M94 50h2v2h-2v-2z" fill="rgb(182,32,32)"/>
<path d="M12 52h2v4h-2v-4z" fill="rgb(126,30,30)"/>
<path d="M20 52h2v2h-2v-2z" fill="rgb(141,24,24)"/>
<path d="M30 52h2v2h-2v-2z" fill="rgb(236,95,95)"/>
<path d="M42 52h2v2h-2v-2z" fill="rgb(157,28,28)"/>
<path d="M60 52h2v2h-2v-2z" fill="rgb(182,32,32)"/>
<path d="M66 52h2v2h-2v-2z" fill="rgb(221,22,22)"/>
<path d="M68 52h2v2h-2v-2z" fill="rgb(236,95,95)"/>
<path d="M70 52h8v2h4v2h4v2h2v4h2v2h2v6h-2v-2h-2v-4h-2v-2h-2v-2h-4v-2h-2v-2h-4
	v-2h-4v-2z" fill="rgb(231,231,231)"/>
<path d="M88 52h2v2h-2v-2z" fill="rgb(182,32,32)"/>
<path d="M90 52h2v4h-2v-4z" fill="rgb(141,24,24)"/>
<path d="M94 52h2v2h-2v-2z" fill="rgb(141,24,24)"/>
<path d="M16 54h2v2h-2v-2z" fill="rgb(101,23,23)"/>
<path d="M18 54h2v2h-2v-2z" fill="rgb(141,24,24)"/>
<path d="M20 54h2v2h-2v-2z" fill="rgb(182,32,32)"/>
<path d="M22 54h2v2h-2v-2z" fill="rgb(221,22,22)"/>
<path d="M26 54h2v2h-2v-2z" fill="rgb(157,28,28)"/>
<path d="M42 54h2v4h-2v-4z" fill="rgb(221,22,22)"/>
<path d="M58 54h4v4h2v4h2v8h-4v2h-4v-4h-2v-2h-4v-4h2v-4h2v-2h2v-2z" fill="rgb(245,245,245)"/>
<path d="M64 54h4v6h-2v-4h-2v-2z" fill="rgb(182,32,32)"/>
<path d="M68 54h6v2h4v2h2v2h4v2h2v2h2v4h2v2h2v2h2v8h2v4h-2v6h-2v2h-2v2h-4v2h-10
	v-2h-2v-2h-2v-4h2v-4h-2v-2h-2v-8h4v2h6v-2h-4v-2h-6v-8h2v-2h-2v-2h-2v-6z" fill="rgb(245,245,245)"/>
<path d="M84 54h2v2h-2v-2z" fill="rgb(221,22,22)"/>
<path d="M88 54h2v2h2v2h-6v-2h2v-2z" fill="rgb(221,22,22)"/>
<path d="M92 54h4v2h-4v-2z" fill="rgb(182,32,32)"/>
<path d="M12 56h2v4h2v2h-2v2h-2v-8z" fill="rgb(101,23,23)"/>
<path d="M14 56h4v4h-2v-2h-2v-2z" fill="rgb(141,24,24)"/>
<path d="M18 56h2v4h-2v-4z" fill="rgb(182,32,32)"/>
<path d="M20 56h2v2h2v2h-4v-4z" fill="rgb(141,24,24)"/>
<path d="M22 56h2v2h-2v-2z" fill="rgb(182,32,32)"/>
<path d="M24 56h2v2h-2v-2z" fill="rgb(141,24,24)"/>
<path d="M26 56h2v2h2v6h2v2h-2v2h-2v4h2v-4h2v-2h2v2h2v8h-2v4h-2v4h2v-4h2v-2h2v2
	h2v6h2v4h2v2h2v4h2v4h-2v4h-2v6h2v2h2v-2h-2v-4h2v-4h2v-2h2v2h2v2h2v4h2v2h2v2h2
	v6h-2v2h2v-2h2v-6h-2v-4h4v2h4v2h18v-2h6v-2h6v-2h2v-2h2v-4h2v8h-2v8h-2v2h-4v2h-2
	v2h-4v2h-8v2h-16v-4h-2v2h-4v-2h-6v-2h-4v-2h-4v-2h-2v-2h-6v-2h-2v-2h-2v-4h-2v-2
	h-2v-4h-2v-2h-2v-2h-2v-4h2v2h4v-2h-2v-2h-4v-2h-4v-8h2v-14h2v-2h-2v-6h2v-2z" fill="rgb(216,216,216)"/>
<path d="M40 56h2v2h2v4h2v6h-2v2h-4v2h-2v2h-2v-10h2v-4h2v-4z" fill="rgb(231,231,231)"/>
<path d="M62 56h2v2h-2v-2z" fill="rgb(182,32,32)"/>
<path d="M64 56h2v6h-2v-6z" fill="rgb(236,95,95)"/>
<path d="M92 56h2v2h-2v-2z" fill="rgb(236,95,95)"/>
<path d="M94 56h2v8h2v2h-2v4h-2v-10h-2v-2h2v-2z" fill="rgb(221,22,22)"/>
<path d="M14 58h2v2h-2v-2z" fill="rgb(182,32,32)"/>
<path d="M30 58h2v6h-2v-6z" fill="rgb(182,32,32)"/>
<path d="M46 58h2v2h-2v-2z" fill="rgb(157,28,28)"/>
<path d="M88 58h4v2h-2v2h-2v-4z" fill="rgb(236,95,95)"/>
<path d="M16 60h2v2h-2v-2z" fill="rgb(157,28,28)"/>
<path d="M18 60h2v2h-2v-2z" fill="rgb(141,24,24)"/>
<path d="M20 60h2v12h-2v-12z" fill="rgb(182,32,32)"/>
<path d="M22 60h2v10h-2v-10z" fill="rgb(221,22,22)"/>
<path d="M46 60h2v2h-2v-2z" fill="rgb(221,22,22)"/>
<path d="M66 60h2v2h-2v-2z" fill="rgb(221,22,22)"/>
<path d="M68 60h2v2h2v2h-4v-4z" fill="rgb(236,95,95)"/>
<path d="M90 60h2v2h-2v-2z" fill="rgb(221,22,22)"/>
<path d="M92 60h2v10h2v6h-2v-4h-2v-8h-2v-2h2v-2z" fill="rgb(236,95,95)"/>
<path d="M96 60h2v2h-2v-2z" fill="rgb(51,2,2)"/>
<path d="M10 62h2v2h-2v-2z" fill="rgb(51,2,2)"/>
<path d="M14 62h4v4h-2v-2h-2v-2z" fill="rgb(126,30,30)"/>
<path d="M18 62h2v2h-2v-2z" fill="rgb(157,28,28)"/>
<path d="M46 62h2v2h-2v-2z" fill="rgb(182,32,32)"/>
<path d="M66 62h2v2h-2v-2z" fill="rgb(182,32,32)"/>
<path d="M76 62h2v2h-2v-2z" fill="rgb(236,95,95)"/>
<path d="M96 62h2v2h-2v-2z" fill="rgb(182,32,32)"/>
<path d="M98 62h2v2h-2v-2z" fill="rgb(51,2,2)"/>
<path d="M8 64h2v2h-2v-2z" fill="rgb(51,2,2)"/>
<path d="M10 64h2v6h-2v-2h-2v-2h2v-2z" fill="rgb(101,23,23)"/>
<path d="M12 64h2v8h-4v-2h2v-6z" fill="rgb(126,30,30)"/>
<path d="M14 64h2v4h-2v-4z" fill="rgb(157,28,28)"/>
<path d="M18 64h2v2h-2v-2z" fill="rgb(141,24,24)"/>
<path d="M24 64h2v2h-2v-2z" fill="rgb(141,24,24)"/>
<path d="M32 64h2v2h-2v-2z" fill="rgb(182,32,32)"/>
<path d="M46 64h2v2h-2v-2z" fill="rgb(221,22,22)"/>
<path d="M66 64h4v2h-4v-2z" fill="rgb(221,22,22)"/>
<path d="M72 64h4v2h-4v-2z" fill="rgb(236,95,95)"/>
<path d="M98 64h2v2h-2v-2z" fill="rgb(182,32,32)"/>
<path d="M100 64h2v4h-2v-4z" fill="rgb(51,2,2)"/>
<path d="M6 66h2v4h-2v-4z" fill="rgb(51,2,2)"/>
<path d="M16 66h2v4h2v18h-2v10h2v-8h4v2h2v4h2v2h2v2h2v4h2v2h2v4h2v2h2v2h6v2h2v2
	h4v2h4v2h6v2h4v2h-2v2h-4v-2h-4v-2h-4v2h-2v-2h-2v-2h-2v2h2v2h-2v2h-4v-2h-4v-2
	h-4v-2h-4v-2h-2v-2h-2v-2h-4v-4h-2v-4h-4v-4h-2v-10h-2v-4h-2v-4h2v-8h-2v-6h4v-4h2
	v-2z" fill="rgb(161,162,161)"/>
<path d="M18 66h2v4h-2v-4z" fill="rgb(126,30,30)"/>
<path d="M30 66h2v2h-2v-2z" fill="rgb(182,32,32)"/>
<path d="M34 66h2v2h-2v-2z" fill="rgb(182,32,32)"/>
<path d="M46 66h2v2h-2v-2z" fill="rgb(182,32,32)"/>
<path d="M48 66h2v4h-2v-4z" fill="rgb(221,22,22)"/>
<path d="M50 66h2v2h-2v-2z" fill="rgb(157,28,28)"/>
<path d="M52 66h2v2h-2v-2z" fill="rgb(221,22,22)"/>
<path d="M54 66h2v2h-2v-2z" fill="rgb(236,95,95)"/>
<path d="M66 66h2v4h2v2h6v2h4v2h-6v-2h-4v4h-2v-6h-6v-2h4v-4z" fill="rgb(236,95,95)"/>
<path d="M68 66h2v2h-2v-2z" fill="rgb(182,32,32)"/>
<path d="M76 66h2v2h-2v-2z" fill="rgb(236,95,95)"/>
<path d="M96 66h2v6h-2v-6z" fill="rgb(182,32,32)"/>
<path d="M98 66h2v2h-2v-2z" fill="rgb(221,22,22)"/>
<path d="M8 68h2v2h-2v-2z" fill="rgb(126,30,30)"/>
<path d="M28 68h2v4h-2v-4z" fill="rgb(182,32,32)"/>
<path d="M44 68h2v2h-2v-2z" fill="rgb(221,22,22)"/>
<path d="M46 68h2v2h-2v-2z" fill="rgb(141,24,24)"/>
<path d="M50 68h2v6h2v4h2v4h2v2h-4v2h-2v-10h-2v-8z" fill="rgb(231,231,231)"/>
<path d="M52 68h4v4h2v2h2v2h-2v4h2v2h2v-2h-2v-4h2v-4h4v4h2v8h2v8h-4v-2h-2v-2h-2
	v-2h-2v-2h-2v-2h-2v-4h-2v-4h-2v-6z" fill="rgb(245,245,245)"/>
<path d="M56 68h2v2h-2v-2z" fill="rgb(236,95,95)"/>
<path d="M68 68h2v2h-2v-2z" fill="rgb(221,22,22)"/>
<path d="M78 68h2v2h-2v-2z" fill="rgb(236,95,95)"/>
<path d="M98 68h4v4h2v6h-2v-4h-2v-4h-2v-2z" fill="rgb(236,95,95)"/>
<path d="M102 68h2v2h-2v-2z" fill="rgb(51,2,2)"/>
<path d="M4 70h2v6h-2v-6z" fill="rgb(51,2,2)"/>
<path d="M6 70h4v2h-2v2h2v8h2v4h-2v6h-2v-14h-2v4h-2v-6h2v-6z" fill="rgb(101,23,23)"/>
<path d="M22 70h2v4h-2v-4z" fill="rgb(236,95,95)"/>
<path d="M40 70h2v2h-2v-2z" fill="rgb(221,22,22)"/>
<path d="M42 70h6v2h-6v-2z" fill="rgb(182,32,32)"/>
<path d="M48 70h2v2h-2v-2z" fill="rgb(236,95,95)"/>
<path d="M56 70h2v2h-2v-2z" fill="rgb(221,22,22)"/>
<path d="M98 70h2v2h-2v-2z" fill="rgb(221,22,22)"/>
<path d="M102 70h2v2h-2v-2z" fill="rgb(182,32,32)"/>
<path d="M104 70h2v8h-2v-8z" fill="rgb(51,2,2)"/>
<path d="M8 72h2v2h-2v-2z" fill="rgb(126,30,30)"/>
<path d="M14 72h2v4h-2v-4z" fill="rgb(126,30,30)"/>
<path d="M20 72h2v8h-2v-8z" fill="rgb(221,22,22)"/>
<path d="M38 72h2v2h-2v-2z" fill="rgb(221,22,22)"/>
<path d="M40 72h8v8h-2v2h-2v2h-2v2h-2v-6h-2v-2h-2v-2h2v-2h2v-2z" fill="rgb(231,231,231)"/>
<path d="M48 72h2v8h-2v-8z" fill="rgb(182,32,32)"/>
<path d="M58 72h2v2h-2v-2z" fill="rgb(221,22,22)"/>
<path d="M60 72h2v4h-2v-4z" fill="rgb(236,95,95)"/>
<path d="M66 72h2v4h-2v-4z" fill="rgb(182,32,32)"/>
<path d="M96 72h2v4h-2v-4z" fill="rgb(221,22,22)"/>
<path d="M98 72h2v4h-2v-4z" fill="rgb(182,32,32)"/>
<path d="M22 74h2v6h-2v-6z" fill="rgb(141,24,24)"/>
<path d="M36 74h2v2h-2v-2z" fill="rgb(221,22,22)"/>
<path d="M100 74h2v4h2v8h-2v8h2v10h-2v2h-2v2h-6v2h-6v-6h2v-2h2v-4h2v-4h2v-6h2
	v-10h2v-4z" fill="rgb(231,231,231)"/>
<path d="M2 76h2v6h-2v-6z" fill="rgb(51,2,2)"/>
<path d="M16 76h2v4h-2v-4z" fill="rgb(126,30,30)"/>
<path d="M34 76h2v2h-2v-2z" fill="rgb(221,22,22)"/>
<path d="M50 76h2v8h-2v-8z" fill="rgb(221,22,22)"/>
<path d="M58 76h2v2h-2v-2z" fill="rgb(236,95,95)"/>
<path d="M80 76h2v2h-2v-2z" fill="rgb(236,95,95)"/>
<path d="M94 76h4v4h-2v-2h-2v-2z" fill="rgb(182,32,32)"/>
<path d="M98 76h2v2h-2v-2z" fill="rgb(236,95,95)"/>
<path d="M6 78h2v14h-4v2h-2v-6h2v-6h2v-4z" fill="rgb(119,119,119)"/>
<path d="M10 78h2v4h-2v-4z" fill="rgb(126,30,30)"/>
<path d="M34 78h2v2h-2v-2z" fill="rgb(182,32,32)"/>
<path d="M58 78h2v2h-2v-2z" fill="rgb(221,22,22)"/>
<path d="M68 78h2v6h-2v-6z" fill="rgb(221,22,22)"/>
<path d="M82 78h2v2h-2v-2z" fill="rgb(236,95,95)"/>
<path d="M94 78h2v2h-2v-2z" fill="rgb(236,95,95)"/>
<path d="M104 78h2v2h-2v-2z" fill="rgb(230,43,43)"/>
<path d="M106 78h2v10h-2v-10z" fill="rgb(51,2,2)"/>
<path d="M20 80h2v6h-2v-6z" fill="rgb(182,32,32)"/>
<path d="M32 80h2v4h-2v-4z" fill="rgb(182,32,32)"/>
<path d="M46 80h2v2h-2v-2z" fill="rgb(221,22,22)"/>
<path d="M48 80h2v2h-2v-2z" fill="rgb(236,95,95)"/>
<path d="M60 80h2v2h-2v-2z" fill="rgb(221,22,22)"/>
<path d="M84 80h2v2h-2v-2z" fill="rgb(182,32,32)"/>
<path d="M96 80h2v6h-2v-6z" fill="rgb(221,22,22)"/>
<path d="M104 80h2v8h-2v-8z" fill="rgb(236,95,95)"/>
<path d="M2 82h2v6h-2v-6z" fill="rgb(46,46,46)"/>
<path d="M44 82h2v2h-2v-2z" fill="rgb(221,22,22)"/>
<path d="M46 82h4v14h-4v-4h-2v-2h-2v-2h2v-4h2v-2z" fill="rgb(231,231,231)"/>
<path d="M70 82h2v2h-2v-2z" fill="rgb(182,32,32)"/>
<path d="M84 82h2v4h-2v-4z" fill="rgb(236,95,95)"/>
<path d="M42 84h2v4h-2v-4z" fill="rgb(221,22,22)"/>
<path d="M50 84h2v4h-2v-4z" fill="rgb(182,32,32)"/>
<path d="M54 84h4v2h-4v-2z" fill="rgb(236,95,95)"/>
<path d="M58 84h2v2h2v2h2v2h2v2h4v2h6v2h10v-2h4v-2h2v6h-2v2h-2v-2h-4v2h-2v2h2
	v-2h4v2h-2v6h-2v2h-2v2h-12v-2h-4v-2h-6v-2h-2v-6h-2v-2h-2v-4h-2v-2h2v-6h4v-2z" fill="rgb(231,231,231)"/>
<path d="M70 84h2v2h-2v-2z" fill="rgb(221,22,22)"/>
<path d="M72 84h2v4h-2v4h-2v-6h2v-2z" fill="rgb(236,95,95)"/>
<path d="M82 84h2v2h-2v-2z" fill="rgb(182,32,32)"/>
<path d="M94 84h2v2h-2v-2z" fill="rgb(182,32,32)"/>
<path d="M20 86h2v2h2v2h-4v-4z" fill="rgb(126,30,30)"/>
<path d="M52 86h2v4h-2v-4z" fill="rgb(141,24,24)"/>
<path d="M82 86h2v4h-2v-4z" fill="rgb(236,95,95)"/>
<path d="M94 86h2v4h-2v-4z" fill="rgb(221,22,22)"/>
<path d="M96 86h2v2h-2v-2z" fill="rgb(236,95,95)"/>
<path d="M102 86h2v2h-2v-2z" fill="rgb(182,32,32)"/>
<path d="M0 88h2v6h-2v-6z" fill="rgb(46,46,46)"/>
<path d="M18 88h2v2h-2v-2z" fill="rgb(141,24,24)"/>
<path d="M24 88h2v2h-2v-2z" fill="rgb(182,32,32)"/>
<path d="M50 88h2v2h-2v-2z" fill="rgb(221,22,22)"/>
<path d="M102 88h2v4h-2v-4z" fill="rgb(236,95,95)"/>
<path d="M104 88h4v8h-2v-4h-2v-4z" fill="rgb(231,231,231)"/>
<path d="M108 88h2v10h-2v-10z" fill="rgb(46,46,46)"/>
<path d="M10 90h2v2h-2v-2z" fill="rgb(119,119,119)"/>
<path d="M18 90h2v4h-2v-4z" fill="rgb(126,30,30)"/>
<path d="M24 90h2v2h-2v-2z" fill="rgb(216,216,216)"/>
<path d="M26 90h2v2h-2v-2z" fill="rgb(221,22,22)"/>
<path d="M28 90h2v2h-2v-2z" fill="rgb(141,24,24)"/>
<path d="M50 90h2v4h-2v-4z" fill="rgb(182,32,32)"/>
<path d="M52 90h2v2h-2v-2z" fill="rgb(236,95,95)"/>
<path d="M92 90h2v2h-2v-2z" fill="rgb(221,22,22)"/>
<path d="M94 90h2v2h-2v-2z" fill="rgb(182,32,32)"/>
<path d="M4 92h4v2h-4v-2z" fill="rgb(101,23,23)"/>
<path d="M8 92h4v2h2v6h-2v-4h-2v-2h-2v-2z" fill="rgb(126,30,30)"/>
<path d="M28 92h2v2h-2v-2z" fill="rgb(221,22,22)"/>
<path d="M30 92h2v2h-2v-2z" fill="rgb(236,95,95)"/>
<path d="M70 92h2v2h-2v-2z" fill="rgb(245,245,245)"/>
<path d="M72 92h2v2h-2v-2z" fill="rgb(236,95,95)"/>
<path d="M92 92h2v2h-2v-2z" fill="rgb(182,32,32)"/>
<path d="M94 92h2v2h-2v-2z" fill="rgb(236,95,95)"/>
<path d="M102 92h2v2h-2v-2z" fill="rgb(182,32,32)"/>
<path d="M104 92h2v8h-2v-8z" fill="rgb(236,95,95)"/>
<path d="M0 94h2v4h-2v-4z" fill="rgb(51,2,2)"/>
<path d="M2 94h2v4h-2v-4z" fill="rgb(101,23,23)"/>
<path d="M4 94h4v4h2v8h-2v2h-2v2h-2v-16z" fill="rgb(119,119,119)"/>
<path d="M8 94h2v2h2v4h2v2h-2v4h2v4h-2v-2h-2v2h-2v4h-2v-6h2v-2h2v-8h-2v-4z" fill="rgb(101,23,23)"/>
<path d="M18 94h2v4h-2v-4z" fill="rgb(101,23,23)"/>
<path d="M32 94h2v2h-2v-2z" fill="rgb(221,22,22)"/>
<path d="M50 94h2v2h2v4h-2v-2h-2v-4z" fill="rgb(221,22,22)"/>
<path d="M52 94h2v2h-2v-2z" fill="rgb(141,24,24)"/>
<path d="M92 94h2v2h-2v-2z" fill="rgb(221,22,22)"/>
<path d="M32 96h2v2h-2v-2z" fill="rgb(182,32,32)"/>
<path d="M34 96h2v2h-2v-2z" fill="rgb(141,24,24)"/>
<path d="M48 96h2v2h-2v-2z" fill="rgb(141,24,24)"/>
<path d="M60 96h4v2h-4v-2z" fill="rgb(236,95,95)"/>
<path d="M92 96h2v2h-2v-2z" fill="rgb(236,95,95)"/>
<path d="M106 96h2v2h-2v-2z" fill="rgb(216,216,216)"/>
<path d="M0 98h2v12h2v6h2v4h2v2h2v2h2v4h2v2h2v2h2v2h4v2h2v2h2v2h4v2h2v2h2v2h4v2
	h4v2h6v2h-48v-54z" fill="rgb(255,255,255)"/>
<path d="M2 98h2v2h-2v-2z" fill="rgb(51,2,2)"/>
<path d="M34 98h2v2h-2v-2z" fill="rgb(182,32,32)"/>
<path d="M48 98h2v2h-2v-2z" fill="rgb(221,22,22)"/>
<path d="M50 98h2v2h-2v-2z" fill="rgb(231,231,231)"/>
<path d="M54 98h2v2h-2v-2z" fill="rgb(236,95,95)"/>
<path d="M58 98h2v2h-2v-2z" fill="rgb(236,95,95)"/>
<path d="M64 98h2v2h-2v-2z" fill="rgb(236,95,95)"/>
<path d="M84 98h4v2h-4v-2z" fill="rgb(236,95,95)"/>
<path d="M90 98h2v2h-2v-2z" fill="rgb(221,22,22)"/>
<path d="M94 98h2v2h-2v-2z" fill="rgb(236,95,95)"/>
<path d="M106 98h2v2h-2v-2z" fill="rgb(51,2,2)"/>
<path d="M108 98h2v54h-48v-2h6v-2h4v-2h4v-2h2v-2h2v-2h4v-2h2v-2h2v-2h4v-2h2v-2
	h2v-4h2v-2h2v-2h2v-4h2v-2h2v-8h2v-10z" fill="rgb(255,255,255)"/>
<path d="M2 100h2v10h-2v-10z" fill="rgb(46,46,46)"/>
<path d="M46 100h2v2h-2v-2z" fill="rgb(236,95,95)"/>
<path d="M48 100h2v2h-2v-2z" fill="rgb(182,32,32)"/>
<path d="M52 100h2v2h-2v-2z" fill="rgb(231,231,231)"/>
<path d="M54 100h2v2h-2v-2z" fill="rgb(182,32,32)"/>
<path d="M56 100h2v2h-2v-2z" fill="rgb(236,95,95)"/>
<path d="M66 100h2v2h-2v-2z" fill="rgb(236,95,95)"/>
<path d="M82 100h2v2h-2v-2z" fill="rgb(236,95,95)"/>
<path d="M88 100h4v2h-4v-2z" fill="rgb(236,95,95)"/>
<path d="M96 100h2v4h-2v-4z" fill="rgb(236,95,95)"/>
<path d="M106 100h2v8h-2v-8z" fill="rgb(46,46,46)"/>
<path d="M12 102h2v2h2v4h4v4h2v4h-2v-2h-2v-2h-2v-2h-2v-4h-2v-4z" fill="rgb(119,119,119)"/>
<path d="M46 102h2v4h-2v-4z" fill="rgb(221,22,22)"/>
<path d="M54 102h2v2h-2v-2z" fill="rgb(231,231,231)"/>
<path d="M56 102h2v2h-2v-2z" fill="rgb(221,22,22)"/>
<path d="M86 102h2v2h-2v-2z" fill="rgb(182,32,32)"/>
<path d="M88 102h2v2h-2v-2z" fill="rgb(221,22,22)"/>
<path d="M44 104h2v2h-2v-2z" fill="rgb(141,24,24)"/>
<path d="M56 104h2v2h-2v-2z" fill="rgb(182,32,32)"/>
<path d="M86 104h2v2h-2v-2z" fill="rgb(221,22,22)"/>
<path d="M44 106h2v2h-2v-2z" fill="rgb(221,22,22)"/>
<path d="M56 106h2v2h-2v-2z" fill="rgb(141,24,24)"/>
<path d="M58 106h2v2h-2v-2z" fill="rgb(221,22,22)"/>
<path d="M86 106h2v2h-2v-2z" fill="rgb(182,32,32)"/>
<path d="M10 108h2v2h2v4h-2v4h2v-4h2v2h4v6h2v4h2v-2h4v-2h-4v-2h-2v-4h4v2h2v2h2
	v2h4v2h4v2h4v2h-2v2h-4v2h-2v-2h-4v2h2v2h-4v2h2v2h-4v-2h-2v-2h-2v-2h-4v-2h-2v-2
	h-2v-4h-2v-2h-2v-2h-2v-4h-2v-2h2v-4h2v-2z" fill="rgb(119,119,119)"/>
<path d="M44 108h2v2h-2v-2z" fill="rgb(182,32,32)"/>
<path d="M58 108h2v2h-2v-2z" fill="rgb(141,24,24)"/>
<path d="M60 108h2v2h-2v-2z" fill="rgb(221,22,22)"/>
<path d="M84 108h2v2h-2v-2z" fill="rgb(182,32,32)"/>
<path d="M86 108h2v2h-2v-2z" fill="rgb(236,95,95)"/>
<path d="M104 108h2v8h-2v-8z" fill="rgb(46,46,46)"/>
<path d="M4 110h2v4h-2v-4z" fill="rgb(51,2,2)"/>
<path d="M14 110h2v2h2v2h2v2h-4v-2h-2v-4z" fill="rgb(101,23,23)"/>
<path d="M46 110h2v2h-2v-2z" fill="rgb(221,22,22)"/>
<path d="M60 110h2v2h-2v-2z" fill="rgb(182,32,32)"/>
<path d="M82 110h4v2h-4v-2z" fill="rgb(236,95,95)"/>
<path d="M86 110h2v2h-2v-2z" fill="rgb(231,231,231)"/>
<path d="M62 112h2v2h-2v-2z" fill="rgb(221,22,22)"/>
<path d="M4 114h2v2h-2v-2z" fill="rgb(46,46,46)"/>
<path d="M12 114h2v4h-2v-4z" fill="rgb(101,23,23)"/>
<path d="M62 114h2v4h-2v-4z" fill="rgb(182,32,32)"/>
<path d="M6 116h2v4h-2v-4z" fill="rgb(46,46,46)"/>
<path d="M20 116h2v4h2v2h4v2h-4v2h-2v-4h-2v-6z" fill="rgb(101,23,23)"/>
<path d="M102 116h2v2h-2v-2z" fill="rgb(46,46,46)"/>
<path d="M60 118h2v2h-2v-2z" fill="rgb(221,22,22)"/>
<path d="M98 118h2v4h-2v2h-2v2h-2v2h-2v2h-2v2h-4v2h-2v-2h-2v2h-4v-4h-4v2h-2v-2
	h-2v-2h-4v-2h18v-2h8v-2h4v-2h2v-2z" fill="rgb(161,162,161)"/>
<path d="M100 118h2v4h-2v-4z" fill="rgb(46,46,46)"/>
<path d="M8 120h2v2h-2v-2z" fill="rgb(46,46,46)"/>
<path d="M10 122h2v2h-2v-2z" fill="rgb(46,46,46)"/>
<path d="M46 122h2v2h-2v-2z" fill="rgb(126,30,30)"/>
<path d="M66 122h2v4h-2v-4z" fill="rgb(221,22,22)"/>
<path d="M98 122h2v2h-2v-2z" fill="rgb(46,46,46)"/>
<path d="M12 124h2v4h-2v-4z" fill="rgb(46,46,46)"/>
<path d="M48 124h2v4h-4v-2h2v-2z" fill="rgb(126,30,30)"/>
<path d="M52 124h4v2h-4v-2z" fill="rgb(126,30,30)"/>
<path d="M96 124h2v2h-2v-2z" fill="rgb(46,46,46)"/>
<path d="M50 126h10v2h-10v-2z" fill="rgb(2,92,50)"/>
<path d="M64 126h2v2h-2v-2z" fill="rgb(126,30,30)"/>
<path d="M94 126h2v4h-2v-4z" fill="rgb(46,46,46)"/>
<path d="M14 128h2v2h-2v-2z" fill="rgb(46,46,46)"/>
<path d="M40 128h4v2h-4v-2z" fill="rgb(101,23,23)"/>
<path d="M44 128h6v2h-6v-2z" fill="rgb(2,92,50)"/>
<path d="M50 128h10v2h-10v-2z" fill="rgb(97,176,68)"/>
<path d="M60 128h6v2h-6v-2z" fill="rgb(2,92,50)"/>
<path d="M66 128h4v2h-4v-2z" fill="rgb(126,30,30)"/>
<path d="M78 128h2v2h-2v-2z" fill="rgb(126,30,30)"/>
<path d="M92 128h2v2h-2v-2z" fill="rgb(119,119,119)"/>
<path d="M16 130h2v2h-2v-2z" fill="rgb(46,46,46)"/>
<path d="M30 130h4v4h-2v-2h-2v-2z" fill="rgb(101,23,23)"/>
<path d="M36 130h2v2h-2v-2z" fill="rgb(101,23,23)"/>
<path d="M38 130h6v2h-6v-2z" fill="rgb(2,92,50)"/>
<path d="M44 130h4v2h-4v-2z" fill="rgb(97,176,68)"/>
<path d="M48 130h14v2h-14v-2z" fill="rgb(56,156,39)"/>
<path d="M62 130h4v2h-4v-2z" fill="rgb(97,176,68)"/>
<path d="M66 130h6v2h-6v-2z" fill="rgb(2,92,50)"/>
<path d="M74 130h4v4h-2v-2h-2v-2z" fill="rgb(126,30,30)"/>
<path d="M90 130h2v2h-2v-2z" fill="rgb(119,119,119)"/>
<path d="M92 130h2v2h-2v-2z" fill="rgb(46,46,46)"/>
<path d="M18 132h4v2h-4v-2z" fill="rgb(46,46,46)"/>
<path d="M34 132h4v2h-4v-2z" fill="rgb(2,92,50)"/>
<path d="M38 132h4v2h-4v-2z" fill="rgb(97,176,68)"/>
<path d="M42 132h4v2h-4v-2z" fill="rgb(56,156,39)"/>
<path d="M46 132h18v2h6v2h4v4h2v4h-2v-2h-2v-4h-4v-2h-6v-2h-14v2h-6v2h-2v2h-4v-4
	h4v-2h6v-2z" fill="rgb(40,128,30)"/>
<path d="M64 132h4v2h-4v-2z" fill="rgb(56,156,39)"/>
<path d="M68 132h4v2h-4v-2z" fill="rgb(97,176,68)"/>
<path d="M72 132h4v2h-4v-2z" fill="rgb(2,92,50)"/>
<path d="M82 132h2v2h-2v-2z" fill="rgb(126,30,30)"/>
<path d="M86 132h2v2h-2v-2z" fill="rgb(119,119,119)"/>
<path d="M88 132h4v2h-4v-2z" fill="rgb(46,46,46)"/>
<path d="M22 134h2v2h-2v-2z" fill="rgb(46,46,46)"/>
<path d="M28 134h4v2h-4v-2z" fill="rgb(101,23,23)"/>
<path d="M32 134h2v2h-2v-2z" fill="rgb(2,92,50)"/>
<path d="M34 134h2v4h-2v-4z" fill="rgb(97,176,68)"/>
<path d="M36 134h4v2h-4v-2z" fill="rgb(56,156,39)"/>
<path d="M48 134h2v2h-2v-2z" fill="rgb(62,42,106)"/>
<path d="M50 134h6v2h-6v-2z" fill="rgb(19,94,19)"/>
<path d="M56 134h2v4h-2v-4z" fill="rgb(62,42,106)"/>
<path d="M58 134h4v2h-4v-2z" fill="rgb(19,94,19)"/>
<path d="M70 134h2v2h-2v-2z" fill="rgb(56,156,39)"/>
<path d="M72 134h4v2h-4v-2z" fill="rgb(97,176,68)"/>
<path d="M76 134h2v2h-2v-2z" fill="rgb(2,92,50)"/>
<path d="M78 134h2v2h-2v-2z" fill="rgb(119,119,119)"/>
<path d="M80 134h4v2h-2v2h-2v-4z" fill="rgb(101,23,23)"/>
<path d="M84 134h2v2h-2v-2z" fill="rgb(119,119,119)"/>
<path d="M86 134h2v2h-2v-2z" fill="rgb(46,46,46)"/>
<path d="M24 136h2v2h-2v-2z" fill="rgb(46,46,46)"/>
<path d="M30 136h2v4h-2v-4z" fill="rgb(2,92,50)"/>
<path d="M32 136h2v2h-2v-2z" fill="rgb(56,156,39)"/>
<path d="M42 136h2v2h2v2h-4v-4z" fill="rgb(62,42,106)"/>
<path d="M44 136h4v2h-4v-2z" fill="rgb(19,94,19)"/>
<path d="M48 136h2v2h-2v-2z" fill="rgb(27,8,70)"/>
<path d="M50 136h2v2h-2v-2z" fill="rgb(62,42,106)"/>
<path d="M52 136h4v2h-4v-2z" fill="rgb(27,8,70)"/>
<path d="M58 136h4v2h-4v-2z" fill="rgb(27,8,70)"/>
<path d="M62 136h2v2h-2v-2z" fill="rgb(62,42,106)"/>
<path d="M64 136h4v2h-4v-2z" fill="rgb(19,94,19)"/>
<path d="M74 136h2v2h2v4h-2v-2h-2v-4z" fill="rgb(56,156,39)"/>
<path d="M76 136h2v2h-2v-2z" fill="rgb(97,176,68)"/>
<path d="M78 136h2v4h-2v-4z" fill="rgb(2,92,50)"/>
<path d="M82 136h2v2h-2v-2z" fill="rgb(119,119,119)"/>
<path d="M84 136h2v2h-2v-2z" fill="rgb(46,46,46)"/>
<path d="M26 138h4v2h-4v-2z" fill="rgb(46,46,46)"/>
<path d="M32 138h2v2h-2v-2z" fill="rgb(97,176,68)"/>
<path d="M34 138h2v2h-2v-2z" fill="rgb(56,156,39)"/>
<path d="M40 138h2v2h-2v-2z" fill="rgb(19,94,19)"/>
<path d="M46 138h2v2h-2v-2z" fill="rgb(34,26,66)"/>
<path d="M48 138h2v2h-2v-2z" fill="rgb(62,42,106)"/>
<path d="M50 138h2v2h-2v-2z" fill="rgb(51,25,128)"/>
<path d="M52 138h4v2h-4v-2z" fill="rgb(62,42,106)"/>
<path d="M56 138h4v2h-4v-2z" fill="rgb(51,25,128)"/>
<path d="M60 138h2v2h-2v-2z" fill="rgb(62,42,106)"/>
<path d="M62 138h2v2h-2v-2z" fill="rgb(27,8,70)"/>
<path d="M64 138h2v2h-2v-2z" fill="rgb(34,26,66)"/>
<path d="M66 138h2v2h-2v-2z" fill="rgb(14,80,16)"/>
<path d="M68 138h4v2h-4v-2z" fill="rgb(62,42,106)"/>
<path d="M80 138h4v2h-4v-2z" fill="rgb(46,46,46)"/>
<path d="M30 140h2v2h-2v-2z" fill="rgb(1,63,32)"/>
<path d="M32 140h2v2h-2v-2z" fill="rgb(56,156,39)"/>
<path d="M34 140h2v4h-2v-4z" fill="rgb(40,128,30)"/>
<path d="M36 140h4v2h-4v-2z" fill="rgb(62,42,106)"/>
<path d="M40 140h2v2h-2v-2z" fill="rgb(34,26,66)"/>
<path d="M42 140h2v2h-2v-2z" fill="rgb(27,8,70)"/>
<path d="M44 140h2v2h-2v-2z" fill="rgb(51,25,128)"/>
<path d="M46 140h2v2h-2v-2z" fill="rgb(62,42,106)"/>
<path d="M48 140h2v2h-2v-2z" fill="rgb(27,8,70)"/>
<path d="M50 140h10v2h-2v2h-2v-2h-2v2h-2v-2h-2v-2z" fill="rgb(34,26,66)"/>
<path d="M60 140h2v2h-2v-2z" fill="rgb(27,8,70)"/>
<path d="M62 140h2v2h-2v-2z" fill="rgb(51,25,128)"/>
<path d="M64 140h2v2h-2v-2z" fill="rgb(62,42,106)"/>
<path d="M66 140h2v2h-2v-2z" fill="rgb(27,8,70)"/>
<path d="M68 140h2v2h-2v-2z" fill="rgb(34,26,66)"/>
<path d="M70 140h2v2h-2v-2z" fill="rgb(19,94,19)"/>
<path d="M78 140h2v2h-2v-2z" fill="rgb(1,63,32)"/>
<path d="M32 142h2v2h-2v-2z" fill="rgb(1,63,32)"/>
<path d="M36 142h2v2h-2v-2z" fill="rgb(19,94,19)"/>
<path d="M38 142h2v2h-2v-2z" fill="rgb(27,8,70)"/>
<path d="M40 142h2v2h-2v-2z" fill="rgb(62,42,106)"/>
<path d="M42 142h2v2h-2v-2z" fill="rgb(51,25,128)"/>
<path d="M44 142h2v2h-2v-2z" fill="rgb(27,8,70)"/>
<path d="M46 142h2v2h-2v-2z" fill="rgb(34,26,66)"/>
<path d="M48 142h4v4h-2v-2h-2v-2z" fill="rgb(20,19,31)"/>
<path d="M54 142h2v2h-2v-2z" fill="rgb(20,19,31)"/>
<path d="M58 142h4v2h-2v2h-2v-4z" fill="rgb(20,19,31)"/>
<path d="M62 142h2v2h-2v-2z" fill="rgb(34,26,66)"/>
<path d="M64 142h2v2h-2v-2z" fill="rgb(27,8,70)"/>
<path d="M66 142h2v2h-2v-2z" fill="rgb(51,25,128)"/>
<path d="M68 142h4v2h-4v-2z" fill="rgb(27,8,70)"/>
<path d="M72 142h2v2h-2v-2z" fill="rgb(19,94,19)"/>
<path d="M76 142h2v2h-2v-2z" fill="rgb(1,63,32)"/>
<path d="M34 144h2v2h-2v-2z" fill="rgb(1,63,32)"/>
<path d="M36 144h2v2h-2v-2z" fill="rgb(8,4,50)"/>
<path d="M38 144h2v2h-2v-2z" fill="rgb(34,26,66)"/>
<path d="M40 144h2v2h-2v-2z" fill="rgb(51,25,128)"/>
<path d="M42 144h2v2h-2v-2z" fill="rgb(27,8,70)"/>
<path d="M44 144h4v2h-2v2h-4v-2h2v-2z" fill="rgb(20,19,31)"/>
<path d="M48 144h2v2h-2v-2z" fill="rgb(34,26,66)"/>
<path d="M52 144h6v2h-6v-2z" fill="rgb(12,12,12)"/>
<path d="M60 144h2v2h-2v-2z" fill="rgb(34,26,66)"/>
<path d="M62 144h4v2h2v2h-4v-2h-2v-2z" fill="rgb(20,19,31)"/>
<path d="M66 144h2v2h-2v-2z" fill="rgb(27,8,70)"/>
<path d="M68 144h2v2h-2v-2z" fill="rgb(62,42,106)"/>
<path d="M70 144h2v2h-2v-2z" fill="rgb(34,26,66)"/>
<path d="M72 144h2v2h-2v-2z" fill="rgb(8,4,50)"/>
<path d="M74 144h2v2h-2v-2z" fill="rgb(1,63,32)"/>
<path d="M38 146h4v2h-4v-2z" fill="rgb(8,4,50)"/>
<path d="M46 146h2v2h-2v-2z" fill="rgb(34,26,66)"/>
<path d="M48 146h2v2h-2v-2z" fill="rgb(20,19,31)"/>
<path d="M50 146h2v2h-2v-2z" fill="rgb(12,12,12)"/>
<path d="M52 146h6v2h2v2h2v2h-14v-2h2v-2h2v-2z" fill="rgb(6,6,6)"/>
<path d="M58 146h2v2h-2v-2z" fill="rgb(12,12,12)"/>
<path d="M60 146h2v2h-2v-2z" fill="rgb(20,19,31)"/>
<path d="M62 146h2v2h-2v-2z" fill="rgb(34,26,66)"/>
<path d="M68 146h4v2h-4v-2z" fill="rgb(8,4,50)"/>
<path d="M42 148h4v2h-4v-2z" fill="rgb(6,6,6)"/>
<path d="M46 148h4v2h-4v-2z" fill="rgb(12,12,12)"/>
<path d="M60 148h4v2h-4v-2z" fill="rgb(12,12,12)"/>
<path d="M64 148h4v2h-4v-2z" fill="rgb(6,6,6)"/>
</svg>