<?xml version="1.0" encoding="utf-8"?>
<!-- generated at drububu.com  -->
<!DOCTYPE svg PUBLIC "-//W3C//DTD SVG 1.1//EN" "http://www.w3.org/Graphics/SVG/1.1/DTD/svg11.dtd">
<svg version="1.1" preserveAspectRatio="xMinYMin meet" xmlns="http://www.w3.org/2000/svg" xmlns:xlink="http://www.w3.org/1999/xlink" x="0px" y="0px" width="110px" height="146px" viewBox="0 0 110 146">
<path d="M0 0h52v6h-2v10h2v12h2v8h-2v10h-2v4h-2v-2h-2v-2h-2v2h2v2h-4v-6h-2v-4
	h-2v-6h-2v-4h-2v-12h2v-6h-2v-6h-2v8h2v2h-2v2h-2v2h2v6h-2v4h2v4h2v6h2v4h2v8h-4v-2
	h-2v-6h-2v8h2v2h-4v2h-2v-2h-2v-6h-2v-2h-2v-4h-2v-12h-2v-8h-2v-6h2v-4h-2v2h-2
	v10h2v4h-2v2h2v2h2v4h-2v8h2v4h2v2h2v2h-2v12h-2v2h-2v-2h-2v-2h-2v-4h-2v6h2v2h2v6
	h-2v2h-2v2h-2v4h-2v6h-2v4h-2v-90z" fill="rgb(255,255,255)"/>
<path d="M52 0h2v4h-2v-4z" fill="rgb(236,71,71)"/>
<path d="M54 0h56v92h-2v-4h-2v-8h-2v-2h-2v-4h-2v-2h-2v-2h-2v-6h2v-6h-2v4h-2v2
	h-2v-4h-2v-10h2v-4h2v-6h-2v-4h2v-8h-2v-2h-2v2h2v6h-2v10h-2v2h-2v4h2v2h-2v4h-4v-8
	h-2v4h-6v-6h2v-2h2v-16h2v-2h2v-12h-2v-4h-2v8h2v6h-2v2h-2v14h-2v4h-2v4h-2v2h-6
	v-8h-2v8h-2v-2h-2v-2h-2v-6h2v-12h-2v-10h-2v-4h-2v-4h2v-10z" fill="rgb(255,255,255)"/>
<path d="M52 4h2v2h-2v-2z" fill="rgb(181,13,13)"/>
<path d="M32 6h2v4h-2v-4z" fill="rgb(236,71,71)"/>
<path d="M50 6h2v10h-2v-10z" fill="rgb(181,13,13)"/>
<path d="M52 6h2v4h-2v-4z" fill="rgb(222,6,6)"/>
<path d="M32 10h2v2h-2v-2z" fill="rgb(181,13,13)"/>
<path d="M78 10h2v4h-2v-4z" fill="rgb(236,71,71)"/>
<path d="M14 12h2v4h-2v2h-2v-4h2v-2z" fill="rgb(236,71,71)"/>
<path d="M32 12h2v2h-2v-2z" fill="rgb(222,6,6)"/>
<path d="M34 12h2v2h-2v-2z" fill="rgb(236,71,71)"/>
<path d="M34 14h2v2h-2v-2z" fill="rgb(181,13,13)"/>
<path d="M52 14h2v2h-2v-2z" fill="rgb(236,71,71)"/>
<path d="M78 14h2v4h-2v-4z" fill="rgb(222,6,6)"/>
<path d="M80 14h2v4h-2v-4z" fill="rgb(236,71,71)"/>
<path d="M32 16h2v6h-2v-2h-2v-2h2v-2z" fill="rgb(181,13,13)"/>
<path d="M34 16h2v2h-2v-2z" fill="rgb(222,6,6)"/>
<path d="M52 16h2v2h-2v-2z" fill="rgb(181,13,13)"/>
<path d="M12 18h2v6h-2v-6z" fill="rgb(181,13,13)"/>
<path d="M52 18h2v4h-2v-4z" fill="rgb(222,6,6)"/>
<path d="M54 18h2v4h-2v-4z" fill="rgb(236,71,71)"/>
<path d="M80 18h2v4h-2v-4z" fill="rgb(181,13,13)"/>
<path d="M14 22h2v2h-2v-2z" fill="rgb(236,71,71)"/>
<path d="M32 22h2v6h-2v-6z" fill="rgb(222,6,6)"/>
<path d="M52 22h2v2h2v8h-2v-6h-2v-4z" fill="rgb(181,13,13)"/>
<path d="M54 22h2v2h-2v-2z" fill="rgb(222,6,6)"/>
<path d="M80 22h2v4h-2v-4z" fill="rgb(222,6,6)"/>
<path d="M14 24h2v8h-2v-8z" fill="rgb(181,13,13)"/>
<path d="M78 24h2v2h-2v-2z" fill="rgb(181,13,13)"/>
<path d="M30 26h2v2h-2v-2z" fill="rgb(181,13,13)"/>
<path d="M52 26h2v2h-2v-2z" fill="rgb(131,8,8)"/>
<path d="M76 26h2v4h-2v-4z" fill="rgb(236,71,71)"/>
<path d="M78 26h2v2h-2v-2z" fill="rgb(222,6,6)"/>
<path d="M90 26h2v2h-2v-2z" fill="rgb(236,71,71)"/>
<path d="M12 28h2v2h-2v-2z" fill="rgb(131,8,8)"/>
<path d="M30 28h2v2h-2v-2z" fill="rgb(131,8,8)"/>
<path d="M32 28h2v4h-2v-4z" fill="rgb(181,13,13)"/>
<path d="M56 28h2v4h-2v-4z" fill="rgb(236,71,71)"/>
<path d="M92 28h2v2h-2v-2z" fill="rgb(236,71,71)"/>
<path d="M16 30h2v2h-2v-2z" fill="rgb(236,71,71)"/>
<path d="M34 30h2v2h-2v-2z" fill="rgb(222,6,6)"/>
<path d="M76 30h2v12h-2v-12z" fill="rgb(181,13,13)"/>
<path d="M92 30h2v2h-2v-2z" fill="rgb(222,6,6)"/>
<path d="M16 32h2v8h-2v-8z" fill="rgb(222,6,6)"/>
<path d="M32 32h2v2h-2v-2z" fill="rgb(131,8,8)"/>
<path d="M34 32h2v6h-2v-6z" fill="rgb(181,13,13)"/>
<path d="M54 32h2v2h-2v-2z" fill="rgb(222,6,6)"/>
<path d="M56 32h2v2h-2v-2z" fill="rgb(181,13,13)"/>
<path d="M92 32h2v4h-2v2h-2v-4h2v-2z" fill="rgb(181,13,13)"/>
<path d="M36 34h2v4h-2v-4z" fill="rgb(222,6,6)"/>
<path d="M54 34h2v8h-2v-8z" fill="rgb(181,13,13)"/>
<path d="M56 34h2v2h-2v-2z" fill="rgb(222,6,6)"/>
<path d="M14 36h2v4h-2v-4z" fill="rgb(181,13,13)"/>
<path d="M52 36h2v4h-2v-4z" fill="rgb(222,6,6)"/>
<path d="M56 36h2v4h-2v-4z" fill="rgb(131,8,8)"/>
<path d="M34 38h2v2h-2v-2z" fill="rgb(131,8,8)"/>
<path d="M36 38h2v4h-2v-4z" fill="rgb(181,13,13)"/>
<path d="M90 38h2v2h2v6h-2v-4h-2v-4z" fill="rgb(222,6,6)"/>
<path d="M14 40h2v4h-2v-4z" fill="rgb(79,8,8)"/>
<path d="M16 40h2v4h-2v-4z" fill="rgb(181,13,13)"/>
<path d="M38 40h2v2h-2v-2z" fill="rgb(222,6,6)"/>
<path d="M52 40h2v2h-2v-2z" fill="rgb(131,8,8)"/>
<path d="M74 40h2v2h-2v-2z" fill="rgb(222,6,6)"/>
<path d="M18 42h2v2h-2v-2z" fill="rgb(222,6,6)"/>
<path d="M36 42h2v2h-2v-2z" fill="rgb(131,8,8)"/>
<path d="M38 42h2v2h-2v-2z" fill="rgb(181,13,13)"/>
<path d="M52 42h2v10h-2v-10z" fill="rgb(181,13,13)"/>
<path d="M54 42h2v4h2v2h2v2h-6v-8z" fill="rgb(131,8,8)"/>
<path d="M62 42h2v4h-2v-4z" fill="rgb(236,71,71)"/>
<path d="M74 42h2v4h-2v-4z" fill="rgb(181,13,13)"/>
<path d="M76 42h2v2h-2v-2z" fill="rgb(222,6,6)"/>
<path d="M90 42h2v4h-2v-4z" fill="rgb(181,13,13)"/>
<path d="M16 44h2v2h-2v-2z" fill="rgb(110,11,11)"/>
<path d="M18 44h2v2h-2v-2z" fill="rgb(131,8,8)"/>
<path d="M30 44h2v4h-2v-4z" fill="rgb(236,71,71)"/>
<path d="M38 44h2v2h-2v-2z" fill="rgb(131,8,8)"/>
<path d="M40 44h2v4h-2v-4z" fill="rgb(222,6,6)"/>
<path d="M72 44h2v4h-2v-4z" fill="rgb(131,8,8)"/>
<path d="M88 44h2v2h-2v-2z" fill="rgb(131,8,8)"/>
<path d="M16 46h2v2h-2v-2z" fill="rgb(79,8,8)"/>
<path d="M18 46h4v4h-2v-2h-2v-2z" fill="rgb(110,11,11)"/>
<path d="M38 46h2v4h-2v-4z" fill="rgb(181,13,13)"/>
<path d="M44 46h2v2h-2v-2z" fill="rgb(181,13,13)"/>
<path d="M50 46h2v6h-2v-6z" fill="rgb(131,8,8)"/>
<path d="M62 46h2v4h-2v-4z" fill="rgb(131,8,8)"/>
<path d="M86 46h2v4h-2v-4z" fill="rgb(131,8,8)"/>
<path d="M88 46h2v4h-2v-4z" fill="rgb(181,13,13)"/>
<path d="M90 46h2v4h-2v-4z" fill="rgb(131,8,8)"/>
<path d="M18 48h2v2h-2v-2z" fill="rgb(79,8,8)"/>
<path d="M22 48h2v2h-2v-2z" fill="rgb(222,6,6)"/>
<path d="M30 48h2v4h-2v-4z" fill="rgb(131,8,8)"/>
<path d="M40 48h2v2h-2v-2z" fill="rgb(131,8,8)"/>
<path d="M46 48h2v2h2v2h-4v-4z" fill="rgb(181,13,13)"/>
<path d="M70 48h2v4h-4v-2h2v-2z" fill="rgb(131,8,8)"/>
<path d="M72 48h2v6h-2v2h-2v-2h-2v-2h4v-4z" fill="rgb(181,13,13)"/>
<path d="M80 48h2v2h-2v-2z" fill="rgb(236,71,71)"/>
<path d="M20 50h2v2h-2v-2z" fill="rgb(131,8,8)"/>
<path d="M22 50h2v2h-2v-2z" fill="rgb(181,13,13)"/>
<path d="M32 50h2v8h-2v-8z" fill="rgb(181,13,13)"/>
<path d="M38 50h2v2h-2v-2z" fill="rgb(131,8,8)"/>
<path d="M40 50h2v2h4v2h-4v2h-2v2h-2v-2h-2v-2h4v-4z" fill="rgb(181,13,13)"/>
<path d="M42 50h4v2h-4v-2z" fill="rgb(131,8,8)"/>
<path d="M54 50h4v2h-2v2h-2v2h-4v2h-6v-2h-2v-2h4v2h2v-2h2v-2h4v-2z" fill="rgb(222,6,6)"/>
<path d="M58 50h2v2h-2v-2z" fill="rgb(181,13,13)"/>
<path d="M60 50h2v2h2v2h-4v2h-2v-4h2v-2z" fill="rgb(222,6,6)"/>
<path d="M62 50h2v2h-2v-2z" fill="rgb(181,13,13)"/>
<path d="M64 50h4v2h-4v-2z" fill="rgb(79,8,8)"/>
<path d="M80 50h2v2h-2v-2z" fill="rgb(131,8,8)"/>
<path d="M88 50h2v2h-2v-2z" fill="rgb(131,8,8)"/>
<path d="M18 52h2v4h-2v-4z" fill="rgb(131,8,8)"/>
<path d="M20 52h2v4h2v6h2v-2h2v2h2v6h-2v-4h-2v2h-2v-2h-2v-4h-2v-8z" fill="rgb(181,13,13)"/>
<path d="M22 52h2v2h2v4h2v2h-2v2h-2v-6h-2v-4z" fill="rgb(131,8,8)"/>
<path d="M34 52h2v2h-2v-2z" fill="rgb(222,6,6)"/>
<path d="M36 52h4v2h-4v-2z" fill="rgb(79,8,8)"/>
<path d="M46 52h4v2h-4v-2z" fill="rgb(131,8,8)"/>
<path d="M56 52h2v2h-2v-2z" fill="rgb(181,13,13)"/>
<path d="M64 52h2v2h-2v-2z" fill="rgb(181,13,13)"/>
<path d="M66 52h2v2h-2v-2z" fill="rgb(222,6,6)"/>
<path d="M74 52h6v2h-6v-2z" fill="rgb(131,8,8)"/>
<path d="M80 52h2v2h-2v-2z" fill="rgb(181,13,13)"/>
<path d="M86 52h4v2h-2v6h-2v-8z" fill="rgb(181,13,13)"/>
<path d="M28 54h2v2h-2v-2z" fill="rgb(79,8,8)"/>
<path d="M30 54h2v2h-2v-2z" fill="rgb(222,6,6)"/>
<path d="M34 54h2v2h-2v-2z" fill="rgb(131,8,8)"/>
<path d="M46 54h2v2h-2v-2z" fill="rgb(181,13,13)"/>
<path d="M54 54h4v2h6v2h-4v2h-2v-2h-2v-2h-2v-2z" fill="rgb(236,71,71)"/>
<path d="M60 54h4v2h-4v-2z" fill="rgb(181,13,13)"/>
<path d="M64 54h2v2h-2v-2z" fill="rgb(222,6,6)"/>
<path d="M66 54h4v2h-4v-2z" fill="rgb(236,71,71)"/>
<path d="M72 54h4v2h-4v-2z" fill="rgb(236,71,71)"/>
<path d="M76 54h4v2h-4v-2z" fill="rgb(181,13,13)"/>
<path d="M80 54h2v4h-2v-4z" fill="rgb(131,8,8)"/>
<path d="M88 54h2v8h-4v-2h2v-6z" fill="rgb(131,8,8)"/>
<path d="M18 56h2v4h2v2h-2v2h-2v-8z" fill="rgb(79,8,8)"/>
<path d="M26 56h2v2h-2v-2z" fill="rgb(79,8,8)"/>
<path d="M28 56h4v2h-4v-2z" fill="rgb(131,8,8)"/>
<path d="M34 56h4v2h-4v-2z" fill="rgb(222,6,6)"/>
<path d="M40 56h2v2h-2v-2z" fill="rgb(222,6,6)"/>
<path d="M42 56h2v2h-2v-2z" fill="rgb(181,13,13)"/>
<path d="M50 56h4v2h-4v-2z" fill="rgb(236,71,71)"/>
<path d="M54 56h2v2h-2v-2z" fill="rgb(222,6,6)"/>
<path d="M64 56h2v2h-2v-2z" fill="rgb(181,13,13)"/>
<path d="M66 56h4v2h-4v-2z" fill="rgb(222,6,6)"/>
<path d="M70 56h2v2h-2v-2z" fill="rgb(236,71,71)"/>
<path d="M72 56h2v2h-2v-2z" fill="rgb(181,13,13)"/>
<path d="M74 56h4v2h-4v-2z" fill="rgb(222,6,6)"/>
<path d="M78 56h2v2h-2v-2z" fill="rgb(236,71,71)"/>
<path d="M82 56h4v2h-4v-2z" fill="rgb(79,8,8)"/>
<path d="M98 56h2v2h-2v-2z" fill="rgb(236,71,71)"/>
<path d="M8 58h2v2h-2v-2z" fill="rgb(110,11,11)"/>
<path d="M28 58h2v2h-2v-2z" fill="rgb(181,13,13)"/>
<path d="M30 58h6v2h-4v2h-2v-4z" fill="rgb(231,20,20)"/>
<path d="M36 58h2v2h-2v-2z" fill="rgb(181,13,13)"/>
<path d="M38 58h6v2h-2v2h-2v-2h-2v-2z" fill="rgb(231,20,20)"/>
<path d="M44 58h2v2h-2v-2z" fill="rgb(181,13,13)"/>
<path d="M46 58h2v2h-2v-2z" fill="rgb(231,20,20)"/>
<path d="M48 58h2v2h-2v-2z" fill="rgb(236,71,71)"/>
<path d="M50 58h4v2h-4v-2z" fill="rgb(151,10,10)"/>
<path d="M54 58h2v2h-2v-2z" fill="rgb(181,13,13)"/>
<path d="M56 58h2v2h-2v-2z" fill="rgb(231,20,20)"/>
<path d="M60 58h4v4h-2v-2h-2v-2z" fill="rgb(231,20,20)"/>
<path d="M64 58h2v4h-2v-4z" fill="rgb(236,71,71)"/>
<path d="M66 58h2v2h-2v-2z" fill="rgb(231,20,20)"/>
<path d="M68 58h2v2h-2v-2z" fill="rgb(181,13,13)"/>
<path d="M70 58h2v2h-2v-2z" fill="rgb(231,20,20)"/>
<path d="M72 58h4v2h-4v-2z" fill="rgb(236,71,71)"/>
<path d="M76 58h6v2h-6v-2z" fill="rgb(231,20,20)"/>
<path d="M82 58h2v2h-2v-2z" fill="rgb(181,13,13)"/>
<path d="M84 58h2v2h-2v-2z" fill="rgb(131,8,8)"/>
<path d="M96 58h2v4h-2v-4z" fill="rgb(222,6,6)"/>
<path d="M8 60h2v2h-2v-2z" fill="rgb(131,8,8)"/>
<path d="M28 60h2v2h-2v-2z" fill="rgb(110,11,11)"/>
<path d="M32 60h2v2h-2v-2z" fill="rgb(110,11,11)"/>
<path d="M34 60h2v2h-2v-2z" fill="rgb(181,13,13)"/>
<path d="M36 60h2v2h-2v-2z" fill="rgb(79,8,8)"/>
<path d="M38 60h2v2h-2v-2z" fill="rgb(181,13,13)"/>
<path d="M42 60h2v2h-2v-2z" fill="rgb(181,13,13)"/>
<path d="M44 60h2v2h-2v-2z" fill="rgb(151,10,10)"/>
<path d="M46 60h2v4h-2v-4z" fill="rgb(236,71,71)"/>
<path d="M48 60h2v4h-2v-4z" fill="rgb(151,10,10)"/>
<path d="M50 60h2v2h-2v-2z" fill="rgb(155,155,155)"/>
<path d="M52 60h2v2h-2v-2z" fill="rgb(209,209,209)"/>
<path d="M54 60h2v2h-2v-2z" fill="rgb(151,10,10)"/>
<path d="M56 60h4v2h-4v-2z" fill="rgb(181,13,13)"/>
<path d="M60 60h2v2h-2v-2z" fill="rgb(236,71,71)"/>
<path d="M66 60h2v2h-2v-2z" fill="rgb(181,13,13)"/>
<path d="M68 60h2v2h-2v-2z" fill="rgb(231,20,20)"/>
<path d="M70 60h2v2h-2v-2z" fill="rgb(236,71,71)"/>
<path d="M72 60h4v2h-4v-2z" fill="rgb(181,13,13)"/>
<path d="M76 60h6v2h6v4h-2v-2h-2v2h-2v-2h-4v-2h-2v-2z" fill="rgb(236,71,71)"/>
<path d="M82 60h2v2h-2v-2z" fill="rgb(222,6,6)"/>
<path d="M84 60h2v2h-2v-2z" fill="rgb(181,13,13)"/>
<path d="M90 60h2v2h-2v-2z" fill="rgb(79,8,8)"/>
<path d="M8 62h2v2h-2v-2z" fill="rgb(79,8,8)"/>
<path d="M10 62h2v2h-2v-2z" fill="rgb(131,8,8)"/>
<path d="M20 62h2v2h-2v-2z" fill="rgb(131,8,8)"/>
<path d="M30 62h2v2h-2v-2z" fill="rgb(236,71,71)"/>
<path d="M32 62h2v2h-2v-2z" fill="rgb(151,10,10)"/>
<path d="M34 62h2v2h-2v-2z" fill="rgb(79,8,8)"/>
<path d="M36 62h2v2h-2v-2z" fill="rgb(138,138,138)"/>
<path d="M38 62h2v2h-2v-2z" fill="rgb(79,8,8)"/>
<path d="M40 62h4v2h-4v-2z" fill="rgb(151,10,10)"/>
<path d="M44 62h2v2h-2v-2z" fill="rgb(181,13,13)"/>
<path d="M50 62h2v2h-2v-2z" fill="rgb(209,209,209)"/>
<path d="M52 62h2v2h2v2h-2v4h-2v14h2v4h2v4h2v2h2v2h2v2h2v2h2v2h-20v2h-2v-4h-2
	v-4h-2v-4h-2v-4h-2v-16h2v-4h2v-2h10v-2h2v-2z" fill="rgb(233,233,233)"/>
<path d="M54 62h2v2h-2v-2z" fill="rgb(209,209,209)"/>
<path d="M56 62h2v2h-2v-2z" fill="rgb(151,10,10)"/>
<path d="M58 62h4v2h-4v-2z" fill="rgb(110,11,11)"/>
<path d="M62 62h2v2h-2v-2z" fill="rgb(236,71,71)"/>
<path d="M64 62h2v4h-2v-4z" fill="rgb(151,10,10)"/>
<path d="M66 62h2v2h-2v-2z" fill="rgb(110,11,11)"/>
<path d="M68 62h2v2h-2v-2z" fill="rgb(236,71,71)"/>
<path d="M70 62h4v2h-4v-2z" fill="rgb(151,10,10)"/>
<path d="M74 62h2v2h-2v-2z" fill="rgb(110,11,11)"/>
<path d="M76 62h2v2h-2v-2z" fill="rgb(151,10,10)"/>
<path d="M88 62h2v2h-2v-2z" fill="rgb(181,13,13)"/>
<path d="M90 62h2v4h-2v-4z" fill="rgb(131,8,8)"/>
<path d="M94 62h4v2h-2v2h-4v-2h2v-2z" fill="rgb(181,13,13)"/>
<path d="M10 64h2v2h-2v-2z" fill="rgb(79,8,8)"/>
<path d="M12 64h2v2h-2v-2z" fill="rgb(131,8,8)"/>
<path d="M16 64h2v2h-2v-2z" fill="rgb(79,8,8)"/>
<path d="M18 64h2v2h-2v-2z" fill="rgb(131,8,8)"/>
<path d="M20 64h2v2h-2v-2z" fill="rgb(181,13,13)"/>
<path d="M22 64h2v2h-2v-2z" fill="rgb(222,6,6)"/>
<path d="M26 64h2v2h-2v-2z" fill="rgb(151,10,10)"/>
<path d="M30 64h2v2h-2v-2z" fill="rgb(151,10,10)"/>
<path d="M32 64h2v2h-2v-2z" fill="rgb(138,138,138)"/>
<path d="M34 64h4v2h-4v-2z" fill="rgb(155,155,155)"/>
<path d="M38 64h8v2h-6v2h-2v4h-2v16h2v4h2v4h2v4h2v4h-4v2h-4v2h-2v2h-2v2h-2v-6
	h-2v-4h-2v-6h-2v-20h2v-4h2v-2h4v-2h2v-2h4v-2z" fill="rgb(209,209,209)"/>
<path d="M46 64h2v2h-2v-2z" fill="rgb(151,10,10)"/>
<path d="M48 64h2v2h-2v-2z" fill="rgb(209,209,209)"/>
<path d="M56 64h4v2h-4v-2z" fill="rgb(209,209,209)"/>
<path d="M60 64h2v2h-2v-2z" fill="rgb(151,10,10)"/>
<path d="M62 64h2v2h-2v-2z" fill="rgb(231,20,20)"/>
<path d="M66 64h2v2h-2v-2z" fill="rgb(209,209,209)"/>
<path d="M68 64h2v2h-2v-2z" fill="rgb(151,10,10)"/>
<path d="M70 64h4v2h-4v-2z" fill="rgb(209,209,209)"/>
<path d="M74 64h4v2h2v2h-4v-2h-2v-2z" fill="rgb(233,233,233)"/>
<path d="M78 64h4v2h-4v-2z" fill="rgb(151,10,10)"/>
<path d="M84 64h2v2h-2v-2z" fill="rgb(231,20,20)"/>
<path d="M88 64h2v2h2v2h-6v-2h2v-2z" fill="rgb(222,6,6)"/>
<path d="M12 66h2v4h2v2h-2v2h-4v-2h2v-6z" fill="rgb(79,8,8)"/>
<path d="M14 66h4v2h-4v-2z" fill="rgb(131,8,8)"/>
<path d="M18 66h2v4h2v2h-2v2h-2v-8z" fill="rgb(181,13,13)"/>
<path d="M20 66h2v2h-2v-2z" fill="rgb(131,8,8)"/>
<path d="M22 66h2v4h-2v-4z" fill="rgb(181,13,13)"/>
<path d="M24 66h2v2h-2v-2z" fill="rgb(131,8,8)"/>
<path d="M26 66h2v2h-2v-2z" fill="rgb(79,8,8)"/>
<path d="M30 66h2v2h-2v-2z" fill="rgb(79,8,8)"/>
<path d="M32 66h2v2h-2v-2z" fill="rgb(155,155,155)"/>
<path d="M54 66h4v2h4v2h2v-2h6v-2h6v2h4v2h4v2h2v2h2v4h2v2h2v4h2v2h2v2h2v6h-2v4
	h-2v2h-2v2h-2v2h-4v2h-10v-2h-6v-2h-4v-2h-2v-2h-2v-2h-2v-2h-2v-2h-2v-4h-2v-4h-2
	v-14h2v-4z" fill="rgb(244,244,244)"/>
<path d="M58 66h4v2h-4v-2z" fill="rgb(233,233,233)"/>
<path d="M62 66h2v2h-2v-2z" fill="rgb(151,10,10)"/>
<path d="M64 66h6v2h-6v-2z" fill="rgb(233,233,233)"/>
<path d="M80 66h2v2h-2v-2z" fill="rgb(209,209,209)"/>
<path d="M82 66h4v2h-4v-2z" fill="rgb(151,10,10)"/>
<path d="M92 66h2v2h-2v-2z" fill="rgb(236,71,71)"/>
<path d="M94 66h2v8h-2v-8z" fill="rgb(222,6,6)"/>
<path d="M14 68h2v2h-2v-2z" fill="rgb(181,13,13)"/>
<path d="M16 68h2v4h-2v-4z" fill="rgb(151,10,10)"/>
<path d="M20 68h2v2h-2v-2z" fill="rgb(151,10,10)"/>
<path d="M24 68h2v2h-2v-2z" fill="rgb(79,8,8)"/>
<path d="M26 68h2v4h-2v4h-2v20h2v6h2v4h2v8h-2v4h-2v2h-2v6h-2v-4h-2v-4h-2v-4h-2
	v-4h-2v-6h-2v-12h2v-4h2v-6h2v-4h2v-2h2v-2h2v-4h2v-2z" fill="rgb(155,155,155)"/>
<path d="M28 68h2v2h-2v-2z" fill="rgb(79,8,8)"/>
<path d="M30 68h2v2h-2v-2z" fill="rgb(155,155,155)"/>
<path d="M62 68h2v2h-2v-2z" fill="rgb(233,233,233)"/>
<path d="M80 68h4v2h-4v-2z" fill="rgb(233,233,233)"/>
<path d="M84 68h2v2h-2v-2z" fill="rgb(155,155,155)"/>
<path d="M86 68h2v2h-2v-2z" fill="rgb(110,11,11)"/>
<path d="M88 68h4v2h-2v2h-2v-4z" fill="rgb(236,71,71)"/>
<path d="M92 68h2v2h-2v-2z" fill="rgb(231,20,20)"/>
<path d="M22 70h2v2h-2v-2z" fill="rgb(79,8,8)"/>
<path d="M84 70h2v2h-2v-2z" fill="rgb(233,233,233)"/>
<path d="M86 70h2v2h-2v-2z" fill="rgb(151,10,10)"/>
<path d="M90 70h2v2h-2v-2z" fill="rgb(231,20,20)"/>
<path d="M92 70h2v6h-2v-2h-2v-2h2v-2z" fill="rgb(236,71,71)"/>
<path d="M96 70h2v2h-2v-2z" fill="rgb(79,8,8)"/>
<path d="M14 72h4v4h-2v-2h-2v-2z" fill="rgb(110,11,11)"/>
<path d="M20 72h2v2h-2v-2z" fill="rgb(79,8,8)"/>
<path d="M22 72h2v2h-2v-2z" fill="rgb(138,138,138)"/>
<path d="M86 72h2v2h-2v-2z" fill="rgb(233,233,233)"/>
<path d="M88 72h2v2h-2v-2z" fill="rgb(151,10,10)"/>
<path d="M96 72h2v2h-2v-2z" fill="rgb(181,13,13)"/>
<path d="M98 72h2v2h-2v-2z" fill="rgb(79,8,8)"/>
<path d="M8 74h2v2h-2v-2z" fill="rgb(79,8,8)"/>
<path d="M10 74h4v14h-2v-4h-2v2h-2v2h-2v4h-2v2h-2v-4h2v-4h2v-6h2v-4h2v-2z" fill="rgb(110,11,11)"/>
<path d="M14 74h2v4h-2v-4z" fill="rgb(151,10,10)"/>
<path d="M18 74h2v2h-2v-2z" fill="rgb(79,8,8)"/>
<path d="M20 74h2v2h-2v-2z" fill="rgb(138,138,138)"/>
<path d="M88 74h2v2h-2v-2z" fill="rgb(209,209,209)"/>
<path d="M90 74h2v2h-2v-2z" fill="rgb(151,10,10)"/>
<path d="M94 74h4v2h-2v2h-2v-4z" fill="rgb(231,20,20)"/>
<path d="M98 74h2v2h-2v-2z" fill="rgb(181,13,13)"/>
<path d="M100 74h2v4h-2v-4z" fill="rgb(79,8,8)"/>
<path d="M6 76h2v4h-2v-4z" fill="rgb(79,8,8)"/>
<path d="M16 76h2v2h-2v-2z" fill="rgb(79,8,8)"/>
<path d="M18 76h2v2h-2v-2z" fill="rgb(138,138,138)"/>
<path d="M88 76h2v2h-2v-2z" fill="rgb(233,233,233)"/>
<path d="M90 76h2v2h-2v-2z" fill="rgb(209,209,209)"/>
<path d="M92 76h2v2h-2v-2z" fill="rgb(151,10,10)"/>
<path d="M96 76h2v2h-2v-2z" fill="rgb(181,13,13)"/>
<path d="M98 76h2v2h-2v-2z" fill="rgb(231,20,20)"/>
<path d="M14 78h2v10h-2v-10z" fill="rgb(79,8,8)"/>
<path d="M16 78h2v4h-2v-4z" fill="rgb(138,138,138)"/>
<path d="M90 78h2v2h-2v-2z" fill="rgb(233,233,233)"/>
<path d="M92 78h2v6h-2v-6z" fill="rgb(110,11,11)"/>
<path d="M94 78h2v2h-2v-2z" fill="rgb(181,13,13)"/>
<path d="M96 78h2v4h-2v-4z" fill="rgb(151,10,10)"/>
<path d="M98 78h4v4h2v6h-2v-4h-2v-4h-2v-2z" fill="rgb(236,71,71)"/>
<path d="M102 78h2v2h-2v-2z" fill="rgb(79,8,8)"/>
<path d="M4 80h2v6h-2v-6z" fill="rgb(79,8,8)"/>
<path d="M94 80h2v4h-2v-4z" fill="rgb(231,20,20)"/>
<path d="M98 80h2v2h-2v-2z" fill="rgb(231,20,20)"/>
<path d="M102 80h2v2h-2v-2z" fill="rgb(181,13,13)"/>
<path d="M104 80h2v8h-2v-8z" fill="rgb(79,8,8)"/>
<path d="M96 82h2v2h-2v-2z" fill="rgb(110,11,11)"/>
<path d="M98 82h2v2h-2v-2z" fill="rgb(79,8,8)"/>
<path d="M10 84h2v4h-4v-2h2v-2z" fill="rgb(79,8,8)"/>
<path d="M94 84h2v2h-2v-2z" fill="rgb(110,11,11)"/>
<path d="M96 84h2v4h-2v-4z" fill="rgb(233,233,233)"/>
<path d="M98 84h2v2h-2v-2z" fill="rgb(155,155,155)"/>
<path d="M100 84h2v4h-2v-4z" fill="rgb(79,8,8)"/>
<path d="M2 86h2v4h-2v-4z" fill="rgb(79,8,8)"/>
<path d="M98 86h2v2h-2v-2z" fill="rgb(209,209,209)"/>
<path d="M6 88h2v4h-2v-4z" fill="rgb(79,8,8)"/>
<path d="M8 88h2v4h-2v-4z" fill="rgb(83,83,83)"/>
<path d="M10 88h2v2h2v2h-2v12h2v6h2v4h2v4h2v4h2v8h-2v-2h-2v-2h-2v-4h-2v-4h-2v-4
	h-2v-10h-2v-4h-2v18h-2v-10h-2v-8h2v-4h4v-4h2v-4z" fill="rgb(138,138,138)"/>
<path d="M12 88h2v2h-2v-2z" fill="rgb(79,8,8)"/>
<path d="M98 88h2v2h2v6h2v12h-2v6h-2v2h-2v2h-4v2h-6v2h-2v-2h-2v-2h-2v-4h-2v-2
	h-2v-2h-2v-2h-2v-2h-2v-2h4v2h10v-2h4v-2h2v-2h2v-2h2v-4h2v-6z" fill="rgb(233,233,233)"/>
<path d="M100 88h2v2h-2v-2z" fill="rgb(209,209,209)"/>
<path d="M102 88h2v6h-2v-6z" fill="rgb(79,8,8)"/>
<path d="M104 88h2v2h-2v-2z" fill="rgb(231,20,20)"/>
<path d="M106 88h2v4h-2v-4z" fill="rgb(79,8,8)"/>
<path d="M0 90h2v6h-2v-6z" fill="rgb(79,8,8)"/>
<path d="M104 90h2v4h-2v-4z" fill="rgb(181,13,13)"/>
<path d="M4 92h2v2h-2v-2z" fill="rgb(79,8,8)"/>
<path d="M6 92h2v4h-4v-2h2v-2z" fill="rgb(83,83,83)"/>
<path d="M106 92h2v4h-2v-4z" fill="rgb(151,10,10)"/>
<path d="M108 92h2v4h-2v-4z" fill="rgb(79,8,8)"/>
<path d="M2 94h2v4h-2v-4z" fill="rgb(24,24,24)"/>
<path d="M102 94h2v2h-2v-2z" fill="rgb(209,209,209)"/>
<path d="M104 94h2v2h-2v-2z" fill="rgb(79,8,8)"/>
<path d="M0 96h2v2h-2v-2z" fill="rgb(255,255,255)"/>
<path d="M104 96h2v2h2v4h-2v8h-2v4h-2v-6h2v-12z" fill="rgb(209,209,209)"/>
<path d="M106 96h2v2h-2v-2z" fill="rgb(24,24,24)"/>
<path d="M108 96h2v2h-2v-2z" fill="rgb(255,255,255)"/>
<path d="M0 98h2v12h-2v-12z" fill="rgb(24,24,24)"/>
<path d="M2 98h2v2h-2v-2z" fill="rgb(83,83,83)"/>
<path d="M108 98h2v12h-2v-12z" fill="rgb(24,24,24)"/>
<path d="M6 100h2v4h2v10h-4v-14z" fill="rgb(83,83,83)"/>
<path d="M46 102h20v2h-20v-2z" fill="rgb(236,71,71)"/>
<path d="M66 102h4v2h-4v-2z" fill="rgb(233,233,233)"/>
<path d="M106 102h2v6h-2v-6z" fill="rgb(155,155,155)"/>
<path d="M40 104h6v2h-6v-2z" fill="rgb(222,6,6)"/>
<path d="M46 104h20v2h-20v-2z" fill="rgb(181,13,13)"/>
<path d="M66 104h6v2h-6v-2z" fill="rgb(222,6,6)"/>
<path d="M36 106h4v2h-4v-2z" fill="rgb(222,6,6)"/>
<path d="M40 106h32v2h-4v2h-2v-2h-20v2h-2v-2h-4v-2z" fill="rgb(79,8,8)"/>
<path d="M72 106h2v2h-2v-2z" fill="rgb(222,6,6)"/>
<path d="M2 108h2v2h-2v-2z" fill="rgb(83,83,83)"/>
<path d="M34 108h2v2h-2v-2z" fill="rgb(222,6,6)"/>
<path d="M36 108h4v2h-4v-2z" fill="rgb(79,8,8)"/>
<path d="M40 108h2v2h2v4h-2v-2h-4v-2h2v-2z" fill="rgb(83,83,83)"/>
<path d="M42 108h2v2h-2v-2z" fill="rgb(24,24,24)"/>
<path d="M46 108h6v2h-2v2h-2v-2h-2v-2z" fill="rgb(151,10,10)"/>
<path d="M52 108h2v2h-2v-2z" fill="rgb(222,6,6)"/>
<path d="M54 108h6v2h-6v-2z" fill="rgb(181,13,13)"/>
<path d="M60 108h2v2h-2v-2z" fill="rgb(222,6,6)"/>
<path d="M62 108h2v2h-2v-2z" fill="rgb(181,13,13)"/>
<path d="M64 108h2v2h-2v-2z" fill="rgb(110,11,11)"/>
<path d="M68 108h4v2h-2v2h-2v-4z" fill="rgb(24,24,24)"/>
<path d="M72 108h2v2h-2v-2z" fill="rgb(79,8,8)"/>
<path d="M74 108h2v2h-2v-2z" fill="rgb(222,6,6)"/>
<path d="M106 108h2v2h-2v-2z" fill="rgb(138,138,138)"/>
<path d="M0 110h2v10h2v6h2v4h2v4h2v2h2v2h2v2h2v2h2v2h4v-2h4v2h4v2h-30v-36z" fill="rgb(255,255,255)"/>
<path d="M2 110h2v10h-2v-10z" fill="rgb(24,24,24)"/>
<path d="M32 110h2v2h-2v-2z" fill="rgb(181,13,13)"/>
<path d="M34 110h2v2h-2v-2z" fill="rgb(79,8,8)"/>
<path d="M36 110h2v2h-2v-2z" fill="rgb(24,24,24)"/>
<path d="M44 110h2v2h-2v-2z" fill="rgb(24,24,24)"/>
<path d="M46 110h2v2h-2v-2z" fill="rgb(79,8,8)"/>
<path d="M50 110h12v2h-12v-2z" fill="rgb(79,8,8)"/>
<path d="M62 110h2v2h-2v-2z" fill="rgb(151,10,10)"/>
<path d="M64 110h2v2h-2v-2z" fill="rgb(79,8,8)"/>
<path d="M66 110h2v2h-2v-2z" fill="rgb(110,11,11)"/>
<path d="M70 110h4v4h-4v-4z" fill="rgb(83,83,83)"/>
<path d="M74 110h2v2h-2v-2z" fill="rgb(79,8,8)"/>
<path d="M76 110h2v2h-2v-2z" fill="rgb(222,6,6)"/>
<path d="M104 110h2v6h-2v-6z" fill="rgb(155,155,155)"/>
<path d="M106 110h2v8h-2v-8z" fill="rgb(24,24,24)"/>
<path d="M108 110h2v36h-28v-2h4v-2h2v2h2v-2h2v-2h2v-2h2v-2h2v-2h2v-2h2v-4h2v-4
	h2v-6h2v-8z" fill="rgb(255,255,255)"/>
<path d="M30 112h2v2h-2v-2z" fill="rgb(181,13,13)"/>
<path d="M32 112h2v2h-2v-2z" fill="rgb(79,8,8)"/>
<path d="M34 112h2v2h-2v-2z" fill="rgb(24,24,24)"/>
<path d="M36 112h2v2h-2v-2z" fill="rgb(151,10,10)"/>
<path d="M38 112h2v2h-2v-2z" fill="rgb(24,24,24)"/>
<path d="M40 112h2v2h-2v-2z" fill="rgb(138,138,138)"/>
<path d="M44 112h2v2h-2v-2z" fill="rgb(138,138,138)"/>
<path d="M46 112h2v2h-2v-2z" fill="rgb(24,24,24)"/>
<path d="M48 112h2v2h-2v-2z" fill="rgb(79,8,8)"/>
<path d="M50 112h12v2h-2v2h-2v2h2v2h6v-2h4v-2h2v2h2v2h-4v2h-4v2h-4v2h-4v2h4v2h8
	v-2h6v2h-4v2h-6v2h-4v2h4v2h12v2h-4v2h-4v2h4v2h-38v-2h4v-2h-4v-2h-4v-6h2v2h4v2
	h8v-2h4v-2h-4v-2h-4v-2h-2v-2h-4v-4h2v2h4v2h6v-2h4v-2h-4v-2h-2v-2h4v-2h2v-2h-2
	v-4z" fill="rgb(255,255,255)"/>
<path d="M62 112h2v2h-2v-2z" fill="rgb(79,8,8)"/>
<path d="M64 112h4v2h-4v-2z" fill="rgb(24,24,24)"/>
<path d="M68 112h2v2h-2v-2z" fill="rgb(138,138,138)"/>
<path d="M74 112h2v2h-2v-2z" fill="rgb(24,24,24)"/>
<path d="M76 112h2v2h-2v-2z" fill="rgb(79,8,8)"/>
<path d="M78 112h2v2h-2v-2z" fill="rgb(222,6,6)"/>
<path d="M6 114h2v2h-2v-2z" fill="rgb(24,24,24)"/>
<path d="M8 114h2v2h-2v-2z" fill="rgb(155,155,155)"/>
<path d="M10 114h2v4h2v4h-6v-4h-2v-2h4v-2z" fill="rgb(83,83,83)"/>
<path d="M28 114h2v4h-2v-4z" fill="rgb(110,11,11)"/>
<path d="M30 114h2v6h-2v2h-2v6h-2v2h2v4h-4v8h-2v2h-2v-12h2v-4h2v-2h2v-6h2v-2h2
	v-4z" fill="rgb(79,8,8)"/>
<path d="M32 114h4v2h2v4h-2v-2h-4v-4z" fill="rgb(83,83,83)"/>
<path d="M36 114h2v2h-2v-2z" fill="rgb(24,24,24)"/>
<path d="M38 114h2v2h-2v-2z" fill="rgb(151,10,10)"/>
<path d="M40 114h2v2h-2v-2z" fill="rgb(24,24,24)"/>
<path d="M42 114h2v2h-2v-2z" fill="rgb(155,155,155)"/>
<path d="M44 114h2v2h-2v-2z" fill="rgb(209,209,209)"/>
<path d="M46 114h2v2h-2v-2z" fill="rgb(83,83,83)"/>
<path d="M48 114h2v2h-2v-2z" fill="rgb(24,24,24)"/>
<path d="M60 114h4v2h-4v-2z" fill="rgb(83,83,83)"/>
<path d="M64 114h2v2h-2v-2z" fill="rgb(138,138,138)"/>
<path d="M66 114h4v2h-4v-2z" fill="rgb(155,155,155)"/>
<path d="M70 114h4v2h-4v-2z" fill="rgb(24,24,24)"/>
<path d="M74 114h2v2h-2v-2z" fill="rgb(79,8,8)"/>
<path d="M76 114h2v4h-2v-4z" fill="rgb(110,11,11)"/>
<path d="M78 114h2v4h-2v-4z" fill="rgb(79,8,8)"/>
<path d="M80 114h2v4h-2v-4z" fill="rgb(222,6,6)"/>
<path d="M100 114h2v2h-2v-2z" fill="rgb(83,83,83)"/>
<path d="M102 114h2v2h-2v-2z" fill="rgb(244,244,244)"/>
<path d="M38 116h2v2h-2v-2z" fill="rgb(24,24,24)"/>
<path d="M40 116h2v2h-2v-2z" fill="rgb(79,8,8)"/>
<path d="M42 116h4v2h-4v-2z" fill="rgb(24,24,24)"/>
<path d="M46 116h2v2h-2v-2z" fill="rgb(209,209,209)"/>
<path d="M48 116h2v2h-2v-2z" fill="rgb(244,244,244)"/>
<path d="M50 116h2v2h-2v-2z" fill="rgb(24,24,24)"/>
<path d="M58 116h2v2h-2v-2z" fill="rgb(83,83,83)"/>
<path d="M60 116h2v2h-2v-2z" fill="rgb(244,244,244)"/>
<path d="M62 116h2v2h-2v-2z" fill="rgb(209,209,209)"/>
<path d="M64 116h2v2h-2v-2z" fill="rgb(155,155,155)"/>
<path d="M66 116h4v2h-4v-2z" fill="rgb(24,24,24)"/>
<path d="M72 116h2v2h-2v-2z" fill="rgb(79,8,8)"/>
<path d="M74 116h2v2h-2v-2z" fill="rgb(151,10,10)"/>
<path d="M98 116h2v2h2v2h-2v2h-4v6h-4v2h-4v-6h-2v-2h2v-2h6v-2h4v-2z" fill="rgb(209,209,209)"/>
<path d="M100 116h6v2h-6v-2z" fill="rgb(138,138,138)"/>
<path d="M4 118h2v2h-2v-2z" fill="rgb(83,83,83)"/>
<path d="M6 118h2v4h2v4h2v4h2v2h2v4h-2v-2h-2v-2h-2v-4h-2v-4h-2v-6z" fill="rgb(138,138,138)"/>
<path d="M26 118h2v2h-2v-2z" fill="rgb(110,11,11)"/>
<path d="M32 118h2v2h-2v-2z" fill="rgb(24,24,24)"/>
<path d="M34 118h2v2h-2v-2z" fill="rgb(138,138,138)"/>
<path d="M38 118h2v2h2v2h-4v-4z" fill="rgb(138,138,138)"/>
<path d="M40 118h2v2h-2v-2z" fill="rgb(24,24,24)"/>
<path d="M42 118h4v2h-4v-2z" fill="rgb(255,255,255)"/>
<path d="M46 118h4v2h-4v-2z" fill="rgb(83,83,83)"/>
<path d="M60 118h4v2h-4v-2z" fill="rgb(83,83,83)"/>
<path d="M64 118h2v2h-2v-2z" fill="rgb(24,24,24)"/>
<path d="M74 118h2v2h-2v-2z" fill="rgb(79,8,8)"/>
<path d="M76 118h2v2h-2v-2z" fill="rgb(24,24,24)"/>
<path d="M78 118h2v4h2v2h-8v-2h2v-2h2v-2z" fill="rgb(83,83,83)"/>
<path d="M80 118h2v4h-2v-4z" fill="rgb(79,8,8)"/>
<path d="M82 118h2v2h-2v-2z" fill="rgb(222,6,6)"/>
<path d="M102 118h2v4h-2v4h-2v-6h2v-2z" fill="rgb(155,155,155)"/>
<path d="M104 118h2v6h-2v-6z" fill="rgb(24,24,24)"/>
<path d="M4 120h2v6h-2v-6z" fill="rgb(24,24,24)"/>
<path d="M24 120h2v6h-2v-6z" fill="rgb(110,11,11)"/>
<path d="M30 120h2v2h-2v-2z" fill="rgb(151,10,10)"/>
<path d="M32 120h2v2h-2v-2z" fill="rgb(79,8,8)"/>
<path d="M34 120h2v2h-2v-2z" fill="rgb(24,24,24)"/>
<path d="M36 120h2v2h-2v-2z" fill="rgb(155,155,155)"/>
<path d="M42 120h4v2h-4v-2z" fill="rgb(24,24,24)"/>
<path d="M70 120h6v2h-6v-2z" fill="rgb(24,24,24)"/>
<path d="M82 120h2v2h-2v-2z" fill="rgb(181,13,13)"/>
<path d="M84 120h2v2h-2v-2z" fill="rgb(236,71,71)"/>
<path d="M10 122h2v2h-2v-2z" fill="rgb(24,24,24)"/>
<path d="M12 122h2v2h-2v-2z" fill="rgb(155,155,155)"/>
<path d="M14 122h2v4h2v2h-4v2h-2v-4h-2v-2h4v-2z" fill="rgb(83,83,83)"/>
<path d="M28 122h2v2h2v2h2v4h-4v-2h-2v-6z" fill="rgb(83,83,83)"/>
<path d="M30 122h2v2h-2v-2z" fill="rgb(24,24,24)"/>
<path d="M32 122h2v2h-2v-2z" fill="rgb(110,11,11)"/>
<path d="M34 122h2v4h-2v-4z" fill="rgb(79,8,8)"/>
<path d="M36 122h2v2h-2v-2z" fill="rgb(24,24,24)"/>
<path d="M38 122h2v2h-2v-2z" fill="rgb(209,209,209)"/>
<path d="M40 122h4v2h-4v-2z" fill="rgb(155,155,155)"/>
<path d="M44 122h4v2h-4v-2z" fill="rgb(83,83,83)"/>
<path d="M66 122h4v2h-4v-2z" fill="rgb(24,24,24)"/>
<path d="M70 122h4v2h-4v-2z" fill="rgb(138,138,138)"/>
<path d="M82 122h2v6h-2v-6z" fill="rgb(79,8,8)"/>
<path d="M84 122h2v2h2v10h-2v-6h-2v-6z" fill="rgb(110,11,11)"/>
<path d="M96 122h2v2h-2v-2z" fill="rgb(83,83,83)"/>
<path d="M98 122h2v2h-2v-2z" fill="rgb(233,233,233)"/>
<path d="M102 122h2v2h-2v-2z" fill="rgb(138,138,138)"/>
<path d="M6 124h2v2h-2v-2z" fill="rgb(83,83,83)"/>
<path d="M32 124h2v2h-2v-2z" fill="rgb(24,24,24)"/>
<path d="M38 124h4v2h-4v-2z" fill="rgb(24,24,24)"/>
<path d="M42 124h2v2h-2v-2z" fill="rgb(209,209,209)"/>
<path d="M44 124h4v2h-4v-2z" fill="rgb(244,244,244)"/>
<path d="M48 124h2v2h-2v-2z" fill="rgb(83,83,83)"/>
<path d="M50 124h2v2h-2v-2z" fill="rgb(24,24,24)"/>
<path d="M62 124h2v2h-2v-2z" fill="rgb(83,83,83)"/>
<path d="M64 124h2v2h-2v-2z" fill="rgb(24,24,24)"/>
<path d="M66 124h2v2h-2v-2z" fill="rgb(155,155,155)"/>
<path d="M68 124h2v2h-2v-2z" fill="rgb(138,138,138)"/>
<path d="M70 124h4v2h-4v-2z" fill="rgb(155,155,155)"/>
<path d="M74 124h2v2h-2v-2z" fill="rgb(138,138,138)"/>
<path d="M76 124h6v4h-2v-2h-4v-2z" fill="rgb(24,24,24)"/>
<path d="M96 124h4v2h-4v-2z" fill="rgb(138,138,138)"/>
<path d="M102 124h2v4h-2v-4z" fill="rgb(24,24,24)"/>
<path d="M6 126h2v4h-2v-4z" fill="rgb(24,24,24)"/>
<path d="M22 126h2v2h-2v-2z" fill="rgb(101,101,101)"/>
<path d="M34 126h2v2h-2v-2z" fill="rgb(24,24,24)"/>
<path d="M42 126h6v2h-6v-2z" fill="rgb(24,24,24)"/>
<path d="M58 126h2v2h-2v-2z" fill="rgb(24,24,24)"/>
<path d="M60 126h2v2h-2v-2z" fill="rgb(83,83,83)"/>
<path d="M62 126h4v2h-4v-2z" fill="rgb(244,244,244)"/>
<path d="M66 126h2v2h-2v-2z" fill="rgb(209,209,209)"/>
<path d="M68 126h2v2h-2v-2z" fill="rgb(155,155,155)"/>
<path d="M70 126h6v2h-6v-2z" fill="rgb(24,24,24)"/>
<path d="M76 126h4v2h-4v-2z" fill="rgb(79,8,8)"/>
<path d="M96 126h4v4h-2v2h-2v-6z" fill="rgb(155,155,155)"/>
<path d="M100 126h2v2h-2v-2z" fill="rgb(138,138,138)"/>
<path d="M8 128h2v2h-2v-2z" fill="rgb(83,83,83)"/>
<path d="M14 128h2v2h-2v-2z" fill="rgb(24,24,24)"/>
<path d="M16 128h2v2h-2v-2z" fill="rgb(155,155,155)"/>
<path d="M18 128h2v2h2v2h-2v6h-2v-2h-2v-4h-2v-2h4v-2z" fill="rgb(83,83,83)"/>
<path d="M26 128h2v2h-2v-2z" fill="rgb(24,24,24)"/>
<path d="M28 128h2v2h-2v-2z" fill="rgb(138,138,138)"/>
<path d="M34 128h2v2h-2v-2z" fill="rgb(138,138,138)"/>
<path d="M36 128h4v2h-4v-2z" fill="rgb(24,24,24)"/>
<path d="M62 128h4v2h-4v-2z" fill="rgb(83,83,83)"/>
<path d="M66 128h4v2h-4v-2z" fill="rgb(24,24,24)"/>
<path d="M76 128h4v2h-4v-2z" fill="rgb(24,24,24)"/>
<path d="M80 128h4v6h-2v-2h-4v-2h2v-2z" fill="rgb(83,83,83)"/>
<path d="M84 128h2v6h-2v-6z" fill="rgb(79,8,8)"/>
<path d="M92 128h2v2h-2v-2z" fill="rgb(83,83,83)"/>
<path d="M94 128h2v2h-2v-2z" fill="rgb(233,233,233)"/>
<path d="M100 128h2v4h-2v-4z" fill="rgb(24,24,24)"/>
<path d="M8 130h2v4h-2v-4z" fill="rgb(24,24,24)"/>
<path d="M28 130h2v2h-2v-2z" fill="rgb(24,24,24)"/>
<path d="M30 130h2v2h-2v-2z" fill="rgb(155,155,155)"/>
<path d="M32 130h2v2h-2v-2z" fill="rgb(209,209,209)"/>
<path d="M34 130h2v2h-2v-2z" fill="rgb(83,83,83)"/>
<path d="M36 130h2v2h-2v-2z" fill="rgb(138,138,138)"/>
<path d="M38 130h2v2h2v2h-4v-4z" fill="rgb(155,155,155)"/>
<path d="M40 130h2v2h-2v-2z" fill="rgb(24,24,24)"/>
<path d="M72 130h4v2h-4v-2z" fill="rgb(24,24,24)"/>
<path d="M76 130h2v4h-2v-4z" fill="rgb(138,138,138)"/>
<path d="M88 130h4v2h4v2h-4v2h-2v-2h-2v-4z" fill="rgb(155,155,155)"/>
<path d="M92 130h4v2h-4v-2z" fill="rgb(138,138,138)"/>
<path d="M98 130h2v2h-2v-2z" fill="rgb(138,138,138)"/>
<path d="M10 132h2v2h-2v-2z" fill="rgb(83,83,83)"/>
<path d="M28 132h2v2h-2v-2z" fill="rgb(151,10,10)"/>
<path d="M30 132h4v2h-4v-2z" fill="rgb(24,24,24)"/>
<path d="M34 132h4v2h-4v-2z" fill="rgb(209,209,209)"/>
<path d="M42 132h4v2h-4v-2z" fill="rgb(24,24,24)"/>
<path d="M66 132h6v2h-6v-2z" fill="rgb(83,83,83)"/>
<path d="M72 132h4v2h2v2h-4v-2h-2v-2z" fill="rgb(155,155,155)"/>
<path d="M78 132h2v2h-2v-2z" fill="rgb(155,155,155)"/>
<path d="M80 132h2v2h-2v-2z" fill="rgb(138,138,138)"/>
<path d="M96 132h2v2h-2v-2z" fill="rgb(138,138,138)"/>
<path d="M98 132h2v2h-2v-2z" fill="rgb(24,24,24)"/>
<path d="M10 134h2v2h-2v-2z" fill="rgb(24,24,24)"/>
<path d="M12 134h2v2h-2v-2z" fill="rgb(83,83,83)"/>
<path d="M24 134h2v2h2v4h-2v-2h-2v-4z" fill="rgb(83,83,83)"/>
<path d="M26 134h2v2h-2v-2z" fill="rgb(24,24,24)"/>
<path d="M28 134h2v2h-2v-2z" fill="rgb(110,11,11)"/>
<path d="M30 134h2v4h-2v-4z" fill="rgb(79,8,8)"/>
<path d="M34 134h4v2h-4v-2z" fill="rgb(24,24,24)"/>
<path d="M38 134h4v2h-4v-2z" fill="rgb(209,209,209)"/>
<path d="M42 134h4v2h-4v-2z" fill="rgb(244,244,244)"/>
<path d="M46 134h2v2h-2v-2z" fill="rgb(83,83,83)"/>
<path d="M48 134h2v2h-2v-2z" fill="rgb(24,24,24)"/>
<path d="M62 134h2v2h-2v-2z" fill="rgb(24,24,24)"/>
<path d="M64 134h2v2h-2v-2z" fill="rgb(83,83,83)"/>
<path d="M66 134h4v2h-4v-2z" fill="rgb(244,244,244)"/>
<path d="M70 134h4v2h-4v-2z" fill="rgb(209,209,209)"/>
<path d="M78 134h8v2h-4v2h-2v-2h-2v-2z" fill="rgb(24,24,24)"/>
<path d="M86 134h4v10h-2v-2h-2v-8z" fill="rgb(79,8,8)"/>
<path d="M92 134h4v2h-2v2h-2v2h-2v-4h2v-2z" fill="rgb(138,138,138)"/>
<path d="M96 134h2v2h-2v-2z" fill="rgb(24,24,24)"/>
<path d="M12 136h2v2h-2v-2z" fill="rgb(24,24,24)"/>
<path d="M14 136h2v2h-2v-2z" fill="rgb(83,83,83)"/>
<path d="M16 136h2v2h-2v-2z" fill="rgb(138,138,138)"/>
<path d="M28 136h2v2h-2v-2z" fill="rgb(24,24,24)"/>
<path d="M38 136h8v2h-8v-2z" fill="rgb(24,24,24)"/>
<path d="M66 136h12v2h-12v-2z" fill="rgb(24,24,24)"/>
<path d="M78 136h2v2h-2v-2z" fill="rgb(255,255,255)"/>
<path d="M82 136h4v4h-4v-4z" fill="rgb(83,83,83)"/>
<path d="M94 136h2v2h-2v-2z" fill="rgb(24,24,24)"/>
<path d="M14 138h2v2h-2v-2z" fill="rgb(24,24,24)"/>
<path d="M16 138h2v2h-2v-2z" fill="rgb(83,83,83)"/>
<path d="M18 138h2v2h-2v-2z" fill="rgb(138,138,138)"/>
<path d="M24 138h2v2h-2v-2z" fill="rgb(138,138,138)"/>
<path d="M28 138h2v2h-2v-2z" fill="rgb(138,138,138)"/>
<path d="M30 138h2v2h-2v-2z" fill="rgb(24,24,24)"/>
<path d="M78 138h2v2h-2v-2z" fill="rgb(24,24,24)"/>
<path d="M80 138h2v2h-2v-2z" fill="rgb(138,138,138)"/>
<path d="M92 138h2v2h-2v-2z" fill="rgb(24,24,24)"/>
<path d="M16 140h2v2h-2v-2z" fill="rgb(24,24,24)"/>
<path d="M18 140h2v2h-2v-2z" fill="rgb(83,83,83)"/>
<path d="M24 140h2v2h-2v-2z" fill="rgb(24,24,24)"/>
<path d="M26 140h2v2h-2v-2z" fill="rgb(155,155,155)"/>
<path d="M28 140h2v2h-2v-2z" fill="rgb(209,209,209)"/>
<path d="M30 140h2v2h-2v-2z" fill="rgb(155,155,155)"/>
<path d="M32 140h4v2h-4v-2z" fill="rgb(24,24,24)"/>
<path d="M74 140h4v2h-4v-2z" fill="rgb(24,24,24)"/>
<path d="M78 140h2v2h-2v-2z" fill="rgb(155,155,155)"/>
<path d="M80 140h2v2h-2v-2z" fill="rgb(209,209,209)"/>
<path d="M82 140h2v2h-2v-2z" fill="rgb(155,155,155)"/>
<path d="M84 140h2v2h-2v-2z" fill="rgb(138,138,138)"/>
<path d="M90 140h2v2h-2v-2z" fill="rgb(24,24,24)"/>
<path d="M18 142h2v2h-2v-2z" fill="rgb(24,24,24)"/>
<path d="M26 142h4v2h-4v-2z" fill="rgb(24,24,24)"/>
<path d="M30 142h4v2h-4v-2z" fill="rgb(209,209,209)"/>
<path d="M34 142h2v2h-2v-2z" fill="rgb(244,244,244)"/>
<path d="M36 142h2v2h-2v-2z" fill="rgb(83,83,83)"/>
<path d="M38 142h2v2h-2v-2z" fill="rgb(24,24,24)"/>
<path d="M70 142h2v2h-2v-2z" fill="rgb(24,24,24)"/>
<path d="M72 142h2v2h-2v-2z" fill="rgb(83,83,83)"/>
<path d="M74 142h2v2h-2v-2z" fill="rgb(244,244,244)"/>
<path d="M76 142h4v2h-4v-2z" fill="rgb(209,209,209)"/>
<path d="M80 142h2v2h-2v-2z" fill="rgb(138,138,138)"/>
<path d="M82 142h4v2h-4v-2z" fill="rgb(24,24,24)"/>
<path d="M30 144h6v2h-6v-2z" fill="rgb(24,24,24)"/>
<path d="M74 144h8v2h-8v-2z" fill="rgb(24,24,24)"/>
</svg>