<?xml version="1.0" encoding="utf-8"?>
<!-- generated at drububu.com  -->
<!DOCTYPE svg PUBLIC "-//W3C//DTD SVG 1.1//EN" "http://www.w3.org/Graphics/SVG/1.1/DTD/svg11.dtd">
<svg version="1.1" preserveAspectRatio="xMinYMin meet" xmlns="http://www.w3.org/2000/svg" xmlns:xlink="http://www.w3.org/1999/xlink" x="0px" y="0px" width="38px" height="64px" viewBox="0 0 38 64">
<path d="M0 0h2v12h-2v-12z" fill="rgb(255,255,255)"/>
<path d="M2 0h2v4h2v2h-2v6h-2v-12z" fill="rgb(40,40,40)"/>
<path d="M4 0h4v2h-2v2h-2v-4z" fill="rgb(124,124,124)"/>
<path d="M8 0h4v4h2v4h-2v2h-2v-2h-2v-2h2v-4h-2v-2z" fill="rgb(166,167,166)"/>
<path d="M12 0h4v2h-2v2h-2v-4z" fill="rgb(211,211,211)"/>
<path d="M16 0h6v2h-2v4h-2v-4h-2v-2z" fill="rgb(246,246,246)"/>
<path d="M22 0h4v4h-2v-2h-2v-2z" fill="rgb(211,211,211)"/>
<path d="M26 0h4v2h-2v4h2v2h-2v2h-2v-2h-2v-4h2v-4z" fill="rgb(166,167,166)"/>
<path d="M30 0h4v4h-2v-2h-2v-2z" fill="rgb(124,124,124)"/>
<path d="M34 0h2v12h-2v-6h-2v-2h2v-4z" fill="rgb(40,40,40)"/>
<path d="M36 0h2v12h-2v-12z" fill="rgb(255,255,255)"/>
<path d="M6 2h2v2h-2v-2z" fill="rgb(166,167,166)"/>
<path d="M8 2h2v4h-2v-4z" fill="rgb(211,211,211)"/>
<path d="M14 2h2v2h-2v-2z" fill="rgb(246,246,246)"/>
<path d="M16 2h2v4h-2v2h-2v-4h2v-2z" fill="rgb(211,211,211)"/>
<path d="M20 2h2v2h2v4h-2v-2h-2v-4z" fill="rgb(211,211,211)"/>
<path d="M22 2h2v2h-2v-2z" fill="rgb(246,246,246)"/>
<path d="M28 2h2v4h-2v-4z" fill="rgb(211,211,211)"/>
<path d="M30 2h2v2h-2v-2z" fill="rgb(166,167,166)"/>
<path d="M6 4h2v2h-2v-2z" fill="rgb(124,124,124)"/>
<path d="M30 4h2v2h-2v-2z" fill="rgb(124,124,124)"/>
<path d="M4 6h2v2h-2v-2z" fill="rgb(211,211,211)"/>
<path d="M6 6h2v2h-2v-2z" fill="rgb(86,86,86)"/>
<path d="M16 6h6v2h-6v-2z" fill="rgb(86,86,86)"/>
<path d="M30 6h2v2h-2v-2z" fill="rgb(86,86,86)"/>
<path d="M32 6h2v2h-2v-2z" fill="rgb(211,211,211)"/>
<path d="M4 8h2v6h-4v-2h2v-4z" fill="rgb(124,124,124)"/>
<path d="M6 8h2v2h-2v-2z" fill="rgb(211,211,211)"/>
<path d="M8 8h2v2h-2v-2z" fill="rgb(86,86,86)"/>
<path d="M12 8h4v2h-4v-2z" fill="rgb(86,86,86)"/>
<path d="M16 8h4v2h-4v-2z" fill="rgb(246,246,246)"/>
<path d="M20 8h2v2h-2v-2z" fill="rgb(211,211,211)"/>
<path d="M22 8h2v2h-2v-2z" fill="rgb(86,86,86)"/>
<path d="M24 8h2v2h-2v-2z" fill="rgb(40,40,40)"/>
<path d="M28 8h2v2h-2v-2z" fill="rgb(86,86,86)"/>
<path d="M30 8h2v2h-2v-2z" fill="rgb(211,211,211)"/>
<path d="M32 8h2v4h2v2h-4v-6z" fill="rgb(124,124,124)"/>
<path d="M6 10h2v4h-2v-4z" fill="rgb(166,167,166)"/>
<path d="M8 10h2v2h-2v-2z" fill="rgb(102,102,102)"/>
<path d="M10 10h2v4h-2v-4z" fill="rgb(86,86,86)"/>
<path d="M12 10h2v2h-2v-2z" fill="rgb(166,167,166)"/>
<path d="M14 10h2v2h-2v-2z" fill="rgb(246,246,246)"/>
<path d="M16 10h4v2h-4v-2z" fill="rgb(109,0,0)"/>
<path d="M20 10h2v2h-2v-2z" fill="rgb(42,0,0)"/>
<path d="M22 10h2v2h-2v-2z" fill="rgb(166,167,166)"/>
<path d="M24 10h2v2h-2v-2z" fill="rgb(124,124,124)"/>
<path d="M26 10h2v4h-2v-4z" fill="rgb(40,40,40)"/>
<path d="M28 10h2v2h-2v-2z" fill="rgb(102,102,102)"/>
<path d="M30 10h2v4h-2v-4z" fill="rgb(166,167,166)"/>
<path d="M0 12h2v4h2v2h-2v14h-2v-20z" fill="rgb(40,40,40)"/>
<path d="M8 12h2v2h-2v-2z" fill="rgb(124,124,124)"/>
<path d="M12 12h2v2h-2v-2z" fill="rgb(246,246,246)"/>
<path d="M14 12h2v2h-2v-2z" fill="rgb(109,0,0)"/>
<path d="M16 12h6v2h-6v-2z" fill="rgb(224,48,48)"/>
<path d="M22 12h2v2h-2v-2z" fill="rgb(42,0,0)"/>
<path d="M24 12h2v2h-2v-2z" fill="rgb(166,167,166)"/>
<path d="M28 12h2v2h-2v-2z" fill="rgb(124,124,124)"/>
<path d="M36 12h2v20h-2v-14h-2v-2h2v-4z" fill="rgb(40,40,40)"/>
<path d="M2 14h4v2h-4v-2z" fill="rgb(166,167,166)"/>
<path d="M6 14h2v2h-2v-2z" fill="rgb(124,124,124)"/>
<path d="M8 14h2v6h-2v-6z" fill="rgb(63,63,63)"/>
<path d="M10 14h2v4h-2v-4z" fill="rgb(246,246,246)"/>
<path d="M12 14h2v4h-2v-4z" fill="rgb(109,0,0)"/>
<path d="M14 14h2v2h-2v-2z" fill="rgb(194,41,41)"/>
<path d="M16 14h2v2h-2v-2z" fill="rgb(245,123,123)"/>
<path d="M18 14h2v2h-2v-2z" fill="rgb(254,176,177)"/>
<path d="M20 14h2v6h-6v-2h2v-2h2v-2z" fill="rgb(194,41,41)"/>
<path d="M22 14h2v2h-2v-2z" fill="rgb(209,44,44)"/>
<path d="M24 14h2v4h-2v-4z" fill="rgb(42,0,0)"/>
<path d="M26 14h2v2h-2v-2z" fill="rgb(166,167,166)"/>
<path d="M28 14h2v4h-2v-4z" fill="rgb(40,40,40)"/>
<path d="M30 14h2v2h-2v-2z" fill="rgb(124,124,124)"/>
<path d="M32 14h4v2h-4v-2z" fill="rgb(166,167,166)"/>
<path d="M4 16h2v2h-2v-2z" fill="rgb(63,63,63)"/>
<path d="M6 16h2v2h-2v-2z" fill="rgb(86,86,86)"/>
<path d="M14 16h2v4h-2v-4z" fill="rgb(224,48,48)"/>
<path d="M16 16h2v2h-2v-2z" fill="rgb(254,176,177)"/>
<path d="M22 16h2v4h-2v-4z" fill="rgb(224,48,48)"/>
<path d="M26 16h2v4h-2v-4z" fill="rgb(211,211,211)"/>
<path d="M30 16h2v2h-2v-2z" fill="rgb(86,86,86)"/>
<path d="M32 16h2v2h-2v-2z" fill="rgb(63,63,63)"/>
<path d="M2 18h4v2h-2v2h-2v-4z" fill="rgb(102,102,102)"/>
<path d="M6 18h2v2h-2v-2z" fill="rgb(124,124,124)"/>
<path d="M10 18h2v2h-2v-2z" fill="rgb(211,211,211)"/>
<path d="M12 18h2v2h-2v-2z" fill="rgb(42,0,0)"/>
<path d="M24 18h2v2h-2v-2z" fill="rgb(109,0,0)"/>
<path d="M28 18h2v2h-2v-2z" fill="rgb(86,86,86)"/>
<path d="M30 18h2v2h-2v-2z" fill="rgb(124,124,124)"/>
<path d="M32 18h4v4h-2v-2h-2v-2z" fill="rgb(102,102,102)"/>
<path d="M4 20h2v4h-2v4h2v2h-4v-8h2v-2z" fill="rgb(124,124,124)"/>
<path d="M6 20h2v2h-2v-2z" fill="rgb(211,211,211)"/>
<path d="M8 20h2v4h-2v-4z" fill="rgb(124,124,124)"/>
<path d="M10 20h2v4h-2v-4z" fill="rgb(40,40,40)"/>
<path d="M12 20h2v2h-2v-2z" fill="rgb(166,167,166)"/>
<path d="M14 20h2v2h-2v-2z" fill="rgb(42,0,0)"/>
<path d="M16 20h4v2h-4v-2z" fill="rgb(224,48,48)"/>
<path d="M20 20h2v2h-2v-2z" fill="rgb(245,123,123)"/>
<path d="M22 20h2v2h-2v-2z" fill="rgb(109,0,0)"/>
<path d="M24 20h2v2h-2v-2z" fill="rgb(246,246,246)"/>
<path d="M26 20h2v4h-2v-4z" fill="rgb(86,86,86)"/>
<path d="M28 20h2v2h-2v-2z" fill="rgb(124,124,124)"/>
<path d="M30 20h2v2h-2v-2z" fill="rgb(211,211,211)"/>
<path d="M32 20h2v2h2v8h-4v-2h2v-4h-2v-4z" fill="rgb(124,124,124)"/>
<path d="M6 22h2v2h-2v-2z" fill="rgb(166,167,166)"/>
<path d="M12 22h2v2h-2v-2z" fill="rgb(124,124,124)"/>
<path d="M14 22h2v2h-2v-2z" fill="rgb(166,167,166)"/>
<path d="M16 22h4v2h-4v-2z" fill="rgb(42,0,0)"/>
<path d="M20 22h2v2h-2v-2z" fill="rgb(109,0,0)"/>
<path d="M22 22h2v2h-2v-2z" fill="rgb(246,246,246)"/>
<path d="M24 22h2v2h-2v-2z" fill="rgb(124,124,124)"/>
<path d="M28 22h4v2h-4v-2z" fill="rgb(166,167,166)"/>
<path d="M4 24h2v4h-2v-4z" fill="rgb(166,167,166)"/>
<path d="M6 24h2v2h2v4h-2v-2h-2v-4z" fill="rgb(124,124,124)"/>
<path d="M8 24h2v2h-2v-2z" fill="rgb(211,211,211)"/>
<path d="M10 24h2v2h-2v-2z" fill="rgb(124,124,124)"/>
<path d="M12 24h4v2h-4v-2z" fill="rgb(40,40,40)"/>
<path d="M16 24h2v2h-2v-2z" fill="rgb(166,167,166)"/>
<path d="M18 24h4v2h-4v-2z" fill="rgb(211,211,211)"/>
<path d="M22 24h4v2h-4v-2z" fill="rgb(86,86,86)"/>
<path d="M26 24h2v2h-2v-2z" fill="rgb(166,167,166)"/>
<path d="M28 24h2v2h-2v-2z" fill="rgb(211,211,211)"/>
<path d="M30 24h2v4h-2v2h-2v-4h2v-2z" fill="rgb(124,124,124)"/>
<path d="M32 24h2v4h-2v-4z" fill="rgb(166,167,166)"/>
<path d="M10 26h2v2h-2v-2z" fill="rgb(211,211,211)"/>
<path d="M12 26h4v2h-4v-2z" fill="rgb(166,167,166)"/>
<path d="M16 26h2v2h-2v-2z" fill="rgb(40,40,40)"/>
<path d="M18 26h4v2h-4v-2z" fill="rgb(86,86,86)"/>
<path d="M22 26h2v2h-2v-2z" fill="rgb(124,124,124)"/>
<path d="M24 26h2v2h-2v-2z" fill="rgb(166,167,166)"/>
<path d="M26 26h2v2h-2v-2z" fill="rgb(211,211,211)"/>
<path d="M6 28h2v2h-2v-2z" fill="rgb(166,167,166)"/>
<path d="M10 28h4v2h-4v-2z" fill="rgb(86,86,86)"/>
<path d="M14 28h2v2h-2v-2z" fill="rgb(211,211,211)"/>
<path d="M16 28h2v6h-2v-6z" fill="rgb(166,167,166)"/>
<path d="M18 28h4v2h-4v-2z" fill="rgb(124,124,124)"/>
<path d="M22 28h2v2h-2v-2z" fill="rgb(211,211,211)"/>
<path d="M24 28h4v2h-4v-2z" fill="rgb(86,86,86)"/>
<path d="M30 28h2v2h-2v-2z" fill="rgb(166,167,166)"/>
<path d="M2 30h2v2h-2v-2z" fill="rgb(102,102,102)"/>
<path d="M4 30h2v4h-2v-4z" fill="rgb(166,167,166)"/>
<path d="M6 30h2v4h-2v-4z" fill="rgb(124,124,124)"/>
<path d="M8 30h2v4h-2v-4z" fill="rgb(86,86,86)"/>
<path d="M10 30h2v2h-2v-2z" fill="rgb(254,176,177)"/>
<path d="M12 30h2v2h-2v-2z" fill="rgb(224,48,48)"/>
<path d="M14 30h2v2h-2v-2z" fill="rgb(62,62,62)"/>
<path d="M18 30h4v6h-2v10h-2v-10h-2v-2h2v-4z" fill="rgb(246,246,246)"/>
<path d="M22 30h2v4h-2v-4z" fill="rgb(86,86,86)"/>
<path d="M24 30h2v2h-2v-2z" fill="rgb(254,176,177)"/>
<path d="M26 30h2v2h-2v-2z" fill="rgb(224,48,48)"/>
<path d="M28 30h2v2h-2v-2z" fill="rgb(62,62,62)"/>
<path d="M30 30h2v4h-2v-4z" fill="rgb(124,124,124)"/>
<path d="M32 30h2v4h-2v-4z" fill="rgb(166,167,166)"/>
<path d="M34 30h2v2h-2v-2z" fill="rgb(102,102,102)"/>
<path d="M0 32h2v6h2v4h2v4h2v2h2v4h2v2h2v4h2v4h2v2h-18v-32z" fill="rgb(255,255,255)"/>
<path d="M2 32h2v6h-2v-6z" fill="rgb(40,40,40)"/>
<path d="M10 32h2v2h-2v-2z" fill="rgb(224,48,48)"/>
<path d="M12 32h2v2h-2v-2z" fill="rgb(245,123,123)"/>
<path d="M14 32h2v2h-2v-2z" fill="rgb(40,40,40)"/>
<path d="M24 32h2v2h-2v-2z" fill="rgb(224,48,48)"/>
<path d="M26 32h2v2h-2v-2z" fill="rgb(245,123,123)"/>
<path d="M28 32h2v2h-2v-2z" fill="rgb(40,40,40)"/>
<path d="M34 32h2v6h-2v-6z" fill="rgb(40,40,40)"/>
<path d="M36 32h2v32h-18v-2h2v-4h2v-4h2v-2h2v-4h2v-2h2v-4h2v-4h2v-6z" fill="rgb(255,255,255)"/>
<path d="M4 34h2v2h-2v-2z" fill="rgb(124,124,124)"/>
<path d="M6 34h2v2h-2v-2z" fill="rgb(166,167,166)"/>
<path d="M8 34h2v2h-2v-2z" fill="rgb(124,124,124)"/>
<path d="M10 34h2v2h-2v-2z" fill="rgb(62,62,62)"/>
<path d="M12 34h2v2h-2v-2z" fill="rgb(40,40,40)"/>
<path d="M14 34h2v2h-2v-2z" fill="rgb(166,167,166)"/>
<path d="M22 34h2v4h-2v4h2v2h-2v4h-2v6h-2v-6h-2v-4h-2v-2h2v-4h-2v-2h4v10h2v-10
	h2v-2z" fill="rgb(211,211,211)"/>
<path d="M24 34h2v2h-2v-2z" fill="rgb(62,62,62)"/>
<path d="M26 34h2v2h-2v-2z" fill="rgb(40,40,40)"/>
<path d="M28 34h2v2h-2v-2z" fill="rgb(124,124,124)"/>
<path d="M30 34h2v2h-2v-2z" fill="rgb(166,167,166)"/>
<path d="M32 34h2v2h-2v-2z" fill="rgb(124,124,124)"/>
<path d="M4 36h2v2h-2v-2z" fill="rgb(102,102,102)"/>
<path d="M6 36h2v4h-2v-4z" fill="rgb(124,124,124)"/>
<path d="M8 36h2v2h-2v-2z" fill="rgb(211,211,211)"/>
<path d="M10 36h2v2h-2v-2z" fill="rgb(124,124,124)"/>
<path d="M12 36h2v4h-2v2h2v2h2v4h2v6h-2v-4h-2v-4h-2v-2h-2v-4h-2v-2h4v-2z" fill="rgb(166,167,166)"/>
<path d="M24 36h2v2h4v2h-2v4h-2v2h-2v4h-2v4h-2v-6h2v-4h2v-2h2v-2h-2v-4z" fill="rgb(166,167,166)"/>
<path d="M26 36h2v2h-2v-2z" fill="rgb(124,124,124)"/>
<path d="M28 36h2v2h-2v-2z" fill="rgb(211,211,211)"/>
<path d="M30 36h2v4h-2v-4z" fill="rgb(124,124,124)"/>
<path d="M32 36h2v2h-2v-2z" fill="rgb(102,102,102)"/>
<path d="M4 38h2v4h-2v-4z" fill="rgb(40,40,40)"/>
<path d="M14 38h2v4h-2v-4z" fill="rgb(246,246,246)"/>
<path d="M22 38h2v4h-2v-4z" fill="rgb(246,246,246)"/>
<path d="M32 38h2v4h-2v-4z" fill="rgb(40,40,40)"/>
<path d="M6 40h2v2h-2v-2z" fill="rgb(102,102,102)"/>
<path d="M8 40h2v4h-2v-4z" fill="rgb(124,124,124)"/>
<path d="M12 40h2v2h-2v-2z" fill="rgb(211,211,211)"/>
<path d="M24 40h2v2h-2v-2z" fill="rgb(211,211,211)"/>
<path d="M28 40h2v4h-2v-4z" fill="rgb(124,124,124)"/>
<path d="M30 40h2v2h-2v-2z" fill="rgb(102,102,102)"/>
<path d="M6 42h2v4h-2v-4z" fill="rgb(40,40,40)"/>
<path d="M30 42h2v4h-2v-4z" fill="rgb(40,40,40)"/>
<path d="M8 44h2v2h-2v-2z" fill="rgb(102,102,102)"/>
<path d="M10 44h2v2h-2v-2z" fill="rgb(124,124,124)"/>
<path d="M26 44h2v2h-2v-2z" fill="rgb(124,124,124)"/>
<path d="M28 44h2v2h-2v-2z" fill="rgb(102,102,102)"/>
<path d="M8 46h2v2h-2v-2z" fill="rgb(40,40,40)"/>
<path d="M10 46h2v2h-2v-2z" fill="rgb(102,102,102)"/>
<path d="M12 46h2v4h-2v-4z" fill="rgb(124,124,124)"/>
<path d="M24 46h2v4h-2v-4z" fill="rgb(124,124,124)"/>
<path d="M26 46h2v2h-2v-2z" fill="rgb(102,102,102)"/>
<path d="M28 46h2v2h-2v-2z" fill="rgb(40,40,40)"/>
<path d="M10 48h2v4h-2v-4z" fill="rgb(40,40,40)"/>
<path d="M26 48h2v4h-2v-4z" fill="rgb(40,40,40)"/>
<path d="M12 50h2v2h-2v-2z" fill="rgb(102,102,102)"/>
<path d="M14 50h2v2h-2v-2z" fill="rgb(124,124,124)"/>
<path d="M22 50h2v2h-2v-2z" fill="rgb(124,124,124)"/>
<path d="M24 50h2v2h-2v-2z" fill="rgb(102,102,102)"/>
<path d="M12 52h2v2h-2v-2z" fill="rgb(40,40,40)"/>
<path d="M14 52h2v2h-2v-2z" fill="rgb(102,102,102)"/>
<path d="M22 52h2v2h-2v-2z" fill="rgb(102,102,102)"/>
<path d="M24 52h2v2h-2v-2z" fill="rgb(40,40,40)"/>
<path d="M14 54h2v4h-2v-4z" fill="rgb(40,40,40)"/>
<path d="M16 54h2v2h-2v-2z" fill="rgb(102,102,102)"/>
<path d="M18 54h2v2h-2v-2z" fill="rgb(166,167,166)"/>
<path d="M20 54h2v2h-2v-2z" fill="rgb(102,102,102)"/>
<path d="M22 54h2v4h-2v-4z" fill="rgb(40,40,40)"/>
<path d="M16 56h2v2h-2v-2z" fill="rgb(63,63,63)"/>
<path d="M18 56h2v2h-2v-2z" fill="rgb(124,124,124)"/>
<path d="M20 56h2v2h-2v-2z" fill="rgb(63,63,63)"/>
<path d="M16 58h2v4h-2v-4z" fill="rgb(40,40,40)"/>
<path d="M18 58h2v2h-2v-2z" fill="rgb(102,102,102)"/>
<path d="M20 58h2v4h-2v-4z" fill="rgb(40,40,40)"/>
<path d="M18 60h2v2h-2v-2z" fill="rgb(63,63,63)"/>
<path d="M18 62h2v2h-2v-2z" fill="rgb(40,40,40)"/>
</svg>