<?xml version="1.0" encoding="utf-8"?>
<!-- generated at drububu.com  -->
<!DOCTYPE svg PUBLIC "-//W3C//DTD SVG 1.1//EN" "http://www.w3.org/Graphics/SVG/1.1/DTD/svg11.dtd">
<svg version="1.1" preserveAspectRatio="xMinYMin meet" xmlns="http://www.w3.org/2000/svg" xmlns:xlink="http://www.w3.org/1999/xlink" x="0px" y="0px" width="44px" height="32px" viewBox="0 0 44 32">
<path d="M0 0h8v2h-4v2h-2v2h-2v-6z" fill="rgb(255,255,255)"/>
<path d="M8 0h10v2h-10v-2z" fill="rgb(45,4,8)"/>
<path d="M18 0h26v16h-2v-2h-4v-2h-4v-4h4v-2h2v-4h-6v2h-4v-2h-12v-2z" fill="rgb(255,255,255)"/>
<path d="M4 2h4v2h-4v-2z" fill="rgb(45,4,8)"/>
<path d="M8 2h2v6h-2v-6z" fill="rgb(103,41,65)"/>
<path d="M10 2h2v2h-2v-2z" fill="rgb(159,44,82)"/>
<path d="M12 2h2v2h-2v-2z" fill="rgb(65,26,41)"/>
<path d="M14 2h2v2h-2v-2z" fill="rgb(103,41,65)"/>
<path d="M16 2h2v2h-2v-2z" fill="rgb(65,26,41)"/>
<path d="M18 2h12v2h-2v4h-2v-4h-8v-2z" fill="rgb(45,4,8)"/>
<path d="M34 2h6v4h-2v-2h-4v-2z" fill="rgb(45,4,8)"/>
<path d="M2 4h2v2h-2v-2z" fill="rgb(45,4,8)"/>
<path d="M4 4h2v4h-2v-4z" fill="rgb(103,41,65)"/>
<path d="M6 4h2v2h-2v-2z" fill="rgb(159,44,82)"/>
<path d="M10 4h2v4h-2v-4z" fill="rgb(65,26,41)"/>
<path d="M12 4h2v4h-2v-4z" fill="rgb(103,41,65)"/>
<path d="M14 4h2v2h-2v-2z" fill="rgb(159,44,82)"/>
<path d="M16 4h2v4h-2v-4z" fill="rgb(103,41,65)"/>
<path d="M18 4h4v4h-4v-4z" fill="rgb(65,26,41)"/>
<path d="M22 4h2v2h-2v-2z" fill="rgb(74,30,48)"/>
<path d="M24 4h2v2h-2v-2z" fill="rgb(159,44,82)"/>
<path d="M28 4h2v2h-2v-2z" fill="rgb(60,6,6)"/>
<path d="M30 4h4v2h-4v-2z" fill="rgb(45,4,8)"/>
<path d="M34 4h2v2h-2v-2z" fill="rgb(167,22,17)"/>
<path d="M36 4h2v2h-2v-2z" fill="rgb(107,12,8)"/>
<path d="M0 6h2v4h10v2h-12v-6z" fill="rgb(45,4,8)"/>
<path d="M2 6h2v2h-2v-2z" fill="rgb(65,26,41)"/>
<path d="M6 6h2v2h-2v-2z" fill="rgb(193,94,128)"/>
<path d="M14 6h2v2h-2v-2z" fill="rgb(193,94,128)"/>
<path d="M22 6h2v2h-2v-2z" fill="rgb(103,41,65)"/>
<path d="M24 6h2v2h-2v-2z" fill="rgb(65,26,41)"/>
<path d="M28 6h2v2h-2v-2z" fill="rgb(107,12,8)"/>
<path d="M30 6h2v6h-2v-6z" fill="rgb(167,22,17)"/>
<path d="M32 6h2v2h-2v-2z" fill="rgb(107,12,8)"/>
<path d="M34 6h4v2h-4v-2z" fill="rgb(45,4,8)"/>
<path d="M2 8h2v2h-2v-2z" fill="rgb(159,44,82)"/>
<path d="M4 8h6v2h-6v-2z" fill="rgb(65,26,41)"/>
<path d="M10 8h2v2h-2v-2z" fill="rgb(103,41,65)"/>
<path d="M12 8h2v2h2v2h4v2h4v2h-2v6h-2v6h-2v-4h-2v-2h2v-2h2v-4h-2v-2h-4v-2h-2
	v-4z" fill="rgb(65,26,41)"/>
<path d="M14 8h2v2h-2v-2z" fill="rgb(103,41,65)"/>
<path d="M16 8h2v2h-2v-2z" fill="rgb(65,26,41)"/>
<path d="M18 8h2v4h-2v-4z" fill="rgb(74,30,48)"/>
<path d="M20 8h2v4h-2v-4z" fill="rgb(103,41,65)"/>
<path d="M22 8h2v2h-2v-2z" fill="rgb(159,44,82)"/>
<path d="M24 8h2v4h-2v-4z" fill="rgb(103,41,65)"/>
<path d="M26 8h2v4h-2v-4z" fill="rgb(65,26,41)"/>
<path d="M28 8h2v16h-2v-16z" fill="rgb(45,4,8)"/>
<path d="M32 8h2v4h4v2h-4v6h4v2h-4v2h-2v-16z" fill="rgb(45,4,8)"/>
<path d="M16 10h2v2h-2v-2z" fill="rgb(159,44,82)"/>
<path d="M22 10h2v2h-2v-2z" fill="rgb(193,94,128)"/>
<path d="M0 12h2v8h-2v-8z" fill="rgb(255,255,255)"/>
<path d="M2 12h2v2h-2v-2z" fill="rgb(107,12,8)"/>
<path d="M4 12h2v8h-2v-8z" fill="rgb(255,255,255)"/>
<path d="M6 12h2v2h-2v-2z" fill="rgb(107,12,8)"/>
<path d="M8 12h2v8h-2v-8z" fill="rgb(255,255,255)"/>
<path d="M10 12h2v2h-2v-2z" fill="rgb(107,12,8)"/>
<path d="M12 12h2v2h-2v-2z" fill="rgb(45,4,8)"/>
<path d="M20 12h4v2h-4v-2z" fill="rgb(74,30,48)"/>
<path d="M24 12h2v2h-2v-2z" fill="rgb(65,26,41)"/>
<path d="M26 12h2v2h-2v-2z" fill="rgb(74,30,48)"/>
<path d="M30 12h2v2h-2v-2z" fill="rgb(107,12,8)"/>
<path d="M2 14h2v4h-2v-4z" fill="rgb(167,22,17)"/>
<path d="M6 14h2v4h-2v-4z" fill="rgb(167,22,17)"/>
<path d="M10 14h2v4h-2v-4z" fill="rgb(167,22,17)"/>
<path d="M12 14h2v4h-2v-4z" fill="rgb(255,255,255)"/>
<path d="M14 14h2v4h-2v-4z" fill="rgb(45,4,8)"/>
<path d="M16 14h2v2h-2v-2z" fill="rgb(103,41,65)"/>
<path d="M24 14h2v2h-2v-2z" fill="rgb(103,41,65)"/>
<path d="M26 14h2v2h-2v-2z" fill="rgb(65,26,41)"/>
<path d="M30 14h2v2h-2v-2z" fill="rgb(199,53,54)"/>
<path d="M34 14h4v2h-2v2h-2v-4z" fill="rgb(167,22,17)"/>
<path d="M38 14h4v2h-4v-2z" fill="rgb(45,4,8)"/>
<path d="M16 16h2v2h-2v-2z" fill="rgb(159,44,82)"/>
<path d="M18 16h2v4h-2v-4z" fill="rgb(103,41,65)"/>
<path d="M22 16h2v4h-2v-4z" fill="rgb(103,41,65)"/>
<path d="M24 16h2v2h-2v-2z" fill="rgb(159,44,82)"/>
<path d="M26 16h2v4h-2v-4z" fill="rgb(103,41,65)"/>
<path d="M30 16h2v4h-2v-4z" fill="rgb(107,12,8)"/>
<path d="M36 16h4v2h-2v2h-4v-2h2v-2z" fill="rgb(199,53,54)"/>
<path d="M40 16h2v2h-2v-2z" fill="rgb(167,22,17)"/>
<path d="M42 16h2v2h-2v-2z" fill="rgb(45,4,8)"/>
<path d="M2 18h2v2h-2v-2z" fill="rgb(107,12,8)"/>
<path d="M6 18h2v2h-2v-2z" fill="rgb(107,12,8)"/>
<path d="M10 18h2v2h-2v-2z" fill="rgb(107,12,8)"/>
<path d="M12 18h2v2h-2v-2z" fill="rgb(45,4,8)"/>
<path d="M14 18h2v2h-2v-2z" fill="rgb(103,41,65)"/>
<path d="M16 18h2v2h-2v-2z" fill="rgb(193,94,128)"/>
<path d="M24 18h2v2h-2v-2z" fill="rgb(193,94,128)"/>
<path d="M38 18h4v2h-4v-2z" fill="rgb(45,4,8)"/>
<path d="M42 18h2v14h-26v-2h12v-2h4v2h6v-4h-2v-2h-4v-2h4v-2h4v-2z" fill="rgb(255,255,255)"/>
<path d="M0 20h12v2h-10v4h-2v-6z" fill="rgb(45,4,8)"/>
<path d="M12 20h4v2h-2v2h-2v-4z" fill="rgb(65,26,41)"/>
<path d="M16 20h2v2h-2v-2z" fill="rgb(103,41,65)"/>
<path d="M22 20h4v2h-4v-2z" fill="rgb(74,30,48)"/>
<path d="M26 20h2v4h-2v-4z" fill="rgb(65,26,41)"/>
<path d="M30 20h2v2h-2v-2z" fill="rgb(167,22,17)"/>
<path d="M2 22h2v2h-2v-2z" fill="rgb(159,44,82)"/>
<path d="M4 22h6v2h-6v-2z" fill="rgb(65,26,41)"/>
<path d="M10 22h2v2h-2v-2z" fill="rgb(103,41,65)"/>
<path d="M14 22h2v2h-2v-2z" fill="rgb(103,41,65)"/>
<path d="M20 22h2v4h-2v-4z" fill="rgb(103,41,65)"/>
<path d="M22 22h2v2h-2v-2z" fill="rgb(159,44,82)"/>
<path d="M24 22h2v4h-2v-4z" fill="rgb(103,41,65)"/>
<path d="M30 22h2v2h-2v-2z" fill="rgb(199,53,54)"/>
<path d="M2 24h2v2h-2v-2z" fill="rgb(65,26,41)"/>
<path d="M4 24h2v4h-2v-4z" fill="rgb(103,41,65)"/>
<path d="M6 24h2v2h-2v-2z" fill="rgb(159,44,82)"/>
<path d="M8 24h2v6h-2v-6z" fill="rgb(103,41,65)"/>
<path d="M10 24h2v4h-2v-4z" fill="rgb(65,26,41)"/>
<path d="M12 24h2v4h-2v-4z" fill="rgb(103,41,65)"/>
<path d="M14 24h2v2h-2v-2z" fill="rgb(159,44,82)"/>
<path d="M16 24h2v4h-2v-4z" fill="rgb(103,41,65)"/>
<path d="M22 24h2v2h-2v-2z" fill="rgb(193,94,128)"/>
<path d="M26 24h2v4h2v2h-12v-2h8v-4z" fill="rgb(45,4,8)"/>
<path d="M28 24h2v2h-2v-2z" fill="rgb(199,53,54)"/>
<path d="M30 24h4v2h-4v-2z" fill="rgb(107,12,8)"/>
<path d="M34 24h4v2h-4v-2z" fill="rgb(45,4,8)"/>
<path d="M0 26h2v2h2v2h4v2h-8v-6z" fill="rgb(255,255,255)"/>
<path d="M2 26h2v2h-2v-2z" fill="rgb(45,4,8)"/>
<path d="M6 26h2v2h-2v-2z" fill="rgb(193,94,128)"/>
<path d="M14 26h2v2h-2v-2z" fill="rgb(193,94,128)"/>
<path d="M20 26h4v2h-4v-2z" fill="rgb(74,30,48)"/>
<path d="M24 26h2v2h-2v-2z" fill="rgb(65,26,41)"/>
<path d="M28 26h2v2h-2v-2z" fill="rgb(60,6,6)"/>
<path d="M30 26h4v2h-4v-2z" fill="rgb(45,4,8)"/>
<path d="M34 26h2v2h-2v-2z" fill="rgb(167,22,17)"/>
<path d="M36 26h2v2h-2v-2z" fill="rgb(107,12,8)"/>
<path d="M38 26h2v4h-6v-2h4v-2z" fill="rgb(45,4,8)"/>
<path d="M4 28h4v2h-4v-2z" fill="rgb(45,4,8)"/>
<path d="M10 28h2v2h-2v-2z" fill="rgb(159,44,82)"/>
<path d="M12 28h2v2h-2v-2z" fill="rgb(65,26,41)"/>
<path d="M14 28h2v2h-2v-2z" fill="rgb(103,41,65)"/>
<path d="M16 28h2v2h-2v-2z" fill="rgb(65,26,41)"/>
<path d="M8 30h10v2h-10v-2z" fill="rgb(45,4,8)"/>
</svg>