<?xml version="1.0" encoding="utf-8"?>
<!-- generated at drububu.com  -->
<!DOCTYPE svg PUBLIC "-//W3C//DTD SVG 1.1//EN" "http://www.w3.org/Graphics/SVG/1.1/DTD/svg11.dtd">
<svg version="1.1" preserveAspectRatio="xMinYMin meet" xmlns="http://www.w3.org/2000/svg" xmlns:xlink="http://www.w3.org/1999/xlink" x="0px" y="0px" width="46px" height="74px" viewBox="0 0 46 74">
<path d="M0 0h2v28h-2v-28z" fill="rgb(255,255,255)"/>
<path d="M2 0h6v2h-4v4h-2v-6z" fill="rgb(86,86,86)"/>
<path d="M8 0h30v2h-2v4h2v2h-2v2h2v2h-2v2h2v2h-2v14h-2v4h-2v-8h-2v-4h-2v-2h-2v2
	h-2v8h-2v-8h-2v-2h-2v2h-2v4h-2v8h-2v-4h-2v-14h-2v-2h2v-2h-2v-2h2v-2h-2v-2h2v-4
	h-2v-2z" fill="rgb(255,255,255)"/>
<path d="M38 0h6v6h-2v-4h-4v-2z" fill="rgb(86,86,86)"/>
<path d="M44 0h2v28h-2v-28z" fill="rgb(255,255,255)"/>
<path d="M4 2h2v4h-2v-4z" fill="rgb(211,211,211)"/>
<path d="M6 2h2v4h-2v-4z" fill="rgb(164,165,164)"/>
<path d="M8 2h2v4h-2v-4z" fill="rgb(40,40,40)"/>
<path d="M36 2h2v4h-2v-4z" fill="rgb(40,40,40)"/>
<path d="M38 2h2v4h-2v-4z" fill="rgb(164,165,164)"/>
<path d="M40 2h2v4h-2v-4z" fill="rgb(211,211,211)"/>
<path d="M2 6h2v20h4v-10h2v14h-2v-2h-6v-22z" fill="rgb(40,40,40)"/>
<path d="M4 6h2v4h-2v-4z" fill="rgb(236,236,236)"/>
<path d="M6 6h2v2h-2v-2z" fill="rgb(91,91,91)"/>
<path d="M38 6h2v2h-2v-2z" fill="rgb(91,91,91)"/>
<path d="M40 6h2v4h-2v-4z" fill="rgb(236,236,236)"/>
<path d="M42 6h2v22h-6v2h-2v-14h2v10h4v-20z" fill="rgb(40,40,40)"/>
<path d="M6 8h2v2h-2v-2z" fill="rgb(124,124,124)"/>
<path d="M8 8h2v2h-2v-2z" fill="rgb(40,40,40)"/>
<path d="M36 8h2v2h-2v-2z" fill="rgb(40,40,40)"/>
<path d="M38 8h2v2h-2v-2z" fill="rgb(124,124,124)"/>
<path d="M4 10h2v2h-2v-2z" fill="rgb(211,211,211)"/>
<path d="M6 10h2v2h-2v-2z" fill="rgb(91,91,91)"/>
<path d="M38 10h2v2h-2v-2z" fill="rgb(91,91,91)"/>
<path d="M40 10h2v2h-2v-2z" fill="rgb(211,211,211)"/>
<path d="M4 12h2v4h-2v-4z" fill="rgb(236,236,236)"/>
<path d="M6 12h2v2h-2v-2z" fill="rgb(124,124,124)"/>
<path d="M8 12h2v2h-2v-2z" fill="rgb(40,40,40)"/>
<path d="M36 12h2v2h-2v-2z" fill="rgb(40,40,40)"/>
<path d="M38 12h2v2h-2v-2z" fill="rgb(124,124,124)"/>
<path d="M40 12h2v4h-2v-4z" fill="rgb(236,236,236)"/>
<path d="M6 14h2v2h-2v-2z" fill="rgb(91,91,91)"/>
<path d="M38 14h2v2h-2v-2z" fill="rgb(91,91,91)"/>
<path d="M4 16h2v4h-2v-4z" fill="rgb(211,211,211)"/>
<path d="M6 16h2v4h-2v-4z" fill="rgb(164,165,164)"/>
<path d="M38 16h2v4h-2v-4z" fill="rgb(164,165,164)"/>
<path d="M40 16h2v4h-2v-4z" fill="rgb(211,211,211)"/>
<path d="M4 20h2v4h-2v-4z" fill="rgb(164,165,164)"/>
<path d="M6 20h2v2h-2v-2z" fill="rgb(124,124,124)"/>
<path d="M18 20h2v2h-2v-2z" fill="rgb(40,40,40)"/>
<path d="M26 20h2v2h-2v-2z" fill="rgb(40,40,40)"/>
<path d="M38 20h2v2h-2v-2z" fill="rgb(124,124,124)"/>
<path d="M40 20h2v4h-2v-4z" fill="rgb(164,165,164)"/>
<path d="M6 22h2v4h-2v-4z" fill="rgb(91,91,91)"/>
<path d="M16 22h2v4h-2v-4z" fill="rgb(40,40,40)"/>
<path d="M18 22h2v2h-2v-2z" fill="rgb(164,165,164)"/>
<path d="M20 22h2v8h-2v-8z" fill="rgb(40,40,40)"/>
<path d="M24 22h2v8h-2v-8z" fill="rgb(40,40,40)"/>
<path d="M26 22h2v2h-2v-2z" fill="rgb(164,165,164)"/>
<path d="M28 22h2v4h-2v-4z" fill="rgb(40,40,40)"/>
<path d="M38 22h2v4h-2v-4z" fill="rgb(91,91,91)"/>
<path d="M4 24h2v2h-2v-2z" fill="rgb(124,124,124)"/>
<path d="M18 24h2v2h-2v-2z" fill="rgb(236,236,236)"/>
<path d="M26 24h2v2h-2v-2z" fill="rgb(236,236,236)"/>
<path d="M40 24h2v2h-2v-2z" fill="rgb(124,124,124)"/>
<path d="M14 26h2v6h2v2h-4v-8z" fill="rgb(40,40,40)"/>
<path d="M16 26h2v2h-2v-2z" fill="rgb(164,165,164)"/>
<path d="M18 26h2v2h-2v-2z" fill="rgb(124,124,124)"/>
<path d="M26 26h2v2h-2v-2z" fill="rgb(124,124,124)"/>
<path d="M28 26h2v4h-2v-4z" fill="rgb(164,165,164)"/>
<path d="M30 26h2v8h-4v-2h2v-6z" fill="rgb(40,40,40)"/>
<path d="M0 28h2v6h-2v-6z" fill="rgb(40,40,40)"/>
<path d="M2 28h2v4h-2v-4z" fill="rgb(164,165,164)"/>
<path d="M4 28h2v4h-2v-4z" fill="rgb(236,236,236)"/>
<path d="M6 28h2v4h-2v-4z" fill="rgb(124,124,124)"/>
<path d="M16 28h2v2h-2v-2z" fill="rgb(166,167,166)"/>
<path d="M18 28h2v2h-2v-2z" fill="rgb(91,91,91)"/>
<path d="M26 28h2v2h-2v-2z" fill="rgb(91,91,91)"/>
<path d="M38 28h2v4h-2v-4z" fill="rgb(124,124,124)"/>
<path d="M40 28h2v4h-2v-4z" fill="rgb(236,236,236)"/>
<path d="M42 28h2v4h-2v-4z" fill="rgb(164,165,164)"/>
<path d="M44 28h2v6h-2v-6z" fill="rgb(40,40,40)"/>
<path d="M8 30h2v4h-2v-4z" fill="rgb(164,165,164)"/>
<path d="M10 30h2v4h-2v-4z" fill="rgb(40,40,40)"/>
<path d="M16 30h2v2h-2v-2z" fill="rgb(91,91,91)"/>
<path d="M18 30h2v2h-2v-2z" fill="rgb(40,40,40)"/>
<path d="M20 30h2v2h-2v-2z" fill="rgb(91,91,91)"/>
<path d="M22 30h2v2h2v2h-6v-2h2v-2z" fill="rgb(40,40,40)"/>
<path d="M24 30h2v2h-2v-2z" fill="rgb(91,91,91)"/>
<path d="M26 30h2v2h-2v-2z" fill="rgb(40,40,40)"/>
<path d="M28 30h2v2h-2v-2z" fill="rgb(91,91,91)"/>
<path d="M34 30h2v4h-2v-4z" fill="rgb(40,40,40)"/>
<path d="M36 30h2v4h-2v-4z" fill="rgb(164,165,164)"/>
<path d="M2 32h2v2h-2v-2z" fill="rgb(91,91,91)"/>
<path d="M4 32h2v4h-2v-4z" fill="rgb(164,165,164)"/>
<path d="M6 32h2v2h-2v-2z" fill="rgb(236,236,236)"/>
<path d="M18 32h2v2h-2v-2z" fill="rgb(86,86,86)"/>
<path d="M26 32h2v2h2v2h4v8h-2v-6h-4v-2h-10v2h-4v6h-2v-8h4v-2h10v-2z" fill="rgb(124,124,124)"/>
<path d="M38 32h2v2h-2v-2z" fill="rgb(236,236,236)"/>
<path d="M40 32h2v4h-2v-4z" fill="rgb(164,165,164)"/>
<path d="M42 32h2v2h-2v-2z" fill="rgb(91,91,91)"/>
<path d="M0 34h2v4h2v8h2v4h-2v18h2v4h2v2h-8v-40z" fill="rgb(255,255,255)"/>
<path d="M2 34h2v4h-2v-4z" fill="rgb(40,40,40)"/>
<path d="M6 34h2v2h-2v-2z" fill="rgb(91,91,91)"/>
<path d="M8 34h2v2h-2v-2z" fill="rgb(40,40,40)"/>
<path d="M10 34h2v2h-2v-2z" fill="rgb(124,124,124)"/>
<path d="M12 34h2v2h-2v-2z" fill="rgb(40,40,40)"/>
<path d="M14 34h2v2h-2v-2z" fill="rgb(86,86,86)"/>
<path d="M30 34h2v2h-2v-2z" fill="rgb(86,86,86)"/>
<path d="M32 34h2v2h-2v-2z" fill="rgb(40,40,40)"/>
<path d="M34 34h2v2h-2v-2z" fill="rgb(124,124,124)"/>
<path d="M36 34h2v2h-2v-2z" fill="rgb(40,40,40)"/>
<path d="M38 34h2v2h-2v-2z" fill="rgb(91,91,91)"/>
<path d="M42 34h2v4h-2v-4z" fill="rgb(40,40,40)"/>
<path d="M44 34h2v40h-8v-2h2v-4h2v-18h-2v-4h2v-8h2v-4z" fill="rgb(255,255,255)"/>
<path d="M4 36h2v2h-2v-2z" fill="rgb(91,91,91)"/>
<path d="M6 36h2v2h-2v-2z" fill="rgb(40,40,40)"/>
<path d="M8 36h2v2h-2v-2z" fill="rgb(124,124,124)"/>
<path d="M10 36h2v2h-2v-2z" fill="rgb(166,167,166)"/>
<path d="M18 36h2v2h6v-2h2v2h2v2h-14v-2h2v-2z" fill="rgb(166,167,166)"/>
<path d="M20 36h6v2h-6v-2z" fill="rgb(211,211,211)"/>
<path d="M34 36h2v2h-2v-2z" fill="rgb(166,167,166)"/>
<path d="M36 36h2v2h-2v-2z" fill="rgb(124,124,124)"/>
<path d="M38 36h2v2h-2v-2z" fill="rgb(40,40,40)"/>
<path d="M40 36h2v2h-2v-2z" fill="rgb(91,91,91)"/>
<path d="M4 38h2v8h-2v-8z" fill="rgb(40,40,40)"/>
<path d="M6 38h2v4h2v2h-4v-6z" fill="rgb(124,124,124)"/>
<path d="M8 38h2v4h-2v-4z" fill="rgb(166,167,166)"/>
<path d="M10 38h2v4h-2v-4z" fill="rgb(233,233,233)"/>
<path d="M14 38h2v2h-2v-2z" fill="rgb(211,211,211)"/>
<path d="M30 38h2v2h-2v-2z" fill="rgb(211,211,211)"/>
<path d="M34 38h2v4h-2v-4z" fill="rgb(233,233,233)"/>
<path d="M36 38h2v4h-2v-4z" fill="rgb(166,167,166)"/>
<path d="M38 38h2v6h-4v-2h2v-4z" fill="rgb(124,124,124)"/>
<path d="M40 38h2v8h-2v-8z" fill="rgb(40,40,40)"/>
<path d="M14 40h2v2h-2v-2z" fill="rgb(166,167,166)"/>
<path d="M16 40h2v2h-2v-2z" fill="rgb(42,0,0)"/>
<path d="M18 40h10v2h-10v-2z" fill="rgb(109,0,0)"/>
<path d="M28 40h2v2h-2v-2z" fill="rgb(42,0,0)"/>
<path d="M30 40h2v2h-2v-2z" fill="rgb(166,167,166)"/>
<path d="M10 42h2v4h-2v-4z" fill="rgb(211,211,211)"/>
<path d="M14 42h2v2h-2v-2z" fill="rgb(42,0,0)"/>
<path d="M16 42h2v2h-2v-2z" fill="rgb(174,0,0)"/>
<path d="M18 42h2v2h-2v-2z" fill="rgb(224,48,48)"/>
<path d="M20 42h2v2h-2v-2z" fill="rgb(239,230,230)"/>
<path d="M22 42h2v2h-2v-2z" fill="rgb(254,176,177)"/>
<path d="M24 42h2v2h-2v-2z" fill="rgb(239,230,230)"/>
<path d="M26 42h2v2h-2v-2z" fill="rgb(224,48,48)"/>
<path d="M28 42h2v2h-2v-2z" fill="rgb(174,0,0)"/>
<path d="M30 42h2v2h-2v-2z" fill="rgb(42,0,0)"/>
<path d="M34 42h2v2h-2v-2z" fill="rgb(211,211,211)"/>
<path d="M6 44h2v2h-2v-2z" fill="rgb(86,86,86)"/>
<path d="M8 44h2v2h-2v-2z" fill="rgb(166,167,166)"/>
<path d="M12 44h2v2h-2v-2z" fill="rgb(166,167,166)"/>
<path d="M14 44h2v2h-2v-2z" fill="rgb(109,0,0)"/>
<path d="M16 44h2v2h-2v-2z" fill="rgb(42,0,0)"/>
<path d="M18 44h2v2h-2v-2z" fill="rgb(245,123,123)"/>
<path d="M20 44h6v2h-6v-2z" fill="rgb(174,0,0)"/>
<path d="M26 44h2v2h-2v-2z" fill="rgb(245,123,123)"/>
<path d="M28 44h2v2h-2v-2z" fill="rgb(42,0,0)"/>
<path d="M30 44h2v2h-2v-2z" fill="rgb(109,0,0)"/>
<path d="M32 44h6v2h-6v-2z" fill="rgb(166,167,166)"/>
<path d="M38 44h2v2h-2v-2z" fill="rgb(86,86,86)"/>
<path d="M6 46h2v4h-2v-4z" fill="rgb(40,40,40)"/>
<path d="M8 46h4v2h-4v-2z" fill="rgb(86,86,86)"/>
<path d="M12 46h2v2h-2v-2z" fill="rgb(109,0,0)"/>
<path d="M14 46h2v2h-2v-2z" fill="rgb(245,123,123)"/>
<path d="M16 46h2v2h-2v-2z" fill="rgb(194,41,41)"/>
<path d="M18 46h2v4h-4v-2h2v-2z" fill="rgb(42,0,0)"/>
<path d="M20 46h6v2h-6v-2z" fill="rgb(109,0,0)"/>
<path d="M26 46h2v2h2v2h-4v-4z" fill="rgb(42,0,0)"/>
<path d="M28 46h2v2h-2v-2z" fill="rgb(194,41,41)"/>
<path d="M30 46h2v2h-2v-2z" fill="rgb(245,123,123)"/>
<path d="M32 46h2v2h-2v-2z" fill="rgb(109,0,0)"/>
<path d="M34 46h4v2h-4v-2z" fill="rgb(86,86,86)"/>
<path d="M38 46h2v4h-2v-4z" fill="rgb(40,40,40)"/>
<path d="M8 48h4v2h-2v2h-2v-4z" fill="rgb(102,102,102)"/>
<path d="M12 48h2v6h-2v-6z" fill="rgb(40,40,40)"/>
<path d="M14 48h2v2h-2v-2z" fill="rgb(109,0,0)"/>
<path d="M20 48h2v2h-2v-2z" fill="rgb(194,41,41)"/>
<path d="M22 48h2v2h-2v-2z" fill="rgb(245,123,123)"/>
<path d="M24 48h2v2h-2v-2z" fill="rgb(194,41,41)"/>
<path d="M30 48h2v2h-2v-2z" fill="rgb(109,0,0)"/>
<path d="M32 48h2v6h-2v-6z" fill="rgb(40,40,40)"/>
<path d="M34 48h4v4h-2v-2h-2v-2z" fill="rgb(102,102,102)"/>
<path d="M4 50h2v4h-2v-4z" fill="rgb(40,40,40)"/>
<path d="M6 50h2v2h-2v-2z" fill="rgb(124,124,124)"/>
<path d="M10 50h2v2h-2v-2z" fill="rgb(166,167,166)"/>
<path d="M14 50h4v4h-2v-2h-2v-2z" fill="rgb(190,190,190)"/>
<path d="M18 50h2v2h-2v-2z" fill="rgb(239,240,239)"/>
<path d="M20 50h2v2h-2v-2z" fill="rgb(42,0,0)"/>
<path d="M22 50h2v2h-2v-2z" fill="rgb(109,0,0)"/>
<path d="M24 50h2v2h-2v-2z" fill="rgb(42,0,0)"/>
<path d="M26 50h2v2h-2v-2z" fill="rgb(255,255,255)"/>
<path d="M28 50h4v2h-2v2h-2v-4z" fill="rgb(190,190,190)"/>
<path d="M34 50h2v2h-2v-2z" fill="rgb(166,167,166)"/>
<path d="M38 50h2v2h-2v-2z" fill="rgb(124,124,124)"/>
<path d="M40 50h2v4h-2v-4z" fill="rgb(40,40,40)"/>
<path d="M6 52h6v2h-6v-2z" fill="rgb(86,86,86)"/>
<path d="M14 52h2v2h-2v-2z" fill="rgb(124,124,124)"/>
<path d="M18 52h2v4h-2v-4z" fill="rgb(173,174,173)"/>
<path d="M20 52h6v2h-6v-2z" fill="rgb(239,240,239)"/>
<path d="M26 52h2v4h-4v-2h2v-2z" fill="rgb(173,174,173)"/>
<path d="M30 52h2v2h-2v-2z" fill="rgb(124,124,124)"/>
<path d="M34 52h6v2h-6v-2z" fill="rgb(86,86,86)"/>
<path d="M4 54h2v2h-2v-2z" fill="rgb(86,86,86)"/>
<path d="M6 54h2v2h-2v-2z" fill="rgb(166,167,166)"/>
<path d="M8 54h2v2h-2v-2z" fill="rgb(211,211,211)"/>
<path d="M10 54h2v2h-2v-2z" fill="rgb(233,233,233)"/>
<path d="M12 54h2v2h-2v-2z" fill="rgb(166,167,166)"/>
<path d="M14 54h2v2h-2v-2z" fill="rgb(40,40,40)"/>
<path d="M16 54h2v2h-2v-2z" fill="rgb(124,124,124)"/>
<path d="M20 54h2v2h-2v-2z" fill="rgb(190,190,190)"/>
<path d="M22 54h2v2h-2v-2z" fill="rgb(211,211,211)"/>
<path d="M28 54h2v2h-2v-2z" fill="rgb(124,124,124)"/>
<path d="M30 54h2v2h-2v-2z" fill="rgb(40,40,40)"/>
<path d="M32 54h2v2h-2v-2z" fill="rgb(166,167,166)"/>
<path d="M34 54h2v2h-2v-2z" fill="rgb(233,233,233)"/>
<path d="M36 54h2v2h-2v-2z" fill="rgb(211,211,211)"/>
<path d="M38 54h2v2h-2v-2z" fill="rgb(166,167,166)"/>
<path d="M40 54h2v2h-2v-2z" fill="rgb(86,86,86)"/>
<path d="M4 56h2v6h4v2h-4v4h-2v-12z" fill="rgb(40,40,40)"/>
<path d="M6 56h2v2h4v2h-4v2h-2v-6z" fill="rgb(124,124,124)"/>
<path d="M8 56h4v2h-4v-2z" fill="rgb(166,167,166)"/>
<path d="M12 56h2v2h-2v-2z" fill="rgb(233,233,233)"/>
<path d="M14 56h2v2h-2v-2z" fill="rgb(166,167,166)"/>
<path d="M16 56h4v2h-4v-2z" fill="rgb(40,40,40)"/>
<path d="M20 56h2v2h-2v-2z" fill="rgb(124,124,124)"/>
<path d="M22 56h2v2h-2v-2z" fill="rgb(173,174,173)"/>
<path d="M24 56h2v2h-2v-2z" fill="rgb(124,124,124)"/>
<path d="M26 56h4v2h-4v-2z" fill="rgb(40,40,40)"/>
<path d="M30 56h2v2h-2v-2z" fill="rgb(166,167,166)"/>
<path d="M32 56h2v2h-2v-2z" fill="rgb(233,233,233)"/>
<path d="M34 56h4v2h-4v-2z" fill="rgb(166,167,166)"/>
<path d="M38 56h2v6h-2v-2h-4v-2h4v-2z" fill="rgb(124,124,124)"/>
<path d="M40 56h2v12h-2v-4h-4v-2h4v-6z" fill="rgb(40,40,40)"/>
<path d="M12 58h2v2h-2v-2z" fill="rgb(166,167,166)"/>
<path d="M14 58h2v2h-2v-2z" fill="rgb(211,211,211)"/>
<path d="M16 58h2v4h-2v-4z" fill="rgb(166,167,166)"/>
<path d="M18 58h2v2h-2v-2z" fill="rgb(246,246,246)"/>
<path d="M20 58h2v2h-2v-2z" fill="rgb(86,86,86)"/>
<path d="M22 58h2v2h-2v-2z" fill="rgb(40,40,40)"/>
<path d="M24 58h2v2h-2v-2z" fill="rgb(86,86,86)"/>
<path d="M26 58h2v2h-2v-2z" fill="rgb(246,246,246)"/>
<path d="M28 58h2v4h-2v-4z" fill="rgb(166,167,166)"/>
<path d="M30 58h2v2h-2v-2z" fill="rgb(211,211,211)"/>
<path d="M32 58h2v2h-2v-2z" fill="rgb(166,167,166)"/>
<path d="M8 60h2v2h-2v-2z" fill="rgb(211,211,211)"/>
<path d="M10 60h2v2h-2v-2z" fill="rgb(166,167,166)"/>
<path d="M12 60h4v2h-4v-2z" fill="rgb(124,124,124)"/>
<path d="M18 60h2v2h-2v-2z" fill="rgb(124,124,124)"/>
<path d="M20 60h2v2h-2v-2z" fill="rgb(246,246,246)"/>
<path d="M22 60h2v4h-2v-4z" fill="rgb(86,86,86)"/>
<path d="M24 60h2v2h-2v-2z" fill="rgb(246,246,246)"/>
<path d="M26 60h2v2h-2v-2z" fill="rgb(124,124,124)"/>
<path d="M30 60h4v2h-4v-2z" fill="rgb(124,124,124)"/>
<path d="M34 60h2v2h-2v-2z" fill="rgb(166,167,166)"/>
<path d="M36 60h2v2h-2v-2z" fill="rgb(211,211,211)"/>
<path d="M10 62h2v2h-2v-2z" fill="rgb(211,211,211)"/>
<path d="M12 62h4v2h-4v-2z" fill="rgb(62,62,62)"/>
<path d="M16 62h2v2h-2v-2z" fill="rgb(124,124,124)"/>
<path d="M18 62h2v2h-2v-2z" fill="rgb(211,211,211)"/>
<path d="M20 62h2v2h-2v-2z" fill="rgb(233,233,233)"/>
<path d="M24 62h2v2h-2v-2z" fill="rgb(233,233,233)"/>
<path d="M26 62h2v2h-2v-2z" fill="rgb(211,211,211)"/>
<path d="M28 62h2v2h-2v-2z" fill="rgb(124,124,124)"/>
<path d="M30 62h4v2h-4v-2z" fill="rgb(62,62,62)"/>
<path d="M34 62h2v2h-2v-2z" fill="rgb(211,211,211)"/>
<path d="M6 64h4v4h-2v-2h-2v-2z" fill="rgb(86,86,86)"/>
<path d="M10 64h2v4h-2v-4z" fill="rgb(62,62,62)"/>
<path d="M12 64h2v2h-2v-2z" fill="rgb(86,86,86)"/>
<path d="M14 64h2v2h-2v-2z" fill="rgb(114,114,114)"/>
<path d="M16 64h2v2h-2v-2z" fill="rgb(62,62,62)"/>
<path d="M18 64h4v2h-4v-2z" fill="rgb(40,40,40)"/>
<path d="M22 64h2v2h-2v-2z" fill="rgb(124,124,124)"/>
<path d="M24 64h4v2h-4v-2z" fill="rgb(40,40,40)"/>
<path d="M28 64h2v4h-2v-4z" fill="rgb(62,62,62)"/>
<path d="M30 64h2v2h-2v-2z" fill="rgb(114,114,114)"/>
<path d="M32 64h2v2h-2v-2z" fill="rgb(86,86,86)"/>
<path d="M34 64h2v4h-2v-4z" fill="rgb(40,40,40)"/>
<path d="M36 64h4v2h-2v2h-2v-4z" fill="rgb(86,86,86)"/>
<path d="M6 66h2v2h-2v-2z" fill="rgb(124,124,124)"/>
<path d="M12 66h2v2h-2v-2z" fill="rgb(143,143,143)"/>
<path d="M14 66h2v2h-2v-2z" fill="rgb(239,240,239)"/>
<path d="M16 66h2v2h-2v-2z" fill="rgb(40,40,40)"/>
<path d="M18 66h2v2h-2v-2z" fill="rgb(124,124,124)"/>
<path d="M20 66h2v2h-2v-2z" fill="rgb(166,167,166)"/>
<path d="M22 66h2v8h-2v-8z" fill="rgb(246,246,246)"/>
<path d="M24 66h2v2h-2v-2z" fill="rgb(166,167,166)"/>
<path d="M26 66h2v2h-2v-2z" fill="rgb(124,124,124)"/>
<path d="M30 66h2v2h-2v-2z" fill="rgb(239,240,239)"/>
<path d="M32 66h2v2h-2v-2z" fill="rgb(143,143,143)"/>
<path d="M38 66h2v2h-2v-2z" fill="rgb(124,124,124)"/>
<path d="M6 68h2v4h-2v-4z" fill="rgb(40,40,40)"/>
<path d="M8 68h2v2h2v4h-2v-2h-2v-4z" fill="rgb(124,124,124)"/>
<path d="M10 68h2v2h-2v-2z" fill="rgb(86,86,86)"/>
<path d="M12 68h2v2h-2v-2z" fill="rgb(62,62,62)"/>
<path d="M14 68h2v2h-2v-2z" fill="rgb(40,40,40)"/>
<path d="M16 68h2v2h-2v-2z" fill="rgb(124,124,124)"/>
<path d="M18 68h2v2h-2v-2z" fill="rgb(166,167,166)"/>
<path d="M20 68h2v6h-2v-6z" fill="rgb(233,233,233)"/>
<path d="M24 68h2v6h-2v-6z" fill="rgb(233,233,233)"/>
<path d="M26 68h2v2h-2v-2z" fill="rgb(166,167,166)"/>
<path d="M28 68h2v2h-2v-2z" fill="rgb(124,124,124)"/>
<path d="M30 68h2v2h-2v-2z" fill="rgb(62,62,62)"/>
<path d="M32 68h2v2h-2v-2z" fill="rgb(40,40,40)"/>
<path d="M34 68h2v2h-2v-2z" fill="rgb(86,86,86)"/>
<path d="M36 68h2v4h-2v2h-2v-4h2v-2z" fill="rgb(124,124,124)"/>
<path d="M38 68h2v4h-2v-4z" fill="rgb(40,40,40)"/>
<path d="M12 70h2v2h-2v-2z" fill="rgb(86,86,86)"/>
<path d="M14 70h2v2h-2v-2z" fill="rgb(124,124,124)"/>
<path d="M16 70h2v4h-6v-2h4v-2z" fill="rgb(166,167,166)"/>
<path d="M18 70h2v4h-2v-4z" fill="rgb(211,211,211)"/>
<path d="M26 70h2v4h-2v-4z" fill="rgb(211,211,211)"/>
<path d="M28 70h2v2h4v2h-6v-4z" fill="rgb(166,167,166)"/>
<path d="M30 70h2v2h-2v-2z" fill="rgb(124,124,124)"/>
<path d="M32 70h2v2h-2v-2z" fill="rgb(86,86,86)"/>
<path d="M8 72h2v2h-2v-2z" fill="rgb(40,40,40)"/>
<path d="M36 72h2v2h-2v-2z" fill="rgb(40,40,40)"/>
</svg>