<?xml version="1.0" encoding="utf-8"?>
<!-- generated at drububu.com  -->
<!DOCTYPE svg PUBLIC "-//W3C//DTD SVG 1.1//EN" "http://www.w3.org/Graphics/SVG/1.1/DTD/svg11.dtd">
<svg version="1.1" preserveAspectRatio="xMinYMin meet" xmlns="http://www.w3.org/2000/svg" xmlns:xlink="http://www.w3.org/1999/xlink" x="0px" y="0px" width="50px" height="46px" viewBox="0 0 50 46">
<path d="M0 0h8v10h-2v-6h-4v2h-2v-6z" fill="rgb(255,255,255)"/>
<path d="M8 0h2v12h2v2h-2v8h-2v-6h-2v4h-2v-16h2v6h2v-10z" fill="rgb(40,40,40)"/>
<path d="M10 0h4v2h-2v8h2v2h2v2h2v4h-2v-2h-2v-2h-2v-2h-2v-12z" fill="rgb(124,124,124)"/>
<path d="M14 0h4v2h-2v6h2v2h-2v2h-2v-2h-2v-4h2v-6z" fill="rgb(166,167,166)"/>
<path d="M18 0h2v2h2v2h-2v2h2v-2h2v4h-8v-6h2v-2z" fill="rgb(211,211,211)"/>
<path d="M20 0h2v2h-2v-2z" fill="rgb(246,246,246)"/>
<path d="M22 0h2v4h-2v-4z" fill="rgb(233,233,233)"/>
<path d="M24 0h2v4h-2v-4z" fill="rgb(246,246,246)"/>
<path d="M26 0h2v4h-2v-4z" fill="rgb(233,233,233)"/>
<path d="M28 0h2v2h-2v-2z" fill="rgb(246,246,246)"/>
<path d="M30 0h2v2h2v6h-8v-4h2v-2h2v-2z" fill="rgb(211,211,211)"/>
<path d="M32 0h4v6h2v4h-2v2h-2v-2h-2v-2h2v-6h-2v-2z" fill="rgb(166,167,166)"/>
<path d="M36 0h4v12h-2v2h-2v2h-2v2h-2v-4h2v-2h2v-2h2v-8h-2v-2z" fill="rgb(124,124,124)"/>
<path d="M40 0h2v10h2v-6h2v16h-2v-4h-2v6h-2v-8h-2v-2h2v-12z" fill="rgb(40,40,40)"/>
<path d="M42 0h8v6h-2v-2h-4v6h-2v-10z" fill="rgb(255,255,255)"/>
<path d="M12 2h2v4h-2v-4z" fill="rgb(211,211,211)"/>
<path d="M36 2h2v4h-2v-4z" fill="rgb(211,211,211)"/>
<path d="M2 4h2v2h-2v-2z" fill="rgb(86,86,86)"/>
<path d="M20 4h2v2h-2v-2z" fill="rgb(233,233,233)"/>
<path d="M24 4h2v6h-2v-6z" fill="rgb(233,233,233)"/>
<path d="M28 4h2v2h-2v-2z" fill="rgb(233,233,233)"/>
<path d="M46 4h2v2h-2v-2z" fill="rgb(86,86,86)"/>
<path d="M0 6h2v8h-2v-8z" fill="rgb(86,86,86)"/>
<path d="M2 6h2v2h-2v-2z" fill="rgb(166,167,166)"/>
<path d="M46 6h2v2h-2v-2z" fill="rgb(166,167,166)"/>
<path d="M48 6h2v8h-2v-8z" fill="rgb(86,86,86)"/>
<path d="M2 8h2v2h-2v-2z" fill="rgb(211,211,211)"/>
<path d="M18 8h4v2h-4v-2z" fill="rgb(86,86,86)"/>
<path d="M22 8h2v2h-2v-2z" fill="rgb(166,167,166)"/>
<path d="M26 8h2v2h-2v-2z" fill="rgb(166,167,166)"/>
<path d="M28 8h4v2h-4v-2z" fill="rgb(86,86,86)"/>
<path d="M46 8h2v2h-2v-2z" fill="rgb(211,211,211)"/>
<path d="M2 10h2v2h-2v-2z" fill="rgb(246,246,246)"/>
<path d="M16 10h2v2h-2v-2z" fill="rgb(86,86,86)"/>
<path d="M18 10h2v2h-2v-2z" fill="rgb(239,240,239)"/>
<path d="M20 10h2v2h-2v-2z" fill="rgb(114,114,114)"/>
<path d="M22 10h2v4h-2v-4z" fill="rgb(62,62,62)"/>
<path d="M24 10h2v2h-2v-2z" fill="rgb(166,167,166)"/>
<path d="M26 10h2v4h-2v-4z" fill="rgb(62,62,62)"/>
<path d="M28 10h2v2h-2v-2z" fill="rgb(114,114,114)"/>
<path d="M30 10h2v2h-2v-2z" fill="rgb(239,240,239)"/>
<path d="M32 10h2v2h-2v-2z" fill="rgb(86,86,86)"/>
<path d="M46 10h2v2h-2v-2z" fill="rgb(246,246,246)"/>
<path d="M2 12h2v2h-2v-2z" fill="rgb(211,211,211)"/>
<path d="M6 12h2v2h-2v-2z" fill="rgb(86,86,86)"/>
<path d="M16 12h2v2h-2v-2z" fill="rgb(62,62,62)"/>
<path d="M18 12h2v2h-2v-2z" fill="rgb(143,143,143)"/>
<path d="M20 12h2v2h-2v-2z" fill="rgb(86,86,86)"/>
<path d="M24 12h2v2h-2v-2z" fill="rgb(124,124,124)"/>
<path d="M28 12h2v2h-2v-2z" fill="rgb(86,86,86)"/>
<path d="M30 12h2v2h-2v-2z" fill="rgb(143,143,143)"/>
<path d="M32 12h2v2h-2v-2z" fill="rgb(62,62,62)"/>
<path d="M42 12h2v2h-2v-2z" fill="rgb(86,86,86)"/>
<path d="M46 12h2v2h-2v-2z" fill="rgb(211,211,211)"/>
<path d="M0 14h2v6h-2v-6z" fill="rgb(40,40,40)"/>
<path d="M2 14h2v2h-2v-2z" fill="rgb(246,246,246)"/>
<path d="M10 14h2v4h-2v-4z" fill="rgb(166,167,166)"/>
<path d="M12 14h2v2h-2v-2z" fill="rgb(86,86,86)"/>
<path d="M18 14h4v2h-4v-2z" fill="rgb(62,62,62)"/>
<path d="M22 14h6v2h-6v-2z" fill="rgb(86,86,86)"/>
<path d="M28 14h2v2h-2v-2z" fill="rgb(138,138,138)"/>
<path d="M30 14h2v2h-2v-2z" fill="rgb(62,62,62)"/>
<path d="M36 14h2v2h-2v-2z" fill="rgb(86,86,86)"/>
<path d="M38 14h2v4h-2v-4z" fill="rgb(166,167,166)"/>
<path d="M46 14h2v2h-2v-2z" fill="rgb(246,246,246)"/>
<path d="M48 14h2v6h-2v-6z" fill="rgb(40,40,40)"/>
<path d="M2 16h2v2h-2v-2z" fill="rgb(211,211,211)"/>
<path d="M6 16h2v6h-2v14h2v8h2v2h-10v-26h2v2h2v-2h2v-4z" fill="rgb(255,255,255)"/>
<path d="M12 16h2v2h-2v-2z" fill="rgb(211,211,211)"/>
<path d="M14 16h2v2h-2v-2z" fill="rgb(86,86,86)"/>
<path d="M18 16h4v2h-4v-2z" fill="rgb(86,86,86)"/>
<path d="M22 16h4v2h-4v-2z" fill="rgb(246,246,246)"/>
<path d="M26 16h2v2h-2v-2z" fill="rgb(211,211,211)"/>
<path d="M28 16h2v2h-2v-2z" fill="rgb(86,86,86)"/>
<path d="M30 16h2v2h-2v-2z" fill="rgb(40,40,40)"/>
<path d="M34 16h2v2h-2v-2z" fill="rgb(86,86,86)"/>
<path d="M36 16h2v2h-2v-2z" fill="rgb(211,211,211)"/>
<path d="M42 16h2v4h2v2h2v-2h2v26h-10v-2h2v-8h2v-14h-2v-6z" fill="rgb(255,255,255)"/>
<path d="M46 16h2v2h-2v-2z" fill="rgb(211,211,211)"/>
<path d="M2 18h2v2h-2v-2z" fill="rgb(166,167,166)"/>
<path d="M10 18h4v2h-2v4h-4v-2h2v-4z" fill="rgb(124,124,124)"/>
<path d="M14 18h2v2h-2v-2z" fill="rgb(211,211,211)"/>
<path d="M16 18h2v4h-2v-4z" fill="rgb(86,86,86)"/>
<path d="M18 18h2v2h-2v-2z" fill="rgb(166,167,166)"/>
<path d="M20 18h2v2h-2v-2z" fill="rgb(246,246,246)"/>
<path d="M22 18h4v2h-4v-2z" fill="rgb(109,0,0)"/>
<path d="M26 18h2v2h-2v-2z" fill="rgb(42,0,0)"/>
<path d="M28 18h2v2h-2v-2z" fill="rgb(166,167,166)"/>
<path d="M30 18h2v2h-2v-2z" fill="rgb(124,124,124)"/>
<path d="M32 18h2v4h-2v-4z" fill="rgb(40,40,40)"/>
<path d="M34 18h2v2h-2v-2z" fill="rgb(211,211,211)"/>
<path d="M36 18h4v4h2v2h-4v-4h-2v-2z" fill="rgb(124,124,124)"/>
<path d="M46 18h2v2h-2v-2z" fill="rgb(166,167,166)"/>
<path d="M2 20h2v2h-2v-2z" fill="rgb(40,40,40)"/>
<path d="M12 20h4v2h-2v2h-2v-4z" fill="rgb(166,167,166)"/>
<path d="M18 20h2v2h-2v-2z" fill="rgb(246,246,246)"/>
<path d="M20 20h2v2h-2v-2z" fill="rgb(109,0,0)"/>
<path d="M22 20h6v2h-6v-2z" fill="rgb(224,48,48)"/>
<path d="M28 20h2v2h-2v-2z" fill="rgb(42,0,0)"/>
<path d="M30 20h2v2h-2v-2z" fill="rgb(166,167,166)"/>
<path d="M34 20h4v4h-2v-2h-2v-2z" fill="rgb(166,167,166)"/>
<path d="M46 20h2v2h-2v-2z" fill="rgb(40,40,40)"/>
<path d="M6 22h2v14h-2v-14z" fill="rgb(40,40,40)"/>
<path d="M14 22h2v6h-2v-6z" fill="rgb(63,63,63)"/>
<path d="M16 22h2v4h-2v-4z" fill="rgb(246,246,246)"/>
<path d="M18 22h2v4h-2v-4z" fill="rgb(109,0,0)"/>
<path d="M20 22h2v2h-2v-2z" fill="rgb(194,41,41)"/>
<path d="M22 22h2v2h-2v-2z" fill="rgb(245,123,123)"/>
<path d="M24 22h2v2h-2v-2z" fill="rgb(254,176,177)"/>
<path d="M26 22h2v6h-6v-2h2v-2h2v-2z" fill="rgb(194,41,41)"/>
<path d="M28 22h2v2h-2v-2z" fill="rgb(209,44,44)"/>
<path d="M30 22h2v4h-2v-4z" fill="rgb(42,0,0)"/>
<path d="M32 22h2v2h-2v-2z" fill="rgb(166,167,166)"/>
<path d="M34 22h2v4h-2v-4z" fill="rgb(40,40,40)"/>
<path d="M42 22h2v14h-2v-14z" fill="rgb(40,40,40)"/>
<path d="M8 24h6v2h-6v-2z" fill="rgb(86,86,86)"/>
<path d="M20 24h2v4h-2v-4z" fill="rgb(224,48,48)"/>
<path d="M22 24h2v2h-2v-2z" fill="rgb(254,176,177)"/>
<path d="M28 24h2v4h-2v-4z" fill="rgb(224,48,48)"/>
<path d="M32 24h2v4h-2v-4z" fill="rgb(211,211,211)"/>
<path d="M36 24h6v2h-6v-2z" fill="rgb(86,86,86)"/>
<path d="M8 26h2v2h-2v-2z" fill="rgb(166,167,166)"/>
<path d="M10 26h2v2h-2v-2z" fill="rgb(211,211,211)"/>
<path d="M12 26h2v2h-2v-2z" fill="rgb(166,167,166)"/>
<path d="M16 26h2v2h-2v-2z" fill="rgb(211,211,211)"/>
<path d="M18 26h2v2h-2v-2z" fill="rgb(42,0,0)"/>
<path d="M30 26h2v2h-2v-2z" fill="rgb(109,0,0)"/>
<path d="M34 26h2v2h-2v-2z" fill="rgb(86,86,86)"/>
<path d="M36 26h2v2h-2v-2z" fill="rgb(166,167,166)"/>
<path d="M38 26h2v2h-2v-2z" fill="rgb(211,211,211)"/>
<path d="M40 26h2v2h-2v-2z" fill="rgb(166,167,166)"/>
<path d="M8 28h2v2h2v2h-2v2h-2v-6z" fill="rgb(124,124,124)"/>
<path d="M10 28h2v2h-2v-2z" fill="rgb(166,167,166)"/>
<path d="M12 28h2v4h-2v-4z" fill="rgb(211,211,211)"/>
<path d="M14 28h2v2h-2v-2z" fill="rgb(124,124,124)"/>
<path d="M16 28h2v4h-2v-4z" fill="rgb(40,40,40)"/>
<path d="M18 28h2v2h-2v-2z" fill="rgb(166,167,166)"/>
<path d="M20 28h2v2h-2v-2z" fill="rgb(42,0,0)"/>
<path d="M22 28h4v2h-4v-2z" fill="rgb(224,48,48)"/>
<path d="M26 28h2v2h-2v-2z" fill="rgb(245,123,123)"/>
<path d="M28 28h2v2h-2v-2z" fill="rgb(109,0,0)"/>
<path d="M30 28h2v2h-2v-2z" fill="rgb(246,246,246)"/>
<path d="M32 28h2v4h-2v-4z" fill="rgb(86,86,86)"/>
<path d="M34 28h2v2h-2v-2z" fill="rgb(124,124,124)"/>
<path d="M36 28h2v4h-2v-4z" fill="rgb(211,211,211)"/>
<path d="M38 28h2v2h-2v-2z" fill="rgb(166,167,166)"/>
<path d="M40 28h2v6h-2v-2h-2v-2h2v-2z" fill="rgb(124,124,124)"/>
<path d="M14 30h2v2h-2v-2z" fill="rgb(166,167,166)"/>
<path d="M18 30h2v2h-2v-2z" fill="rgb(124,124,124)"/>
<path d="M20 30h2v2h-2v-2z" fill="rgb(166,167,166)"/>
<path d="M22 30h4v2h-4v-2z" fill="rgb(42,0,0)"/>
<path d="M26 30h2v2h-2v-2z" fill="rgb(109,0,0)"/>
<path d="M28 30h2v2h-2v-2z" fill="rgb(246,246,246)"/>
<path d="M30 30h2v2h-2v-2z" fill="rgb(124,124,124)"/>
<path d="M34 30h2v2h-2v-2z" fill="rgb(166,167,166)"/>
<path d="M10 32h4v2h-4v-2z" fill="rgb(166,167,166)"/>
<path d="M14 32h2v2h-2v-2z" fill="rgb(40,40,40)"/>
<path d="M16 32h2v2h-2v-2z" fill="rgb(102,102,102)"/>
<path d="M18 32h4v2h-4v-2z" fill="rgb(40,40,40)"/>
<path d="M22 32h2v2h-2v-2z" fill="rgb(166,167,166)"/>
<path d="M24 32h4v2h-4v-2z" fill="rgb(211,211,211)"/>
<path d="M28 32h4v2h-4v-2z" fill="rgb(86,86,86)"/>
<path d="M32 32h2v2h-2v-2z" fill="rgb(102,102,102)"/>
<path d="M34 32h2v2h-2v-2z" fill="rgb(40,40,40)"/>
<path d="M36 32h4v2h-4v-2z" fill="rgb(166,167,166)"/>
<path d="M8 34h2v2h-2v-2z" fill="rgb(166,167,166)"/>
<path d="M10 34h2v2h-2v-2z" fill="rgb(124,124,124)"/>
<path d="M12 34h2v2h-2v-2z" fill="rgb(40,40,40)"/>
<path d="M14 34h2v2h-2v-2z" fill="rgb(102,102,102)"/>
<path d="M16 34h4v2h-4v-2z" fill="rgb(62,62,62)"/>
<path d="M20 34h2v2h-2v-2z" fill="rgb(102,102,102)"/>
<path d="M22 34h2v2h-2v-2z" fill="rgb(40,40,40)"/>
<path d="M24 34h4v2h-4v-2z" fill="rgb(86,86,86)"/>
<path d="M28 34h2v2h-2v-2z" fill="rgb(124,124,124)"/>
<path d="M30 34h4v2h-4v-2z" fill="rgb(62,62,62)"/>
<path d="M34 34h2v2h-2v-2z" fill="rgb(102,102,102)"/>
<path d="M36 34h2v2h-2v-2z" fill="rgb(40,40,40)"/>
<path d="M38 34h2v2h-2v-2z" fill="rgb(124,124,124)"/>
<path d="M40 34h2v2h-2v-2z" fill="rgb(166,167,166)"/>
<path d="M8 36h4v2h-2v6h-2v-8z" fill="rgb(40,40,40)"/>
<path d="M12 36h2v2h-2v-2z" fill="rgb(102,102,102)"/>
<path d="M14 36h2v4h-2v-4z" fill="rgb(62,62,62)"/>
<path d="M16 36h2v2h-2v-2z" fill="rgb(86,86,86)"/>
<path d="M18 36h2v2h-2v-2z" fill="rgb(114,114,114)"/>
<path d="M20 36h2v4h-2v-4z" fill="rgb(40,40,40)"/>
<path d="M22 36h2v2h-2v-2z" fill="rgb(166,167,166)"/>
<path d="M24 36h4v2h-4v-2z" fill="rgb(124,124,124)"/>
<path d="M28 36h2v4h-2v-4z" fill="rgb(62,62,62)"/>
<path d="M30 36h2v2h-2v-2z" fill="rgb(114,114,114)"/>
<path d="M32 36h2v2h-2v-2z" fill="rgb(86,86,86)"/>
<path d="M34 36h2v4h-2v-4z" fill="rgb(40,40,40)"/>
<path d="M36 36h2v2h-2v-2z" fill="rgb(102,102,102)"/>
<path d="M38 36h4v8h-2v-6h-2v-2z" fill="rgb(40,40,40)"/>
<path d="M10 38h2v2h-2v-2z" fill="rgb(102,102,102)"/>
<path d="M12 38h2v2h-2v-2z" fill="rgb(166,167,166)"/>
<path d="M16 38h2v2h-2v-2z" fill="rgb(143,143,143)"/>
<path d="M18 38h2v2h-2v-2z" fill="rgb(239,240,239)"/>
<path d="M22 38h2v2h-2v-2z" fill="rgb(124,124,124)"/>
<path d="M24 38h2v6h2v2h-6v-2h2v-6z" fill="rgb(246,246,246)"/>
<path d="M26 38h2v2h-2v-2z" fill="rgb(166,167,166)"/>
<path d="M30 38h2v2h-2v-2z" fill="rgb(239,240,239)"/>
<path d="M32 38h2v2h-2v-2z" fill="rgb(143,143,143)"/>
<path d="M36 38h2v2h2v4h-2v2h-4v-2h2v-2h-2v-2h2v-2z" fill="rgb(124,124,124)"/>
<path d="M38 38h2v2h-2v-2z" fill="rgb(102,102,102)"/>
<path d="M10 40h6v2h-2v2h2v2h-4v-2h-2v-4z" fill="rgb(124,124,124)"/>
<path d="M16 40h2v2h-2v-2z" fill="rgb(62,62,62)"/>
<path d="M18 40h2v2h-2v-2z" fill="rgb(40,40,40)"/>
<path d="M20 40h2v2h-2v-2z" fill="rgb(124,124,124)"/>
<path d="M22 40h2v4h-2v2h-2v-4h2v-2z" fill="rgb(211,211,211)"/>
<path d="M26 40h2v2h2v4h-2v-2h-2v-4z" fill="rgb(211,211,211)"/>
<path d="M28 40h2v2h-2v-2z" fill="rgb(124,124,124)"/>
<path d="M30 40h2v2h-2v-2z" fill="rgb(62,62,62)"/>
<path d="M32 40h2v2h-2v-2z" fill="rgb(40,40,40)"/>
<path d="M14 42h2v2h-2v-2z" fill="rgb(166,167,166)"/>
<path d="M16 42h4v2h-4v-2z" fill="rgb(124,124,124)"/>
<path d="M30 42h4v2h-4v-2z" fill="rgb(124,124,124)"/>
<path d="M34 42h2v2h-2v-2z" fill="rgb(166,167,166)"/>
<path d="M10 44h2v2h-2v-2z" fill="rgb(40,40,40)"/>
<path d="M16 44h4v2h-4v-2z" fill="rgb(166,167,166)"/>
<path d="M30 44h4v2h-4v-2z" fill="rgb(166,167,166)"/>
<path d="M38 44h2v2h-2v-2z" fill="rgb(40,40,40)"/>
</svg>