<?xml version="1.0" encoding="utf-8"?>
<!-- generated at drububu.com  -->
<!DOCTYPE svg PUBLIC "-//W3C//DTD SVG 1.1//EN" "http://www.w3.org/Graphics/SVG/1.1/DTD/svg11.dtd">
<svg version="1.1" preserveAspectRatio="xMinYMin meet" xmlns="http://www.w3.org/2000/svg" xmlns:xlink="http://www.w3.org/1999/xlink" x="0px" y="0px" width="24px" height="42px" viewBox="0 0 24 42">
<path d="M0 0h10v2h-2v2h-2v2h-4v2h-2v-8z" fill="rgb(255,255,255)"/>
<path d="M10 0h8v2h-8v-2z" fill="rgb(49,41,37)"/>
<path d="M18 0h6v10h-2v-2h-2v-6h-2v-2z" fill="rgb(255,255,255)"/>
<path d="M8 2h2v2h-2v-2z" fill="rgb(49,41,37)"/>
<path d="M10 2h2v2h-2v-2z" fill="rgb(194,178,170)"/>
<path d="M12 2h2v2h-2v-2z" fill="rgb(173,157,150)"/>
<path d="M14 2h2v2h-2v-2z" fill="rgb(194,178,170)"/>
<path d="M16 2h2v2h-2v-2z" fill="rgb(139,122,114)"/>
<path d="M18 2h2v6h2v2h-4v-8z" fill="rgb(49,41,37)"/>
<path d="M6 4h2v4h-6v-2h4v-2z" fill="rgb(49,41,37)"/>
<path d="M8 4h2v2h-2v-2z" fill="rgb(173,157,150)"/>
<path d="M10 4h2v2h-2v-2z" fill="rgb(139,122,114)"/>
<path d="M12 4h2v2h-2v-2z" fill="rgb(95,82,76)"/>
<path d="M14 4h2v2h-2v-2z" fill="rgb(139,122,114)"/>
<path d="M16 4h2v2h-2v-2z" fill="rgb(173,157,150)"/>
<path d="M8 6h2v2h-2v-2z" fill="rgb(95,82,76)"/>
<path d="M10 6h6v2h-6v-2z" fill="rgb(173,157,150)"/>
<path d="M16 6h2v2h-2v-2z" fill="rgb(139,122,114)"/>
<path d="M0 8h2v2h10v2h-12v-4z" fill="rgb(49,41,37)"/>
<path d="M2 8h2v2h-2v-2z" fill="rgb(95,82,76)"/>
<path d="M4 8h2v2h-2v-2z" fill="rgb(139,122,114)"/>
<path d="M6 8h2v2h-2v-2z" fill="rgb(194,178,170)"/>
<path d="M8 8h2v2h-2v-2z" fill="rgb(173,157,150)"/>
<path d="M10 8h2v2h-2v-2z" fill="rgb(194,178,170)"/>
<path d="M12 8h2v2h-2v-2z" fill="rgb(139,122,114)"/>
<path d="M14 8h4v2h-4v-2z" fill="rgb(95,82,76)"/>
<path d="M12 10h6v2h-6v-2z" fill="rgb(194,178,170)"/>
<path d="M18 10h2v2h-2v-2z" fill="rgb(139,122,114)"/>
<path d="M20 10h2v2h-2v-2z" fill="rgb(95,82,76)"/>
<path d="M22 10h2v4h-12v-2h10v-2z" fill="rgb(49,41,37)"/>
<path d="M0 12h2v2h-2v-2z" fill="rgb(62,25,17)"/>
<path d="M2 12h2v2h-2v-2z" fill="rgb(103,50,37)"/>
<path d="M4 12h2v2h-2v-2z" fill="rgb(201,134,106)"/>
<path d="M6 12h2v2h-2v-2z" fill="rgb(153,93,73)"/>
<path d="M8 12h2v2h-2v-2z" fill="rgb(237,163,131)"/>
<path d="M10 12h2v2h-2v-2z" fill="rgb(95,82,76)"/>
<path d="M0 14h2v2h2v2h-2v2h2v8h-2v4h2v2h2v4h-2v4h-4v-28z" fill="rgb(255,255,255)"/>
<path d="M2 14h2v2h-2v-2z" fill="rgb(62,25,17)"/>
<path d="M4 14h2v2h-2v-2z" fill="rgb(103,50,37)"/>
<path d="M6 14h2v4h4v-2h2v4h-2v2h-6v-8z" fill="rgb(237,163,131)"/>
<path d="M8 14h4v2h-4v-2z" fill="rgb(12,12,12)"/>
<path d="M12 14h2v2h-2v-2z" fill="rgb(153,93,73)"/>
<path d="M14 14h2v2h-2v-2z" fill="rgb(201,134,106)"/>
<path d="M16 14h2v2h-2v-2z" fill="rgb(153,93,73)"/>
<path d="M18 14h2v2h-2v-2z" fill="rgb(103,50,37)"/>
<path d="M20 14h2v2h-2v-2z" fill="rgb(62,25,17)"/>
<path d="M22 14h2v28h-6v-8h2v-2h2v-10h-2v-2h-2v-2h2v-2h2v-2z" fill="rgb(255,255,255)"/>
<path d="M4 16h2v2h-2v-2z" fill="rgb(62,25,17)"/>
<path d="M8 16h2v2h-2v-2z" fill="rgb(69,40,36)"/>
<path d="M10 16h2v2h-2v-2z" fill="rgb(247,247,247)"/>
<path d="M14 16h2v2h-2v-2z" fill="rgb(153,93,73)"/>
<path d="M16 16h2v2h-2v-2z" fill="rgb(201,134,106)"/>
<path d="M18 16h2v2h-2v-2z" fill="rgb(62,25,17)"/>
<path d="M2 18h2v2h-2v-2z" fill="rgb(62,25,17)"/>
<path d="M4 18h2v2h-2v-2z" fill="rgb(247,202,178)"/>
<path d="M14 18h2v2h-2v-2z" fill="rgb(234,143,104)"/>
<path d="M16 18h2v2h-2v-2z" fill="rgb(62,25,17)"/>
<path d="M4 20h2v2h-2v-2z" fill="rgb(62,25,17)"/>
<path d="M12 20h2v2h-2v-2z" fill="rgb(234,143,104)"/>
<path d="M14 20h2v2h-2v-2z" fill="rgb(62,25,17)"/>
<path d="M16 20h2v2h-2v-2z" fill="rgb(91,101,133)"/>
<path d="M18 20h2v2h-2v-2z" fill="rgb(24,27,36)"/>
<path d="M4 22h2v6h-2v-6z" fill="rgb(24,27,36)"/>
<path d="M6 22h8v2h-8v-2z" fill="rgb(62,25,17)"/>
<path d="M14 22h2v2h-2v-2z" fill="rgb(80,92,76)"/>
<path d="M16 22h2v4h-2v-4z" fill="rgb(41,48,67)"/>
<path d="M18 22h2v4h-2v-4z" fill="rgb(91,101,133)"/>
<path d="M20 22h2v6h-2v-6z" fill="rgb(24,27,36)"/>
<path d="M6 24h2v2h-2v-2z" fill="rgb(83,93,80)"/>
<path d="M8 24h2v2h-2v-2z" fill="rgb(134,150,128)"/>
<path d="M10 24h2v2h-2v-2z" fill="rgb(83,93,80)"/>
<path d="M12 24h2v2h-2v-2z" fill="rgb(134,150,128)"/>
<path d="M14 24h2v2h-2v-2z" fill="rgb(114,126,109)"/>
<path d="M6 26h2v2h-2v-2z" fill="rgb(66,75,63)"/>
<path d="M8 26h2v2h-2v-2z" fill="rgb(80,92,76)"/>
<path d="M10 26h2v4h2v2h-6v-2h2v-4z" fill="rgb(66,75,63)"/>
<path d="M12 26h2v2h-2v-2z" fill="rgb(80,92,76)"/>
<path d="M14 26h2v2h-2v-2z" fill="rgb(66,75,63)"/>
<path d="M16 26h2v2h-2v-2z" fill="rgb(24,27,36)"/>
<path d="M18 26h2v2h-2v-2z" fill="rgb(41,48,67)"/>
<path d="M2 28h2v4h-2v-4z" fill="rgb(62,25,17)"/>
<path d="M4 28h2v2h-2v-2z" fill="rgb(237,163,131)"/>
<path d="M6 28h2v10h-2v-10z" fill="rgb(24,27,36)"/>
<path d="M8 28h2v2h-2v-2z" fill="rgb(114,126,109)"/>
<path d="M12 28h2v2h-2v-2z" fill="rgb(114,126,109)"/>
<path d="M14 28h2v4h-2v-4z" fill="rgb(62,25,17)"/>
<path d="M16 28h2v4h-2v-4z" fill="rgb(247,202,178)"/>
<path d="M18 28h2v2h-2v-2z" fill="rgb(237,163,131)"/>
<path d="M20 28h2v4h-2v-4z" fill="rgb(62,25,17)"/>
<path d="M4 30h2v2h-2v-2z" fill="rgb(227,135,102)"/>
<path d="M18 30h2v2h-2v-2z" fill="rgb(227,135,102)"/>
<path d="M4 32h2v2h-2v-2z" fill="rgb(62,25,17)"/>
<path d="M8 32h2v2h-2v-2z" fill="rgb(41,48,67)"/>
<path d="M10 32h2v6h-2v-6z" fill="rgb(24,27,36)"/>
<path d="M12 32h4v6h-2v-4h-2v-2z" fill="rgb(41,48,67)"/>
<path d="M16 32h4v2h-4v-2z" fill="rgb(62,25,17)"/>
<path d="M8 34h2v4h-2v-4z" fill="rgb(91,101,133)"/>
<path d="M12 34h2v4h-2v-4z" fill="rgb(91,101,133)"/>
<path d="M16 34h2v8h-4v-2h2v-6z" fill="rgb(24,27,36)"/>
<path d="M4 38h2v2h2v-2h2v2h4v2h-10v-4z" fill="rgb(62,25,17)"/>
<path d="M6 38h2v2h-2v-2z" fill="rgb(247,202,178)"/>
<path d="M10 38h2v2h-2v-2z" fill="rgb(247,202,178)"/>
<path d="M12 38h2v2h-2v-2z" fill="rgb(237,163,131)"/>
<path d="M14 38h2v2h-2v-2z" fill="rgb(91,101,133)"/>
</svg>