<?xml version="1.0" encoding="utf-8"?>
<!-- generated at drububu.com  -->
<!DOCTYPE svg PUBLIC "-//W3C//DTD SVG 1.1//EN" "http://www.w3.org/Graphics/SVG/1.1/DTD/svg11.dtd">
<svg version="1.1" preserveAspectRatio="xMinYMin meet" xmlns="http://www.w3.org/2000/svg" xmlns:xlink="http://www.w3.org/1999/xlink" x="0px" y="0px" width="26px" height="46px" viewBox="0 0 26 46">
<path d="M0 0h6v2h-2v2h-2v2h-2v-6z" fill="rgb(255,255,255)"/>
<path d="M6 0h8v2h-8v-2z" fill="rgb(24,26,31)"/>
<path d="M14 0h12v40h-2v-20h-2v-2h-2v-6h2v-6h-2v-2h-2v-2h-4v-2z" fill="rgb(255,255,255)"/>
<path d="M4 2h2v2h-2v-2z" fill="rgb(24,26,31)"/>
<path d="M6 2h2v2h-2v-2z" fill="rgb(96,97,102)"/>
<path d="M8 2h2v2h-2v-2z" fill="rgb(68,70,76)"/>
<path d="M10 2h2v2h-2v-2z" fill="rgb(125,130,137)"/>
<path d="M12 2h2v2h-2v-2z" fill="rgb(99,97,99)"/>
<path d="M14 2h4v2h-4v-2z" fill="rgb(24,26,31)"/>
<path d="M2 4h2v2h-2v-2z" fill="rgb(24,26,31)"/>
<path d="M4 4h2v2h-2v-2z" fill="rgb(110,114,120)"/>
<path d="M6 4h2v2h-2v-2z" fill="rgb(68,70,76)"/>
<path d="M8 4h2v2h-2v-2z" fill="rgb(96,97,102)"/>
<path d="M10 4h2v2h-2v-2z" fill="rgb(58,62,66)"/>
<path d="M12 4h2v2h-2v-2z" fill="rgb(68,70,76)"/>
<path d="M14 4h2v2h-2v-2z" fill="rgb(125,130,137)"/>
<path d="M16 4h2v2h-2v-2z" fill="rgb(99,97,99)"/>
<path d="M18 4h2v2h-2v-2z" fill="rgb(24,26,31)"/>
<path d="M0 6h2v4h-2v-4z" fill="rgb(24,26,31)"/>
<path d="M2 6h2v2h-2v-2z" fill="rgb(110,114,120)"/>
<path d="M4 6h2v2h-2v-2z" fill="rgb(58,62,66)"/>
<path d="M6 6h2v2h-2v-2z" fill="rgb(110,114,120)"/>
<path d="M8 6h2v4h-2v-4z" fill="rgb(58,62,66)"/>
<path d="M10 6h2v2h-2v-2z" fill="rgb(125,130,137)"/>
<path d="M12 6h2v2h-2v-2z" fill="rgb(96,97,102)"/>
<path d="M14 6h2v2h-2v-2z" fill="rgb(58,62,66)"/>
<path d="M16 6h2v2h-2v-2z" fill="rgb(125,130,137)"/>
<path d="M18 6h2v2h-2v-2z" fill="rgb(58,62,66)"/>
<path d="M20 6h2v6h-2v-6z" fill="rgb(24,26,31)"/>
<path d="M2 8h2v2h-2v-2z" fill="rgb(77,79,84)"/>
<path d="M4 8h4v2h-4v-2z" fill="rgb(96,97,102)"/>
<path d="M10 8h2v2h-2v-2z" fill="rgb(96,97,102)"/>
<path d="M12 8h2v2h-2v-2z" fill="rgb(58,62,66)"/>
<path d="M14 8h2v2h-2v-2z" fill="rgb(110,114,120)"/>
<path d="M16 8h2v4h-2v-4z" fill="rgb(96,97,102)"/>
<path d="M18 8h2v2h-2v-2z" fill="rgb(77,79,84)"/>
<path d="M0 10h2v2h2v4h-2v2h2v2h-2v8h-2v-18z" fill="rgb(255,255,255)"/>
<path d="M2 10h2v2h-2v-2z" fill="rgb(24,26,31)"/>
<path d="M4 10h2v2h-2v-2z" fill="rgb(77,79,84)"/>
<path d="M6 10h4v2h-4v-2z" fill="rgb(24,26,31)"/>
<path d="M10 10h2v2h-2v-2z" fill="rgb(77,79,84)"/>
<path d="M12 10h2v4h-2v-4z" fill="rgb(24,26,31)"/>
<path d="M14 10h2v2h-2v-2z" fill="rgb(58,62,66)"/>
<path d="M18 10h2v2h-2v-2z" fill="rgb(58,62,66)"/>
<path d="M4 12h2v2h-2v-2z" fill="rgb(24,26,31)"/>
<path d="M6 12h2v2h-2v-2z" fill="rgb(109,77,69)"/>
<path d="M8 12h2v4h-2v-4z" fill="rgb(35,64,52)"/>
<path d="M10 12h2v4h-2v-4z" fill="rgb(247,247,247)"/>
<path d="M14 12h2v2h-2v-2z" fill="rgb(161,130,108)"/>
<path d="M16 12h2v2h-2v-2z" fill="rgb(77,79,84)"/>
<path d="M18 12h2v4h-2v-4z" fill="rgb(24,26,31)"/>
<path d="M4 14h2v2h-2v-2z" fill="rgb(43,27,24)"/>
<path d="M6 14h2v2h2v2h2v2h-4v-2h-2v-4z" fill="rgb(142,107,89)"/>
<path d="M12 14h2v4h-2v-4z" fill="rgb(142,107,89)"/>
<path d="M14 14h2v2h-2v-2z" fill="rgb(167,138,115)"/>
<path d="M16 14h2v2h-2v-2z" fill="rgb(58,62,66)"/>
<path d="M2 16h2v2h-2v-2z" fill="rgb(43,27,24)"/>
<path d="M4 16h2v2h-2v-2z" fill="rgb(183,144,120)"/>
<path d="M10 16h2v2h-2v-2z" fill="rgb(161,130,108)"/>
<path d="M14 16h2v2h-2v-2z" fill="rgb(129,79,65)"/>
<path d="M16 16h2v2h-2v-2z" fill="rgb(24,26,31)"/>
<path d="M18 16h2v2h-2v-2z" fill="rgb(26,26,17)"/>
<path d="M4 18h2v2h-2v-2z" fill="rgb(43,27,24)"/>
<path d="M6 18h2v2h-2v-2z" fill="rgb(135,93,77)"/>
<path d="M12 18h2v2h-2v-2z" fill="rgb(129,79,65)"/>
<path d="M14 18h2v2h-2v-2z" fill="rgb(43,27,24)"/>
<path d="M16 18h2v2h-2v-2z" fill="rgb(169,168,126)"/>
<path d="M18 18h2v2h-2v-2z" fill="rgb(108,112,99)"/>
<path d="M20 18h2v2h-2v-2z" fill="rgb(26,26,17)"/>
<path d="M2 20h2v2h-2v-2z" fill="rgb(26,26,17)"/>
<path d="M4 20h2v2h-2v-2z" fill="rgb(199,197,171)"/>
<path d="M6 20h8v2h-8v-2z" fill="rgb(43,27,24)"/>
<path d="M14 20h2v2h-2v-2z" fill="rgb(169,168,126)"/>
<path d="M16 20h2v2h-2v-2z" fill="rgb(108,112,99)"/>
<path d="M18 20h2v2h-2v-2z" fill="rgb(148,150,132)"/>
<path d="M20 20h2v2h-2v-2z" fill="rgb(86,86,69)"/>
<path d="M22 20h2v8h-2v-8z" fill="rgb(26,26,17)"/>
<path d="M2 22h2v6h-2v-6z" fill="rgb(42,42,41)"/>
<path d="M4 22h2v2h-2v-2z" fill="rgb(169,168,126)"/>
<path d="M6 22h2v8h-2v-8z" fill="rgb(64,64,50)"/>
<path d="M8 22h2v2h-2v-2z" fill="rgb(141,77,81)"/>
<path d="M10 22h2v2h-2v-2z" fill="rgb(249,240,182)"/>
<path d="M12 22h2v8h-2v-8z" fill="rgb(64,64,50)"/>
<path d="M14 22h2v4h-2v-4z" fill="rgb(108,112,99)"/>
<path d="M16 22h2v6h-2v-6z" fill="rgb(42,42,41)"/>
<path d="M18 22h4v6h-2v-4h-2v-2z" fill="rgb(108,112,99)"/>
<path d="M4 24h2v2h-2v-2z" fill="rgb(104,104,83)"/>
<path d="M8 24h2v2h-2v-2z" fill="rgb(207,190,7)"/>
<path d="M10 24h2v8h-2v-8z" fill="rgb(141,77,81)"/>
<path d="M18 24h2v4h-2v-4z" fill="rgb(148,150,132)"/>
<path d="M4 26h2v2h-2v-2z" fill="rgb(86,86,69)"/>
<path d="M8 26h2v6h-2v-6z" fill="rgb(127,68,71)"/>
<path d="M14 26h2v2h-2v-2z" fill="rgb(104,104,83)"/>
<path d="M0 28h2v6h-2v-6z" fill="rgb(43,27,24)"/>
<path d="M2 28h2v6h-2v-6z" fill="rgb(109,77,69)"/>
<path d="M4 28h2v6h-2v-6z" fill="rgb(26,26,17)"/>
<path d="M14 28h2v6h-2v-6z" fill="rgb(43,27,24)"/>
<path d="M16 28h6v2h-4v4h-2v-6z" fill="rgb(109,77,69)"/>
<path d="M22 28h2v6h-2v-6z" fill="rgb(43,27,24)"/>
<path d="M6 30h2v2h-2v-2z" fill="rgb(141,77,81)"/>
<path d="M12 30h2v2h-2v-2z" fill="rgb(127,68,71)"/>
<path d="M18 30h4v4h-4v-4z" fill="rgb(142,107,89)"/>
<path d="M6 32h8v2h-8v-2z" fill="rgb(91,49,45)"/>
<path d="M0 34h2v2h2v6h-2v4h-2v-12z" fill="rgb(255,255,255)"/>
<path d="M2 34h2v2h-2v-2z" fill="rgb(43,27,24)"/>
<path d="M4 34h2v6h-2v-6z" fill="rgb(31,35,42)"/>
<path d="M6 34h2v4h-2v-4z" fill="rgb(128,160,214)"/>
<path d="M8 34h2v6h-2v-6z" fill="rgb(31,35,42)"/>
<path d="M10 34h2v4h-2v-4z" fill="rgb(128,160,214)"/>
<path d="M12 34h2v4h2v4h-4v-2h-2v-2h2v-4z" fill="rgb(95,118,152)"/>
<path d="M14 34h2v4h-2v-4z" fill="rgb(77,83,92)"/>
<path d="M16 34h6v2h-6v-2z" fill="rgb(43,27,24)"/>
<path d="M22 34h2v6h-2v-6z" fill="rgb(26,26,17)"/>
<path d="M16 36h2v2h-2v-2z" fill="rgb(31,35,42)"/>
<path d="M18 36h2v2h-2v-2z" fill="rgb(104,104,83)"/>
<path d="M20 36h2v4h-2v-4z" fill="rgb(148,150,132)"/>
<path d="M6 38h2v2h-2v-2z" fill="rgb(95,118,152)"/>
<path d="M16 38h2v6h-4v-2h2v-4z" fill="rgb(77,83,92)"/>
<path d="M18 38h2v8h-6v-2h4v-6z" fill="rgb(31,35,42)"/>
<path d="M4 40h2v2h-2v-2z" fill="rgb(39,37,31)"/>
<path d="M6 40h2v2h-2v-2z" fill="rgb(61,59,46)"/>
<path d="M8 40h2v2h-2v-2z" fill="rgb(39,37,31)"/>
<path d="M10 40h2v2h2v2h-4v-4z" fill="rgb(61,59,46)"/>
<path d="M20 40h2v4h-2v-4z" fill="rgb(86,86,69)"/>
<path d="M22 40h2v4h-2v-4z" fill="rgb(148,150,132)"/>
<path d="M24 40h2v6h-6v-2h4v-4z" fill="rgb(26,26,17)"/>
<path d="M2 42h2v2h2v-2h2v2h6v2h-12v-4z" fill="rgb(39,37,31)"/>
<path d="M4 42h2v2h-2v-2z" fill="rgb(96,93,73)"/>
<path d="M8 42h2v2h-2v-2z" fill="rgb(96,93,73)"/>
</svg>