<?xml version="1.0" encoding="utf-8"?>
<!-- generated at drububu.com  -->
<!DOCTYPE svg PUBLIC "-//W3C//DTD SVG 1.1//EN" "http://www.w3.org/Graphics/SVG/1.1/DTD/svg11.dtd">
<svg version="1.1" preserveAspectRatio="xMinYMin meet" xmlns="http://www.w3.org/2000/svg" xmlns:xlink="http://www.w3.org/1999/xlink" x="0px" y="0px" width="34px" height="48px" viewBox="0 0 34 48">
<path d="M0 0h18v2h-2v2h-2v2h-2v2h-2v2h-2v2h-6v2h-2v-14z" fill="rgb(255,255,255)"/>
<path d="M18 0h8v2h-8v-2z" fill="rgb(45,5,74)"/>
<path d="M26 0h8v18h-2v-2h-4v-4h-2v-4h4v2h2v-6h-2v-2h-4v-2z" fill="rgb(255,255,255)"/>
<path d="M16 2h2v2h-2v-2z" fill="rgb(45,5,74)"/>
<path d="M18 2h4v2h-4v-2z" fill="rgb(200,134,244)"/>
<path d="M22 2h2v2h-2v-2z" fill="rgb(175,96,227)"/>
<path d="M24 2h2v2h-2v-2z" fill="rgb(188,142,0)"/>
<path d="M26 2h4v2h-4v-2z" fill="rgb(45,5,74)"/>
<path d="M14 4h2v2h-2v-2z" fill="rgb(45,5,74)"/>
<path d="M16 4h2v2h-2v-2z" fill="rgb(200,134,244)"/>
<path d="M18 4h2v2h-2v-2z" fill="rgb(150,44,218)"/>
<path d="M20 4h2v4h-2v-4z" fill="rgb(70,12,108)"/>
<path d="M22 4h4v2h-4v-2z" fill="rgb(150,44,218)"/>
<path d="M26 4h4v2h-4v-2z" fill="rgb(131,31,195)"/>
<path d="M30 4h2v6h-2v-2h-4v4h-2v-4h-2v-2h8v-2z" fill="rgb(45,5,74)"/>
<path d="M12 6h2v2h-2v-2z" fill="rgb(45,5,74)"/>
<path d="M14 6h2v2h-2v-2z" fill="rgb(175,96,227)"/>
<path d="M16 6h2v4h-4v-2h2v-2z" fill="rgb(150,44,218)"/>
<path d="M18 6h2v2h-2v-2z" fill="rgb(253,210,76)"/>
<path d="M10 8h2v2h-2v-2z" fill="rgb(45,5,74)"/>
<path d="M12 8h2v2h-2v-2z" fill="rgb(163,73,223)"/>
<path d="M18 8h2v2h-2v-2z" fill="rgb(163,73,223)"/>
<path d="M20 8h2v4h-4v-2h2v-2z" fill="rgb(150,44,218)"/>
<path d="M22 8h2v4h-2v-4z" fill="rgb(131,31,195)"/>
<path d="M8 10h2v2h-2v-2z" fill="rgb(45,5,74)"/>
<path d="M10 10h2v2h-2v-2z" fill="rgb(131,31,195)"/>
<path d="M12 10h2v2h-2v-2z" fill="rgb(150,44,218)"/>
<path d="M14 10h2v2h-2v-2z" fill="rgb(163,73,223)"/>
<path d="M16 10h2v2h-2v-2z" fill="rgb(188,142,0)"/>
<path d="M2 12h6v2h-6v-2z" fill="rgb(45,5,74)"/>
<path d="M8 12h2v2h14v-2h2v6h-2v-2h-16v-4z" fill="rgb(70,12,108)"/>
<path d="M10 12h2v2h-2v-2z" fill="rgb(253,210,76)"/>
<path d="M12 12h10v2h-10v-2z" fill="rgb(131,31,195)"/>
<path d="M22 12h2v2h-2v-2z" fill="rgb(188,142,0)"/>
<path d="M26 12h2v4h-2v-4z" fill="rgb(45,5,74)"/>
<path d="M0 14h2v2h-2v-2z" fill="rgb(45,5,74)"/>
<path d="M2 14h6v2h-6v-2z" fill="rgb(131,31,195)"/>
<path d="M0 16h2v2h4v2h2v4h-2v2h2v2h-2v2h-2v4h2v2h-2v4h-2v4h-2v-28z" fill="rgb(255,255,255)"/>
<path d="M2 16h6v4h-2v-2h-4v-2z" fill="rgb(45,5,74)"/>
<path d="M8 16h4v2h-4v-2z" fill="rgb(131,31,195)"/>
<path d="M12 16h4v2h-4v-2z" fill="rgb(150,44,218)"/>
<path d="M16 16h6v2h-6v-2z" fill="rgb(175,96,227)"/>
<path d="M22 16h2v2h-2v-2z" fill="rgb(150,44,218)"/>
<path d="M26 16h2v2h-2v-2z" fill="rgb(150,44,218)"/>
<path d="M28 16h4v2h-4v-2z" fill="rgb(45,5,74)"/>
<path d="M8 18h2v2h-2v-2z" fill="rgb(70,12,108)"/>
<path d="M10 18h14v2h-14v-2z" fill="rgb(45,5,74)"/>
<path d="M24 18h2v2h-2v-2z" fill="rgb(150,44,218)"/>
<path d="M26 18h6v2h-6v-2z" fill="rgb(131,31,195)"/>
<path d="M32 18h2v2h-2v-2z" fill="rgb(45,5,74)"/>
<path d="M8 20h2v4h-2v-4z" fill="rgb(70,24,8)"/>
<path d="M10 20h2v4h2v2h-4v-6z" fill="rgb(239,133,90)"/>
<path d="M12 20h2v4h-2v-4z" fill="rgb(81,62,44)"/>
<path d="M14 20h2v4h-2v-4z" fill="rgb(247,247,247)"/>
<path d="M16 20h2v2h-2v-2z" fill="rgb(70,24,8)"/>
<path d="M18 20h2v2h-2v-2z" fill="rgb(215,90,45)"/>
<path d="M20 20h2v2h-2v-2z" fill="rgb(220,215,215)"/>
<path d="M22 20h2v4h-2v-4z" fill="rgb(84,83,83)"/>
<path d="M24 20h8v2h-8v-2z" fill="rgb(45,5,74)"/>
<path d="M32 20h2v28h-8v-6h2v-4h2v-4h-2v-2h2v-2h-2v-2h-2v-2h-2v-4h8v-2z" fill="rgb(255,255,255)"/>
<path d="M16 22h2v2h-2v-2z" fill="rgb(227,112,67)"/>
<path d="M18 22h2v2h-2v-2z" fill="rgb(239,133,90)"/>
<path d="M20 22h2v2h-2v-2z" fill="rgb(153,150,150)"/>
<path d="M6 24h2v2h-2v-2z" fill="rgb(70,24,8)"/>
<path d="M8 24h2v2h-2v-2z" fill="rgb(255,175,141)"/>
<path d="M14 24h2v2h-2v-2z" fill="rgb(247,154,116)"/>
<path d="M16 24h2v2h-2v-2z" fill="rgb(239,133,90)"/>
<path d="M18 24h2v2h-2v-2z" fill="rgb(153,150,150)"/>
<path d="M20 24h2v2h-2v-2z" fill="rgb(84,83,83)"/>
<path d="M22 24h2v2h-2v-2z" fill="rgb(35,22,46)"/>
<path d="M8 26h2v8h-2v-8z" fill="rgb(84,83,83)"/>
<path d="M10 26h2v2h-2v-2z" fill="rgb(220,215,215)"/>
<path d="M12 26h2v2h-2v-2z" fill="rgb(186,182,182)"/>
<path d="M14 26h2v2h-2v-2z" fill="rgb(247,247,247)"/>
<path d="M16 26h2v2h-2v-2z" fill="rgb(220,215,215)"/>
<path d="M18 26h2v2h-2v-2z" fill="rgb(84,83,83)"/>
<path d="M20 26h2v2h-2v-2z" fill="rgb(110,24,165)"/>
<path d="M22 26h2v2h-2v-2z" fill="rgb(131,31,195)"/>
<path d="M24 26h2v2h-2v-2z" fill="rgb(35,22,46)"/>
<path d="M6 28h2v2h-2v-2z" fill="rgb(35,22,46)"/>
<path d="M10 28h4v6h-2v-2h-2v-4z" fill="rgb(247,247,247)"/>
<path d="M14 28h2v2h-2v-2z" fill="rgb(186,182,182)"/>
<path d="M16 28h2v6h-2v-6z" fill="rgb(84,83,83)"/>
<path d="M18 28h10v2h-10v-2z" fill="rgb(67,32,10)"/>
<path d="M4 30h2v4h-2v-4z" fill="rgb(67,32,10)"/>
<path d="M6 30h2v2h-2v-2z" fill="rgb(192,104,45)"/>
<path d="M14 30h2v2h-2v-2z" fill="rgb(220,215,215)"/>
<path d="M18 30h8v2h-8v-2z" fill="rgb(177,94,41)"/>
<path d="M26 30h2v2h-2v-2z" fill="rgb(151,80,34)"/>
<path d="M28 30h2v2h-2v-2z" fill="rgb(67,32,10)"/>
<path d="M6 32h2v2h-2v-2z" fill="rgb(135,69,30)"/>
<path d="M10 32h2v2h-2v-2z" fill="rgb(234,231,231)"/>
<path d="M14 32h2v2h-2v-2z" fill="rgb(153,150,150)"/>
<path d="M18 32h8v2h-8v-2z" fill="rgb(119,60,24)"/>
<path d="M26 32h2v2h-2v-2z" fill="rgb(93,45,17)"/>
<path d="M6 34h2v2h-2v-2z" fill="rgb(176,93,41)"/>
<path d="M8 34h2v2h-2v-2z" fill="rgb(93,45,17)"/>
<path d="M10 34h2v6h-2v-6z" fill="rgb(84,83,83)"/>
<path d="M12 34h2v4h-2v-4z" fill="rgb(220,215,215)"/>
<path d="M14 34h2v6h-2v-6z" fill="rgb(84,83,83)"/>
<path d="M16 34h8v2h-8v-2z" fill="rgb(159,83,36)"/>
<path d="M24 34h4v2h-4v-2z" fill="rgb(135,69,30)"/>
<path d="M28 34h2v4h-2v-4z" fill="rgb(67,32,10)"/>
<path d="M4 36h2v2h-2v-2z" fill="rgb(67,32,10)"/>
<path d="M6 36h2v2h-2v-2z" fill="rgb(139,71,31)"/>
<path d="M8 36h2v2h-2v-2z" fill="rgb(119,60,24)"/>
<path d="M16 36h6v2h-6v-2z" fill="rgb(119,60,24)"/>
<path d="M22 36h6v2h-6v-2z" fill="rgb(93,45,17)"/>
<path d="M4 38h2v4h-2v-4z" fill="rgb(70,24,8)"/>
<path d="M6 38h4v2h-4v-2z" fill="rgb(67,32,10)"/>
<path d="M12 38h2v2h-2v-2z" fill="rgb(153,150,150)"/>
<path d="M16 38h4v2h-4v-2z" fill="rgb(67,32,10)"/>
<path d="M20 38h8v2h-8v-2z" fill="rgb(50,22,6)"/>
<path d="M2 40h2v4h-2v-4z" fill="rgb(45,5,74)"/>
<path d="M6 40h2v2h-2v-2z" fill="rgb(215,90,45)"/>
<path d="M8 40h2v4h-2v-4z" fill="rgb(35,22,46)"/>
<path d="M10 40h2v2h-2v-2z" fill="rgb(131,31,195)"/>
<path d="M12 40h2v2h-2v-2z" fill="rgb(84,83,83)"/>
<path d="M14 40h2v4h-2v-4z" fill="rgb(150,44,218)"/>
<path d="M16 40h2v4h-2v-4z" fill="rgb(131,31,195)"/>
<path d="M18 40h2v2h-2v-2z" fill="rgb(70,24,8)"/>
<path d="M20 40h2v2h-2v-2z" fill="rgb(215,90,45)"/>
<path d="M22 40h4v2h-4v-2z" fill="rgb(239,133,90)"/>
<path d="M26 40h2v2h-2v-2z" fill="rgb(70,24,8)"/>
<path d="M4 42h2v2h-2v-2z" fill="rgb(150,44,218)"/>
<path d="M6 42h2v2h-2v-2z" fill="rgb(70,24,8)"/>
<path d="M10 42h2v2h2v2h-4v-4z" fill="rgb(110,24,165)"/>
<path d="M12 42h2v2h-2v-2z" fill="rgb(131,31,195)"/>
<path d="M18 42h2v2h-2v-2z" fill="rgb(91,18,137)"/>
<path d="M20 42h6v2h-6v-2z" fill="rgb(70,24,8)"/>
<path d="M0 44h2v2h6v-2h2v2h14v-2h2v4h-26v-4z" fill="rgb(45,5,74)"/>
<path d="M2 44h2v2h-2v-2z" fill="rgb(110,24,165)"/>
<path d="M4 44h2v2h-2v-2z" fill="rgb(131,31,195)"/>
<path d="M6 44h2v2h-2v-2z" fill="rgb(110,24,165)"/>
<path d="M14 44h2v2h-2v-2z" fill="rgb(131,31,195)"/>
<path d="M16 44h2v2h-2v-2z" fill="rgb(150,44,218)"/>
<path d="M18 44h2v2h-2v-2z" fill="rgb(70,12,108)"/>
<path d="M20 44h4v2h-4v-2z" fill="rgb(131,31,195)"/>
</svg>