<?xml version="1.0" encoding="utf-8"?>
<!-- generated at drububu.com  -->
<!DOCTYPE svg PUBLIC "-//W3C//DTD SVG 1.1//EN" "http://www.w3.org/Graphics/SVG/1.1/DTD/svg11.dtd">
<svg version="1.1" preserveAspectRatio="xMinYMin meet" xmlns="http://www.w3.org/2000/svg" xmlns:xlink="http://www.w3.org/1999/xlink" x="0px" y="0px" width="28px" height="32px" viewBox="0 0 28 32">
<path d="M0 0h10v2h-2v2h-2v6h-2v2h-2v2h2v4h-2v10h-2v-28z" fill="rgb(255,255,255)"/>
<path d="M10 0h10v2h-10v-2z" fill="rgb(27,45,54)"/>
<path d="M20 0h8v18h-2v-2h-2v-2h-2v-4h2v-6h-2v-2h-2v-2z" fill="rgb(255,255,255)"/>
<path d="M8 2h2v2h-2v-2z" fill="rgb(27,45,54)"/>
<path d="M10 2h2v2h-2v-2z" fill="rgb(90,155,166)"/>
<path d="M12 2h4v2h-4v-2z" fill="rgb(141,180,190)"/>
<path d="M16 2h2v2h-2v-2z" fill="rgb(116,168,178)"/>
<path d="M18 2h2v2h-2v-2z" fill="rgb(90,155,166)"/>
<path d="M20 2h2v2h-2v-2z" fill="rgb(27,45,54)"/>
<path d="M6 4h2v6h-2v-6z" fill="rgb(27,45,54)"/>
<path d="M8 4h2v2h-2v-2z" fill="rgb(90,155,166)"/>
<path d="M10 4h2v2h-2v-2z" fill="rgb(141,180,190)"/>
<path d="M12 4h2v2h-2v-2z" fill="rgb(116,168,178)"/>
<path d="M14 4h4v4h-2v-2h-2v-2z" fill="rgb(90,155,166)"/>
<path d="M18 4h2v2h-2v-2z" fill="rgb(27,45,54)"/>
<path d="M20 4h2v2h-2v-2z" fill="rgb(116,168,178)"/>
<path d="M22 4h2v4h-2v-4z" fill="rgb(27,45,54)"/>
<path d="M8 6h8v6h-2v-4h-4v4h-2v-6z" fill="rgb(48,62,71)"/>
<path d="M18 6h2v2h-2v-2z" fill="rgb(73,122,133)"/>
<path d="M20 6h2v2h-2v-2z" fill="rgb(90,155,166)"/>
<path d="M10 8h2v2h-2v-2z" fill="rgb(81,63,45)"/>
<path d="M12 8h2v2h-2v-2z" fill="rgb(239,228,124)"/>
<path d="M16 8h2v2h-2v-2z" fill="rgb(66,70,82)"/>
<path d="M18 8h2v2h-2v-2z" fill="rgb(77,79,92)"/>
<path d="M20 8h2v2h-2v-2z" fill="rgb(66,70,82)"/>
<path d="M22 8h2v2h-2v-2z" fill="rgb(46,53,62)"/>
<path d="M4 10h2v2h-2v-2z" fill="rgb(27,45,54)"/>
<path d="M6 10h2v2h-2v-2z" fill="rgb(141,180,190)"/>
<path d="M10 10h4v2h-4v-2z" fill="rgb(73,122,133)"/>
<path d="M16 10h2v2h-2v-2z" fill="rgb(81,139,150)"/>
<path d="M18 10h2v2h-2v-2z" fill="rgb(73,122,133)"/>
<path d="M20 10h2v2h-2v-2z" fill="rgb(27,45,54)"/>
<path d="M2 12h2v2h-2v-2z" fill="rgb(27,45,54)"/>
<path d="M4 12h2v2h-2v-2z" fill="rgb(141,180,190)"/>
<path d="M6 12h2v2h-2v-2z" fill="rgb(90,155,166)"/>
<path d="M8 12h2v2h-2v-2z" fill="rgb(81,139,150)"/>
<path d="M10 12h4v2h-4v-2z" fill="rgb(48,62,71)"/>
<path d="M14 12h2v2h-2v-2z" fill="rgb(81,139,150)"/>
<path d="M16 12h2v2h-2v-2z" fill="rgb(73,122,133)"/>
<path d="M18 12h2v2h-2v-2z" fill="rgb(27,45,54)"/>
<path d="M20 12h2v2h-2v-2z" fill="rgb(64,53,64)"/>
<path d="M4 14h4v2h-4v-2z" fill="rgb(27,45,54)"/>
<path d="M8 14h2v2h-2v-2z" fill="rgb(73,122,133)"/>
<path d="M10 14h4v2h-4v-2z" fill="rgb(81,139,150)"/>
<path d="M14 14h2v2h-2v-2z" fill="rgb(73,122,133)"/>
<path d="M16 14h2v2h-2v-2z" fill="rgb(27,45,54)"/>
<path d="M18 14h2v2h-2v-2z" fill="rgb(223,220,223)"/>
<path d="M20 14h2v2h-2v-2z" fill="rgb(199,191,199)"/>
<path d="M22 14h2v2h-2v-2z" fill="rgb(64,53,64)"/>
<path d="M4 16h2v2h-2v-2z" fill="rgb(67,32,10)"/>
<path d="M6 16h2v2h-2v-2z" fill="rgb(141,122,141)"/>
<path d="M8 16h3v2h-3v-2z" fill="rgb(27,45,54)"/>
<path d="M11 16h5v2h-5v-2z" fill="rgb(30,42,45)"/>
<path d="M16 16h10v2h-10v-2z" fill="rgb(67,32,10)"/>
<path d="M2 18h2v6h-2v-6z" fill="rgb(67,32,10)"/>
<path d="M4 18h2v2h-2v-2z" fill="rgb(192,104,45)"/>
<path d="M6 18h18v2h-18v-2z" fill="rgb(177,94,41)"/>
<path d="M24 18h2v2h-2v-2z" fill="rgb(151,80,34)"/>
<path d="M26 18h2v2h-2v-2z" fill="rgb(67,32,10)"/>
<path d="M4 20h2v2h-2v-2z" fill="rgb(135,69,30)"/>
<path d="M6 20h12v2h-12v-2z" fill="rgb(119,60,24)"/>
<path d="M18 20h8v2h-8v-2z" fill="rgb(93,45,17)"/>
<path d="M26 20h2v2h-2v-2z" fill="rgb(255,255,255)"/>
<path d="M4 22h2v2h-2v-2z" fill="rgb(64,53,64)"/>
<path d="M6 22h2v2h-2v-2z" fill="rgb(73,122,133)"/>
<path d="M8 22h8v2h-8v-2z" fill="rgb(64,53,64)"/>
<path d="M16 22h6v2h-6v-2z" fill="rgb(159,83,36)"/>
<path d="M22 22h4v2h-4v-2z" fill="rgb(135,69,30)"/>
<path d="M26 22h2v4h-2v-4z" fill="rgb(67,32,10)"/>
<path d="M2 24h2v2h-2v-2z" fill="rgb(27,45,54)"/>
<path d="M4 24h2v2h-2v-2z" fill="rgb(90,155,166)"/>
<path d="M6 24h2v2h-2v-2z" fill="rgb(27,45,54)"/>
<path d="M8 24h4v2h-4v-2z" fill="rgb(90,155,166)"/>
<path d="M12 24h2v2h-2v-2z" fill="rgb(73,122,133)"/>
<path d="M14 24h2v2h-2v-2z" fill="rgb(81,63,54)"/>
<path d="M16 24h2v8h-18v-4h2v2h2v-2h2v2h10v-6z" fill="rgb(51,37,32)"/>
<path d="M18 24h2v2h-2v-2z" fill="rgb(119,60,24)"/>
<path d="M20 24h6v2h-6v-2z" fill="rgb(93,45,17)"/>
<path d="M2 26h2v2h-2v-2z" fill="rgb(51,37,32)"/>
<path d="M4 26h2v2h-2v-2z" fill="rgb(81,63,54)"/>
<path d="M6 26h2v2h-2v-2z" fill="rgb(51,37,32)"/>
<path d="M8 26h6v2h-6v-2z" fill="rgb(81,63,54)"/>
<path d="M14 26h2v4h-4v-2h2v-2z" fill="rgb(133,97,90)"/>
<path d="M18 26h8v2h-8v-2z" fill="rgb(50,22,6)"/>
<path d="M26 26h2v6h-4v-2h2v-4z" fill="rgb(255,255,255)"/>
<path d="M2 28h2v2h-2v-2z" fill="rgb(174,139,133)"/>
<path d="M6 28h2v2h-2v-2z" fill="rgb(174,139,133)"/>
<path d="M8 28h4v2h-4v-2z" fill="rgb(149,114,107)"/>
<path d="M18 28h6v2h-6v-2z" fill="rgb(90,155,166)"/>
<path d="M24 28h2v2h-2v-2z" fill="rgb(30,42,45)"/>
<path d="M18 30h6v2h-6v-2z" fill="rgb(30,42,45)"/>
</svg>