<?xml version="1.0" encoding="utf-8"?>
<!-- generated at drububu.com  -->
<!DOCTYPE svg PUBLIC "-//W3C//DTD SVG 1.1//EN" "http://www.w3.org/Graphics/SVG/1.1/DTD/svg11.dtd">
<svg version="1.1" preserveAspectRatio="xMinYMin meet" xmlns="http://www.w3.org/2000/svg" xmlns:xlink="http://www.w3.org/1999/xlink" x="0px" y="0px" width="30px" height="48px" viewBox="0 0 30 48">
<path d="M0 0h8v2h-2v6h-4v2h-2v-10z" fill="rgb(255,255,255)"/>
<path d="M8 0h12v2h-12v-2z" fill="rgb(59,0,0)"/>
<path d="M20 0h10v22h-2v-2h-2v-4h-2v-2h2v-2h2v-2h-2v-2h-4v-6h-2v-2z" fill="rgb(255,255,255)"/>
<path d="M6 2h2v6h12v-6h2v6h4v2h-24v-2h4v-6z" fill="rgb(59,0,0)"/>
<path d="M8 2h6v2h-4v2h-2v-4z" fill="rgb(192,8,0)"/>
<path d="M14 2h4v4h-2v2h-8v-2h2v-2h4v-2z" fill="rgb(135,0,0)"/>
<path d="M18 2h2v6h-4v-2h2v-4z" fill="rgb(87,0,0)"/>
<path d="M0 10h2v2h-2v-2z" fill="rgb(59,0,0)"/>
<path d="M2 10h10v2h-10v-2z" fill="rgb(192,8,0)"/>
<path d="M12 10h2v2h-2v-2z" fill="rgb(135,0,0)"/>
<path d="M14 10h2v2h-2v-2z" fill="rgb(192,8,0)"/>
<path d="M16 10h8v2h-8v-2z" fill="rgb(135,0,0)"/>
<path d="M24 10h2v2h-2v-2z" fill="rgb(87,0,0)"/>
<path d="M26 10h2v2h-2v-2z" fill="rgb(59,0,0)"/>
<path d="M0 12h2v2h4v4h-2v2h2v2h-2v8h-2v6h2v4h2v4h-2v4h-4v-36z" fill="rgb(255,255,255)"/>
<path d="M2 12h24v2h-24v-2z" fill="rgb(59,0,0)"/>
<path d="M6 14h2v4h-2v-4z" fill="rgb(94,64,52)"/>
<path d="M8 14h2v2h-2v-2z" fill="rgb(242,211,198)"/>
<path d="M10 14h2v2h-2v-2z" fill="rgb(23,59,180)"/>
<path d="M12 14h2v4h-2v-4z" fill="rgb(247,247,247)"/>
<path d="M14 14h2v2h-2v-2z" fill="rgb(160,160,181)"/>
<path d="M16 14h2v2h-2v-2z" fill="rgb(98,98,106)"/>
<path d="M18 14h2v2h-2v-2z" fill="rgb(193,193,221)"/>
<path d="M20 14h2v2h-2v-2z" fill="rgb(136,136,153)"/>
<path d="M22 14h2v2h-2v-2z" fill="rgb(46,46,52)"/>
<path d="M8 16h2v2h2v2h-4v-4z" fill="rgb(225,174,152)"/>
<path d="M10 16h2v2h-2v-2z" fill="rgb(37,77,213)"/>
<path d="M14 16h2v2h-2v-2z" fill="rgb(225,174,152)"/>
<path d="M16 16h2v2h-2v-2z" fill="rgb(160,160,181)"/>
<path d="M18 16h2v2h-2v-2z" fill="rgb(98,98,106)"/>
<path d="M20 16h2v2h-2v-2z" fill="rgb(193,193,221)"/>
<path d="M22 16h2v2h-2v-2z" fill="rgb(136,136,153)"/>
<path d="M24 16h2v2h-2v-2z" fill="rgb(46,46,52)"/>
<path d="M4 18h2v2h-2v-2z" fill="rgb(94,64,52)"/>
<path d="M6 18h2v2h-2v-2z" fill="rgb(242,211,198)"/>
<path d="M12 18h2v2h-2v-2z" fill="rgb(240,202,186)"/>
<path d="M14 18h2v2h-2v-2z" fill="rgb(238,192,174)"/>
<path d="M16 18h2v2h-2v-2z" fill="rgb(98,98,106)"/>
<path d="M18 18h4v2h-4v-2z" fill="rgb(87,0,0)"/>
<path d="M22 18h4v2h-4v-2z" fill="rgb(59,0,0)"/>
<path d="M6 20h2v2h-2v-2z" fill="rgb(46,46,52)"/>
<path d="M8 20h2v2h-2v-2z" fill="rgb(178,178,203)"/>
<path d="M10 20h2v2h-2v-2z" fill="rgb(136,136,153)"/>
<path d="M12 20h2v2h-2v-2z" fill="rgb(98,98,106)"/>
<path d="M14 20h2v2h-2v-2z" fill="rgb(225,174,152)"/>
<path d="M16 20h2v2h-2v-2z" fill="rgb(87,0,0)"/>
<path d="M18 20h4v2h-4v-2z" fill="rgb(192,8,0)"/>
<path d="M22 20h2v2h-2v-2z" fill="rgb(135,0,0)"/>
<path d="M24 20h2v2h-2v-2z" fill="rgb(87,0,0)"/>
<path d="M26 20h2v2h-2v-2z" fill="rgb(59,0,0)"/>
<path d="M4 22h2v2h-2v-2z" fill="rgb(59,0,0)"/>
<path d="M6 22h2v2h-2v-2z" fill="rgb(192,8,0)"/>
<path d="M8 22h2v2h-2v-2z" fill="rgb(94,64,52)"/>
<path d="M10 22h2v2h-2v-2z" fill="rgb(51,49,52)"/>
<path d="M12 22h2v2h-2v-2z" fill="rgb(128,128,143)"/>
<path d="M14 22h2v2h-2v-2z" fill="rgb(51,49,52)"/>
<path d="M16 22h2v2h-2v-2z" fill="rgb(192,8,0)"/>
<path d="M18 22h2v2h-2v-2z" fill="rgb(87,0,0)"/>
<path d="M20 22h2v4h-2v-4z" fill="rgb(122,115,129)"/>
<path d="M22 22h2v4h-2v-4z" fill="rgb(77,73,80)"/>
<path d="M24 22h2v8h-2v-8z" fill="rgb(34,31,37)"/>
<path d="M26 22h2v2h-2v-2z" fill="rgb(87,0,0)"/>
<path d="M28 22h2v20h-8v-2h6v-18z" fill="rgb(59,0,0)"/>
<path d="M4 24h2v4h-2v-4z" fill="rgb(52,49,54)"/>
<path d="M6 24h2v4h-2v-4z" fill="rgb(87,0,0)"/>
<path d="M8 24h2v2h-2v-2z" fill="rgb(192,8,0)"/>
<path d="M10 24h2v2h-2v-2z" fill="rgb(87,0,0)"/>
<path d="M12 24h2v2h-2v-2z" fill="rgb(52,49,54)"/>
<path d="M14 24h2v2h-2v-2z" fill="rgb(192,8,0)"/>
<path d="M16 24h2v2h-2v-2z" fill="rgb(87,0,0)"/>
<path d="M18 24h2v6h-2v-6z" fill="rgb(34,31,37)"/>
<path d="M26 24h2v2h-2v-2z" fill="rgb(135,0,0)"/>
<path d="M8 26h2v2h-2v-2z" fill="rgb(135,0,0)"/>
<path d="M10 26h2v2h-2v-2z" fill="rgb(192,8,0)"/>
<path d="M12 26h2v2h-2v-2z" fill="rgb(135,0,0)"/>
<path d="M14 26h2v2h-2v-2z" fill="rgb(87,0,0)"/>
<path d="M16 26h2v2h-2v-2z" fill="rgb(59,0,0)"/>
<path d="M20 26h2v4h-2v-4z" fill="rgb(100,94,105)"/>
<path d="M22 26h2v4h-2v-4z" fill="rgb(52,49,54)"/>
<path d="M26 26h2v2h-2v-2z" fill="rgb(87,0,0)"/>
<path d="M4 28h2v2h-2v-2z" fill="rgb(34,31,37)"/>
<path d="M6 28h2v2h-2v-2z" fill="rgb(122,115,129)"/>
<path d="M8 28h4v2h-4v-2z" fill="rgb(87,0,0)"/>
<path d="M12 28h4v2h-4v-2z" fill="rgb(59,0,0)"/>
<path d="M16 28h2v2h-2v-2z" fill="rgb(52,49,54)"/>
<path d="M26 28h2v2h-2v-2z" fill="rgb(135,0,0)"/>
<path d="M2 30h2v6h-2v-6z" fill="rgb(94,64,52)"/>
<path d="M4 30h2v4h-2v-4z" fill="rgb(238,192,174)"/>
<path d="M6 30h2v4h-2v-4z" fill="rgb(100,94,105)"/>
<path d="M8 30h2v6h-2v-6z" fill="rgb(52,49,54)"/>
<path d="M10 30h2v2h-2v-2z" fill="rgb(138,138,138)"/>
<path d="M12 30h2v6h-2v-6z" fill="rgb(52,49,54)"/>
<path d="M14 30h2v4h-2v-4z" fill="rgb(100,94,105)"/>
<path d="M16 30h2v6h-2v-6z" fill="rgb(94,64,52)"/>
<path d="M18 30h4v4h-4v-4z" fill="rgb(238,192,174)"/>
<path d="M22 30h2v6h-6v-2h4v-4z" fill="rgb(225,174,152)"/>
<path d="M24 30h2v6h-2v-6z" fill="rgb(94,64,52)"/>
<path d="M26 30h2v10h-2v-10z" fill="rgb(192,8,0)"/>
<path d="M10 32h2v2h-2v-2z" fill="rgb(169,170,169)"/>
<path d="M4 34h2v2h-2v-2z" fill="rgb(225,174,152)"/>
<path d="M6 34h2v2h-2v-2z" fill="rgb(77,73,80)"/>
<path d="M10 34h2v2h-2v-2z" fill="rgb(138,138,138)"/>
<path d="M14 34h2v2h-2v-2z" fill="rgb(77,73,80)"/>
<path d="M4 36h2v2h-2v-2z" fill="rgb(94,64,52)"/>
<path d="M6 36h2v2h-2v-2z" fill="rgb(34,31,37)"/>
<path d="M8 36h2v4h-2v-4z" fill="rgb(138,167,236)"/>
<path d="M10 36h2v8h-2v-8z" fill="rgb(48,52,69)"/>
<path d="M12 36h2v4h-2v-4z" fill="rgb(138,167,236)"/>
<path d="M14 36h2v2h-2v-2z" fill="rgb(52,49,54)"/>
<path d="M16 36h2v2h-2v-2z" fill="rgb(77,73,80)"/>
<path d="M18 36h6v2h-6v-2z" fill="rgb(94,64,52)"/>
<path d="M24 36h2v4h-2v-4z" fill="rgb(135,0,0)"/>
<path d="M4 38h2v2h-2v-2z" fill="rgb(34,31,37)"/>
<path d="M6 38h2v6h-2v-6z" fill="rgb(48,52,69)"/>
<path d="M14 38h2v4h2v4h-2v-2h-2v-2h-2v-2h2v-2z" fill="rgb(115,135,192)"/>
<path d="M16 38h2v2h-2v-2z" fill="rgb(34,31,37)"/>
<path d="M18 38h4v2h-4v-2z" fill="rgb(52,49,54)"/>
<path d="M22 38h2v2h-2v-2z" fill="rgb(34,31,37)"/>
<path d="M8 40h2v2h-2v-2z" fill="rgb(115,135,192)"/>
<path d="M16 40h2v2h-2v-2z" fill="rgb(81,94,132)"/>
<path d="M18 40h4v2h-4v-2z" fill="rgb(34,31,37)"/>
<path d="M8 42h2v2h-2v-2z" fill="rgb(81,94,132)"/>
<path d="M12 42h2v2h-2v-2z" fill="rgb(81,94,132)"/>
<path d="M18 42h2v4h-2v-4z" fill="rgb(81,94,132)"/>
<path d="M20 42h2v6h-6v-2h4v-4z" fill="rgb(48,52,69)"/>
<path d="M22 42h8v6h-8v-6z" fill="rgb(255,255,255)"/>
<path d="M4 44h2v2h2v-2h2v2h6v2h-12v-4z" fill="rgb(28,31,36)"/>
<path d="M6 44h2v2h-2v-2z" fill="rgb(108,112,121)"/>
<path d="M10 44h2v2h-2v-2z" fill="rgb(108,112,121)"/>
<path d="M12 44h4v2h-4v-2z" fill="rgb(73,76,86)"/>
</svg>