<?xml version="1.0" encoding="utf-8"?>
<!-- generated at drububu.com  -->
<!DOCTYPE svg PUBLIC "-//W3C//DTD SVG 1.1//EN" "http://www.w3.org/Graphics/SVG/1.1/DTD/svg11.dtd">
<svg version="1.1" preserveAspectRatio="xMinYMin meet" xmlns="http://www.w3.org/2000/svg" xmlns:xlink="http://www.w3.org/1999/xlink" x="0px" y="0px" width="24px" height="48px" viewBox="0 0 24 48">
<path d="M0 0h16v2h-2v2h-2v2h-4v2h-2v2h-2v8h-2v2h2v2h-2v8h-2v-30z" fill="rgb(255,255,255)"/>
<path d="M16 0h2v2h-2v-2z" fill="rgb(204,247,247)"/>
<path d="M18 0h2v2h-2v-2z" fill="rgb(178,243,243)"/>
<path d="M20 0h2v2h-2v-2z" fill="rgb(204,247,247)"/>
<path d="M22 0h2v2h-2v-2z" fill="rgb(255,255,255)"/>
<path d="M14 2h2v2h-2v-2z" fill="rgb(204,247,247)"/>
<path d="M16 2h2v2h-2v-2z" fill="rgb(178,243,243)"/>
<path d="M18 2h2v2h-2v-2z" fill="rgb(73,225,225)"/>
<path d="M20 2h2v2h-2v-2z" fill="rgb(178,243,243)"/>
<path d="M22 2h2v2h-2v-2z" fill="rgb(204,247,247)"/>
<path d="M12 4h4v2h-4v-2z" fill="rgb(0,28,28)"/>
<path d="M16 4h2v2h-2v-2z" fill="rgb(73,225,225)"/>
<path d="M18 4h2v2h-2v-2z" fill="rgb(0,255,255)"/>
<path d="M20 4h2v2h-2v-2z" fill="rgb(73,225,225)"/>
<path d="M22 4h2v2h-2v-2z" fill="rgb(178,243,243)"/>
<path d="M8 6h2v2h-2v-2z" fill="rgb(71,60,49)"/>
<path d="M10 6h2v2h-2v-2z" fill="rgb(0,28,28)"/>
<path d="M12 6h2v2h-2v-2z" fill="rgb(57,89,94)"/>
<path d="M14 6h2v2h-2v-2z" fill="rgb(25,56,57)"/>
<path d="M16 6h2v2h-2v-2z" fill="rgb(0,28,28)"/>
<path d="M18 6h2v2h-2v-2z" fill="rgb(2,120,120)"/>
<path d="M20 6h2v4h-2v-4z" fill="rgb(0,28,28)"/>
<path d="M22 6h2v16h-2v-2h-4v-2h2v-8h2v-4z" fill="rgb(255,255,255)"/>
<path d="M6 8h2v2h-2v-2z" fill="rgb(71,60,49)"/>
<path d="M8 8h4v2h-4v-2z" fill="rgb(218,206,189)"/>
<path d="M12 8h2v2h-2v-2z" fill="rgb(0,28,28)"/>
<path d="M14 8h2v2h-2v-2z" fill="rgb(57,89,94)"/>
<path d="M16 8h2v2h-2v-2z" fill="rgb(25,56,57)"/>
<path d="M18 8h2v2h-2v-2z" fill="rgb(96,145,151)"/>
<path d="M4 10h2v2h-2v-2z" fill="rgb(27,27,27)"/>
<path d="M6 10h2v2h-2v-2z" fill="rgb(46,46,46)"/>
<path d="M8 10h4v8h2v2h-8v-2h4v-6h-2v-2z" fill="rgb(0,28,28)"/>
<path d="M12 10h2v2h-2v-2z" fill="rgb(57,89,94)"/>
<path d="M14 10h2v2h-2v-2z" fill="rgb(96,145,151)"/>
<path d="M16 10h2v2h-2v-2z" fill="rgb(57,89,94)"/>
<path d="M18 10h2v8h-4v-2h2v-6z" fill="rgb(0,28,28)"/>
<path d="M4 12h2v2h-2v-2z" fill="rgb(0,28,28)"/>
<path d="M6 12h2v2h-2v-2z" fill="rgb(96,145,151)"/>
<path d="M8 12h2v2h-2v-2z" fill="rgb(25,56,57)"/>
<path d="M12 12h2v2h-2v-2z" fill="rgb(96,145,151)"/>
<path d="M14 12h4v2h-4v-2z" fill="rgb(25,56,57)"/>
<path d="M4 14h2v2h-2v-2z" fill="rgb(57,89,94)"/>
<path d="M6 14h2v2h-2v-2z" fill="rgb(0,255,255)"/>
<path d="M8 14h2v2h-2v-2z" fill="rgb(2,113,113)"/>
<path d="M12 14h2v2h-2v-2z" fill="rgb(25,56,57)"/>
<path d="M14 14h2v2h-2v-2z" fill="rgb(96,145,151)"/>
<path d="M16 14h2v2h-2v-2z" fill="rgb(57,89,94)"/>
<path d="M4 16h2v2h-2v-2z" fill="rgb(0,28,28)"/>
<path d="M6 16h2v2h-2v-2z" fill="rgb(57,89,94)"/>
<path d="M8 16h2v2h-2v-2z" fill="rgb(25,56,57)"/>
<path d="M12 16h2v2h-2v-2z" fill="rgb(96,145,151)"/>
<path d="M14 16h2v2h-2v-2z" fill="rgb(25,56,57)"/>
<path d="M2 18h2v2h-2v-2z" fill="rgb(71,60,49)"/>
<path d="M4 18h2v2h-2v-2z" fill="rgb(218,206,189)"/>
<path d="M14 18h2v2h-2v-2z" fill="rgb(153,133,112)"/>
<path d="M16 18h2v2h-2v-2z" fill="rgb(71,60,49)"/>
<path d="M4 20h2v2h-2v-2z" fill="rgb(71,60,49)"/>
<path d="M6 20h6v2h-6v-2z" fill="rgb(190,171,150)"/>
<path d="M12 20h2v2h-2v-2z" fill="rgb(153,133,112)"/>
<path d="M14 20h2v2h-2v-2z" fill="rgb(71,60,49)"/>
<path d="M16 20h2v2h-2v-2z" fill="rgb(0,48,44)"/>
<path d="M18 20h4v2h-4v-2z" fill="rgb(0,61,60)"/>
<path d="M2 22h2v4h-2v-4z" fill="rgb(0,48,44)"/>
<path d="M4 22h2v2h-2v-2z" fill="rgb(2,182,182)"/>
<path d="M6 22h8v2h-8v-2z" fill="rgb(71,60,49)"/>
<path d="M14 22h2v2h-2v-2z" fill="rgb(0,48,44)"/>
<path d="M16 22h2v2h-2v-2z" fill="rgb(2,148,148)"/>
<path d="M18 22h2v2h-2v-2z" fill="rgb(0,255,255)"/>
<path d="M20 22h2v2h-2v-2z" fill="rgb(2,148,148)"/>
<path d="M22 22h2v8h-4v-2h2v-2h-2v-2h2v-2z" fill="rgb(0,61,60)"/>
<path d="M4 24h2v2h-2v-2z" fill="rgb(57,89,94)"/>
<path d="M6 24h2v2h-2v-2z" fill="rgb(0,48,44)"/>
<path d="M8 24h2v2h-2v-2z" fill="rgb(2,148,148)"/>
<path d="M10 24h2v2h-2v-2z" fill="rgb(0,48,44)"/>
<path d="M12 24h2v2h-2v-2z" fill="rgb(35,60,64)"/>
<path d="M14 24h2v2h-2v-2z" fill="rgb(57,89,94)"/>
<path d="M16 24h4v2h-2v2h2v2h-4v-6z" fill="rgb(0,48,44)"/>
<path d="M2 26h2v2h-2v-2z" fill="rgb(2,148,148)"/>
<path d="M4 26h2v2h-2v-2z" fill="rgb(0,48,44)"/>
<path d="M6 26h2v2h-2v-2z" fill="rgb(2,113,113)"/>
<path d="M8 26h2v2h-2v-2z" fill="rgb(0,255,255)"/>
<path d="M10 26h2v2h-2v-2z" fill="rgb(2,113,113)"/>
<path d="M12 26h2v2h-2v-2z" fill="rgb(0,48,44)"/>
<path d="M14 26h2v2h-2v-2z" fill="rgb(35,60,64)"/>
<path d="M18 26h2v2h-2v-2z" fill="rgb(0,255,255)"/>
<path d="M20 26h2v2h-2v-2z" fill="rgb(2,148,148)"/>
<path d="M2 28h2v2h-2v-2z" fill="rgb(0,48,44)"/>
<path d="M4 28h2v2h-2v-2z" fill="rgb(0,61,60)"/>
<path d="M6 28h2v2h-2v-2z" fill="rgb(2,148,148)"/>
<path d="M8 28h2v2h-2v-2z" fill="rgb(2,113,113)"/>
<path d="M10 28h2v2h-2v-2z" fill="rgb(2,148,148)"/>
<path d="M12 28h2v2h-2v-2z" fill="rgb(0,61,60)"/>
<path d="M14 28h2v2h-2v-2z" fill="rgb(0,28,28)"/>
<path d="M0 30h2v6h-2v-6z" fill="rgb(71,60,49)"/>
<path d="M2 30h2v6h-2v-6z" fill="rgb(153,133,112)"/>
<path d="M4 30h2v10h2v-4h2v4h2v2h-8v-12z" fill="rgb(0,28,28)"/>
<path d="M6 30h2v2h-2v-2z" fill="rgb(0,61,60)"/>
<path d="M8 30h2v2h-2v-2z" fill="rgb(2,148,148)"/>
<path d="M10 30h2v2h-2v-2z" fill="rgb(0,61,60)"/>
<path d="M12 30h2v2h-2v-2z" fill="rgb(0,28,28)"/>
<path d="M14 30h2v6h-2v-6z" fill="rgb(71,60,49)"/>
<path d="M16 30h2v6h-2v-6z" fill="rgb(190,171,150)"/>
<path d="M18 30h4v2h-4v-2z" fill="rgb(153,133,112)"/>
<path d="M22 30h2v6h-2v-6z" fill="rgb(71,60,49)"/>
<path d="M6 32h2v4h-2v-4z" fill="rgb(57,89,94)"/>
<path d="M8 32h2v2h-2v-2z" fill="rgb(0,48,44)"/>
<path d="M10 32h2v4h-2v-4z" fill="rgb(57,89,94)"/>
<path d="M12 32h2v4h-2v-4z" fill="rgb(35,60,64)"/>
<path d="M18 32h4v4h-4v-4z" fill="rgb(218,206,189)"/>
<path d="M8 34h2v2h-2v-2z" fill="rgb(35,60,64)"/>
<path d="M0 36h2v2h2v6h-2v4h-2v-12z" fill="rgb(255,255,255)"/>
<path d="M2 36h2v2h-2v-2z" fill="rgb(71,60,49)"/>
<path d="M6 36h2v4h-2v-4z" fill="rgb(96,145,151)"/>
<path d="M10 36h2v4h-2v-4z" fill="rgb(96,145,151)"/>
<path d="M12 36h2v4h-2v-4z" fill="rgb(57,89,94)"/>
<path d="M14 36h2v2h-2v-2z" fill="rgb(35,60,64)"/>
<path d="M16 36h6v2h-6v-2z" fill="rgb(71,60,49)"/>
<path d="M22 36h2v12h-4v-2h2v-4h-2v-2h-2v-2h4v-2z" fill="rgb(255,255,255)"/>
<path d="M14 38h2v2h-2v-2z" fill="rgb(0,48,44)"/>
<path d="M16 38h2v2h-2v-2z" fill="rgb(0,61,60)"/>
<path d="M12 40h2v2h-2v-2z" fill="rgb(0,48,44)"/>
<path d="M14 40h2v2h-2v-2z" fill="rgb(2,148,148)"/>
<path d="M16 40h2v2h-2v-2z" fill="rgb(0,255,255)"/>
<path d="M18 40h2v2h-2v-2z" fill="rgb(0,61,60)"/>
<path d="M4 42h2v2h-2v-2z" fill="rgb(36,36,36)"/>
<path d="M6 42h2v2h-2v-2z" fill="rgb(125,125,125)"/>
<path d="M8 42h2v2h-2v-2z" fill="rgb(36,36,36)"/>
<path d="M10 42h4v2h-2v2h-2v-4z" fill="rgb(125,125,125)"/>
<path d="M14 42h2v2h-2v-2z" fill="rgb(0,48,44)"/>
<path d="M16 42h4v2h-4v-2z" fill="rgb(2,113,113)"/>
<path d="M20 42h2v4h-2v-4z" fill="rgb(0,61,60)"/>
<path d="M2 44h2v2h2v-2h2v2h10v2h-16v-4z" fill="rgb(36,36,36)"/>
<path d="M4 44h2v2h-2v-2z" fill="rgb(193,193,193)"/>
<path d="M8 44h2v2h-2v-2z" fill="rgb(193,193,193)"/>
<path d="M12 44h4v2h-4v-2z" fill="rgb(99,99,99)"/>
<path d="M16 44h2v2h-2v-2z" fill="rgb(0,48,44)"/>
<path d="M18 44h2v2h-2v-2z" fill="rgb(2,148,148)"/>
<path d="M18 46h2v2h-2v-2z" fill="rgb(0,48,44)"/>
</svg>