<?xml version="1.0" encoding="utf-8"?>
<!-- generated at drububu.com  -->
<!DOCTYPE svg PUBLIC "-//W3C//DTD SVG 1.1//EN" "http://www.w3.org/Graphics/SVG/1.1/DTD/svg11.dtd">
<svg version="1.1" preserveAspectRatio="xMinYMin meet" xmlns="http://www.w3.org/2000/svg" xmlns:xlink="http://www.w3.org/1999/xlink" x="0px" y="0px" width="36px" height="40px" viewBox="0 0 36 40">
<path d="M0 0h6v2h-2v4h-2v4h2v4h-2v2h2v2h-2v6h-2v-24z" fill="rgb(255,255,255)"/>
<path d="M6 0h4v2h-4v-2z" fill="rgb(49,46,46)"/>
<path d="M10 0h6v2h-6v-2z" fill="rgb(57,27,1)"/>
<path d="M16 0h20v16h-2v-2h-2v-8h-6v2h-2v2h-2v2h-2v-8h-2v-2h-2v-2z" fill="rgb(255,255,255)"/>
<path d="M4 2h2v4h-2v-4z" fill="rgb(49,46,46)"/>
<path d="M6 2h2v2h-2v-2z" fill="rgb(255,252,197)"/>
<path d="M8 2h2v2h-2v-2z" fill="rgb(154,153,132)"/>
<path d="M10 2h2v2h-2v-2z" fill="rgb(179,137,1)"/>
<path d="M12 2h2v2h-2v-2z" fill="rgb(233,201,6)"/>
<path d="M14 2h2v2h-2v-2z" fill="rgb(179,137,1)"/>
<path d="M16 2h2v2h-2v-2z" fill="rgb(57,27,1)"/>
<path d="M6 4h2v2h-2v-2z" fill="rgb(154,153,132)"/>
<path d="M8 4h2v2h-2v-2z" fill="rgb(179,137,1)"/>
<path d="M10 4h4v2h-4v-2z" fill="rgb(255,233,99)"/>
<path d="M14 4h2v2h-2v-2z" fill="rgb(227,175,4)"/>
<path d="M16 4h2v2h-2v-2z" fill="rgb(179,137,1)"/>
<path d="M18 4h2v6h-2v-6z" fill="rgb(57,27,1)"/>
<path d="M2 6h2v4h-2v-4z" fill="rgb(57,27,1)"/>
<path d="M4 6h2v2h-2v-2z" fill="rgb(179,137,1)"/>
<path d="M6 6h2v2h-2v-2z" fill="rgb(227,175,4)"/>
<path d="M8 6h2v2h-2v-2z" fill="rgb(233,201,6)"/>
<path d="M10 6h4v2h-4v-2z" fill="rgb(227,175,4)"/>
<path d="M14 6h2v2h-2v-2z" fill="rgb(233,201,6)"/>
<path d="M16 6h2v2h-2v-2z" fill="rgb(227,175,4)"/>
<path d="M26 6h6v4h-2v-2h-4v-2z" fill="rgb(49,23,1)"/>
<path d="M4 8h14v2h-14v-2z" fill="rgb(110,60,6)"/>
<path d="M24 8h2v2h-2v-2z" fill="rgb(49,23,1)"/>
<path d="M26 8h2v2h-2v-2z" fill="rgb(176,101,6)"/>
<path d="M28 8h2v2h-2v-2z" fill="rgb(151,85,6)"/>
<path d="M4 10h2v4h-2v-4z" fill="rgb(52,16,4)"/>
<path d="M6 10h2v4h2v2h-4v-6z" fill="rgb(239,133,90)"/>
<path d="M8 10h2v4h-2v-4z" fill="rgb(2,63,128)"/>
<path d="M10 10h2v4h-2v-4z" fill="rgb(247,247,247)"/>
<path d="M12 10h2v2h-2v-2z" fill="rgb(52,16,4)"/>
<path d="M14 10h2v2h-2v-2z" fill="rgb(237,101,44)"/>
<path d="M16 10h2v4h-2v-4z" fill="rgb(193,76,17)"/>
<path d="M18 10h2v4h-2v-4z" fill="rgb(94,28,3)"/>
<path d="M22 10h2v2h-2v-2z" fill="rgb(49,23,1)"/>
<path d="M24 10h2v2h-2v-2z" fill="rgb(110,60,6)"/>
<path d="M26 10h4v4h-2v2h-2v8h10v16h-16v-6h-2v-2h4v-2h2v-12h-2v-4h2v-2h2v-2z" fill="rgb(255,255,255)"/>
<path d="M30 10h2v6h-2v-6z" fill="rgb(128,126,126)"/>
<path d="M12 12h2v2h-2v-2z" fill="rgb(239,133,90)"/>
<path d="M14 12h2v2h-2v-2z" fill="rgb(215,90,45)"/>
<path d="M20 12h2v2h-2v-2z" fill="rgb(49,23,1)"/>
<path d="M22 12h2v2h-2v-2z" fill="rgb(114,62,6)"/>
<path d="M2 14h2v2h-2v-2z" fill="rgb(52,16,4)"/>
<path d="M4 14h2v2h-2v-2z" fill="rgb(255,175,141)"/>
<path d="M10 14h2v2h-2v-2z" fill="rgb(247,154,116)"/>
<path d="M12 14h2v2h-2v-2z" fill="rgb(228,93,19)"/>
<path d="M14 14h2v2h-2v-2z" fill="rgb(193,76,17)"/>
<path d="M16 14h2v4h-2v-4z" fill="rgb(94,28,3)"/>
<path d="M18 14h2v2h-2v-2z" fill="rgb(49,46,46)"/>
<path d="M20 14h2v2h-2v-2z" fill="rgb(151,85,6)"/>
<path d="M28 14h2v2h-2v-2z" fill="rgb(201,189,184)"/>
<path d="M32 14h2v2h-2v-2z" fill="rgb(201,189,184)"/>
<path d="M4 16h2v6h-2v-6z" fill="rgb(94,28,3)"/>
<path d="M6 16h2v2h-2v-2z" fill="rgb(187,74,30)"/>
<path d="M8 16h2v2h-2v-2z" fill="rgb(237,101,44)"/>
<path d="M10 16h2v2h-2v-2z" fill="rgb(208,86,42)"/>
<path d="M12 16h2v2h-2v-2z" fill="rgb(215,90,45)"/>
<path d="M14 16h2v2h-2v-2z" fill="rgb(160,59,14)"/>
<path d="M18 16h2v2h-2v-2z" fill="rgb(248,248,248)"/>
<path d="M20 16h2v2h-2v-2z" fill="rgb(49,46,46)"/>
<path d="M26 16h2v2h-2v-2z" fill="rgb(201,189,184)"/>
<path d="M28 16h2v2h-2v-2z" fill="rgb(20,20,20)"/>
<path d="M30 16h2v2h-2v-2z" fill="rgb(233,201,6)"/>
<path d="M32 16h2v2h-2v-2z" fill="rgb(20,20,20)"/>
<path d="M34 16h2v2h-2v-2z" fill="rgb(201,189,184)"/>
<path d="M2 18h2v4h-2v-4z" fill="rgb(49,46,46)"/>
<path d="M6 18h2v2h-2v-2z" fill="rgb(215,90,45)"/>
<path d="M8 18h2v2h-2v-2z" fill="rgb(193,76,17)"/>
<path d="M10 18h2v2h-2v-2z" fill="rgb(215,90,45)"/>
<path d="M12 18h2v2h-2v-2z" fill="rgb(160,59,14)"/>
<path d="M14 18h2v2h-2v-2z" fill="rgb(94,28,3)"/>
<path d="M16 18h2v2h-2v-2z" fill="rgb(49,46,46)"/>
<path d="M18 18h4v2h-4v-2z" fill="rgb(215,211,211)"/>
<path d="M22 18h2v4h-6v-2h4v-2z" fill="rgb(49,46,46)"/>
<path d="M26 18h2v2h-2v-2z" fill="rgb(187,158,144)"/>
<path d="M28 18h2v2h-2v-2z" fill="rgb(49,23,1)"/>
<path d="M30 18h2v2h-2v-2z" fill="rgb(228,93,19)"/>
<path d="M32 18h2v2h-2v-2z" fill="rgb(49,23,1)"/>
<path d="M34 18h2v2h-2v-2z" fill="rgb(198,185,179)"/>
<path d="M6 20h2v2h-2v-2z" fill="rgb(188,75,31)"/>
<path d="M8 20h2v2h-2v-2z" fill="rgb(215,90,45)"/>
<path d="M10 20h2v2h-2v-2z" fill="rgb(160,59,14)"/>
<path d="M12 20h2v2h-2v-2z" fill="rgb(94,28,3)"/>
<path d="M14 20h2v4h-2v-4z" fill="rgb(110,60,6)"/>
<path d="M16 20h2v4h-2v-4z" fill="rgb(55,54,39)"/>
<path d="M26 20h2v2h-2v-2z" fill="rgb(192,173,164)"/>
<path d="M28 20h2v2h-2v-2z" fill="rgb(20,20,20)"/>
<path d="M30 20h2v2h-2v-2z" fill="rgb(49,23,1)"/>
<path d="M32 20h2v2h-2v-2z" fill="rgb(20,20,20)"/>
<path d="M34 20h2v2h-2v-2z" fill="rgb(192,173,164)"/>
<path d="M2 22h2v2h-2v-2z" fill="rgb(55,54,39)"/>
<path d="M4 22h2v8h-2v-8z" fill="rgb(49,23,1)"/>
<path d="M6 22h2v2h-2v-2z" fill="rgb(94,28,3)"/>
<path d="M8 22h2v2h-2v-2z" fill="rgb(160,59,14)"/>
<path d="M10 22h2v2h-2v-2z" fill="rgb(94,28,3)"/>
<path d="M12 22h2v2h-2v-2z" fill="rgb(176,101,6)"/>
<path d="M18 22h2v2h-2v-2z" fill="rgb(199,197,171)"/>
<path d="M20 22h2v2h-2v-2z" fill="rgb(169,168,126)"/>
<path d="M22 22h2v2h-2v-2z" fill="rgb(55,54,39)"/>
<path d="M26 22h2v2h-2v-2z" fill="rgb(231,230,229)"/>
<path d="M28 22h2v2h-2v-2z" fill="rgb(192,173,164)"/>
<path d="M30 22h2v2h-2v-2z" fill="rgb(198,185,179)"/>
<path d="M32 22h2v2h-2v-2z" fill="rgb(192,173,164)"/>
<path d="M34 22h2v2h-2v-2z" fill="rgb(231,230,229)"/>
<path d="M0 24h2v6h-2v-6z" fill="rgb(52,16,4)"/>
<path d="M2 24h2v6h-2v-6z" fill="rgb(215,90,45)"/>
<path d="M6 24h2v2h-2v-2z" fill="rgb(176,101,6)"/>
<path d="M8 24h2v2h-2v-2z" fill="rgb(94,28,3)"/>
<path d="M10 24h2v2h-2v-2z" fill="rgb(176,101,6)"/>
<path d="M12 24h2v4h-2v-4z" fill="rgb(110,60,6)"/>
<path d="M14 24h2v6h-2v-6z" fill="rgb(52,16,4)"/>
<path d="M16 24h2v6h-2v-6z" fill="rgb(215,90,45)"/>
<path d="M18 24h4v2h-4v-2z" fill="rgb(155,74,45)"/>
<path d="M22 24h2v6h-2v-6z" fill="rgb(52,16,4)"/>
<path d="M6 26h2v2h-2v-2z" fill="rgb(124,80,31)"/>
<path d="M8 26h2v2h-2v-2z" fill="rgb(110,60,6)"/>
<path d="M10 26h2v2h-2v-2z" fill="rgb(124,80,31)"/>
<path d="M18 26h4v4h-4v-4z" fill="rgb(239,133,90)"/>
<path d="M6 28h4v2h-4v-2z" fill="rgb(116,67,14)"/>
<path d="M10 28h2v2h-2v-2z" fill="rgb(117,68,18)"/>
<path d="M12 28h2v2h-2v-2z" fill="rgb(124,80,31)"/>
<path d="M0 30h2v2h2v4h-2v4h-2v-10z" fill="rgb(255,255,255)"/>
<path d="M2 30h2v2h-2v-2z" fill="rgb(52,16,4)"/>
<path d="M4 30h2v4h-2v-4z" fill="rgb(48,33,14)"/>
<path d="M6 30h2v2h-2v-2z" fill="rgb(161,132,106)"/>
<path d="M8 30h2v4h-2v-4z" fill="rgb(48,33,14)"/>
<path d="M10 30h2v2h-2v-2z" fill="rgb(161,132,106)"/>
<path d="M12 30h2v2h2v4h-4v-2h-2v-2h2v-2z" fill="rgb(127,107,92)"/>
<path d="M14 30h2v2h-2v-2z" fill="rgb(89,67,39)"/>
<path d="M16 30h6v2h-6v-2z" fill="rgb(52,16,4)"/>
<path d="M6 32h2v2h-2v-2z" fill="rgb(127,107,92)"/>
<path d="M16 32h2v2h-2v-2z" fill="rgb(48,33,14)"/>
<path d="M4 34h2v2h-2v-2z" fill="rgb(50,35,17)"/>
<path d="M6 34h2v2h-2v-2z" fill="rgb(118,91,52)"/>
<path d="M8 34h2v2h-2v-2z" fill="rgb(50,35,17)"/>
<path d="M10 34h2v2h2v2h-4v-4z" fill="rgb(118,91,52)"/>
<path d="M16 34h2v4h-4v-2h2v-2z" fill="rgb(89,67,39)"/>
<path d="M18 34h2v6h-6v-2h4v-4z" fill="rgb(48,33,14)"/>
<path d="M2 36h2v2h2v-2h2v2h6v2h-12v-4z" fill="rgb(50,35,17)"/>
<path d="M4 36h2v2h-2v-2z" fill="rgb(177,144,80)"/>
<path d="M8 36h2v2h-2v-2z" fill="rgb(177,144,80)"/>
</svg>