<?xml version="1.0" encoding="utf-8"?>
<!-- generated at drububu.com  -->
<!DOCTYPE svg PUBLIC "-//W3C//DTD SVG 1.1//EN" "http://www.w3.org/Graphics/SVG/1.1/DTD/svg11.dtd">
<svg version="1.1" preserveAspectRatio="xMinYMin meet" xmlns="http://www.w3.org/2000/svg" xmlns:xlink="http://www.w3.org/1999/xlink" x="0px" y="0px" width="24px" height="46px" viewBox="0 0 24 46">
<path d="M0 0h6v2h-4v2h-2v-4z" fill="rgb(255,255,255)"/>
<path d="M6 0h10v2h-10v-2z" fill="rgb(25,3,73)"/>
<path d="M16 0h8v20h-2v-2h-2v-4h2v-8h-2v-2h-2v-2h-2v-2z" fill="rgb(255,255,255)"/>
<path d="M2 2h4v2h-4v-2z" fill="rgb(25,3,73)"/>
<path d="M6 2h2v2h-2v-2z" fill="rgb(44,12,107)"/>
<path d="M8 2h4v2h-4v-2z" fill="rgb(66,20,98)"/>
<path d="M12 2h2v2h-2v-2z" fill="rgb(101,53,136)"/>
<path d="M14 2h2v2h-2v-2z" fill="rgb(57,19,130)"/>
<path d="M16 2h2v2h-2v-2z" fill="rgb(25,3,73)"/>
<path d="M0 4h2v8h-2v-8z" fill="rgb(25,3,73)"/>
<path d="M2 4h2v2h-2v-2z" fill="rgb(44,12,107)"/>
<path d="M4 4h2v2h-2v-2z" fill="rgb(66,20,98)"/>
<path d="M6 4h2v2h-2v-2z" fill="rgb(132,78,171)"/>
<path d="M8 4h2v2h-2v-2z" fill="rgb(44,12,107)"/>
<path d="M10 4h4v2h-4v-2z" fill="rgb(57,19,130)"/>
<path d="M14 4h2v2h-2v-2z" fill="rgb(132,78,171)"/>
<path d="M16 4h2v2h-2v-2z" fill="rgb(198,127,250)"/>
<path d="M18 4h2v2h-2v-2z" fill="rgb(25,3,73)"/>
<path d="M2 6h2v2h-2v-2z" fill="rgb(101,53,136)"/>
<path d="M4 6h2v2h-2v-2z" fill="rgb(147,0,0)"/>
<path d="M6 6h2v2h-2v-2z" fill="rgb(25,3,73)"/>
<path d="M8 6h2v2h-2v-2z" fill="rgb(132,78,171)"/>
<path d="M10 6h4v2h-4v-2z" fill="rgb(101,53,136)"/>
<path d="M14 6h2v2h-2v-2z" fill="rgb(44,12,107)"/>
<path d="M16 6h2v2h-2v-2z" fill="rgb(57,19,130)"/>
<path d="M18 6h2v2h-2v-2z" fill="rgb(132,78,171)"/>
<path d="M20 6h2v8h-2v-8z" fill="rgb(25,3,73)"/>
<path d="M2 8h2v2h-2v-2z" fill="rgb(57,19,130)"/>
<path d="M4 8h2v2h-2v-2z" fill="rgb(239,0,0)"/>
<path d="M6 8h2v2h-2v-2z" fill="rgb(171,6,0)"/>
<path d="M8 8h2v2h-2v-2z" fill="rgb(25,3,73)"/>
<path d="M10 8h2v2h-2v-2z" fill="rgb(44,12,107)"/>
<path d="M12 8h2v2h-2v-2z" fill="rgb(57,19,130)"/>
<path d="M14 8h2v2h-2v-2z" fill="rgb(132,78,171)"/>
<path d="M16 8h2v2h-2v-2z" fill="rgb(198,127,250)"/>
<path d="M18 8h2v2h-2v-2z" fill="rgb(44,12,107)"/>
<path d="M2 10h2v2h-2v-2z" fill="rgb(66,20,98)"/>
<path d="M4 10h6v2h-6v-2z" fill="rgb(63,0,0)"/>
<path d="M10 10h2v2h-2v-2z" fill="rgb(25,3,73)"/>
<path d="M12 10h2v2h-2v-2z" fill="rgb(66,20,98)"/>
<path d="M14 10h2v2h-2v-2z" fill="rgb(44,12,107)"/>
<path d="M16 10h2v2h-2v-2z" fill="rgb(57,19,130)"/>
<path d="M18 10h2v2h-2v-2z" fill="rgb(132,78,171)"/>
<path d="M0 12h2v2h2v2h-2v2h2v2h-2v8h-2v-16z" fill="rgb(255,255,255)"/>
<path d="M2 12h2v2h-2v-2z" fill="rgb(20,23,62)"/>
<path d="M4 12h2v4h-2v-4z" fill="rgb(50,10,2)"/>
<path d="M6 12h2v2h-2v-2z" fill="rgb(180,85,52)"/>
<path d="M8 12h2v2h-2v-2z" fill="rgb(12,84,78)"/>
<path d="M10 12h2v4h-2v-4z" fill="rgb(247,247,247)"/>
<path d="M12 12h2v2h-2v-2z" fill="rgb(25,3,73)"/>
<path d="M14 12h4v2h-4v-2z" fill="rgb(101,53,136)"/>
<path d="M18 12h2v2h-2v-2z" fill="rgb(44,12,107)"/>
<path d="M6 14h2v2h4v-2h2v4h-2v2h-6v-6z" fill="rgb(194,105,71)"/>
<path d="M8 14h2v2h-2v-2z" fill="rgb(20,119,110)"/>
<path d="M14 14h6v2h-6v-2z" fill="rgb(25,3,73)"/>
<path d="M2 16h2v2h-2v-2z" fill="rgb(50,10,2)"/>
<path d="M4 16h2v2h-2v-2z" fill="rgb(225,153,124)"/>
<path d="M14 16h2v2h-2v-2z" fill="rgb(167,65,33)"/>
<path d="M16 16h2v2h-2v-2z" fill="rgb(50,10,2)"/>
<path d="M18 16h2v2h-2v-2z" fill="rgb(19,59,159)"/>
<path d="M4 18h2v2h-2v-2z" fill="rgb(50,10,2)"/>
<path d="M12 18h2v2h-2v-2z" fill="rgb(167,65,33)"/>
<path d="M14 18h2v2h-2v-2z" fill="rgb(50,10,2)"/>
<path d="M16 18h2v2h-2v-2z" fill="rgb(19,59,159)"/>
<path d="M18 18h2v2h-2v-2z" fill="rgb(0,135,207)"/>
<path d="M20 18h2v2h-2v-2z" fill="rgb(3,25,87)"/>
<path d="M2 20h2v2h-2v-2z" fill="rgb(3,25,87)"/>
<path d="M4 20h2v2h-2v-2z" fill="rgb(19,59,159)"/>
<path d="M6 20h8v2h-8v-2z" fill="rgb(50,10,2)"/>
<path d="M14 20h2v4h-2v-4z" fill="rgb(19,59,159)"/>
<path d="M16 20h2v2h-2v-2z" fill="rgb(55,109,252)"/>
<path d="M18 20h2v2h-2v-2z" fill="rgb(91,199,255)"/>
<path d="M20 20h2v2h-2v-2z" fill="rgb(0,135,207)"/>
<path d="M22 20h2v2h-2v-2z" fill="rgb(3,25,87)"/>
<path d="M2 22h2v2h-2v-2z" fill="rgb(19,59,159)"/>
<path d="M4 22h2v8h-2v-8z" fill="rgb(25,3,73)"/>
<path d="M6 22h2v2h-2v-2z" fill="rgb(101,53,136)"/>
<path d="M8 22h2v2h-2v-2z" fill="rgb(132,78,171)"/>
<path d="M10 22h2v2h-2v-2z" fill="rgb(101,53,136)"/>
<path d="M12 22h2v8h-2v-8z" fill="rgb(25,3,73)"/>
<path d="M16 22h2v2h-2v-2z" fill="rgb(92,60,1)"/>
<path d="M18 22h2v2h-2v-2z" fill="rgb(255,177,18)"/>
<path d="M20 22h2v2h-2v-2z" fill="rgb(202,132,0)"/>
<path d="M22 22h2v2h-2v-2z" fill="rgb(92,60,1)"/>
<path d="M2 24h2v2h-2v-2z" fill="rgb(30,81,212)"/>
<path d="M6 24h2v2h-2v-2z" fill="rgb(100,0,189)"/>
<path d="M8 24h2v2h-2v-2z" fill="rgb(198,127,250)"/>
<path d="M10 24h2v2h-2v-2z" fill="rgb(100,0,189)"/>
<path d="M14 24h2v4h-2v-4z" fill="rgb(30,81,212)"/>
<path d="M16 24h2v2h-2v-2z" fill="rgb(25,3,73)"/>
<path d="M18 24h2v2h-2v-2z" fill="rgb(100,0,189)"/>
<path d="M20 24h2v2h-2v-2z" fill="rgb(89,0,169)"/>
<path d="M22 24h2v2h-2v-2z" fill="rgb(25,3,73)"/>
<path d="M2 26h2v2h-2v-2z" fill="rgb(255,177,18)"/>
<path d="M6 26h2v2h-2v-2z" fill="rgb(101,53,136)"/>
<path d="M8 26h2v2h-2v-2z" fill="rgb(89,0,169)"/>
<path d="M10 26h2v2h-2v-2z" fill="rgb(101,53,136)"/>
<path d="M16 26h2v2h-2v-2z" fill="rgb(92,60,1)"/>
<path d="M18 26h2v2h-2v-2z" fill="rgb(202,132,0)"/>
<path d="M20 26h2v2h-2v-2z" fill="rgb(255,177,18)"/>
<path d="M22 26h2v2h-2v-2z" fill="rgb(92,60,1)"/>
<path d="M0 28h2v6h-2v-6z" fill="rgb(50,10,2)"/>
<path d="M2 28h2v6h-2v-6z" fill="rgb(167,65,33)"/>
<path d="M6 28h2v2h-2v-2z" fill="rgb(57,19,130)"/>
<path d="M8 28h2v2h-2v-2z" fill="rgb(159,86,212)"/>
<path d="M10 28h2v2h-2v-2z" fill="rgb(57,19,130)"/>
<path d="M14 28h2v6h-2v-6z" fill="rgb(50,10,2)"/>
<path d="M16 28h2v6h-2v-6z" fill="rgb(167,65,33)"/>
<path d="M18 28h4v2h-4v-2z" fill="rgb(131,60,36)"/>
<path d="M22 28h2v6h-2v-6z" fill="rgb(50,10,2)"/>
<path d="M4 30h2v4h-2v-4z" fill="rgb(19,59,159)"/>
<path d="M6 30h2v8h-2v-8z" fill="rgb(25,3,73)"/>
<path d="M8 30h2v2h-2v-2z" fill="rgb(101,53,136)"/>
<path d="M10 30h2v8h-2v-8z" fill="rgb(25,3,73)"/>
<path d="M12 30h2v2h-2v-2z" fill="rgb(30,81,212)"/>
<path d="M18 30h4v4h-4v-4z" fill="rgb(194,105,71)"/>
<path d="M8 32h2v2h-2v-2z" fill="rgb(57,19,130)"/>
<path d="M12 32h2v2h-2v-2z" fill="rgb(55,109,252)"/>
<path d="M0 34h2v12h-2v-12z" fill="rgb(255,255,255)"/>
<path d="M2 34h2v2h-2v-2z" fill="rgb(92,60,1)"/>
<path d="M4 34h2v2h-2v-2z" fill="rgb(255,177,18)"/>
<path d="M8 34h2v2h-2v-2z" fill="rgb(101,53,136)"/>
<path d="M12 34h2v2h-2v-2z" fill="rgb(255,177,18)"/>
<path d="M14 34h2v2h-2v-2z" fill="rgb(202,132,0)"/>
<path d="M16 34h6v2h-6v-2z" fill="rgb(50,10,2)"/>
<path d="M22 34h2v12h-2v-8h-2v-2h2v-2z" fill="rgb(255,255,255)"/>
<path d="M2 36h2v4h-2v-4z" fill="rgb(3,25,87)"/>
<path d="M4 36h2v2h-2v-2z" fill="rgb(91,199,255)"/>
<path d="M8 36h2v2h-2v-2z" fill="rgb(57,19,130)"/>
<path d="M12 36h2v2h-2v-2z" fill="rgb(55,109,252)"/>
<path d="M14 36h2v2h-2v-2z" fill="rgb(91,199,255)"/>
<path d="M16 36h2v2h-2v-2z" fill="rgb(0,135,207)"/>
<path d="M18 36h2v2h-2v-2z" fill="rgb(3,25,87)"/>
<path d="M4 38h2v2h-2v-2z" fill="rgb(255,177,18)"/>
<path d="M6 38h2v2h-2v-2z" fill="rgb(0,135,207)"/>
<path d="M8 38h2v2h-2v-2z" fill="rgb(25,3,73)"/>
<path d="M10 38h2v2h-2v-2z" fill="rgb(30,81,212)"/>
<path d="M12 38h2v2h-2v-2z" fill="rgb(255,177,18)"/>
<path d="M14 38h2v2h-2v-2z" fill="rgb(55,109,252)"/>
<path d="M16 38h2v2h-2v-2z" fill="rgb(91,199,255)"/>
<path d="M18 38h2v2h-2v-2z" fill="rgb(0,135,207)"/>
<path d="M20 38h2v8h-6v-2h4v-6z" fill="rgb(3,25,87)"/>
<path d="M2 40h2v2h-2v-2z" fill="rgb(92,60,1)"/>
<path d="M4 40h2v2h-2v-2z" fill="rgb(0,135,207)"/>
<path d="M6 40h2v4h-2v-4z" fill="rgb(19,59,159)"/>
<path d="M8 40h2v4h4v2h-12v-4h2v2h4v-4z" fill="rgb(3,25,87)"/>
<path d="M10 40h2v4h-2v-4z" fill="rgb(19,59,159)"/>
<path d="M12 40h2v4h-2v-4z" fill="rgb(30,81,212)"/>
<path d="M14 40h2v2h-2v-2z" fill="rgb(255,177,18)"/>
<path d="M16 40h2v4h-2v-4z" fill="rgb(55,109,252)"/>
<path d="M18 40h2v4h-2v-4z" fill="rgb(91,199,255)"/>
<path d="M4 42h2v2h-2v-2z" fill="rgb(30,81,212)"/>
<path d="M14 42h2v2h-2v-2z" fill="rgb(202,132,0)"/>
<path d="M14 44h2v2h-2v-2z" fill="rgb(92,60,1)"/>
</svg>