<?xml version="1.0" encoding="utf-8"?>
<!-- generated at drububu.com  -->
<!DOCTYPE svg PUBLIC "-//W3C//DTD SVG 1.1//EN" "http://www.w3.org/Graphics/SVG/1.1/DTD/svg11.dtd">
<svg version="1.1" preserveAspectRatio="xMinYMin meet" xmlns="http://www.w3.org/2000/svg" xmlns:xlink="http://www.w3.org/1999/xlink" x="0px" y="0px" width="24px" height="42px" viewBox="0 0 24 42">
<path d="M0 0h8v2h-2v2h-2v6h-2v2h-2v-12z" fill="rgb(255,255,255)"/>
<path d="M8 0h10v2h-10v-2z" fill="rgb(17,30,37)"/>
<path d="M18 0h6v16h-2v-2h-2v-4h2v-6h-2v-2h-2v-2z" fill="rgb(255,255,255)"/>
<path d="M6 2h2v2h-2v-2z" fill="rgb(17,30,37)"/>
<path d="M8 2h2v2h-2v-2z" fill="rgb(90,155,166)"/>
<path d="M10 2h4v2h-4v-2z" fill="rgb(141,180,190)"/>
<path d="M14 2h2v2h-2v-2z" fill="rgb(116,168,178)"/>
<path d="M16 2h2v2h-2v-2z" fill="rgb(90,155,166)"/>
<path d="M18 2h2v2h-2v-2z" fill="rgb(17,30,37)"/>
<path d="M4 4h2v6h-2v-6z" fill="rgb(17,30,37)"/>
<path d="M6 4h2v2h-2v-2z" fill="rgb(90,155,166)"/>
<path d="M8 4h2v2h-2v-2z" fill="rgb(141,180,190)"/>
<path d="M10 4h2v2h-2v-2z" fill="rgb(116,168,178)"/>
<path d="M12 4h4v4h-2v-2h-2v-2z" fill="rgb(90,155,166)"/>
<path d="M16 4h2v2h-2v-2z" fill="rgb(17,30,37)"/>
<path d="M18 4h2v2h-2v-2z" fill="rgb(116,168,178)"/>
<path d="M20 4h2v4h-2v-4z" fill="rgb(17,30,37)"/>
<path d="M6 6h8v6h-2v-4h-4v4h-2v-6z" fill="rgb(48,62,71)"/>
<path d="M16 6h2v2h-2v-2z" fill="rgb(73,122,133)"/>
<path d="M18 6h2v2h-2v-2z" fill="rgb(90,155,166)"/>
<path d="M8 8h2v2h-2v-2z" fill="rgb(81,63,45)"/>
<path d="M10 8h2v2h-2v-2z" fill="rgb(239,228,124)"/>
<path d="M14 8h2v2h-2v-2z" fill="rgb(66,70,82)"/>
<path d="M16 8h2v2h-2v-2z" fill="rgb(77,79,92)"/>
<path d="M18 8h2v2h-2v-2z" fill="rgb(66,70,82)"/>
<path d="M20 8h2v2h-2v-2z" fill="rgb(46,53,62)"/>
<path d="M2 10h2v2h-2v-2z" fill="rgb(17,30,37)"/>
<path d="M4 10h2v2h-2v-2z" fill="rgb(141,180,190)"/>
<path d="M8 10h4v2h-4v-2z" fill="rgb(73,122,133)"/>
<path d="M14 10h2v2h-2v-2z" fill="rgb(81,139,150)"/>
<path d="M16 10h2v2h-2v-2z" fill="rgb(73,122,133)"/>
<path d="M18 10h2v2h-2v-2z" fill="rgb(17,30,37)"/>
<path d="M0 12h2v2h-2v-2z" fill="rgb(17,30,37)"/>
<path d="M2 12h2v2h-2v-2z" fill="rgb(141,180,190)"/>
<path d="M4 12h2v2h-2v-2z" fill="rgb(90,155,166)"/>
<path d="M6 12h2v2h-2v-2z" fill="rgb(81,139,150)"/>
<path d="M8 12h4v2h-4v-2z" fill="rgb(48,62,71)"/>
<path d="M12 12h2v2h-2v-2z" fill="rgb(81,139,150)"/>
<path d="M14 12h2v2h-2v-2z" fill="rgb(73,122,133)"/>
<path d="M16 12h2v2h-2v-2z" fill="rgb(17,30,37)"/>
<path d="M18 12h2v2h-2v-2z" fill="rgb(50,41,51)"/>
<path d="M0 14h2v2h2v2h-2v6h-2v-10z" fill="rgb(255,255,255)"/>
<path d="M2 14h4v2h-4v-2z" fill="rgb(17,30,37)"/>
<path d="M6 14h2v2h-2v-2z" fill="rgb(73,122,133)"/>
<path d="M8 14h4v2h-4v-2z" fill="rgb(81,139,150)"/>
<path d="M12 14h2v2h-2v-2z" fill="rgb(73,122,133)"/>
<path d="M14 14h2v2h-2v-2z" fill="rgb(17,30,37)"/>
<path d="M16 14h2v2h-2v-2z" fill="rgb(223,220,223)"/>
<path d="M18 14h2v8h-2v-4h-2v-2h2v-2z" fill="rgb(199,191,199)"/>
<path d="M20 14h2v2h-2v-2z" fill="rgb(50,41,51)"/>
<path d="M4 16h2v2h-2v-2z" fill="rgb(141,122,141)"/>
<path d="M6 16h8v2h-8v-2z" fill="rgb(17,30,37)"/>
<path d="M14 16h2v2h-2v-2z" fill="rgb(223,220,223)"/>
<path d="M20 16h2v6h-2v-6z" fill="rgb(141,122,141)"/>
<path d="M22 16h2v6h-2v-6z" fill="rgb(50,41,51)"/>
<path d="M2 18h2v6h-2v-6z" fill="rgb(50,41,51)"/>
<path d="M4 18h2v2h-2v-2z" fill="rgb(199,191,199)"/>
<path d="M6 18h2v4h-2v-4z" fill="rgb(223,220,223)"/>
<path d="M8 18h2v2h-2v-2z" fill="rgb(223,0,0)"/>
<path d="M10 18h4v2h-2v2h-2v-4z" fill="rgb(223,220,223)"/>
<path d="M14 18h2v2h-2v-2z" fill="rgb(199,191,199)"/>
<path d="M16 18h2v4h-2v-4z" fill="rgb(50,41,51)"/>
<path d="M4 20h2v2h-2v-2z" fill="rgb(141,122,141)"/>
<path d="M8 20h2v2h-2v-2z" fill="rgb(133,0,0)"/>
<path d="M12 20h2v6h-2v2h2v2h-4v-8h2v-2z" fill="rgb(199,191,199)"/>
<path d="M14 20h2v4h-2v-4z" fill="rgb(174,164,174)"/>
<path d="M4 22h2v2h-2v-2z" fill="rgb(103,89,103)"/>
<path d="M6 22h2v8h-2v-8z" fill="rgb(199,191,199)"/>
<path d="M8 22h2v4h-2v-4z" fill="rgb(223,0,0)"/>
<path d="M16 22h2v2h-2v-2z" fill="rgb(17,30,37)"/>
<path d="M18 22h2v2h-2v-2z" fill="rgb(90,155,166)"/>
<path d="M20 22h2v6h-2v-6z" fill="rgb(73,122,133)"/>
<path d="M22 22h2v8h-2v-8z" fill="rgb(17,30,37)"/>
<path d="M0 24h2v6h-2v-6z" fill="rgb(17,30,37)"/>
<path d="M2 24h2v6h-2v-6z" fill="rgb(141,180,190)"/>
<path d="M4 24h2v8h2v2h-4v-10z" fill="rgb(50,41,51)"/>
<path d="M14 24h2v6h-2v-6z" fill="rgb(17,30,37)"/>
<path d="M16 24h4v2h-2v2h-2v-4z" fill="rgb(141,180,190)"/>
<path d="M8 26h2v6h-2v-6z" fill="rgb(50,41,51)"/>
<path d="M12 26h2v2h-2v-2z" fill="rgb(174,164,174)"/>
<path d="M18 26h2v2h2v2h-6v-2h2v-2z" fill="rgb(90,155,166)"/>
<path d="M0 30h2v2h2v6h-2v4h-2v-12z" fill="rgb(255,255,255)"/>
<path d="M2 30h2v2h-2v-2z" fill="rgb(17,30,37)"/>
<path d="M6 30h2v2h-2v-2z" fill="rgb(174,164,174)"/>
<path d="M10 30h4v2h-4v-2z" fill="rgb(174,164,174)"/>
<path d="M14 30h2v2h-2v-2z" fill="rgb(141,122,141)"/>
<path d="M16 30h6v2h-6v-2z" fill="rgb(17,30,37)"/>
<path d="M22 30h2v12h-4v-8h-2v-2h4v-2z" fill="rgb(255,255,255)"/>
<path d="M8 32h2v2h-2v-2z" fill="rgb(73,122,133)"/>
<path d="M10 32h8v2h-8v-2z" fill="rgb(50,41,51)"/>
<path d="M4 34h2v2h-2v-2z" fill="rgb(17,30,37)"/>
<path d="M6 34h2v2h-2v-2z" fill="rgb(90,155,166)"/>
<path d="M8 34h2v2h-2v-2z" fill="rgb(17,30,37)"/>
<path d="M10 34h4v2h-4v-2z" fill="rgb(90,155,166)"/>
<path d="M14 34h2v2h-2v-2z" fill="rgb(73,122,133)"/>
<path d="M16 34h2v2h-2v-2z" fill="rgb(81,63,54)"/>
<path d="M18 34h2v8h-18v-4h2v2h2v-2h2v2h10v-6z" fill="rgb(42,30,25)"/>
<path d="M4 36h2v2h-2v-2z" fill="rgb(42,30,25)"/>
<path d="M6 36h2v2h-2v-2z" fill="rgb(81,63,54)"/>
<path d="M8 36h2v2h-2v-2z" fill="rgb(42,30,25)"/>
<path d="M10 36h6v2h-6v-2z" fill="rgb(81,63,54)"/>
<path d="M16 36h2v4h-4v-2h2v-2z" fill="rgb(133,97,90)"/>
<path d="M4 38h2v2h-2v-2z" fill="rgb(174,139,133)"/>
<path d="M8 38h2v2h-2v-2z" fill="rgb(174,139,133)"/>
<path d="M10 38h4v2h-4v-2z" fill="rgb(149,114,107)"/>
</svg>