<?xml version="1.0" encoding="utf-8"?>
<!-- generated at drububu.com  -->
<!DOCTYPE svg PUBLIC "-//W3C//DTD SVG 1.1//EN" "http://www.w3.org/Graphics/SVG/1.1/DTD/svg11.dtd">
<svg version="1.1" preserveAspectRatio="xMinYMin meet" xmlns="http://www.w3.org/2000/svg" xmlns:xlink="http://www.w3.org/1999/xlink" x="0px" y="0px" width="32px" height="44px" viewBox="0 0 32 44">
<path d="M0 0h6v2h-4v2h-2v-4z" fill="rgb(255,255,255)"/>
<path d="M6 0h10v2h-10v-2z" fill="rgb(50,51,54)"/>
<path d="M16 0h16v10h-2v-2h-8v2h-2v-6h-2v-2h-2v-2z" fill="rgb(255,255,255)"/>
<path d="M2 2h4v2h-4v-2z" fill="rgb(50,51,54)"/>
<path d="M6 2h10v2h2v2h-10v-2h-2v-2z" fill="rgb(170,171,171)"/>
<path d="M16 2h2v2h-2v-2z" fill="rgb(50,51,54)"/>
<path d="M0 4h2v2h16v-2h2v4h-20v-4z" fill="rgb(50,51,54)"/>
<path d="M2 4h6v2h-6v-2z" fill="rgb(255,255,255)"/>
<path d="M0 8h4v6h-2v2h2v2h-2v8h-2v-18z" fill="rgb(255,255,255)"/>
<path d="M4 8h2v6h-2v-6z" fill="rgb(32,11,3)"/>
<path d="M6 8h2v2h-2v-2z" fill="rgb(65,37,26)"/>
<path d="M8 8h4v2h-4v-2z" fill="rgb(123,77,64)"/>
<path d="M12 8h2v2h-2v-2z" fill="rgb(65,37,26)"/>
<path d="M14 8h2v2h-2v-2z" fill="rgb(34,22,16)"/>
<path d="M16 8h2v2h-2v-2z" fill="rgb(64,46,39)"/>
<path d="M18 8h2v6h-2v-6z" fill="rgb(17,8,5)"/>
<path d="M22 8h8v2h-8v-2z" fill="rgb(19,31,35)"/>
<path d="M6 10h2v6h4v2h-6v-8z" fill="rgb(123,77,64)"/>
<path d="M8 10h2v4h-2v-4z" fill="rgb(53,30,17)"/>
<path d="M10 10h2v4h-2v-4z" fill="rgb(247,247,247)"/>
<path d="M12 10h4v4h-2v2h-2v-6z" fill="rgb(123,77,64)"/>
<path d="M16 10h2v2h-2v-2z" fill="rgb(65,37,26)"/>
<path d="M20 10h2v4h-2v-4z" fill="rgb(19,31,35)"/>
<path d="M22 10h2v2h-2v-2z" fill="rgb(123,141,145)"/>
<path d="M24 10h4v2h-4v-2z" fill="rgb(73,87,92)"/>
<path d="M28 10h2v2h-2v-2z" fill="rgb(123,141,145)"/>
<path d="M30 10h2v2h-2v-2z" fill="rgb(19,31,35)"/>
<path d="M16 12h2v2h-2v-2z" fill="rgb(94,52,36)"/>
<path d="M22 12h2v2h-2v-2z" fill="rgb(73,87,92)"/>
<path d="M24 12h4v2h-4v-2z" fill="rgb(123,141,145)"/>
<path d="M28 12h2v2h-2v-2z" fill="rgb(173,183,184)"/>
<path d="M30 12h2v4h-2v-4z" fill="rgb(73,87,92)"/>
<path d="M2 14h2v2h-2v-2z" fill="rgb(32,11,3)"/>
<path d="M4 14h2v2h-2v-2z" fill="rgb(143,97,85)"/>
<path d="M8 14h4v2h-4v-2z" fill="rgb(164,118,106)"/>
<path d="M14 14h2v2h-2v-2z" fill="rgb(94,52,36)"/>
<path d="M16 14h2v2h-2v-2z" fill="rgb(17,8,5)"/>
<path d="M18 14h2v2h-2v-2z" fill="rgb(6,6,6)"/>
<path d="M20 14h2v2h-2v-2z" fill="rgb(73,87,92)"/>
<path d="M22 14h4v2h-4v-2z" fill="rgb(19,31,35)"/>
<path d="M26 14h2v2h-2v-2z" fill="rgb(173,183,184)"/>
<path d="M28 14h2v2h-2v-2z" fill="rgb(246,249,250)"/>
<path d="M4 16h2v2h-2v-2z" fill="rgb(32,11,3)"/>
<path d="M12 16h2v2h-2v-2z" fill="rgb(94,52,36)"/>
<path d="M14 16h2v2h-2v-2z" fill="rgb(32,11,3)"/>
<path d="M16 16h2v2h-2v-2z" fill="rgb(112,112,114)"/>
<path d="M18 16h2v4h-2v-4z" fill="rgb(31,31,31)"/>
<path d="M20 16h2v2h-2v-2z" fill="rgb(50,51,54)"/>
<path d="M22 16h4v2h4v-2h2v28h-12v-6h-2v-4h4v-2h2v-14h-2v-2z" fill="rgb(255,255,255)"/>
<path d="M26 16h4v2h-4v-2z" fill="rgb(73,87,92)"/>
<path d="M2 18h2v2h-2v-2z" fill="rgb(50,51,54)"/>
<path d="M4 18h2v2h-2v-2z" fill="rgb(208,208,208)"/>
<path d="M6 18h8v2h-8v-2z" fill="rgb(32,11,3)"/>
<path d="M14 18h2v2h-2v-2z" fill="rgb(56,79,25)"/>
<path d="M16 18h2v2h-2v-2z" fill="rgb(13,24,3)"/>
<path d="M20 18h2v2h-2v-2z" fill="rgb(170,171,171)"/>
<path d="M22 18h2v6h-2v-6z" fill="rgb(50,51,54)"/>
<path d="M2 20h2v2h-2v-2z" fill="rgb(13,24,3)"/>
<path d="M4 20h2v2h-2v-2z" fill="rgb(115,165,63)"/>
<path d="M6 20h2v2h-2v-2z" fill="rgb(208,208,208)"/>
<path d="M8 20h2v4h-2v-4z" fill="rgb(112,112,114)"/>
<path d="M10 20h2v2h-2v-2z" fill="rgb(208,208,208)"/>
<path d="M12 20h2v2h-2v-2z" fill="rgb(115,165,63)"/>
<path d="M14 20h2v2h-2v-2z" fill="rgb(112,112,114)"/>
<path d="M16 20h2v4h-2v-4z" fill="rgb(50,51,54)"/>
<path d="M18 20h2v2h-2v-2z" fill="rgb(170,171,171)"/>
<path d="M20 20h2v4h-4v-2h2v-2z" fill="rgb(255,255,255)"/>
<path d="M2 22h2v2h-2v-2z" fill="rgb(50,51,54)"/>
<path d="M4 22h2v2h-2v-2z" fill="rgb(208,208,208)"/>
<path d="M6 22h2v2h-2v-2z" fill="rgb(115,165,63)"/>
<path d="M10 22h2v2h-2v-2z" fill="rgb(115,165,63)"/>
<path d="M12 22h2v2h-2v-2z" fill="rgb(208,208,208)"/>
<path d="M14 22h2v2h-2v-2z" fill="rgb(56,79,25)"/>
<path d="M2 24h2v2h-2v-2z" fill="rgb(32,11,3)"/>
<path d="M4 24h2v2h-2v-2z" fill="rgb(115,165,63)"/>
<path d="M6 24h2v2h-2v-2z" fill="rgb(255,255,255)"/>
<path d="M8 24h2v2h-2v-2z" fill="rgb(115,165,63)"/>
<path d="M10 24h2v2h-2v-2z" fill="rgb(255,255,255)"/>
<path d="M12 24h2v2h-2v-2z" fill="rgb(115,165,63)"/>
<path d="M14 24h2v2h-2v-2z" fill="rgb(170,171,171)"/>
<path d="M16 24h2v2h-2v-2z" fill="rgb(25,39,8)"/>
<path d="M18 24h4v2h-4v-2z" fill="rgb(94,52,36)"/>
<path d="M22 24h2v2h-2v-2z" fill="rgb(32,11,3)"/>
<path d="M0 26h2v6h-2v-6z" fill="rgb(32,11,3)"/>
<path d="M2 26h2v6h-2v-6z" fill="rgb(94,52,36)"/>
<path d="M4 26h2v2h-2v-2z" fill="rgb(13,24,3)"/>
<path d="M6 26h2v2h-2v-2z" fill="rgb(81,116,42)"/>
<path d="M8 26h2v2h-2v-2z" fill="rgb(170,171,171)"/>
<path d="M10 26h2v2h-2v-2z" fill="rgb(81,116,42)"/>
<path d="M12 26h2v2h-2v-2z" fill="rgb(170,171,171)"/>
<path d="M14 26h2v6h-2v-6z" fill="rgb(32,11,3)"/>
<path d="M16 26h2v6h-2v-6z" fill="rgb(94,52,36)"/>
<path d="M18 26h2v2h-2v-2z" fill="rgb(115,165,63)"/>
<path d="M20 26h2v2h-2v-2z" fill="rgb(81,116,42)"/>
<path d="M22 26h2v2h-2v-2z" fill="rgb(25,39,8)"/>
<path d="M4 28h2v2h-2v-2z" fill="rgb(50,51,54)"/>
<path d="M6 28h2v2h-2v-2z" fill="rgb(170,171,171)"/>
<path d="M8 28h2v2h-2v-2z" fill="rgb(81,116,42)"/>
<path d="M10 28h2v2h-2v-2z" fill="rgb(170,171,171)"/>
<path d="M12 28h2v2h-2v-2z" fill="rgb(81,116,42)"/>
<path d="M18 28h4v4h-4v-4z" fill="rgb(123,77,64)"/>
<path d="M22 28h2v4h-2v-4z" fill="rgb(32,11,3)"/>
<path d="M4 30h2v2h-2v-2z" fill="rgb(13,24,3)"/>
<path d="M6 30h8v2h-8v-2z" fill="rgb(25,39,8)"/>
<path d="M0 32h2v2h2v6h-2v4h-2v-12z" fill="rgb(255,255,255)"/>
<path d="M2 32h2v2h-2v-2z" fill="rgb(32,11,3)"/>
<path d="M4 32h2v4h2v-4h2v4h6v-2h2v4h-14v-6z" fill="rgb(6,6,6)"/>
<path d="M6 32h2v4h-2v-4z" fill="rgb(58,59,58)"/>
<path d="M10 32h2v4h-2v-4z" fill="rgb(58,59,58)"/>
<path d="M12 32h4v4h-4v-4z" fill="rgb(31,31,31)"/>
<path d="M16 32h6v2h-6v-2z" fill="rgb(32,11,3)"/>
<path d="M4 38h2v2h-2v-2z" fill="rgb(50,51,54)"/>
<path d="M6 38h2v2h-2v-2z" fill="rgb(208,208,208)"/>
<path d="M8 38h2v2h-2v-2z" fill="rgb(50,51,54)"/>
<path d="M10 38h8v2h-8v-2z" fill="rgb(208,208,208)"/>
<path d="M18 38h2v2h-2v-2z" fill="rgb(50,51,54)"/>
<path d="M2 40h2v2h2v-2h2v2h10v-2h2v4h-18v-4z" fill="rgb(6,6,6)"/>
<path d="M4 40h2v2h-2v-2z" fill="rgb(31,31,31)"/>
<path d="M8 40h10v2h-10v-2z" fill="rgb(31,31,31)"/>
</svg>