<?xml version="1.0" encoding="utf-8"?>
<!-- generated at drububu.com  -->
<!DOCTYPE svg PUBLIC "-//W3C//DTD SVG 1.1//EN" "http://www.w3.org/Graphics/SVG/1.1/DTD/svg11.dtd">
<svg version="1.1" preserveAspectRatio="xMinYMin meet" xmlns="http://www.w3.org/2000/svg" xmlns:xlink="http://www.w3.org/1999/xlink" x="0px" y="0px" width="26px" height="46px" viewBox="0 0 26 46">
<path d="M0 0h6v2h-4v2h-2v-4z" fill="rgb(255,255,255)"/>
<path d="M6 0h4v2h-4v-2z" fill="rgb(50,23,1)"/>
<path d="M10 0h2v2h-2v-2z" fill="rgb(255,255,255)"/>
<path d="M12 0h4v2h-4v-2z" fill="rgb(50,23,1)"/>
<path d="M16 0h10v20h-2v-2h-2v-6h2v-6h-2v-2h-2v-2h-4v-2z" fill="rgb(255,255,255)"/>
<path d="M2 2h4v2h-4v-2z" fill="rgb(50,23,1)"/>
<path d="M6 2h2v2h-2v-2z" fill="rgb(218,140,43)"/>
<path d="M8 2h2v2h-2v-2z" fill="rgb(197,121,25)"/>
<path d="M10 2h2v2h-2v-2z" fill="rgb(50,23,1)"/>
<path d="M12 2h2v2h-2v-2z" fill="rgb(218,140,43)"/>
<path d="M14 2h2v2h-2v-2z" fill="rgb(78,40,3)"/>
<path d="M16 2h4v2h-4v-2z" fill="rgb(50,23,1)"/>
<path d="M0 4h2v2h-2v-2z" fill="rgb(50,23,1)"/>
<path d="M2 4h2v2h-2v-2z" fill="rgb(176,101,6)"/>
<path d="M4 4h2v2h-2v-2z" fill="rgb(110,60,6)"/>
<path d="M6 4h2v2h-2v-2z" fill="rgb(197,121,25)"/>
<path d="M8 4h6v2h-6v-2z" fill="rgb(176,101,6)"/>
<path d="M14 4h2v2h-2v-2z" fill="rgb(110,60,6)"/>
<path d="M16 4h2v2h-2v-2z" fill="rgb(176,101,6)"/>
<path d="M18 4h2v4h-2v-4z" fill="rgb(143,80,6)"/>
<path d="M20 4h2v2h-2v-2z" fill="rgb(50,23,1)"/>
<path d="M0 6h2v2h-2v-2z" fill="rgb(255,255,255)"/>
<path d="M2 6h2v2h-2v-2z" fill="rgb(50,23,1)"/>
<path d="M4 6h2v2h-2v-2z" fill="rgb(176,101,6)"/>
<path d="M6 6h2v2h-2v-2z" fill="rgb(110,60,6)"/>
<path d="M8 6h2v2h-2v-2z" fill="rgb(197,121,25)"/>
<path d="M10 6h2v4h-2v-4z" fill="rgb(110,60,6)"/>
<path d="M12 6h2v2h-2v-2z" fill="rgb(218,140,43)"/>
<path d="M14 6h2v2h-2v-2z" fill="rgb(176,101,6)"/>
<path d="M16 6h2v2h-2v-2z" fill="rgb(110,60,6)"/>
<path d="M20 6h2v2h-2v-2z" fill="rgb(110,60,6)"/>
<path d="M22 6h2v6h-2v-6z" fill="rgb(50,23,1)"/>
<path d="M0 8h2v4h-2v-4z" fill="rgb(50,23,1)"/>
<path d="M2 8h2v2h-2v-2z" fill="rgb(218,140,43)"/>
<path d="M4 8h2v2h-2v-2z" fill="rgb(110,60,6)"/>
<path d="M6 8h2v2h-2v-2z" fill="rgb(50,23,1)"/>
<path d="M8 8h2v2h-2v-2z" fill="rgb(176,101,6)"/>
<path d="M12 8h2v4h-2v-4z" fill="rgb(176,101,6)"/>
<path d="M14 8h2v2h-2v-2z" fill="rgb(110,60,6)"/>
<path d="M16 8h2v2h-2v-2z" fill="rgb(143,80,6)"/>
<path d="M18 8h2v4h-2v-4z" fill="rgb(176,101,6)"/>
<path d="M20 8h2v2h-2v-2z" fill="rgb(143,80,6)"/>
<path d="M2 10h2v2h-2v-2z" fill="rgb(110,60,6)"/>
<path d="M4 10h2v2h-2v-2z" fill="rgb(50,23,1)"/>
<path d="M6 10h2v2h-2v-2z" fill="rgb(110,60,6)"/>
<path d="M8 10h4v2h-4v-2z" fill="rgb(50,23,1)"/>
<path d="M14 10h2v2h-2v-2z" fill="rgb(78,40,3)"/>
<path d="M16 10h2v2h-2v-2z" fill="rgb(110,60,6)"/>
<path d="M20 10h2v2h-2v-2z" fill="rgb(110,60,6)"/>
<path d="M0 12h2v2h2v-2h2v4h-2v2h2v2h-2v8h-2v6h2v2h2v6h-2v4h-4v-34z" fill="rgb(255,255,255)"/>
<path d="M2 12h2v2h-2v-2z" fill="rgb(50,23,1)"/>
<path d="M6 12h2v2h-2v-2z" fill="rgb(50,23,1)"/>
<path d="M8 12h2v4h2v2h2v2h-6v-8z" fill="rgb(239,133,90)"/>
<path d="M10 12h2v4h-2v-4z" fill="rgb(81,62,44)"/>
<path d="M12 12h2v4h-2v-4z" fill="rgb(247,247,247)"/>
<path d="M14 12h2v2h-2v-2z" fill="rgb(50,23,1)"/>
<path d="M16 12h2v4h-2v2h-2v-4h2v-2z" fill="rgb(239,133,90)"/>
<path d="M18 12h2v2h-2v-2z" fill="rgb(143,80,6)"/>
<path d="M20 12h2v4h-2v-4z" fill="rgb(50,23,1)"/>
<path d="M6 14h2v2h-2v-2z" fill="rgb(52,16,4)"/>
<path d="M18 14h2v2h-2v-2z" fill="rgb(110,60,6)"/>
<path d="M4 16h2v2h-2v-2z" fill="rgb(52,16,4)"/>
<path d="M6 16h2v2h-2v-2z" fill="rgb(255,175,141)"/>
<path d="M12 16h2v2h-2v-2z" fill="rgb(247,154,116)"/>
<path d="M16 16h2v2h-2v-2z" fill="rgb(215,90,45)"/>
<path d="M18 16h2v2h-2v-2z" fill="rgb(50,23,1)"/>
<path d="M20 16h2v2h-2v-2z" fill="rgb(46,46,32)"/>
<path d="M6 18h2v2h-2v-2z" fill="rgb(52,16,4)"/>
<path d="M14 18h2v2h-2v-2z" fill="rgb(215,90,45)"/>
<path d="M16 18h2v2h-2v-2z" fill="rgb(52,16,4)"/>
<path d="M18 18h4v2h-2v2h-2v4h-2v-6h2v-2z" fill="rgb(169,168,126)"/>
<path d="M22 18h2v2h-2v-2z" fill="rgb(46,46,32)"/>
<path d="M4 20h2v6h-2v-6z" fill="rgb(46,46,32)"/>
<path d="M6 20h2v2h-2v-2z" fill="rgb(199,197,171)"/>
<path d="M8 20h8v2h-8v-2z" fill="rgb(52,16,4)"/>
<path d="M20 20h2v8h-2v-8z" fill="rgb(199,197,171)"/>
<path d="M22 20h2v8h-2v-8z" fill="rgb(169,168,126)"/>
<path d="M24 20h2v8h-2v-8z" fill="rgb(46,46,32)"/>
<path d="M6 22h2v2h-2v-2z" fill="rgb(169,168,126)"/>
<path d="M8 22h2v2h-2v-2z" fill="rgb(125,125,97)"/>
<path d="M10 22h2v2h-2v-2z" fill="rgb(104,104,83)"/>
<path d="M12 22h4v6h-2v-4h-2v-2z" fill="rgb(140,140,107)"/>
<path d="M18 22h2v6h-2v-6z" fill="rgb(63,63,46)"/>
<path d="M6 24h2v2h-2v-2z" fill="rgb(104,104,83)"/>
<path d="M8 24h2v4h-2v-4z" fill="rgb(169,168,126)"/>
<path d="M10 24h2v2h-2v-2z" fill="rgb(118,118,93)"/>
<path d="M12 24h2v4h-2v-4z" fill="rgb(169,168,126)"/>
<path d="M4 26h2v2h-2v-2z" fill="rgb(63,63,46)"/>
<path d="M6 26h2v8h-2v-8z" fill="rgb(46,46,32)"/>
<path d="M10 26h2v2h-2v-2z" fill="rgb(134,134,103)"/>
<path d="M16 26h2v2h-2v-2z" fill="rgb(104,104,83)"/>
<path d="M2 28h2v6h-2v-6z" fill="rgb(52,16,4)"/>
<path d="M4 28h2v6h-2v-6z" fill="rgb(215,90,45)"/>
<path d="M8 28h2v2h-2v-2z" fill="rgb(149,148,114)"/>
<path d="M10 28h2v2h-2v-2z" fill="rgb(162,162,122)"/>
<path d="M12 28h2v2h-2v-2z" fill="rgb(149,148,114)"/>
<path d="M14 28h2v4h-2v-4z" fill="rgb(104,104,83)"/>
<path d="M16 28h2v6h-2v-6z" fill="rgb(52,16,4)"/>
<path d="M18 28h2v6h-2v-6z" fill="rgb(215,90,45)"/>
<path d="M20 28h4v2h-4v-2z" fill="rgb(155,74,45)"/>
<path d="M24 28h2v6h-2v-6z" fill="rgb(52,16,4)"/>
<path d="M8 30h2v2h-2v-2z" fill="rgb(166,166,136)"/>
<path d="M10 30h2v2h-2v-2z" fill="rgb(107,107,85)"/>
<path d="M12 30h2v2h-2v-2z" fill="rgb(166,166,136)"/>
<path d="M20 30h4v4h-4v-4z" fill="rgb(239,133,90)"/>
<path d="M8 32h2v2h-2v-2z" fill="rgb(198,196,170)"/>
<path d="M10 32h2v2h-2v-2z" fill="rgb(125,125,97)"/>
<path d="M12 32h2v2h-2v-2z" fill="rgb(198,196,170)"/>
<path d="M14 32h2v2h-2v-2z" fill="rgb(140,140,107)"/>
<path d="M4 34h2v2h-2v-2z" fill="rgb(52,16,4)"/>
<path d="M6 34h2v6h-2v-6z" fill="rgb(30,33,39)"/>
<path d="M8 34h2v4h-2v-4z" fill="rgb(128,160,214)"/>
<path d="M10 34h2v6h-2v-6z" fill="rgb(30,33,39)"/>
<path d="M12 34h2v4h-2v-4z" fill="rgb(128,160,214)"/>
<path d="M14 34h2v4h2v4h-4v-2h-2v-2h2v-4z" fill="rgb(95,118,152)"/>
<path d="M16 34h2v4h-2v-4z" fill="rgb(77,83,92)"/>
<path d="M18 34h6v2h-6v-2z" fill="rgb(52,16,4)"/>
<path d="M24 34h2v12h-4v-8h-2v-2h4v-2z" fill="rgb(255,255,255)"/>
<path d="M18 36h2v2h-2v-2z" fill="rgb(30,33,39)"/>
<path d="M8 38h2v2h-2v-2z" fill="rgb(95,118,152)"/>
<path d="M18 38h2v6h-4v-2h2v-4z" fill="rgb(77,83,92)"/>
<path d="M20 38h2v8h-6v-2h4v-6z" fill="rgb(30,33,39)"/>
<path d="M6 40h2v2h-2v-2z" fill="rgb(26,24,19)"/>
<path d="M8 40h2v2h-2v-2z" fill="rgb(61,59,46)"/>
<path d="M10 40h2v2h-2v-2z" fill="rgb(26,24,19)"/>
<path d="M12 40h2v2h2v2h-4v-4z" fill="rgb(61,59,46)"/>
<path d="M4 42h2v2h2v-2h2v2h6v2h-12v-4z" fill="rgb(26,24,19)"/>
<path d="M6 42h2v2h-2v-2z" fill="rgb(96,93,73)"/>
<path d="M10 42h2v2h-2v-2z" fill="rgb(96,93,73)"/>
</svg>