<?xml version="1.0" encoding="utf-8"?>
<!-- generated at drububu.com  -->
<!DOCTYPE svg PUBLIC "-//W3C//DTD SVG 1.1//EN" "http://www.w3.org/Graphics/SVG/1.1/DTD/svg11.dtd">
<svg version="1.1" preserveAspectRatio="xMinYMin meet" xmlns="http://www.w3.org/2000/svg" xmlns:xlink="http://www.w3.org/1999/xlink" x="0px" y="0px" width="34px" height="44px" viewBox="0 0 34 44">
<path d="M0 0h6v2h-2v2h-2v8h2v2h-2v2h2v10h-2v4h2v2h-2v2h-2v-34z" fill="rgb(255,255,255)"/>
<path d="M6 0h10v2h-10v-2z" fill="rgb(97,0,22)"/>
<path d="M16 0h18v10h-2v-2h-6v2h-2v-4h-2v-2h-2v-2h-4v-2z" fill="rgb(255,255,255)"/>
<path d="M4 2h2v2h-2v-2z" fill="rgb(97,0,22)"/>
<path d="M6 2h2v2h-2v-2z" fill="rgb(250,87,8)"/>
<path d="M8 2h2v2h-2v-2z" fill="rgb(255,147,3)"/>
<path d="M10 2h2v2h-2v-2z" fill="rgb(198,44,0)"/>
<path d="M12 2h2v2h-2v-2z" fill="rgb(255,153,3)"/>
<path d="M14 2h2v2h-2v-2z" fill="rgb(148,17,8)"/>
<path d="M16 2h2v2h-2v-2z" fill="rgb(97,0,22)"/>
<path d="M18 2h2v2h-2v-2z" fill="rgb(242,65,65)"/>
<path d="M2 4h2v8h-2v-8z" fill="rgb(97,0,22)"/>
<path d="M4 4h2v2h-2v-2z" fill="rgb(255,147,3)"/>
<path d="M6 4h2v2h-2v-2z" fill="rgb(247,84,8)"/>
<path d="M8 4h2v2h-2v-2z" fill="rgb(192,39,14)"/>
<path d="M10 4h2v2h-2v-2z" fill="rgb(255,149,3)"/>
<path d="M12 4h2v2h-2v-2z" fill="rgb(208,61,0)"/>
<path d="M14 4h2v2h-2v-2z" fill="rgb(255,153,3)"/>
<path d="M16 4h2v2h-2v-2z" fill="rgb(228,95,3)"/>
<path d="M18 4h4v2h-2v2h-2v-4z" fill="rgb(97,0,22)"/>
<path d="M4 6h2v2h-2v-2z" fill="rgb(247,84,8)"/>
<path d="M6 6h2v2h-2v-2z" fill="rgb(210,81,58)"/>
<path d="M8 6h2v2h-2v-2z" fill="rgb(198,43,0)"/>
<path d="M10 6h2v2h-2v-2z" fill="rgb(210,81,60)"/>
<path d="M12 6h2v2h-2v-2z" fill="rgb(198,44,0)"/>
<path d="M14 6h2v2h-2v-2z" fill="rgb(228,95,3)"/>
<path d="M16 6h2v2h-2v-2z" fill="rgb(255,151,3)"/>
<path d="M20 6h2v4h-2v-4z" fill="rgb(255,153,3)"/>
<path d="M22 6h2v6h-2v-6z" fill="rgb(97,0,22)"/>
<path d="M4 8h2v2h-2v-2z" fill="rgb(192,37,13)"/>
<path d="M6 8h2v6h2v2h2v2h-6v-10z" fill="rgb(239,133,90)"/>
<path d="M8 8h4v2h-4v-2z" fill="rgb(97,0,22)"/>
<path d="M12 8h2v2h-2v-2z" fill="rgb(210,81,60)"/>
<path d="M14 8h2v2h-2v-2z" fill="rgb(198,43,0)"/>
<path d="M16 8h2v2h-2v-2z" fill="rgb(255,106,1)"/>
<path d="M18 8h2v2h-2v-2z" fill="rgb(198,44,0)"/>
<path d="M26 8h6v2h-6v-2z" fill="rgb(53,53,53)"/>
<path d="M4 10h2v2h-2v-2z" fill="rgb(198,43,0)"/>
<path d="M8 10h2v2h-2v-2z" fill="rgb(74,2,133)"/>
<path d="M10 10h2v4h-2v-4z" fill="rgb(247,247,247)"/>
<path d="M12 10h2v2h-2v-2z" fill="rgb(192,37,13)"/>
<path d="M14 10h2v2h-2v-2z" fill="rgb(228,95,3)"/>
<path d="M16 10h2v2h-2v-2z" fill="rgb(198,44,0)"/>
<path d="M18 10h2v4h-2v-4z" fill="rgb(148,17,8)"/>
<path d="M20 10h2v2h-2v-2z" fill="rgb(228,95,3)"/>
<path d="M24 10h2v2h-2v-2z" fill="rgb(53,53,53)"/>
<path d="M26 10h2v2h-2v-2z" fill="rgb(174,175,174)"/>
<path d="M28 10h4v4h-2v-2h-2v-2z" fill="rgb(116,116,116)"/>
<path d="M32 10h2v6h-4v-2h2v-4z" fill="rgb(53,53,53)"/>
<path d="M4 12h2v2h-2v-2z" fill="rgb(70,24,8)"/>
<path d="M8 12h2v2h-2v-2z" fill="rgb(0,140,219)"/>
<path d="M12 12h2v2h-2v-2z" fill="rgb(183,14,0)"/>
<path d="M14 12h2v2h-2v-2z" fill="rgb(255,175,141)"/>
<path d="M16 12h2v2h-2v-2z" fill="rgb(97,0,22)"/>
<path d="M20 12h2v2h-2v-2z" fill="rgb(97,0,22)"/>
<path d="M22 12h2v2h-2v-2z" fill="rgb(53,53,53)"/>
<path d="M24 12h2v2h-2v-2z" fill="rgb(174,175,174)"/>
<path d="M26 12h2v2h-2v-2z" fill="rgb(116,116,116)"/>
<path d="M28 12h2v2h-2v-2z" fill="rgb(53,53,53)"/>
<path d="M2 14h2v2h-2v-2z" fill="rgb(70,24,8)"/>
<path d="M4 14h2v2h-2v-2z" fill="rgb(255,175,141)"/>
<path d="M10 14h2v2h-2v-2z" fill="rgb(247,154,116)"/>
<path d="M12 14h2v2h-2v-2z" fill="rgb(239,133,90)"/>
<path d="M14 14h2v2h-2v-2z" fill="rgb(237,114,63)"/>
<path d="M16 14h2v2h-2v-2z" fill="rgb(70,24,8)"/>
<path d="M18 14h2v2h-2v-2z" fill="rgb(97,0,22)"/>
<path d="M20 14h4v2h-4v-2z" fill="rgb(59,0,0)"/>
<path d="M24 14h2v2h-2v-2z" fill="rgb(116,116,116)"/>
<path d="M26 14h2v2h-2v-2z" fill="rgb(53,53,53)"/>
<path d="M28 14h2v2h-2v-2z" fill="rgb(255,255,255)"/>
<path d="M4 16h2v2h-2v-2z" fill="rgb(70,24,8)"/>
<path d="M12 16h2v2h-2v-2z" fill="rgb(237,114,63)"/>
<path d="M14 16h2v2h-2v-2z" fill="rgb(70,24,8)"/>
<path d="M16 16h2v2h-2v-2z" fill="rgb(240,106,106)"/>
<path d="M18 16h2v2h-2v-2z" fill="rgb(63,0,11)"/>
<path d="M20 16h2v2h-2v-2z" fill="rgb(173,0,0)"/>
<path d="M22 16h2v2h-2v-2z" fill="rgb(252,56,60)"/>
<path d="M24 16h2v2h-2v-2z" fill="rgb(59,0,0)"/>
<path d="M26 16h2v2h-2v-2z" fill="rgb(116,116,116)"/>
<path d="M28 16h2v4h-2v-4z" fill="rgb(53,53,53)"/>
<path d="M30 16h4v28h-16v-12h2v-2h2v-4h2v-2h2v-2h2v-2h2v-4z" fill="rgb(255,255,255)"/>
<path d="M4 18h2v2h-2v-2z" fill="rgb(187,10,48)"/>
<path d="M6 18h8v2h-8v-2z" fill="rgb(70,24,8)"/>
<path d="M14 18h2v2h-2v-2z" fill="rgb(216,164,18)"/>
<path d="M16 18h4v2h-2v2h-2v-4z" fill="rgb(236,48,48)"/>
<path d="M20 18h2v8h-2v-8z" fill="rgb(96,1,24)"/>
<path d="M22 18h4v4h-2v-2h-2v-2z" fill="rgb(173,0,0)"/>
<path d="M26 18h2v4h-2v-4z" fill="rgb(59,0,0)"/>
<path d="M4 20h2v2h-2v-2z" fill="rgb(236,48,48)"/>
<path d="M6 20h2v2h-2v-2z" fill="rgb(175,121,12)"/>
<path d="M8 20h2v2h-2v-2z" fill="rgb(247,154,116)"/>
<path d="M10 20h2v2h-2v-2z" fill="rgb(237,114,63)"/>
<path d="M12 20h2v2h-2v-2z" fill="rgb(247,154,116)"/>
<path d="M14 20h2v2h-2v-2z" fill="rgb(175,121,12)"/>
<path d="M18 20h2v2h-2v-2z" fill="rgb(212,30,48)"/>
<path d="M22 20h2v2h-2v-2z" fill="rgb(241,0,2)"/>
<path d="M4 22h2v2h-2v-2z" fill="rgb(187,10,48)"/>
<path d="M6 22h2v2h-2v-2z" fill="rgb(255,210,74)"/>
<path d="M8 22h2v2h-2v-2z" fill="rgb(236,48,48)"/>
<path d="M10 22h2v2h-2v-2z" fill="rgb(187,10,48)"/>
<path d="M12 22h2v2h-2v-2z" fill="rgb(236,48,48)"/>
<path d="M14 22h2v2h-2v-2z" fill="rgb(255,210,74)"/>
<path d="M16 22h4v4h-2v-2h-2v-2z" fill="rgb(187,10,48)"/>
<path d="M22 22h2v2h-2v-2z" fill="rgb(173,0,0)"/>
<path d="M24 22h2v2h-2v-2z" fill="rgb(59,0,0)"/>
<path d="M4 24h2v2h-2v-2z" fill="rgb(63,0,11)"/>
<path d="M6 24h2v2h-2v-2z" fill="rgb(115,68,5)"/>
<path d="M8 24h6v2h-6v-2z" fill="rgb(175,121,12)"/>
<path d="M14 24h2v2h-2v-2z" fill="rgb(115,68,5)"/>
<path d="M16 24h2v2h-2v-2z" fill="rgb(63,0,11)"/>
<path d="M22 24h2v2h-2v-2z" fill="rgb(59,0,0)"/>
<path d="M2 26h2v4h-2v-4z" fill="rgb(70,24,8)"/>
<path d="M4 26h2v2h-2v-2z" fill="rgb(239,133,90)"/>
<path d="M6 26h2v14h-2v-14z" fill="rgb(60,30,1)"/>
<path d="M8 26h6v6h-2v-4h-4v-2z" fill="rgb(216,164,18)"/>
<path d="M14 26h2v4h-2v-4z" fill="rgb(70,24,8)"/>
<path d="M16 26h2v4h-2v-4z" fill="rgb(255,175,141)"/>
<path d="M18 26h2v2h-2v-2z" fill="rgb(239,133,90)"/>
<path d="M20 26h2v4h-2v-4z" fill="rgb(70,24,8)"/>
<path d="M4 28h2v2h-2v-2z" fill="rgb(224,105,62)"/>
<path d="M8 28h4v2h-4v-2z" fill="rgb(255,210,74)"/>
<path d="M18 28h2v2h-2v-2z" fill="rgb(224,105,62)"/>
<path d="M4 30h2v2h-2v-2z" fill="rgb(70,24,8)"/>
<path d="M8 30h2v2h-2v-2z" fill="rgb(216,164,18)"/>
<path d="M10 30h2v2h-2v-2z" fill="rgb(115,68,5)"/>
<path d="M14 30h2v2h-2v-2z" fill="rgb(115,68,5)"/>
<path d="M16 30h4v2h-4v-2z" fill="rgb(70,24,8)"/>
<path d="M2 32h2v2h-2v-2z" fill="rgb(59,0,0)"/>
<path d="M4 32h2v2h-2v-2z" fill="rgb(241,0,2)"/>
<path d="M8 32h2v6h-2v-6z" fill="rgb(255,210,74)"/>
<path d="M10 32h2v8h-2v-8z" fill="rgb(60,30,1)"/>
<path d="M12 32h2v6h-2v-6z" fill="rgb(255,210,74)"/>
<path d="M14 32h2v8h-4v-2h2v-6z" fill="rgb(216,164,18)"/>
<path d="M16 32h2v8h-2v-8z" fill="rgb(60,30,1)"/>
<path d="M0 34h2v2h4v2h-6v-4z" fill="rgb(59,0,0)"/>
<path d="M2 34h2v2h-2v-2z" fill="rgb(241,0,2)"/>
<path d="M4 34h2v2h-2v-2z" fill="rgb(173,0,0)"/>
<path d="M0 38h6v2h-2v4h-4v-6z" fill="rgb(255,255,255)"/>
<path d="M8 38h2v2h-2v-2z" fill="rgb(216,164,18)"/>
<path d="M4 40h2v2h2v-2h2v2h6v-2h2v4h-14v-4z" fill="rgb(0,1,79)"/>
<path d="M6 40h2v2h-2v-2z" fill="rgb(72,185,255)"/>
<path d="M10 40h2v2h-2v-2z" fill="rgb(72,185,255)"/>
<path d="M12 40h2v2h-2v-2z" fill="rgb(47,128,225)"/>
<path d="M14 40h2v2h-2v-2z" fill="rgb(0,71,221)"/>
</svg>