<?xml version="1.0" encoding="utf-8"?>
<!-- generated at drububu.com  -->
<!DOCTYPE svg PUBLIC "-//W3C//DTD SVG 1.1//EN" "http://www.w3.org/Graphics/SVG/1.1/DTD/svg11.dtd">
<svg version="1.1" preserveAspectRatio="xMinYMin meet" xmlns="http://www.w3.org/2000/svg" xmlns:xlink="http://www.w3.org/1999/xlink" x="0px" y="0px" width="30px" height="44px" viewBox="0 0 30 44">
<path d="M0 0h6v2h-4v2h-2v-4z" fill="rgb(255,255,255)"/>
<path d="M6 0h12v2h-12v-2z" fill="rgb(51,24,1)"/>
<path d="M18 0h12v4h-2v-2h-4v2h-4v-2h-2v-2z" fill="rgb(255,255,255)"/>
<path d="M2 2h4v2h-4v-2z" fill="rgb(51,24,1)"/>
<path d="M6 2h2v2h-2v-2z" fill="rgb(176,101,6)"/>
<path d="M8 2h2v2h-2v-2z" fill="rgb(218,140,43)"/>
<path d="M10 2h2v2h-2v-2z" fill="rgb(176,101,6)"/>
<path d="M12 2h2v2h-2v-2z" fill="rgb(218,140,43)"/>
<path d="M14 2h4v2h2v4h-2v-2h-6v-2h2v-2z" fill="rgb(176,101,6)"/>
<path d="M18 2h2v2h-2v-2z" fill="rgb(51,24,1)"/>
<path d="M24 2h2v2h-2v-2z" fill="rgb(247,247,247)"/>
<path d="M26 2h2v2h-2v-2z" fill="rgb(220,215,215)"/>
<path d="M0 4h2v2h16v2h-18v-4z" fill="rgb(51,24,1)"/>
<path d="M2 4h2v2h-2v-2z" fill="rgb(110,60,6)"/>
<path d="M4 4h2v2h-2v-2z" fill="rgb(176,101,6)"/>
<path d="M6 4h2v2h-2v-2z" fill="rgb(218,140,43)"/>
<path d="M8 4h2v2h-2v-2z" fill="rgb(176,101,6)"/>
<path d="M10 4h2v2h-2v-2z" fill="rgb(218,140,43)"/>
<path d="M20 4h2v2h-2v-2z" fill="rgb(51,24,1)"/>
<path d="M22 4h2v2h-2v-2z" fill="rgb(247,247,247)"/>
<path d="M24 4h2v2h-2v-2z" fill="rgb(153,150,150)"/>
<path d="M26 4h2v2h-2v-2z" fill="rgb(247,247,247)"/>
<path d="M28 4h2v2h-2v-2z" fill="rgb(153,150,150)"/>
<path d="M20 6h2v4h-2v-4z" fill="rgb(110,60,6)"/>
<path d="M22 6h2v4h-2v-4z" fill="rgb(51,24,1)"/>
<path d="M24 6h2v2h4v36h-4v-8h-2v-18h-2v-2h-2v-4h2v-2h2v-4z" fill="rgb(255,255,255)"/>
<path d="M26 6h2v2h-2v-2z" fill="rgb(153,150,150)"/>
<path d="M28 6h2v2h-2v-2z" fill="rgb(84,83,83)"/>
<path d="M0 8h2v2h2v4h-2v2h2v2h-2v8h-2v-18z" fill="rgb(255,255,255)"/>
<path d="M2 8h2v2h-2v-2z" fill="rgb(84,83,83)"/>
<path d="M4 8h2v2h-2v-2z" fill="rgb(247,247,247)"/>
<path d="M6 8h10v4h-2v-2h-8v-2z" fill="rgb(227,112,67)"/>
<path d="M16 8h2v2h-2v-2z" fill="rgb(247,247,247)"/>
<path d="M18 8h2v6h-2v-6z" fill="rgb(84,83,83)"/>
<path d="M4 10h2v4h-2v-4z" fill="rgb(52,16,4)"/>
<path d="M6 10h2v2h-2v-2z" fill="rgb(239,133,90)"/>
<path d="M8 10h2v4h-2v-4z" fill="rgb(81,62,44)"/>
<path d="M10 10h2v4h-2v-4z" fill="rgb(247,247,247)"/>
<path d="M12 10h2v2h-2v-2z" fill="rgb(52,16,4)"/>
<path d="M16 10h2v2h-2v-2z" fill="rgb(220,215,215)"/>
<path d="M20 10h2v2h-2v-2z" fill="rgb(51,24,1)"/>
<path d="M6 12h2v2h-2v-2z" fill="rgb(255,175,141)"/>
<path d="M12 12h2v2h-2v-2z" fill="rgb(227,112,67)"/>
<path d="M14 12h2v2h-2v-2z" fill="rgb(239,133,90)"/>
<path d="M16 12h2v2h-2v-2z" fill="rgb(153,150,150)"/>
<path d="M2 14h2v2h-2v-2z" fill="rgb(52,16,4)"/>
<path d="M4 14h2v2h-2v-2z" fill="rgb(255,175,141)"/>
<path d="M6 14h4v2h-4v-2z" fill="rgb(239,133,90)"/>
<path d="M10 14h2v2h-2v-2z" fill="rgb(255,175,141)"/>
<path d="M12 14h2v2h-2v-2z" fill="rgb(239,133,90)"/>
<path d="M14 14h2v2h-2v-2z" fill="rgb(153,150,150)"/>
<path d="M16 14h2v2h-2v-2z" fill="rgb(84,83,83)"/>
<path d="M18 14h2v2h-2v-2z" fill="rgb(51,24,1)"/>
<path d="M4 16h2v8h-2v-8z" fill="rgb(84,83,83)"/>
<path d="M6 16h2v2h-2v-2z" fill="rgb(220,215,215)"/>
<path d="M8 16h2v2h-2v-2z" fill="rgb(186,182,182)"/>
<path d="M10 16h2v2h-2v-2z" fill="rgb(247,247,247)"/>
<path d="M12 16h2v2h-2v-2z" fill="rgb(220,215,215)"/>
<path d="M14 16h2v2h-2v-2z" fill="rgb(84,83,83)"/>
<path d="M16 16h4v2h-2v2h-4v-2h2v-2z" fill="rgb(176,101,6)"/>
<path d="M20 16h2v2h-2v-2z" fill="rgb(51,24,1)"/>
<path d="M2 18h2v2h-2v-2z" fill="rgb(51,24,1)"/>
<path d="M6 18h4v6h-2v-2h-2v-4z" fill="rgb(247,247,247)"/>
<path d="M10 18h2v2h-2v-2z" fill="rgb(186,182,182)"/>
<path d="M12 18h2v6h-2v-6z" fill="rgb(84,83,83)"/>
<path d="M18 18h2v8h-2v-8z" fill="rgb(218,140,43)"/>
<path d="M20 18h2v8h-2v-8z" fill="rgb(176,101,6)"/>
<path d="M22 18h2v8h-2v-8z" fill="rgb(51,24,1)"/>
<path d="M2 20h2v4h-2v-4z" fill="rgb(81,62,44)"/>
<path d="M10 20h2v2h-2v-2z" fill="rgb(220,215,215)"/>
<path d="M14 20h2v4h-2v-4z" fill="rgb(218,140,43)"/>
<path d="M16 20h2v6h-2v-6z" fill="rgb(51,24,1)"/>
<path d="M6 22h2v2h-2v-2z" fill="rgb(234,231,231)"/>
<path d="M10 22h2v2h-2v-2z" fill="rgb(153,150,150)"/>
<path d="M2 24h4v8h-2v-6h-2v-2z" fill="rgb(51,24,1)"/>
<path d="M6 24h2v2h-2v-2z" fill="rgb(84,83,83)"/>
<path d="M8 24h2v2h-2v-2z" fill="rgb(153,150,150)"/>
<path d="M10 24h2v2h-2v-2z" fill="rgb(84,83,83)"/>
<path d="M12 24h2v4h-2v-4z" fill="rgb(176,101,6)"/>
<path d="M14 24h2v2h-2v-2z" fill="rgb(110,60,6)"/>
<path d="M0 26h2v6h-2v-6z" fill="rgb(52,16,4)"/>
<path d="M2 26h2v6h-2v-6z" fill="rgb(215,90,45)"/>
<path d="M6 26h2v4h-2v-4z" fill="rgb(176,101,6)"/>
<path d="M8 26h2v2h-2v-2z" fill="rgb(84,83,83)"/>
<path d="M10 26h2v2h-2v-2z" fill="rgb(51,24,1)"/>
<path d="M14 26h2v6h-2v-6z" fill="rgb(52,16,4)"/>
<path d="M16 26h2v6h-2v-6z" fill="rgb(215,90,45)"/>
<path d="M18 26h4v2h-4v-2z" fill="rgb(155,74,45)"/>
<path d="M22 26h2v6h-2v-6z" fill="rgb(52,16,4)"/>
<path d="M8 28h2v2h-2v-2z" fill="rgb(51,24,1)"/>
<path d="M10 28h2v2h-2v-2z" fill="rgb(176,101,6)"/>
<path d="M12 28h2v4h-2v-4z" fill="rgb(110,60,6)"/>
<path d="M18 28h4v4h-4v-4z" fill="rgb(239,133,90)"/>
<path d="M6 30h2v2h-2v-2z" fill="rgb(218,140,43)"/>
<path d="M8 30h2v2h-2v-2z" fill="rgb(110,60,6)"/>
<path d="M10 30h2v2h-2v-2z" fill="rgb(218,140,43)"/>
<path d="M0 32h2v2h2v6h-2v4h-2v-12z" fill="rgb(255,255,255)"/>
<path d="M2 32h2v2h-2v-2z" fill="rgb(52,16,4)"/>
<path d="M4 32h2v6h-2v-6z" fill="rgb(32,39,48)"/>
<path d="M6 32h2v4h-2v-4z" fill="rgb(138,162,198)"/>
<path d="M8 32h2v6h-2v-6z" fill="rgb(32,39,48)"/>
<path d="M10 32h2v4h-2v-4z" fill="rgb(138,162,198)"/>
<path d="M12 32h2v4h2v4h-4v-2h-2v-2h2v-4z" fill="rgb(116,132,154)"/>
<path d="M14 32h2v4h-2v-4z" fill="rgb(103,108,113)"/>
<path d="M16 32h6v2h-6v-2z" fill="rgb(52,16,4)"/>
<path d="M22 32h2v4h-2v-4z" fill="rgb(51,24,1)"/>
<path d="M16 34h2v2h-2v-2z" fill="rgb(32,39,48)"/>
<path d="M18 34h2v2h-2v-2z" fill="rgb(110,60,6)"/>
<path d="M20 34h2v2h-2v-2z" fill="rgb(176,101,6)"/>
<path d="M6 36h2v2h-2v-2z" fill="rgb(116,132,154)"/>
<path d="M16 36h2v6h-4v-2h2v-4z" fill="rgb(103,108,113)"/>
<path d="M18 36h2v8h-6v-2h4v-6z" fill="rgb(32,39,48)"/>
<path d="M20 36h2v6h-2v-6z" fill="rgb(110,60,6)"/>
<path d="M22 36h2v6h-2v-6z" fill="rgb(176,101,6)"/>
<path d="M24 36h2v8h-6v-2h4v-6z" fill="rgb(51,24,1)"/>
<path d="M4 38h2v2h-2v-2z" fill="rgb(27,26,22)"/>
<path d="M6 38h2v2h-2v-2z" fill="rgb(57,55,44)"/>
<path d="M8 38h2v2h-2v-2z" fill="rgb(27,26,22)"/>
<path d="M10 38h2v2h2v2h-4v-4z" fill="rgb(57,55,44)"/>
<path d="M2 40h2v2h2v-2h2v2h6v2h-12v-4z" fill="rgb(27,26,22)"/>
<path d="M4 40h2v2h-2v-2z" fill="rgb(96,93,73)"/>
<path d="M8 40h2v2h-2v-2z" fill="rgb(96,93,73)"/>
</svg>