<?xml version="1.0" encoding="utf-8"?>
<!-- generated at drububu.com  -->
<!DOCTYPE svg PUBLIC "-//W3C//DTD SVG 1.1//EN" "http://www.w3.org/Graphics/SVG/1.1/DTD/svg11.dtd">
<svg version="1.1" preserveAspectRatio="xMinYMin meet" xmlns="http://www.w3.org/2000/svg" xmlns:xlink="http://www.w3.org/1999/xlink" x="0px" y="0px" width="28px" height="46px" viewBox="0 0 28 46">
<path d="M0 0h6v2h-2v2h-2v2h-2v-6z" fill="rgb(255,255,255)"/>
<path d="M6 0h4v2h-2v4h-2v-6z" fill="rgb(61,24,37)"/>
<path d="M10 0h4v2h-4v-2z" fill="rgb(61,75,99)"/>
<path d="M14 0h14v6h-2v-2h-2v-2h-4v2h-2v-2h-4v-2z" fill="rgb(255,255,255)"/>
<path d="M4 2h2v2h-2v-2z" fill="rgb(78,62,4)"/>
<path d="M8 2h2v2h-2v-2z" fill="rgb(184,114,130)"/>
<path d="M10 2h4v2h-4v-2z" fill="rgb(245,245,245)"/>
<path d="M14 2h4v2h-4v-2z" fill="rgb(61,75,99)"/>
<path d="M20 2h4v2h-4v-2z" fill="rgb(78,62,4)"/>
<path d="M2 4h2v2h-2v-2z" fill="rgb(78,62,4)"/>
<path d="M4 4h2v2h-2v-2z" fill="rgb(124,99,8)"/>
<path d="M8 4h2v2h-2v-2z" fill="rgb(212,4,31)"/>
<path d="M10 4h4v4h-2v-2h-2v-2z" fill="rgb(203,211,225)"/>
<path d="M14 4h4v2h-4v-2z" fill="rgb(245,245,245)"/>
<path d="M18 4h2v2h-2v-2z" fill="rgb(61,75,99)"/>
<path d="M20 4h4v2h-4v-2z" fill="rgb(207,190,7)"/>
<path d="M24 4h2v2h-2v-2z" fill="rgb(78,62,4)"/>
<path d="M0 6h2v4h-2v-4z" fill="rgb(78,62,4)"/>
<path d="M2 6h2v2h-2v-2z" fill="rgb(207,190,7)"/>
<path d="M4 6h2v2h-2v-2z" fill="rgb(255,232,90)"/>
<path d="M6 6h2v2h-2v-2z" fill="rgb(124,99,8)"/>
<path d="M8 6h2v4h-2v-4z" fill="rgb(61,75,99)"/>
<path d="M10 6h2v2h2v2h-4v-4z" fill="rgb(120,142,174)"/>
<path d="M14 6h4v2h-4v-2z" fill="rgb(120,142,174)"/>
<path d="M18 6h2v2h-2v-2z" fill="rgb(124,99,8)"/>
<path d="M20 6h2v2h-2v-2z" fill="rgb(165,145,8)"/>
<path d="M22 6h2v2h-2v-2z" fill="rgb(255,232,90)"/>
<path d="M24 6h2v2h-2v-2z" fill="rgb(207,190,7)"/>
<path d="M26 6h2v10h-2v-10z" fill="rgb(78,62,4)"/>
<path d="M2 8h2v2h-2v-2z" fill="rgb(124,99,8)"/>
<path d="M4 8h2v2h-2v-2z" fill="rgb(207,190,7)"/>
<path d="M6 8h2v2h-2v-2z" fill="rgb(255,232,90)"/>
<path d="M14 8h4v2h-4v-2z" fill="rgb(61,75,99)"/>
<path d="M18 8h2v2h-2v-2z" fill="rgb(255,232,90)"/>
<path d="M20 8h2v2h-2v-2z" fill="rgb(124,99,8)"/>
<path d="M22 8h2v2h-2v-2z" fill="rgb(165,145,8)"/>
<path d="M24 8h2v6h-2v-6z" fill="rgb(255,232,90)"/>
<path d="M0 10h2v2h2v2h2v2h-2v2h2v4h-2v6h-2v4h2v2h2v2h2v6h-2v4h-6v-36z" fill="rgb(255,255,255)"/>
<path d="M2 10h2v2h-2v-2z" fill="rgb(78,62,4)"/>
<path d="M4 10h2v2h-2v-2z" fill="rgb(124,99,8)"/>
<path d="M6 10h2v2h-2v-2z" fill="rgb(78,62,4)"/>
<path d="M8 10h2v2h-2v-2z" fill="rgb(215,90,45)"/>
<path d="M10 10h4v2h-4v-2z" fill="rgb(61,75,99)"/>
<path d="M14 10h2v2h-2v-2z" fill="rgb(124,99,8)"/>
<path d="M16 10h2v2h-2v-2z" fill="rgb(78,62,4)"/>
<path d="M18 10h2v2h-2v-2z" fill="rgb(124,99,8)"/>
<path d="M20 10h2v2h-2v-2z" fill="rgb(78,62,4)"/>
<path d="M22 10h2v2h-2v-2z" fill="rgb(124,99,8)"/>
<path d="M4 12h2v2h-2v-2z" fill="rgb(78,62,4)"/>
<path d="M6 12h2v4h-2v-4z" fill="rgb(70,24,8)"/>
<path d="M8 12h2v4h4v-2h2v4h-2v2h-6v-8z" fill="rgb(239,133,90)"/>
<path d="M10 12h2v4h-2v-4z" fill="rgb(61,110,10)"/>
<path d="M12 12h2v4h-2v-4z" fill="rgb(247,247,247)"/>
<path d="M14 12h2v2h-2v-2z" fill="rgb(78,62,4)"/>
<path d="M16 12h2v2h-2v-2z" fill="rgb(207,190,7)"/>
<path d="M18 12h2v4h-2v-4z" fill="rgb(78,62,4)"/>
<path d="M20 12h2v4h-2v-4z" fill="rgb(255,255,255)"/>
<path d="M22 12h2v4h-2v-4z" fill="rgb(78,62,4)"/>
<path d="M16 14h2v2h-2v-2z" fill="rgb(165,145,8)"/>
<path d="M24 14h2v2h-2v-2z" fill="rgb(207,190,7)"/>
<path d="M4 16h2v2h-2v-2z" fill="rgb(70,24,8)"/>
<path d="M6 16h2v2h-2v-2z" fill="rgb(255,175,141)"/>
<path d="M16 16h2v2h-2v-2z" fill="rgb(215,90,45)"/>
<path d="M18 16h2v2h-2v-2z" fill="rgb(70,24,8)"/>
<path d="M20 16h2v2h-2v-2z" fill="rgb(61,75,99)"/>
<path d="M22 16h2v2h-2v-2z" fill="rgb(255,255,255)"/>
<path d="M24 16h2v2h-2v-2z" fill="rgb(124,99,8)"/>
<path d="M26 16h2v30h-8v-10h2v-2h2v-2h2v-12h-2v-2h2v-2z" fill="rgb(255,255,255)"/>
<path d="M6 18h2v2h-2v-2z" fill="rgb(70,24,8)"/>
<path d="M14 18h2v2h-2v-2z" fill="rgb(215,90,45)"/>
<path d="M16 18h2v2h-2v-2z" fill="rgb(70,24,8)"/>
<path d="M18 18h2v2h-2v-2z" fill="rgb(203,211,225)"/>
<path d="M20 18h2v2h-2v-2z" fill="rgb(143,161,188)"/>
<path d="M22 18h2v2h-2v-2z" fill="rgb(61,75,99)"/>
<path d="M6 20h2v2h-2v-2z" fill="rgb(85,107,138)"/>
<path d="M8 20h8v2h-8v-2z" fill="rgb(70,24,8)"/>
<path d="M16 20h2v2h-2v-2z" fill="rgb(143,161,188)"/>
<path d="M18 20h2v2h-2v-2z" fill="rgb(245,245,245)"/>
<path d="M20 20h2v8h-2v-8z" fill="rgb(228,228,228)"/>
<path d="M22 20h2v2h-2v-2z" fill="rgb(120,142,174)"/>
<path d="M24 20h2v2h-2v-2z" fill="rgb(61,75,99)"/>
<path d="M4 22h2v6h-2v-6z" fill="rgb(61,75,99)"/>
<path d="M6 22h2v2h-2v-2z" fill="rgb(164,180,201)"/>
<path d="M8 22h2v2h-2v-2z" fill="rgb(143,161,188)"/>
<path d="M10 22h4v2h-4v-2z" fill="rgb(85,107,138)"/>
<path d="M14 22h2v2h-2v-2z" fill="rgb(143,161,188)"/>
<path d="M16 22h2v4h-2v-4z" fill="rgb(203,211,225)"/>
<path d="M18 22h2v6h-2v-6z" fill="rgb(61,75,99)"/>
<path d="M22 22h2v2h-2v-2z" fill="rgb(212,4,31)"/>
<path d="M24 22h2v2h-2v-2z" fill="rgb(79,0,5)"/>
<path d="M6 24h2v2h-2v-2z" fill="rgb(203,211,225)"/>
<path d="M8 24h8v2h-8v-2z" fill="rgb(245,245,245)"/>
<path d="M22 24h2v4h-2v-4z" fill="rgb(203,211,225)"/>
<path d="M24 24h2v4h-2v-4z" fill="rgb(61,75,99)"/>
<path d="M6 26h4v2h-4v-2z" fill="rgb(120,142,174)"/>
<path d="M10 26h6v2h-6v-2z" fill="rgb(143,161,188)"/>
<path d="M16 26h2v2h-2v-2z" fill="rgb(120,142,174)"/>
<path d="M2 28h2v4h-2v-4z" fill="rgb(70,24,8)"/>
<path d="M4 28h2v4h-2v-4z" fill="rgb(239,133,90)"/>
<path d="M6 28h2v8h-2v-8z" fill="rgb(61,75,99)"/>
<path d="M8 28h2v2h-2v-2z" fill="rgb(85,107,138)"/>
<path d="M10 28h6v2h-6v-2z" fill="rgb(120,142,174)"/>
<path d="M16 28h2v4h-2v-4z" fill="rgb(85,107,138)"/>
<path d="M18 28h2v4h-2v-4z" fill="rgb(70,24,8)"/>
<path d="M20 28h2v4h-2v-4z" fill="rgb(239,133,90)"/>
<path d="M22 28h2v4h-2v-4z" fill="rgb(255,175,141)"/>
<path d="M24 28h2v4h-2v-4z" fill="rgb(70,24,8)"/>
<path d="M8 30h2v4h-2v-4z" fill="rgb(164,180,201)"/>
<path d="M10 30h4v2h-4v-2z" fill="rgb(245,245,245)"/>
<path d="M14 30h2v2h-2v-2z" fill="rgb(203,211,225)"/>
<path d="M4 32h2v2h-2v-2z" fill="rgb(70,24,8)"/>
<path d="M10 32h4v4h-2v-2h-2v-2z" fill="rgb(203,211,225)"/>
<path d="M14 32h2v2h-2v-2z" fill="rgb(245,245,245)"/>
<path d="M16 32h2v2h-2v-2z" fill="rgb(120,142,174)"/>
<path d="M18 32h2v2h-2v-2z" fill="rgb(61,75,99)"/>
<path d="M20 32h4v2h-4v-2z" fill="rgb(70,24,8)"/>
<path d="M8 34h2v2h-2v-2z" fill="rgb(143,163,188)"/>
<path d="M10 34h2v2h-2v-2z" fill="rgb(164,180,201)"/>
<path d="M14 34h4v2h-4v-2z" fill="rgb(164,180,201)"/>
<path d="M18 34h2v2h-2v-2z" fill="rgb(120,142,174)"/>
<path d="M20 34h2v2h-2v-2z" fill="rgb(61,75,99)"/>
<path d="M8 36h2v6h-2v-6z" fill="rgb(70,24,8)"/>
<path d="M10 36h2v4h-2v-4z" fill="rgb(255,175,141)"/>
<path d="M12 36h2v6h-2v-6z" fill="rgb(70,24,8)"/>
<path d="M14 36h2v4h-2v-4z" fill="rgb(255,175,141)"/>
<path d="M16 36h2v4h-2v-4z" fill="rgb(215,90,45)"/>
<path d="M18 36h2v4h-2v-4z" fill="rgb(70,24,8)"/>
<path d="M10 40h2v2h-2v-2z" fill="rgb(239,133,90)"/>
<path d="M14 40h2v2h-2v-2z" fill="rgb(239,133,90)"/>
<path d="M16 40h2v2h-2v-2z" fill="rgb(175,2,94)"/>
<path d="M18 40h2v6h-2v-2h-2v-2h2v-2z" fill="rgb(98,0,42)"/>
<path d="M6 42h2v2h2v-2h2v2h4v2h-10v-4z" fill="rgb(98,0,42)"/>
<path d="M8 42h2v2h-2v-2z" fill="rgb(244,24,147)"/>
<path d="M12 42h2v2h-2v-2z" fill="rgb(244,24,147)"/>
<path d="M14 42h2v2h-2v-2z" fill="rgb(175,2,94)"/>
<path d="M16 44h2v2h-2v-2z" fill="rgb(255,255,255)"/>
</svg>