<?xml version="1.0" encoding="utf-8"?>
<!-- generated at drububu.com  -->
<!DOCTYPE svg PUBLIC "-//W3C//DTD SVG 1.1//EN" "http://www.w3.org/Graphics/SVG/1.1/DTD/svg11.dtd">
<svg version="1.1" preserveAspectRatio="xMinYMin meet" xmlns="http://www.w3.org/2000/svg" xmlns:xlink="http://www.w3.org/1999/xlink" x="0px" y="0px" width="30px" height="42px" viewBox="0 0 30 42">
<path d="M0 0h2v4h2v2h-2v2h-2v-8z" fill="rgb(255,255,255)"/>
<path d="M2 0h6v2h-6v-2z" fill="rgb(46,46,52)"/>
<path d="M8 0h2v2h-2v-2z" fill="rgb(255,255,255)"/>
<path d="M10 0h8v2h-8v-2z" fill="rgb(46,46,52)"/>
<path d="M18 0h12v18h-2v-4h-2v-4h-2v-4h-2v-2h-2v-2h-2v-2z" fill="rgb(255,255,255)"/>
<path d="M2 2h2v2h-2v-2z" fill="rgb(98,98,106)"/>
<path d="M4 2h2v2h-2v-2z" fill="rgb(193,193,221)"/>
<path d="M6 2h2v2h-2v-2z" fill="rgb(160,160,181)"/>
<path d="M8 2h2v2h-2v-2z" fill="rgb(46,46,52)"/>
<path d="M10 2h2v2h-2v-2z" fill="rgb(98,98,106)"/>
<path d="M12 2h2v2h-2v-2z" fill="rgb(160,160,181)"/>
<path d="M14 2h4v2h-4v-2z" fill="rgb(193,193,221)"/>
<path d="M18 2h2v2h-2v-2z" fill="rgb(46,46,52)"/>
<path d="M4 4h2v2h-2v-2z" fill="rgb(98,98,106)"/>
<path d="M6 4h2v2h-2v-2z" fill="rgb(193,193,221)"/>
<path d="M8 4h2v2h-2v-2z" fill="rgb(136,136,153)"/>
<path d="M10 4h2v2h-2v-2z" fill="rgb(160,160,181)"/>
<path d="M12 4h2v2h-2v-2z" fill="rgb(98,98,106)"/>
<path d="M14 4h2v2h-2v-2z" fill="rgb(136,136,153)"/>
<path d="M16 4h2v2h-2v-2z" fill="rgb(160,160,181)"/>
<path d="M18 4h2v2h-2v-2z" fill="rgb(193,193,221)"/>
<path d="M20 4h2v2h-2v-2z" fill="rgb(46,46,52)"/>
<path d="M2 6h2v2h-2v-2z" fill="rgb(46,46,52)"/>
<path d="M4 6h2v2h-2v-2z" fill="rgb(193,193,221)"/>
<path d="M6 6h2v2h-2v-2z" fill="rgb(136,136,153)"/>
<path d="M8 6h2v2h-2v-2z" fill="rgb(98,98,106)"/>
<path d="M10 6h2v2h-2v-2z" fill="rgb(221,190,193)"/>
<path d="M12 6h2v2h-2v-2z" fill="rgb(46,46,52)"/>
<path d="M14 6h2v2h-2v-2z" fill="rgb(98,98,106)"/>
<path d="M16 6h2v2h-2v-2z" fill="rgb(193,193,221)"/>
<path d="M18 6h2v2h-2v-2z" fill="rgb(160,160,181)"/>
<path d="M20 6h2v2h-2v-2z" fill="rgb(193,193,221)"/>
<path d="M22 6h2v4h-2v-4z" fill="rgb(46,46,52)"/>
<path d="M0 8h2v2h-2v-2z" fill="rgb(46,46,52)"/>
<path d="M2 8h2v2h-2v-2z" fill="rgb(193,193,221)"/>
<path d="M4 8h2v2h-2v-2z" fill="rgb(98,98,106)"/>
<path d="M6 8h2v2h-2v-2z" fill="rgb(46,46,52)"/>
<path d="M8 8h2v2h-2v-2z" fill="rgb(231,209,211)"/>
<path d="M10 8h2v4h-2v-4z" fill="rgb(191,25,25)"/>
<path d="M12 8h2v4h-2v-4z" fill="rgb(247,247,247)"/>
<path d="M14 8h2v4h-2v-4z" fill="rgb(46,46,52)"/>
<path d="M16 8h2v2h-2v-2z" fill="rgb(98,98,106)"/>
<path d="M18 8h2v2h-2v-2z" fill="rgb(193,193,221)"/>
<path d="M20 8h2v2h-2v-2z" fill="rgb(136,136,153)"/>
<path d="M0 10h4v2h-4v-2z" fill="rgb(98,98,106)"/>
<path d="M4 10h2v2h-2v-2z" fill="rgb(255,255,255)"/>
<path d="M6 10h2v2h-2v-2z" fill="rgb(83,63,65)"/>
<path d="M8 10h2v2h2v2h-4v-4z" fill="rgb(206,171,173)"/>
<path d="M16 10h2v2h-2v-2z" fill="rgb(160,160,181)"/>
<path d="M18 10h2v2h-2v-2z" fill="rgb(98,98,106)"/>
<path d="M20 10h2v2h-2v-2z" fill="rgb(193,193,221)"/>
<path d="M22 10h2v2h-2v-2z" fill="rgb(136,136,153)"/>
<path d="M24 10h2v2h-2v-2z" fill="rgb(46,46,52)"/>
<path d="M0 12h4v4h2v2h-2v6h-2v6h2v2h2v6h-2v4h-4v-30z" fill="rgb(255,255,255)"/>
<path d="M4 12h2v2h-2v-2z" fill="rgb(83,63,65)"/>
<path d="M6 12h2v2h-2v-2z" fill="rgb(231,209,211)"/>
<path d="M12 12h2v2h-2v-2z" fill="rgb(227,200,202)"/>
<path d="M14 12h2v2h-2v-2z" fill="rgb(98,98,106)"/>
<path d="M16 12h2v2h-2v-2z" fill="rgb(136,136,153)"/>
<path d="M18 12h2v2h-2v-2z" fill="rgb(46,46,52)"/>
<path d="M20 12h2v2h-2v-2z" fill="rgb(136,136,153)"/>
<path d="M22 12h2v2h-2v-2z" fill="rgb(46,46,52)"/>
<path d="M24 12h2v2h-2v-2z" fill="rgb(54,20,25)"/>
<path d="M4 14h2v2h-2v-2z" fill="rgb(52,49,54)"/>
<path d="M6 14h2v2h-2v-2z" fill="rgb(98,98,106)"/>
<path d="M8 14h2v2h-2v-2z" fill="rgb(178,178,203)"/>
<path d="M10 14h2v2h-2v-2z" fill="rgb(136,136,153)"/>
<path d="M12 14h2v2h-2v-2z" fill="rgb(98,98,106)"/>
<path d="M14 14h2v2h-2v-2z" fill="rgb(136,136,153)"/>
<path d="M16 14h2v2h-2v-2z" fill="rgb(81,34,41)"/>
<path d="M18 14h2v2h-2v-2z" fill="rgb(171,83,85)"/>
<path d="M20 14h2v2h-2v-2z" fill="rgb(46,46,52)"/>
<path d="M22 14h2v2h-2v-2z" fill="rgb(136,136,153)"/>
<path d="M24 14h2v2h-2v-2z" fill="rgb(46,46,52)"/>
<path d="M26 14h2v4h-2v-4z" fill="rgb(54,20,25)"/>
<path d="M6 16h2v2h-2v-2z" fill="rgb(52,49,54)"/>
<path d="M8 16h2v2h-2v-2z" fill="rgb(98,98,106)"/>
<path d="M10 16h2v2h-2v-2z" fill="rgb(52,49,54)"/>
<path d="M12 16h2v2h-2v-2z" fill="rgb(128,128,143)"/>
<path d="M14 16h2v2h-2v-2z" fill="rgb(51,49,52)"/>
<path d="M16 16h2v2h-2v-2z" fill="rgb(171,83,85)"/>
<path d="M18 16h2v2h-2v-2z" fill="rgb(81,34,41)"/>
<path d="M20 16h2v2h-2v-2z" fill="rgb(122,115,129)"/>
<path d="M22 16h2v2h-2v-2z" fill="rgb(194,161,164)"/>
<path d="M24 16h2v4h-2v-4z" fill="rgb(79,60,63)"/>
<path d="M4 18h2v4h-2v-4z" fill="rgb(52,49,54)"/>
<path d="M6 18h2v2h-2v-2z" fill="rgb(178,178,203)"/>
<path d="M8 18h2v2h-2v-2z" fill="rgb(136,136,153)"/>
<path d="M10 18h2v2h-2v-2z" fill="rgb(98,98,106)"/>
<path d="M12 18h2v4h-2v-4z" fill="rgb(52,49,54)"/>
<path d="M14 18h2v2h-2v-2z" fill="rgb(171,83,85)"/>
<path d="M16 18h2v2h-2v-2z" fill="rgb(81,34,41)"/>
<path d="M18 18h2v6h-2v-6z" fill="rgb(34,31,37)"/>
<path d="M20 18h2v2h-2v-2z" fill="rgb(211,183,187)"/>
<path d="M22 18h2v2h-2v-2z" fill="rgb(205,170,173)"/>
<path d="M26 18h2v2h-2v-2z" fill="rgb(81,34,41)"/>
<path d="M28 18h2v8h-2v-8z" fill="rgb(54,20,25)"/>
<path d="M6 20h2v2h-2v-2z" fill="rgb(98,98,106)"/>
<path d="M8 20h2v2h-2v-2z" fill="rgb(178,178,203)"/>
<path d="M10 20h2v2h-2v-2z" fill="rgb(136,136,153)"/>
<path d="M14 20h2v2h-2v-2z" fill="rgb(81,34,41)"/>
<path d="M16 20h2v2h-2v-2z" fill="rgb(54,20,25)"/>
<path d="M20 20h2v4h-2v-4z" fill="rgb(100,94,105)"/>
<path d="M22 20h2v4h-2v-4z" fill="rgb(52,49,54)"/>
<path d="M24 20h2v4h-2v-4z" fill="rgb(34,31,37)"/>
<path d="M26 20h2v2h-2v-2z" fill="rgb(124,55,64)"/>
<path d="M4 22h2v2h-2v-2z" fill="rgb(34,31,37)"/>
<path d="M6 22h2v2h-2v-2z" fill="rgb(46,46,52)"/>
<path d="M8 22h2v2h-2v-2z" fill="rgb(136,136,153)"/>
<path d="M10 22h2v2h-2v-2z" fill="rgb(52,49,54)"/>
<path d="M12 22h4v2h-4v-2z" fill="rgb(54,20,25)"/>
<path d="M16 22h2v2h-2v-2z" fill="rgb(52,49,54)"/>
<path d="M26 22h2v2h-2v-2z" fill="rgb(81,34,41)"/>
<path d="M2 24h2v6h-2v-6z" fill="rgb(83,63,65)"/>
<path d="M4 24h2v4h-2v-4z" fill="rgb(221,190,193)"/>
<path d="M6 24h2v4h-2v-4z" fill="rgb(100,94,105)"/>
<path d="M8 24h2v2h-2v-2z" fill="rgb(52,49,54)"/>
<path d="M10 24h2v2h-2v-2z" fill="rgb(141,140,140)"/>
<path d="M12 24h2v2h-2v-2z" fill="rgb(34,31,37)"/>
<path d="M14 24h2v2h-2v-2z" fill="rgb(100,94,105)"/>
<path d="M16 24h2v6h-2v-6z" fill="rgb(83,63,65)"/>
<path d="M18 24h4v4h-4v-4z" fill="rgb(221,190,193)"/>
<path d="M22 24h2v6h-6v-2h4v-4z" fill="rgb(206,171,173)"/>
<path d="M24 24h2v6h-2v-6z" fill="rgb(83,63,65)"/>
<path d="M26 24h2v2h-2v-2z" fill="rgb(124,55,64)"/>
<path d="M8 26h2v4h-2v-4z" fill="rgb(34,31,37)"/>
<path d="M10 26h2v2h-2v-2z" fill="rgb(169,170,169)"/>
<path d="M12 26h2v2h-2v-2z" fill="rgb(133,131,132)"/>
<path d="M14 26h2v2h-2v-2z" fill="rgb(52,49,54)"/>
<path d="M26 26h2v4h-2v-4z" fill="rgb(81,34,41)"/>
<path d="M28 26h2v4h-2v-4z" fill="rgb(255,255,255)"/>
<path d="M4 28h2v2h-2v-2z" fill="rgb(206,171,173)"/>
<path d="M6 28h2v2h-2v-2z" fill="rgb(77,73,80)"/>
<path d="M10 28h2v2h-2v-2z" fill="rgb(138,137,137)"/>
<path d="M12 28h2v2h-2v-2z" fill="rgb(34,31,37)"/>
<path d="M14 28h2v2h-2v-2z" fill="rgb(98,92,103)"/>
<path d="M4 30h2v2h-2v-2z" fill="rgb(83,63,65)"/>
<path d="M6 30h2v2h-2v-2z" fill="rgb(34,31,37)"/>
<path d="M8 30h2v4h-2v-4z" fill="rgb(138,167,236)"/>
<path d="M10 30h2v8h-2v-8z" fill="rgb(48,52,69)"/>
<path d="M12 30h2v2h-2v-2z" fill="rgb(138,167,236)"/>
<path d="M14 30h2v2h-2v-2z" fill="rgb(34,31,37)"/>
<path d="M16 30h2v2h-2v-2z" fill="rgb(77,73,80)"/>
<path d="M18 30h6v2h-6v-2z" fill="rgb(83,63,65)"/>
<path d="M24 30h2v2h-2v-2z" fill="rgb(81,34,41)"/>
<path d="M26 30h2v2h-2v-2z" fill="rgb(124,55,64)"/>
<path d="M28 30h2v8h-4v-2h2v-6z" fill="rgb(54,20,25)"/>
<path d="M6 32h2v6h-2v-6z" fill="rgb(48,52,69)"/>
<path d="M12 32h2v2h-2v-2z" fill="rgb(221,190,193)"/>
<path d="M14 32h2v2h-2v-2z" fill="rgb(81,94,132)"/>
<path d="M16 32h2v2h-2v-2z" fill="rgb(34,31,37)"/>
<path d="M18 32h4v2h-4v-2z" fill="rgb(77,73,80)"/>
<path d="M22 32h2v2h-2v-2z" fill="rgb(34,31,37)"/>
<path d="M24 32h2v4h-2v-4z" fill="rgb(54,20,25)"/>
<path d="M26 32h2v4h-2v-4z" fill="rgb(171,83,85)"/>
<path d="M8 34h2v2h-2v-2z" fill="rgb(206,171,173)"/>
<path d="M12 34h4v4h-2v-2h-2v-2z" fill="rgb(115,135,192)"/>
<path d="M16 34h2v2h-2v-2z" fill="rgb(81,94,132)"/>
<path d="M18 34h4v2h-4v-2z" fill="rgb(34,31,37)"/>
<path d="M22 34h2v2h2v2h4v4h-8v-8z" fill="rgb(255,255,255)"/>
<path d="M8 36h2v2h-2v-2z" fill="rgb(81,94,132)"/>
<path d="M12 36h2v2h-2v-2z" fill="rgb(81,94,132)"/>
<path d="M16 36h2v2h-2v-2z" fill="rgb(206,171,173)"/>
<path d="M18 36h2v4h-4v-2h2v-2z" fill="rgb(81,94,132)"/>
<path d="M20 36h2v6h-6v-2h4v-4z" fill="rgb(48,52,69)"/>
<path d="M4 38h2v2h2v-2h2v2h6v2h-12v-4z" fill="rgb(83,63,65)"/>
<path d="M6 38h2v2h-2v-2z" fill="rgb(221,190,193)"/>
<path d="M10 38h2v2h-2v-2z" fill="rgb(221,190,193)"/>
<path d="M12 38h4v2h-4v-2z" fill="rgb(206,171,173)"/>
</svg>