<?xml version="1.0" encoding="utf-8"?>
<!-- generated at drububu.com  -->
<!DOCTYPE svg PUBLIC "-//W3C//DTD SVG 1.1//EN" "http://www.w3.org/Graphics/SVG/1.1/DTD/svg11.dtd">
<svg version="1.1" preserveAspectRatio="xMinYMin meet" xmlns="http://www.w3.org/2000/svg" xmlns:xlink="http://www.w3.org/1999/xlink" x="0px" y="0px" width="34px" height="44px" viewBox="0 0 34 44">
<path d="M0 0h18v2h-2v2h-4v2h-2v4h4v4h-2v2h2v2h-2v8h-2v-2h-2v-2h-2v-2h-2v2h-2v2
	h-2v-24z" fill="rgb(255,255,255)"/>
<path d="M18 0h8v2h-8v-2z" fill="rgb(108,8,8)"/>
<path d="M26 0h8v18h-2v-2h-2v-12h-2v-2h-2v-2z" fill="rgb(255,255,255)"/>
<path d="M16 2h2v2h-2v-2z" fill="rgb(108,8,8)"/>
<path d="M18 2h2v2h-2v-2z" fill="rgb(238,66,66)"/>
<path d="M20 2h4v2h-4v-2z" fill="rgb(255,80,80)"/>
<path d="M24 2h2v2h-2v-2z" fill="rgb(238,66,66)"/>
<path d="M26 2h2v2h-2v-2z" fill="rgb(46,0,0)"/>
<path d="M12 4h4v2h-4v-2z" fill="rgb(108,8,8)"/>
<path d="M16 4h2v2h-2v-2z" fill="rgb(167,22,22)"/>
<path d="M18 4h2v2h-2v-2z" fill="rgb(210,36,36)"/>
<path d="M20 4h4v2h-4v-2z" fill="rgb(238,66,66)"/>
<path d="M24 4h2v2h-2v-2z" fill="rgb(210,36,36)"/>
<path d="M26 4h2v4h-4v-2h2v-2z" fill="rgb(167,22,22)"/>
<path d="M28 4h2v6h-20v-2h18v-4z" fill="rgb(46,0,0)"/>
<path d="M10 6h2v2h-2v-2z" fill="rgb(108,8,8)"/>
<path d="M12 6h4v2h-4v-2z" fill="rgb(238,66,66)"/>
<path d="M16 6h2v2h-2v-2z" fill="rgb(210,36,36)"/>
<path d="M18 6h2v2h-2v-2z" fill="rgb(167,22,22)"/>
<path d="M20 6h4v2h-4v-2z" fill="rgb(210,36,36)"/>
<path d="M14 10h2v4h-2v-4z" fill="rgb(70,24,8)"/>
<path d="M16 10h2v2h-2v-2z" fill="rgb(235,132,96)"/>
<path d="M18 10h2v4h-2v-4z" fill="rgb(81,62,44)"/>
<path d="M20 10h2v4h-2v-4z" fill="rgb(247,247,247)"/>
<path d="M22 10h4v2h-4v-2z" fill="rgb(235,132,96)"/>
<path d="M26 10h2v4h-2v-4z" fill="rgb(219,89,49)"/>
<path d="M28 10h2v4h-2v-4z" fill="rgb(70,24,8)"/>
<path d="M16 12h2v4h4v2h-6v-6z" fill="rgb(245,166,134)"/>
<path d="M22 12h4v2h-2v2h-2v-4z" fill="rgb(245,166,134)"/>
<path d="M12 14h2v2h-2v-2z" fill="rgb(70,24,8)"/>
<path d="M14 14h2v2h-2v-2z" fill="rgb(255,174,139)"/>
<path d="M18 14h4v2h-4v-2z" fill="rgb(249,194,173)"/>
<path d="M24 14h2v2h-2v-2z" fill="rgb(219,89,49)"/>
<path d="M26 14h2v2h-2v-2z" fill="rgb(70,24,8)"/>
<path d="M28 14h2v2h-2v-2z" fill="rgb(46,0,0)"/>
<path d="M14 16h2v2h-2v-2z" fill="rgb(70,24,8)"/>
<path d="M22 16h2v2h-2v-2z" fill="rgb(219,89,49)"/>
<path d="M24 16h2v2h-2v-2z" fill="rgb(70,24,8)"/>
<path d="M26 16h2v2h-2v-2z" fill="rgb(225,225,225)"/>
<path d="M28 16h2v2h-2v-2z" fill="rgb(151,22,16)"/>
<path d="M30 16h2v2h-2v-2z" fill="rgb(46,0,0)"/>
<path d="M12 18h2v8h-2v-8z" fill="rgb(46,0,0)"/>
<path d="M14 18h2v2h-2v-2z" fill="rgb(151,22,16)"/>
<path d="M16 18h8v2h-8v-2z" fill="rgb(70,24,8)"/>
<path d="M24 18h2v2h-2v-2z" fill="rgb(225,225,225)"/>
<path d="M26 18h4v6h-2v-4h-2v-2z" fill="rgb(200,32,25)"/>
<path d="M30 18h2v6h-2v-6z" fill="rgb(151,22,16)"/>
<path d="M32 18h2v8h-2v-8z" fill="rgb(46,0,0)"/>
<path d="M4 20h2v2h-2v-2z" fill="rgb(6,60,60)"/>
<path d="M14 20h2v2h-2v-2z" fill="rgb(200,32,25)"/>
<path d="M16 20h2v2h-2v-2z" fill="rgb(225,225,225)"/>
<path d="M18 20h4v2h-4v-2z" fill="rgb(200,32,25)"/>
<path d="M22 20h2v2h-2v-2z" fill="rgb(225,225,225)"/>
<path d="M24 20h2v4h-2v-4z" fill="rgb(200,32,25)"/>
<path d="M26 20h2v6h-2v-6z" fill="rgb(46,0,0)"/>
<path d="M2 22h2v2h-2v-2z" fill="rgb(6,60,60)"/>
<path d="M4 22h2v2h-2v-2z" fill="rgb(0,240,241)"/>
<path d="M6 22h2v2h-2v-2z" fill="rgb(6,60,60)"/>
<path d="M14 22h2v2h-2v-2z" fill="rgb(151,22,16)"/>
<path d="M16 22h2v2h-2v-2z" fill="rgb(255,252,102)"/>
<path d="M18 22h4v2h-4v-2z" fill="rgb(151,22,16)"/>
<path d="M22 22h2v2h-2v-2z" fill="rgb(255,252,102)"/>
<path d="M0 24h2v2h-2v-2z" fill="rgb(6,60,60)"/>
<path d="M2 24h2v2h-2v-2z" fill="rgb(0,240,241)"/>
<path d="M4 24h2v2h-2v-2z" fill="rgb(100,138,138)"/>
<path d="M6 24h2v2h-2v-2z" fill="rgb(162,140,120)"/>
<path d="M8 24h2v2h-2v-2z" fill="rgb(36,20,8)"/>
<path d="M14 24h2v14h-2v-14z" fill="rgb(50,51,54)"/>
<path d="M16 24h2v2h-2v-2z" fill="rgb(214,182,44)"/>
<path d="M18 24h4v2h-4v-2z" fill="rgb(169,169,168)"/>
<path d="M22 24h2v2h-2v-2z" fill="rgb(214,182,44)"/>
<path d="M24 24h2v2h-2v-2z" fill="rgb(169,169,168)"/>
<path d="M28 24h4v2h-4v-2z" fill="rgb(108,8,8)"/>
<path d="M0 26h2v2h2v2h2v2h4v2h2v2h2v4h-2v4h-12v-18z" fill="rgb(255,255,255)"/>
<path d="M2 26h2v2h-2v-2z" fill="rgb(6,60,60)"/>
<path d="M4 26h2v2h-2v-2z" fill="rgb(144,125,106)"/>
<path d="M6 26h2v2h-2v-2z" fill="rgb(36,20,8)"/>
<path d="M8 26h2v2h-2v-2z" fill="rgb(160,112,61)"/>
<path d="M10 26h2v6h-2v-6z" fill="rgb(70,24,8)"/>
<path d="M12 26h2v6h-2v-6z" fill="rgb(233,133,99)"/>
<path d="M16 26h6v4h-2v-2h-4v-2z" fill="rgb(225,225,225)"/>
<path d="M22 26h2v4h-2v-4z" fill="rgb(214,214,214)"/>
<path d="M24 26h2v6h-2v-6z" fill="rgb(70,24,8)"/>
<path d="M26 26h2v6h-2v-6z" fill="rgb(233,133,99)"/>
<path d="M28 26h4v2h-4v-2z" fill="rgb(219,89,49)"/>
<path d="M32 26h2v6h-2v-6z" fill="rgb(70,24,8)"/>
<path d="M4 28h2v2h-2v-2z" fill="rgb(36,20,8)"/>
<path d="M6 28h2v2h-2v-2z" fill="rgb(160,112,61)"/>
<path d="M8 28h2v2h-2v-2z" fill="rgb(192,135,75)"/>
<path d="M16 28h4v2h-4v-2z" fill="rgb(255,255,255)"/>
<path d="M28 28h4v4h-4v-4z" fill="rgb(245,166,134)"/>
<path d="M6 30h2v2h-2v-2z" fill="rgb(36,20,8)"/>
<path d="M8 30h2v2h-2v-2z" fill="rgb(100,67,35)"/>
<path d="M16 30h2v2h-2v-2z" fill="rgb(214,214,214)"/>
<path d="M18 30h2v2h-2v-2z" fill="rgb(169,169,168)"/>
<path d="M20 30h2v2h-2v-2z" fill="rgb(214,214,214)"/>
<path d="M22 30h2v2h-2v-2z" fill="rgb(169,169,168)"/>
<path d="M10 32h2v2h-2v-2z" fill="rgb(100,67,35)"/>
<path d="M12 32h2v2h-2v-2z" fill="rgb(70,24,8)"/>
<path d="M16 32h2v4h-2v-4z" fill="rgb(255,255,255)"/>
<path d="M18 32h2v6h-2v-6z" fill="rgb(50,51,54)"/>
<path d="M20 32h2v4h-2v-4z" fill="rgb(255,255,255)"/>
<path d="M22 32h2v8h-2v-2h-2v-2h2v-4z" fill="rgb(208,208,208)"/>
<path d="M24 32h2v2h-2v-2z" fill="rgb(89,89,89)"/>
<path d="M26 32h6v2h-6v-2z" fill="rgb(70,24,8)"/>
<path d="M32 32h2v2h-2v-2z" fill="rgb(89,89,89)"/>
<path d="M12 34h2v2h-2v-2z" fill="rgb(100,67,35)"/>
<path d="M24 34h2v2h-2v-2z" fill="rgb(6,60,60)"/>
<path d="M26 34h2v2h-2v-2z" fill="rgb(0,203,204)"/>
<path d="M28 34h2v4h-2v-4z" fill="rgb(0,240,241)"/>
<path d="M30 34h2v2h-2v-2z" fill="rgb(0,154,155)"/>
<path d="M32 34h2v2h-2v-2z" fill="rgb(6,60,60)"/>
<path d="M16 36h2v2h-2v-2z" fill="rgb(208,208,208)"/>
<path d="M24 36h2v6h6v-2h2v4h-10v-8z" fill="rgb(40,40,54)"/>
<path d="M26 36h2v4h-2v-4z" fill="rgb(240,240,247)"/>
<path d="M30 36h2v2h-2v-2z" fill="rgb(0,203,204)"/>
<path d="M32 36h2v4h-2v-4z" fill="rgb(3,79,79)"/>
<path d="M14 38h2v2h-2v-2z" fill="rgb(22,23,25)"/>
<path d="M16 38h2v2h-2v-2z" fill="rgb(105,105,105)"/>
<path d="M18 38h2v2h-2v-2z" fill="rgb(22,23,25)"/>
<path d="M20 38h2v2h2v2h-4v-4z" fill="rgb(105,105,105)"/>
<path d="M28 38h2v2h-2v-2z" fill="rgb(217,216,233)"/>
<path d="M30 38h2v2h-2v-2z" fill="rgb(0,154,155)"/>
<path d="M12 40h2v2h2v-2h2v2h6v2h-12v-4z" fill="rgb(22,23,25)"/>
<path d="M14 40h2v2h-2v-2z" fill="rgb(135,135,135)"/>
<path d="M18 40h2v2h-2v-2z" fill="rgb(135,135,135)"/>
<path d="M26 40h2v2h-2v-2z" fill="rgb(224,224,237)"/>
<path d="M28 40h2v2h-2v-2z" fill="rgb(184,183,208)"/>
<path d="M30 40h2v2h-2v-2z" fill="rgb(148,148,174)"/>
</svg>