<?xml version="1.0" encoding="utf-8"?>
<!-- generated at drububu.com  -->
<!DOCTYPE svg PUBLIC "-//W3C//DTD SVG 1.1//EN" "http://www.w3.org/Graphics/SVG/1.1/DTD/svg11.dtd">
<svg version="1.1" preserveAspectRatio="xMinYMin meet" xmlns="http://www.w3.org/2000/svg" xmlns:xlink="http://www.w3.org/1999/xlink" x="0px" y="0px" width="30px" height="44px" viewBox="0 0 30 44">
<path d="M0 0h10v2h-2v2h-2v2h-2v6h-2v-2h-2v-10z" fill="rgb(255,255,255)"/>
<path d="M10 0h8v2h-8v-2z" fill="rgb(59,2,33)"/>
<path d="M18 0h12v14h-2v-6h-2v-2h-2v-2h-4v-2h-2v-2z" fill="rgb(255,255,255)"/>
<path d="M8 2h2v2h-2v-2z" fill="rgb(59,2,33)"/>
<path d="M10 2h2v2h-2v-2z" fill="rgb(151,17,97)"/>
<path d="M12 2h2v2h-2v-2z" fill="rgb(123,11,78)"/>
<path d="M14 2h2v2h-2v-2z" fill="rgb(151,17,97)"/>
<path d="M16 2h2v2h-2v-2z" fill="rgb(123,11,78)"/>
<path d="M18 2h2v2h-2v-2z" fill="rgb(59,2,33)"/>
<path d="M6 4h2v2h-2v-2z" fill="rgb(59,2,33)"/>
<path d="M8 4h2v2h-2v-2z" fill="rgb(151,17,97)"/>
<path d="M10 4h2v2h-2v-2z" fill="rgb(191,24,122)"/>
<path d="M12 4h2v4h-2v-4z" fill="rgb(172,20,99)"/>
<path d="M14 4h2v2h-2v-2z" fill="rgb(191,24,122)"/>
<path d="M16 4h2v2h-2v-2z" fill="rgb(151,17,97)"/>
<path d="M18 4h2v2h-2v-2z" fill="rgb(172,20,99)"/>
<path d="M20 4h4v2h-4v-2z" fill="rgb(59,2,33)"/>
<path d="M4 6h2v6h-2v-6z" fill="rgb(59,2,33)"/>
<path d="M6 6h2v2h-2v-2z" fill="rgb(151,17,97)"/>
<path d="M8 6h2v2h-2v-2z" fill="rgb(172,20,99)"/>
<path d="M10 6h2v2h-2v-2z" fill="rgb(123,11,78)"/>
<path d="M14 6h2v2h-2v-2z" fill="rgb(151,17,97)"/>
<path d="M16 6h2v2h-2v-2z" fill="rgb(191,24,122)"/>
<path d="M18 6h2v2h-2v-2z" fill="rgb(151,17,97)"/>
<path d="M20 6h2v2h-2v-2z" fill="rgb(120,11,99)"/>
<path d="M22 6h2v2h-2v-2z" fill="rgb(123,11,78)"/>
<path d="M24 6h2v2h-2v-2z" fill="rgb(59,2,33)"/>
<path d="M6 8h2v2h-2v-2z" fill="rgb(191,24,122)"/>
<path d="M8 8h2v2h-2v-2z" fill="rgb(123,11,78)"/>
<path d="M10 8h2v2h-2v-2z" fill="rgb(215,90,77)"/>
<path d="M12 8h2v2h-2v-2z" fill="rgb(123,11,78)"/>
<path d="M14 8h2v2h-2v-2z" fill="rgb(59,2,33)"/>
<path d="M16 8h2v4h-2v-4z" fill="rgb(151,17,97)"/>
<path d="M18 8h2v2h-2v-2z" fill="rgb(172,20,99)"/>
<path d="M20 8h2v2h-2v-2z" fill="rgb(191,24,122)"/>
<path d="M22 8h2v2h-2v-2z" fill="rgb(151,17,97)"/>
<path d="M24 8h2v2h-2v-2z" fill="rgb(120,11,99)"/>
<path d="M26 8h2v6h-2v-6z" fill="rgb(59,2,33)"/>
<path d="M0 10h2v2h-2v-2z" fill="rgb(191,24,122)"/>
<path d="M6 10h2v2h-2v-2z" fill="rgb(123,11,78)"/>
<path d="M8 10h2v4h-2v-4z" fill="rgb(69,19,14)"/>
<path d="M10 10h2v4h6v2h-2v2h-6v-8z" fill="rgb(239,133,117)"/>
<path d="M12 10h2v2h-2v-2z" fill="rgb(6,168,214)"/>
<path d="M14 10h2v4h-2v-4z" fill="rgb(247,247,247)"/>
<path d="M18 10h2v2h-2v-2z" fill="rgb(123,11,78)"/>
<path d="M20 10h2v2h-2v-2z" fill="rgb(151,17,97)"/>
<path d="M22 10h2v2h-2v-2z" fill="rgb(191,24,122)"/>
<path d="M24 10h2v2h-2v-2z" fill="rgb(172,20,99)"/>
<path d="M0 12h2v2h-2v-2z" fill="rgb(123,11,78)"/>
<path d="M2 12h2v2h-2v-2z" fill="rgb(172,20,99)"/>
<path d="M4 12h2v2h-2v-2z" fill="rgb(123,11,78)"/>
<path d="M6 12h2v2h-2v-2z" fill="rgb(120,11,99)"/>
<path d="M12 12h2v2h-2v-2z" fill="rgb(66,184,255)"/>
<path d="M16 12h2v2h-2v-2z" fill="rgb(123,11,78)"/>
<path d="M18 12h2v2h-2v-2z" fill="rgb(255,175,168)"/>
<path d="M20 12h2v4h-2v-4z" fill="rgb(59,2,33)"/>
<path d="M22 12h2v2h-2v-2z" fill="rgb(151,17,97)"/>
<path d="M24 12h2v2h-2v-2z" fill="rgb(191,24,122)"/>
<path d="M0 14h2v2h-2v-2z" fill="rgb(59,2,33)"/>
<path d="M2 14h2v2h-2v-2z" fill="rgb(123,11,78)"/>
<path d="M4 14h2v2h-2v-2z" fill="rgb(120,11,99)"/>
<path d="M6 14h2v2h-2v-2z" fill="rgb(59,2,33)"/>
<path d="M8 14h2v2h-2v-2z" fill="rgb(255,175,168)"/>
<path d="M18 14h2v2h-2v-2z" fill="rgb(215,90,77)"/>
<path d="M22 14h2v2h-2v-2z" fill="rgb(172,20,99)"/>
<path d="M24 14h2v2h-2v-2z" fill="rgb(151,17,97)"/>
<path d="M26 14h2v2h-2v-2z" fill="rgb(123,11,78)"/>
<path d="M28 14h2v4h-2v-4z" fill="rgb(59,2,33)"/>
<path d="M0 16h2v2h4v-2h2v8h-2v6h2v2h2v8h-2v4h-8v-28z" fill="rgb(255,255,255)"/>
<path d="M2 16h4v2h-4v-2z" fill="rgb(59,2,33)"/>
<path d="M8 16h2v2h-2v-2z" fill="rgb(69,19,14)"/>
<path d="M16 16h2v2h-2v-2z" fill="rgb(215,90,77)"/>
<path d="M18 16h2v2h-2v-2z" fill="rgb(69,19,14)"/>
<path d="M20 16h2v2h-2v-2z" fill="rgb(185,57,131)"/>
<path d="M22 16h2v2h-2v-2z" fill="rgb(59,2,33)"/>
<path d="M24 16h2v2h-2v-2z" fill="rgb(123,11,78)"/>
<path d="M26 16h2v2h-2v-2z" fill="rgb(120,11,99)"/>
<path d="M8 18h2v2h-2v-2z" fill="rgb(166,51,117)"/>
<path d="M10 18h8v2h-8v-2z" fill="rgb(69,19,14)"/>
<path d="M18 18h2v2h-2v-2z" fill="rgb(185,57,131)"/>
<path d="M20 18h2v2h-2v-2z" fill="rgb(227,73,139)"/>
<path d="M22 18h2v2h-2v-2z" fill="rgb(185,57,131)"/>
<path d="M24 18h4v2h-2v6h-2v-8z" fill="rgb(59,2,33)"/>
<path d="M28 18h2v26h-8v-12h2v-2h2v-10h2v-2z" fill="rgb(255,255,255)"/>
<path d="M8 20h2v2h-2v-2z" fill="rgb(185,57,131)"/>
<path d="M10 20h2v2h-2v-2z" fill="rgb(179,55,127)"/>
<path d="M12 20h4v2h-4v-2z" fill="rgb(255,175,168)"/>
<path d="M16 20h2v2h-2v-2z" fill="rgb(179,55,127)"/>
<path d="M18 20h2v4h-2v-4z" fill="rgb(227,73,139)"/>
<path d="M20 20h2v6h-2v-6z" fill="rgb(59,2,33)"/>
<path d="M22 20h2v2h-2v-2z" fill="rgb(227,73,139)"/>
<path d="M8 22h2v2h-2v-2z" fill="rgb(118,0,62)"/>
<path d="M10 22h2v2h-2v-2z" fill="rgb(239,77,146)"/>
<path d="M12 22h4v2h-4v-2z" fill="rgb(166,51,117)"/>
<path d="M16 22h2v2h-2v-2z" fill="rgb(239,77,146)"/>
<path d="M22 22h2v2h-2v-2z" fill="rgb(185,57,131)"/>
<path d="M6 24h2v6h-2v-6z" fill="rgb(69,19,14)"/>
<path d="M8 24h2v2h-2v-2z" fill="rgb(59,2,33)"/>
<path d="M10 24h2v2h-2v-2z" fill="rgb(185,57,131)"/>
<path d="M12 24h4v2h-4v-2z" fill="rgb(239,77,146)"/>
<path d="M16 24h2v2h-2v-2z" fill="rgb(198,62,141)"/>
<path d="M18 24h2v2h-2v-2z" fill="rgb(212,67,129)"/>
<path d="M22 24h2v2h-2v-2z" fill="rgb(175,54,105)"/>
<path d="M8 26h2v4h-2v-4z" fill="rgb(239,133,117)"/>
<path d="M10 26h2v6h-2v-6z" fill="rgb(59,2,33)"/>
<path d="M12 26h6v2h-6v-2z" fill="rgb(166,51,117)"/>
<path d="M18 26h2v4h-2v-4z" fill="rgb(69,19,14)"/>
<path d="M20 26h2v4h-2v-4z" fill="rgb(239,133,117)"/>
<path d="M22 26h2v4h-2v-4z" fill="rgb(255,175,168)"/>
<path d="M24 26h2v4h-2v-4z" fill="rgb(69,19,14)"/>
<path d="M12 28h4v2h-4v-2z" fill="rgb(118,0,62)"/>
<path d="M16 28h2v2h-2v-2z" fill="rgb(97,0,51)"/>
<path d="M8 30h2v2h-2v-2z" fill="rgb(69,19,14)"/>
<path d="M12 30h4v2h-4v-2z" fill="rgb(148,0,77)"/>
<path d="M16 30h2v2h-2v-2z" fill="rgb(118,0,62)"/>
<path d="M18 30h2v2h-2v-2z" fill="rgb(97,0,51)"/>
<path d="M20 30h4v2h-2v2h-2v-4z" fill="rgb(69,19,14)"/>
<path d="M10 32h2v2h-2v-2z" fill="rgb(69,19,14)"/>
<path d="M12 32h2v2h-2v-2z" fill="rgb(239,133,117)"/>
<path d="M14 32h2v2h-2v-2z" fill="rgb(69,19,14)"/>
<path d="M16 32h2v2h-2v-2z" fill="rgb(255,175,168)"/>
<path d="M18 32h2v2h-2v-2z" fill="rgb(231,118,114)"/>
<path d="M10 34h2v2h-2v-2z" fill="rgb(2,55,75)"/>
<path d="M12 34h2v2h-2v-2z" fill="rgb(50,232,255)"/>
<path d="M14 34h2v2h-2v-2z" fill="rgb(2,55,75)"/>
<path d="M16 34h2v2h-2v-2z" fill="rgb(50,232,255)"/>
<path d="M18 34h2v2h-2v-2z" fill="rgb(40,206,255)"/>
<path d="M20 34h2v2h-2v-2z" fill="rgb(2,55,75)"/>
<path d="M10 36h2v2h-2v-2z" fill="rgb(68,79,8)"/>
<path d="M12 36h2v2h-2v-2z" fill="rgb(241,255,137)"/>
<path d="M14 36h2v2h-2v-2z" fill="rgb(68,79,8)"/>
<path d="M16 36h2v2h-2v-2z" fill="rgb(241,255,137)"/>
<path d="M18 36h2v2h-2v-2z" fill="rgb(235,255,75)"/>
<path d="M20 36h2v2h-2v-2z" fill="rgb(68,79,8)"/>
<path d="M10 38h2v2h-2v-2z" fill="rgb(59,2,33)"/>
<path d="M12 38h2v2h-2v-2z" fill="rgb(183,13,87)"/>
<path d="M14 38h2v2h-2v-2z" fill="rgb(59,2,33)"/>
<path d="M16 38h2v2h-2v-2z" fill="rgb(183,13,87)"/>
<path d="M18 38h2v2h-2v-2z" fill="rgb(165,13,79)"/>
<path d="M20 38h2v6h-14v-4h2v2h2v-2h2v2h6v-4z" fill="rgb(59,2,33)"/>
<path d="M10 40h2v2h-2v-2z" fill="rgb(243,198,217)"/>
<path d="M14 40h2v2h-2v-2z" fill="rgb(243,198,217)"/>
<path d="M16 40h2v2h-2v-2z" fill="rgb(165,13,79)"/>
<path d="M18 40h2v2h-2v-2z" fill="rgb(138,13,67)"/>
</svg>