<?xml version="1.0" encoding="utf-8"?>
<!-- generated at drububu.com  -->
<!DOCTYPE svg PUBLIC "-//W3C//DTD SVG 1.1//EN" "http://www.w3.org/Graphics/SVG/1.1/DTD/svg11.dtd">
<svg version="1.1" preserveAspectRatio="xMinYMin meet" xmlns="http://www.w3.org/2000/svg" xmlns:xlink="http://www.w3.org/1999/xlink" x="0px" y="0px" width="26px" height="48px" viewBox="0 0 26 48">
<path d="M0 0h6v2h-2v2h-2v10h2v6h-2v4h-2v-24z" fill="rgb(255,255,255)"/>
<path d="M6 0h2v2h-2v-2z" fill="rgb(22,22,22)"/>
<path d="M8 0h18v12h-2v-2h-2v-2h-2v-2h-4v-2h-6v-2h-2v-2z" fill="rgb(255,255,255)"/>
<path d="M4 2h2v2h-2v-2z" fill="rgb(22,22,22)"/>
<path d="M6 2h2v2h-2v-2z" fill="rgb(53,51,62)"/>
<path d="M8 2h2v2h-2v-2z" fill="rgb(22,22,22)"/>
<path d="M2 4h2v10h-2v-10z" fill="rgb(22,22,22)"/>
<path d="M4 4h2v8h-2v-8z" fill="rgb(53,51,62)"/>
<path d="M6 4h2v2h-2v-2z" fill="rgb(80,77,92)"/>
<path d="M8 4h2v2h-2v-2z" fill="rgb(53,51,62)"/>
<path d="M10 4h6v2h-6v-2z" fill="rgb(22,22,22)"/>
<path d="M6 6h2v2h-2v-2z" fill="rgb(104,100,118)"/>
<path d="M8 6h2v2h2v4h-6v-4h2v-2z" fill="rgb(80,77,92)"/>
<path d="M10 6h2v2h-2v-2z" fill="rgb(42,40,51)"/>
<path d="M12 6h4v4h-2v-2h-2v-2z" fill="rgb(53,51,62)"/>
<path d="M16 6h4v2h-4v-2z" fill="rgb(22,22,22)"/>
<path d="M12 8h2v2h2v2h-2v2h-2v-6z" fill="rgb(42,40,51)"/>
<path d="M16 8h2v2h-2v-2z" fill="rgb(42,40,51)"/>
<path d="M18 8h2v2h-2v-2z" fill="rgb(53,51,62)"/>
<path d="M20 8h2v2h-2v-2z" fill="rgb(22,22,22)"/>
<path d="M16 10h4v2h2v2h-8v-2h2v-2z" fill="rgb(80,77,92)"/>
<path d="M20 10h2v2h-2v-2z" fill="rgb(53,51,62)"/>
<path d="M22 10h2v2h-2v-2z" fill="rgb(22,22,22)"/>
<path d="M4 12h2v2h-2v-2z" fill="rgb(42,40,51)"/>
<path d="M6 12h6v2h-6v-2z" fill="rgb(53,51,62)"/>
<path d="M22 12h2v2h-2v-2z" fill="rgb(53,51,62)"/>
<path d="M24 12h2v4h-22v-2h20v-2z" fill="rgb(22,22,22)"/>
<path d="M4 16h2v4h-2v-4z" fill="rgb(78,46,8)"/>
<path d="M6 16h2v2h-2v-2z" fill="rgb(170,110,33)"/>
<path d="M8 16h2v4h-2v-4z" fill="rgb(76,12,12)"/>
<path d="M10 16h2v4h-2v-4z" fill="rgb(247,247,247)"/>
<path d="M12 16h2v2h-2v-2z" fill="rgb(170,110,33)"/>
<path d="M14 16h2v2h-2v-2z" fill="rgb(83,13,13)"/>
<path d="M16 16h2v2h-2v-2z" fill="rgb(139,31,31)"/>
<path d="M18 16h2v2h-2v-2z" fill="rgb(83,13,13)"/>
<path d="M20 16h2v2h-2v-2z" fill="rgb(55,5,5)"/>
<path d="M22 16h4v4h-2v-2h-2v-2z" fill="rgb(255,255,255)"/>
<path d="M6 18h2v2h2v2h-4v-4z" fill="rgb(193,147,85)"/>
<path d="M12 18h2v4h-2v2h-2v-4h2v-2z" fill="rgb(139,31,31)"/>
<path d="M14 18h2v2h-2v-2z" fill="rgb(110,23,23)"/>
<path d="M16 18h2v2h-2v-2z" fill="rgb(83,13,13)"/>
<path d="M18 18h2v2h-2v-2z" fill="rgb(110,23,23)"/>
<path d="M20 18h2v2h-2v-2z" fill="rgb(139,31,31)"/>
<path d="M22 18h2v2h-2v-2z" fill="rgb(55,5,5)"/>
<path d="M2 20h2v2h-2v-2z" fill="rgb(78,46,8)"/>
<path d="M4 20h2v2h-2v-2z" fill="rgb(170,110,33)"/>
<path d="M14 20h2v2h-2v-2z" fill="rgb(83,13,13)"/>
<path d="M16 20h2v2h-2v-2z" fill="rgb(53,51,62)"/>
<path d="M18 20h2v2h-2v-2z" fill="rgb(83,13,13)"/>
<path d="M20 20h2v2h-2v-2z" fill="rgb(110,23,23)"/>
<path d="M22 20h2v2h-2v-2z" fill="rgb(139,31,31)"/>
<path d="M24 20h2v6h-2v-6z" fill="rgb(55,5,5)"/>
<path d="M2 22h2v2h-2v-2z" fill="rgb(55,5,5)"/>
<path d="M4 22h2v2h-2v-2z" fill="rgb(168,39,39)"/>
<path d="M6 22h2v2h-2v-2z" fill="rgb(139,31,31)"/>
<path d="M8 22h2v2h-2v-2z" fill="rgb(168,39,39)"/>
<path d="M12 22h2v2h-2v-2z" fill="rgb(83,13,13)"/>
<path d="M14 22h4v2h-4v-2z" fill="rgb(80,77,92)"/>
<path d="M18 22h2v2h-2v-2z" fill="rgb(104,100,118)"/>
<path d="M20 22h2v2h-2v-2z" fill="rgb(83,13,13)"/>
<path d="M22 22h2v2h-2v-2z" fill="rgb(110,23,23)"/>
<path d="M0 24h2v4h-2v-4z" fill="rgb(55,5,5)"/>
<path d="M2 24h2v2h2v2h-4v-4z" fill="rgb(110,23,23)"/>
<path d="M4 24h2v2h-2v-2z" fill="rgb(139,31,31)"/>
<path d="M6 24h2v2h-2v-2z" fill="rgb(110,23,23)"/>
<path d="M8 24h2v2h-2v-2z" fill="rgb(139,31,31)"/>
<path d="M10 24h2v2h-2v-2z" fill="rgb(83,13,13)"/>
<path d="M12 24h2v4h-2v-4z" fill="rgb(80,77,92)"/>
<path d="M14 24h2v2h-2v-2z" fill="rgb(104,100,118)"/>
<path d="M16 24h2v4h-2v-4z" fill="rgb(22,22,22)"/>
<path d="M18 24h4v2h-2v2h-2v-4z" fill="rgb(80,77,92)"/>
<path d="M22 24h2v4h-2v-4z" fill="rgb(22,22,22)"/>
<path d="M6 26h2v2h-2v-2z" fill="rgb(139,31,31)"/>
<path d="M8 26h2v2h-2v-2z" fill="rgb(168,39,39)"/>
<path d="M10 26h2v2h-2v-2z" fill="rgb(55,5,5)"/>
<path d="M14 26h2v2h-2v-2z" fill="rgb(53,51,62)"/>
<path d="M20 26h2v2h-2v-2z" fill="rgb(104,100,118)"/>
<path d="M24 26h2v14h-2v-2h-2v-2h2v-10z" fill="rgb(255,255,255)"/>
<path d="M0 28h2v2h-2v-2z" fill="rgb(110,23,23)"/>
<path d="M2 28h2v4h-2v-4z" fill="rgb(55,5,5)"/>
<path d="M4 28h2v2h-2v-2z" fill="rgb(139,31,31)"/>
<path d="M6 28h2v2h-2v-2z" fill="rgb(83,13,13)"/>
<path d="M8 28h2v2h-2v-2z" fill="rgb(139,31,31)"/>
<path d="M10 28h2v2h-2v-2z" fill="rgb(168,39,39)"/>
<path d="M12 28h2v2h-2v-2z" fill="rgb(55,5,5)"/>
<path d="M14 28h2v2h-2v-2z" fill="rgb(22,22,22)"/>
<path d="M16 28h2v2h-2v-2z" fill="rgb(96,69,0)"/>
<path d="M18 28h2v2h-2v-2z" fill="rgb(255,190,1)"/>
<path d="M20 28h2v2h-2v-2z" fill="rgb(209,157,0)"/>
<path d="M22 28h2v2h-2v-2z" fill="rgb(96,69,0)"/>
<path d="M0 30h2v6h-2v-6z" fill="rgb(78,46,8)"/>
<path d="M4 30h2v2h-2v-2z" fill="rgb(168,39,39)"/>
<path d="M6 30h2v2h-2v-2z" fill="rgb(139,31,31)"/>
<path d="M8 30h4v2h-4v-2z" fill="rgb(55,5,5)"/>
<path d="M12 30h2v4h-2v-4z" fill="rgb(53,51,62)"/>
<path d="M14 30h2v6h-2v-6z" fill="rgb(78,46,8)"/>
<path d="M16 30h6v2h-4v4h-2v-6z" fill="rgb(170,110,33)"/>
<path d="M22 30h2v6h-2v-6z" fill="rgb(78,46,8)"/>
<path d="M2 32h2v2h-2v-2z" fill="rgb(22,22,22)"/>
<path d="M4 32h4v2h-4v-2z" fill="rgb(55,5,5)"/>
<path d="M8 32h2v2h-2v-2z" fill="rgb(22,22,22)"/>
<path d="M10 32h2v2h-2v-2z" fill="rgb(255,190,1)"/>
<path d="M18 32h4v4h-4v-4z" fill="rgb(193,147,85)"/>
<path d="M2 34h2v2h-2v-2z" fill="rgb(170,110,33)"/>
<path d="M4 34h2v2h-2v-2z" fill="rgb(96,69,0)"/>
<path d="M6 34h2v2h-2v-2z" fill="rgb(209,157,0)"/>
<path d="M8 34h2v2h-2v-2z" fill="rgb(255,190,1)"/>
<path d="M10 34h2v2h-2v-2z" fill="rgb(22,22,22)"/>
<path d="M12 34h2v2h-2v-2z" fill="rgb(80,77,92)"/>
<path d="M0 36h2v2h2v6h-2v4h-2v-12z" fill="rgb(255,255,255)"/>
<path d="M2 36h2v2h-2v-2z" fill="rgb(78,46,8)"/>
<path d="M4 36h2v8h-2v-8z" fill="rgb(22,22,22)"/>
<path d="M6 36h2v4h-2v-4z" fill="rgb(80,77,92)"/>
<path d="M8 36h2v8h-2v-8z" fill="rgb(22,22,22)"/>
<path d="M10 36h2v4h-2v-4z" fill="rgb(80,77,92)"/>
<path d="M12 36h2v4h-2v-4z" fill="rgb(22,22,22)"/>
<path d="M14 36h2v2h-2v-2z" fill="rgb(77,83,92)"/>
<path d="M16 36h6v2h-6v-2z" fill="rgb(78,46,8)"/>
<path d="M14 38h2v2h-2v-2z" fill="rgb(53,51,62)"/>
<path d="M16 38h4v2h2v2h-4v-2h-2v-2z" fill="rgb(80,77,92)"/>
<path d="M20 38h2v2h-2v-2z" fill="rgb(53,51,62)"/>
<path d="M22 38h2v2h-2v-2z" fill="rgb(22,22,22)"/>
<path d="M6 40h2v2h-2v-2z" fill="rgb(53,51,62)"/>
<path d="M10 40h4v2h-4v-2z" fill="rgb(53,51,62)"/>
<path d="M14 40h2v2h-2v-2z" fill="rgb(22,22,22)"/>
<path d="M16 40h2v2h-2v-2z" fill="rgb(53,51,62)"/>
<path d="M22 40h2v2h-2v-2z" fill="rgb(53,51,62)"/>
<path d="M24 40h2v4h-2v-4z" fill="rgb(22,22,22)"/>
<path d="M6 42h2v2h-2v-2z" fill="rgb(42,40,51)"/>
<path d="M10 42h6v2h-6v-2z" fill="rgb(42,40,51)"/>
<path d="M16 42h2v2h-2v-2z" fill="rgb(22,22,22)"/>
<path d="M18 42h4v2h-4v-2z" fill="rgb(53,51,62)"/>
<path d="M22 42h2v2h-2v-2z" fill="rgb(80,77,92)"/>
<path d="M2 44h2v2h2v-2h2v2h10v-2h6v2h-4v2h-18v-4z" fill="rgb(22,22,22)"/>
<path d="M4 44h2v2h-2v-2z" fill="rgb(80,77,92)"/>
<path d="M8 44h2v2h-2v-2z" fill="rgb(80,77,92)"/>
<path d="M10 44h6v2h-6v-2z" fill="rgb(53,51,62)"/>
<path d="M16 44h2v2h-2v-2z" fill="rgb(42,40,51)"/>
<path d="M24 44h2v4h-6v-2h4v-2z" fill="rgb(255,255,255)"/>
</svg>