<?xml version="1.0" encoding="utf-8"?>
<!-- generated at drububu.com  -->
<!DOCTYPE svg PUBLIC "-//W3C//DTD SVG 1.1//EN" "http://www.w3.org/Graphics/SVG/1.1/DTD/svg11.dtd">
<svg version="1.1" preserveAspectRatio="xMinYMin meet" xmlns="http://www.w3.org/2000/svg" xmlns:xlink="http://www.w3.org/1999/xlink" x="0px" y="0px" width="32px" height="52px" viewBox="0 0 32 52">
<path d="M0 0h14v2h-4v2h-2v4h-2v2h-2v2h-2v4h2v6h-2v2h2v2h-2v6h-2v-32z" fill="rgb(255,255,255)"/>
<path d="M14 0h6v2h-6v-2z" fill="rgb(82,0,0)"/>
<path d="M20 0h12v30h-2v-4h-2v-2h-2v-2h-2v-2h-2v-4h2v-2h2v-4h-2v-6h-2v-2h-2v-2z" fill="rgb(255,255,255)"/>
<path d="M10 2h4v2h-4v-2z" fill="rgb(82,0,0)"/>
<path d="M14 2h4v2h-4v-2z" fill="rgb(230,56,56)"/>
<path d="M18 2h2v2h-2v-2z" fill="rgb(193,24,24)"/>
<path d="M20 2h2v2h-2v-2z" fill="rgb(82,0,0)"/>
<path d="M8 4h2v4h-2v-4z" fill="rgb(82,0,0)"/>
<path d="M10 4h2v2h2v-2h2v4h-2v2h-2v-2h-2v-4z" fill="rgb(193,24,24)"/>
<path d="M12 4h2v2h-2v-2z" fill="rgb(230,56,56)"/>
<path d="M16 4h2v2h-2v-2z" fill="rgb(82,0,0)"/>
<path d="M18 4h2v2h-2v-2z" fill="rgb(124,2,2)"/>
<path d="M20 4h2v2h-2v-2z" fill="rgb(166,10,10)"/>
<path d="M22 4h2v4h-2v-4z" fill="rgb(82,0,0)"/>
<path d="M16 6h2v2h-2v-2z" fill="rgb(166,10,10)"/>
<path d="M18 6h2v2h-2v-2z" fill="rgb(82,0,0)"/>
<path d="M20 6h2v2h-2v-2z" fill="rgb(193,24,24)"/>
<path d="M6 8h2v2h-2v-2z" fill="rgb(82,0,0)"/>
<path d="M8 8h2v2h-2v-2z" fill="rgb(193,24,24)"/>
<path d="M10 8h2v2h-2v-2z" fill="rgb(230,56,56)"/>
<path d="M14 8h2v2h-2v-2z" fill="rgb(166,10,10)"/>
<path d="M16 8h4v2h-4v-2z" fill="rgb(124,2,2)"/>
<path d="M20 8h4v2h-4v-2z" fill="rgb(56,55,55)"/>
<path d="M4 10h14v2h-14v-2z" fill="rgb(56,55,55)"/>
<path d="M18 10h2v2h-2v-2z" fill="rgb(84,83,83)"/>
<path d="M20 10h2v2h-2v-2z" fill="rgb(243,240,232)"/>
<path d="M22 10h2v2h-2v-2z" fill="rgb(211,211,210)"/>
<path d="M24 10h2v4h-2v-4z" fill="rgb(56,55,55)"/>
<path d="M2 12h2v4h-2v-4z" fill="rgb(56,55,55)"/>
<path d="M4 12h2v2h-2v-2z" fill="rgb(186,182,182)"/>
<path d="M6 12h2v2h-2v-2z" fill="rgb(211,211,210)"/>
<path d="M8 12h2v2h2v2h-6v-2h2v-2z" fill="rgb(243,240,232)"/>
<path d="M10 12h2v2h-2v-2z" fill="rgb(211,211,210)"/>
<path d="M12 12h2v2h-2v-2z" fill="rgb(243,240,232)"/>
<path d="M14 12h2v2h-2v-2z" fill="rgb(186,182,182)"/>
<path d="M16 12h2v2h-2v-2z" fill="rgb(211,211,210)"/>
<path d="M18 12h2v2h-2v-2z" fill="rgb(119,117,117)"/>
<path d="M20 12h2v2h-2v-2z" fill="rgb(211,211,210)"/>
<path d="M22 12h2v2h-2v-2z" fill="rgb(186,182,182)"/>
<path d="M4 14h2v2h-2v-2z" fill="rgb(211,211,210)"/>
<path d="M12 14h2v2h-2v-2z" fill="rgb(211,211,210)"/>
<path d="M14 14h2v2h-2v-2z" fill="rgb(243,240,232)"/>
<path d="M16 14h2v2h-2v-2z" fill="rgb(186,182,182)"/>
<path d="M18 14h2v2h-2v-2z" fill="rgb(211,211,210)"/>
<path d="M20 14h2v2h-2v-2z" fill="rgb(119,117,117)"/>
<path d="M22 14h2v2h-2v-2z" fill="rgb(56,55,55)"/>
<path d="M4 16h18v2h-18v-2z" fill="rgb(56,55,55)"/>
<path d="M4 18h2v4h-2v-4z" fill="rgb(94,64,52)"/>
<path d="M6 18h2v2h-2v-2z" fill="rgb(225,174,152)"/>
<path d="M8 18h2v4h-2v-4z" fill="rgb(0,87,207)"/>
<path d="M10 18h2v4h-2v-4z" fill="rgb(247,247,247)"/>
<path d="M12 18h2v2h-2v-2z" fill="rgb(94,64,52)"/>
<path d="M14 18h2v2h-2v-2z" fill="rgb(225,174,152)"/>
<path d="M16 18h2v2h-2v-2z" fill="rgb(220,215,215)"/>
<path d="M18 18h2v2h-2v-2z" fill="rgb(186,182,182)"/>
<path d="M20 18h2v4h-2v-4z" fill="rgb(84,83,83)"/>
<path d="M6 20h2v2h2v2h-4v-4z" fill="rgb(238,192,174)"/>
<path d="M12 20h2v2h-2v-2z" fill="rgb(225,174,152)"/>
<path d="M14 20h2v2h-2v-2z" fill="rgb(238,192,174)"/>
<path d="M16 20h2v2h-2v-2z" fill="rgb(186,182,182)"/>
<path d="M18 20h2v2h-2v-2z" fill="rgb(255,252,252)"/>
<path d="M22 20h2v2h-2v-2z" fill="rgb(0,65,36)"/>
<path d="M2 22h2v2h-2v-2z" fill="rgb(94,64,52)"/>
<path d="M4 22h2v2h-2v-2z" fill="rgb(242,211,198)"/>
<path d="M10 22h2v2h-2v-2z" fill="rgb(239,134,127)"/>
<path d="M12 22h2v2h-2v-2z" fill="rgb(238,192,174)"/>
<path d="M14 22h2v2h-2v-2z" fill="rgb(153,150,150)"/>
<path d="M16 22h2v2h-2v-2z" fill="rgb(84,83,83)"/>
<path d="M18 22h2v2h-2v-2z" fill="rgb(56,55,55)"/>
<path d="M20 22h2v2h-2v-2z" fill="rgb(5,141,91)"/>
<path d="M22 22h2v2h-2v-2z" fill="rgb(29,211,143)"/>
<path d="M24 22h2v2h-2v-2z" fill="rgb(0,65,36)"/>
<path d="M4 24h2v2h-2v-2z" fill="rgb(84,83,83)"/>
<path d="M6 24h2v2h-2v-2z" fill="rgb(220,215,215)"/>
<path d="M8 24h2v2h-2v-2z" fill="rgb(186,182,182)"/>
<path d="M10 24h2v2h-2v-2z" fill="rgb(255,252,252)"/>
<path d="M12 24h2v4h-2v-4z" fill="rgb(220,215,215)"/>
<path d="M14 24h2v4h-2v-4z" fill="rgb(84,83,83)"/>
<path d="M16 24h2v2h-2v-2z" fill="rgb(220,215,215)"/>
<path d="M18 24h2v2h-2v-2z" fill="rgb(255,252,252)"/>
<path d="M20 24h2v2h-2v-2z" fill="rgb(56,55,55)"/>
<path d="M22 24h2v2h-2v-2z" fill="rgb(18,177,118)"/>
<path d="M24 24h2v2h-2v-2z" fill="rgb(29,211,143)"/>
<path d="M26 24h2v2h-2v-2z" fill="rgb(0,65,36)"/>
<path d="M2 26h2v4h-2v-4z" fill="rgb(84,83,83)"/>
<path d="M4 26h6v2h-2v2h-2v-2h-2v-2z" fill="rgb(255,252,252)"/>
<path d="M10 26h2v4h-2v-4z" fill="rgb(186,182,182)"/>
<path d="M16 26h2v2h-2v-2z" fill="rgb(191,25,25)"/>
<path d="M18 26h2v6h-2v-6z" fill="rgb(235,53,53)"/>
<path d="M20 26h2v6h-2v-6z" fill="rgb(191,25,25)"/>
<path d="M22 26h2v6h-2v-6z" fill="rgb(82,0,0)"/>
<path d="M24 26h4v2h-2v4h-2v-6z" fill="rgb(18,177,118)"/>
<path d="M28 26h2v4h-2v-4z" fill="rgb(0,65,36)"/>
<path d="M4 28h2v2h-2v-2z" fill="rgb(186,182,182)"/>
<path d="M8 28h2v4h-2v-4z" fill="rgb(220,215,215)"/>
<path d="M12 28h2v2h-2v-2z" fill="rgb(84,83,83)"/>
<path d="M14 28h2v4h-2v-4z" fill="rgb(235,53,53)"/>
<path d="M16 28h2v4h-2v-4z" fill="rgb(82,0,0)"/>
<path d="M26 28h2v6h-2v-6z" fill="rgb(29,211,143)"/>
<path d="M2 30h2v2h-2v-2z" fill="rgb(123,2,2)"/>
<path d="M4 30h2v2h-2v-2z" fill="rgb(84,83,83)"/>
<path d="M6 30h2v2h-2v-2z" fill="rgb(186,182,182)"/>
<path d="M10 30h2v2h-2v-2z" fill="rgb(84,83,83)"/>
<path d="M12 30h2v6h-4v-4h2v-2z" fill="rgb(191,25,25)"/>
<path d="M28 30h2v2h-2v-2z" fill="rgb(5,141,91)"/>
<path d="M30 30h2v2h-2v-2z" fill="rgb(0,65,36)"/>
<path d="M0 32h2v4h-2v-4z" fill="rgb(56,55,55)"/>
<path d="M2 32h2v2h-2v-2z" fill="rgb(220,215,215)"/>
<path d="M4 32h2v4h-2v-4z" fill="rgb(82,0,0)"/>
<path d="M6 32h4v2h-4v-2z" fill="rgb(84,83,83)"/>
<path d="M14 32h2v4h-2v-4z" fill="rgb(56,55,55)"/>
<path d="M16 32h6v4h-4v-2h-2v-2z" fill="rgb(255,252,252)"/>
<path d="M22 32h2v4h-2v-4z" fill="rgb(56,55,55)"/>
<path d="M24 32h2v4h-2v-4z" fill="rgb(5,141,91)"/>
<path d="M28 32h2v2h-2v-2z" fill="rgb(18,177,118)"/>
<path d="M30 32h2v2h-2v-2z" fill="rgb(37,27,12)"/>
<path d="M2 34h2v2h-2v-2z" fill="rgb(255,252,252)"/>
<path d="M6 34h2v2h-2v-2z" fill="rgb(191,25,25)"/>
<path d="M8 34h2v2h-2v-2z" fill="rgb(220,215,215)"/>
<path d="M16 34h2v2h-2v-2z" fill="rgb(220,215,215)"/>
<path d="M26 34h2v2h-2v-2z" fill="rgb(18,177,118)"/>
<path d="M28 34h2v2h-2v-2z" fill="rgb(177,6,6)"/>
<path d="M30 34h2v4h-2v-4z" fill="rgb(0,65,36)"/>
<path d="M0 36h2v4h-2v-4z" fill="rgb(94,64,52)"/>
<path d="M2 36h2v2h-2v-2z" fill="rgb(238,192,174)"/>
<path d="M4 36h2v4h-2v-4z" fill="rgb(56,55,55)"/>
<path d="M6 36h8v2h-8v-2z" fill="rgb(255,252,252)"/>
<path d="M14 36h2v4h-2v-4z" fill="rgb(94,64,52)"/>
<path d="M16 36h4v2h-4v-2z" fill="rgb(238,192,174)"/>
<path d="M20 36h2v4h-6v-2h4v-2z" fill="rgb(225,174,152)"/>
<path d="M22 36h2v4h-2v-4z" fill="rgb(94,64,52)"/>
<path d="M24 36h2v2h-2v-2z" fill="rgb(191,25,25)"/>
<path d="M26 36h2v2h-2v-2z" fill="rgb(235,53,53)"/>
<path d="M28 36h2v2h-2v-2z" fill="rgb(5,141,91)"/>
<path d="M2 38h2v2h-2v-2z" fill="rgb(225,174,152)"/>
<path d="M6 38h6v2h-6v-2z" fill="rgb(220,215,215)"/>
<path d="M12 38h2v2h-2v-2z" fill="rgb(153,150,150)"/>
<path d="M24 38h2v2h-2v-2z" fill="rgb(5,141,91)"/>
<path d="M26 38h2v2h-2v-2z" fill="rgb(18,177,118)"/>
<path d="M28 38h2v4h-2v-4z" fill="rgb(0,65,36)"/>
<path d="M30 38h2v14h-12v-6h6v-2h2v-2h2v-4z" fill="rgb(255,255,255)"/>
<path d="M0 40h2v2h2v6h-2v4h-2v-12z" fill="rgb(255,255,255)"/>
<path d="M2 40h2v2h-2v-2z" fill="rgb(94,64,52)"/>
<path d="M4 40h2v6h-2v-6z" fill="rgb(82,0,0)"/>
<path d="M6 40h2v4h-2v-4z" fill="rgb(235,53,53)"/>
<path d="M8 40h2v6h-2v-6z" fill="rgb(82,0,0)"/>
<path d="M10 40h2v4h-2v-4z" fill="rgb(235,53,53)"/>
<path d="M12 40h2v4h2v4h-4v-2h-2v-2h2v-4z" fill="rgb(191,25,25)"/>
<path d="M14 40h2v4h-2v-4z" fill="rgb(177,6,6)"/>
<path d="M16 40h6v2h-6v-2z" fill="rgb(94,64,52)"/>
<path d="M22 40h2v2h-2v-2z" fill="rgb(1,103,64)"/>
<path d="M24 40h2v2h-2v-2z" fill="rgb(18,177,118)"/>
<path d="M26 40h2v2h-2v-2z" fill="rgb(1,103,64)"/>
<path d="M16 42h2v2h-2v-2z" fill="rgb(82,0,0)"/>
<path d="M18 42h4v2h-4v-2z" fill="rgb(1,103,64)"/>
<path d="M22 42h2v2h-2v-2z" fill="rgb(5,141,91)"/>
<path d="M24 42h2v2h-2v-2z" fill="rgb(1,103,64)"/>
<path d="M26 42h2v2h-2v-2z" fill="rgb(0,65,36)"/>
<path d="M6 44h2v2h-2v-2z" fill="rgb(191,25,25)"/>
<path d="M16 44h2v6h-4v-2h2v-4z" fill="rgb(177,6,6)"/>
<path d="M18 44h2v8h-6v-2h4v-6z" fill="rgb(82,0,0)"/>
<path d="M20 44h6v2h-6v-2z" fill="rgb(0,65,36)"/>
<path d="M4 46h2v2h-2v-2z" fill="rgb(39,37,31)"/>
<path d="M6 46h2v2h-2v-2z" fill="rgb(61,59,46)"/>
<path d="M8 46h2v2h-2v-2z" fill="rgb(39,37,31)"/>
<path d="M10 46h2v2h2v2h-4v-4z" fill="rgb(61,59,46)"/>
<path d="M2 48h2v2h2v-2h2v2h6v2h-12v-4z" fill="rgb(39,37,31)"/>
<path d="M4 48h2v2h-2v-2z" fill="rgb(96,93,73)"/>
<path d="M8 48h2v2h-2v-2z" fill="rgb(96,93,73)"/>
</svg>