<?xml version="1.0" encoding="utf-8"?>
<!-- generated at drububu.com  -->
<!DOCTYPE svg PUBLIC "-//W3C//DTD SVG 1.1//EN" "http://www.w3.org/Graphics/SVG/1.1/DTD/svg11.dtd">
<svg version="1.1" preserveAspectRatio="xMinYMin meet" xmlns="http://www.w3.org/2000/svg" xmlns:xlink="http://www.w3.org/1999/xlink" x="0px" y="0px" width="42px" height="48px" viewBox="0 0 42 48">
<path d="M0 0h10v2h-2v2h-2v4h-2v2h-2v2h-2v-12z" fill="rgb(255,255,255)"/>
<path d="M10 0h14v2h-14v-2z" fill="rgb(34,31,37)"/>
<path d="M24 0h18v24h-2v-4h-2v-4h-2v-2h-2v-6h-6v-4h-2v-2h-2v-2z" fill="rgb(255,255,255)"/>
<path d="M8 2h2v2h-2v-2z" fill="rgb(34,31,37)"/>
<path d="M10 2h6v2h-2v2h-4v-4z" fill="rgb(117,110,122)"/>
<path d="M16 2h2v2h2v2h-2v2h-8v-2h4v-2h2v-2z" fill="rgb(100,94,105)"/>
<path d="M18 2h2v2h-2v-2z" fill="rgb(77,73,80)"/>
<path d="M20 2h4v2h2v2h-2v2h-2v-4h-2v-2z" fill="rgb(52,49,54)"/>
<path d="M24 2h2v2h-2v-2z" fill="rgb(34,31,37)"/>
<path d="M6 4h2v4h12v2h-16v-2h2v-4z" fill="rgb(34,31,37)"/>
<path d="M8 4h2v2h-2v-2z" fill="rgb(100,94,105)"/>
<path d="M20 4h2v4h-4v-2h2v-2z" fill="rgb(77,73,80)"/>
<path d="M26 4h2v4h6v4h-2v-2h-6v2h-6v-2h2v-2h2v-2h2v-2z" fill="rgb(34,31,37)"/>
<path d="M8 6h2v2h-2v-2z" fill="rgb(77,73,80)"/>
<path d="M20 8h2v2h-2v-2z" fill="rgb(52,49,54)"/>
<path d="M2 10h2v2h-2v-2z" fill="rgb(34,31,37)"/>
<path d="M4 10h2v2h-2v-2z" fill="rgb(100,94,105)"/>
<path d="M6 10h6v2h-6v-2z" fill="rgb(117,110,122)"/>
<path d="M12 10h2v2h-2v-2z" fill="rgb(100,94,105)"/>
<path d="M14 10h6v2h-6v-2z" fill="rgb(77,73,80)"/>
<path d="M26 10h2v2h-2v-2z" fill="rgb(77,73,80)"/>
<path d="M28 10h4v2h-4v-2z" fill="rgb(52,49,54)"/>
<path d="M0 12h2v2h4v2h-6v-4z" fill="rgb(34,31,37)"/>
<path d="M2 12h2v2h-2v-2z" fill="rgb(100,94,105)"/>
<path d="M4 12h2v2h-2v-2z" fill="rgb(77,73,80)"/>
<path d="M6 12h2v2h-2v-2z" fill="rgb(52,49,54)"/>
<path d="M8 12h10v2h-10v-2z" fill="rgb(34,31,37)"/>
<path d="M18 12h2v2h-2v-2z" fill="rgb(52,49,54)"/>
<path d="M20 12h4v2h-4v-2z" fill="rgb(77,73,80)"/>
<path d="M24 12h4v2h-4v-2z" fill="rgb(52,49,54)"/>
<path d="M28 12h4v2h-4v-2z" fill="rgb(34,31,37)"/>
<path d="M32 12h2v2h-2v-2z" fill="rgb(42,34,26)"/>
<path d="M6 14h4v2h-2v2h-2v-4z" fill="rgb(49,49,30)"/>
<path d="M10 14h2v2h-2v-2z" fill="rgb(91,91,58)"/>
<path d="M12 14h2v2h-2v-2z" fill="rgb(49,49,30)"/>
<path d="M14 14h2v2h-2v-2z" fill="rgb(91,91,58)"/>
<path d="M16 14h2v2h-2v-2z" fill="rgb(49,49,30)"/>
<path d="M18 14h10v2h-10v-2z" fill="rgb(34,31,37)"/>
<path d="M28 14h4v2h-4v-2z" fill="rgb(149,107,79)"/>
<path d="M32 14h2v2h-2v-2z" fill="rgb(97,69,54)"/>
<path d="M34 14h2v2h-2v-2z" fill="rgb(42,34,26)"/>
<path d="M0 16h6v2h2v2h-2v2h2v2h-2v2h2v2h4v2h-2v6h2v2h2v6h-2v4h-12v-32z" fill="rgb(255,255,255)"/>
<path d="M8 16h2v2h-2v-2z" fill="rgb(130,130,95)"/>
<path d="M10 16h2v2h-2v-2z" fill="rgb(59,1,1)"/>
<path d="M12 16h2v2h-2v-2z" fill="rgb(181,4,8)"/>
<path d="M14 16h4v2h-2v2h-6v-2h4v-2z" fill="rgb(154,154,118)"/>
<path d="M18 16h4v2h-2v2h-2v2h-8v-2h6v-2h2v-2z" fill="rgb(130,130,95)"/>
<path d="M22 16h2v2h-2v-2z" fill="rgb(91,91,58)"/>
<path d="M24 16h2v2h-2v-2z" fill="rgb(49,49,30)"/>
<path d="M26 16h2v2h-2v-2z" fill="rgb(149,107,79)"/>
<path d="M28 16h4v2h-4v-2z" fill="rgb(79,56,44)"/>
<path d="M32 16h2v2h-2v-2z" fill="rgb(149,107,79)"/>
<path d="M34 16h2v2h-2v-2z" fill="rgb(97,69,54)"/>
<path d="M36 16h2v4h-2v-4z" fill="rgb(42,34,26)"/>
<path d="M8 18h2v2h-2v-2z" fill="rgb(49,49,30)"/>
<path d="M20 18h2v2h-2v-2z" fill="rgb(91,91,58)"/>
<path d="M22 18h2v2h-2v-2z" fill="rgb(49,49,30)"/>
<path d="M24 18h2v2h-2v-2z" fill="rgb(149,107,79)"/>
<path d="M26 18h2v2h-2v-2z" fill="rgb(79,56,44)"/>
<path d="M28 18h2v2h-2v-2z" fill="rgb(42,34,26)"/>
<path d="M30 18h2v2h-2v-2z" fill="rgb(54,20,25)"/>
<path d="M32 18h2v2h-2v-2z" fill="rgb(79,56,44)"/>
<path d="M34 18h2v2h-2v-2z" fill="rgb(149,107,79)"/>
<path d="M6 20h2v2h-2v-2z" fill="rgb(49,49,30)"/>
<path d="M8 20h2v2h-2v-2z" fill="rgb(179,180,139)"/>
<path d="M18 20h2v2h-2v-2z" fill="rgb(91,91,58)"/>
<path d="M20 20h2v2h-2v-2z" fill="rgb(49,49,30)"/>
<path d="M22 20h2v2h-2v-2z" fill="rgb(128,92,67)"/>
<path d="M24 20h2v2h-2v-2z" fill="rgb(79,56,44)"/>
<path d="M26 20h2v2h-2v-2z" fill="rgb(42,34,26)"/>
<path d="M28 20h2v2h-2v-2z" fill="rgb(124,55,64)"/>
<path d="M30 20h2v2h-2v-2z" fill="rgb(171,83,85)"/>
<path d="M32 20h2v4h-2v-4z" fill="rgb(54,20,25)"/>
<path d="M34 20h4v4h-4v-4z" fill="rgb(128,92,67)"/>
<path d="M38 20h2v4h-2v-4z" fill="rgb(42,34,26)"/>
<path d="M8 22h6v2h-6v-2z" fill="rgb(31,31,17)"/>
<path d="M14 22h4v2h-2v2h-4v-2h2v-2z" fill="rgb(91,91,58)"/>
<path d="M18 22h2v2h-2v-2z" fill="rgb(49,49,30)"/>
<path d="M20 22h2v2h-2v-2z" fill="rgb(97,69,54)"/>
<path d="M22 22h2v2h-2v-2z" fill="rgb(79,56,44)"/>
<path d="M24 22h2v2h-2v-2z" fill="rgb(42,34,26)"/>
<path d="M26 22h2v2h-2v-2z" fill="rgb(124,55,64)"/>
<path d="M28 22h2v2h-2v-2z" fill="rgb(54,20,25)"/>
<path d="M30 22h2v2h-2v-2z" fill="rgb(124,55,64)"/>
<path d="M6 24h2v2h-2v-2z" fill="rgb(31,31,17)"/>
<path d="M8 24h2v2h-2v-2z" fill="rgb(179,180,139)"/>
<path d="M10 24h2v2h-2v-2z" fill="rgb(130,130,95)"/>
<path d="M16 24h2v2h-2v-2z" fill="rgb(49,49,30)"/>
<path d="M18 24h2v8h-2v-8z" fill="rgb(42,34,26)"/>
<path d="M20 24h2v2h-2v-2z" fill="rgb(79,56,44)"/>
<path d="M22 24h2v2h-2v-2z" fill="rgb(42,34,26)"/>
<path d="M24 24h4v2h-4v-2z" fill="rgb(49,49,30)"/>
<path d="M28 24h2v2h2v4h-2v-2h-2v-4z" fill="rgb(91,91,58)"/>
<path d="M30 24h2v2h-2v-2z" fill="rgb(54,20,25)"/>
<path d="M32 24h2v6h-2v-6z" fill="rgb(49,49,30)"/>
<path d="M34 24h2v8h-2v-8z" fill="rgb(97,69,54)"/>
<path d="M36 24h2v4h-2v-4z" fill="rgb(149,107,79)"/>
<path d="M38 24h2v4h-2v-4z" fill="rgb(97,69,54)"/>
<path d="M40 24h2v6h-2v-6z" fill="rgb(42,34,26)"/>
<path d="M8 26h8v2h-8v-2z" fill="rgb(49,49,30)"/>
<path d="M16 26h2v2h-2v-2z" fill="rgb(54,20,25)"/>
<path d="M20 26h2v4h-2v-4z" fill="rgb(49,49,30)"/>
<path d="M22 26h6v2h-6v-2z" fill="rgb(177,177,147)"/>
<path d="M12 28h4v8h-2v-6h-2v-2z" fill="rgb(54,20,25)"/>
<path d="M16 28h2v2h-2v-2z" fill="rgb(124,55,64)"/>
<path d="M22 28h4v2h-4v-2z" fill="rgb(154,154,118)"/>
<path d="M26 28h4v2h-2v2h-4v-2h2v-2z" fill="rgb(130,130,95)"/>
<path d="M36 28h2v4h-2v-4z" fill="rgb(128,92,67)"/>
<path d="M38 28h2v2h-2v-2z" fill="rgb(79,56,44)"/>
<path d="M10 30h2v6h-2v-6z" fill="rgb(49,49,30)"/>
<path d="M12 30h2v2h-2v-2z" fill="rgb(91,91,58)"/>
<path d="M16 30h2v2h-2v-2z" fill="rgb(171,83,85)"/>
<path d="M20 30h2v2h-2v-2z" fill="rgb(79,56,44)"/>
<path d="M22 30h2v2h-2v-2z" fill="rgb(49,49,30)"/>
<path d="M28 30h2v2h-2v-2z" fill="rgb(91,91,58)"/>
<path d="M30 30h2v2h-2v-2z" fill="rgb(49,49,30)"/>
<path d="M32 30h2v2h2v4h-6v-4h2v-2z" fill="rgb(79,56,44)"/>
<path d="M38 30h2v4h-2v-4z" fill="rgb(42,34,26)"/>
<path d="M40 30h2v18h-12v-8h-2v-2h8v-2h2v-2h2v-4z" fill="rgb(255,255,255)"/>
<path d="M12 32h2v4h-2v-4z" fill="rgb(130,130,95)"/>
<path d="M16 32h2v2h-2v-2z" fill="rgb(124,55,64)"/>
<path d="M18 32h2v2h-2v-2z" fill="rgb(81,34,41)"/>
<path d="M20 32h2v2h-2v-2z" fill="rgb(42,34,26)"/>
<path d="M22 32h2v2h-2v-2z" fill="rgb(124,55,64)"/>
<path d="M24 32h6v2h-6v-2z" fill="rgb(49,49,30)"/>
<path d="M36 32h2v2h-2v-2z" fill="rgb(97,69,54)"/>
<path d="M16 34h2v2h-2v-2z" fill="rgb(171,83,85)"/>
<path d="M18 34h2v2h-2v-2z" fill="rgb(54,20,25)"/>
<path d="M20 34h2v4h-2v-4z" fill="rgb(52,49,54)"/>
<path d="M22 34h2v2h-2v-2z" fill="rgb(54,20,25)"/>
<path d="M24 34h4v6h-2v-4h-2v-2z" fill="rgb(34,31,37)"/>
<path d="M28 34h2v2h6v2h-8v-4z" fill="rgb(42,34,26)"/>
<path d="M36 34h2v2h-2v-2z" fill="rgb(42,34,26)"/>
<path d="M12 36h2v2h-2v-2z" fill="rgb(49,49,30)"/>
<path d="M14 36h2v6h2v-6h2v6h2v2h-8v-8z" fill="rgb(34,31,37)"/>
<path d="M16 36h2v2h-2v-2z" fill="rgb(54,20,25)"/>
<path d="M22 36h2v2h-2v-2z" fill="rgb(77,73,80)"/>
<path d="M24 36h2v2h-2v-2z" fill="rgb(52,49,54)"/>
<path d="M16 38h2v2h-2v-2z" fill="rgb(52,49,54)"/>
<path d="M20 38h2v2h-2v-2z" fill="rgb(77,73,80)"/>
<path d="M22 38h2v2h-2v-2z" fill="rgb(100,94,105)"/>
<path d="M24 38h2v2h-2v-2z" fill="rgb(77,73,80)"/>
<path d="M16 40h2v2h-2v-2z" fill="rgb(77,73,80)"/>
<path d="M20 40h2v2h-2v-2z" fill="rgb(100,94,105)"/>
<path d="M22 40h2v2h-2v-2z" fill="rgb(34,31,37)"/>
<path d="M24 40h2v2h-2v-2z" fill="rgb(100,94,105)"/>
<path d="M26 40h2v2h-2v-2z" fill="rgb(77,73,80)"/>
<path d="M28 40h2v4h-6v-2h4v-2z" fill="rgb(34,31,37)"/>
<path d="M22 42h2v2h-2v-2z" fill="rgb(91,91,58)"/>
<path d="M12 44h2v2h2v-2h2v2h10v-2h2v4h-18v-4z" fill="rgb(49,49,30)"/>
<path d="M14 44h2v2h-2v-2z" fill="rgb(154,154,118)"/>
<path d="M18 44h4v2h-4v-2z" fill="rgb(177,177,147)"/>
<path d="M22 44h2v2h-2v-2z" fill="rgb(154,154,118)"/>
<path d="M24 44h2v2h-2v-2z" fill="rgb(130,130,95)"/>
<path d="M26 44h2v2h-2v-2z" fill="rgb(91,91,58)"/>
</svg>