<?xml version="1.0" encoding="utf-8"?>
<!-- generated at drububu.com  -->
<!DOCTYPE svg PUBLIC "-//W3C//DTD SVG 1.1//EN" "http://www.w3.org/Graphics/SVG/1.1/DTD/svg11.dtd">
<svg version="1.1" preserveAspectRatio="xMinYMin meet" xmlns="http://www.w3.org/2000/svg" xmlns:xlink="http://www.w3.org/1999/xlink" x="0px" y="0px" width="22px" height="50px" viewBox="0 0 22 50">
<path d="M0 0h4v2h-2v8h-2v-10z" fill="rgb(255,255,255)"/>
<path d="M4 0h12v2h-12v-2z" fill="rgb(8,12,12)"/>
<path d="M16 0h6v16h-2v-2h-2v-2h2v-2h-2v-8h-2v-2z" fill="rgb(255,255,255)"/>
<path d="M2 2h2v4h-2v-4z" fill="rgb(8,12,12)"/>
<path d="M4 2h8v2h-8v-2z" fill="rgb(91,102,102)"/>
<path d="M12 2h4v2h-4v-2z" fill="rgb(77,85,85)"/>
<path d="M16 2h2v6h-2v-6z" fill="rgb(8,12,12)"/>
<path d="M4 4h4v2h-4v-2z" fill="rgb(32,62,61)"/>
<path d="M8 4h2v2h-2v-2z" fill="rgb(77,85,85)"/>
<path d="M10 4h6v2h-6v-2z" fill="rgb(66,75,75)"/>
<path d="M2 6h2v4h-2v-4z" fill="rgb(32,62,61)"/>
<path d="M4 6h2v2h-2v-2z" fill="rgb(176,222,202)"/>
<path d="M6 6h2v2h-2v-2z" fill="rgb(110,199,197)"/>
<path d="M8 6h8v2h-8v-2z" fill="rgb(13,32,33)"/>
<path d="M4 8h2v2h-2v-2z" fill="rgb(110,199,197)"/>
<path d="M6 8h2v2h-2v-2z" fill="rgb(65,120,119)"/>
<path d="M8 8h2v2h-2v-2z" fill="rgb(68,81,64)"/>
<path d="M10 8h2v2h-2v-2z" fill="rgb(52,63,49)"/>
<path d="M12 8h2v2h-2v-2z" fill="rgb(68,81,64)"/>
<path d="M14 8h2v2h-2v-2z" fill="rgb(52,63,49)"/>
<path d="M16 8h2v2h-2v-2z" fill="rgb(13,32,33)"/>
<path d="M0 10h4v2h-4v-2z" fill="rgb(8,12,12)"/>
<path d="M4 10h4v2h-4v-2z" fill="rgb(32,62,61)"/>
<path d="M8 10h8v2h-8v-2z" fill="rgb(13,32,33)"/>
<path d="M16 10h4v2h-4v-2z" fill="rgb(8,12,12)"/>
<path d="M0 12h2v4h-2v-4z" fill="rgb(22,1,0)"/>
<path d="M2 12h2v2h-2v-2z" fill="rgb(60,8,0)"/>
<path d="M4 12h2v6h6v2h-2v2h-6v-10z" fill="rgb(238,151,119)"/>
<path d="M6 12h4v2h-4v-2z" fill="rgb(22,1,0)"/>
<path d="M10 12h2v2h-2v-2z" fill="rgb(37,5,0)"/>
<path d="M12 12h2v2h-2v-2z" fill="rgb(60,8,0)"/>
<path d="M14 12h2v2h-2v-2z" fill="rgb(76,13,0)"/>
<path d="M16 12h2v2h-2v-2z" fill="rgb(22,1,0)"/>
<path d="M2 14h2v2h-2v-2z" fill="rgb(96,19,0)"/>
<path d="M6 14h2v2h-2v-2z" fill="rgb(73,104,131)"/>
<path d="M8 14h2v4h-2v-4z" fill="rgb(247,247,247)"/>
<path d="M10 14h2v2h-2v-2z" fill="rgb(60,8,0)"/>
<path d="M12 14h2v2h-2v-2z" fill="rgb(76,13,0)"/>
<path d="M14 14h2v2h-2v-2z" fill="rgb(60,8,0)"/>
<path d="M16 14h2v2h-2v-2z" fill="rgb(96,19,0)"/>
<path d="M18 14h2v2h-2v-2z" fill="rgb(22,1,0)"/>
<path d="M0 16h2v2h-2v-2z" fill="rgb(255,255,255)"/>
<path d="M2 16h2v2h-2v-2z" fill="rgb(83,41,27)"/>
<path d="M6 16h2v2h-2v-2z" fill="rgb(74,133,133)"/>
<path d="M10 16h2v2h-2v-2z" fill="rgb(75,31,10)"/>
<path d="M12 16h2v2h-2v-2z" fill="rgb(255,190,164)"/>
<path d="M14 16h2v2h-2v-2z" fill="rgb(76,13,0)"/>
<path d="M16 16h2v2h-2v-2z" fill="rgb(60,8,0)"/>
<path d="M18 16h2v2h-2v-2z" fill="rgb(96,19,0)"/>
<path d="M20 16h2v6h-2v-6z" fill="rgb(22,1,0)"/>
<path d="M0 18h2v2h-2v-2z" fill="rgb(83,41,27)"/>
<path d="M2 18h2v2h-2v-2z" fill="rgb(255,190,164)"/>
<path d="M12 18h2v2h-2v-2z" fill="rgb(235,139,103)"/>
<path d="M14 18h2v2h-2v-2z" fill="rgb(22,1,0)"/>
<path d="M16 18h2v2h-2v-2z" fill="rgb(37,5,0)"/>
<path d="M18 18h2v2h-2v-2z" fill="rgb(60,8,0)"/>
<path d="M0 20h2v8h-2v-8z" fill="rgb(255,255,255)"/>
<path d="M2 20h2v2h-2v-2z" fill="rgb(83,41,27)"/>
<path d="M10 20h2v2h-2v-2z" fill="rgb(235,139,103)"/>
<path d="M12 20h2v2h-2v-2z" fill="rgb(83,41,27)"/>
<path d="M14 20h2v2h-2v-2z" fill="rgb(108,141,92)"/>
<path d="M16 20h2v2h-2v-2z" fill="rgb(22,1,0)"/>
<path d="M18 20h2v2h-2v-2z" fill="rgb(37,5,0)"/>
<path d="M2 22h2v8h-2v-8z" fill="rgb(26,42,16)"/>
<path d="M4 22h8v2h-8v-2z" fill="rgb(83,41,27)"/>
<path d="M12 22h2v2h-2v-2z" fill="rgb(104,55,30)"/>
<path d="M14 22h4v2h-4v-2z" fill="rgb(71,105,52)"/>
<path d="M18 22h2v8h-2v-8z" fill="rgb(26,42,16)"/>
<path d="M20 22h2v28h-6v-14h2v-2h2v-12z" fill="rgb(255,255,255)"/>
<path d="M4 24h2v2h-2v-2z" fill="rgb(104,55,30)"/>
<path d="M6 24h2v2h-2v-2z" fill="rgb(61,30,13)"/>
<path d="M8 24h2v2h-2v-2z" fill="rgb(235,139,103)"/>
<path d="M10 24h4v2h-4v-2z" fill="rgb(61,30,13)"/>
<path d="M14 24h2v6h-2v-6z" fill="rgb(26,42,16)"/>
<path d="M16 24h2v4h-2v-4z" fill="rgb(51,76,35)"/>
<path d="M4 26h2v2h-2v-2z" fill="rgb(108,141,92)"/>
<path d="M6 26h2v2h-2v-2z" fill="rgb(104,55,30)"/>
<path d="M8 26h2v2h-2v-2z" fill="rgb(166,129,58)"/>
<path d="M10 26h2v2h-2v-2z" fill="rgb(104,55,30)"/>
<path d="M12 26h2v2h-2v-2z" fill="rgb(108,141,92)"/>
<path d="M0 28h2v6h-2v-6z" fill="rgb(83,41,27)"/>
<path d="M4 28h2v2h-2v-2z" fill="rgb(50,71,37)"/>
<path d="M6 28h2v4h-2v-4z" fill="rgb(61,30,13)"/>
<path d="M8 28h2v2h-2v-2z" fill="rgb(104,55,30)"/>
<path d="M10 28h2v4h-2v-4z" fill="rgb(61,30,13)"/>
<path d="M12 28h2v2h-2v-2z" fill="rgb(50,71,37)"/>
<path d="M16 28h2v2h-2v-2z" fill="rgb(65,120,119)"/>
<path d="M2 30h2v2h-2v-2z" fill="rgb(238,151,119)"/>
<path d="M4 30h2v4h-2v-4z" fill="rgb(27,10,3)"/>
<path d="M8 30h2v2h-2v-2z" fill="rgb(151,116,48)"/>
<path d="M12 30h2v4h-2v-4z" fill="rgb(83,41,27)"/>
<path d="M14 30h2v4h-2v-4z" fill="rgb(255,190,164)"/>
<path d="M16 30h2v2h-2v-2z" fill="rgb(238,151,119)"/>
<path d="M18 30h2v4h-2v-4z" fill="rgb(83,41,27)"/>
<path d="M2 32h2v2h-2v-2z" fill="rgb(222,134,104)"/>
<path d="M6 32h2v2h-2v-2z" fill="rgb(104,55,30)"/>
<path d="M8 32h2v2h-2v-2z" fill="rgb(215,215,215)"/>
<path d="M10 32h2v2h-2v-2z" fill="rgb(104,55,30)"/>
<path d="M16 32h2v2h-2v-2z" fill="rgb(222,134,104)"/>
<path d="M0 34h2v2h2v10h-2v4h-2v-16z" fill="rgb(255,255,255)"/>
<path d="M2 34h2v2h-2v-2z" fill="rgb(83,41,27)"/>
<path d="M4 34h2v4h-2v-4z" fill="rgb(62,62,62)"/>
<path d="M6 34h2v2h-2v-2z" fill="rgb(172,172,171)"/>
<path d="M8 34h2v2h-2v-2z" fill="rgb(113,113,113)"/>
<path d="M10 34h2v2h-2v-2z" fill="rgb(172,172,171)"/>
<path d="M12 34h2v2h-2v-2z" fill="rgb(113,113,113)"/>
<path d="M14 34h4v2h-4v-2z" fill="rgb(83,41,27)"/>
<path d="M6 36h6v2h-6v-2z" fill="rgb(235,235,235)"/>
<path d="M12 36h2v2h-2v-2z" fill="rgb(215,215,215)"/>
<path d="M14 36h2v2h-2v-2z" fill="rgb(62,62,62)"/>
<path d="M4 38h2v2h-2v-2z" fill="rgb(83,41,27)"/>
<path d="M6 38h2v2h-2v-2z" fill="rgb(255,190,164)"/>
<path d="M8 38h2v2h-2v-2z" fill="rgb(83,41,27)"/>
<path d="M10 38h2v2h-2v-2z" fill="rgb(255,190,164)"/>
<path d="M12 38h2v2h-2v-2z" fill="rgb(238,151,119)"/>
<path d="M14 38h2v2h-2v-2z" fill="rgb(83,41,27)"/>
<path d="M4 40h2v4h-2v-4z" fill="rgb(32,6,6)"/>
<path d="M6 40h2v2h-2v-2z" fill="rgb(104,35,35)"/>
<path d="M8 40h2v4h-2v-4z" fill="rgb(32,6,6)"/>
<path d="M10 40h2v2h-2v-2z" fill="rgb(104,35,35)"/>
<path d="M12 40h2v2h-2v-2z" fill="rgb(85,27,27)"/>
<path d="M14 40h2v4h-2v-4z" fill="rgb(32,6,6)"/>
<path d="M6 42h2v2h-2v-2z" fill="rgb(53,13,13)"/>
<path d="M10 42h4v2h-4v-2z" fill="rgb(53,13,13)"/>
<path d="M4 44h2v2h-2v-2z" fill="rgb(19,13,13)"/>
<path d="M6 44h2v2h-2v-2z" fill="rgb(136,108,108)"/>
<path d="M8 44h2v2h-2v-2z" fill="rgb(19,13,13)"/>
<path d="M10 44h2v2h-2v-2z" fill="rgb(136,108,108)"/>
<path d="M12 44h2v2h-2v-2z" fill="rgb(96,76,76)"/>
<path d="M14 44h2v6h-14v-4h2v2h2v-2h2v2h6v-4z" fill="rgb(19,13,13)"/>
<path d="M4 46h2v2h-2v-2z" fill="rgb(58,44,44)"/>
<path d="M8 46h2v2h-2v-2z" fill="rgb(58,44,44)"/>
<path d="M10 46h4v2h-4v-2z" fill="rgb(41,31,31)"/>
</svg>