<?xml version="1.0" encoding="utf-8"?>
<!-- generated at drububu.com  -->
<!DOCTYPE svg PUBLIC "-//W3C//DTD SVG 1.1//EN" "http://www.w3.org/Graphics/SVG/1.1/DTD/svg11.dtd">
<svg version="1.1" preserveAspectRatio="xMinYMin meet" xmlns="http://www.w3.org/2000/svg" xmlns:xlink="http://www.w3.org/1999/xlink" x="0px" y="0px" width="32px" height="52px" viewBox="0 0 32 52">
<path d="M0 0h18v2h-2v2h-6v2h-4v2h-2v2h-2v2h-2v-12z" fill="rgb(255,255,255)"/>
<path d="M18 0h2v2h-2v-2z" fill="rgb(8,33,52)"/>
<path d="M20 0h12v34h-2v-2h-2v-6h2v-2h-2v-6h-2v-6h-2v-4h2v-2h-4v-4h-2v-2z" fill="rgb(255,255,255)"/>
<path d="M16 2h2v2h-2v-2z" fill="rgb(8,33,52)"/>
<path d="M18 2h2v2h-2v-2z" fill="rgb(69,132,181)"/>
<path d="M20 2h2v4h-2v-4z" fill="rgb(8,33,52)"/>
<path d="M10 4h6v2h-6v-2z" fill="rgb(8,33,52)"/>
<path d="M16 4h2v2h-2v-2z" fill="rgb(69,132,181)"/>
<path d="M18 4h2v2h-2v-2z" fill="rgb(53,103,142)"/>
<path d="M6 6h2v2h-2v-2z" fill="rgb(56,2,31)"/>
<path d="M8 6h2v2h-2v-2z" fill="rgb(8,33,52)"/>
<path d="M10 6h2v2h-2v-2z" fill="rgb(53,103,142)"/>
<path d="M12 6h2v2h-2v-2z" fill="rgb(69,132,181)"/>
<path d="M14 6h2v2h-2v-2z" fill="rgb(53,103,142)"/>
<path d="M16 6h2v2h-2v-2z" fill="rgb(30,64,91)"/>
<path d="M18 6h2v2h-2v-2z" fill="rgb(8,33,52)"/>
<path d="M20 6h2v2h-2v-2z" fill="rgb(30,64,91)"/>
<path d="M22 6h2v2h-2v-2z" fill="rgb(53,103,142)"/>
<path d="M24 6h2v2h-2v-2z" fill="rgb(8,33,52)"/>
<path d="M4 8h2v2h-2v-2z" fill="rgb(56,2,31)"/>
<path d="M6 8h2v2h-2v-2z" fill="rgb(117,14,71)"/>
<path d="M8 8h2v2h-2v-2z" fill="rgb(169,17,50)"/>
<path d="M10 8h6v2h-6v-2z" fill="rgb(8,33,52)"/>
<path d="M16 8h2v2h-2v-2z" fill="rgb(69,132,181)"/>
<path d="M18 8h2v2h-2v-2z" fill="rgb(30,64,91)"/>
<path d="M20 8h2v2h-2v-2z" fill="rgb(53,103,142)"/>
<path d="M22 8h2v2h-2v-2z" fill="rgb(8,33,52)"/>
<path d="M2 10h2v2h-2v-2z" fill="rgb(56,2,31)"/>
<path d="M4 10h2v2h-2v-2z" fill="rgb(222,26,68)"/>
<path d="M6 10h2v2h-2v-2z" fill="rgb(169,17,50)"/>
<path d="M8 10h2v2h-2v-2z" fill="rgb(222,26,68)"/>
<path d="M10 10h2v2h-2v-2z" fill="rgb(169,17,50)"/>
<path d="M12 10h2v2h-2v-2z" fill="rgb(228,66,100)"/>
<path d="M14 10h2v2h-2v-2z" fill="rgb(222,26,68)"/>
<path d="M16 10h2v2h-2v-2z" fill="rgb(8,33,52)"/>
<path d="M18 10h2v2h-2v-2z" fill="rgb(53,103,142)"/>
<path d="M20 10h2v2h-2v-2z" fill="rgb(8,33,52)"/>
<path d="M22 10h2v2h-2v-2z" fill="rgb(56,2,31)"/>
<path d="M0 12h2v2h-2v-2z" fill="rgb(56,2,31)"/>
<path d="M2 12h2v2h-2v-2z" fill="rgb(228,66,100)"/>
<path d="M4 12h2v2h-2v-2z" fill="rgb(169,17,50)"/>
<path d="M6 12h4v2h-2v2h-4v-2h2v-2z" fill="rgb(117,14,71)"/>
<path d="M10 12h2v2h-2v-2z" fill="rgb(228,66,100)"/>
<path d="M12 12h2v2h-2v-2z" fill="rgb(169,17,50)"/>
<path d="M14 12h2v2h-2v-2z" fill="rgb(228,66,100)"/>
<path d="M16 12h2v2h-2v-2z" fill="rgb(169,17,50)"/>
<path d="M18 12h2v2h-2v-2z" fill="rgb(8,33,52)"/>
<path d="M20 12h2v2h-2v-2z" fill="rgb(86,6,51)"/>
<path d="M22 12h2v2h-2v-2z" fill="rgb(169,17,50)"/>
<path d="M24 12h2v6h-2v-6z" fill="rgb(56,2,31)"/>
<path d="M0 14h2v4h2v2h2v2h-2v2h2v8h-2v6h2v6h2v4h-2v4h-6v-38z" fill="rgb(255,255,255)"/>
<path d="M2 14h2v4h-2v-4z" fill="rgb(56,2,31)"/>
<path d="M8 14h2v2h-2v-2z" fill="rgb(56,2,31)"/>
<path d="M10 14h2v2h-2v-2z" fill="rgb(169,17,50)"/>
<path d="M12 14h2v2h-2v-2z" fill="rgb(228,66,100)"/>
<path d="M14 14h4v2h-4v-2z" fill="rgb(235,106,133)"/>
<path d="M18 14h2v2h-2v-2z" fill="rgb(169,17,50)"/>
<path d="M20 14h2v2h-2v-2z" fill="rgb(235,106,133)"/>
<path d="M22 14h2v2h-2v-2z" fill="rgb(222,26,68)"/>
<path d="M4 16h2v2h-2v-2z" fill="rgb(222,26,68)"/>
<path d="M6 16h2v2h-2v-2z" fill="rgb(56,2,31)"/>
<path d="M8 16h2v2h-2v-2z" fill="rgb(222,119,39)"/>
<path d="M10 16h2v2h-2v-2z" fill="rgb(56,2,31)"/>
<path d="M12 16h2v2h-2v-2z" fill="rgb(117,14,71)"/>
<path d="M14 16h2v2h-2v-2z" fill="rgb(169,17,50)"/>
<path d="M16 16h2v2h-2v-2z" fill="rgb(228,66,100)"/>
<path d="M18 16h2v2h-2v-2z" fill="rgb(222,26,68)"/>
<path d="M20 16h2v2h-2v-2z" fill="rgb(169,17,50)"/>
<path d="M22 16h2v2h-2v-2z" fill="rgb(235,106,133)"/>
<path d="M4 18h2v2h-2v-2z" fill="rgb(56,2,31)"/>
<path d="M6 18h2v4h-2v-4z" fill="rgb(75,44,23)"/>
<path d="M8 18h2v6h4v2h-6v-8z" fill="rgb(238,160,107)"/>
<path d="M10 18h2v2h-2v-2z" fill="rgb(0,84,0)"/>
<path d="M12 18h4v2h-4v-2z" fill="rgb(56,2,31)"/>
<path d="M16 18h2v2h-2v-2z" fill="rgb(117,14,71)"/>
<path d="M18 18h2v2h-2v-2z" fill="rgb(169,17,50)"/>
<path d="M20 18h2v4h-2v-4z" fill="rgb(117,14,71)"/>
<path d="M22 18h2v2h-2v-2z" fill="rgb(228,66,100)"/>
<path d="M24 18h2v2h-2v-2z" fill="rgb(169,17,50)"/>
<path d="M26 18h2v6h-2v-6z" fill="rgb(56,2,31)"/>
<path d="M10 20h2v2h-2v-2z" fill="rgb(0,62,0)"/>
<path d="M12 20h2v2h-2v-2z" fill="rgb(241,241,241)"/>
<path d="M14 20h2v4h-2v-4z" fill="rgb(238,160,107)"/>
<path d="M16 20h2v2h-2v-2z" fill="rgb(56,2,31)"/>
<path d="M18 20h2v2h-2v-2z" fill="rgb(86,6,51)"/>
<path d="M22 20h2v2h-2v-2z" fill="rgb(169,17,50)"/>
<path d="M24 20h2v2h-2v-2z" fill="rgb(222,26,68)"/>
<path d="M4 22h2v2h-2v-2z" fill="rgb(75,44,23)"/>
<path d="M6 22h2v2h-2v-2z" fill="rgb(255,218,194)"/>
<path d="M10 22h4v2h-4v-2z" fill="rgb(245,115,99)"/>
<path d="M16 22h2v2h-2v-2z" fill="rgb(222,119,39)"/>
<path d="M18 22h2v2h-2v-2z" fill="rgb(56,2,31)"/>
<path d="M20 22h2v2h-2v-2z" fill="rgb(86,6,51)"/>
<path d="M22 22h2v2h-2v-2z" fill="rgb(117,14,71)"/>
<path d="M24 22h2v2h-2v-2z" fill="rgb(169,17,50)"/>
<path d="M6 24h2v2h-2v-2z" fill="rgb(75,44,23)"/>
<path d="M14 24h2v2h-2v-2z" fill="rgb(222,119,39)"/>
<path d="M16 24h2v2h-2v-2z" fill="rgb(75,44,23)"/>
<path d="M18 24h2v2h-2v-2z" fill="rgb(37,25,62)"/>
<path d="M20 24h2v2h-2v-2z" fill="rgb(56,2,31)"/>
<path d="M22 24h2v2h-2v-2z" fill="rgb(169,17,50)"/>
<path d="M24 24h2v2h-2v-2z" fill="rgb(117,14,71)"/>
<path d="M26 24h2v2h-2v-2z" fill="rgb(222,26,68)"/>
<path d="M28 24h2v2h-2v-2z" fill="rgb(56,2,31)"/>
<path d="M6 26h2v2h-2v-2z" fill="rgb(8,33,52)"/>
<path d="M8 26h8v2h-8v-2z" fill="rgb(75,44,23)"/>
<path d="M16 26h2v4h-2v-4z" fill="rgb(37,25,62)"/>
<path d="M18 26h2v2h-2v-2z" fill="rgb(8,33,52)"/>
<path d="M20 26h2v2h-2v-2z" fill="rgb(30,64,91)"/>
<path d="M22 26h2v2h-2v-2z" fill="rgb(56,2,31)"/>
<path d="M24 26h2v2h-2v-2z" fill="rgb(169,17,50)"/>
<path d="M26 26h2v6h-2v-6z" fill="rgb(56,2,31)"/>
<path d="M6 28h2v2h-2v-2z" fill="rgb(37,25,62)"/>
<path d="M8 28h2v2h-2v-2z" fill="rgb(30,64,91)"/>
<path d="M10 28h2v2h-2v-2z" fill="rgb(255,218,194)"/>
<path d="M12 28h2v2h-2v-2z" fill="rgb(238,160,107)"/>
<path d="M14 28h2v2h-2v-2z" fill="rgb(30,64,91)"/>
<path d="M18 28h2v2h-2v-2z" fill="rgb(30,64,91)"/>
<path d="M20 28h2v2h-2v-2z" fill="rgb(238,160,107)"/>
<path d="M22 28h2v4h-2v-4z" fill="rgb(75,44,23)"/>
<path d="M24 28h2v4h-2v-4z" fill="rgb(222,26,68)"/>
<path d="M6 30h2v2h-2v-2z" fill="rgb(30,64,91)"/>
<path d="M8 30h2v2h-2v-2z" fill="rgb(37,25,62)"/>
<path d="M10 30h4v2h-4v-2z" fill="rgb(18,10,35)"/>
<path d="M14 30h2v2h-2v-2z" fill="rgb(37,25,62)"/>
<path d="M16 30h2v2h-2v-2z" fill="rgb(8,33,52)"/>
<path d="M18 30h2v2h-2v-2z" fill="rgb(238,160,107)"/>
<path d="M20 30h2v2h-2v-2z" fill="rgb(255,218,194)"/>
<path d="M4 32h2v2h-2v-2z" fill="rgb(36,36,36)"/>
<path d="M6 32h2v2h-2v-2z" fill="rgb(42,42,41)"/>
<path d="M8 32h2v2h4v-2h2v12h-8v-12z" fill="rgb(18,10,35)"/>
<path d="M10 32h4v2h-4v-2z" fill="rgb(76,45,96)"/>
<path d="M16 32h2v2h-2v-2z" fill="rgb(30,64,91)"/>
<path d="M18 32h2v2h-2v-2z" fill="rgb(36,36,36)"/>
<path d="M20 32h2v2h-2v-2z" fill="rgb(114,105,94)"/>
<path d="M22 32h2v2h-2v-2z" fill="rgb(36,36,36)"/>
<path d="M24 32h2v2h-2v-2z" fill="rgb(117,14,71)"/>
<path d="M26 32h2v2h-2v-2z" fill="rgb(86,6,51)"/>
<path d="M28 32h2v2h-2v-2z" fill="rgb(56,2,31)"/>
<path d="M4 34h2v4h-2v-4z" fill="rgb(75,44,23)"/>
<path d="M6 34h2v4h-2v-4z" fill="rgb(238,160,107)"/>
<path d="M16 34h2v4h-2v-4z" fill="rgb(75,44,23)"/>
<path d="M18 34h2v4h-2v-4z" fill="rgb(238,160,107)"/>
<path d="M20 34h2v4h-2v-4z" fill="rgb(255,218,194)"/>
<path d="M22 34h2v4h-2v-4z" fill="rgb(75,44,23)"/>
<path d="M24 34h2v2h-2v-2z" fill="rgb(169,17,50)"/>
<path d="M26 34h2v2h-2v-2z" fill="rgb(56,2,31)"/>
<path d="M28 34h2v2h-2v-2z" fill="rgb(222,26,68)"/>
<path d="M30 34h2v4h-2v-4z" fill="rgb(56,2,31)"/>
<path d="M10 36h4v2h-4v-2z" fill="rgb(76,45,96)"/>
<path d="M24 36h2v2h-2v-2z" fill="rgb(117,14,71)"/>
<path d="M26 36h2v2h-2v-2z" fill="rgb(222,26,68)"/>
<path d="M28 36h2v2h-2v-2z" fill="rgb(117,14,71)"/>
<path d="M6 38h2v2h-2v-2z" fill="rgb(75,44,23)"/>
<path d="M10 38h4v2h-4v-2z" fill="rgb(113,22,151)"/>
<path d="M16 38h2v8h-2v-8z" fill="rgb(30,64,91)"/>
<path d="M18 38h4v2h-4v-2z" fill="rgb(75,44,23)"/>
<path d="M22 38h2v2h-2v-2z" fill="rgb(117,14,71)"/>
<path d="M24 38h2v2h-2v-2z" fill="rgb(169,17,50)"/>
<path d="M26 38h4v2h-4v-2z" fill="rgb(56,2,31)"/>
<path d="M30 38h2v14h-12v-12h2v2h4v-2h4v-2z" fill="rgb(255,255,255)"/>
<path d="M6 40h2v4h-2v-4z" fill="rgb(0,24,41)"/>
<path d="M10 40h4v2h-4v-2z" fill="rgb(76,45,96)"/>
<path d="M18 40h2v6h-2v-6z" fill="rgb(8,33,52)"/>
<path d="M22 40h4v2h-4v-2z" fill="rgb(56,2,31)"/>
<path d="M8 44h2v2h-2v-2z" fill="rgb(8,33,52)"/>
<path d="M10 44h2v2h-2v-2z" fill="rgb(69,132,181)"/>
<path d="M12 44h2v2h-2v-2z" fill="rgb(8,33,52)"/>
<path d="M14 44h2v2h-2v-2z" fill="rgb(69,132,181)"/>
<path d="M8 46h2v2h-2v-2z" fill="rgb(36,36,36)"/>
<path d="M10 46h2v2h-2v-2z" fill="rgb(62,57,50)"/>
<path d="M12 46h2v2h-2v-2z" fill="rgb(36,36,36)"/>
<path d="M14 46h2v2h-2v-2z" fill="rgb(62,57,50)"/>
<path d="M16 46h2v2h-2v-2z" fill="rgb(114,105,94)"/>
<path d="M18 46h2v6h-2v-6z" fill="rgb(36,36,36)"/>
<path d="M6 48h2v2h2v-2h2v2h4v2h-10v-4z" fill="rgb(36,36,36)"/>
<path d="M8 48h2v2h-2v-2z" fill="rgb(164,165,164)"/>
<path d="M12 48h2v2h-2v-2z" fill="rgb(164,165,164)"/>
<path d="M14 48h2v2h-2v-2z" fill="rgb(114,105,94)"/>
<path d="M16 48h2v2h-2v-2z" fill="rgb(43,35,39)"/>
<path d="M16 50h2v2h-2v-2z" fill="rgb(255,255,255)"/>
</svg>