<?xml version="1.0" encoding="utf-8"?>
<!-- generated at drububu.com  -->
<!DOCTYPE svg PUBLIC "-//W3C//DTD SVG 1.1//EN" "http://www.w3.org/Graphics/SVG/1.1/DTD/svg11.dtd">
<svg version="1.1" preserveAspectRatio="xMinYMin meet" xmlns="http://www.w3.org/2000/svg" xmlns:xlink="http://www.w3.org/1999/xlink" x="0px" y="0px" width="32px" height="48px" viewBox="0 0 32 48">
<path d="M0 0h10v2h-2v2h-2v2h-4v2h2v4h-2v2h2v2h-2v4h-2v-20z" fill="rgb(255,255,255)"/>
<path d="M10 0h8v2h-8v-2z" fill="rgb(109,48,27)"/>
<path d="M18 0h14v22h-2v-4h-2v-2h-2v-2h-4v-10h-2v-2h-2v-2z" fill="rgb(255,255,255)"/>
<path d="M8 2h2v2h-2v-2z" fill="rgb(109,48,27)"/>
<path d="M10 2h6v2h-6v-2z" fill="rgb(254,219,190)"/>
<path d="M16 2h2v2h-2v-2z" fill="rgb(214,122,67)"/>
<path d="M18 2h2v2h-2v-2z" fill="rgb(109,48,27)"/>
<path d="M6 4h2v2h-2v-2z" fill="rgb(109,48,27)"/>
<path d="M8 4h2v2h-2v-2z" fill="rgb(254,219,190)"/>
<path d="M10 4h8v8h-2v2h-2v2h-4v-2h-2v-4h2v2h4v-2h2v-4h-6v-2z" fill="rgb(244,193,152)"/>
<path d="M18 4h2v2h-2v-2z" fill="rgb(214,122,67)"/>
<path d="M20 4h2v10h-2v-10z" fill="rgb(70,24,8)"/>
<path d="M2 6h4v4h-2v-2h-2v-2z" fill="rgb(53,28,16)"/>
<path d="M6 6h2v2h-2v-2z" fill="rgb(254,219,190)"/>
<path d="M8 6h2v2h-2v-2z" fill="rgb(239,167,112)"/>
<path d="M10 6h2v2h-2v-2z" fill="rgb(53,28,16)"/>
<path d="M12 6h2v2h-2v-2z" fill="rgb(95,52,43)"/>
<path d="M14 6h2v2h-2v-2z" fill="rgb(53,28,16)"/>
<path d="M18 6h2v6h-2v-6z" fill="rgb(239,167,112)"/>
<path d="M6 8h2v2h-2v-2z" fill="rgb(239,167,112)"/>
<path d="M8 8h2v2h-2v-2z" fill="rgb(53,28,16)"/>
<path d="M10 8h2v2h-2v-2z" fill="rgb(95,52,43)"/>
<path d="M12 8h2v2h-2v-2z" fill="rgb(53,28,16)"/>
<path d="M14 8h2v2h-2v-2z" fill="rgb(239,167,112)"/>
<path d="M4 10h2v2h-2v-2z" fill="rgb(109,48,27)"/>
<path d="M6 10h2v2h-2v-2z" fill="rgb(224,127,93)"/>
<path d="M10 10h4v2h-4v-2z" fill="rgb(254,219,190)"/>
<path d="M2 12h2v2h-2v-2z" fill="rgb(109,48,27)"/>
<path d="M4 12h2v2h-2v-2z" fill="rgb(224,127,93)"/>
<path d="M6 12h2v2h-2v-2z" fill="rgb(210,91,61)"/>
<path d="M16 12h2v2h-2v-2z" fill="rgb(239,167,112)"/>
<path d="M18 12h2v2h-2v-2z" fill="rgb(214,122,67)"/>
<path d="M4 14h2v4h-2v-4z" fill="rgb(109,48,27)"/>
<path d="M6 14h4v2h2v2h-4v-2h-2v-2z" fill="rgb(180,155,126)"/>
<path d="M14 14h2v2h-2v-2z" fill="rgb(239,167,112)"/>
<path d="M16 14h2v2h-2v-2z" fill="rgb(214,122,67)"/>
<path d="M18 14h2v2h-2v-2z" fill="rgb(70,24,8)"/>
<path d="M20 14h2v2h-2v-2z" fill="rgb(46,59,146)"/>
<path d="M22 14h4v2h-4v-2z" fill="rgb(32,33,70)"/>
<path d="M2 16h2v4h-2v-4z" fill="rgb(32,33,70)"/>
<path d="M6 16h2v2h-2v-2z" fill="rgb(147,125,98)"/>
<path d="M12 16h2v2h-2v-2z" fill="rgb(239,167,112)"/>
<path d="M14 16h2v2h-2v-2z" fill="rgb(214,122,67)"/>
<path d="M16 16h2v2h-2v-2z" fill="rgb(70,24,8)"/>
<path d="M18 16h2v2h-2v-2z" fill="rgb(201,134,52)"/>
<path d="M20 16h2v2h-2v-2z" fill="rgb(198,217,226)"/>
<path d="M22 16h2v2h-2v-2z" fill="rgb(157,183,195)"/>
<path d="M24 16h2v2h-2v-2z" fill="rgb(131,156,167)"/>
<path d="M26 16h2v2h-2v-2z" fill="rgb(32,33,70)"/>
<path d="M4 18h12v2h-12v-2z" fill="rgb(70,24,8)"/>
<path d="M16 18h2v2h-2v-2z" fill="rgb(201,134,52)"/>
<path d="M18 18h2v2h-2v-2z" fill="rgb(198,217,226)"/>
<path d="M20 18h2v2h-2v-2z" fill="rgb(131,156,167)"/>
<path d="M22 18h2v2h-2v-2z" fill="rgb(46,59,146)"/>
<path d="M24 18h4v2h-4v-2z" fill="rgb(81,95,191)"/>
<path d="M28 18h2v2h-2v-2z" fill="rgb(32,33,70)"/>
<path d="M0 20h2v4h-2v-4z" fill="rgb(32,33,70)"/>
<path d="M2 20h2v4h-2v-4z" fill="rgb(46,59,146)"/>
<path d="M4 20h2v4h-2v-4z" fill="rgb(233,237,238)"/>
<path d="M6 20h2v2h-2v-2z" fill="rgb(201,134,52)"/>
<path d="M8 20h6v2h-6v-2z" fill="rgb(243,183,75)"/>
<path d="M14 20h2v2h-2v-2z" fill="rgb(201,134,52)"/>
<path d="M16 20h2v4h-2v-4z" fill="rgb(198,217,226)"/>
<path d="M18 20h2v4h-2v-4z" fill="rgb(131,156,167)"/>
<path d="M20 20h2v4h-2v-4z" fill="rgb(46,59,146)"/>
<path d="M22 20h4v4h-4v-4z" fill="rgb(142,160,234)"/>
<path d="M26 20h2v4h-2v-4z" fill="rgb(108,126,200)"/>
<path d="M28 20h2v2h-2v-2z" fill="rgb(46,59,146)"/>
<path d="M6 22h2v2h-2v-2z" fill="rgb(243,183,75)"/>
<path d="M8 22h2v2h-2v-2z" fill="rgb(32,33,70)"/>
<path d="M10 22h2v2h-2v-2z" fill="rgb(46,59,146)"/>
<path d="M12 22h2v2h-2v-2z" fill="rgb(32,33,70)"/>
<path d="M14 22h2v2h-2v-2z" fill="rgb(243,183,75)"/>
<path d="M28 22h2v2h-2v-2z" fill="rgb(81,95,191)"/>
<path d="M30 22h2v4h-12v-2h10v-2z" fill="rgb(32,33,70)"/>
<path d="M0 24h2v6h-2v-6z" fill="rgb(255,255,255)"/>
<path d="M2 24h2v4h-2v-4z" fill="rgb(32,33,70)"/>
<path d="M4 24h2v2h-2v-2z" fill="rgb(198,217,226)"/>
<path d="M6 24h2v2h-2v-2z" fill="rgb(142,160,234)"/>
<path d="M8 24h2v2h-2v-2z" fill="rgb(198,217,226)"/>
<path d="M10 24h2v2h-2v-2z" fill="rgb(142,160,234)"/>
<path d="M12 24h2v2h-2v-2z" fill="rgb(198,217,226)"/>
<path d="M14 24h2v2h-2v-2z" fill="rgb(142,160,234)"/>
<path d="M16 24h2v14h-2v-14z" fill="rgb(131,156,167)"/>
<path d="M18 24h2v4h-2v-4z" fill="rgb(46,59,146)"/>
<path d="M4 26h2v2h-2v-2z" fill="rgb(131,156,167)"/>
<path d="M6 26h8v2h-8v-2z" fill="rgb(233,237,238)"/>
<path d="M14 26h2v2h-2v-2z" fill="rgb(198,217,226)"/>
<path d="M20 26h2v4h-2v-4z" fill="rgb(70,24,8)"/>
<path d="M22 26h6v2h-6v-2z" fill="rgb(214,122,67)"/>
<path d="M28 26h2v4h-2v-4z" fill="rgb(70,24,8)"/>
<path d="M30 26h2v22h-8v-10h4v-2h2v-10z" fill="rgb(255,255,255)"/>
<path d="M2 28h2v2h-2v-2z" fill="rgb(109,48,27)"/>
<path d="M4 28h2v10h-2v-10z" fill="rgb(32,33,70)"/>
<path d="M6 28h8v2h-6v4h-2v-6z" fill="rgb(198,217,226)"/>
<path d="M14 28h2v6h-2v-6z" fill="rgb(157,183,195)"/>
<path d="M18 28h2v2h-2v-2z" fill="rgb(32,33,70)"/>
<path d="M22 28h6v2h-6v-2z" fill="rgb(239,167,112)"/>
<path d="M0 30h2v6h-2v-6z" fill="rgb(109,48,27)"/>
<path d="M2 30h2v2h-2v-2z" fill="rgb(239,167,112)"/>
<path d="M8 30h6v4h-6v-4z" fill="rgb(233,237,238)"/>
<path d="M18 30h2v6h-2v-6z" fill="rgb(109,48,27)"/>
<path d="M20 30h8v2h-2v2h-2v2h-4v-2h2v-2h-2v-2z" fill="rgb(244,193,152)"/>
<path d="M28 30h2v6h-2v-6z" fill="rgb(109,48,27)"/>
<path d="M2 32h2v4h-2v-4z" fill="rgb(214,122,67)"/>
<path d="M20 32h2v2h-2v-2z" fill="rgb(214,122,67)"/>
<path d="M26 32h2v2h-2v-2z" fill="rgb(239,167,112)"/>
<path d="M6 34h8v2h-8v-2z" fill="rgb(157,183,195)"/>
<path d="M14 34h2v4h-4v-2h2v-2z" fill="rgb(198,217,226)"/>
<path d="M24 34h2v2h-2v-2z" fill="rgb(239,167,112)"/>
<path d="M26 34h2v2h-2v-2z" fill="rgb(214,122,67)"/>
<path d="M0 36h2v2h2v6h-2v4h-2v-12z" fill="rgb(255,255,255)"/>
<path d="M2 36h2v2h-2v-2z" fill="rgb(109,48,27)"/>
<path d="M6 36h2v2h-2v-2z" fill="rgb(198,217,226)"/>
<path d="M8 36h4v2h-4v-2z" fill="rgb(233,237,238)"/>
<path d="M18 36h2v2h2v4h-2v-2h-2v-4z" fill="rgb(90,51,32)"/>
<path d="M20 36h8v2h-8v-2z" fill="rgb(109,48,27)"/>
<path d="M4 38h2v4h-2v-4z" fill="rgb(53,28,16)"/>
<path d="M6 38h4v2h-4v-2z" fill="rgb(120,76,54)"/>
<path d="M10 38h2v2h-2v-2z" fill="rgb(90,51,32)"/>
<path d="M12 38h2v4h-2v-4z" fill="rgb(53,28,16)"/>
<path d="M14 38h4v2h-4v-2z" fill="rgb(120,76,54)"/>
<path d="M22 38h2v4h-2v-4z" fill="rgb(53,28,16)"/>
<path d="M6 40h4v2h-4v-2z" fill="rgb(169,116,90)"/>
<path d="M10 40h2v2h-2v-2z" fill="rgb(120,76,54)"/>
<path d="M14 40h4v2h-4v-2z" fill="rgb(169,116,90)"/>
<path d="M18 40h2v2h-2v-2z" fill="rgb(120,76,54)"/>
<path d="M4 42h2v2h-2v-2z" fill="rgb(23,19,17)"/>
<path d="M6 42h6v2h-6v-2z" fill="rgb(49,41,36)"/>
<path d="M12 42h2v2h-2v-2z" fill="rgb(23,19,17)"/>
<path d="M14 42h8v4h-4v-2h-4v-2z" fill="rgb(49,41,36)"/>
<path d="M22 42h2v6h-22v-4h2v2h6v-2h2v2h10v-4z" fill="rgb(23,19,17)"/>
<path d="M4 44h2v2h-2v-2z" fill="rgb(161,149,142)"/>
<path d="M6 44h4v2h-4v-2z" fill="rgb(91,81,76)"/>
<path d="M12 44h2v2h-2v-2z" fill="rgb(161,149,142)"/>
<path d="M14 44h4v2h-4v-2z" fill="rgb(91,81,76)"/>
</svg>