<?xml version="1.0" encoding="utf-8"?>
<!-- generated at drububu.com  -->
<!DOCTYPE svg PUBLIC "-//W3C//DTD SVG 1.1//EN" "http://www.w3.org/Graphics/SVG/1.1/DTD/svg11.dtd">
<svg version="1.1" preserveAspectRatio="xMinYMin meet" xmlns="http://www.w3.org/2000/svg" xmlns:xlink="http://www.w3.org/1999/xlink" x="0px" y="0px" width="34px" height="48px" viewBox="0 0 34 48">
<path d="M0 0h4v4h2v6h-2v-2h-4v-8z" fill="rgb(255,255,255)"/>
<path d="M4 0h16v4h-2v-2h-12v2h-2v-4z" fill="rgb(16,16,16)"/>
<path d="M20 0h14v38h-2v-6h-2v-8h-2v-2h-2v-2h-2v-2h-2v-2h2v-6h-2v-2h-4v-4h2v-4z" fill="rgb(255,255,255)"/>
<path d="M6 2h2v2h-2v-2z" fill="rgb(65,65,65)"/>
<path d="M8 2h4v2h-2v4h-2v-6z" fill="rgb(95,95,95)"/>
<path d="M12 2h6v2h-6v-2z" fill="rgb(65,65,65)"/>
<path d="M6 4h2v6h-2v-6z" fill="rgb(16,16,16)"/>
<path d="M10 4h2v4h-2v-4z" fill="rgb(65,65,65)"/>
<path d="M12 4h4v4h-4v-4z" fill="rgb(40,40,40)"/>
<path d="M16 4h2v4h-2v-4z" fill="rgb(16,16,16)"/>
<path d="M0 8h2v2h-2v-2z" fill="rgb(40,40,40)"/>
<path d="M2 8h2v2h-2v-2z" fill="rgb(16,16,16)"/>
<path d="M8 8h4v2h-4v-2z" fill="rgb(174,174,173)"/>
<path d="M12 8h2v2h-2v-2z" fill="rgb(135,134,134)"/>
<path d="M14 8h6v2h-6v-2z" fill="rgb(27,27,27)"/>
<path d="M20 8h2v2h-2v-2z" fill="rgb(16,16,16)"/>
<path d="M0 10h2v4h-2v-4z" fill="rgb(16,16,16)"/>
<path d="M2 10h2v2h-2v-2z" fill="rgb(95,95,95)"/>
<path d="M4 10h10v2h-10v-2z" fill="rgb(27,27,27)"/>
<path d="M14 10h6v2h-6v-2z" fill="rgb(95,95,95)"/>
<path d="M20 10h2v2h-2v-2z" fill="rgb(65,65,65)"/>
<path d="M22 10h2v6h-22v-2h20v-4z" fill="rgb(16,16,16)"/>
<path d="M2 12h2v2h-2v-2z" fill="rgb(40,40,40)"/>
<path d="M4 12h2v2h-2v-2z" fill="rgb(65,65,65)"/>
<path d="M6 12h6v2h-6v-2z" fill="rgb(95,95,95)"/>
<path d="M12 12h2v2h-2v-2z" fill="rgb(65,65,65)"/>
<path d="M14 12h8v2h-8v-2z" fill="rgb(40,40,40)"/>
<path d="M0 14h2v4h2v2h-2v2h2v2h2v10h2v2h2v8h-2v4h-8v-34z" fill="rgb(255,255,255)"/>
<path d="M2 16h2v2h-2v-2z" fill="rgb(49,49,58)"/>
<path d="M4 16h2v2h-2v-2z" fill="rgb(105,105,122)"/>
<path d="M6 16h2v2h-2v-2z" fill="rgb(231,192,183)"/>
<path d="M8 16h2v2h-2v-2z" fill="rgb(160,160,181)"/>
<path d="M10 16h2v2h-2v-2z" fill="rgb(105,105,122)"/>
<path d="M12 16h2v2h-2v-2z" fill="rgb(215,152,139)"/>
<path d="M14 16h2v2h-2v-2z" fill="rgb(105,105,122)"/>
<path d="M16 16h2v2h-2v-2z" fill="rgb(160,160,181)"/>
<path d="M18 16h2v2h-2v-2z" fill="rgb(105,105,122)"/>
<path d="M20 16h2v2h-2v-2z" fill="rgb(34,34,42)"/>
<path d="M4 18h2v2h-2v-2z" fill="rgb(74,39,32)"/>
<path d="M6 18h2v2h2v4h-2v-2h-2v-4z" fill="rgb(227,173,161)"/>
<path d="M8 18h2v2h-2v-2z" fill="rgb(114,56,46)"/>
<path d="M10 18h2v2h-2v-2z" fill="rgb(247,247,247)"/>
<path d="M12 18h2v2h-2v-2z" fill="rgb(227,173,161)"/>
<path d="M14 18h2v2h-2v-2z" fill="rgb(215,152,139)"/>
<path d="M16 18h2v2h2v2h-4v-4z" fill="rgb(105,105,122)"/>
<path d="M18 18h4v2h-4v-2z" fill="rgb(160,160,181)"/>
<path d="M22 18h2v2h-2v-2z" fill="rgb(34,34,42)"/>
<path d="M2 20h2v2h-2v-2z" fill="rgb(74,39,32)"/>
<path d="M4 20h2v2h-2v-2z" fill="rgb(231,192,183)"/>
<path d="M10 20h2v2h-2v-2z" fill="rgb(229,182,173)"/>
<path d="M12 20h2v2h-2v-2z" fill="rgb(215,152,139)"/>
<path d="M14 20h2v2h-2v-2z" fill="rgb(160,160,181)"/>
<path d="M20 20h2v2h-2v-2z" fill="rgb(49,49,58)"/>
<path d="M22 20h2v2h2v2h-4v-4z" fill="rgb(81,33,48)"/>
<path d="M24 20h2v2h-2v-2z" fill="rgb(44,13,23)"/>
<path d="M4 22h2v2h-2v-2z" fill="rgb(74,39,32)"/>
<path d="M6 22h2v2h-2v-2z" fill="rgb(215,152,139)"/>
<path d="M10 22h2v2h-2v-2z" fill="rgb(105,105,122)"/>
<path d="M12 22h2v2h-2v-2z" fill="rgb(160,160,181)"/>
<path d="M14 22h2v2h-2v-2z" fill="rgb(105,105,122)"/>
<path d="M16 22h2v2h-2v-2z" fill="rgb(160,160,181)"/>
<path d="M18 22h2v2h-2v-2z" fill="rgb(49,49,58)"/>
<path d="M20 22h2v2h-2v-2z" fill="rgb(133,62,83)"/>
<path d="M26 22h2v2h-2v-2z" fill="rgb(44,13,23)"/>
<path d="M6 24h6v2h-6v-2z" fill="rgb(74,39,32)"/>
<path d="M12 24h2v2h-2v-2z" fill="rgb(49,49,58)"/>
<path d="M14 24h2v2h-2v-2z" fill="rgb(160,160,181)"/>
<path d="M16 24h2v2h-2v-2z" fill="rgb(49,49,58)"/>
<path d="M18 24h2v2h-2v-2z" fill="rgb(81,33,48)"/>
<path d="M20 24h2v2h-2v-2z" fill="rgb(44,13,23)"/>
<path d="M22 24h2v2h-2v-2z" fill="rgb(107,48,65)"/>
<path d="M24 24h2v2h2v4h-2v-2h-2v-4z" fill="rgb(133,62,83)"/>
<path d="M26 24h2v2h-2v-2z" fill="rgb(81,33,48)"/>
<path d="M28 24h2v8h-2v-8z" fill="rgb(44,13,23)"/>
<path d="M6 26h2v2h-2v-2z" fill="rgb(81,33,48)"/>
<path d="M8 26h4v4h-2v-2h-2v-2z" fill="rgb(107,48,65)"/>
<path d="M12 26h2v2h-2v-2z" fill="rgb(81,33,48)"/>
<path d="M14 26h2v2h-2v-2z" fill="rgb(49,49,58)"/>
<path d="M16 26h2v2h-2v-2z" fill="rgb(74,39,32)"/>
<path d="M18 26h2v2h-2v-2z" fill="rgb(152,107,99)"/>
<path d="M20 26h2v2h-2v-2z" fill="rgb(231,192,183)"/>
<path d="M22 26h2v14h-2v-14z" fill="rgb(44,13,23)"/>
<path d="M6 28h2v2h-2v-2z" fill="rgb(44,13,23)"/>
<path d="M8 28h2v2h-2v-2z" fill="rgb(81,33,48)"/>
<path d="M12 28h2v2h-2v-2z" fill="rgb(133,62,83)"/>
<path d="M14 28h2v4h2v2h-4v-6z" fill="rgb(74,39,32)"/>
<path d="M16 28h2v2h-2v-2z" fill="rgb(227,173,161)"/>
<path d="M18 28h2v2h-2v-2z" fill="rgb(231,192,183)"/>
<path d="M20 28h2v4h-2v-4z" fill="rgb(227,173,161)"/>
<path d="M24 28h2v2h2v2h-4v-4z" fill="rgb(107,48,65)"/>
<path d="M6 30h2v4h-2v-4z" fill="rgb(74,39,32)"/>
<path d="M8 30h2v4h-2v-4z" fill="rgb(227,173,161)"/>
<path d="M10 30h2v4h6v2h-2v6h2v2h-4v2h4v2h-10v-4h2v-14z" fill="rgb(16,16,16)"/>
<path d="M12 30h2v2h-2v-2z" fill="rgb(44,13,23)"/>
<path d="M16 30h2v2h-2v-2z" fill="rgb(231,192,183)"/>
<path d="M18 30h2v2h-2v-2z" fill="rgb(152,107,99)"/>
<path d="M12 32h2v2h-2v-2z" fill="rgb(65,65,65)"/>
<path d="M18 32h2v6h-2v-6z" fill="rgb(135,134,134)"/>
<path d="M20 32h2v2h-2v-2z" fill="rgb(74,39,32)"/>
<path d="M24 32h4v2h2v2h-4v-2h-2v-2z" fill="rgb(81,33,48)"/>
<path d="M28 32h2v2h-2v-2z" fill="rgb(107,48,65)"/>
<path d="M30 32h2v6h-2v-6z" fill="rgb(44,13,23)"/>
<path d="M8 34h2v2h-2v-2z" fill="rgb(74,39,32)"/>
<path d="M20 34h2v2h-2v-2z" fill="rgb(16,16,16)"/>
<path d="M24 34h2v2h4v2h2v2h-4v-2h-4v-4z" fill="rgb(63,23,35)"/>
<path d="M12 36h2v2h-2v-2z" fill="rgb(40,40,40)"/>
<path d="M16 36h2v2h-2v-2z" fill="rgb(40,40,40)"/>
<path d="M20 36h2v4h2v2h-4v-6z" fill="rgb(40,40,40)"/>
<path d="M12 38h2v4h-2v-4z" fill="rgb(65,65,65)"/>
<path d="M16 38h2v4h-2v-4z" fill="rgb(65,65,65)"/>
<path d="M18 38h2v10h-2v-10z" fill="rgb(174,174,173)"/>
<path d="M24 38h4v2h-4v-2z" fill="rgb(81,33,48)"/>
<path d="M32 38h2v8h-8v-2h6v-6z" fill="rgb(44,13,23)"/>
<path d="M24 40h2v4h-2v-4z" fill="rgb(44,13,23)"/>
<path d="M26 40h2v2h-2v-2z" fill="rgb(63,23,35)"/>
<path d="M28 40h4v2h-4v-2z" fill="rgb(81,33,48)"/>
<path d="M20 42h4v2h-4v-2z" fill="rgb(16,16,16)"/>
<path d="M26 42h2v2h-2v-2z" fill="rgb(81,33,48)"/>
<path d="M28 42h4v2h-4v-2z" fill="rgb(107,48,65)"/>
<path d="M10 44h2v2h-2v-2z" fill="rgb(135,134,134)"/>
<path d="M14 44h2v2h-2v-2z" fill="rgb(135,134,134)"/>
<path d="M16 44h2v2h-2v-2z" fill="rgb(95,95,95)"/>
<path d="M20 44h2v2h-2v-2z" fill="rgb(65,65,65)"/>
<path d="M22 44h2v2h-2v-2z" fill="rgb(40,40,40)"/>
<path d="M24 44h2v4h-6v-2h4v-2z" fill="rgb(16,16,16)"/>
<path d="M26 46h8v2h-8v-2z" fill="rgb(255,255,255)"/>
</svg>