<?xml version="1.0" encoding="utf-8"?>
<!-- generated at drububu.com  -->
<!DOCTYPE svg PUBLIC "-//W3C//DTD SVG 1.1//EN" "http://www.w3.org/Graphics/SVG/1.1/DTD/svg11.dtd">
<svg version="1.1" preserveAspectRatio="xMinYMin meet" xmlns="http://www.w3.org/2000/svg" xmlns:xlink="http://www.w3.org/1999/xlink" x="0px" y="0px" width="30px" height="56px" viewBox="0 0 30 56">
<path d="M0 0h12v2h-4v2h-4v2h-2v2h-2v-8z" fill="rgb(255,255,255)"/>
<path d="M12 0h8v2h-8v-2z" fill="rgb(54,57,227)"/>
<path d="M20 0h10v10h-2v-4h-2v-2h-2v-2h-4v-2z" fill="rgb(255,255,255)"/>
<path d="M8 2h4v2h-4v-2z" fill="rgb(54,57,227)"/>
<path d="M12 2h4v2h-4v-2z" fill="rgb(204,207,255)"/>
<path d="M16 2h2v2h-2v-2z" fill="rgb(183,177,131)"/>
<path d="M18 2h2v2h-2v-2z" fill="rgb(144,148,255)"/>
<path d="M20 2h2v2h-2v-2z" fill="rgb(54,57,227)"/>
<path d="M22 2h2v2h-2v-2z" fill="rgb(13,16,86)"/>
<path d="M4 4h4v2h-4v-2z" fill="rgb(54,57,227)"/>
<path d="M8 4h2v2h-2v-2z" fill="rgb(144,148,255)"/>
<path d="M10 4h2v6h2v-2h2v-4h4v2h-2v6h-10v-2h2v-6z" fill="rgb(204,207,255)"/>
<path d="M12 4h4v4h-2v2h-2v-6z" fill="rgb(239,243,255)"/>
<path d="M20 4h2v2h-2v-2z" fill="rgb(144,148,255)"/>
<path d="M22 4h2v2h-2v-2z" fill="rgb(95,99,255)"/>
<path d="M24 4h2v2h-2v-2z" fill="rgb(13,16,86)"/>
<path d="M2 6h2v2h-2v-2z" fill="rgb(13,16,86)"/>
<path d="M4 6h2v4h-4v-2h2v-2z" fill="rgb(144,148,255)"/>
<path d="M6 6h2v2h-2v-2z" fill="rgb(211,200,171)"/>
<path d="M8 6h2v2h-2v-2z" fill="rgb(183,177,131)"/>
<path d="M18 6h2v2h-2v-2z" fill="rgb(211,200,171)"/>
<path d="M20 6h2v2h-2v-2z" fill="rgb(183,177,131)"/>
<path d="M22 6h2v4h-2v2h-4v-2h2v-2h2v-2z" fill="rgb(144,148,255)"/>
<path d="M24 6h2v4h-2v-4z" fill="rgb(95,99,255)"/>
<path d="M26 6h2v4h-2v-4z" fill="rgb(13,16,86)"/>
<path d="M0 8h2v4h-2v-4z" fill="rgb(13,16,86)"/>
<path d="M6 8h2v2h-2v-2z" fill="rgb(183,177,131)"/>
<path d="M8 8h2v2h-2v-2z" fill="rgb(151,144,110)"/>
<path d="M18 8h2v2h-2v-2z" fill="rgb(183,177,131)"/>
<path d="M2 10h4v2h-4v-2z" fill="rgb(95,99,255)"/>
<path d="M6 10h2v2h-2v-2z" fill="rgb(144,148,255)"/>
<path d="M22 10h2v2h-2v-2z" fill="rgb(95,99,255)"/>
<path d="M24 10h2v4h-2v-4z" fill="rgb(97,92,65)"/>
<path d="M26 10h2v2h-2v-2z" fill="rgb(95,99,255)"/>
<path d="M28 10h2v6h-2v-6z" fill="rgb(13,16,86)"/>
<path d="M0 12h2v2h-2v-2z" fill="rgb(40,35,22)"/>
<path d="M2 12h6v2h-6v-2z" fill="rgb(13,16,86)"/>
<path d="M8 12h4v2h-4v-2z" fill="rgb(95,99,255)"/>
<path d="M12 12h6v2h-6v-2z" fill="rgb(144,148,255)"/>
<path d="M18 12h4v2h2v2h-8v-2h2v-2z" fill="rgb(95,99,255)"/>
<path d="M22 12h2v2h-2v-2z" fill="rgb(172,165,112)"/>
<path d="M26 12h2v4h-4v-2h2v-2z" fill="rgb(54,57,227)"/>
<path d="M0 14h2v2h2v2h2v4h2v6h-2v2h-2v8h-2v4h2v2h2v-2h2v10h-2v4h-6v-42z" fill="rgb(255,255,255)"/>
<path d="M2 14h2v2h-2v-2z" fill="rgb(40,35,22)"/>
<path d="M4 14h2v2h-2v-2z" fill="rgb(123,117,83)"/>
<path d="M6 14h2v2h-2v-2z" fill="rgb(97,92,65)"/>
<path d="M8 14h2v2h-2v-2z" fill="rgb(40,35,22)"/>
<path d="M10 14h6v2h-6v-2z" fill="rgb(13,16,86)"/>
<path d="M4 16h2v2h-2v-2z" fill="rgb(40,35,22)"/>
<path d="M6 16h2v2h-2v-2z" fill="rgb(123,117,83)"/>
<path d="M8 16h2v2h-2v-2z" fill="rgb(151,144,110)"/>
<path d="M10 16h2v2h-2v-2z" fill="rgb(97,92,65)"/>
<path d="M12 16h2v2h-2v-2z" fill="rgb(123,117,83)"/>
<path d="M14 16h2v4h-4v-2h2v-2z" fill="rgb(97,92,65)"/>
<path d="M16 16h2v2h-2v-2z" fill="rgb(40,35,22)"/>
<path d="M18 16h10v2h-10v-2z" fill="rgb(13,16,86)"/>
<path d="M28 16h2v40h-8v-6h-2v-8h2v2h4v-16h-2v-2h-2v-6h2v-2h4v-2z" fill="rgb(255,255,255)"/>
<path d="M6 18h2v2h-2v-2z" fill="rgb(40,35,22)"/>
<path d="M8 18h2v2h-2v-2z" fill="rgb(183,177,131)"/>
<path d="M10 18h2v2h-2v-2z" fill="rgb(151,144,110)"/>
<path d="M16 18h2v2h-2v-2z" fill="rgb(123,117,83)"/>
<path d="M18 18h2v2h-2v-2z" fill="rgb(97,92,65)"/>
<path d="M20 18h2v2h-2v-2z" fill="rgb(123,117,83)"/>
<path d="M22 18h2v2h-2v-2z" fill="rgb(40,35,22)"/>
<path d="M6 20h2v2h-2v-2z" fill="rgb(97,92,65)"/>
<path d="M8 20h2v2h-2v-2z" fill="rgb(151,144,110)"/>
<path d="M10 20h2v4h-2v-4z" fill="rgb(183,177,131)"/>
<path d="M12 20h2v4h-2v-4z" fill="rgb(144,148,255)"/>
<path d="M14 20h2v4h-2v-4z" fill="rgb(255,255,255)"/>
<path d="M16 20h2v2h-2v-2z" fill="rgb(97,92,65)"/>
<path d="M18 20h2v8h-4v-2h2v-2h-2v-2h2v-2z" fill="rgb(151,144,110)"/>
<path d="M20 20h2v6h-2v-6z" fill="rgb(40,35,22)"/>
<path d="M8 22h2v6h-2v-6z" fill="rgb(97,92,65)"/>
<path d="M10 24h2v2h2v2h4v4h-2v4h-2v2h-4v-2h2v-2h-2v-4h-2v-2h2v-4z" fill="rgb(211,200,171)"/>
<path d="M12 24h4v2h-4v-2z" fill="rgb(151,144,110)"/>
<path d="M16 24h2v2h-2v-2z" fill="rgb(183,177,131)"/>
<path d="M14 26h2v2h-2v-2z" fill="rgb(183,177,131)"/>
<path d="M20 26h2v2h-2v-2z" fill="rgb(123,117,83)"/>
<path d="M22 26h2v2h-2v-2z" fill="rgb(40,35,22)"/>
<path d="M6 28h2v2h-2v-2z" fill="rgb(97,92,65)"/>
<path d="M18 28h2v2h-2v-2z" fill="rgb(183,177,131)"/>
<path d="M20 28h2v2h-2v-2z" fill="rgb(151,144,110)"/>
<path d="M22 28h2v6h-2v-6z" fill="rgb(123,117,83)"/>
<path d="M24 28h2v16h-4v-2h2v-14z" fill="rgb(40,35,22)"/>
<path d="M4 30h2v8h-2v-8z" fill="rgb(97,92,65)"/>
<path d="M6 30h2v2h-2v-2z" fill="rgb(211,200,171)"/>
<path d="M8 30h2v2h-2v-2z" fill="rgb(183,177,131)"/>
<path d="M18 30h2v2h-2v-2z" fill="rgb(151,144,110)"/>
<path d="M20 30h2v2h-2v-2z" fill="rgb(183,177,131)"/>
<path d="M6 32h2v8h-2v-8z" fill="rgb(183,177,131)"/>
<path d="M8 32h2v2h-2v-2z" fill="rgb(151,144,110)"/>
<path d="M16 32h2v4h-2v-4z" fill="rgb(183,177,131)"/>
<path d="M18 32h2v6h-2v-6z" fill="rgb(97,92,65)"/>
<path d="M20 32h2v8h-2v2h-2v-4h2v-6z" fill="rgb(211,200,171)"/>
<path d="M8 34h2v18h-2v-18z" fill="rgb(97,92,65)"/>
<path d="M10 34h2v2h-2v-2z" fill="rgb(183,177,131)"/>
<path d="M22 34h2v4h-2v-4z" fill="rgb(151,144,110)"/>
<path d="M14 36h2v6h-2v-2h-2v2h-2v-4h4v-2z" fill="rgb(183,177,131)"/>
<path d="M16 36h2v2h-2v-2z" fill="rgb(151,144,110)"/>
<path d="M2 38h2v2h-2v-2z" fill="rgb(97,92,65)"/>
<path d="M4 38h2v4h-2v-4z" fill="rgb(211,200,171)"/>
<path d="M16 38h2v2h-2v-2z" fill="rgb(97,92,65)"/>
<path d="M22 38h2v2h-2v-2z" fill="rgb(183,177,131)"/>
<path d="M2 40h2v2h-2v-2z" fill="rgb(40,35,22)"/>
<path d="M6 40h2v2h-2v-2z" fill="rgb(40,35,22)"/>
<path d="M12 40h2v2h-2v-2z" fill="rgb(211,200,171)"/>
<path d="M16 40h2v2h-2v-2z" fill="rgb(40,35,22)"/>
<path d="M20 40h2v2h-2v-2z" fill="rgb(40,35,22)"/>
<path d="M22 40h2v2h-2v-2z" fill="rgb(211,200,171)"/>
<path d="M4 42h2v2h-2v-2z" fill="rgb(40,35,22)"/>
<path d="M10 42h2v4h-2v-4z" fill="rgb(211,200,171)"/>
<path d="M12 42h2v2h-2v-2z" fill="rgb(183,177,131)"/>
<path d="M14 42h2v4h-2v-4z" fill="rgb(211,200,171)"/>
<path d="M16 42h2v8h-2v-8z" fill="rgb(151,144,110)"/>
<path d="M18 42h2v8h-2v-8z" fill="rgb(40,35,22)"/>
<path d="M12 44h2v8h-2v-8z" fill="rgb(97,92,65)"/>
<path d="M10 46h2v4h-2v-4z" fill="rgb(183,177,131)"/>
<path d="M14 46h2v2h-2v-2z" fill="rgb(183,177,131)"/>
<path d="M14 48h2v6h-4v-2h2v-4z" fill="rgb(211,200,171)"/>
<path d="M10 50h2v2h-2v-2z" fill="rgb(211,200,171)"/>
<path d="M16 50h2v4h-2v-4z" fill="rgb(183,177,131)"/>
<path d="M18 50h2v4h-2v-4z" fill="rgb(151,144,110)"/>
<path d="M20 50h2v6h-16v-4h2v2h2v-2h2v2h8v-4z" fill="rgb(40,35,22)"/>
<path d="M8 52h2v2h-2v-2z" fill="rgb(211,200,171)"/>
</svg>