<?xml version="1.0" encoding="utf-8"?>
<!-- generated at drububu.com  -->
<!DOCTYPE svg PUBLIC "-//W3C//DTD SVG 1.1//EN" "http://www.w3.org/Graphics/SVG/1.1/DTD/svg11.dtd">
<svg version="1.1" preserveAspectRatio="xMinYMin meet" xmlns="http://www.w3.org/2000/svg" xmlns:xlink="http://www.w3.org/1999/xlink" x="0px" y="0px" width="42px" height="40px" viewBox="0 0 42 40">
<path d="M0 0h24v2h-2v2h-6v2h-4v2h-2v2h-2v2h-2v2h2v4h2v2h-2v2h-2v2h2v2h-2v4h-2
	v2h-2v4h-2v-36z" fill="rgb(255,255,255)"/>
<path d="M24 0h2v2h-2v-2z" fill="rgb(8,33,52)"/>
<path d="M26 0h16v36h-2v-6h-2v-2h-2v-4h-2v-6h-2v-6h-2v-4h2v-2h-4v-4h-2v-2z" fill="rgb(255,255,255)"/>
<path d="M22 2h2v2h-2v-2z" fill="rgb(8,33,52)"/>
<path d="M24 2h2v2h-2v-2z" fill="rgb(69,132,181)"/>
<path d="M26 2h2v4h-2v-4z" fill="rgb(8,33,52)"/>
<path d="M16 4h6v2h-6v-2z" fill="rgb(8,33,52)"/>
<path d="M22 4h2v2h-2v-2z" fill="rgb(69,132,181)"/>
<path d="M24 4h2v2h-2v-2z" fill="rgb(53,103,142)"/>
<path d="M12 6h2v2h-2v-2z" fill="rgb(56,2,31)"/>
<path d="M14 6h2v2h-2v-2z" fill="rgb(8,33,52)"/>
<path d="M16 6h2v2h-2v-2z" fill="rgb(53,103,142)"/>
<path d="M18 6h2v2h-2v-2z" fill="rgb(69,132,181)"/>
<path d="M20 6h2v2h-2v-2z" fill="rgb(53,103,142)"/>
<path d="M22 6h2v2h-2v-2z" fill="rgb(30,64,91)"/>
<path d="M24 6h2v2h-2v-2z" fill="rgb(8,33,52)"/>
<path d="M26 6h2v2h-2v-2z" fill="rgb(30,64,91)"/>
<path d="M28 6h2v2h-2v-2z" fill="rgb(53,103,142)"/>
<path d="M30 6h2v2h-2v-2z" fill="rgb(8,33,52)"/>
<path d="M10 8h2v2h-2v-2z" fill="rgb(56,2,31)"/>
<path d="M12 8h2v2h-2v-2z" fill="rgb(117,14,71)"/>
<path d="M14 8h2v2h-2v-2z" fill="rgb(169,17,50)"/>
<path d="M16 8h6v2h-6v-2z" fill="rgb(8,33,52)"/>
<path d="M22 8h2v2h-2v-2z" fill="rgb(69,132,181)"/>
<path d="M24 8h2v2h-2v-2z" fill="rgb(30,64,91)"/>
<path d="M26 8h2v2h-2v-2z" fill="rgb(53,103,142)"/>
<path d="M28 8h2v2h-2v-2z" fill="rgb(8,33,52)"/>
<path d="M8 10h2v2h-2v-2z" fill="rgb(56,2,31)"/>
<path d="M10 10h2v2h-2v-2z" fill="rgb(222,26,68)"/>
<path d="M12 10h2v2h-2v-2z" fill="rgb(169,17,50)"/>
<path d="M14 10h2v2h-2v-2z" fill="rgb(222,26,68)"/>
<path d="M16 10h2v2h-2v-2z" fill="rgb(169,17,50)"/>
<path d="M18 10h2v2h-2v-2z" fill="rgb(228,66,100)"/>
<path d="M20 10h2v2h-2v-2z" fill="rgb(222,26,68)"/>
<path d="M22 10h2v2h-2v-2z" fill="rgb(8,33,52)"/>
<path d="M24 10h2v2h-2v-2z" fill="rgb(53,103,142)"/>
<path d="M26 10h2v2h-2v-2z" fill="rgb(8,33,52)"/>
<path d="M28 10h2v2h-2v-2z" fill="rgb(56,2,31)"/>
<path d="M6 12h2v2h-2v-2z" fill="rgb(56,2,31)"/>
<path d="M8 12h2v2h-2v-2z" fill="rgb(228,66,100)"/>
<path d="M10 12h2v2h-2v-2z" fill="rgb(169,17,50)"/>
<path d="M12 12h4v2h-2v2h-4v-2h2v-2z" fill="rgb(117,14,71)"/>
<path d="M16 12h2v2h-2v-2z" fill="rgb(228,66,100)"/>
<path d="M18 12h2v2h-2v-2z" fill="rgb(169,17,50)"/>
<path d="M20 12h2v2h-2v-2z" fill="rgb(228,66,100)"/>
<path d="M22 12h2v2h-2v-2z" fill="rgb(169,17,50)"/>
<path d="M24 12h2v2h-2v-2z" fill="rgb(8,33,52)"/>
<path d="M26 12h2v2h-2v-2z" fill="rgb(86,6,51)"/>
<path d="M28 12h2v2h-2v-2z" fill="rgb(169,17,50)"/>
<path d="M30 12h2v6h-2v-6z" fill="rgb(56,2,31)"/>
<path d="M8 14h2v4h-2v-4z" fill="rgb(56,2,31)"/>
<path d="M14 14h2v2h-2v-2z" fill="rgb(56,2,31)"/>
<path d="M16 14h2v2h-2v-2z" fill="rgb(169,17,50)"/>
<path d="M18 14h2v2h-2v-2z" fill="rgb(228,66,100)"/>
<path d="M20 14h4v2h-4v-2z" fill="rgb(235,106,133)"/>
<path d="M24 14h2v2h-2v-2z" fill="rgb(169,17,50)"/>
<path d="M26 14h2v2h-2v-2z" fill="rgb(235,106,133)"/>
<path d="M28 14h2v2h-2v-2z" fill="rgb(174,175,174)"/>
<path d="M10 16h2v2h-2v-2z" fill="rgb(222,26,68)"/>
<path d="M12 16h2v2h-2v-2z" fill="rgb(56,2,31)"/>
<path d="M14 16h2v2h-2v-2z" fill="rgb(222,119,39)"/>
<path d="M16 16h2v2h-2v-2z" fill="rgb(56,2,31)"/>
<path d="M18 16h2v2h-2v-2z" fill="rgb(117,14,71)"/>
<path d="M20 16h2v2h-2v-2z" fill="rgb(169,17,50)"/>
<path d="M22 16h2v2h-2v-2z" fill="rgb(228,66,100)"/>
<path d="M24 16h2v2h-2v-2z" fill="rgb(222,26,68)"/>
<path d="M26 16h2v2h-2v-2z" fill="rgb(86,86,86)"/>
<path d="M28 16h2v2h-2v-2z" fill="rgb(227,227,227)"/>
<path d="M10 18h2v2h-2v-2z" fill="rgb(56,2,31)"/>
<path d="M12 18h2v4h-2v-4z" fill="rgb(75,44,23)"/>
<path d="M14 18h2v6h4v2h-6v-8z" fill="rgb(238,160,107)"/>
<path d="M16 18h2v2h-2v-2z" fill="rgb(0,84,0)"/>
<path d="M18 18h4v2h-4v-2z" fill="rgb(56,2,31)"/>
<path d="M22 18h2v2h-2v-2z" fill="rgb(117,14,71)"/>
<path d="M24 18h2v2h-2v-2z" fill="rgb(169,17,50)"/>
<path d="M26 18h4v2h-4v-2z" fill="rgb(174,175,174)"/>
<path d="M30 18h2v2h-2v-2z" fill="rgb(169,17,50)"/>
<path d="M32 18h2v6h-2v-6z" fill="rgb(56,2,31)"/>
<path d="M8 20h2v2h-2v-2z" fill="rgb(236,236,236)"/>
<path d="M10 20h2v2h-2v-2z" fill="rgb(153,153,153)"/>
<path d="M16 20h2v2h-2v-2z" fill="rgb(0,62,0)"/>
<path d="M18 20h2v2h-2v-2z" fill="rgb(241,241,241)"/>
<path d="M20 20h2v4h-2v-4z" fill="rgb(238,160,107)"/>
<path d="M22 20h2v2h-2v-2z" fill="rgb(56,2,31)"/>
<path d="M24 20h2v2h-2v-2z" fill="rgb(86,6,51)"/>
<path d="M26 20h2v2h-2v-2z" fill="rgb(86,86,86)"/>
<path d="M28 20h2v2h-2v-2z" fill="rgb(169,17,50)"/>
<path d="M30 20h2v2h-2v-2z" fill="rgb(222,26,68)"/>
<path d="M6 22h2v2h-2v-2z" fill="rgb(180,181,180)"/>
<path d="M8 22h2v2h-2v-2z" fill="rgb(255,255,255)"/>
<path d="M10 22h2v2h-2v-2z" fill="rgb(75,44,23)"/>
<path d="M12 22h2v2h-2v-2z" fill="rgb(255,218,194)"/>
<path d="M16 22h4v2h-4v-2z" fill="rgb(245,115,99)"/>
<path d="M22 22h2v2h-2v-2z" fill="rgb(222,119,39)"/>
<path d="M24 22h2v2h-2v-2z" fill="rgb(56,2,31)"/>
<path d="M26 22h2v2h-2v-2z" fill="rgb(174,175,174)"/>
<path d="M28 22h2v2h-2v-2z" fill="rgb(236,236,236)"/>
<path d="M30 22h2v2h-2v-2z" fill="rgb(169,17,50)"/>
<path d="M8 24h2v2h-2v-2z" fill="rgb(153,153,153)"/>
<path d="M10 24h2v2h-2v-2z" fill="rgb(227,227,227)"/>
<path d="M12 24h2v2h-2v-2z" fill="rgb(75,44,23)"/>
<path d="M20 24h2v2h-2v-2z" fill="rgb(222,119,39)"/>
<path d="M22 24h2v2h-2v-2z" fill="rgb(75,44,23)"/>
<path d="M24 24h2v4h-2v-4z" fill="rgb(174,175,174)"/>
<path d="M26 24h2v2h-2v-2z" fill="rgb(121,121,121)"/>
<path d="M28 24h2v2h-2v-2z" fill="rgb(227,227,227)"/>
<path d="M30 24h2v2h-2v-2z" fill="rgb(86,86,86)"/>
<path d="M32 24h2v2h-2v-2z" fill="rgb(222,26,68)"/>
<path d="M34 24h2v2h-2v-2z" fill="rgb(56,2,31)"/>
<path d="M6 26h2v2h-2v-2z" fill="rgb(236,236,236)"/>
<path d="M8 26h2v2h-2v-2z" fill="rgb(75,44,23)"/>
<path d="M10 26h2v2h-2v-2z" fill="rgb(121,121,121)"/>
<path d="M12 26h2v2h-2v-2z" fill="rgb(227,227,227)"/>
<path d="M14 26h8v2h-8v-2z" fill="rgb(75,44,23)"/>
<path d="M22 26h2v2h-2v-2z" fill="rgb(121,121,121)"/>
<path d="M26 26h4v2h-4v-2z" fill="rgb(86,86,86)"/>
<path d="M30 26h2v2h-2v-2z" fill="rgb(169,17,50)"/>
<path d="M32 26h4v2h-4v-2z" fill="rgb(153,153,153)"/>
<path d="M6 28h2v4h-2v-4z" fill="rgb(75,44,23)"/>
<path d="M8 28h2v2h-2v-2z" fill="rgb(227,227,227)"/>
<path d="M10 28h2v2h-2v-2z" fill="rgb(86,86,86)"/>
<path d="M12 28h2v2h-2v-2z" fill="rgb(121,121,121)"/>
<path d="M14 28h2v2h-2v-2z" fill="rgb(174,175,174)"/>
<path d="M16 28h6v2h-6v-2z" fill="rgb(227,227,227)"/>
<path d="M22 28h2v2h-2v-2z" fill="rgb(174,175,174)"/>
<path d="M24 28h2v2h-2v-2z" fill="rgb(86,86,86)"/>
<path d="M26 28h2v2h-2v-2z" fill="rgb(255,218,194)"/>
<path d="M28 28h2v2h-2v-2z" fill="rgb(238,160,107)"/>
<path d="M30 28h2v4h-4v-2h2v-2z" fill="rgb(236,236,236)"/>
<path d="M32 28h2v2h-2v-2z" fill="rgb(56,2,31)"/>
<path d="M34 28h2v2h-2v-2z" fill="rgb(255,255,255)"/>
<path d="M36 28h2v2h-2v-2z" fill="rgb(180,181,180)"/>
<path d="M4 30h2v2h-2v-2z" fill="rgb(236,236,236)"/>
<path d="M8 30h2v2h-2v-2z" fill="rgb(174,175,174)"/>
<path d="M10 30h4v2h-4v-2z" fill="rgb(227,227,227)"/>
<path d="M14 30h2v2h-2v-2z" fill="rgb(121,121,121)"/>
<path d="M16 30h2v2h-2v-2z" fill="rgb(174,175,174)"/>
<path d="M18 30h2v2h-2v-2z" fill="rgb(121,121,121)"/>
<path d="M20 30h2v2h-2v-2z" fill="rgb(174,175,174)"/>
<path d="M22 30h2v2h-2v-2z" fill="rgb(69,132,181)"/>
<path d="M24 30h2v2h-2v-2z" fill="rgb(236,236,236)"/>
<path d="M26 30h2v2h-2v-2z" fill="rgb(238,160,107)"/>
<path d="M32 30h2v2h-2v-2z" fill="rgb(174,175,174)"/>
<path d="M34 30h2v2h-2v-2z" fill="rgb(153,153,153)"/>
<path d="M36 30h2v2h-2v-2z" fill="rgb(255,255,255)"/>
<path d="M38 30h2v2h-2v-2z" fill="rgb(236,236,236)"/>
<path d="M2 32h2v2h-2v-2z" fill="rgb(180,181,180)"/>
<path d="M4 32h2v2h-2v-2z" fill="rgb(255,255,255)"/>
<path d="M6 32h4v2h-4v-2z" fill="rgb(86,86,86)"/>
<path d="M10 32h2v2h-2v-2z" fill="rgb(174,175,174)"/>
<path d="M12 32h2v2h-2v-2z" fill="rgb(121,121,121)"/>
<path d="M14 32h2v2h-2v-2z" fill="rgb(30,64,91)"/>
<path d="M16 32h4v2h-4v-2z" fill="rgb(69,132,181)"/>
<path d="M20 32h4v2h-4v-2z" fill="rgb(236,236,236)"/>
<path d="M24 32h2v2h-2v-2z" fill="rgb(174,175,174)"/>
<path d="M26 32h2v2h-2v-2z" fill="rgb(227,227,227)"/>
<path d="M28 32h2v2h-2v-2z" fill="rgb(174,175,174)"/>
<path d="M30 32h4v2h-4v-2z" fill="rgb(86,86,86)"/>
<path d="M34 32h2v4h-2v-4z" fill="rgb(56,2,31)"/>
<path d="M36 32h2v2h-2v-2z" fill="rgb(236,236,236)"/>
<path d="M38 32h2v2h-2v-2z" fill="rgb(153,153,153)"/>
<path d="M2 34h2v2h-2v-2z" fill="rgb(236,236,236)"/>
<path d="M4 34h2v2h-2v-2z" fill="rgb(153,153,153)"/>
<path d="M6 34h2v2h-2v-2z" fill="rgb(236,236,236)"/>
<path d="M8 34h2v2h-2v-2z" fill="rgb(36,36,36)"/>
<path d="M10 34h2v2h-2v-2z" fill="rgb(114,105,94)"/>
<path d="M12 34h4v2h-4v-2z" fill="rgb(36,36,36)"/>
<path d="M16 34h2v2h-2v-2z" fill="rgb(114,105,94)"/>
<path d="M18 34h2v2h-2v-2z" fill="rgb(36,36,36)"/>
<path d="M20 34h2v2h-2v-2z" fill="rgb(121,121,121)"/>
<path d="M22 34h2v2h-2v-2z" fill="rgb(174,175,174)"/>
<path d="M24 34h2v2h-2v-2z" fill="rgb(227,227,227)"/>
<path d="M26 34h4v2h-4v-2z" fill="rgb(86,86,86)"/>
<path d="M30 34h2v4h-2v-4z" fill="rgb(75,44,23)"/>
<path d="M32 34h2v2h-2v-2z" fill="rgb(222,26,68)"/>
<path d="M36 34h2v2h-2v-2z" fill="rgb(222,26,68)"/>
<path d="M38 34h2v2h-2v-2z" fill="rgb(236,236,236)"/>
<path d="M0 36h2v2h-2v-2z" fill="rgb(180,181,180)"/>
<path d="M2 36h2v2h-2v-2z" fill="rgb(255,255,255)"/>
<path d="M4 36h2v2h-2v-2z" fill="rgb(236,236,236)"/>
<path d="M6 36h2v2h-2v-2z" fill="rgb(36,36,36)"/>
<path d="M8 36h2v2h-2v-2z" fill="rgb(164,165,164)"/>
<path d="M10 36h2v2h4v2h-8v-2h2v-2z" fill="rgb(36,36,36)"/>
<path d="M12 36h2v2h-2v-2z" fill="rgb(164,165,164)"/>
<path d="M14 36h2v2h-2v-2z" fill="rgb(114,105,94)"/>
<path d="M16 36h2v2h-2v-2z" fill="rgb(43,35,39)"/>
<path d="M18 36h4v2h-4v-2z" fill="rgb(227,227,227)"/>
<path d="M22 36h2v2h-2v-2z" fill="rgb(121,121,121)"/>
<path d="M24 36h2v2h-2v-2z" fill="rgb(86,86,86)"/>
<path d="M26 36h2v2h-2v-2z" fill="rgb(238,160,107)"/>
<path d="M28 36h2v2h-2v-2z" fill="rgb(255,218,194)"/>
<path d="M32 36h2v2h-2v-2z" fill="rgb(227,227,227)"/>
<path d="M34 36h2v2h-2v-2z" fill="rgb(222,26,68)"/>
<path d="M36 36h2v2h-2v-2z" fill="rgb(227,227,227)"/>
<path d="M38 36h2v2h-2v-2z" fill="rgb(56,2,31)"/>
<path d="M40 36h2v2h-2v-2z" fill="rgb(236,236,236)"/>
<path d="M0 38h4v2h-4v-2z" fill="rgb(236,236,236)"/>
<path d="M4 38h4v2h-4v-2z" fill="rgb(153,153,153)"/>
<path d="M16 38h2v2h-2v-2z" fill="rgb(8,33,52)"/>
<path d="M18 38h2v2h-2v-2z" fill="rgb(36,36,36)"/>
<path d="M20 38h7v1h1v1h-8v-2z" fill="rgb(8,33,52)"/>
<path d="M27 38h1v1h-1v-1z" fill="rgb(36,36,36)"/>
<path d="M28 38h2v2h-2v-2z" fill="rgb(75,44,23)"/>
<path d="M30 38h2v2h-2v-2z" fill="rgb(117,14,71)"/>
<path d="M32 38h6v2h-6v-2z" fill="rgb(56,2,31)"/>
<path d="M38 38h2v2h-2v-2z" fill="rgb(236,236,236)"/>
<path d="M40 38h2v2h-2v-2z" fill="rgb(255,255,255)"/>
</svg>