<?xml version="1.0" encoding="utf-8"?>
<!-- generated at drububu.com  -->
<!DOCTYPE svg PUBLIC "-//W3C//DTD SVG 1.1//EN" "http://www.w3.org/Graphics/SVG/1.1/DTD/svg11.dtd">
<svg version="1.1" preserveAspectRatio="xMinYMin meet" xmlns="http://www.w3.org/2000/svg" xmlns:xlink="http://www.w3.org/1999/xlink" x="0px" y="0px" width="46px" height="48px" viewBox="0 0 46 48">
<path d="M0 0h14v2h-2v6h-2v-2h-8v4h-2v-10z" fill="rgb(255,255,255)"/>
<path d="M14 0h2v2h-2v-2z" fill="rgb(39,39,28)"/>
<path d="M16 0h12v2h-4v2h-4v2h-2v-4h-2v-2z" fill="rgb(255,255,255)"/>
<path d="M28 0h6v2h-6v-2z" fill="rgb(25,54,40)"/>
<path d="M34 0h2v2h-2v-2z" fill="rgb(255,255,255)"/>
<path d="M36 0h2v2h-2v-2z" fill="rgb(39,39,28)"/>
<path d="M38 0h8v44h-2v-2h-2v-4h-2v-4h2v-2h-2v-4h2v-6h-2v-2h-2v-4h4v-2h2v-2h-2
	v-2h2v-2h-2v-2h-2v-4h-2v-2z" fill="rgb(255,255,255)"/>
<path d="M12 2h2v6h-2v-6z" fill="rgb(39,39,28)"/>
<path d="M14 2h2v2h-2v-2z" fill="rgb(199,197,171)"/>
<path d="M16 2h2v4h-2v-4z" fill="rgb(39,39,28)"/>
<path d="M24 2h4v2h-4v-2z" fill="rgb(39,39,28)"/>
<path d="M28 2h4v2h-4v-2z" fill="rgb(165,210,78)"/>
<path d="M32 2h2v2h-2v-2z" fill="rgb(69,109,3)"/>
<path d="M34 2h2v2h-2v-2z" fill="rgb(25,54,40)"/>
<path d="M36 2h2v2h-2v-2z" fill="rgb(169,168,126)"/>
<path d="M38 2h2v4h-2v-4z" fill="rgb(39,39,28)"/>
<path d="M14 4h2v2h-2v-2z" fill="rgb(173,170,130)"/>
<path d="M20 4h4v2h-4v-2z" fill="rgb(39,39,28)"/>
<path d="M24 4h2v2h-2v-2z" fill="rgb(140,140,107)"/>
<path d="M26 4h2v2h-2v-2z" fill="rgb(104,104,83)"/>
<path d="M28 4h2v2h-2v-2z" fill="rgb(69,109,3)"/>
<path d="M30 4h2v2h-2v-2z" fill="rgb(25,54,40)"/>
<path d="M32 4h2v2h-2v-2z" fill="rgb(106,165,60)"/>
<path d="M34 4h2v2h-2v-2z" fill="rgb(199,197,171)"/>
<path d="M36 4h2v2h-2v-2z" fill="rgb(140,140,107)"/>
<path d="M2 6h8v2h-6v2h-2v-4z" fill="rgb(75,28,0)"/>
<path d="M14 6h2v2h-2v-2z" fill="rgb(104,104,83)"/>
<path d="M16 6h2v2h-2v-2z" fill="rgb(173,170,130)"/>
<path d="M18 6h2v2h-2v-2z" fill="rgb(39,39,28)"/>
<path d="M20 6h2v2h-2v-2z" fill="rgb(173,170,130)"/>
<path d="M22 6h4v2h-2v2h-6v-2h4v-2z" fill="rgb(199,197,171)"/>
<path d="M26 6h2v4h-2v-4z" fill="rgb(173,170,130)"/>
<path d="M28 6h2v2h-2v-2z" fill="rgb(199,197,171)"/>
<path d="M30 6h2v2h-2v-2z" fill="rgb(173,170,130)"/>
<path d="M32 6h2v2h-2v-2z" fill="rgb(199,197,171)"/>
<path d="M34 6h2v2h-2v-2z" fill="rgb(140,140,107)"/>
<path d="M36 6h6v2h-6v-2z" fill="rgb(41,2,77)"/>
<path d="M4 8h2v2h-2v-2z" fill="rgb(198,57,34)"/>
<path d="M6 8h2v2h-2v-2z" fill="rgb(154,16,16)"/>
<path d="M8 8h2v2h-2v-2z" fill="rgb(109,77,69)"/>
<path d="M10 8h2v4h-2v-4z" fill="rgb(75,28,0)"/>
<path d="M12 8h2v2h2v10h-2v-6h-2v-6z" fill="rgb(255,255,255)"/>
<path d="M14 8h2v2h-2v-2z" fill="rgb(39,39,28)"/>
<path d="M16 8h2v2h-2v-2z" fill="rgb(104,104,83)"/>
<path d="M24 8h2v2h-2v-2z" fill="rgb(140,140,107)"/>
<path d="M28 8h4v2h-4v-2z" fill="rgb(104,104,83)"/>
<path d="M32 8h2v2h-2v-2z" fill="rgb(140,140,107)"/>
<path d="M34 8h2v2h-2v-2z" fill="rgb(41,2,77)"/>
<path d="M36 8h2v4h-4v-2h2v-2z" fill="rgb(122,31,200)"/>
<path d="M38 8h2v2h-2v-2z" fill="rgb(157,82,223)"/>
<path d="M40 8h2v2h-2v-2z" fill="rgb(122,31,200)"/>
<path d="M42 8h2v2h-2v-2z" fill="rgb(41,2,77)"/>
<path d="M0 10h2v4h-2v-4z" fill="rgb(75,28,0)"/>
<path d="M2 10h2v2h-2v-2z" fill="rgb(109,77,69)"/>
<path d="M4 10h2v2h-2v-2z" fill="rgb(255,255,255)"/>
<path d="M6 10h2v2h-2v-2z" fill="rgb(75,28,0)"/>
<path d="M8 10h2v2h-2v-2z" fill="rgb(166,130,101)"/>
<path d="M16 10h2v8h-2v-8z" fill="rgb(39,39,28)"/>
<path d="M18 10h2v2h-2v-2z" fill="rgb(225,224,210)"/>
<path d="M20 10h2v2h-2v-2z" fill="rgb(173,170,130)"/>
<path d="M22 10h2v2h-2v-2z" fill="rgb(140,140,107)"/>
<path d="M24 10h2v2h-2v-2z" fill="rgb(199,197,171)"/>
<path d="M26 10h4v4h-2v-2h-2v-2z" fill="rgb(140,140,107)"/>
<path d="M30 10h4v2h-4v-2z" fill="rgb(41,2,77)"/>
<path d="M38 10h4v2h-4v-2z" fill="rgb(41,2,77)"/>
<path d="M2 12h2v2h-2v-2z" fill="rgb(219,87,67)"/>
<path d="M4 12h2v2h-2v-2z" fill="rgb(109,77,69)"/>
<path d="M6 12h2v2h-2v-2z" fill="rgb(255,255,255)"/>
<path d="M8 12h2v4h-2v-4z" fill="rgb(75,28,0)"/>
<path d="M10 12h2v2h-2v-2z" fill="rgb(198,57,34)"/>
<path d="M18 12h2v4h-2v-4z" fill="rgb(106,77,74)"/>
<path d="M20 12h2v4h-2v-4z" fill="rgb(199,197,171)"/>
<path d="M22 12h4v4h-4v-4z" fill="rgb(39,39,28)"/>
<path d="M26 12h2v2h-2v-2z" fill="rgb(199,197,171)"/>
<path d="M30 12h2v4h-2v-4z" fill="rgb(83,3,3)"/>
<path d="M32 12h2v4h-2v-4z" fill="rgb(154,16,16)"/>
<path d="M34 12h4v2h-2v2h-2v-4z" fill="rgb(198,57,34)"/>
<path d="M38 12h4v2h-4v-2z" fill="rgb(154,16,16)"/>
<path d="M42 12h2v2h-2v-2z" fill="rgb(83,3,3)"/>
<path d="M0 14h2v2h-2v-2z" fill="rgb(104,104,83)"/>
<path d="M2 14h2v2h-2v-2z" fill="rgb(75,28,0)"/>
<path d="M4 14h2v2h-2v-2z" fill="rgb(166,130,101)"/>
<path d="M6 14h2v2h-2v-2z" fill="rgb(109,77,69)"/>
<path d="M10 14h2v2h-2v-2z" fill="rgb(154,16,16)"/>
<path d="M12 14h2v4h-2v-4z" fill="rgb(75,28,0)"/>
<path d="M26 14h2v2h-2v-2z" fill="rgb(173,170,130)"/>
<path d="M28 14h2v2h-2v-2z" fill="rgb(104,104,83)"/>
<path d="M36 14h2v2h-2v-2z" fill="rgb(154,16,16)"/>
<path d="M38 14h4v2h-4v-2z" fill="rgb(83,3,3)"/>
<path d="M0 16h2v2h-2v-2z" fill="rgb(140,140,107)"/>
<path d="M2 16h2v18h2v-10h2v-4h2v2h2v4h-2v6h2v4h-2v6h2v4h2v2h-14v-20h2v-12z" fill="rgb(255,255,255)"/>
<path d="M4 16h2v2h-2v-2z" fill="rgb(104,104,83)"/>
<path d="M6 16h2v2h-2v-2z" fill="rgb(75,28,0)"/>
<path d="M8 16h2v2h-2v-2z" fill="rgb(198,57,34)"/>
<path d="M10 16h2v2h-2v-2z" fill="rgb(219,87,67)"/>
<path d="M18 16h2v4h-2v-4z" fill="rgb(225,224,210)"/>
<path d="M20 16h4v2h-4v-2z" fill="rgb(173,170,130)"/>
<path d="M24 16h2v4h-2v-4z" fill="rgb(199,197,171)"/>
<path d="M26 16h2v2h-2v-2z" fill="rgb(104,104,83)"/>
<path d="M28 16h2v2h-2v-2z" fill="rgb(1,54,80)"/>
<path d="M30 16h2v2h-2v-2z" fill="rgb(4,123,176)"/>
<path d="M32 16h6v2h-6v-2z" fill="rgb(83,3,3)"/>
<path d="M0 18h2v2h-2v-2z" fill="rgb(199,197,171)"/>
<path d="M4 18h2v2h-2v-2z" fill="rgb(140,140,107)"/>
<path d="M6 18h2v6h-2v-6z" fill="rgb(104,104,83)"/>
<path d="M8 18h2v2h-2v-2z" fill="rgb(75,28,0)"/>
<path d="M10 18h2v2h-2v-2z" fill="rgb(154,16,16)"/>
<path d="M12 18h2v2h-2v-2z" fill="rgb(198,57,34)"/>
<path d="M16 18h2v2h-2v-2z" fill="rgb(104,104,83)"/>
<path d="M20 18h2v2h-2v-2z" fill="rgb(25,54,40)"/>
<path d="M22 18h2v2h-2v-2z" fill="rgb(104,104,83)"/>
<path d="M26 18h2v2h-2v-2z" fill="rgb(1,54,80)"/>
<path d="M28 18h2v2h-2v-2z" fill="rgb(4,123,176)"/>
<path d="M30 18h4v2h-4v-2z" fill="rgb(8,167,239)"/>
<path d="M34 18h2v2h-2v-2z" fill="rgb(4,123,176)"/>
<path d="M36 18h2v2h-2v-2z" fill="rgb(1,54,80)"/>
<path d="M0 20h2v2h-2v-2z" fill="rgb(140,140,107)"/>
<path d="M4 20h2v4h-2v-4z" fill="rgb(199,197,171)"/>
<path d="M10 20h2v2h-2v-2z" fill="rgb(75,28,0)"/>
<path d="M12 20h2v2h-2v-2z" fill="rgb(166,130,101)"/>
<path d="M14 20h2v2h-2v-2z" fill="rgb(75,28,0)"/>
<path d="M16 20h2v4h-2v-4z" fill="rgb(255,255,255)"/>
<path d="M18 20h2v2h-2v-2z" fill="rgb(104,104,83)"/>
<path d="M20 20h2v2h-2v-2z" fill="rgb(24,37,6)"/>
<path d="M22 20h2v2h-2v-2z" fill="rgb(25,54,40)"/>
<path d="M24 20h2v2h-2v-2z" fill="rgb(104,104,83)"/>
<path d="M26 20h2v2h-2v-2z" fill="rgb(25,54,40)"/>
<path d="M28 20h2v2h-2v-2z" fill="rgb(48,82,20)"/>
<path d="M30 20h2v2h-2v-2z" fill="rgb(24,37,6)"/>
<path d="M32 20h2v2h-2v-2z" fill="rgb(104,104,83)"/>
<path d="M34 20h2v2h-2v-2z" fill="rgb(140,140,107)"/>
<path d="M36 20h2v2h-2v-2z" fill="rgb(169,168,126)"/>
<path d="M38 20h2v2h-2v-2z" fill="rgb(39,39,28)"/>
<path d="M0 22h2v2h-2v-2z" fill="rgb(104,104,83)"/>
<path d="M12 22h2v2h-2v-2z" fill="rgb(75,28,0)"/>
<path d="M14 22h2v2h-2v-2z" fill="rgb(109,77,69)"/>
<path d="M18 22h2v8h2v2h-4v-6h-6v-2h6v-2z" fill="rgb(24,37,6)"/>
<path d="M20 22h2v2h-2v-2z" fill="rgb(48,82,20)"/>
<path d="M22 22h2v2h-2v-2z" fill="rgb(80,75,0)"/>
<path d="M24 22h2v2h-2v-2z" fill="rgb(24,37,6)"/>
<path d="M26 22h4v2h-4v-2z" fill="rgb(80,75,0)"/>
<path d="M30 22h2v2h-2v-2z" fill="rgb(69,109,3)"/>
<path d="M32 22h2v2h-2v-2z" fill="rgb(140,140,107)"/>
<path d="M34 22h2v2h-2v-2z" fill="rgb(39,39,28)"/>
<path d="M36 22h2v4h-4v-2h2v-2z" fill="rgb(199,197,171)"/>
<path d="M38 22h2v2h-2v-2z" fill="rgb(106,77,74)"/>
<path d="M40 22h2v6h-2v-6z" fill="rgb(39,39,28)"/>
<path d="M0 24h2v2h-2v-2z" fill="rgb(181,124,231)"/>
<path d="M4 24h2v2h-2v-2z" fill="rgb(4,123,176)"/>
<path d="M20 24h2v4h-2v-4z" fill="rgb(106,165,60)"/>
<path d="M22 24h2v2h-2v-2z" fill="rgb(180,134,10)"/>
<path d="M24 24h4v2h-4v-2z" fill="rgb(255,241,48)"/>
<path d="M28 24h2v2h-2v-2z" fill="rgb(180,134,10)"/>
<path d="M30 24h2v4h-2v-4z" fill="rgb(106,165,60)"/>
<path d="M32 24h2v2h-2v-2z" fill="rgb(104,104,83)"/>
<path d="M38 24h2v2h-2v-2z" fill="rgb(140,140,107)"/>
<path d="M0 26h2v2h-2v-2z" fill="rgb(122,31,200)"/>
<path d="M4 26h2v2h-2v-2z" fill="rgb(140,140,107)"/>
<path d="M10 26h2v6h-2v-6z" fill="rgb(24,37,6)"/>
<path d="M12 26h2v2h-2v-2z" fill="rgb(69,109,3)"/>
<path d="M14 26h2v2h2v2h-2v2h-2v-2h-2v-2h2v-2z" fill="rgb(106,165,60)"/>
<path d="M16 26h2v2h-2v-2z" fill="rgb(165,210,78)"/>
<path d="M22 26h2v2h-2v-2z" fill="rgb(165,210,78)"/>
<path d="M24 26h2v2h-2v-2z" fill="rgb(69,109,3)"/>
<path d="M26 26h4v2h-4v-2z" fill="rgb(165,210,78)"/>
<path d="M32 26h2v4h-2v-4z" fill="rgb(24,37,6)"/>
<path d="M34 26h2v2h-2v-2z" fill="rgb(169,168,126)"/>
<path d="M36 26h2v2h-2v-2z" fill="rgb(104,104,83)"/>
<path d="M38 26h2v2h-2v-2z" fill="rgb(169,168,126)"/>
<path d="M4 28h2v2h-2v-2z" fill="rgb(104,104,83)"/>
<path d="M20 28h2v2h-2v-2z" fill="rgb(58,123,91)"/>
<path d="M22 28h6v2h-6v-2z" fill="rgb(24,37,6)"/>
<path d="M28 28h2v2h-2v-2z" fill="rgb(83,3,3)"/>
<path d="M30 28h2v2h-2v-2z" fill="rgb(154,16,16)"/>
<path d="M34 28h2v2h-2v-2z" fill="rgb(104,134,46)"/>
<path d="M36 28h2v2h-2v-2z" fill="rgb(69,109,3)"/>
<path d="M38 28h2v2h-2v-2z" fill="rgb(39,39,28)"/>
<path d="M4 30h2v2h-2v-2z" fill="rgb(8,167,239)"/>
<path d="M12 30h2v2h-2v-2z" fill="rgb(69,109,3)"/>
<path d="M16 30h2v2h-2v-2z" fill="rgb(165,210,78)"/>
<path d="M22 30h2v2h-2v-2z" fill="rgb(169,168,126)"/>
<path d="M24 30h2v2h-2v-2z" fill="rgb(140,140,107)"/>
<path d="M26 30h2v2h-2v-2z" fill="rgb(104,104,83)"/>
<path d="M28 30h2v2h-2v-2z" fill="rgb(154,16,16)"/>
<path d="M30 30h2v4h-2v-4z" fill="rgb(83,3,3)"/>
<path d="M32 30h2v2h-2v-2z" fill="rgb(137,89,52)"/>
<path d="M34 30h2v2h-2v-2z" fill="rgb(180,134,10)"/>
<path d="M36 30h2v2h-2v-2z" fill="rgb(255,241,48)"/>
<path d="M38 30h2v2h-2v-2z" fill="rgb(80,75,0)"/>
<path d="M4 32h2v2h-2v-2z" fill="rgb(4,123,176)"/>
<path d="M12 32h6v4h-2v-2h-4v-2z" fill="rgb(24,37,6)"/>
<path d="M18 32h2v6h-2v-6z" fill="rgb(39,39,28)"/>
<path d="M20 32h2v2h-2v-2z" fill="rgb(106,77,74)"/>
<path d="M22 32h2v4h-2v-4z" fill="rgb(225,224,210)"/>
<path d="M24 32h2v2h-2v-2z" fill="rgb(39,39,28)"/>
<path d="M26 32h2v2h-2v-2z" fill="rgb(140,140,107)"/>
<path d="M28 32h2v2h-2v-2z" fill="rgb(198,57,34)"/>
<path d="M32 32h2v4h-2v-4z" fill="rgb(106,165,60)"/>
<path d="M34 32h2v2h-2v-2z" fill="rgb(137,89,52)"/>
<path d="M36 32h2v2h-2v-2z" fill="rgb(80,75,0)"/>
<path d="M38 32h2v2h-2v-2z" fill="rgb(234,204,17)"/>
<path d="M40 32h2v2h-2v-2z" fill="rgb(80,75,0)"/>
<path d="M12 34h2v2h-2v-2z" fill="rgb(75,28,0)"/>
<path d="M14 34h2v4h-2v-4z" fill="rgb(109,77,69)"/>
<path d="M20 34h2v2h-2v-2z" fill="rgb(140,140,107)"/>
<path d="M24 34h2v2h-2v-2z" fill="rgb(199,197,171)"/>
<path d="M26 34h2v4h-2v-4z" fill="rgb(104,104,83)"/>
<path d="M28 34h2v4h-2v-4z" fill="rgb(39,39,28)"/>
<path d="M30 34h2v2h-2v-2z" fill="rgb(24,37,6)"/>
<path d="M34 34h4v2h-4v-2z" fill="rgb(165,210,78)"/>
<path d="M38 34h2v2h-2v-2z" fill="rgb(80,75,0)"/>
<path d="M10 36h2v6h-2v-6z" fill="rgb(75,28,0)"/>
<path d="M12 36h2v2h-2v-2z" fill="rgb(142,107,89)"/>
<path d="M16 36h2v2h2v6h-2v4h-2v-12z" fill="rgb(255,255,255)"/>
<path d="M20 36h2v2h-2v-2z" fill="rgb(169,168,126)"/>
<path d="M22 36h2v2h-2v-2z" fill="rgb(104,104,83)"/>
<path d="M24 36h2v2h-2v-2z" fill="rgb(169,168,126)"/>
<path d="M30 36h2v4h-2v-4z" fill="rgb(69,109,3)"/>
<path d="M32 36h8v2h-4v2h-4v-4z" fill="rgb(24,37,6)"/>
<path d="M12 38h2v4h-2v-4z" fill="rgb(109,77,69)"/>
<path d="M14 38h2v4h-2v-4z" fill="rgb(75,28,0)"/>
<path d="M20 38h2v4h-2v-4z" fill="rgb(83,3,3)"/>
<path d="M22 38h2v2h-2v-2z" fill="rgb(154,16,16)"/>
<path d="M24 38h2v2h-2v-2z" fill="rgb(198,57,34)"/>
<path d="M26 38h2v2h-2v-2z" fill="rgb(154,16,16)"/>
<path d="M28 38h2v4h-2v-4z" fill="rgb(83,3,3)"/>
<path d="M36 38h2v2h-2v-2z" fill="rgb(69,109,3)"/>
<path d="M38 38h2v4h-2v-4z" fill="rgb(104,134,46)"/>
<path d="M40 38h2v4h-2v-4z" fill="rgb(24,37,6)"/>
<path d="M22 40h2v2h-2v-2z" fill="rgb(198,57,34)"/>
<path d="M24 40h2v2h-2v-2z" fill="rgb(219,87,67)"/>
<path d="M26 40h2v2h-2v-2z" fill="rgb(198,57,34)"/>
<path d="M30 40h4v2h-4v-2z" fill="rgb(122,31,200)"/>
<path d="M34 40h2v4h-2v-4z" fill="rgb(41,2,77)"/>
<path d="M36 40h2v2h-2v-2z" fill="rgb(24,37,6)"/>
<path d="M12 42h2v4h-2v-4z" fill="rgb(75,28,0)"/>
<path d="M14 42h2v4h-2v-4z" fill="rgb(109,77,69)"/>
<path d="M20 42h2v2h-2v-2z" fill="rgb(24,37,6)"/>
<path d="M22 42h6v2h-6v-2z" fill="rgb(83,3,3)"/>
<path d="M28 42h2v2h-2v-2z" fill="rgb(157,82,223)"/>
<path d="M30 42h2v2h-2v-2z" fill="rgb(181,124,231)"/>
<path d="M32 42h2v2h-2v-2z" fill="rgb(157,82,223)"/>
<path d="M36 42h2v2h2v2h6v2h-10v-6z" fill="rgb(255,255,255)"/>
<path d="M38 42h2v2h-2v-2z" fill="rgb(24,37,6)"/>
<path d="M40 42h2v2h-2v-2z" fill="rgb(104,134,46)"/>
<path d="M42 42h2v2h2v2h-6v-2h2v-2z" fill="rgb(24,37,6)"/>
<path d="M18 44h2v2h2v-2h2v2h10v-2h2v4h-18v-4z" fill="rgb(24,37,6)"/>
<path d="M20 44h2v2h-2v-2z" fill="rgb(106,165,60)"/>
<path d="M24 44h2v2h-2v-2z" fill="rgb(165,210,78)"/>
<path d="M26 44h4v2h-4v-2z" fill="rgb(106,165,60)"/>
<path d="M30 44h2v2h-2v-2z" fill="rgb(104,134,46)"/>
<path d="M32 44h2v2h-2v-2z" fill="rgb(69,109,3)"/>
<path d="M14 46h2v2h-2v-2z" fill="rgb(75,28,0)"/>
</svg>