<?xml version="1.0" encoding="utf-8"?>
<!-- generated at drububu.com  -->
<!DOCTYPE svg PUBLIC "-//W3C//DTD SVG 1.1//EN" "http://www.w3.org/Graphics/SVG/1.1/DTD/svg11.dtd">
<svg version="1.1" preserveAspectRatio="xMinYMin meet" xmlns="http://www.w3.org/2000/svg" xmlns:xlink="http://www.w3.org/1999/xlink" x="0px" y="0px" width="32px" height="48px" viewBox="0 0 32 48">
<path d="M0 0h4v2h-2v6h-2v-8z" fill="rgb(255,255,255)"/>
<path d="M4 0h2v2h-2v-2z" fill="rgb(69,2,0)"/>
<path d="M6 0h6v2h-2v2h-2v-2h-2v-2z" fill="rgb(255,255,255)"/>
<path d="M12 0h2v2h-2v-2z" fill="rgb(69,2,0)"/>
<path d="M14 0h18v38h-2v-2h-8v-2h2v-2h2v-2h-2v-2h2v-2h2v-2h-2v-2h-2v-4h-2v-2h2
	v-4h-2v-4h-2v-2h-2v-2h-2v-2h-2v-2z" fill="rgb(255,255,255)"/>
<path d="M2 2h2v4h-2v-4z" fill="rgb(69,2,0)"/>
<path d="M4 2h2v2h-2v-2z" fill="rgb(247,141,95)"/>
<path d="M6 2h2v2h-2v-2z" fill="rgb(69,2,0)"/>
<path d="M10 2h2v8h-2v-8z" fill="rgb(69,2,0)"/>
<path d="M12 2h2v2h-2v-2z" fill="rgb(239,211,208)"/>
<path d="M14 2h2v2h-2v-2z" fill="rgb(69,2,0)"/>
<path d="M4 4h6v2h-6v-2z" fill="rgb(36,0,0)"/>
<path d="M12 4h2v6h-2v-6z" fill="rgb(132,17,3)"/>
<path d="M14 4h2v2h-2v-2z" fill="rgb(239,211,208)"/>
<path d="M16 4h2v2h-2v-2z" fill="rgb(69,2,0)"/>
<path d="M2 6h2v2h-2v-2z" fill="rgb(36,0,0)"/>
<path d="M4 6h2v2h-2v-2z" fill="rgb(124,0,0)"/>
<path d="M6 6h4v2h-4v-2z" fill="rgb(82,0,0)"/>
<path d="M14 6h2v2h2v2h-2v2h-2v-6z" fill="rgb(225,103,58)"/>
<path d="M16 6h2v2h-2v-2z" fill="rgb(247,141,95)"/>
<path d="M18 6h2v2h-2v-2z" fill="rgb(69,2,0)"/>
<path d="M0 8h2v6h-2v-6z" fill="rgb(36,0,0)"/>
<path d="M2 8h2v2h-2v-2z" fill="rgb(82,0,0)"/>
<path d="M4 8h2v2h-2v-2z" fill="rgb(207,60,0)"/>
<path d="M6 8h4v2h-4v-2z" fill="rgb(163,0,0)"/>
<path d="M18 8h2v4h-2v-4z" fill="rgb(163,0,0)"/>
<path d="M20 8h2v4h-2v-4z" fill="rgb(36,0,0)"/>
<path d="M2 10h2v2h-2v-2z" fill="rgb(141,0,0)"/>
<path d="M4 10h2v2h-2v-2z" fill="rgb(56,3,14)"/>
<path d="M6 10h2v2h-2v-2z" fill="rgb(247,141,95)"/>
<path d="M8 10h2v2h-2v-2z" fill="rgb(141,0,0)"/>
<path d="M10 10h2v2h-2v-2z" fill="rgb(163,0,0)"/>
<path d="M12 10h2v2h-2v-2z" fill="rgb(101,8,0)"/>
<path d="M16 10h2v2h-2v-2z" fill="rgb(141,0,0)"/>
<path d="M2 12h2v2h-2v-2z" fill="rgb(52,0,0)"/>
<path d="M4 12h2v2h-2v-2z" fill="rgb(82,0,0)"/>
<path d="M6 12h2v2h-2v-2z" fill="rgb(56,3,14)"/>
<path d="M8 12h2v2h-2v-2z" fill="rgb(240,96,28)"/>
<path d="M10 12h2v2h-2v-2z" fill="rgb(207,60,0)"/>
<path d="M12 12h2v2h-2v-2z" fill="rgb(124,0,0)"/>
<path d="M14 12h2v2h-2v-2z" fill="rgb(141,0,0)"/>
<path d="M16 12h2v2h-2v-2z" fill="rgb(124,0,0)"/>
<path d="M18 12h2v2h-2v-2z" fill="rgb(82,0,0)"/>
<path d="M20 12h2v2h-2v-2z" fill="rgb(163,0,0)"/>
<path d="M22 12h2v4h-2v-4z" fill="rgb(36,0,0)"/>
<path d="M0 14h2v4h-2v-4z" fill="rgb(255,255,255)"/>
<path d="M2 14h2v2h-2v-2z" fill="rgb(36,0,0)"/>
<path d="M4 14h2v2h-2v-2z" fill="rgb(85,35,30)"/>
<path d="M6 14h2v2h-2v-2z" fill="rgb(22,6,4)"/>
<path d="M8 14h4v2h-4v-2z" fill="rgb(56,3,14)"/>
<path d="M12 14h2v2h-2v-2z" fill="rgb(207,60,0)"/>
<path d="M14 14h2v2h-2v-2z" fill="rgb(124,0,0)"/>
<path d="M16 14h4v2h-4v-2z" fill="rgb(141,0,0)"/>
<path d="M20 14h2v2h-2v-2z" fill="rgb(124,0,0)"/>
<path d="M2 16h2v2h-2v-2z" fill="rgb(50,2,8)"/>
<path d="M4 16h2v2h-2v-2z" fill="rgb(108,59,51)"/>
<path d="M6 16h2v2h-2v-2z" fill="rgb(27,8,6)"/>
<path d="M8 16h2v2h-2v-2z" fill="rgb(247,247,247)"/>
<path d="M10 16h2v2h-2v-2z" fill="rgb(82,0,0)"/>
<path d="M12 16h2v2h-2v-2z" fill="rgb(163,0,0)"/>
<path d="M14 16h2v2h-2v-2z" fill="rgb(141,0,0)"/>
<path d="M16 16h2v2h-2v-2z" fill="rgb(124,0,0)"/>
<path d="M18 16h2v2h-2v-2z" fill="rgb(52,0,0)"/>
<path d="M20 16h2v2h-2v-2z" fill="rgb(36,0,0)"/>
<path d="M0 18h2v2h-2v-2z" fill="rgb(50,2,8)"/>
<path d="M2 18h2v2h-2v-2z" fill="rgb(156,109,98)"/>
<path d="M4 18h4v2h2v2h-6v-4z" fill="rgb(123,77,64)"/>
<path d="M8 18h2v2h-2v-2z" fill="rgb(143,97,85)"/>
<path d="M10 18h2v2h-2v-2z" fill="rgb(123,77,64)"/>
<path d="M12 18h4v2h-4v-2z" fill="rgb(82,0,0)"/>
<path d="M16 18h2v2h-2v-2z" fill="rgb(163,0,0)"/>
<path d="M18 18h2v2h-2v-2z" fill="rgb(141,0,0)"/>
<path d="M20 18h2v4h-2v-4z" fill="rgb(124,0,0)"/>
<path d="M22 18h2v4h-2v-4z" fill="rgb(36,0,0)"/>
<path d="M0 20h2v6h-2v-6z" fill="rgb(255,255,255)"/>
<path d="M2 20h2v2h-2v-2z" fill="rgb(50,2,8)"/>
<path d="M10 20h2v2h-2v-2z" fill="rgb(85,35,30)"/>
<path d="M12 20h2v2h-2v-2z" fill="rgb(50,2,8)"/>
<path d="M14 20h2v2h-2v-2z" fill="rgb(85,35,30)"/>
<path d="M16 20h2v2h-2v-2z" fill="rgb(50,2,8)"/>
<path d="M18 20h2v2h-2v-2z" fill="rgb(82,0,0)"/>
<path d="M2 22h2v4h-2v-4z" fill="rgb(8,48,49)"/>
<path d="M4 22h8v2h-8v-2z" fill="rgb(50,2,8)"/>
<path d="M12 22h2v2h-2v-2z" fill="rgb(8,48,49)"/>
<path d="M14 22h4v2h-4v-2z" fill="rgb(143,97,85)"/>
<path d="M18 22h2v14h-2v-14z" fill="rgb(50,2,8)"/>
<path d="M20 22h2v2h-2v-2z" fill="rgb(82,0,0)"/>
<path d="M22 22h2v2h-2v-2z" fill="rgb(163,0,0)"/>
<path d="M24 22h2v2h-2v-2z" fill="rgb(36,0,0)"/>
<path d="M4 24h6v2h-6v-2z" fill="rgb(108,59,51)"/>
<path d="M10 24h2v2h-2v-2z" fill="rgb(143,97,85)"/>
<path d="M12 24h2v2h-2v-2z" fill="rgb(47,169,107)"/>
<path d="M14 24h2v2h-2v-2z" fill="rgb(123,77,64)"/>
<path d="M16 24h2v12h-2v-12z" fill="rgb(156,109,98)"/>
<path d="M20 24h2v2h-2v-2z" fill="rgb(52,0,0)"/>
<path d="M22 24h2v2h-2v-2z" fill="rgb(82,0,0)"/>
<path d="M24 24h2v2h-2v-2z" fill="rgb(163,0,0)"/>
<path d="M26 24h2v2h-2v-2z" fill="rgb(36,0,0)"/>
<path d="M0 26h2v4h-2v-4z" fill="rgb(8,48,49)"/>
<path d="M2 26h2v2h-2v-2z" fill="rgb(36,125,102)"/>
<path d="M4 26h2v2h-2v-2z" fill="rgb(156,109,98)"/>
<path d="M6 26h2v2h-2v-2z" fill="rgb(85,35,30)"/>
<path d="M8 26h2v2h-2v-2z" fill="rgb(156,109,98)"/>
<path d="M10 26h2v2h-2v-2z" fill="rgb(36,125,102)"/>
<path d="M12 26h2v2h-2v-2z" fill="rgb(57,212,137)"/>
<path d="M14 26h2v6h-2v-6z" fill="rgb(50,2,8)"/>
<path d="M20 26h2v2h-2v-2z" fill="rgb(82,0,0)"/>
<path d="M22 26h2v2h-2v-2z" fill="rgb(52,0,0)"/>
<path d="M24 26h2v2h-2v-2z" fill="rgb(36,0,0)"/>
<path d="M2 28h2v2h-2v-2z" fill="rgb(57,212,137)"/>
<path d="M4 28h6v2h-6v-2z" fill="rgb(72,254,167)"/>
<path d="M10 28h2v2h-2v-2z" fill="rgb(57,212,137)"/>
<path d="M12 28h2v2h-2v-2z" fill="rgb(47,169,107)"/>
<path d="M20 28h2v2h-2v-2z" fill="rgb(141,0,0)"/>
<path d="M22 28h2v2h-2v-2z" fill="rgb(36,0,0)"/>
<path d="M0 30h2v6h-2v-6z" fill="rgb(50,2,8)"/>
<path d="M2 30h2v2h-2v-2z" fill="rgb(8,48,49)"/>
<path d="M4 30h2v2h-2v-2z" fill="rgb(36,125,102)"/>
<path d="M6 30h2v2h-2v-2z" fill="rgb(23,87,80)"/>
<path d="M8 30h4v2h-4v-2z" fill="rgb(36,125,102)"/>
<path d="M12 30h2v2h-2v-2z" fill="rgb(23,87,80)"/>
<path d="M20 30h2v2h-2v-2z" fill="rgb(124,0,0)"/>
<path d="M22 30h2v2h-2v-2z" fill="rgb(141,0,0)"/>
<path d="M24 30h2v2h-2v-2z" fill="rgb(36,0,0)"/>
<path d="M2 32h2v2h-2v-2z" fill="rgb(108,59,51)"/>
<path d="M4 32h2v2h-2v-2z" fill="rgb(57,1,0)"/>
<path d="M6 32h2v2h-2v-2z" fill="rgb(204,181,71)"/>
<path d="M8 32h2v2h-2v-2z" fill="rgb(115,33,1)"/>
<path d="M10 32h2v2h-2v-2z" fill="rgb(57,1,0)"/>
<path d="M12 32h2v4h-2v-4z" fill="rgb(50,2,8)"/>
<path d="M14 32h2v2h-2v-2z" fill="rgb(123,77,64)"/>
<path d="M20 32h2v2h-2v-2z" fill="rgb(82,0,0)"/>
<path d="M22 32h2v2h-2v-2z" fill="rgb(36,0,0)"/>
<path d="M2 34h2v2h-2v-2z" fill="rgb(8,48,49)"/>
<path d="M4 34h2v2h-2v-2z" fill="rgb(36,125,102)"/>
<path d="M6 34h2v2h-2v-2z" fill="rgb(23,87,80)"/>
<path d="M8 34h2v2h-2v-2z" fill="rgb(36,125,102)"/>
<path d="M10 34h2v2h-2v-2z" fill="rgb(115,33,1)"/>
<path d="M14 34h2v2h-2v-2z" fill="rgb(108,59,51)"/>
<path d="M20 34h2v2h-2v-2z" fill="rgb(36,0,0)"/>
<path d="M0 36h2v2h2v6h-2v4h-2v-12z" fill="rgb(255,255,255)"/>
<path d="M2 36h2v2h-2v-2z" fill="rgb(50,2,8)"/>
<path d="M4 36h2v4h-2v-4z" fill="rgb(4,0,89)"/>
<path d="M6 36h2v2h-2v-2z" fill="rgb(56,76,158)"/>
<path d="M8 36h2v4h-2v-4z" fill="rgb(4,0,89)"/>
<path d="M10 36h4v4h-2v-2h-2v-2z" fill="rgb(56,76,158)"/>
<path d="M14 36h4v2h-4v-2z" fill="rgb(50,2,8)"/>
<path d="M18 36h2v4h-4v-2h2v-2z" fill="rgb(148,8,5)"/>
<path d="M20 36h6v2h-6v-2z" fill="rgb(69,2,0)"/>
<path d="M26 36h4v2h-4v-2z" fill="rgb(112,11,2)"/>
<path d="M6 38h2v2h-2v-2z" fill="rgb(90,140,217)"/>
<path d="M10 38h2v2h-2v-2z" fill="rgb(90,140,217)"/>
<path d="M14 38h2v2h-2v-2z" fill="rgb(4,0,89)"/>
<path d="M20 38h2v2h-2v-2z" fill="rgb(184,31,0)"/>
<path d="M22 38h2v4h-2v-4z" fill="rgb(207,60,0)"/>
<path d="M24 38h2v4h-2v-4z" fill="rgb(247,141,95)"/>
<path d="M26 38h4v2h-2v2h-2v-4z" fill="rgb(236,234,244)"/>
<path d="M30 38h2v2h-2v-2z" fill="rgb(112,11,2)"/>
<path d="M4 40h2v4h-2v-4z" fill="rgb(57,1,0)"/>
<path d="M6 40h2v2h-2v-2z" fill="rgb(79,16,3)"/>
<path d="M8 40h2v4h-2v-4z" fill="rgb(57,1,0)"/>
<path d="M10 40h4v2h-4v-2z" fill="rgb(79,16,3)"/>
<path d="M14 40h2v8h-14v-4h2v2h2v-2h2v2h6v-6z" fill="rgb(57,1,0)"/>
<path d="M16 40h4v2h-4v-2z" fill="rgb(69,2,0)"/>
<path d="M20 40h2v2h-2v-2z" fill="rgb(148,8,5)"/>
<path d="M28 40h2v2h-2v-2z" fill="rgb(112,11,2)"/>
<path d="M30 40h2v8h-16v-6h4v2h8v-2h2v-2z" fill="rgb(255,255,255)"/>
<path d="M6 42h2v2h-2v-2z" fill="rgb(115,33,1)"/>
<path d="M10 42h4v2h-2v2h-2v-4z" fill="rgb(115,33,1)"/>
<path d="M20 42h6v2h-6v-2z" fill="rgb(69,2,0)"/>
<path d="M26 42h2v2h-2v-2z" fill="rgb(112,11,2)"/>
<path d="M4 44h2v2h-2v-2z" fill="rgb(224,126,3)"/>
<path d="M8 44h2v2h-2v-2z" fill="rgb(224,126,3)"/>
<path d="M12 44h2v2h-2v-2z" fill="rgb(156,86,2)"/>
</svg>