<?xml version="1.0" encoding="utf-8"?>
<!-- generated at drububu.com  -->
<!DOCTYPE svg PUBLIC "-//W3C//DTD SVG 1.1//EN" "http://www.w3.org/Graphics/SVG/1.1/DTD/svg11.dtd">
<svg version="1.1" preserveAspectRatio="xMinYMin meet" xmlns="http://www.w3.org/2000/svg" xmlns:xlink="http://www.w3.org/1999/xlink" x="0px" y="0px" width="34px" height="48px" viewBox="0 0 34 48">
<path d="M0 0h6v2h-2v6h-2v8h-2v-16z" fill="rgb(255,255,255)"/>
<path d="M6 0h2v2h-2v-2z" fill="rgb(69,2,0)"/>
<path d="M8 0h6v2h-2v2h-2v-2h-2v-2z" fill="rgb(255,255,255)"/>
<path d="M14 0h2v2h-2v-2z" fill="rgb(69,2,0)"/>
<path d="M16 0h18v38h-2v-2h-8v-2h2v-2h2v-2h-2v-2h2v-2h2v-2h-2v-2h-2v-4h2v-2h-2
	v-2h-2v-6h-2v-2h-2v-2h-2v-2h-2v-2z" fill="rgb(255,255,255)"/>
<path d="M4 2h2v2h2v-2h2v2h2v-2h2v8h-2v-4h-6v2h-2v-6z" fill="rgb(69,2,0)"/>
<path d="M6 2h2v2h-2v-2z" fill="rgb(247,141,95)"/>
<path d="M14 2h2v2h-2v-2z" fill="rgb(239,211,208)"/>
<path d="M16 2h2v2h-2v-2z" fill="rgb(69,2,0)"/>
<path d="M14 4h2v6h-2v-6z" fill="rgb(132,17,3)"/>
<path d="M16 4h2v2h-2v-2z" fill="rgb(239,211,208)"/>
<path d="M18 4h2v2h-2v-2z" fill="rgb(69,2,0)"/>
<path d="M6 6h2v2h-2v-2z" fill="rgb(225,103,58)"/>
<path d="M8 6h2v2h-2v-2z" fill="rgb(207,60,0)"/>
<path d="M10 6h2v2h-2v-2z" fill="rgb(132,17,3)"/>
<path d="M16 6h2v2h2v2h2v2h-6v-6z" fill="rgb(225,103,58)"/>
<path d="M18 6h2v2h-2v-2z" fill="rgb(247,141,95)"/>
<path d="M20 6h2v2h-2v-2z" fill="rgb(69,2,0)"/>
<path d="M2 8h2v6h2v2h-4v-8z" fill="rgb(69,2,0)"/>
<path d="M4 8h2v2h-2v-2z" fill="rgb(132,17,3)"/>
<path d="M6 8h2v2h-2v-2z" fill="rgb(247,141,95)"/>
<path d="M8 8h2v2h-2v-2z" fill="rgb(225,103,58)"/>
<path d="M10 8h2v2h-2v-2z" fill="rgb(207,60,0)"/>
<path d="M20 8h2v2h-2v-2z" fill="rgb(247,141,95)"/>
<path d="M22 8h2v6h-2v-6z" fill="rgb(69,2,0)"/>
<path d="M4 10h2v2h-2v-2z" fill="rgb(207,60,0)"/>
<path d="M6 10h2v2h-2v-2z" fill="rgb(69,2,0)"/>
<path d="M8 10h2v2h-2v-2z" fill="rgb(239,211,208)"/>
<path d="M10 10h2v2h-2v-2z" fill="rgb(225,103,58)"/>
<path d="M12 10h2v2h-2v-2z" fill="rgb(132,17,3)"/>
<path d="M14 10h2v2h-2v-2z" fill="rgb(101,8,0)"/>
<path d="M4 12h2v2h-2v-2z" fill="rgb(95,6,0)"/>
<path d="M6 12h2v4h-2v-4z" fill="rgb(132,17,3)"/>
<path d="M8 12h2v2h-2v-2z" fill="rgb(69,2,0)"/>
<path d="M10 12h4v2h-4v-2z" fill="rgb(247,141,95)"/>
<path d="M14 12h2v2h-2v-2z" fill="rgb(207,60,0)"/>
<path d="M16 12h4v2h-4v-2z" fill="rgb(132,17,3)"/>
<path d="M20 12h2v2h-2v-2z" fill="rgb(207,60,0)"/>
<path d="M8 14h2v2h-2v-2z" fill="rgb(13,56,83)"/>
<path d="M10 14h4v2h-4v-2z" fill="rgb(69,2,0)"/>
<path d="M14 14h2v2h-2v-2z" fill="rgb(132,17,3)"/>
<path d="M16 14h2v2h-2v-2z" fill="rgb(225,103,58)"/>
<path d="M18 14h2v2h-2v-2z" fill="rgb(207,60,0)"/>
<path d="M20 14h2v2h-2v-2z" fill="rgb(247,141,95)"/>
<path d="M22 14h2v2h-2v-2z" fill="rgb(207,60,0)"/>
<path d="M24 14h2v2h-2v-2z" fill="rgb(69,2,0)"/>
<path d="M0 16h2v4h-2v-4z" fill="rgb(69,2,0)"/>
<path d="M2 16h2v2h-2v-2z" fill="rgb(132,17,3)"/>
<path d="M4 16h2v2h2v2h-6v-2h2v-2z" fill="rgb(247,141,95)"/>
<path d="M6 16h2v2h-2v-2z" fill="rgb(225,103,58)"/>
<path d="M8 16h2v2h-2v-2z" fill="rgb(2,117,98)"/>
<path d="M10 16h2v2h-2v-2z" fill="rgb(247,247,247)"/>
<path d="M12 16h2v2h-2v-2z" fill="rgb(132,17,3)"/>
<path d="M14 16h4v2h-4v-2z" fill="rgb(207,60,0)"/>
<path d="M18 16h2v2h-2v-2z" fill="rgb(225,103,58)"/>
<path d="M20 16h2v2h-2v-2z" fill="rgb(132,17,3)"/>
<path d="M22 16h4v2h-4v-2z" fill="rgb(247,141,95)"/>
<path d="M26 16h2v2h-2v-2z" fill="rgb(69,2,0)"/>
<path d="M8 18h4v2h-4v-2z" fill="rgb(225,103,58)"/>
<path d="M12 18h2v2h-2v-2z" fill="rgb(202,83,44)"/>
<path d="M14 18h4v4h-2v-2h-2v-2z" fill="rgb(132,17,3)"/>
<path d="M18 18h4v2h-4v-2z" fill="rgb(207,60,0)"/>
<path d="M22 18h2v2h-2v-2z" fill="rgb(132,17,3)"/>
<path d="M24 18h2v4h-2v-4z" fill="rgb(69,2,0)"/>
<path d="M0 20h2v2h2v4h-2v10h2v2h2v6h-2v4h-4v-28z" fill="rgb(255,255,255)"/>
<path d="M2 20h2v2h-2v-2z" fill="rgb(112,11,2)"/>
<path d="M4 20h6v2h-6v-2z" fill="rgb(239,211,208)"/>
<path d="M10 20h2v2h-2v-2z" fill="rgb(202,83,44)"/>
<path d="M12 20h2v2h-2v-2z" fill="rgb(132,17,3)"/>
<path d="M14 20h2v2h-2v-2z" fill="rgb(69,2,0)"/>
<path d="M18 20h2v2h-2v-2z" fill="rgb(69,2,0)"/>
<path d="M20 20h2v2h-2v-2z" fill="rgb(132,17,3)"/>
<path d="M22 20h2v2h-2v-2z" fill="rgb(225,103,58)"/>
<path d="M4 22h2v4h-2v-4z" fill="rgb(8,48,49)"/>
<path d="M6 22h4v2h-4v-2z" fill="rgb(157,115,110)"/>
<path d="M10 22h4v2h-4v-2z" fill="rgb(69,2,0)"/>
<path d="M14 22h2v2h-2v-2z" fill="rgb(8,48,49)"/>
<path d="M16 22h4v2h-4v-2z" fill="rgb(225,103,58)"/>
<path d="M20 22h2v12h2v2h4v2h-6v-2h-2v-14z" fill="rgb(69,2,0)"/>
<path d="M22 22h2v2h-2v-2z" fill="rgb(132,17,3)"/>
<path d="M24 22h2v2h-2v-2z" fill="rgb(247,141,95)"/>
<path d="M26 22h2v2h-2v-2z" fill="rgb(69,2,0)"/>
<path d="M6 24h6v2h-6v-2z" fill="rgb(207,174,170)"/>
<path d="M12 24h2v2h-2v-2z" fill="rgb(225,103,58)"/>
<path d="M14 24h2v2h-2v-2z" fill="rgb(47,169,107)"/>
<path d="M16 24h2v2h-2v-2z" fill="rgb(202,83,44)"/>
<path d="M18 24h2v12h-2v-12z" fill="rgb(247,141,95)"/>
<path d="M22 24h2v2h-2v-2z" fill="rgb(95,6,0)"/>
<path d="M24 24h2v2h-2v-2z" fill="rgb(132,17,3)"/>
<path d="M26 24h2v2h-2v-2z" fill="rgb(247,141,95)"/>
<path d="M28 24h2v2h-2v-2z" fill="rgb(69,2,0)"/>
<path d="M2 26h2v4h-2v-4z" fill="rgb(8,48,49)"/>
<path d="M4 26h2v2h-2v-2z" fill="rgb(36,125,102)"/>
<path d="M6 26h2v2h-2v-2z" fill="rgb(239,211,208)"/>
<path d="M8 26h2v2h-2v-2z" fill="rgb(183,141,137)"/>
<path d="M10 26h2v2h-2v-2z" fill="rgb(239,211,208)"/>
<path d="M12 26h2v2h-2v-2z" fill="rgb(36,125,102)"/>
<path d="M14 26h2v2h-2v-2z" fill="rgb(57,212,137)"/>
<path d="M16 26h2v4h-2v-4z" fill="rgb(69,2,0)"/>
<path d="M22 26h2v2h-2v-2z" fill="rgb(132,17,3)"/>
<path d="M24 26h2v2h-2v-2z" fill="rgb(95,6,0)"/>
<path d="M26 26h2v2h-2v-2z" fill="rgb(69,2,0)"/>
<path d="M4 28h2v2h-2v-2z" fill="rgb(57,212,137)"/>
<path d="M6 28h6v2h-6v-2z" fill="rgb(72,254,167)"/>
<path d="M12 28h2v2h-2v-2z" fill="rgb(57,212,137)"/>
<path d="M14 28h2v2h-2v-2z" fill="rgb(47,169,107)"/>
<path d="M22 28h2v2h-2v-2z" fill="rgb(207,60,0)"/>
<path d="M24 28h2v2h-2v-2z" fill="rgb(69,2,0)"/>
<path d="M2 30h2v2h-2v-2z" fill="rgb(69,2,0)"/>
<path d="M4 30h2v2h-2v-2z" fill="rgb(8,48,49)"/>
<path d="M6 30h2v2h-2v-2z" fill="rgb(36,125,102)"/>
<path d="M8 30h2v2h-2v-2z" fill="rgb(23,87,80)"/>
<path d="M10 30h4v2h-4v-2z" fill="rgb(36,125,102)"/>
<path d="M14 30h2v2h-2v-2z" fill="rgb(23,87,80)"/>
<path d="M16 30h2v2h-2v-2z" fill="rgb(112,11,2)"/>
<path d="M22 30h2v2h-2v-2z" fill="rgb(225,103,58)"/>
<path d="M24 30h2v2h-2v-2z" fill="rgb(207,60,0)"/>
<path d="M26 30h2v2h-2v-2z" fill="rgb(69,2,0)"/>
<path d="M2 32h2v4h-2v-4z" fill="rgb(112,11,2)"/>
<path d="M4 32h2v2h-2v-2z" fill="rgb(239,211,208)"/>
<path d="M6 32h2v2h-2v-2z" fill="rgb(57,1,0)"/>
<path d="M8 32h2v2h-2v-2z" fill="rgb(204,181,71)"/>
<path d="M10 32h2v2h-2v-2z" fill="rgb(115,33,1)"/>
<path d="M12 32h2v2h-2v-2z" fill="rgb(57,1,0)"/>
<path d="M14 32h2v4h-2v-4z" fill="rgb(112,11,2)"/>
<path d="M16 32h2v4h-2v-4z" fill="rgb(239,211,208)"/>
<path d="M22 32h2v2h-2v-2z" fill="rgb(132,17,3)"/>
<path d="M24 32h2v2h-2v-2z" fill="rgb(69,2,0)"/>
<path d="M4 34h2v2h-2v-2z" fill="rgb(8,48,49)"/>
<path d="M6 34h2v2h-2v-2z" fill="rgb(36,125,102)"/>
<path d="M8 34h2v2h-2v-2z" fill="rgb(23,87,80)"/>
<path d="M10 34h2v2h-2v-2z" fill="rgb(36,125,102)"/>
<path d="M12 34h2v2h-2v-2z" fill="rgb(115,33,1)"/>
<path d="M4 36h2v2h-2v-2z" fill="rgb(112,11,2)"/>
<path d="M6 36h2v4h-2v-4z" fill="rgb(4,0,89)"/>
<path d="M8 36h2v2h-2v-2z" fill="rgb(56,76,158)"/>
<path d="M10 36h2v4h-2v-4z" fill="rgb(4,0,89)"/>
<path d="M12 36h4v4h-2v-2h-2v-2z" fill="rgb(56,76,158)"/>
<path d="M16 36h4v2h-4v-2z" fill="rgb(112,11,2)"/>
<path d="M20 36h2v4h-4v-2h2v-2z" fill="rgb(148,8,5)"/>
<path d="M28 36h4v2h-4v-2z" fill="rgb(112,11,2)"/>
<path d="M8 38h2v2h-2v-2z" fill="rgb(90,140,217)"/>
<path d="M12 38h2v2h-2v-2z" fill="rgb(90,140,217)"/>
<path d="M16 38h2v2h-2v-2z" fill="rgb(4,0,89)"/>
<path d="M22 38h2v2h-2v-2z" fill="rgb(184,31,0)"/>
<path d="M24 38h2v4h-2v-4z" fill="rgb(207,60,0)"/>
<path d="M26 38h2v4h-2v-4z" fill="rgb(247,141,95)"/>
<path d="M28 38h4v2h-2v2h-2v-4z" fill="rgb(236,234,244)"/>
<path d="M32 38h2v2h-2v-2z" fill="rgb(112,11,2)"/>
<path d="M6 40h2v4h-2v-4z" fill="rgb(57,1,0)"/>
<path d="M8 40h2v2h-2v-2z" fill="rgb(79,16,3)"/>
<path d="M10 40h2v4h-2v-4z" fill="rgb(57,1,0)"/>
<path d="M12 40h4v2h-4v-2z" fill="rgb(79,16,3)"/>
<path d="M16 40h2v8h-14v-4h2v2h2v-2h2v2h6v-6z" fill="rgb(57,1,0)"/>
<path d="M18 40h4v2h-4v-2z" fill="rgb(69,2,0)"/>
<path d="M22 40h2v2h-2v-2z" fill="rgb(148,8,5)"/>
<path d="M30 40h2v2h-2v-2z" fill="rgb(112,11,2)"/>
<path d="M32 40h2v8h-16v-6h4v2h8v-2h2v-2z" fill="rgb(255,255,255)"/>
<path d="M8 42h2v2h-2v-2z" fill="rgb(115,33,1)"/>
<path d="M12 42h4v2h-2v2h-2v-4z" fill="rgb(115,33,1)"/>
<path d="M22 42h6v2h-6v-2z" fill="rgb(69,2,0)"/>
<path d="M28 42h2v2h-2v-2z" fill="rgb(112,11,2)"/>
<path d="M6 44h2v2h-2v-2z" fill="rgb(224,126,3)"/>
<path d="M10 44h2v2h-2v-2z" fill="rgb(224,126,3)"/>
<path d="M14 44h2v2h-2v-2z" fill="rgb(156,86,2)"/>
</svg>